<svg width="31" height="27" viewBox="0 0 31 27" fill="none" xmlns="http://www.w3.org/2000/svg">
<path d="M15.493 1.05469C8.79158 1.05469 3.34766 6.49861 3.34766 13.2001C3.34766 19.9015 8.79158 25.3454 15.493 25.3454C22.1945 25.3454 27.6384 19.9015 27.6384 13.2001C27.6384 6.49861 22.1945 1.05469 15.493 1.05469ZM15.493 2.11081C21.6237 2.11081 26.5823 7.06938 26.5823 13.2001C26.5823 19.3307 21.6237 24.2893 15.493 24.2893C9.36235 24.2893 4.40378 19.3307 4.40378 13.2001C4.40378 7.06938 9.36235 2.11081 15.493 2.11081ZM15.4848 8.96836C15.3449 8.97055 15.2116 9.02814 15.1142 9.12849C15.0167 9.22885 14.9631 9.36377 14.965 9.50364V12.672H11.7966C11.7266 12.671 11.6572 12.6839 11.5922 12.71C11.5273 12.7361 11.4682 12.7749 11.4184 12.824C11.3685 12.8731 11.329 12.9317 11.3019 12.9962C11.2749 13.0608 11.261 13.1301 11.261 13.2001C11.261 13.27 11.2749 13.3393 11.3019 13.4039C11.329 13.4684 11.3685 13.527 11.4184 13.5761C11.4682 13.6253 11.5273 13.664 11.5922 13.6901C11.6572 13.7162 11.7266 13.7291 11.7966 13.7281H14.965V16.8965C14.964 16.9665 14.9769 17.0359 15.003 17.1009C15.0291 17.1658 15.0678 17.2249 15.117 17.2747C15.1661 17.3246 15.2246 17.3641 15.2892 17.3911C15.3538 17.4182 15.423 17.4321 15.493 17.4321C15.563 17.4321 15.6323 17.4182 15.6969 17.3911C15.7614 17.3641 15.82 17.3246 15.8691 17.2747C15.9182 17.2249 15.957 17.1658 15.9831 17.1009C16.0092 17.0359 16.0221 16.9665 16.0211 16.8965V13.7281H19.1894C19.2594 13.7291 19.3289 13.7162 19.3938 13.6901C19.4588 13.664 19.5179 13.6253 19.5677 13.5761C19.6175 13.527 19.6571 13.4684 19.6841 13.4039C19.7111 13.3393 19.725 13.27 19.725 13.2001C19.725 13.1301 19.7111 13.0608 19.6841 12.9962C19.6571 12.9317 19.6175 12.8731 19.5677 12.824C19.5179 12.7749 19.4588 12.7361 19.3938 12.71C19.3289 12.6839 19.2594 12.671 19.1894 12.672H16.0211V9.50364C16.0221 9.43299 16.0088 9.36287 15.9822 9.29742C15.9556 9.23197 15.9161 9.17253 15.8661 9.12262C15.8161 9.07271 15.7566 9.03334 15.6911 9.00684C15.6256 8.98034 15.5554 8.96726 15.4848 8.96836Z" fill="#7567F5"/>
</svg>
