<svg width="23" height="24" viewBox="0 0 23 24" fill="none" xmlns="http://www.w3.org/2000/svg">
<path d="M10.7812 1.5V0.75C10.7812 0.551088 10.857 0.360322 10.9918 0.21967C11.1266 0.0790176 11.3094 0 11.5 0C11.6906 0 11.8734 0.0790176 12.0082 0.21967C12.143 0.360322 12.2188 0.551088 12.2188 0.75V1.5C12.2188 1.69891 12.143 1.88968 12.0082 2.03033C11.8734 2.17098 11.6906 2.25 11.5 2.25C11.3094 2.25 11.1266 2.17098 10.9918 2.03033C10.857 1.88968 10.7812 1.69891 10.7812 1.5ZM17.9688 4.5C18.0632 4.50008 18.1567 4.48074 18.2439 4.4431C18.3312 4.40546 18.4105 4.35025 18.4773 4.28062L19.196 3.53062C19.3309 3.38989 19.4067 3.19902 19.4067 3C19.4067 2.80098 19.3309 2.61011 19.196 2.46938C19.0611 2.32864 18.8782 2.24958 18.6875 2.24958C18.4968 2.24958 18.3139 2.32864 18.179 2.46938L17.4602 3.21938C17.3596 3.32427 17.2911 3.45796 17.2633 3.60352C17.2355 3.74908 17.2497 3.89998 17.3042 4.03709C17.3586 4.17421 17.4508 4.29139 17.5691 4.37379C17.6874 4.45619 17.8265 4.50012 17.9688 4.5ZM4.52273 4.28062C4.6576 4.42136 4.84052 4.50042 5.03125 4.50042C5.22198 4.50042 5.4049 4.42136 5.53977 4.28062C5.67463 4.13989 5.7504 3.94902 5.7504 3.75C5.7504 3.55098 5.67463 3.36011 5.53977 3.21938L4.82102 2.46938C4.68615 2.32864 4.50323 2.24958 4.3125 2.24958C4.12177 2.24958 3.93885 2.32864 3.80398 2.46938C3.66912 2.61011 3.59335 2.80098 3.59335 3C3.59335 3.19902 3.66912 3.38989 3.80398 3.53062L4.52273 4.28062ZM12.3391 6.76031C12.2456 6.74306 12.1498 6.74531 12.0571 6.76693C11.9645 6.78855 11.8768 6.82911 11.7993 6.88627C11.7217 6.94343 11.6558 7.01606 11.6053 7.09997C11.5548 7.18387 11.5207 7.27738 11.5051 7.3751C11.4894 7.47282 11.4925 7.57281 11.514 7.66929C11.5356 7.76577 11.5753 7.85684 11.6308 7.93723C11.6863 8.01762 11.7565 8.08574 11.8374 8.13765C11.9182 8.18957 12.0082 8.22425 12.102 8.23969C13.8063 8.53875 15.0938 10.155 15.0938 12C15.0938 12.1989 15.1695 12.3897 15.3043 12.5303C15.4391 12.671 15.6219 12.75 15.8125 12.75C16.0031 12.75 16.1859 12.671 16.3207 12.5303C16.4555 12.3897 16.5312 12.1989 16.5312 12C16.5312 9.43125 14.7281 7.17844 12.3373 6.76031H12.3391ZM20.8438 16.5V18.75C20.8438 19.1478 20.6923 19.5294 20.4227 19.8107C20.1531 20.092 19.7875 20.25 19.4062 20.25H3.59375C3.2125 20.25 2.84687 20.092 2.57728 19.8107C2.3077 19.5294 2.15625 19.1478 2.15625 18.75V16.5C2.15625 16.1022 2.3077 15.7206 2.57728 15.4393C2.84687 15.158 3.2125 15 3.59375 15V12C3.59372 10.9113 3.8002 9.83334 4.20128 8.82829C4.60237 7.82323 5.19013 6.91096 5.93068 6.14405C6.67123 5.37714 7.54993 4.77076 8.51612 4.35987C9.48231 3.94898 10.5169 3.74171 11.5602 3.75C15.8862 3.78375 19.4062 7.52719 19.4062 12.0938V15C19.7875 15 20.1531 15.158 20.4227 15.4393C20.6923 15.7206 20.8438 16.1022 20.8438 16.5ZM5.03125 15H17.9688V12.0938C17.9688 8.34375 15.0893 5.27719 11.5494 5.25H11.5C9.78438 5.25 8.13903 5.96116 6.9259 7.22703C5.71278 8.4929 5.03125 10.2098 5.03125 12V15ZM19.4062 18.75V16.5H3.59375V18.75H19.4062Z" fill="white"/>
</svg>
