<svg width="25" height="25" viewBox="0 0 25 25" fill="none" xmlns="http://www.w3.org/2000/svg">
<path d="M12.334 0C9.06287 0 5.92582 1.29946 3.61254 3.61254C1.29951 5.92577 0 9.06323 0 12.334C0 15.6049 1.29946 18.7423 3.61254 21.0555C5.92577 23.3686 9.06323 24.6681 12.334 24.6681C15.6049 24.6681 18.7423 23.3686 21.0555 21.0555C23.3686 18.7423 24.6681 15.6049 24.6681 12.334C24.6681 9.06323 23.3686 5.92582 21.0555 3.61254C18.7423 1.29952 15.6049 0 12.334 0ZM12.334 18.2223C12.0225 18.2223 11.7236 18.0986 11.5034 17.8784C11.2831 17.6581 11.1594 17.3592 11.1594 17.0477C11.1594 16.7362 11.2831 16.4373 11.5034 16.217C11.7236 15.9968 12.0225 15.8731 12.334 15.8731C12.6456 15.8731 12.9445 15.9968 13.1647 16.217C13.385 16.4373 13.5087 16.7362 13.5087 17.0477C13.5087 17.3592 13.385 17.6581 13.1647 17.8784C12.9445 18.0986 12.6456 18.2223 12.334 18.2223ZM13.5087 13.5237C13.5087 13.9433 13.2849 14.3311 12.9214 14.5409C12.558 14.7508 12.1101 14.7508 11.7466 14.5409C11.3832 14.3311 11.1594 13.9433 11.1594 13.5237V6.47558C11.1594 6.05592 11.3832 5.66812 11.7466 5.45829C12.11 5.24845 12.558 5.24845 12.9214 5.45829C13.2849 5.66812 13.5087 6.05591 13.5087 6.47558V13.5237Z" fill="#FFC634"/>
</svg>
