<svg width="20" height="20" viewBox="0 0 20 20" fill="none" xmlns="http://www.w3.org/2000/svg">
<g clip-path="url(#clip0_6616_14788)">
<path d="M14.4783 0.988285C11.8713 0.988285 9.75781 3.1017 9.75781 5.70876C9.75781 6.11896 9.81561 6.51475 9.91393 6.8942H12.534C12.9988 6.8942 13.4209 7.16578 13.6135 7.5889L14.8969 10.4081C14.979 10.4009 15.0595 10.3889 15.1404 10.3775L15.4654 9.55738C15.5419 9.36442 15.7629 9.27309 15.9532 9.35572L16.8169 9.73073C16.8394 9.74048 16.8583 9.75502 16.8779 9.76864C18.2655 8.9466 19.1988 7.43848 19.1988 5.70875C19.1988 3.1017 17.0854 0.988285 14.4783 0.988285ZM11.26 5.86497H10.4692C10.383 5.86497 10.313 5.79497 10.313 5.70876C10.313 5.62255 10.383 5.55255 10.4692 5.55255H11.26C11.3462 5.55255 11.4162 5.62255 11.4162 5.70876C11.4162 5.79497 11.3462 5.86497 11.26 5.86497ZM16.6395 7.86978C16.609 7.9003 16.5691 7.91556 16.529 7.91556C16.489 7.91556 16.4491 7.9003 16.4186 7.86978L14.9347 6.38598C14.8044 6.47396 14.6474 6.52534 14.4783 6.52534C14.0273 6.52534 13.6618 6.15975 13.6618 5.70876C13.6618 5.31131 13.946 4.98098 14.3221 4.90796V1.6997C14.3221 1.61349 14.3921 1.54349 14.4783 1.54349C14.5645 1.54349 14.6345 1.61349 14.6345 1.6997V4.90796C15.0106 4.98091 15.2949 5.31129 15.2949 5.70876C15.2949 5.8778 15.2435 6.03482 15.1555 6.16511L16.6395 7.64891C16.7005 7.70994 16.7005 7.80875 16.6395 7.86978ZM18.4873 5.86497H17.6965C17.6103 5.86497 17.5403 5.79497 17.5403 5.70876C17.5403 5.62255 17.6103 5.55255 17.6965 5.55255H18.4873C18.5735 5.55255 18.6435 5.62255 18.6435 5.70876C18.6435 5.79497 18.5735 5.86497 18.4873 5.86497Z" fill="#23D9EF"/>
<path d="M3.71191 10.612L4.92263 7.95244C5.03262 7.71081 5.27522 7.55469 5.54071 7.55469H12.3158C12.5813 7.55469 12.8239 7.71082 12.9339 7.95246L14.1446 10.612H3.71191Z" fill="#7467F4"/>
<path d="M16.6932 11.7828L15.2095 10.6289L15.6111 9.61532C15.6323 9.56153 15.6735 9.51995 15.7267 9.49783C15.7803 9.47551 15.8385 9.47646 15.8915 9.49936L16.7551 9.87453C16.8324 9.90791 16.8822 9.98382 16.8822 10.0679V10.1831C16.8822 10.2995 16.7874 10.3943 16.671 10.3943H15.9283C15.8421 10.3943 15.7721 10.4643 15.7721 10.5505C15.7721 10.6367 15.8421 10.7067 15.9283 10.7067H16.671C16.9598 10.7067 17.1946 10.4719 17.1946 10.1831V10.0679C17.1946 9.85908 17.071 9.67064 16.8795 9.58786L16.0161 9.21287C15.8848 9.15584 15.7393 9.15432 15.6075 9.20906C15.4751 9.26361 15.3733 9.36699 15.3204 9.50012L15.011 10.2811L13.7562 7.52449C13.5386 7.04689 13.0591 6.73828 12.5344 6.73828H5.32154C4.79683 6.73828 4.31732 7.04689 4.0997 7.52449L2.83665 10.2993L2.51984 9.50032C2.46719 9.36718 2.36534 9.2638 2.23316 9.20906C2.10117 9.15432 1.95564 9.15585 1.82461 9.21288L0.960957 9.58767C0.769461 9.67064 0.645863 9.85909 0.645863 10.0679V10.1831C0.645863 10.4719 0.880656 10.7067 1.16943 10.7067H1.91215C1.99836 10.7067 2.06836 10.6367 2.06836 10.5505C2.06836 10.4643 1.99836 10.3943 1.91215 10.3943H1.16943C1.05308 10.3943 0.958285 10.2995 0.958285 10.1831V10.0679C0.958285 9.98383 1.00807 9.90791 1.08532 9.87434L1.94916 9.49936C2.00161 9.47628 2.06016 9.4759 2.11376 9.49783C2.16698 9.51996 2.20798 9.56154 2.22916 9.61532L2.63459 10.638L1.16276 11.7828C0.833359 12.039 0.644531 12.4252 0.644531 12.8424V16.7355C0.644531 17.2365 1.0183 17.6478 1.50093 17.7158V18.5701C1.50093 19.1151 1.9442 19.5583 2.48913 19.5583H3.67531C4.22024 19.5583 4.66351 19.1151 4.66351 18.5701V18.3334C4.66351 18.2472 4.59351 18.1772 4.5073 18.1772C4.42109 18.1772 4.35109 18.2472 4.35109 18.3334V18.5701C4.35109 18.9428 4.04801 19.2459 3.67531 19.2459H2.48913C2.11644 19.2459 1.81336 18.9428 1.81336 18.5701V17.7297H13.1926V18.5701C13.1926 19.1151 13.6359 19.5583 14.1808 19.5583H15.367C15.9119 19.5583 16.3552 19.1151 16.3552 18.5701V17.7158C16.8377 17.6478 17.2114 17.2365 17.2114 16.7355V12.8424C17.2114 12.4252 17.0226 12.039 16.6932 11.7828ZM16.0428 18.5701C16.0428 18.9428 15.7397 19.2459 15.367 19.2459H14.1808C13.8081 19.2459 13.505 18.9428 13.505 18.5701V17.7298H16.0428V18.5701ZM16.899 16.7355C16.899 17.1114 16.593 17.4173 16.2169 17.4173H1.63902C1.26289 17.4173 0.956957 17.1114 0.956957 16.7355V12.8424C0.956957 12.5223 1.10191 12.2261 1.35464 12.0296L2.93088 10.8036C2.95071 10.788 2.96673 10.7679 2.97722 10.7449L4.38427 7.6538C4.55098 7.2874 4.9189 7.0507 5.32154 7.0507H12.5344C12.937 7.0507 13.3049 7.2874 13.4716 7.6538L14.8787 10.7449C14.8799 10.7475 14.8826 10.749 14.8839 10.7515C14.893 10.7689 14.905 10.7843 14.9201 10.7973C14.9221 10.7991 14.9229 10.8019 14.925 10.8036L16.5013 12.0296C16.754 12.2261 16.899 12.5223 16.899 12.8424L16.899 16.7355Z" fill="#0B215D"/>
<path d="M3.93262 13.3759L2.09928 12.4882C2.00315 12.4417 1.89119 12.4474 1.79983 12.5042C1.70866 12.5613 1.6543 12.6595 1.6543 12.7671V13.0787C1.6543 14.0788 2.46778 14.8922 3.4678 14.8922H4.84281C4.9315 14.8922 5.01257 14.8476 5.05987 14.7726C5.10736 14.6975 5.11289 14.6048 5.07455 14.5245C4.83633 14.025 4.43063 13.617 3.93262 13.3759ZM1.96252 12.7692L2.03119 12.6288L1.96309 12.7694C1.9629 12.7694 1.96271 12.7692 1.96252 12.7692ZM3.4678 14.5798C2.64021 14.5798 1.96672 13.9063 1.96672 13.0787L1.96558 12.7707L3.79644 13.657C4.20423 13.8545 4.54107 14.1802 4.75259 14.5798H3.4678Z" fill="#0B215D"/>
<path d="M15.9771 12.3829L13.9233 13.3776C13.4251 13.6187 13.0194 14.0264 12.781 14.5264C12.7428 14.6065 12.7484 14.6992 12.7959 14.7741C12.8432 14.8491 12.9244 14.8939 13.0131 14.8939H14.3881C15.2436 14.8939 15.9903 14.2868 16.1637 13.4502C16.1812 13.3657 16.1269 13.2832 16.0424 13.2656C15.9584 13.2473 15.8753 13.3022 15.8577 13.3869C15.7141 14.0791 15.0961 14.5815 14.3881 14.5815H13.1031C13.3149 14.1817 13.6515 13.8561 14.0595 13.6587L16.1133 12.664C16.1909 12.6265 16.2234 12.533 16.1858 12.4554C16.1484 12.3779 16.0553 12.3451 15.9771 12.3829Z" fill="#0B215D"/>
<path d="M11.8524 14.6797H6.00387C5.91766 14.6797 5.84766 14.7497 5.84766 14.8359C5.84766 14.9221 5.91766 14.9921 6.00387 14.9921H11.8524C11.9386 14.9921 12.0086 14.9221 12.0086 14.8359C12.0086 14.7497 11.9386 14.6797 11.8524 14.6797Z" fill="#0B215D"/>
<path d="M11.1697 15.9336H6.68648C6.60027 15.9336 6.53027 16.0036 6.53027 16.0898C6.53027 16.176 6.60027 16.246 6.68648 16.246H11.1697C11.2559 16.246 11.3259 16.176 11.3259 16.0898C11.3259 16.0036 11.2559 15.9336 11.1697 15.9336Z" fill="#0B215D"/>
<path d="M4.81646 12.9513C5.1327 13.2744 5.57349 13.4596 6.02553 13.4596H11.8311C12.2832 13.4596 12.7239 13.2744 13.0402 12.9513L14.3742 11.5895C14.4346 11.5278 14.4335 11.4289 14.3719 11.3686C14.3103 11.3081 14.2113 11.3089 14.151 11.3709L12.817 12.7327C12.559 12.9961 12.1996 13.1472 11.8311 13.1472H6.02553C5.65703 13.1472 5.29769 12.9961 5.03962 12.7327L3.69456 11.3594C3.63428 11.2976 3.5351 11.2969 3.47369 11.3571C3.41208 11.4174 3.41094 11.5164 3.4714 11.578L4.81646 12.9513Z" fill="#0B215D"/>
<path d="M19.5088 9.86108L18.3871 10.0144C18.3017 10.0263 18.2418 10.105 18.2534 10.1905C18.2641 10.2689 18.3312 10.3255 18.4081 10.3255C18.4151 10.3255 18.4222 10.3251 18.4294 10.3242L19.5512 10.1708C19.6366 10.159 19.6965 10.0802 19.6849 9.99478C19.673 9.90895 19.5943 9.8483 19.5088 9.86108Z" fill="#0B215D"/>
<path d="M17.8424 11.4607C17.7838 11.3966 17.685 11.3933 17.6215 11.4517C17.5582 11.5103 17.5542 11.6091 17.6127 11.6726L18.3905 12.5154C18.4213 12.549 18.4632 12.5658 18.5054 12.5658C18.5433 12.5658 18.5813 12.5521 18.6114 12.5244C18.6747 12.4658 18.6787 12.367 18.6202 12.3035L17.8424 11.4607Z" fill="#0B215D"/>
<path d="M6.53872 5.57316L7.6343 5.85869C7.64765 5.86213 7.66081 5.86366 7.67397 5.86366C7.74321 5.86366 7.80672 5.81712 7.82503 5.74693C7.84678 5.66338 7.79662 5.57793 7.71326 5.55619L6.61768 5.27066C6.53395 5.2491 6.44869 5.2987 6.42695 5.38243C6.40521 5.46597 6.45537 5.55142 6.53872 5.57316Z" fill="#0B215D"/>
<path d="M8.6881 4.72742C8.71137 4.79055 8.77107 4.82946 8.83459 4.82946C8.85271 4.82946 8.87102 4.82641 8.88876 4.81973C8.96982 4.78979 9.01102 4.69995 8.98107 4.61908L8.58301 3.54334C8.55326 3.46227 8.46227 3.42146 8.38236 3.45102C8.30129 3.48096 8.2601 3.5708 8.29004 3.65167L8.6881 4.72742Z" fill="#0B215D"/>
</g>
<defs>
<clipPath id="clip0_6616_14788">
<rect width="20" height="20" fill="white"/>
</clipPath>
</defs>
</svg>
