<svg width="20" height="20" viewBox="0 0 20 20" fill="none" xmlns="http://www.w3.org/2000/svg">
<path d="M5.83301 14.1673L5.83301 10.834" stroke="#7567F5" stroke-width="1.5" stroke-linecap="round"/>
<path d="M10 14.1673L10 5.83398" stroke="#7567F5" stroke-width="1.5" stroke-linecap="round"/>
<path d="M14.167 14.166L14.167 9.16602" stroke="#7567F5" stroke-width="1.5" stroke-linecap="round"/>
<path d="M2.08301 10.0007C2.08301 6.2687 2.08301 4.40272 3.24238 3.24335C4.40175 2.08398 6.26772 2.08398 9.99967 2.08398C13.7316 2.08398 15.5976 2.08398 16.757 3.24335C17.9163 4.40272 17.9163 6.2687 17.9163 10.0007C17.9163 13.7326 17.9163 15.5986 16.757 16.7579C15.5976 17.9173 13.7316 17.9173 9.99967 17.9173C6.26772 17.9173 4.40175 17.9173 3.24238 16.7579C2.08301 15.5986 2.08301 13.7326 2.08301 10.0007Z" stroke="#7567F5" stroke-width="1.5" stroke-linejoin="round"/>
</svg>
