<svg height="200px" width="200px" version="1.1" id="Layer_1" xmlns="http://www.w3.org/2000/svg" xmlns:xlink="http://www.w3.org/1999/xlink" viewBox="0 0 512 512" xml:space="preserve" fill="#000000"><g id="SVGRepo_bgCarrier" stroke-width="0"></g><g id="SVGRepo_tracerCarrier" stroke-linecap="round" stroke-linejoin="round"></g><g id="SVGRepo_iconCarrier"> <polygon style="fill:#FEE191;" points="512,128.819 512,512 384,466.489 349.867,274.898 384,83.308 "></polygon> <polygon style="fill:#FFD24D;" points="384,83.308 384,466.489 256,512 233.244,320.41 256,128.819 "></polygon> <polygon style="fill:#FEE191;" points="256,128.819 256,512 128,466.489 93.867,274.898 128,83.308 "></polygon> <polygon style="fill:#FFD24D;" points="128,83.308 128,466.489 0,512 0,128.819 "></polygon> <path style="fill:#F14742;" d="M435.61,115.61c0,92.573-104.507,178.309-104.507,178.309c-6.106,5.01-16.1,5.01-22.206,0 c0,0-104.507-85.736-104.507-178.309C204.389,51.761,256.15,0,320,0S435.61,51.761,435.61,115.61z"></path> <path style="fill:#FFFFFF;" d="M320,173.774c-32.072,0-58.164-26.093-58.164-58.164S287.928,57.446,320,57.446 s58.164,26.093,58.164,58.164S352.072,173.774,320,173.774z"></path> </g></svg>