<svg width="25" height="25" viewBox="0 0 25 25" fill="none" xmlns="http://www.w3.org/2000/svg">
<path d="M10.8078 7.3975C10.2128 7.13094 9.5718 6.84375 8.5 6.84375C4.5 6.84375 3.50003 10.844 3.5 14.8438C3.49997 18.8435 6.5 23.8438 8.5 23.8438C9.67157 23.8438 10.5 23.5007 11.1863 23.2164C11.6716 23.0154 12.0858 22.8438 12.5 22.8438C12.9142 22.8438 13.3284 23.0154 13.8137 23.2164C14.5 23.5007 15.3284 23.8438 16.5 23.8438C17.9277 23.8438 19.8651 21.2958 20.8569 18.3825C20.9567 18.0891 20.753 17.7864 20.4538 17.7055C18.7521 17.2456 17.5 15.691 17.5 13.8438C17.5 12.1007 18.6149 10.618 20.1705 10.07C20.4659 9.96593 20.6482 9.64243 20.509 9.36181C19.76 7.8518 18.508 6.84375 16.5 6.84375C15.4282 6.84375 14.7872 7.13094 14.1922 7.3975C13.6769 7.62836 13.1962 7.84375 12.5 7.84375C11.8038 7.84375 11.3231 7.62836 10.8078 7.3975Z" fill="#23262F"/>
<path d="M12.5 5.59375C12.5 3.52268 14.1789 1.84375 16.25 1.84375C16.3881 1.84375 16.5 1.95568 16.5 2.09375C16.5 4.16482 14.8211 5.84375 12.75 5.84375C12.6119 5.84375 12.5 5.73182 12.5 5.59375Z" fill="#23262F"/>
</svg>
