<svg width="17" height="15" viewBox="0 0 17 15" fill="none" xmlns="http://www.w3.org/2000/svg">
<path d="M15.9863 6.20438H4.12633L7.75633 1.84438C7.92607 1.64016 8.00773 1.37688 7.98335 1.11245C7.95897 0.848027 7.83054 0.604116 7.62633 0.434377C7.42211 0.264639 7.15883 0.182977 6.8944 0.207357C6.62998 0.231736 6.38607 0.360161 6.21633 0.564377L1.21633 6.56438C1.18269 6.6121 1.15261 6.66224 1.12633 6.71438C1.12633 6.76438 1.12633 6.79438 1.05633 6.84438C1.011 6.95904 0.987269 7.08109 0.986328 7.20438C0.987269 7.32767 1.011 7.44972 1.05633 7.56438C1.05633 7.61438 1.05633 7.64438 1.12633 7.69438C1.15261 7.74652 1.18269 7.79665 1.21633 7.84438L6.21633 13.8444C6.31035 13.9573 6.42809 14.048 6.56117 14.1103C6.69426 14.1725 6.83942 14.2046 6.98633 14.2044C7.21998 14.2048 7.44642 14.1235 7.62633 13.9744C7.72759 13.8904 7.81129 13.7873 7.87264 13.671C7.93399 13.5546 7.97179 13.4273 7.98386 13.2963C7.99594 13.1654 7.98206 13.0333 7.94301 12.9077C7.90397 12.7821 7.84053 12.6654 7.75633 12.5644L4.12633 8.20438H15.9863C16.2515 8.20438 16.5059 8.09902 16.6934 7.91148C16.881 7.72395 16.9863 7.46959 16.9863 7.20438C16.9863 6.93916 16.881 6.68481 16.6934 6.49727C16.5059 6.30973 16.2515 6.20438 15.9863 6.20438Z" fill="#1B95F9"/>
</svg>
