<svg width="15" height="20" viewBox="0 0 15 20" fill="none" xmlns="http://www.w3.org/2000/svg">
<path d="M7.29167 13.9583C5 13.9583 3.125 12.1483 3.125 9.935V4.64833C3.125 2.435 5 0.625 7.29167 0.625C9.58333 0.625 11.4583 2.435 11.4583 4.64833V9.935C11.4583 12.1483 9.58333 13.9583 7.29167 13.9583Z" fill="#7567F5" fill-opacity="0.16"/>
<path d="M7.29167 18.9583V16.4583M7.29167 16.4583C5.52356 16.4583 3.82786 15.756 2.57762 14.5057C1.32738 13.2555 0.625 11.5598 0.625 9.79167M7.29167 16.4583C9.05978 16.4583 10.7555 15.756 12.0057 14.5057C13.256 13.2555 13.9583 11.5598 13.9583 9.79167M7.29167 13.9583C5 13.9583 3.125 12.1483 3.125 9.935V4.64833C3.125 2.435 5 0.625 7.29167 0.625C9.58333 0.625 11.4583 2.435 11.4583 4.64833V9.935C11.4583 12.1483 9.58333 13.9583 7.29167 13.9583Z" stroke="#7567F5" stroke-width="1.25" stroke-linecap="round" stroke-linejoin="round"/>
</svg>
