<svg width="24" height="24" viewBox="0 0 24 24" fill="none" xmlns="http://www.w3.org/2000/svg">
<path d="M14.9186 16.2211C14.9186 15.637 15.3921 15.1636 15.9761 15.1636H16.3122V14.8097C14.9486 13.2802 12.9635 12.3164 10.7529 12.3164C7.62816 12.3164 4.95395 14.2411 3.84863 16.9692C5.48785 18.9605 7.97176 20.2308 10.7529 20.2308C12.2575 20.2308 13.6746 19.8586 14.9186 19.2019V16.2216V16.2211Z" fill="#23D9EF"/>
<path d="M10.7526 13.4564C12.9508 13.4564 14.7328 11.6744 14.7328 9.47625C14.7328 7.27807 12.9508 5.49609 10.7526 5.49609C8.55444 5.49609 6.77246 7.27807 6.77246 9.47625C6.77246 11.6744 8.55444 13.4564 10.7526 13.4564Z" fill="#23D9EF"/>
<path d="M10.7525 21.4838H10.737C8.98485 21.4809 7.25704 21.0258 5.73969 20.167C5.64969 20.1159 5.61782 20.0016 5.66891 19.9116C5.72 19.8216 5.83438 19.7897 5.92438 19.8408C7.38547 20.6677 9.04954 21.1064 10.7375 21.1088H10.7525C12.1761 21.1088 13.5514 20.8078 14.84 20.2144C14.9342 20.1708 15.0453 20.212 15.0889 20.3063C15.132 20.4005 15.0913 20.5116 14.997 20.5552C13.6588 21.1716 12.2305 21.4842 10.7525 21.4842V21.4838Z" fill="#0B215D"/>
<path d="M1.76721 21.2588C1.57784 21.2588 1.39596 21.1848 1.25721 21.0455C1.07159 20.8599 1.00128 20.5979 1.06924 20.3443L2.06675 16.621C1.10112 15.0507 0.581745 13.2455 0.562995 11.3949C0.536745 8.76054 1.55534 6.23164 3.43081 4.27367C5.30721 2.31429 7.79018 1.18976 10.4217 1.10679C13.0008 1.02476 15.4917 1.90976 17.4333 3.59726C19.3556 5.26789 20.5772 7.57461 20.8721 10.0923C20.8842 10.1949 20.8107 10.2882 20.7075 10.3004C20.6044 10.3126 20.5116 10.239 20.4994 10.1359C20.2153 7.71101 19.0388 5.48961 17.1872 3.88039C15.3169 2.25476 12.9174 1.40258 10.4335 1.48133C7.90034 1.56148 5.50971 2.64523 3.70128 4.53242C1.89378 6.41914 0.912214 8.85476 0.937526 11.3907C0.955339 13.1996 1.47049 14.9635 2.42721 16.4912C2.45487 16.5352 2.46284 16.5887 2.44924 16.6393L1.43065 20.4409C1.39784 20.5637 1.43159 20.6902 1.52159 20.7802C1.61159 20.8702 1.73815 20.904 1.86096 20.8712L4.40299 20.1901C4.50284 20.1629 4.60596 20.2224 4.63268 20.3227C4.6594 20.4226 4.60034 20.5257 4.50003 20.5524L1.95799 21.2335C1.89424 21.2504 1.83003 21.2588 1.76674 21.2588H1.76721Z" fill="#0B215D"/>
<path d="M21.8569 15.3522C21.7533 15.3522 21.6694 15.2683 21.6694 15.1647V13.5339C21.6694 12.1084 20.5097 10.9492 19.0847 10.9492C17.6597 10.9492 16.5 12.1089 16.5 13.5339V15.1647C16.5 15.2683 16.4161 15.3522 16.3125 15.3522C16.2089 15.3522 16.125 15.2683 16.125 15.1647V13.5339C16.125 11.9017 17.453 10.5742 19.0847 10.5742C20.7164 10.5742 22.0444 11.9022 22.0444 13.5339V15.1647C22.0444 15.2683 21.9605 15.3522 21.8569 15.3522ZM20.9606 15.3522C20.857 15.3522 20.7731 15.2683 20.7731 15.1647V13.5339C20.7731 12.603 20.0156 11.8455 19.0847 11.8455C18.1538 11.8455 17.3962 12.603 17.3962 13.5339V14.2005C17.3962 14.3041 17.3123 14.388 17.2087 14.388C17.1052 14.388 17.0212 14.3041 17.0212 14.2005V13.5339C17.0212 12.3963 17.947 11.4705 19.0847 11.4705C20.2223 11.4705 21.1481 12.3963 21.1481 13.5339V15.1647C21.1481 15.2683 21.0642 15.3522 20.9606 15.3522Z" fill="#0B215D"/>
<path d="M22.1925 22.4208H15.9755C15.2892 22.4208 14.7305 21.8625 14.7305 21.1758V16.2216C14.7305 15.5353 15.2887 14.9766 15.9755 14.9766H22.1925C22.8787 14.9766 23.4375 15.5348 23.4375 16.2216V21.1758C23.4375 21.862 22.8792 22.4208 22.1925 22.4208ZM15.9755 15.3516C15.4959 15.3516 15.1055 15.7416 15.1055 16.2216V21.1758C15.1055 21.6553 15.4955 22.0458 15.9755 22.0458H22.1925C22.672 22.0458 23.0625 21.6558 23.0625 21.1758V16.2216C23.0625 15.742 22.6725 15.3516 22.1925 15.3516H15.9755Z" fill="#0B215D"/>
<path d="M20.1108 17.8698C20.1108 17.3031 19.6514 16.8438 19.0847 16.8438C18.518 16.8438 18.0586 17.3031 18.0586 17.8698C18.0586 18.2294 18.2438 18.5458 18.5241 18.7291V20.6191C18.5241 20.8005 18.6708 20.9472 18.8522 20.9472H19.3172C19.4986 20.9472 19.6453 20.8005 19.6453 20.6191V18.7291C19.9256 18.5458 20.1108 18.2298 20.1108 17.8698Z" fill="#7467F4"/>
<path d="M19.3699 3.51178C19.3506 3.51178 19.3314 3.50896 19.3127 3.50287C19.2142 3.471 19.1599 3.36553 19.1917 3.26709L19.6075 1.97381C19.6394 1.87537 19.7449 1.821 19.8433 1.85287C19.9417 1.88475 19.9961 1.99021 19.9642 2.08865L19.5485 3.38193C19.5231 3.46162 19.4491 3.51225 19.3699 3.51225V3.51178Z" fill="#0B215D"/>
<path d="M20.5292 4.9752C20.449 4.9752 20.375 4.92317 20.3501 4.84255C20.3197 4.74364 20.3754 4.63864 20.4743 4.60817L21.7901 4.20364C21.8895 4.17317 21.994 4.22895 22.0245 4.32786C22.055 4.42676 21.9992 4.53176 21.9003 4.56223L20.5845 4.96676C20.5662 4.97239 20.5475 4.9752 20.5292 4.9752Z" fill="#0B215D"/>
<path d="M3.52871 2.69152C3.43543 2.69152 3.35481 2.62215 3.34309 2.52746L3.1734 1.17981C3.16027 1.07715 3.2334 0.983399 3.33606 0.970274C3.43871 0.957149 3.53246 1.03027 3.54559 1.13293L3.71527 2.48059C3.7284 2.58324 3.65527 2.67699 3.55262 2.69012C3.54465 2.69106 3.53668 2.69152 3.52918 2.69152H3.52871Z" fill="#0B215D"/>
<path d="M2.11876 3.91384C2.08923 3.91384 2.0597 3.90681 2.03157 3.89228L0.813291 3.25196C0.721416 3.20368 0.68626 3.09024 0.734541 2.99884C0.782822 2.90696 0.89626 2.87181 0.987666 2.92009L2.20595 3.5604C2.29782 3.60868 2.33298 3.72212 2.2847 3.81353C2.25095 3.87728 2.18579 3.91384 2.11876 3.91384Z" fill="#0B215D"/>
</svg>
