<svg width="33" height="33" viewBox="0 0 33 33" fill="none" xmlns="http://www.w3.org/2000/svg">
<path d="M20.5008 13.8346L15.1675 19.168M15.1675 13.8346L20.5008 19.168M11.0608 7.16797C10.6761 7.16781 10.2958 7.2509 9.94625 7.41155C9.59665 7.57219 9.28595 7.80659 9.03548 8.09864L3.32215 14.7653C2.90758 15.2487 2.67969 15.8645 2.67969 16.5013C2.67969 17.1381 2.90758 17.7539 3.32215 18.2373L9.03548 24.904C9.28595 25.196 9.59665 25.4304 9.94625 25.5911C10.2958 25.7517 10.6761 25.8348 11.0608 25.8346H25.8341C26.5414 25.8346 27.2197 25.5537 27.7198 25.0536C28.2199 24.5535 28.5008 23.8752 28.5008 23.168V9.83464C28.5008 9.12739 28.2199 8.44911 27.7198 7.94902C27.2197 7.44892 26.5414 7.16797 25.8341 7.16797H11.0608Z" stroke="#121212" stroke-width="1.5" stroke-linecap="round" stroke-linejoin="round"/>
</svg>
