<svg width="26" height="26" viewBox="0 0 26 26" fill="none" xmlns="http://www.w3.org/2000/svg">
<path d="M13 8.91929V20.9993M19.6667 8.91929V20.9993M6.33333 8.91929V20.9993M13.596 1.14062L23.948 6.35129C25.2067 6.98462 24.7587 8.89395 23.352 8.89395H2.648C1.24133 8.89395 0.793333 6.98462 2.052 6.35129L12.404 1.14062C12.5891 1.04814 12.7931 1 13 1C13.2069 1 13.4109 1.04814 13.596 1.14062ZM23 24.9993H3C2.46957 24.9993 1.96086 24.7886 1.58579 24.4135C1.21071 24.0384 1 23.5297 1 22.9993C1 22.4689 1.21071 21.9601 1.58579 21.5851C1.96086 21.21 2.46957 20.9993 3 20.9993H23C23.5304 20.9993 24.0391 21.21 24.4142 21.5851C24.7893 21.9601 25 22.4689 25 22.9993C25 23.5297 24.7893 24.0384 24.4142 24.4135C24.0391 24.7886 23.5304 24.9993 23 24.9993Z" stroke="#7567F5" stroke-width="2" stroke-linecap="round" stroke-linejoin="round"/>
</svg>
