<svg width="68" height="68" viewBox="0 0 68 68" fill="none" xmlns="http://www.w3.org/2000/svg">
<g filter="url(#filter0_d_645_104621)">
<path fill-rule="evenodd" clip-rule="evenodd" d="M34 53C47.2548 53 58 42.2548 58 29C58 15.7452 47.2548 5 34 5C20.7452 5 10 15.7452 10 29C10 42.2548 20.7452 53 34 53Z" fill="#7567F5"/>
</g>
<path fill-rule="evenodd" clip-rule="evenodd" d="M43.563 31.3835L35.0998 16.1582C34.5921 15.3123 33.4082 15.3118 32.9012 16.1572L24.4514 31.3751C23.9445 32.3897 24.8751 33.4894 25.9743 33.0671L33.922 29.8571L41.8724 33.0741C43.1411 33.4974 44.0708 32.3985 43.563 31.3835Z" fill="white"/>
<defs>
<filter id="filter0_d_645_104621" x="0" y="0" width="68" height="68" filterUnits="userSpaceOnUse" color-interpolation-filters="sRGB">
<feFlood flood-opacity="0" result="BackgroundImageFix"/>
<feColorMatrix in="SourceAlpha" type="matrix" values="0 0 0 0 0 0 0 0 0 0 0 0 0 0 0 0 0 0 127 0" result="hardAlpha"/>
<feOffset dy="5"/>
<feGaussianBlur stdDeviation="5"/>
<feColorMatrix type="matrix" values="0 0 0 0 0.839216 0 0 0 0 0.105882 0 0 0 0 0.0392157 0 0 0 0.15 0"/>
<feBlend mode="normal" in2="BackgroundImageFix" result="effect1_dropShadow_645_104621"/>
<feBlend mode="normal" in="SourceGraphic" in2="effect1_dropShadow_645_104621" result="shape"/>
</filter>
</defs>
</svg>
