<svg width="15" height="16" viewBox="0 0 15 16" fill="none" xmlns="http://www.w3.org/2000/svg">
<path d="M6.1875 2.25H8.4375C8.4375 1.95163 8.31897 1.66548 8.108 1.4545C7.89702 1.24353 7.61087 1.125 7.3125 1.125C7.01413 1.125 6.72798 1.24353 6.517 1.4545C6.30603 1.66548 6.1875 1.95163 6.1875 2.25ZM5.0625 2.25C5.0625 1.65326 5.29955 1.08097 5.72151 0.65901C6.14347 0.237053 6.71576 0 7.3125 0C7.90924 0 8.48153 0.237053 8.90349 0.65901C9.32545 1.08097 9.5625 1.65326 9.5625 2.25H14.0625C14.2117 2.25 14.3548 2.30926 14.4602 2.41475C14.5657 2.52024 14.625 2.66332 14.625 2.8125C14.625 2.96168 14.5657 3.10476 14.4602 3.21025C14.3548 3.31574 14.2117 3.375 14.0625 3.375H13.428L12.0724 13.3177C11.9804 13.9915 11.6475 14.6092 11.1351 15.0564C10.6228 15.5036 9.96579 15.75 9.28575 15.75H5.33925C4.65921 15.75 4.0022 15.5036 3.48986 15.0564C2.97753 14.6092 2.64457 13.9915 2.55263 13.3177L1.197 3.375H0.5625C0.413316 3.375 0.270242 3.31574 0.164752 3.21025C0.0592632 3.10476 0 2.96168 0 2.8125C0 2.66332 0.0592632 2.52024 0.164752 2.41475C0.270242 2.30926 0.413316 2.25 0.5625 2.25H5.0625ZM6.1875 6.1875C6.1875 6.03832 6.12824 5.89524 6.02275 5.78975C5.91726 5.68426 5.77418 5.625 5.625 5.625C5.47582 5.625 5.33274 5.68426 5.22725 5.78975C5.12176 5.89524 5.0625 6.03832 5.0625 6.1875V11.8125C5.0625 11.9617 5.12176 12.1048 5.22725 12.2102C5.33274 12.3157 5.47582 12.375 5.625 12.375C5.77418 12.375 5.91726 12.3157 6.02275 12.2102C6.12824 12.1048 6.1875 11.9617 6.1875 11.8125V6.1875ZM9 5.625C9.14918 5.625 9.29226 5.68426 9.39775 5.78975C9.50324 5.89524 9.5625 6.03832 9.5625 6.1875V11.8125C9.5625 11.9617 9.50324 12.1048 9.39775 12.2102C9.29226 12.3157 9.14918 12.375 9 12.375C8.85082 12.375 8.70774 12.3157 8.60225 12.2102C8.49676 12.1048 8.4375 11.9617 8.4375 11.8125V6.1875C8.4375 6.03832 8.49676 5.89524 8.60225 5.78975C8.70774 5.68426 8.85082 5.625 9 5.625ZM3.6675 13.1659C3.72271 13.5701 3.92248 13.9406 4.22982 14.2088C4.53717 14.4771 4.9313 14.6249 5.33925 14.625H9.28575C9.6939 14.6252 10.0883 14.4775 10.3959 14.2092C10.7035 13.9409 10.9034 13.5703 10.9586 13.1659L12.2929 3.375H2.33212L3.6675 13.1659Z" fill="#F90B0B"/>
</svg>
