<svg width="20" height="20" viewBox="0 0 20 20" fill="none" xmlns="http://www.w3.org/2000/svg">
<path d="M16.25 4.58203L15.7336 12.9363C15.6016 15.0707 15.5356 16.138 15.0006 16.9052C14.7361 17.2846 14.3955 17.6048 14.0006 17.8454C13.2018 18.332 12.1325 18.332 9.99395 18.332C7.8526 18.332 6.78192 18.332 5.98254 17.8445C5.58733 17.6034 5.24666 17.2827 4.98224 16.9027C4.4474 16.1342 4.38288 15.0655 4.25384 12.928L3.75 4.58203" stroke="#FF8B8B" stroke-width="1.66667" stroke-linecap="round"/>
<path d="M2.5 4.58464H17.5M13.3798 4.58464L12.8109 3.41107C12.433 2.63152 12.244 2.24174 11.9181 1.99864C11.8458 1.94472 11.7692 1.89675 11.6892 1.85522C11.3283 1.66797 10.8951 1.66797 10.0288 1.66797C9.14069 1.66797 8.69665 1.66797 8.32974 1.86307C8.24842 1.90631 8.17082 1.95622 8.09774 2.01228C7.76803 2.26522 7.58386 2.66926 7.2155 3.47735L6.71077 4.58464" stroke="#FF8B8B" stroke-width="1.66667" stroke-linecap="round"/>
<path d="M7.91602 13.75L7.91602 8.75" stroke="#FF8B8B" stroke-width="1.66667" stroke-linecap="round"/>
<path d="M12.084 13.75L12.084 8.75" stroke="#FF8B8B" stroke-width="1.66667" stroke-linecap="round"/>
</svg>
