<svg width="27" height="27" viewBox="0 0 27 27" fill="none" xmlns="http://www.w3.org/2000/svg">
<g filter="url(#filter0_dd_922_14299)">
<path d="M3.46094 6.91797C3.46094 4.70883 5.2518 2.91797 7.46094 2.91797H19.4609C21.6701 2.91797 23.4609 4.70883 23.4609 6.91797V18.918C23.4609 21.1271 21.6701 22.918 19.4609 22.918H7.46094C5.2518 22.918 3.46094 21.1271 3.46094 18.918V6.91797Z" fill="white"/>
<path d="M7.46094 3.41797H19.4609C21.3939 3.41797 22.9609 4.98497 22.9609 6.91797V18.918C22.9609 20.851 21.3939 22.418 19.4609 22.418H7.46094C5.52794 22.418 3.96094 20.851 3.96094 18.918V6.91797C3.96094 4.98497 5.52794 3.41797 7.46094 3.41797Z" stroke="#7567F5"/>
</g>
<defs>
<filter id="filter0_dd_922_14299" x="0.460938" y="0.917969" width="26" height="26" filterUnits="userSpaceOnUse" color-interpolation-filters="sRGB">
<feFlood flood-opacity="0" result="BackgroundImageFix"/>
<feColorMatrix in="SourceAlpha" type="matrix" values="0 0 0 0 0 0 0 0 0 0 0 0 0 0 0 0 0 0 127 0" result="hardAlpha"/>
<feOffset dy="1"/>
<feGaussianBlur stdDeviation="1.5"/>
<feColorMatrix type="matrix" values="0 0 0 0 0.0627451 0 0 0 0 0.0941176 0 0 0 0 0.156863 0 0 0 0.1 0"/>
<feBlend mode="normal" in2="BackgroundImageFix" result="effect1_dropShadow_922_14299"/>
<feColorMatrix in="SourceAlpha" type="matrix" values="0 0 0 0 0 0 0 0 0 0 0 0 0 0 0 0 0 0 127 0" result="hardAlpha"/>
<feMorphology radius="1" operator="erode" in="SourceAlpha" result="effect2_dropShadow_922_14299"/>
<feOffset dy="1"/>
<feGaussianBlur stdDeviation="1"/>
<feComposite in2="hardAlpha" operator="out"/>
<feColorMatrix type="matrix" values="0 0 0 0 0 0 0 0 0 0 0 0 0 0 0 0 0 0 0.1 0"/>
<feBlend mode="normal" in2="effect1_dropShadow_922_14299" result="effect2_dropShadow_922_14299"/>
<feBlend mode="normal" in="SourceGraphic" in2="effect2_dropShadow_922_14299" result="shape"/>
</filter>
</defs>
</svg>
