<svg width="40" height="41" viewBox="0 0 40 41" fill="none" xmlns="http://www.w3.org/2000/svg">
<rect y="0.5" width="40" height="40" rx="20" fill="#7567F5"/>
<path d="M20.668 14.6683C22.1098 14.2575 23.6965 14.5977 24.8 15.7013C25.9036 16.8048 26.2438 18.3915 25.833 19.8333M21.9592 16.476C22.4742 16.3735 23.0673 16.5511 23.5087 16.9926C23.9502 17.434 24.1278 18.0271 24.0253 18.5421" stroke="white" stroke-linecap="round" stroke-linejoin="round"/>
<path d="M22.1102 26.4223C22.6979 26.5259 23.3021 26.5259 23.8898 26.4223C24.8344 26.2559 25.5952 25.6217 25.8573 24.7824L25.9129 24.6044C25.9707 24.4193 26 24.2279 26 24.0356C26 23.1875 25.2416 22.5 24.306 22.5H21.694C20.7585 22.5 20 23.1875 20 24.0356C20 24.2279 20.0293 24.4193 20.0871 24.6044L20.1427 24.7824C20.4048 25.6217 21.1656 26.2559 22.1102 26.4223ZM22.1102 26.4223C18.028 25.6659 14.8341 22.472 14.0777 18.3898M14.0777 18.3898C13.9741 17.8021 13.9741 17.1979 14.0777 16.6102C14.2441 15.6656 14.8783 14.9048 15.7176 14.6427L15.8956 14.5871C16.0807 14.5293 16.2721 14.5 16.4644 14.5C17.3125 14.5 18 15.2585 18 16.194L18 18.806C18 19.7416 17.3125 20.5 16.4644 20.5C16.2721 20.5 16.0807 20.4707 15.8956 20.4129L15.7176 20.3573C14.8783 20.0952 14.2441 19.3344 14.0777 18.3898Z" stroke="white"/>
</svg>
