<svg width="18" height="19" viewBox="0 0 18 19" fill="none" xmlns="http://www.w3.org/2000/svg">
<path d="M9 2.2207L9.243 2.22145L9.4815 2.22445L9.9435 2.2372L10.1678 2.24695L10.602 2.27245L11.0168 2.30695C14.6055 2.65495 16.0658 4.1152 16.4137 7.70395L16.4482 8.1187L16.4738 8.55295C16.4775 8.62645 16.4813 8.70145 16.4835 8.7772L16.4963 9.2392L16.5 9.7207L16.4963 10.2022L16.4835 10.6642L16.4738 10.8885L16.4482 11.3227L16.4137 11.7375C16.0658 15.3262 14.6055 16.7865 11.0168 17.1345L10.602 17.169L10.1678 17.1945C10.0942 17.1982 10.0192 17.202 9.9435 17.2042L9.4815 17.217L9 17.2207L8.5185 17.217L8.0565 17.2042L7.83225 17.1945L7.398 17.169L6.98325 17.1345C3.3945 16.7865 1.93425 15.3262 1.58625 11.7375L1.55175 11.3227L1.52625 10.8885C1.5226 10.8137 1.51935 10.739 1.5165 10.6642L1.50375 10.2022C1.5015 10.0447 1.5 9.8842 1.5 9.7207L1.50075 9.4777L1.50375 9.2392L1.5165 8.7772L1.52625 8.55295L1.55175 8.1187L1.58625 7.70395C1.93425 4.1152 3.3945 2.65495 6.98325 2.30695L7.398 2.27245L7.83225 2.24695C7.90575 2.2432 7.98075 2.23945 8.0565 2.2372L8.5185 2.22445C8.676 2.2222 8.8365 2.2207 9 2.2207ZM7.88325 7.5757C7.72611 7.48216 7.54021 7.44926 7.36051 7.48318C7.18081 7.5171 7.01969 7.6155 6.90746 7.75989C6.79523 7.90428 6.73962 8.08469 6.75109 8.26721C6.76257 8.44972 6.84033 8.62175 6.96975 8.75095L7.93875 9.7207L6.96975 10.6905L6.9075 10.761C6.79094 10.9117 6.73613 11.1012 6.7542 11.2908C6.77227 11.4805 6.86187 11.6562 7.00479 11.7823C7.14772 11.9083 7.33325 11.9752 7.52371 11.9694C7.71417 11.9636 7.89528 11.8855 8.03025 11.751L9 10.782L9.96975 11.751L10.0402 11.8132C10.191 11.9298 10.3805 11.9846 10.5701 11.9665C10.7598 11.9484 10.9355 11.8588 11.0616 11.7159C11.1876 11.573 11.2545 11.3875 11.2487 11.197C11.2429 11.0065 11.1648 10.8254 11.0302 10.6905L10.0612 9.7207L11.0302 8.75095L11.0925 8.68045C11.2091 8.52971 11.2639 8.34025 11.2458 8.15056C11.2277 7.96087 11.1381 7.78516 10.9952 7.65914C10.8523 7.53311 10.6667 7.46622 10.4763 7.47203C10.2858 7.47785 10.1047 7.55594 9.96975 7.69045L9 8.65945L8.03025 7.69045L7.95975 7.6282L7.88325 7.5757Z" fill="#E40007"/>
</svg>
