<svg width="105" height="105" viewBox="0 0 105 105" fill="none" xmlns="http://www.w3.org/2000/svg">
<path d="M38.5885 57.1887L33.5515 54.7498C33.2711 54.6139 32.9453 54.8182 32.9453 55.1299V55.986C32.9453 58.5009 34.9838 60.5392 37.4985 60.5392H41.2762C41.4796 60.5392 41.6134 60.3269 41.5258 60.1436C40.9106 58.8536 39.8747 57.8115 38.5885 57.1887Z" fill="#7467F4"/>
<path d="M71.4469 54.7498L66.41 57.1886C65.1237 57.8115 64.0878 58.8536 63.4726 60.1437C63.385 60.3269 63.5188 60.5392 63.7222 60.5392H67.5C70.0146 60.5392 72.0531 58.5009 72.0531 55.986V55.1299C72.0531 54.8182 71.7273 54.6139 71.4469 54.7498Z" fill="#7467F4"/>
<path d="M63.5047 41.8935C63.2027 41.2296 62.536 40.8008 61.8065 40.8008H43.1925C42.463 40.8008 41.7965 41.2296 41.4944 41.8935L38.168 49.2004H66.831L63.5047 41.8935Z" fill="#7467F4"/>
<path d="M91.342 38.0743C90.9675 37.8139 90.4588 37.905 90.1984 38.2765L86.7938 43.1481C86.5355 43.5196 86.6256 44.0303 86.9961 44.2897C87.1403 44.3898 87.3045 44.4379 87.4667 44.4379C87.7251 44.4379 87.9794 44.3157 88.1396 44.0874L91.5442 39.2158C91.8026 38.8443 91.7125 38.3336 91.342 38.0743Z" fill="#0B215D"/>
<path d="M96.4566 50.4014L90.4344 50.3984C89.9818 50.3984 89.6153 50.7649 89.6133 51.2185C89.6133 51.6712 89.9818 52.0387 90.4344 52.0387L96.4566 52.0416C96.9092 52.0416 97.2757 51.6752 97.2777 51.2215C97.2777 50.7689 96.9092 50.4014 96.4566 50.4014Z" fill="#0B215D"/>
<path d="M14.8002 38.2759C14.5398 37.9044 14.0301 37.8153 13.6576 38.0726C13.2861 38.333 13.195 38.8437 13.4543 39.2152L16.858 44.0868C17.0182 44.3151 17.2725 44.4373 17.5319 44.4373C17.6941 44.4373 17.8573 44.3892 18.0005 44.29C18.372 44.0297 18.4632 43.519 18.2038 43.1475L14.8002 38.2759Z" fill="#0B215D"/>
<path d="M14.5649 50.3984L8.54276 50.4014C8.08915 50.4014 7.72266 50.7689 7.72266 51.2215C7.72266 51.6752 8.09016 52.0416 8.54276 52.0416L14.5649 52.0387C15.0185 52.0387 15.385 51.6712 15.385 51.2185C15.385 50.7649 15.0175 50.3984 14.5649 50.3984Z" fill="#0B215D"/>
<path d="M80.9656 79.3555C80.513 79.3555 80.1445 79.724 80.1445 80.1766V86.0105C80.1445 86.4631 80.513 86.8316 80.9656 86.8316C81.4183 86.8316 81.7868 86.4631 81.7868 86.0105V80.1766C81.7868 79.724 81.4183 79.3555 80.9656 79.3555Z" fill="#0B215D"/>
<path d="M71.7377 2.45703H33.2615C27.721 2.45703 23.2129 6.96514 23.2129 12.5057V92.4851C23.2129 98.0266 27.721 102.535 33.2615 102.535H71.7377C77.2792 102.535 81.7873 98.0266 81.7873 92.4851C81.7873 92.0325 81.4188 91.664 80.9662 91.664C80.5136 91.664 80.1451 92.0325 80.1451 92.4851C80.1451 97.1214 76.374 100.893 71.7377 100.893H33.2615C28.6252 100.893 24.8531 97.1214 24.8531 92.4851V12.5057C24.8531 7.86937 28.6252 4.09725 33.2615 4.09725H64.0627L63.0059 7.20145C62.5753 8.46516 61.3877 9.31431 60.0539 9.31431H44.9444C43.6096 9.31431 42.423 8.46516 41.9924 7.20244C41.8452 6.77185 41.3735 6.54455 40.952 6.69075C40.5224 6.83695 40.2941 7.30258 40.4403 7.73115C41.0972 9.65976 42.9076 10.9545 44.9444 10.9545H60.0539C62.0906 10.9545 63.9011 9.65976 64.56 7.73115L65.7968 4.09723H71.7377C76.374 4.09723 80.1451 7.86935 80.1451 12.5056V74.3685C80.1451 74.8212 80.5136 75.1897 80.9663 75.1897C81.4189 75.1897 81.7874 74.8212 81.7874 74.3685V12.5057C81.7874 6.96514 77.2792 2.45703 71.7377 2.45703Z" fill="#0B215D"/>
<path d="M60.5334 59.9844H44.4646C44.012 59.9844 43.6445 60.3529 43.6445 60.8055C43.6445 61.2581 44.012 61.6266 44.4646 61.6266H60.5334C60.986 61.6266 61.3545 61.2581 61.3545 60.8055C61.3545 60.3529 60.986 59.9844 60.5334 59.9844Z" fill="#0B215D"/>
<path d="M58.6583 63.4219H46.3416C45.889 63.4219 45.5215 63.7904 45.5215 64.243C45.5215 64.6956 45.889 65.0641 46.3416 65.0641H58.6583C59.1109 65.0641 59.4794 64.6956 59.4794 64.243C59.4794 63.7904 59.1109 63.4219 58.6583 63.4219Z" fill="#0B215D"/>
<path d="M66.9306 74.1689H70.189C71.9034 74.1689 73.2972 72.775 73.2972 71.0627V69.0374C74.6448 68.691 75.6484 67.4758 75.6484 66.0219V55.3264C75.6484 54.0586 75.0736 52.885 74.0743 52.106L70.2293 49.1157L71.2244 46.6035L70.4614 46.3011L71.4747 46.4994L73.848 47.5298C73.9161 47.5598 73.9601 47.6279 73.9601 47.703V48.0194C73.9601 48.1256 73.878 48.2087 73.7719 48.2087H73.167C72.7144 48.2087 72.3459 48.5762 72.3459 49.0288C72.3459 49.4814 72.7144 49.8489 73.167 49.8489H73.7719C74.7812 49.8489 75.6024 49.0288 75.6024 48.0194V47.703C75.6024 46.974 75.1698 46.3161 74.5009 46.0257L72.1276 44.9953C71.667 44.7941 71.1643 44.7911 70.7017 44.9813C70.2391 45.1726 69.8826 45.5341 69.6983 45.9987L69.1869 47.2899L66.1195 40.5533C65.4586 39.1013 64.0026 38.1641 62.4064 38.1641H42.5906C40.9964 38.1641 39.5394 39.1013 38.8775 40.5533L35.7881 47.34L35.2566 45.9997C35.0724 45.5351 34.7169 45.1736 34.2552 44.9823C33.7916 44.7921 33.2869 44.7961 32.8273 44.9954L30.4531 46.0258C29.7852 46.3161 29.3536 46.974 29.3536 47.703V48.0195C29.3536 49.0288 30.1737 49.8489 31.1831 49.8489H31.7879C32.2405 49.8489 32.608 49.4814 32.608 49.0288C32.608 48.5762 32.2405 48.2087 31.7879 48.2087H31.1831C31.079 48.2087 30.9938 48.1236 30.9938 48.0195V47.703C30.9938 47.6279 31.0389 47.5598 31.107 47.5298L33.4802 46.4994L33.7305 46.6035L34.7364 49.141L30.9248 52.106C29.9234 52.884 29.3496 54.0576 29.3496 55.3264V66.0219C29.3496 67.4768 30.354 68.693 31.7028 69.0385V71.0627C31.7028 72.775 33.0957 74.1689 34.808 74.1689H38.0674C39.7808 74.1689 41.1737 72.775 41.1737 71.0627V69.1461H63.8244V71.0627C63.8244 72.775 65.2183 74.1689 66.9306 74.1689ZM71.655 71.0627C71.655 71.8698 70.9981 72.5267 70.189 72.5267H66.9306C66.1235 72.5267 65.4666 71.8698 65.4666 71.0627V69.1461H71.655V71.0627ZM30.9899 66.0219V55.3264C30.9899 54.5683 31.3333 53.8664 31.9321 53.4017L36.262 50.0332C36.3672 49.9511 36.4503 49.8459 36.5053 49.7247L40.3706 41.2332C40.7661 40.3651 41.6373 39.8043 42.5906 39.8043H62.4065C63.3598 39.8043 64.231 40.3651 64.6255 41.2322L68.4927 49.7247C68.4992 49.7388 68.5137 49.747 68.521 49.7608C68.5681 49.8509 68.63 49.931 68.7083 49.9991C68.7193 50.0086 68.7235 50.0242 68.735 50.0332L73.0669 53.4017C73.6637 53.8664 74.0062 54.5683 74.0062 55.3264V66.0219C74.0062 66.839 73.3413 67.5039 72.5242 67.5039H32.4729C31.6547 67.5039 30.9899 66.839 30.9899 66.0219ZM39.5335 71.0627C39.5335 71.8698 38.8756 72.5267 38.0675 72.5267H34.808C34 72.5267 33.3431 71.8698 33.3431 71.0627V69.1461H39.5334L39.5335 71.0627Z" fill="#0B215D"/>
<path d="M40.9235 55.8897C41.8658 56.851 43.1786 57.4037 44.5254 57.4037H60.475C61.8209 57.4037 63.1326 56.851 64.0779 55.8897L67.7429 52.1486C68.0593 51.8252 68.0533 51.3055 67.7309 50.989C67.4064 50.6716 66.8897 50.6776 66.5693 51.0011L62.9063 54.7411C62.2695 55.391 61.3823 55.7615 60.475 55.7615H44.5254C43.6172 55.7615 42.731 55.391 42.0951 54.7421L38.4001 50.969C38.0827 50.6446 37.564 50.6406 37.2405 50.957C36.9171 51.2734 36.9111 51.7931 37.2285 52.1166L40.9235 55.8897Z" fill="#0B215D"/>
<path d="M57.3726 75.3984H47.6284C46.6094 75.3984 45.9725 76.5014 46.4821 77.3839L51.3541 85.8226C51.8636 86.7053 53.1374 86.7053 53.6469 85.8226L58.5189 77.3839C59.0285 76.5014 58.3916 75.3984 57.3726 75.3984Z" fill="#23D9EF"/>
<path d="M47.6284 33.7032H57.3726C58.3916 33.7032 59.0285 32.6002 58.5189 31.7177L53.6469 23.279C53.1374 22.3966 51.8636 22.3966 51.3541 23.279L46.4821 31.7177C45.9725 32.6002 46.6094 33.7032 47.6284 33.7032Z" fill="#23D9EF"/>
</svg>
