<svg width="29" height="24" viewBox="0 0 29 24" fill="none" xmlns="http://www.w3.org/2000/svg">
<path d="M27.6667 11.6667C27.6667 6.63867 27.6667 4.124 26.104 2.56267C24.5413 1.00133 22.028 1 17 1H11.6667C6.63867 1 4.124 1 2.56267 2.56267C1.00133 4.12533 1 6.63867 1 11.6667C1 16.6947 1 19.2093 2.56267 20.7707C4.12533 22.332 6.63867 22.3333 11.6667 22.3333H17C22.028 22.3333 24.5427 22.3333 26.104 20.7707C26.976 19.9 27.3613 18.7333 27.5307 17M11.6667 17H6.33333M17 17H15M1 9H7.66667M27.6667 9H13" stroke="#7567F5" stroke-width="2" stroke-linecap="round"/>
</svg>
