<svg width="23" height="22" viewBox="0 0 23 22" fill="none" xmlns="http://www.w3.org/2000/svg">
<path d="M16.3219 7.60964C16.6885 7.24297 17.2385 7.24297 17.6052 7.60964C17.7885 7.79297 17.8802 7.9763 17.8802 8.2513C17.8802 8.5263 17.7885 8.70964 17.6052 8.89297L12.1052 14.393C11.7385 14.7596 11.1885 14.7596 10.8219 14.393L5.32187 8.89297C4.95521 8.5263 4.95521 7.9763 5.32187 7.60964C5.68854 7.24297 6.23854 7.24297 6.60521 7.60964L11.4635 12.468L16.3219 7.60964Z" fill="#252525"/>
<mask id="mask0_582_21607" style="mask-type:luminance" maskUnits="userSpaceOnUse" x="5" y="7" width="13" height="8">
<path d="M16.3219 7.60964C16.6885 7.24297 17.2385 7.24297 17.6052 7.60964C17.7885 7.79297 17.8802 7.9763 17.8802 8.2513C17.8802 8.5263 17.7885 8.70964 17.6052 8.89297L12.1052 14.393C11.7385 14.7596 11.1885 14.7596 10.8219 14.393L5.32187 8.89297C4.95521 8.5263 4.95521 7.9763 5.32187 7.60964C5.68854 7.24297 6.23854 7.24297 6.60521 7.60964L11.4635 12.468L16.3219 7.60964Z" fill="white"/>
</mask>
<g mask="url(#mask0_582_21607)">
<rect x="0.462891" y="22" width="22" height="22" transform="rotate(-90 0.462891 22)" fill="#BDBCBD"/>
</g>
</svg>
