<svg width="22" height="22" viewBox="0 0 22 22" fill="none" xmlns="http://www.w3.org/2000/svg">
<path d="M7.60964 6.14297C7.24297 5.7763 7.24297 5.2263 7.60964 4.85964C7.79297 4.6763 7.9763 4.58464 8.2513 4.58464C8.5263 4.58464 8.70963 4.6763 8.89297 4.85964L14.393 10.3596C14.7596 10.7263 14.7596 11.2763 14.393 11.643L8.89297 17.143C8.5263 17.5096 7.9763 17.5096 7.60964 17.143C7.24297 16.7763 7.24297 16.2263 7.60964 15.8596L12.468 11.0013L7.60964 6.14297Z" fill="#252525"/>
<mask id="mask0_582_21761" style="mask-type:luminance" maskUnits="userSpaceOnUse" x="7" y="4" width="8" height="14">
<path d="M7.60964 6.14297C7.24297 5.7763 7.24297 5.2263 7.60964 4.85964C7.79297 4.6763 7.9763 4.58464 8.2513 4.58464C8.5263 4.58464 8.70963 4.6763 8.89297 4.85964L14.393 10.3596C14.7596 10.7263 14.7596 11.2763 14.393 11.643L8.89297 17.143C8.5263 17.5096 7.9763 17.5096 7.60964 17.143C7.24297 16.7763 7.24297 16.2263 7.60964 15.8596L12.468 11.0013L7.60964 6.14297Z" fill="white"/>
</mask>
<g mask="url(#mask0_582_21761)">
<rect x="22" y="22" width="22" height="22" transform="rotate(180 22 22)" fill="#252525"/>
</g>
</svg>
