<svg width="18" height="19" viewBox="0 0 18 19" fill="none" xmlns="http://www.w3.org/2000/svg">
<path d="M6.225 5.7457C5.925 5.4457 5.925 4.9957 6.225 4.6957C6.375 4.5457 6.525 4.4707 6.75 4.4707C6.975 4.4707 7.125 4.5457 7.275 4.6957L11.775 9.1957C12.075 9.4957 12.075 9.9457 11.775 10.2457L7.275 14.7457C6.975 15.0457 6.525 15.0457 6.225 14.7457C5.925 14.4457 5.925 13.9957 6.225 13.6957L10.2 9.7207L6.225 5.7457Z" fill="#E40007"/>
<mask id="mask0_630_78210" style="mask-type:luminance" maskUnits="userSpaceOnUse" x="6" y="4" width="6" height="11">
<path d="M6.225 5.7457C5.925 5.4457 5.925 4.9957 6.225 4.6957C6.375 4.5457 6.525 4.4707 6.75 4.4707C6.975 4.4707 7.125 4.5457 7.275 4.6957L11.775 9.1957C12.075 9.4957 12.075 9.9457 11.775 10.2457L7.275 14.7457C6.975 15.0457 6.525 15.0457 6.225 14.7457C5.925 14.4457 5.925 13.9957 6.225 13.6957L10.2 9.7207L6.225 5.7457Z" fill="white"/>
</mask>
<g mask="url(#mask0_630_78210)">
<rect x="18" y="18.7207" width="18" height="18" transform="rotate(-180 18 18.7207)" fill="#E40007"/>
</g>
</svg>
