<svg width="24" height="25" viewBox="0 0 24 25" fill="none" xmlns="http://www.w3.org/2000/svg">
<path d="M8.3 7.54375C7.9 7.14375 7.9 6.54375 8.3 6.14375C8.5 5.94375 8.7 5.84375 9 5.84375C9.3 5.84375 9.5 5.94375 9.7 6.14375L15.7 12.1438C16.1 12.5438 16.1 13.1437 15.7 13.5437L9.7 19.5437C9.3 19.9437 8.7 19.9437 8.3 19.5437C7.9 19.1437 7.9 18.5437 8.3 18.1437L13.6 12.8438L8.3 7.54375Z" fill="#7567F5"/>
<mask id="mask0_645_105572" style="mask-type:luminance" maskUnits="userSpaceOnUse" x="8" y="5" width="8" height="15">
<path d="M8.3 7.54375C7.9 7.14375 7.9 6.54375 8.3 6.14375C8.5 5.94375 8.7 5.84375 9 5.84375C9.3 5.84375 9.5 5.94375 9.7 6.14375L15.7 12.1438C16.1 12.5438 16.1 13.1437 15.7 13.5437L9.7 19.5437C9.3 19.9437 8.7 19.9437 8.3 19.5437C7.9 19.1437 7.9 18.5437 8.3 18.1437L13.6 12.8438L8.3 7.54375Z" fill="white"/>
</mask>
<g mask="url(#mask0_645_105572)">
<rect x="24" y="24.8438" width="24" height="24" transform="rotate(-180 24 24.8438)" fill="#7567F5"/>
</g>
</svg>
