<svg width="36" height="24" viewBox="0 0 36 24" fill="none" xmlns="http://www.w3.org/2000/svg">
<path d="M0 2C0 0.89543 0.895431 0 2 0H34C35.1046 0 36 0.895431 36 2V22C36 23.1046 35.1046 24 34 24H2C0.895431 24 0 23.1046 0 22V2ZM18 6C19.5913 6 21.1174 6.63214 22.2426 7.75736C23.3679 8.88258 24 10.4087 24 12C24 13.5913 23.3679 15.1174 22.2426 16.2426C21.1174 17.3679 19.5913 18 18 18C16.4087 18 14.8826 17.3679 13.7574 16.2426C12.6321 15.1174 12 13.5913 12 12C12 10.4087 12.6321 8.88258 13.7574 7.75736C14.8826 6.63214 16.4087 6 18 6ZM10 4C8.89543 4 8.03986 4.94838 7.51032 5.91774C7.32918 6.24933 7.10041 6.55644 6.82843 6.82843C6.55644 7.10041 6.24933 7.32918 5.91774 7.51032C4.94838 8.03986 4 8.89543 4 10V14C4 15.1046 4.94838 15.9601 5.91774 16.4897C6.24933 16.6708 6.55644 16.8996 6.82843 17.1716C7.10041 17.4436 7.32918 17.7507 7.51032 18.0823C8.03986 19.0516 8.89543 20 10 20H26C27.1046 20 27.9601 19.0516 28.4897 18.0823C28.6708 17.7507 28.8996 17.4436 29.1716 17.1716C29.4436 16.8996 29.7507 16.6708 30.0823 16.4897C31.0516 15.9601 32 15.1046 32 14V10C32 8.89543 31.0516 8.03986 30.0823 7.51032C29.7507 7.32918 29.4436 7.10041 29.1716 6.82843C28.8996 6.55644 28.6708 6.24933 28.4897 5.91774C27.9601 4.94838 27.1046 4 26 4H10Z" fill="#4CD964"/>
</svg>
