<svg width="10" height="10" viewBox="0 0 10 10" fill="none" xmlns="http://www.w3.org/2000/svg">
<path d="M5.38495 7.10474V9.10925C5.38495 9.32239 5.21495 9.5 4.99995 9.5C4.80745 9.5 4.64436 9.35075 4.61852 9.16171L4.61495 9.10925V7.10474L2.225 7.10459C1.035 7.10459 0.0573263 6.13011 0.00243092 4.9148L0 4.80696V2.28731C0 1.06348 0.943673 0.0589027 2.11599 0.00249767L2.22 0L7.78 0C8.97 0 9.94296 0.969605 9.99758 2.18937L10 2.29763L10 4.81212C10 6.03595 9.06105 7.04539 7.889 7.10208L7.785 7.10459H5.385L5.385 3.90339L6.185 4.72951C6.335 4.8844 6.58 4.8844 6.73 4.72951C6.805 4.65206 6.84 4.54879 6.84 4.44553C6.84 4.36705 6.8176 4.28526 6.77024 4.21604L6.73 4.16672L5.275 2.65906C5.205 2.58161 5.105 2.5403 5 2.5403C4.91667 2.5403 4.83333 2.56899 4.76736 2.62337L4.73 2.65906L3.275 4.16672C3.125 4.32161 3.125 4.57461 3.275 4.72951C3.41136 4.87032 3.62624 4.88312 3.77688 4.76791L3.82 4.72951L4.615 3.90339L4.615 7.10459L5.38495 7.10474Z" fill="#35383F"/>
</svg>
