<svg width="18" height="18" viewBox="0 0 18 18" fill="none" xmlns="http://www.w3.org/2000/svg">
<path d="M16.5956 14.9246L9.48637 3.049C9.24401 2.72585 8.75929 2.72585 8.51693 3.049L1.4077 14.9246C1.16534 15.3286 1.48849 15.7325 1.89242 15.7325H16.1109C16.5148 15.7325 16.838 15.2478 16.5956 14.9246Z" fill="white"/>
<path d="M16.112 16.5416H1.89357C1.40885 16.5416 0.92413 16.2992 0.68177 15.8145C0.43941 15.3298 0.43941 14.8451 0.68177 14.4412L7.791 2.64629C8.11415 2.24236 8.51808 2 9.0028 2C9.48752 2 9.89145 2.24236 10.1338 2.64629L17.243 14.4412C17.4854 14.8451 17.4854 15.4106 17.243 15.8145C17.0007 16.2185 16.5968 16.5416 16.112 16.5416ZM2.37829 14.9259H15.7081L9.0028 3.85809L2.37829 14.9259Z" fill="white"/>
<path d="M9.81105 14.1185H8.19531V12.5027H9.81105V14.1185ZM9.81105 10.887H8.19531V6.84766H9.81105V10.887Z" fill="#E01E1E"/>
</svg>
