<svg width="19" height="18" viewBox="0 0 19 18" fill="none" xmlns="http://www.w3.org/2000/svg">
<path d="M3.51809 6.73577C5.52949 3.17665 6.53519 1.3971 7.91522 0.939009C8.67443 0.686997 9.49224 0.686997 10.2515 0.939009C11.6315 1.3971 12.6372 3.17665 14.6486 6.73577C16.66 10.2949 17.6657 12.0744 17.364 13.5245C17.198 14.3222 16.7891 15.0457 16.1959 15.5914C15.1175 16.5833 13.1061 16.5833 9.08333 16.5833C5.06054 16.5833 3.04914 16.5833 1.9708 15.5914C1.37757 15.0457 0.968658 14.3222 0.802686 13.5245C0.500995 12.0744 1.50669 10.2949 3.51809 6.73577Z" stroke="#FF2424" stroke-width="1.5"/>
<path d="M9.07601 12H9.0835" stroke="#FF2424" stroke-width="1.5" stroke-linecap="round" stroke-linejoin="round"/>
<path d="M9.08301 9.5L9.08301 6.16667" stroke="#FF2424" stroke-width="1.5" stroke-linecap="round" stroke-linejoin="round"/>
</svg>
