<svg width="40" height="40" viewBox="0 0 40 40" fill="none" xmlns="http://www.w3.org/2000/svg">
<rect width="40" height="40" rx="20" fill="#7567F5" fill-opacity="0.05"/>
<path d="M15.1868 23.5751C17.3361 23.5751 19.0696 21.8272 19.105 19.7201C19.3922 19.6171 19.695 19.5647 20 19.5651C20.2679 19.5651 20.5921 19.6072 20.895 19.7201C20.9304 21.8486 22.6639 23.5751 24.8132 23.5751C26.85 23.5751 28.5132 22.0315 28.7175 20.0654H29.5561C29.8732 20.0654 30 19.8751 30 19.6144V19.3465C30 19.0786 29.8732 18.8954 29.5561 18.8954H28.6679C28.3086 17.1054 26.7229 15.7383 24.8129 15.7383C22.9807 15.7383 21.4443 16.9997 21.0146 18.6983C20.6904 18.5715 20.3096 18.529 19.9996 18.529C19.6896 18.529 19.3089 18.5715 18.985 18.6983C18.5479 16.9997 17.0118 15.7383 15.1864 15.7383C13.2768 15.7383 11.6911 17.1054 11.3314 18.8954H10.4439C10.1196 18.8954 10 19.0786 10 19.3465V19.6144C10 19.8751 10.1196 20.0654 10.4439 20.0654H11.2825C11.3845 21.0295 11.84 21.9216 12.5609 22.5697C13.2819 23.2178 14.2173 23.576 15.1868 23.5751ZM15.1868 22.5179C14.8109 22.5183 14.4387 22.4445 14.0914 22.3008C13.7441 22.1571 13.4286 21.9463 13.1628 21.6805C12.8971 21.4148 12.6864 21.0992 12.5427 20.7519C12.3991 20.4046 12.3253 20.0323 12.3257 19.6565C12.3257 18.0779 13.6079 16.7958 15.1864 16.7958C16.7582 16.7958 18.0479 18.0779 18.0479 19.6565C18.0494 20.0327 17.9764 20.4054 17.8332 20.7532C17.6899 21.101 17.4792 21.4171 17.2133 21.6831C16.9473 21.9491 16.6313 22.1598 16.2835 22.3031C15.9357 22.4464 15.5629 22.5194 15.1868 22.5179ZM24.8132 22.5179C24.4371 22.5194 24.0643 22.4464 23.7165 22.3031C23.3687 22.1598 23.0527 21.9491 22.7867 21.6831C22.5208 21.4171 22.3101 21.101 22.1668 20.7532C22.0236 20.4054 21.9506 20.0327 21.9521 19.6565C21.9512 19.2805 22.0246 18.9081 22.168 18.5606C22.3115 18.213 22.5222 17.8973 22.7881 17.6314C23.0539 17.3656 23.3697 17.1549 23.7172 17.0115C24.0648 16.8681 24.4372 16.7948 24.8132 16.7958C26.3918 16.7958 27.6746 18.0779 27.6746 19.6565C27.675 20.0324 27.6012 20.4046 27.4575 20.7519C27.3138 21.0992 27.1031 21.4148 26.8373 21.6806C26.5715 21.9463 26.2559 22.1571 25.9086 22.3008C25.5613 22.4445 25.1891 22.5183 24.8132 22.5179Z" fill="#7567F5"/>
</svg>
