<svg width="20" height="19" viewBox="0 0 20 19" fill="none" xmlns="http://www.w3.org/2000/svg">
<g clip-path="url(#clip0_982_13599)">
<rect x="0.865234" y="0.417969" width="18.209" height="18.209" rx="9.10448" fill="#7567F5"/>
<path d="M16.4858 3.00728C12.891 -0.587551 7.05044 -0.587551 3.45561 3.00728C-0.139219 6.60211 -0.139219 12.4426 3.45561 16.0375C7.05044 19.6323 12.891 19.6323 16.4858 16.0375C20.0806 12.4426 20.0806 6.60211 16.4858 3.00728ZM15.9193 3.57381C19.2079 6.86246 19.2079 12.1823 15.9193 15.4709C12.6306 18.7596 7.3108 18.7596 4.02214 15.4709C0.733486 12.1823 0.733486 6.86246 4.02214 3.57381C7.3108 0.285154 12.6306 0.285154 15.9193 3.57381ZM12.2363 7.24795C12.1601 7.1741 12.0577 7.13349 11.9516 7.13505C11.8455 7.1366 11.7443 7.18019 11.6703 7.25625L9.9707 8.95584L8.27111 7.25625C8.23411 7.21819 8.18991 7.18785 8.14108 7.16702C8.09225 7.14618 8.03976 7.13526 7.98668 7.13488C7.93359 7.13451 7.88096 7.14469 7.83184 7.16483C7.78272 7.18497 7.73809 7.21468 7.70055 7.25222C7.66301 7.28976 7.63331 7.33438 7.61316 7.3835C7.59302 7.43262 7.58284 7.48526 7.58322 7.53834C7.58359 7.59143 7.59451 7.64392 7.61535 7.69275C7.63619 7.74157 7.66652 7.78578 7.70458 7.82278L9.40417 9.52237L7.70458 11.222C7.66652 11.259 7.63619 11.3032 7.61535 11.352C7.59451 11.4008 7.58359 11.4533 7.58322 11.5064C7.58284 11.5595 7.59302 11.6121 7.61316 11.6612C7.63331 11.7104 7.66301 11.755 7.70055 11.7925C7.73809 11.8301 7.78272 11.8598 7.83183 11.8799C7.88095 11.9001 7.93359 11.9102 7.98668 11.9099C8.03976 11.9095 8.09225 11.8986 8.14108 11.8777C8.18991 11.8569 8.23411 11.8266 8.27111 11.7885L9.9707 10.0889L11.6703 11.7885C11.7073 11.8266 11.7515 11.8569 11.8003 11.8777C11.8492 11.8986 11.9016 11.9095 11.9547 11.9099C12.0078 11.9102 12.0605 11.9001 12.1096 11.8799C12.1587 11.8598 12.2033 11.8301 12.2409 11.7925C12.2784 11.755 12.3081 11.7104 12.3282 11.6612C12.3484 11.6121 12.3586 11.5595 12.3582 11.5064C12.3578 11.4533 12.3469 11.4008 12.3261 11.352C12.3052 11.3032 12.2749 11.259 12.2368 11.222L10.5372 9.52237L12.2368 7.82278C12.2752 7.7854 12.3058 7.7407 12.3266 7.69131C12.3474 7.64192 12.3581 7.58885 12.3581 7.53525C12.358 7.48165 12.3472 7.4286 12.3263 7.37926C12.3054 7.32991 12.2748 7.28526 12.2363 7.24795Z" fill="white"/>
</g>
<defs>
<clipPath id="clip0_982_13599">
<rect x="0.865234" y="0.417969" width="18.209" height="18.209" rx="9.10448" fill="white"/>
</clipPath>
</defs>
</svg>
