<svg width="334" height="295" viewBox="0 0 334 295" fill="none" xmlns="http://www.w3.org/2000/svg">
<g opacity="0.2">
<path d="M47.8394 80.8538C68.9549 80.8538 86.0724 65.1946 86.0724 45.8781C86.0724 26.5615 68.9549 10.9023 47.8394 10.9023C26.7239 10.9023 9.60645 26.5615 9.60645 45.8781C9.60645 65.1946 26.7239 80.8538 47.8394 80.8538Z" fill="#E4F2FF"/>
<path d="M188.743 198.943H165.999V208.225H188.743V198.943Z" stroke="#92CDFE" stroke-width="0.73183" stroke-miterlimit="10"/>
<path d="M213.382 198.943H190.638V208.225H213.382V198.943Z" stroke="#92CDFE" stroke-width="0.73183" stroke-miterlimit="10"/>
<path d="M200.378 209.881H177.634V219.162H200.378V209.881Z" stroke="#92CDFE" stroke-width="0.73183" stroke-miterlimit="10"/>
<path d="M158.191 245.256H149.179V254.537H158.191V245.256Z" stroke="#92CDFE" stroke-width="0.73183" stroke-miterlimit="10"/>
<path d="M182.831 245.256H160.087V254.537H182.831V245.256Z" stroke="#92CDFE" stroke-width="0.73183" stroke-miterlimit="10"/>
<path d="M169.827 256.193H149.179V265.475H169.827V256.193Z" stroke="#92CDFE" stroke-width="0.73183" stroke-miterlimit="10"/>
<path d="M308.842 210.848H286.099V220.129H308.842V210.848Z" stroke="#92CDFE" stroke-width="0.73183" stroke-miterlimit="10"/>
<path d="M333.481 210.848H310.737V220.129H333.481V210.848Z" stroke="#92CDFE" stroke-width="0.73183" stroke-miterlimit="10"/>
<path d="M320.476 221.783H297.732V231.065H320.476V221.783Z" stroke="#92CDFE" stroke-width="0.73183" stroke-miterlimit="10"/>
<path d="M149.179 0.365234H19.0645V294.573H149.179V0.365234Z" stroke="#92CDFE" stroke-width="0.73183" stroke-miterlimit="10"/>
<path d="M140.868 9.38672H28.3389V280.92H140.868V9.38672Z" stroke="#92CDFE" stroke-width="0.73183" stroke-miterlimit="10"/>
<path d="M303.991 9.38672H167.389V183.618H303.991V9.38672Z" stroke="#92CDFE" stroke-width="0.73183" stroke-miterlimit="10"/>
<path d="M312.935 0.365234H158.844V193.318H312.935V0.365234Z" stroke="#92CDFE" stroke-width="0.73183" stroke-miterlimit="10"/>
<path d="M89.6791 70.5052L46.6768 39.9062" stroke="#92CDFE" stroke-width="0.73183" stroke-miterlimit="10"/>
<path d="M79.2523 72.1138L36.25 41.5156" stroke="#92CDFE" stroke-width="0.73183" stroke-miterlimit="10"/>
<path d="M89.6791 86.9739L46.6768 56.375" stroke="#92CDFE" stroke-width="0.73183" stroke-miterlimit="10"/>
<path d="M111.178 209.052L68.1768 178.453" stroke="#92CDFE" stroke-width="0.73183" stroke-miterlimit="10"/>
<path d="M121.605 223.915L78.6035 193.316" stroke="#92CDFE" stroke-width="0.73183" stroke-miterlimit="10"/>
<path d="M61.7412 122.019L38.8086 106.898" stroke="#92CDFE" stroke-width="0.73183" stroke-miterlimit="10"/>
<path d="M286.154 47.7766L243.151 17.1777" stroke="#92CDFE" stroke-width="0.73183" stroke-miterlimit="10"/>
<path d="M296.58 62.638L253.578 32.0391" stroke="#92CDFE" stroke-width="0.73183" stroke-miterlimit="10"/>
<path d="M228.299 176.933L185.297 146.334" stroke="#92CDFE" stroke-width="0.73183" stroke-miterlimit="10"/>
<path d="M238.724 191.794L195.723 161.195" stroke="#92CDFE" stroke-width="0.73183" stroke-miterlimit="10"/>
<path d="M226.033 190.384L183.03 159.785" stroke="#92CDFE" stroke-width="0.73183" stroke-miterlimit="10"/>
<path d="M133.358 152.116C134.209 148.533 131.99 144.94 128.403 144.091C124.815 143.241 121.218 145.457 120.367 149.04C119.517 152.623 121.735 156.216 125.323 157.066C128.91 157.915 132.508 155.699 133.358 152.116Z" stroke="#92CDFE" stroke-width="0.73183" stroke-miterlimit="10"/>
<path d="M130.331 42.8501C130.188 43.2528 130.607 43.7805 131.302 44.1336L129.543 48.3123C128.599 48.0579 127.647 47.9476 126.71 47.9695L126.565 46.4631C126.835 46.4185 127.033 46.2862 127.027 46.1371C127.021 45.9616 126.738 45.8308 126.395 45.844C126.053 45.8571 125.781 46.0106 125.788 46.186C125.794 46.3344 125.997 46.4499 126.266 46.474L126.239 47.9922C125.191 48.0667 124.169 48.3057 123.207 48.6924L121.004 44.6767C121.67 44.2527 122.041 43.6767 121.856 43.2879C121.639 42.8318 120.741 42.8055 119.85 43.2287C118.96 43.6519 118.414 44.3653 118.632 44.8214C118.816 45.2073 119.487 45.2841 120.227 45.0436L121.965 49.2954C121.147 49.7632 120.394 50.3465 119.732 51.0328L118.528 50.0417C118.687 49.8195 118.734 49.5863 118.624 49.4847C118.495 49.3656 118.202 49.473 117.969 49.7237C117.736 49.9752 117.653 50.2748 117.781 50.394C117.89 50.4949 118.117 50.4327 118.324 50.2595L119.409 51.3829C118.741 52.1453 118.18 53.0195 117.759 53.9909L113.33 52.6986C113.501 51.9289 113.355 51.2594 112.948 51.1154C112.472 50.9466 111.818 51.562 111.488 52.4903C111.158 53.4186 111.278 54.3081 111.754 54.477C112.157 54.6195 112.686 54.2007 113.039 53.507L117.297 55.2949C117.037 56.2275 116.916 57.1697 116.929 58.098L115.376 58.2478C115.331 57.9781 115.199 57.78 115.05 57.7859C114.874 57.7925 114.743 58.0753 114.756 58.4174C114.769 58.7595 114.923 59.0307 115.098 59.0241C115.246 59.0182 115.362 58.815 115.386 58.546L116.946 58.5738C117.009 59.6066 117.235 60.6153 117.602 61.567L113.57 63.7737C113.147 63.1202 112.577 62.7577 112.191 62.9411C111.734 63.1582 111.708 64.0551 112.132 64.9446C112.555 65.8342 113.27 66.3787 113.726 66.1616C114.116 65.9767 114.191 65.2954 113.942 64.5477L118.187 62.8176C118.649 63.6516 119.231 64.4213 119.919 65.0981L118.951 66.2712C118.731 66.1156 118.5 66.071 118.399 66.1799C118.28 66.3085 118.387 66.6016 118.638 66.8333C118.89 67.0658 119.19 67.1491 119.309 67.0205C119.411 66.9108 119.347 66.6813 119.17 66.4723L120.262 65.4204C121.021 66.0987 121.893 66.6689 122.865 67.1009L121.594 71.4513C120.832 71.2883 120.172 71.4338 120.03 71.8365C119.861 72.3124 120.477 72.9658 121.406 73.2948C122.336 73.6244 123.226 73.5053 123.395 73.0294C123.539 72.623 123.111 72.0887 122.405 71.7357L124.157 67.573C125.111 67.8501 126.077 67.9802 127.028 67.9721L127.168 69.423C126.901 69.4683 126.708 69.5999 126.713 69.7476C126.72 69.923 127.003 70.0538 127.346 70.0407C127.688 70.0275 127.96 69.874 127.953 69.6993C127.947 69.5495 127.74 69.4333 127.466 69.4099L127.492 67.9568C128.549 67.8983 129.581 67.671 130.553 67.2953L132.703 71.2145C132.048 71.637 131.685 72.2057 131.869 72.5916C132.087 73.0477 132.984 73.074 133.875 72.6508C134.766 72.2276 135.311 71.5142 135.094 71.0581C134.908 70.6685 134.226 70.594 133.477 70.8425L131.792 66.7164C132.643 66.2464 133.426 65.6521 134.114 64.9483L135.208 65.8488C135.052 66.0695 135.007 66.299 135.116 66.3999C135.245 66.519 135.539 66.4116 135.771 66.1609C136.003 65.9094 136.087 65.6098 135.958 65.4906C135.848 65.389 135.618 65.4533 135.409 65.6295L134.427 64.6135C135.116 63.8409 135.692 62.9499 136.123 61.9573L140.39 63.2021C140.227 63.963 140.372 64.6215 140.776 64.7641C141.252 64.9329 141.906 64.3175 142.236 63.3892C142.566 62.4609 142.447 61.5714 141.971 61.4025C141.564 61.2585 141.029 61.6869 140.675 62.3915L136.582 60.6723C136.854 59.7097 136.975 58.7368 136.957 57.7793L138.364 57.6441C138.41 57.9101 138.541 58.1038 138.689 58.098C138.865 58.0914 138.996 57.8085 138.983 57.4665C138.969 57.1244 138.816 56.8532 138.64 56.8598C138.49 56.8656 138.374 57.0725 138.35 57.3459L136.937 57.321C136.868 56.2517 136.625 55.2086 136.229 54.2292L140.142 52.0883C140.566 52.7534 141.142 53.124 141.532 52.9391C141.989 52.722 142.015 51.8251 141.592 50.9356C141.168 50.0461 140.454 49.5015 139.997 49.7186C139.61 49.9021 139.534 50.5723 139.774 51.312L135.631 53.0005C135.155 52.168 134.558 51.4019 133.855 50.7309L134.78 49.609C135.003 49.7683 135.236 49.8144 135.338 49.7047C135.457 49.5761 135.35 49.283 135.099 49.0505C134.847 48.8181 134.547 48.7348 134.428 48.8634C134.327 48.9723 134.389 49.1982 134.562 49.4058L133.511 50.4188C132.733 49.7427 131.838 49.177 130.842 48.7574L132.11 44.423C132.881 44.5941 133.551 44.4486 133.695 44.0422C133.864 43.5664 133.248 42.9129 132.319 42.584C131.391 42.2558 130.5 42.3742 130.331 42.8501Z" fill="#92CDFE"/>
<path d="M49.2472 141.669C49.1411 141.967 49.4521 142.359 49.9666 142.62L48.6632 145.717C47.9643 145.529 47.2581 145.447 46.5636 145.463L46.456 144.346C46.6565 144.313 46.8029 144.215 46.7985 144.104C46.7934 143.974 46.5833 143.877 46.3301 143.887C46.0762 143.897 45.8749 144.011 45.8801 144.141C45.8844 144.25 46.0352 144.336 46.235 144.354L46.2152 145.479C45.4388 145.535 44.6806 145.711 43.9678 145.998L42.3351 143.022C42.8283 142.707 43.1035 142.28 42.9666 141.992C42.8056 141.655 42.1397 141.635 41.4796 141.949C40.8194 142.262 40.4155 142.791 40.5765 143.129C40.7126 143.415 41.2095 143.472 41.7591 143.294L43.0464 146.445C42.4404 146.792 41.8821 147.224 41.3917 147.733L40.4989 146.999C40.6175 146.834 40.6511 146.661 40.5699 146.586C40.474 146.497 40.2567 146.577 40.0847 146.762C39.9127 146.948 39.8505 147.171 39.9456 147.26C40.0261 147.334 40.1937 147.288 40.3474 147.16L41.1517 147.993C40.6563 148.558 40.2413 149.205 39.9288 149.926L36.6458 148.968C36.7724 148.398 36.6649 147.902 36.3633 147.795C36.0099 147.67 35.5254 148.126 35.281 148.813C35.0365 149.501 35.1243 150.161 35.4778 150.286C35.7764 150.392 36.1687 150.082 36.4307 149.568L39.5863 150.893C39.3938 151.584 39.3046 152.282 39.3133 152.97L38.1622 153.081C38.1292 152.881 38.0312 152.735 37.9199 152.739C37.7897 152.744 37.6923 152.954 37.7026 153.207C37.7128 153.461 37.8263 153.662 37.9558 153.657C38.0656 153.652 38.1512 153.502 38.1695 153.302L39.3258 153.323C39.3726 154.088 39.5395 154.836 39.8124 155.541L36.8237 157.177C36.5097 156.692 36.0882 156.424 35.802 156.56C35.4639 156.721 35.4442 157.386 35.7581 158.045C36.0721 158.704 36.6012 159.108 36.94 158.947C37.2291 158.81 37.2847 158.305 37.0996 157.751L40.2457 156.469C40.5882 157.087 41.0192 157.657 41.5293 158.159L40.8121 159.029C40.6482 158.913 40.4784 158.881 40.403 158.961C40.3145 159.057 40.3943 159.273 40.5809 159.446C40.7675 159.617 40.99 159.679 41.0785 159.584C41.1539 159.503 41.1063 159.333 40.9753 159.178L41.784 158.398C42.346 158.901 42.993 159.324 43.7124 159.644L42.769 162.869C42.2041 162.748 41.7159 162.855 41.6098 163.154C41.4847 163.507 41.9413 163.991 42.63 164.235C43.3187 164.479 43.9788 164.392 44.1046 164.039C44.2115 163.738 43.8939 163.341 43.3706 163.08L44.6689 159.995C45.3758 160.2 46.0915 160.296 46.7963 160.29L46.9002 161.365C46.7026 161.399 46.5592 161.496 46.5628 161.605C46.568 161.736 46.778 161.833 47.0312 161.823C47.2852 161.812 47.4864 161.699 47.4813 161.57C47.4769 161.459 47.3232 161.372 47.1205 161.356L47.1395 160.279C47.9226 160.236 48.6873 160.067 49.4082 159.788L51.0021 162.693C50.5169 163.007 50.2483 163.428 50.3845 163.713C50.5455 164.052 51.2114 164.071 51.8715 163.757C52.5317 163.444 52.9356 162.915 52.7746 162.577C52.637 162.288 52.1321 162.233 51.5766 162.418L50.3274 159.359C50.9582 159.011 51.5393 158.571 52.0486 158.049L52.8595 158.717C52.7439 158.881 52.711 159.051 52.7915 159.125C52.8873 159.214 53.1039 159.134 53.2767 158.948C53.4494 158.761 53.5116 158.539 53.4157 158.451C53.3345 158.376 53.1647 158.423 53.0088 158.554L52.2814 157.801C52.7915 157.228 53.2188 156.568 53.5387 155.832L56.7009 156.754C56.5794 157.319 56.6877 157.806 56.9863 157.912C57.3398 158.037 57.8242 157.581 58.0687 156.893C58.3131 156.205 58.2253 155.546 57.8718 155.42C57.5703 155.314 57.1737 155.631 56.9117 156.153L53.8782 154.879C54.0795 154.166 54.1695 153.445 54.1563 152.735L55.1992 152.635C55.2328 152.832 55.3302 152.975 55.4399 152.972C55.5702 152.967 55.6675 152.757 55.6573 152.504C55.6471 152.251 55.5336 152.049 55.4034 152.054C55.2921 152.059 55.2058 152.212 55.1889 152.415L54.1417 152.397C54.0897 151.604 53.9097 150.831 53.6162 150.104L56.5165 148.517C56.8312 149.01 57.2585 149.285 57.5469 149.148C57.885 148.987 57.9047 148.322 57.5908 147.663C57.2768 147.004 56.7477 146.6 56.4089 146.761C56.1227 146.897 56.0657 147.393 56.2442 147.942L53.1735 149.194C52.82 148.577 52.378 148.009 51.8562 147.512L52.5426 146.681C52.7073 146.799 52.8807 146.833 52.9561 146.752C53.0447 146.656 52.9649 146.439 52.7783 146.267C52.5917 146.094 52.3692 146.032 52.2806 146.128C52.206 146.208 52.2521 146.376 52.3802 146.529L51.6015 147.28C51.0241 146.779 50.3618 146.36 49.6234 146.048L50.563 142.836C51.1346 142.962 51.6308 142.855 51.7384 142.554C51.8635 142.201 51.4068 141.717 50.7182 141.473C50.0332 141.228 49.3731 141.316 49.2472 141.669Z" fill="#92CDFE"/>
<path d="M149.767 190.857C149.618 191.275 150.055 191.825 150.778 192.193L148.947 196.542C147.966 196.277 146.975 196.162 146 196.185L145.848 194.617C146.13 194.571 146.335 194.433 146.329 194.277C146.322 194.095 146.027 193.958 145.671 193.973C145.315 193.986 145.032 194.146 145.039 194.329C145.045 194.483 145.257 194.603 145.538 194.628L145.51 196.208C144.419 196.286 143.355 196.535 142.354 196.937L140.061 192.758C140.754 192.317 141.141 191.718 140.948 191.313C140.722 190.838 139.786 190.811 138.86 191.251C137.933 191.692 137.365 192.434 137.592 192.909C137.783 193.31 138.481 193.391 139.252 193.14L141.06 197.565C140.209 198.052 139.425 198.659 138.735 199.373L137.482 198.342C137.648 198.111 137.696 197.868 137.581 197.762C137.447 197.638 137.142 197.75 136.9 198.011C136.658 198.273 136.571 198.585 136.705 198.709C136.818 198.814 137.053 198.749 137.27 198.569L138.399 199.739C137.704 200.532 137.121 201.442 136.683 202.454L132.073 201.109C132.251 200.308 132.1 199.611 131.676 199.46C131.18 199.284 130.499 199.925 130.156 200.892C129.813 201.858 129.937 202.783 130.433 202.959C130.852 203.108 131.402 202.672 131.771 201.95L136.202 203.811C135.931 204.781 135.806 205.762 135.818 206.728L134.202 206.884C134.156 206.603 134.018 206.397 133.862 206.404C133.679 206.411 133.543 206.705 133.557 207.061C133.571 207.417 133.73 207.699 133.913 207.692C134.068 207.686 134.188 207.474 134.213 207.194L135.837 207.223C135.902 208.298 136.137 209.348 136.52 210.338L132.323 212.635C131.883 211.955 131.29 211.577 130.889 211.769C130.414 211.994 130.386 212.928 130.827 213.854C131.268 214.779 132.011 215.346 132.487 215.121C132.892 214.928 132.971 214.219 132.711 213.441L137.129 211.641C137.611 212.509 138.216 213.309 138.931 214.015L137.924 215.236C137.694 215.074 137.455 215.028 137.35 215.141C137.226 215.275 137.338 215.58 137.6 215.822C137.862 216.063 138.174 216.15 138.298 216.017C138.405 215.903 138.337 215.664 138.154 215.447L139.289 214.352C140.078 215.058 140.986 215.651 141.997 216.1L140.673 220.628C139.88 220.458 139.193 220.61 139.045 221.029C138.869 221.524 139.51 222.204 140.478 222.547C141.445 222.89 142.372 222.766 142.548 222.271C142.698 221.848 142.253 221.292 141.517 220.924L143.341 216.592C144.334 216.881 145.339 217.015 146.329 217.007L146.474 218.517C146.197 218.565 145.995 218.701 146.001 218.855C146.008 219.038 146.302 219.174 146.659 219.16C147.015 219.146 147.298 218.986 147.291 218.804C147.285 218.648 147.069 218.527 146.785 218.503L146.812 216.99C147.912 216.93 148.985 216.693 149.997 216.302L152.235 220.381C151.555 220.821 151.177 221.412 151.368 221.814C151.594 222.289 152.53 222.317 153.456 221.876C154.383 221.435 154.951 220.693 154.724 220.219C154.531 219.814 153.822 219.736 153.043 219.994L151.288 215.7C152.175 215.211 152.99 214.593 153.706 213.86L154.844 214.798C154.681 215.027 154.635 215.266 154.749 215.371C154.882 215.494 155.188 215.383 155.43 215.122C155.672 214.86 155.759 214.548 155.625 214.424C155.511 214.318 155.273 214.385 155.054 214.569L154.033 213.511C154.749 212.707 155.349 211.78 155.798 210.747L160.238 212.042C160.067 212.833 160.22 213.519 160.639 213.667C161.135 213.844 161.816 213.203 162.159 212.236C162.502 211.27 162.379 210.345 161.882 210.169C161.459 210.019 160.902 210.464 160.534 211.198L156.274 209.41C156.557 208.408 156.683 207.395 156.664 206.398L158.129 206.257C158.176 206.534 158.313 206.736 158.468 206.73C158.65 206.723 158.787 206.429 158.773 206.073C158.759 205.717 158.599 205.435 158.417 205.442C158.261 205.447 158.14 205.663 158.116 205.947L156.645 205.921C156.572 204.809 156.319 203.722 155.907 202.703L159.979 200.474C160.42 201.166 161.02 201.552 161.426 201.359C161.901 201.133 161.929 200.2 161.487 199.274C161.046 198.349 160.303 197.781 159.827 198.007C159.426 198.198 159.345 198.895 159.596 199.666L155.284 201.423C154.788 200.556 154.167 199.759 153.435 199.061L154.398 197.894C154.629 198.06 154.873 198.108 154.978 197.993C155.103 197.86 154.991 197.555 154.73 197.313C154.468 197.071 154.155 196.984 154.031 197.118C153.926 197.231 153.99 197.466 154.17 197.682L153.077 198.736C152.266 198.032 151.336 197.444 150.3 197.007L151.619 192.496C152.421 192.674 153.119 192.523 153.269 192.1C153.446 191.604 152.804 190.925 151.837 190.582C150.87 190.238 149.943 190.361 149.767 190.857Z" fill="#92CDFE"/>
<path d="M17.6176 9.72135C17.5114 10.0196 17.8225 10.4113 18.337 10.673L17.0336 13.77C16.3347 13.5814 15.6292 13.4995 14.9347 13.5156L14.8271 12.3987C15.0276 12.3659 15.174 12.2679 15.1696 12.1568C15.1645 12.0267 14.9544 11.9295 14.7012 11.9397C14.4473 11.95 14.246 12.0633 14.2511 12.1926C14.2555 12.3023 14.4063 12.3878 14.6061 12.4061L14.5863 13.531C13.8091 13.5865 13.0517 13.7634 12.3389 14.0499L10.7062 11.0736C11.1994 10.7593 11.4746 10.3324 11.3377 10.0444C11.1767 9.706 10.5108 9.687 9.85065 10.0006C9.19054 10.3141 8.78657 10.8426 8.94757 11.181C9.08369 11.4668 9.58061 11.5238 10.1302 11.3455L11.4175 14.4972C10.8115 14.8437 10.2532 15.2764 9.76283 15.7844L8.87 15.0498C8.98856 14.8854 9.02222 14.7121 8.94099 14.6369C8.84512 14.5484 8.6285 14.6281 8.45578 14.8145C8.28307 15.0009 8.2216 15.2231 8.31674 15.3115C8.39724 15.3861 8.56483 15.34 8.71851 15.2121L9.52279 16.0446C9.02734 16.6096 8.6124 17.2572 8.2999 17.9779L5.01692 17.0204C5.14352 16.4496 5.03594 15.954 4.73443 15.8465C4.38096 15.7216 3.89648 16.1777 3.65205 16.8655C3.40762 17.5533 3.49544 18.2126 3.84891 18.3383C4.1475 18.4443 4.53976 18.1336 4.80176 17.6198L7.95741 18.945C7.76494 19.6357 7.67565 20.3344 7.68444 21.0223L6.53327 21.1334C6.50033 20.9331 6.40227 20.7869 6.29103 20.7913C6.16076 20.7964 6.06343 21.0062 6.07368 21.2591C6.08392 21.5127 6.19736 21.7137 6.32762 21.7086C6.4374 21.7042 6.52302 21.5536 6.54132 21.3541L7.69761 21.3746C7.74444 22.1398 7.9113 22.8876 8.18427 23.5929L5.19548 25.2288C4.88226 24.7442 4.45999 24.4759 4.17385 24.6119C3.83574 24.7727 3.81598 25.4378 4.12994 26.0971C4.44389 26.7564 4.97301 27.1599 5.31184 26.9991C5.60092 26.8617 5.65653 26.3573 5.47138 25.8025L8.61752 24.5205C8.96001 25.1389 9.39106 25.709 9.90115 26.2111L9.18395 27.0809C9.02076 26.9654 8.84951 26.9326 8.77486 27.013C8.68631 27.1087 8.76608 27.3251 8.9527 27.4976C9.13931 27.6693 9.36179 27.7322 9.45034 27.6364C9.52572 27.5553 9.47815 27.385 9.34715 27.23L10.1566 26.4501C10.7186 26.953 11.3655 27.3755 12.0849 27.6956L11.1416 30.9205C10.5766 30.7992 10.0885 30.9074 9.98238 31.2056C9.85724 31.5586 10.3139 32.0425 11.0026 32.2866C11.6912 32.5307 12.3513 32.443 12.4772 32.09C12.584 31.7889 12.2664 31.3927 11.7432 31.131L13.0414 28.0458C13.7484 28.2511 14.4641 28.3476 15.1689 28.3411L15.2728 29.4163C15.0752 29.4499 14.9317 29.5471 14.9361 29.6567C14.9413 29.7868 15.1513 29.884 15.4045 29.8738C15.6585 29.8636 15.8597 29.7503 15.8546 29.6209C15.8502 29.5098 15.6965 29.4236 15.4938 29.4067L15.5128 28.3301C16.2959 28.287 17.0606 28.1181 17.7815 27.8396L19.3754 30.7444C18.8902 31.0579 18.6216 31.4789 18.7578 31.7647C18.9188 32.1032 19.5847 32.1222 20.2448 31.8086C20.9049 31.495 21.3096 30.9666 21.1479 30.6281C21.0103 30.3394 20.5054 30.2839 19.9499 30.4688L18.7007 27.4106C19.3315 27.0619 19.9126 26.6219 20.4219 26.1008L21.2321 26.7681C21.1164 26.9318 21.0835 27.1021 21.164 27.1767C21.2599 27.2651 21.4772 27.1855 21.6492 26.9991C21.8219 26.8127 21.8841 26.5905 21.7883 26.502C21.707 26.4267 21.5365 26.4743 21.3814 26.6051L20.6539 25.8522C21.164 25.2792 21.5914 24.6192 21.9112 23.8838L25.0734 24.8063C24.952 25.3706 25.0603 25.8581 25.3589 25.9641C25.7123 26.0891 26.1968 25.633 26.4412 24.9452C26.6857 24.2574 26.5978 23.5981 26.2444 23.4723C25.9429 23.3656 25.5462 23.6828 25.2842 24.2055L22.2508 22.9314C22.452 22.2181 22.542 21.4966 22.5289 20.7869L23.5717 20.6868C23.6054 20.8841 23.7027 21.0274 23.8125 21.0237C23.9428 21.0186 24.0401 20.8088 24.0299 20.5559C24.0196 20.3023 23.9062 20.1013 23.7766 20.1064C23.6654 20.1108 23.579 20.2643 23.5622 20.4668L22.515 20.4485C22.463 19.6561 22.283 18.8828 21.9895 18.157L24.8898 16.5702C25.2044 17.0628 25.6311 17.3376 25.9202 17.201C26.259 17.0402 26.278 16.375 25.9641 15.7157C25.6501 15.0564 25.121 14.6529 24.7822 14.8137C24.496 14.9497 24.4389 15.446 24.6175 15.9949L21.5468 17.2463C21.1933 16.6294 20.7513 16.0614 20.2295 15.5644L20.9167 14.7319C21.0813 14.8503 21.2548 14.8846 21.3301 14.8028C21.4187 14.707 21.3389 14.4907 21.1523 14.3182C20.9657 14.1457 20.7432 14.0835 20.6547 14.1793C20.58 14.2597 20.6261 14.4271 20.7542 14.5813L19.9755 15.332C19.3981 14.8306 18.7358 14.4117 17.9974 14.1004L18.9371 10.8879C19.5086 11.0144 20.0055 10.9069 20.1124 10.6058C20.2375 10.2527 19.7809 9.76886 19.0922 9.52473C18.4035 9.2806 17.7427 9.36904 17.6176 9.72135Z" fill="#92CDFE"/>
<path d="M306.562 72.6903C306.456 72.9885 306.767 73.3803 307.281 73.6419L305.978 76.7389C305.279 76.5503 304.574 76.4684 303.879 76.4845L303.771 75.3677C303.972 75.3348 304.118 75.2368 304.114 75.1257C304.109 74.9956 303.899 74.8984 303.646 74.9086C303.392 74.9189 303.19 75.0322 303.195 75.1615C303.2 75.2712 303.351 75.3567 303.55 75.375L303.531 76.4999C302.753 76.5547 301.996 76.7323 301.283 77.0188L299.65 74.0425C300.144 73.7282 300.419 73.3013 300.282 73.0133C300.121 72.6757 299.455 72.6559 298.795 72.9695C298.135 73.2831 297.731 73.8115 297.892 74.1499C298.028 74.4357 298.525 74.4927 299.075 74.3144L300.362 77.4662C299.756 77.8126 299.197 78.2453 298.707 78.7541L297.814 78.0195C297.933 77.855 297.967 77.6818 297.885 77.6065C297.789 77.5181 297.573 77.5977 297.4 77.7834C297.227 77.9698 297.166 78.192 297.261 78.2804C297.342 78.355 297.509 78.3089 297.663 78.181L298.467 79.0135C297.972 79.5786 297.557 80.2262 297.244 80.9469L293.961 79.9893C294.088 79.4185 293.98 78.9229 293.679 78.8155C293.325 78.6905 292.841 79.1466 292.596 79.8344C292.352 80.5222 292.44 81.1815 292.793 81.3072C293.092 81.4132 293.484 81.1025 293.746 80.5887L296.902 81.9139C296.709 82.6046 296.62 83.3034 296.629 83.9912L295.478 84.1023C295.445 83.902 295.347 83.7558 295.235 83.7602C295.105 83.7653 295.008 83.9751 295.018 84.228C295.028 84.4816 295.142 84.6826 295.271 84.6775C295.381 84.6731 295.467 84.5226 295.485 84.323L296.641 84.3435C296.688 85.1088 296.856 85.8565 297.128 86.5619L294.139 88.1977C293.826 87.7131 293.404 87.4448 293.117 87.5808C292.779 87.7416 292.76 88.4067 293.074 89.066C293.387 89.7253 293.917 90.1288 294.255 89.968C294.545 89.8306 294.6 89.3262 294.415 88.7715L297.561 87.4894C297.904 88.1078 298.335 88.6779 298.845 89.18L298.128 90.0499C297.964 89.9344 297.794 89.9015 297.718 89.9819C297.63 90.0776 297.71 90.294 297.896 90.4665C298.082 90.6383 298.305 90.7004 298.393 90.6054C298.469 90.5242 298.421 90.3539 298.29 90.199L299.099 89.4191C299.661 89.9219 300.308 90.3444 301.027 90.6646L300.084 93.8894C299.52 93.7681 299.031 93.8763 298.925 94.1745C298.799 94.5275 299.256 95.0114 299.945 95.2555C300.633 95.4997 301.293 95.412 301.419 95.0589C301.526 94.7578 301.209 94.3616 300.685 94.0999L301.984 91.0147C302.691 91.2201 303.406 91.3158 304.112 91.31L304.216 92.3852C304.018 92.4188 303.875 92.516 303.879 92.6257C303.884 92.7558 304.094 92.853 304.347 92.8427C304.601 92.8332 304.803 92.7192 304.797 92.5898C304.793 92.4787 304.639 92.3925 304.437 92.3757L304.456 91.2983C305.239 91.2552 306.004 91.0863 306.724 90.8078L308.318 93.7133C307.832 94.0268 307.564 94.4479 307.7 94.7337C307.861 95.0721 308.527 95.0911 309.187 94.7775C309.847 94.4639 310.251 93.9355 310.09 93.5971C309.952 93.3083 309.448 93.2528 308.892 93.4377L307.643 90.3795C308.274 90.0309 308.855 89.5908 309.364 89.0697L310.174 89.737C310.059 89.9 310.026 90.0703 310.106 90.1456C310.202 90.234 310.419 90.1544 310.591 89.968C310.764 89.7816 310.826 89.5594 310.73 89.471C310.649 89.3957 310.479 89.4432 310.324 89.574L309.595 88.8212C310.105 88.2481 310.533 87.5881 310.853 86.8528L314.015 87.7752C313.893 88.3395 314.002 88.827 314.301 88.933C314.654 89.058 315.139 88.6019 315.383 87.9141C315.628 87.2263 315.54 86.567 315.187 86.4413C314.885 86.3345 314.488 86.6518 314.226 87.1744L311.193 85.9004C311.394 85.187 311.484 84.4655 311.471 83.7558L312.514 83.6557C312.548 83.853 312.645 83.9963 312.755 83.9926C312.885 83.9875 312.982 83.7777 312.972 83.5248C312.962 83.2719 312.848 83.0702 312.719 83.0753C312.608 83.0797 312.521 83.2332 312.504 83.4357L311.457 83.4174C311.405 82.6251 311.225 81.8517 310.932 81.1259L313.832 79.5391C314.147 80.0317 314.573 80.3066 314.862 80.1699C315.2 80.0091 315.22 79.3439 314.906 78.6846C314.592 78.0253 314.063 77.6219 313.724 77.7827C313.438 77.9186 313.381 78.4149 313.56 78.9638L310.489 80.2152C310.135 79.5983 309.693 79.0304 309.172 78.5333L309.858 77.7023C310.023 77.8207 310.196 77.8543 310.272 77.7732C310.36 77.6774 310.28 77.4603 310.094 77.2886C309.907 77.1168 309.685 77.0547 309.596 77.1497C309.521 77.2301 309.568 77.3975 309.696 77.5517L308.917 78.3023C308.34 77.8009 307.676 77.3821 306.939 77.0707L307.878 73.8583C308.45 73.9848 308.947 73.8773 309.054 73.5762C309.179 73.2231 308.722 72.7392 308.034 72.4951C307.348 72.2488 306.688 72.3372 306.562 72.6903Z" fill="#92CDFE"/>
<path d="M317.416 16.1326C317.338 16.3519 317.567 16.6406 317.946 16.8328L316.987 19.1119C316.472 18.973 315.954 18.9131 315.442 18.9248L315.363 18.1032C315.51 18.0791 315.618 18.0067 315.615 17.9256C315.611 17.8298 315.457 17.7582 315.27 17.7655C315.083 17.7728 314.935 17.8561 314.939 17.9519C314.942 18.0323 315.053 18.0959 315.201 18.109L315.186 18.9372C314.614 18.9781 314.057 19.1082 313.533 19.3195L312.331 17.1296C312.694 16.8986 312.897 16.5843 312.796 16.3723C312.677 16.1238 312.188 16.1092 311.702 16.3402C311.216 16.5712 310.919 16.96 311.037 17.2085C311.137 17.419 311.503 17.4607 311.907 17.3299L312.854 19.6491C312.409 19.9042 311.997 20.2222 311.636 20.5964L310.98 20.0555C311.067 19.9342 311.092 19.807 311.032 19.7514C310.962 19.6864 310.801 19.7449 310.675 19.8815C310.548 20.0182 310.502 20.182 310.572 20.247C310.632 20.3018 310.755 20.2682 310.868 20.1739L311.46 20.7864C311.096 21.2023 310.79 21.6789 310.561 22.2088L308.145 21.5042C308.238 21.0847 308.159 20.7192 307.937 20.641C307.677 20.5489 307.321 20.8844 307.141 21.3909C306.961 21.8974 307.026 22.3821 307.286 22.4741C307.505 22.5524 307.794 22.3236 307.987 21.945L310.309 22.92C310.167 23.4287 310.102 23.9426 310.108 24.4484L309.262 24.5303C309.238 24.3833 309.165 24.2752 309.084 24.2788C308.988 24.2825 308.916 24.4367 308.924 24.6231C308.931 24.8095 309.014 24.9579 309.11 24.9535C309.191 24.9505 309.254 24.8394 309.268 24.6925L310.118 24.7079C310.152 25.2714 310.275 25.8211 310.476 26.34L308.277 27.5432C308.046 27.1865 307.735 26.9891 307.525 27.0892C307.276 27.2077 307.262 27.6966 307.493 28.182C307.724 28.6673 308.113 28.9641 308.362 28.8457C308.575 28.7448 308.616 28.3735 308.48 27.9656L310.795 27.022C311.047 27.4766 311.364 27.8969 311.74 28.266L311.212 28.9056C311.092 28.8208 310.966 28.7967 310.911 28.8559C310.846 28.9261 310.905 29.0854 311.042 29.2126C311.178 29.339 311.342 29.3851 311.407 29.3149C311.463 29.255 311.428 29.13 311.331 29.016L311.926 28.4422C312.34 28.812 312.815 29.1234 313.345 29.3588L312.652 31.7314C312.236 31.6422 311.877 31.7219 311.799 31.9412C311.707 32.2006 312.043 32.5566 312.55 32.7364C313.057 32.9162 313.542 32.8512 313.634 32.5917C313.713 32.3702 313.479 32.0786 313.094 31.8863L314.05 29.6168C314.57 29.7681 315.097 29.8383 315.615 29.8346L315.692 30.6255C315.546 30.6503 315.441 30.722 315.443 30.8024C315.447 30.8981 315.602 30.9697 315.788 30.9624C315.975 30.9551 316.123 30.8718 316.12 30.7761C316.117 30.6942 316.003 30.6306 315.855 30.6182L315.869 29.8258C316.445 29.7944 317.007 29.6702 317.538 29.4655L318.71 31.6027C318.353 31.833 318.156 32.1436 318.256 32.3534C318.374 32.6019 318.864 32.6165 319.35 32.3856C319.836 32.1546 320.133 31.7657 320.014 31.5172C319.913 31.3052 319.542 31.2643 319.133 31.3995L318.214 29.1497C318.678 28.8932 319.106 28.5694 319.481 28.1856L320.077 28.6768C319.993 28.7974 319.968 28.9224 320.028 28.9772C320.098 29.0423 320.257 28.9838 320.385 28.8471C320.512 28.7104 320.558 28.5467 320.487 28.4817C320.427 28.4261 320.302 28.4612 320.188 28.5577L319.652 28.0036C320.028 27.5819 320.342 27.0965 320.577 26.5549L322.904 27.234C322.814 27.6491 322.894 28.008 323.114 28.0862C323.374 28.1783 323.73 27.8428 323.91 27.3363C324.09 26.8298 324.025 26.3452 323.765 26.2531C323.543 26.1741 323.251 26.408 323.059 26.7925L320.827 25.8554C320.975 25.3306 321.041 24.8 321.031 24.2774L321.799 24.2035C321.824 24.349 321.895 24.4542 321.976 24.4513C322.072 24.4477 322.143 24.2934 322.136 24.107C322.129 23.9207 322.045 23.7723 321.949 23.7767C321.867 23.7796 321.804 23.8929 321.791 24.0413L321.021 24.0274C320.983 23.4441 320.85 22.8754 320.634 22.3411L322.768 21.1738C323 21.5364 323.314 21.7388 323.527 21.638C323.775 21.5196 323.79 21.0306 323.559 20.5452C323.327 20.0599 322.938 19.7631 322.689 19.8815C322.479 19.9817 322.437 20.3471 322.568 20.7506L320.309 21.6716C320.049 21.2177 319.723 20.8003 319.34 20.4341L319.845 19.8223C319.966 19.9093 320.094 19.9342 320.149 19.8742C320.214 19.8041 320.156 19.6447 320.019 19.5175C319.881 19.3911 319.718 19.345 319.653 19.4152C319.598 19.4744 319.632 19.5972 319.726 19.7105L319.153 20.2631C318.728 19.894 318.241 19.5855 317.698 19.3567L318.389 16.9929C318.809 17.0857 319.175 17.0068 319.253 16.7853C319.346 16.5258 319.01 16.1699 318.503 15.9901C317.995 15.8081 317.509 15.8731 317.416 16.1326Z" fill="#92CDFE"/>
<path d="M100.056 237.83C99.9776 238.05 100.207 238.337 100.585 238.53L99.6256 240.809C99.1111 240.671 98.5922 240.611 98.0807 240.622L98.0016 239.801C98.1487 239.777 98.2571 239.704 98.2534 239.623C98.2497 239.527 98.0953 239.456 97.9087 239.463C97.7221 239.47 97.5735 239.554 97.5779 239.649C97.5809 239.731 97.6921 239.793 97.8392 239.807L97.8245 240.635C97.253 240.675 96.6953 240.806 96.1713 241.017L94.9697 238.827C95.3327 238.596 95.5354 238.282 95.4344 238.07C95.3158 237.821 94.8262 237.807 94.3403 238.038C93.8544 238.269 93.5572 238.658 93.6758 238.906C93.7761 239.117 94.142 239.158 94.5459 239.027L95.4929 241.347C95.0473 241.602 94.636 241.92 94.2752 242.294L93.6187 241.753C93.7058 241.632 93.7307 241.505 93.6707 241.449C93.6004 241.384 93.4409 241.442 93.3136 241.579C93.1869 241.717 93.1408 241.88 93.2111 241.945C93.2704 241.999 93.3933 241.966 93.5068 241.872L94.0988 242.484C93.7344 242.9 93.4284 243.377 93.1994 243.906L90.7836 243.202C90.8766 242.782 90.7975 242.417 90.5758 242.338C90.316 242.246 89.9596 242.581 89.7795 243.088C89.5995 243.594 89.6646 244.079 89.9244 244.171C90.144 244.249 90.4323 244.02 90.6255 243.642L92.9476 244.617C92.8057 245.126 92.7398 245.639 92.7464 246.145L91.8997 246.227C91.8755 246.08 91.8031 245.972 91.7218 245.976C91.626 245.979 91.5542 246.134 91.5615 246.32C91.5689 246.506 91.6523 246.655 91.7482 246.65C91.8294 246.647 91.8923 246.536 91.9055 246.389L92.7559 246.405C92.7903 246.968 92.9132 247.518 93.1138 248.037L90.9146 249.241C90.6841 248.884 90.3731 248.687 90.163 248.787C89.9142 248.905 89.8996 249.394 90.1308 249.88C90.3621 250.365 90.7514 250.662 91.0002 250.543C91.2125 250.442 91.2535 250.071 91.1181 249.663L93.4328 248.72C93.6853 249.174 94.0022 249.595 94.3776 249.964L93.8492 250.603C93.7292 250.518 93.6034 250.494 93.5485 250.554C93.4833 250.624 93.5419 250.784 93.6787 250.91C93.8156 251.037 93.9795 251.083 94.0446 251.013C94.1003 250.953 94.0651 250.828 93.9685 250.714L94.5635 250.14C94.977 250.51 95.4527 250.821 95.9825 251.056L95.2888 253.429C94.8731 253.34 94.5138 253.419 94.4362 253.639C94.344 253.898 94.6799 254.254 95.187 254.434C95.6942 254.614 96.1794 254.549 96.2716 254.289C96.3506 254.068 96.1165 253.776 95.7315 253.584L96.6873 251.314C97.2076 251.466 97.7338 251.536 98.2527 251.532L98.3288 252.323C98.1831 252.348 98.0778 252.42 98.0807 252.5C98.0843 252.596 98.2388 252.667 98.4254 252.66C98.612 252.653 98.7606 252.569 98.7562 252.474C98.7532 252.393 98.6398 252.329 98.4905 252.316L98.5044 251.523C99.0804 251.492 99.6431 251.368 100.174 251.163L101.346 253.3C100.989 253.531 100.791 253.841 100.892 254.051C101.01 254.3 101.5 254.314 101.986 254.083C102.472 253.852 102.769 253.463 102.65 253.215C102.549 253.002 102.177 252.961 101.769 253.097L100.85 250.847C101.314 250.591 101.741 250.267 102.117 249.883L102.713 250.374C102.628 250.494 102.604 250.62 102.663 250.675C102.734 250.74 102.893 250.681 103.021 250.545C103.147 250.408 103.193 250.244 103.123 250.179C103.063 250.124 102.938 250.159 102.824 250.255L102.288 249.701C102.663 249.28 102.978 248.794 103.213 248.253L105.539 248.932C105.45 249.347 105.53 249.706 105.75 249.783C106.009 249.875 106.366 249.54 106.546 249.033C106.726 248.527 106.661 248.042 106.401 247.95C106.179 247.871 105.887 248.105 105.695 248.489L103.463 247.552C103.61 247.028 103.677 246.497 103.667 245.974L104.434 245.9C104.459 246.046 104.531 246.151 104.612 246.148C104.707 246.145 104.779 245.99 104.772 245.804C104.764 245.618 104.681 245.469 104.585 245.473C104.503 245.476 104.44 245.589 104.427 245.737L103.657 245.724C103.618 245.14 103.486 244.572 103.27 244.037L105.404 242.87C105.635 243.233 105.95 243.435 106.162 243.334C106.411 243.216 106.426 242.727 106.194 242.241C105.963 241.756 105.574 241.459 105.325 241.578C105.114 241.678 105.073 242.043 105.204 242.447L102.944 243.368C102.685 242.914 102.359 242.496 101.975 242.13L102.48 241.518C102.602 241.605 102.729 241.63 102.785 241.57C102.85 241.5 102.791 241.341 102.655 241.214C102.518 241.087 102.354 241.041 102.289 241.111C102.234 241.171 102.267 241.294 102.362 241.407L101.789 241.959C101.364 241.59 100.876 241.282 100.333 241.053L101.024 238.689C101.445 238.782 101.81 238.703 101.888 238.481C101.981 238.222 101.645 237.866 101.138 237.686C100.633 237.506 100.148 237.571 100.056 237.83Z" fill="#92CDFE"/>
<path d="M312.78 272.727C312.698 272.945 312.922 273.237 313.297 273.437L312.296 275.698C311.784 275.55 311.266 275.48 310.755 275.483L310.69 274.66C310.838 274.639 310.947 274.568 310.946 274.486C310.943 274.391 310.79 274.316 310.604 274.321C310.417 274.324 310.267 274.405 310.269 274.501C310.271 274.582 310.381 274.647 310.528 274.663L310.498 275.49C309.925 275.52 309.366 275.641 308.838 275.842L307.677 273.63C308.044 273.405 308.252 273.096 308.155 272.881C308.041 272.631 307.551 272.607 307.062 272.829C306.572 273.051 306.267 273.434 306.381 273.685C306.478 273.897 306.842 273.946 307.249 273.821L308.154 276.157C307.703 276.404 307.287 276.715 306.918 277.082L306.271 276.529C306.361 276.41 306.389 276.283 306.329 276.227C306.26 276.16 306.099 276.216 305.97 276.351C305.84 276.486 305.792 276.649 305.861 276.715C305.919 276.771 306.043 276.739 306.158 276.647L306.738 277.271C306.367 277.679 306.052 278.151 305.813 278.676L303.41 277.927C303.511 277.509 303.439 277.143 303.218 277.06C302.96 276.964 302.598 277.293 302.408 277.795C302.219 278.298 302.275 278.784 302.533 278.882C302.751 278.963 303.044 278.741 303.244 278.366L305.548 279.383C305.396 279.889 305.322 280.401 305.319 280.908L304.47 280.973C304.449 280.826 304.379 280.717 304.297 280.718C304.201 280.721 304.126 280.873 304.131 281.06C304.135 281.246 304.216 281.396 304.312 281.394C304.393 281.392 304.458 281.282 304.473 281.136L305.324 281.166C305.348 281.73 305.461 282.283 305.652 282.805L303.431 283.968C303.207 283.608 302.9 283.405 302.687 283.5C302.436 283.614 302.413 284.103 302.634 284.592C302.857 285.081 303.24 285.386 303.491 285.272C303.706 285.175 303.753 284.804 303.625 284.394L305.957 283.493C306.2 283.952 306.51 284.377 306.878 284.754L306.339 285.384C306.22 285.297 306.095 285.27 306.039 285.328C305.972 285.398 306.028 285.558 306.162 285.687C306.297 285.817 306.46 285.865 306.527 285.796C306.583 285.737 306.551 285.612 306.457 285.496L307.063 284.933C307.469 285.31 307.939 285.63 308.465 285.875L307.727 288.235C307.314 288.138 306.953 288.211 306.87 288.429C306.773 288.687 307.103 289.049 307.606 289.238C308.11 289.427 308.596 289.371 308.694 289.113C308.777 288.893 308.548 288.597 308.167 288.398L309.164 286.146C309.681 286.307 310.207 286.387 310.725 286.393L310.786 287.185C310.64 287.207 310.534 287.276 310.535 287.357C310.537 287.453 310.69 287.528 310.877 287.523C311.063 287.52 311.214 287.439 311.211 287.343C311.21 287.261 311.098 287.196 310.949 287.181L310.978 286.388C311.555 286.367 312.12 286.253 312.654 286.058L313.787 288.216C313.426 288.44 313.222 288.747 313.318 288.959C313.432 289.21 313.922 289.233 314.412 289.012C314.901 288.789 315.206 288.406 315.092 288.156C314.995 287.941 314.624 287.894 314.213 288.022L313.336 285.755C313.805 285.507 314.238 285.191 314.62 284.815L315.208 285.316C315.121 285.434 315.094 285.559 315.152 285.616C315.221 285.682 315.382 285.627 315.512 285.492C315.641 285.358 315.689 285.195 315.621 285.128C315.561 285.072 315.436 285.104 315.32 285.198L314.794 284.635C315.177 284.22 315.501 283.74 315.746 283.204L318.06 283.925C317.963 284.338 318.036 284.699 318.254 284.781C318.513 284.878 318.875 284.548 319.065 284.046C319.253 283.543 319.198 283.057 318.939 282.959C318.719 282.877 318.423 283.105 318.223 283.486L316.008 282.508C316.167 281.986 316.242 281.457 316.242 280.934L317.01 280.874C317.032 281.02 317.102 281.127 317.183 281.125C317.279 281.123 317.354 280.97 317.349 280.783C317.346 280.597 317.264 280.447 317.168 280.449C317.086 280.451 317.021 280.563 317.006 280.711L316.235 280.683C316.208 280.099 316.086 279.528 315.88 278.99L318.035 277.862C318.26 278.229 318.57 278.436 318.784 278.34C319.035 278.226 319.059 277.738 318.837 277.248C318.614 276.759 318.231 276.455 317.98 276.568C317.768 276.665 317.719 277.029 317.843 277.435L315.567 278.314C315.315 277.855 314.998 277.432 314.621 277.059L315.137 276.457C315.257 276.546 315.383 276.574 315.44 276.515C315.506 276.445 315.451 276.285 315.316 276.156C315.181 276.027 315.018 275.978 314.952 276.047C314.895 276.106 314.928 276.229 315.02 276.344L314.436 276.885C314.019 276.509 313.536 276.192 312.998 275.953L313.732 273.602C314.151 273.703 314.518 273.631 314.6 273.411C314.698 273.153 314.368 272.791 313.864 272.601C313.364 272.414 312.877 272.469 312.78 272.727Z" fill="#92CDFE"/>
<path d="M235.424 294.121C229.782 294.517 206.997 294.881 211.031 275.607C213.091 265.764 207.849 264.678 202.781 259.716C197.713 254.755 198.319 252.305 199.869 246.871C201.419 241.437 194.44 243.294 193.091 235.116C191.742 226.938 196.849 220.097 205.688 220.141C214.527 220.185 212.545 229.343 215.424 232.725C218.304 236.107 222.765 232.992 225.715 241.053C228.665 249.113 224.365 253.928 230.02 257.078C231.032 257.642 232.105 258.431 233.191 259.386" fill="#E4F2FF"/>
<path d="M235.424 294.121C229.782 294.517 206.997 294.881 211.031 275.607C213.091 265.764 207.849 264.678 202.781 259.716C197.713 254.755 198.319 252.305 199.869 246.871C201.419 241.437 194.44 243.294 193.091 235.116C191.742 226.938 196.849 220.097 205.688 220.141C214.527 220.185 212.545 229.343 215.424 232.725C218.304 236.107 222.765 232.992 225.715 241.053C228.665 249.113 224.365 253.928 230.02 257.078C231.032 257.642 232.105 258.431 233.191 259.386" stroke="#5069FF" stroke-width="0.73183" stroke-miterlimit="10"/>
<path d="M225.972 272.181C221.601 263.3 216.975 254.545 212.118 245.92C210.477 243.005 208.808 240.105 207.114 237.219C206.757 236.611 205.808 237.162 206.166 237.773C211.617 247.06 216.804 256.502 221.697 266.095C222.822 268.3 223.931 270.513 225.024 272.734C225.336 273.367 226.283 272.813 225.972 272.181Z" fill="#5069FF"/>
<path d="M203.373 253.774C207.128 254.163 210.882 254.551 214.637 254.94C215.178 254.997 215.718 255.052 216.259 255.108C216.961 255.181 216.956 254.084 216.259 254.012C212.504 253.623 208.75 253.234 204.995 252.845C204.455 252.789 203.914 252.734 203.373 252.677C202.671 252.605 202.676 253.701 203.373 253.774Z" fill="#5069FF"/>
<path d="M207.876 247.216C207.876 248.147 207.003 248.902 205.928 248.902C204.852 248.902 203.979 248.147 203.979 247.216C203.979 246.284 204.852 245.529 205.928 245.529C207.003 245.529 207.876 246.284 207.876 247.216Z" stroke="#5069FF" stroke-width="0.73183" stroke-miterlimit="10"/>
<path d="M212.217 232.058C211.679 232.989 210.488 233.308 209.556 232.77C208.624 232.233 208.304 231.043 208.843 230.112C209.381 229.181 210.572 228.862 211.504 229.4C212.436 229.938 212.755 231.127 212.217 232.058Z" stroke="#5069FF" stroke-width="0.73183" stroke-miterlimit="10"/>
<path d="M220.061 276.21C220.061 277.37 218.973 278.311 217.632 278.311C216.291 278.311 215.204 277.37 215.204 276.21C215.204 275.049 216.292 274.107 217.632 274.107C218.974 274.107 220.061 275.048 220.061 276.21Z" stroke="#5069FF" stroke-width="0.73183" stroke-miterlimit="10"/>
<path d="M208.74 227.074C208.74 227.551 208.352 227.938 207.875 227.938C207.396 227.938 207.009 227.551 207.009 227.074C207.009 226.596 207.397 226.209 207.875 226.209C208.352 226.209 208.74 226.596 208.74 227.074Z" stroke="#5069FF" stroke-width="0.73183" stroke-miterlimit="10"/>
<path d="M281.63 263.798C291.408 261.617 290.843 256.484 292.819 250.196C294.795 243.908 297.273 243.445 302.871 242.591C308.468 241.737 304.266 234.118 310.91 229.705C317.553 225.292 326.471 224.953 329.793 234.598C332.605 242.764 324.639 246.361 323.013 250.159C321.389 253.956 326.116 259.083 320.351 264.809C314.587 270.535 308.421 266.225 308.345 272.29C308.287 277.038 306.62 284.841 303.09 289.097C303.09 289.097 301.085 292.702 293.296 293.349" fill="white"/>
<path d="M281.63 263.798C291.408 261.617 290.843 256.484 292.819 250.196C294.795 243.908 297.273 243.445 302.871 242.591C308.468 241.737 304.266 234.118 310.91 229.705C317.553 225.292 326.471 224.953 329.793 234.598C332.605 242.764 324.639 246.361 323.013 250.159C321.389 253.956 326.116 259.083 320.351 264.809C314.587 270.535 308.421 266.225 308.345 272.29C308.287 277.038 306.62 284.841 303.09 289.097C303.09 289.097 301.085 292.702 293.296 293.349" stroke="#5069FF" stroke-width="0.73183" stroke-miterlimit="10"/>
<path d="M286.488 282.092C287.84 280.468 289.189 278.846 290.51 277.197C294.844 271.786 299.052 266.274 303.221 260.737C307.18 255.478 311.094 250.187 314.982 244.876C315.399 244.306 314.448 243.759 314.034 244.323C307.987 252.583 301.883 260.804 295.629 268.909C292.801 272.572 289.951 276.222 286.998 279.786C286.573 280.299 286.138 280.804 285.711 281.317C285.263 281.856 286.036 282.635 286.488 282.092Z" fill="#5069FF"/>
<path d="M235.423 294.122C230.868 289.693 220.756 277.3 228.025 265.657C237.199 250.964 249.981 252.387 243.862 239.386C235.244 221.078 239.128 213.431 256.596 206.101C274.063 198.772 267.351 191.789 268.832 181.791C270.752 168.828 284.876 158.989 300.592 164.368C312.714 168.519 310.404 192.649 302.129 199.672C293.852 206.695 311.45 212.794 304.262 229.576C297.074 246.358 279.027 240.512 280.322 253.59C280.641 256.807 281.199 260.266 281.629 263.797C281.629 263.797 284.672 272.843 281.931 279.987C279.189 287.131 273.931 294.477 273.931 294.477L235.423 294.122Z" fill="#E4F2FF" stroke="#5069FF" stroke-width="0.73183" stroke-miterlimit="10"/>
<path d="M242.768 293.627C244.204 290.317 245.645 287.01 247.088 283.703C250.654 275.53 254.233 267.362 257.825 259.201C262.39 248.827 266.977 238.462 271.601 228.114C276.062 218.128 280.551 208.153 285.132 198.222C288.359 191.224 291.572 184.204 295.112 177.357C295.381 176.835 295.654 176.316 295.932 175.799C296.265 175.177 295.318 174.623 294.984 175.246C291.608 181.539 288.639 188.062 285.634 194.536C281.115 204.272 276.7 214.056 272.313 223.852C267.639 234.287 263.006 244.74 258.395 255.203C254.632 263.74 250.885 272.284 247.152 280.833C245.398 284.851 243.534 288.841 241.893 292.907C241.87 292.963 241.844 293.018 241.82 293.073C241.542 293.715 242.487 294.273 242.768 293.627Z" fill="#5069FF"/>
<path d="M274.946 220.128C281.864 219.746 288.782 219.363 295.7 218.981C296.683 218.927 297.667 218.872 298.65 218.818C299.352 218.779 299.356 217.683 298.65 217.722C291.732 218.104 284.814 218.486 277.895 218.869C276.911 218.923 275.928 218.977 274.946 219.032C274.243 219.07 274.239 220.167 274.946 220.128Z" fill="#5069FF"/>
<path d="M251.012 274.05C256.475 273.436 261.939 272.823 267.402 272.209C268.17 272.123 268.939 272.036 269.706 271.95C270.4 271.872 270.408 270.775 269.706 270.854C264.242 271.468 258.779 272.081 253.315 272.695C252.548 272.781 251.779 272.867 251.012 272.954C250.318 273.032 250.31 274.129 251.012 274.05Z" fill="#5069FF"/>
<path d="M248.754 214.823C250.32 218.333 251.885 221.843 253.451 225.352C255.95 230.954 258.449 236.557 260.947 242.159C261.525 243.455 262.103 244.752 262.682 246.048C262.969 246.691 263.916 246.134 263.63 245.494C262.065 241.985 260.499 238.475 258.933 234.965C256.435 229.364 253.936 223.761 251.437 218.159C250.859 216.863 250.28 215.566 249.702 214.27C249.415 213.627 248.469 214.184 248.754 214.823Z" fill="#5069FF"/>
<path d="M282.992 178.927C281.833 180.628 279.815 181.273 278.484 180.369C277.154 179.465 277.015 177.353 278.174 175.652C279.333 173.951 281.351 173.306 282.682 174.21C284.012 175.114 284.151 177.226 282.992 178.927Z" stroke="#5069FF" stroke-width="0.73183" stroke-miterlimit="10"/>
<path d="M283.843 188.124C283.843 189.023 283.113 189.752 282.213 189.752C281.313 189.752 280.583 189.023 280.583 188.124C280.583 187.225 281.313 186.496 282.213 186.496C283.113 186.497 283.843 187.226 283.843 188.124Z" stroke="#5069FF" stroke-width="0.73183" stroke-miterlimit="10"/>
<path d="M295.658 230.106C295.658 231.853 294.241 233.269 292.492 233.269C290.743 233.269 289.325 231.853 289.325 230.106C289.325 228.359 290.743 226.943 292.492 226.943C294.241 226.943 295.658 228.359 295.658 230.106Z" stroke="#5069FF" stroke-width="0.73183" stroke-miterlimit="10"/>
<path d="M40.0429 293.489C36.0325 294.538 17.8985 297.544 18.189 283.116C18.3368 275.746 16.1867 276.015 11.8631 273.127C7.53942 270.239 7.64407 268.392 8.02316 264.268C8.40225 260.145 4.28717 262.142 1.54573 256.719C-1.73359 250.232 2.21463 245.393 8.5874 244.228C14.9594 243.063 14.7743 249.928 17.3072 251.974C19.84 254.021 23.3418 249.621 28.2078 255.587C31.3846 259.482 26.4521 268.368 31.1248 267.539" fill="white"/>
<path d="M40.0429 293.489C36.0325 294.538 17.8985 297.544 18.189 283.116C18.3368 275.746 16.1867 276.015 11.8631 273.127C7.53942 270.239 7.64407 268.392 8.02316 264.268C8.40225 260.145 4.28717 262.142 1.54573 256.719C-1.73359 250.232 2.21463 245.393 8.5874 244.228C14.9594 243.063 14.7743 249.928 17.3072 251.974C19.84 254.021 23.3418 249.621 28.2078 255.587C31.3846 259.482 26.4521 268.368 31.1248 267.539" stroke="#5069FF" stroke-width="0.73183" stroke-miterlimit="10"/>
<path d="M31.6876 280.642C25.4612 272.24 18.8857 264.098 12.016 256.212C11.5513 255.679 10.7778 256.457 11.2395 256.988C18.0478 264.803 24.5691 272.869 30.7392 281.196C31.1556 281.757 32.1084 281.21 31.6876 280.642Z" fill="#5069FF"/>
<path d="M21.1089 255.833C20.8791 259.267 20.6493 262.701 20.4195 266.134C20.3873 266.62 20.3544 267.104 20.3222 267.59C20.5051 267.407 20.6881 267.224 20.871 267.042C17.7169 267.302 14.5627 267.563 11.4085 267.824C10.7096 267.882 10.703 268.979 11.4085 268.921C14.5627 268.66 17.7169 268.399 20.871 268.138C21.1821 268.112 21.3987 267.907 21.4199 267.59C21.6497 264.156 21.8795 260.723 22.1093 257.289C22.1415 256.804 22.1744 256.319 22.2066 255.833C22.2542 255.13 21.1565 255.132 21.1089 255.833Z" fill="#5069FF"/>
<path d="M8.45898 294.48H325.622" stroke="#161522" stroke-width="0.73183" stroke-miterlimit="10"/>
</g>
<path d="M224.722 247.969L221.546 265.265L232.597 268.745L237.099 249.443L224.722 247.969Z" fill="#A66957"/>
<path d="M195.118 286.71L235.858 286.517L237.374 262.756L217.784 263.677L215.186 273.231L195.118 286.71Z" fill="#160047"/>
<path d="M206.631 276.723C207.368 278.346 208.107 279.97 208.844 281.593C208.95 281.825 209.056 282.057 209.161 282.29C209.263 282.514 209.589 282.569 209.787 282.453C210.018 282.318 210.053 282.053 209.951 281.828C209.213 280.205 208.475 278.582 207.737 276.958C207.632 276.726 207.526 276.493 207.42 276.262C207.319 276.037 206.992 275.982 206.795 276.098C206.563 276.232 206.528 276.497 206.631 276.723Z" fill="white"/>
<path d="M210.37 274.662C211.108 276.286 211.846 277.909 212.584 279.532C212.689 279.765 212.795 279.997 212.901 280.229C213.002 280.453 213.329 280.508 213.526 280.393C213.758 280.257 213.793 279.993 213.69 279.768C212.953 278.144 212.214 276.521 211.476 274.898C211.371 274.665 211.265 274.433 211.16 274.201C211.057 273.977 210.731 273.922 210.534 274.037C210.303 274.173 210.267 274.437 210.37 274.662Z" fill="white"/>
<path d="M227.889 286.555C227.286 285.443 226.96 284.164 227.018 282.811C227.19 278.82 230.581 275.714 234.576 275.886C234.86 275.898 236.128 276.033 236.403 276.077L236.296 276.592C236.008 276.541 234.855 276.386 234.555 276.372C230.828 276.212 227.665 279.111 227.505 282.832C227.447 284.187 227.798 285.465 228.443 286.553L227.889 286.555Z" fill="#F0F0F0"/>
<path d="M285.867 247.969L289.043 265.265L277.992 268.745L273.489 249.443L285.867 247.969Z" fill="#A66957"/>
<path d="M315.471 286.71L274.73 286.517L273.215 262.756L292.804 263.677L295.402 273.231L315.471 286.71Z" fill="#160047"/>
<path d="M303.169 276.262C302.431 277.885 301.693 279.508 300.955 281.132C300.85 281.364 300.744 281.596 300.638 281.828C300.537 282.053 300.574 282.32 300.802 282.453C300.999 282.568 301.326 282.515 301.428 282.29C302.166 280.666 302.904 279.043 303.642 277.419C303.747 277.187 303.853 276.954 303.959 276.723C304.06 276.498 304.023 276.232 303.795 276.098C303.598 275.983 303.272 276.036 303.169 276.262Z" fill="white"/>
<path d="M299.429 274.201C298.691 275.824 297.953 277.448 297.215 279.071C297.11 279.303 297.004 279.535 296.898 279.768C296.797 279.992 296.834 280.259 297.062 280.393C297.258 280.507 297.585 280.455 297.688 280.229C298.426 278.605 299.164 276.982 299.902 275.359C300.007 275.126 300.113 274.894 300.219 274.662C300.32 274.438 300.283 274.171 300.055 274.037C299.858 273.922 299.531 273.976 299.429 274.201Z" fill="white"/>
<path d="M282.7 286.555C283.303 285.443 283.628 284.164 283.57 282.811C283.398 278.82 280.007 275.714 276.012 275.886C275.728 275.898 274.46 276.033 274.186 276.077L274.292 276.592C274.58 276.541 275.733 276.386 276.033 276.372C279.76 276.212 282.923 279.111 283.083 282.832C283.142 284.187 282.79 285.465 282.146 286.553L282.7 286.555Z" fill="#F0F0F0"/>
<path d="M252.226 164.002L250.212 256.075L217.428 254.692L228.51 125.979L250.486 128.964L252.226 164.002Z" fill="#7567F5"/>
<path d="M250.486 128.963L252.226 164.001L250.212 256.074L217.428 254.691" stroke="#161522" stroke-width="0.548872" stroke-miterlimit="10" stroke-linecap="round"/>
<path d="M218.174 246.035L250.4 247.506" stroke="#161522" stroke-width="0.548872" stroke-miterlimit="10" stroke-linecap="round"/>
<path d="M243.836 153.549H251.189L264.469 256.076H295.166L272.461 126.619H242.76" fill="#7567F5"/>
<path d="M243.836 153.549H251.189L264.469 256.076H295.166" stroke="#161522" stroke-width="0.548872" stroke-miterlimit="10" stroke-linecap="round"/>
<path d="M263.475 248.399L293.982 247.971" stroke="#161522" stroke-width="0.548872" stroke-miterlimit="10" stroke-linecap="round"/>
<path d="M237.815 93.9747C237.815 93.9747 226.242 117.788 211.937 117.823C197.631 117.859 189.007 109.925 185.928 94.6033C182.849 79.2816 184.538 71.0864 187.936 67.5341C192.517 62.7443 199.226 62.2597 202.72 67.5341C206.215 72.8085 212.6 82.445 212.6 82.445C212.6 82.445 220.508 76.9799 224.309 76.3849C228.11 75.7892 239.294 87.6317 237.815 93.9747Z" fill="white"/>
<path d="M237.815 93.9747C237.815 93.9747 226.242 117.788 211.937 117.823C197.631 117.859 189.007 109.925 185.928 94.6033C182.849 79.2816 184.538 71.0864 187.936 67.5341C192.517 62.7443 199.226 62.2597 202.72 67.5341C206.215 72.8085 212.6 82.445 212.6 82.445" stroke="#7567F5" stroke-width="0.548872" stroke-miterlimit="10" stroke-linecap="round"/>
<path d="M213.336 93.3259C214.776 92.4693 216.217 91.6119 217.657 90.7552C217.985 90.5594 218.135 90.0886 217.92 89.7553C217.706 89.425 217.27 89.2839 216.918 89.4929C215.478 90.3496 214.038 91.207 212.598 92.0636C212.269 92.2595 212.12 92.7302 212.335 93.0635C212.549 93.3939 212.984 93.535 213.336 93.3259Z" fill="#7567F5"/>
<path d="M218.905 100.236C218.619 101.918 218.418 103.614 218.308 105.317C218.283 105.699 218.662 106.065 219.04 106.048C219.458 106.03 219.745 105.727 219.771 105.317C219.873 103.738 220.052 102.179 220.317 100.625C220.38 100.249 220.217 99.8191 219.806 99.7256C219.451 99.6444 218.973 99.8323 218.905 100.236Z" fill="#7567F5"/>
<path d="M212.149 112.821C211.128 111.256 210.231 109.614 209.47 107.907C209.309 107.546 208.783 107.461 208.468 107.644C208.097 107.861 208.044 108.283 208.206 108.644C208.968 110.35 209.863 111.993 210.886 113.558C211.102 113.889 211.534 114.027 211.887 113.821C212.215 113.629 212.366 113.153 212.149 112.821Z" fill="#7567F5"/>
<path d="M204.11 96.9014C205.223 98.0921 206.336 99.2828 207.448 100.473C207.71 100.753 208.222 100.758 208.483 100.473C208.759 100.174 208.763 99.7389 208.483 99.4399C207.371 98.2492 206.258 97.0585 205.145 95.8679C204.883 95.5879 204.372 95.5835 204.11 95.8679C203.834 96.1675 203.832 96.6024 204.11 96.9014Z" fill="#7567F5"/>
<path d="M196.687 107.509C197.982 106.045 199.202 104.515 200.345 102.93C200.57 102.619 200.41 102.103 200.082 101.931C199.704 101.731 199.321 101.86 199.081 102.193C198.007 103.682 196.89 105.076 195.653 106.476C195.399 106.762 195.349 107.231 195.653 107.509C195.93 107.763 196.417 107.815 196.687 107.509Z" fill="#7567F5"/>
<path d="M202.696 76.3859C202.771 77.9735 202.845 79.561 202.919 81.1493C202.937 81.5309 203.243 81.8986 203.651 81.8803C204.032 81.8635 204.402 81.5587 204.383 81.1493C204.308 79.5618 204.234 77.9742 204.16 76.3859C204.141 76.0043 203.835 75.6367 203.428 75.655C203.047 75.6718 202.677 75.9766 202.696 76.3859Z" fill="#7567F5"/>
<path d="M195.914 90.4325C196.65 91.9499 197.387 93.4673 198.123 94.984C198.29 95.329 198.81 95.4489 199.124 95.2464C199.478 95.0184 199.565 94.6156 199.387 94.2465C198.65 92.7291 197.914 91.2117 197.178 89.695C197.01 89.35 196.491 89.2301 196.177 89.4326C195.823 89.6607 195.736 90.0634 195.914 90.4325Z" fill="#7567F5"/>
<path d="M194.593 82.2645C196.196 83.2761 197.798 84.2877 199.4 85.2993C199.735 85.5106 200.207 85.3695 200.402 85.0369C200.607 84.6853 200.474 84.2483 200.139 84.037C198.536 83.0254 196.934 82.0138 195.331 81.0022C194.997 80.7909 194.525 80.932 194.33 81.2646C194.125 81.6162 194.258 82.0525 194.593 82.2645Z" fill="#7567F5"/>
<path d="M190.445 96.1088C190.594 95.008 190.866 93.9291 191.258 92.8897C191.394 92.5316 191.108 92.0726 190.747 91.9907C190.331 91.8957 189.992 92.1171 189.847 92.5009C189.455 93.5403 189.183 94.6191 189.034 95.7199C189.006 95.9238 188.999 96.0971 189.108 96.2835C189.197 96.4355 189.371 96.5795 189.546 96.6197C189.888 96.6972 190.39 96.5137 190.445 96.1088Z" fill="#7567F5"/>
<path d="M185.656 80.1897C186.648 81.6464 187.711 83.0542 188.837 84.41C189.082 84.7053 189.621 84.6827 189.872 84.41C190.161 84.0957 190.134 83.6915 189.872 83.3765C189.608 83.0593 189.348 82.7399 189.092 82.4168C189.029 82.3364 188.964 82.2553 188.901 82.1741C188.87 82.1339 188.838 82.093 188.806 82.0521C188.793 82.0353 188.733 81.9578 188.778 82.017C188.644 81.8438 188.512 81.6698 188.38 81.4944C187.877 80.8248 187.391 80.1436 186.92 79.4522C186.704 79.1364 186.266 78.9661 185.918 79.1897C185.604 79.3915 185.426 79.8512 185.656 80.1897Z" fill="#7567F5"/>
<path d="M190.399 76.4527C190.985 74.7511 191.446 73.0108 191.78 71.2427C191.853 70.8553 191.673 70.454 191.269 70.3436C190.912 70.2457 190.442 70.4642 190.369 70.8538C190.035 72.6219 189.574 74.363 188.988 76.0639C188.859 76.4374 189.135 76.8635 189.5 76.9629C189.901 77.0733 190.27 76.8277 190.399 76.4527Z" fill="#7567F5"/>
<path d="M195.311 69.3586C196.255 70.9126 197.198 72.4672 198.141 74.0212C198.34 74.3479 198.807 74.5 199.142 74.2836C199.471 74.0716 199.617 73.6338 199.405 73.2837C198.462 71.7297 197.518 70.175 196.575 68.6211C196.377 68.2944 195.91 68.1423 195.574 68.3587C195.245 68.5699 195.099 69.0085 195.311 69.3586Z" fill="#7567F5"/>
<path d="M294.064 99.9423C282.77 105.283 282.111 115.438 283.489 118.96C284.867 122.481 286.283 124.963 296.1 125.195C305.917 125.428 312.271 120.557 312.586 110.486C312.901 100.414 303.45 88.0522 293.962 81.5609C284.475 75.0687 268.879 62.6919 252.5 63.5654C236.122 64.4388 217.427 79.3907 217.427 79.3907L276.805 101.584C276.805 101.584 284.296 105.76 285.021 107.443" fill="white"/>
<path d="M294.064 99.9423C282.77 105.283 282.111 115.438 283.489 118.96C284.867 122.481 286.283 124.963 296.1 125.195C305.917 125.428 312.271 120.557 312.586 110.486C312.901 100.414 303.45 88.0522 293.962 81.5609C284.475 75.0687 268.879 62.6919 252.5 63.5654C236.122 64.4388 217.427 79.3907 217.427 79.3907L208.123 86.0283" stroke="#7567F5" stroke-width="0.548872" stroke-miterlimit="10" stroke-linecap="round"/>
<path d="M276.805 101.584C276.805 101.584 284.296 105.76 285.022 107.443" stroke="#7567F5" stroke-width="0.548872" stroke-miterlimit="10" stroke-linecap="round"/>
<path d="M284.626 88.0205C284.419 89.38 284.213 90.7403 284.006 92.0998C283.949 92.4762 284.1 92.9038 284.517 92.9988C284.866 93.0785 285.356 92.8929 285.417 92.4887C285.625 91.1291 285.831 89.7689 286.038 88.4093C286.095 88.0329 285.944 87.6053 285.527 87.5103C285.178 87.4306 284.688 87.6163 284.626 88.0205Z" fill="#7567F5"/>
<path d="M284.276 102.895C284.437 102.061 284.598 101.228 284.759 100.395C284.796 100.2 284.788 100.008 284.685 99.8314C284.596 99.6801 284.422 99.5354 284.247 99.4952C283.886 99.4134 283.425 99.6041 283.347 100.005C283.187 100.839 283.026 101.672 282.865 102.504C282.827 102.7 282.836 102.891 282.939 103.068C283.028 103.219 283.202 103.364 283.377 103.404C283.738 103.488 284.199 103.296 284.276 102.895Z" fill="#7567F5"/>
<path d="M292.136 86.222C292.433 88.0588 292.788 89.8861 293.204 91.7003C293.293 92.0855 293.735 92.3121 294.104 92.2112C294.5 92.1023 294.704 91.6981 294.616 91.3121C294.2 89.498 293.844 87.6714 293.548 85.8338C293.485 85.4435 292.999 85.2272 292.648 85.3236C292.232 85.4369 292.073 85.8309 292.136 86.222Z" fill="#7567F5"/>
<path d="M291.18 104.796C291.564 106.386 291.948 107.978 292.332 109.568C292.425 109.952 292.859 110.181 293.232 110.079C293.624 109.971 293.836 109.565 293.743 109.18C293.359 107.589 292.975 105.998 292.591 104.408C292.498 104.024 292.063 103.795 291.691 103.897C291.299 104.005 291.087 104.411 291.18 104.796Z" fill="#7567F5"/>
<path d="M295.243 118.934C297.068 117.73 298.799 116.38 300.41 114.901C300.701 114.633 300.681 114.138 300.41 113.867C300.12 113.578 299.667 113.599 299.375 113.867C297.85 115.267 296.232 116.532 294.504 117.673C294.175 117.89 294.035 118.319 294.242 118.673C294.433 118.999 294.911 119.153 295.243 118.934Z" fill="#7567F5"/>
<path d="M301.283 105.627C301.835 103.959 302.388 102.291 302.941 100.623C303.065 100.248 302.797 99.8245 302.43 99.7236C302.032 99.614 301.654 99.8581 301.53 100.235C300.977 101.903 300.425 103.571 299.872 105.239C299.747 105.613 300.016 106.037 300.382 106.138C300.781 106.247 301.158 106.003 301.283 105.627Z" fill="#7567F5"/>
<path d="M305.493 108.643C305.915 109.143 306.329 109.649 306.733 110.164C306.783 110.227 306.832 110.29 306.881 110.354C306.891 110.366 306.97 110.469 306.917 110.399C306.863 110.33 306.942 110.433 306.952 110.445C307.05 110.572 307.148 110.7 307.244 110.829C307.444 111.094 307.642 111.361 307.837 111.629C307.953 111.788 308.079 111.911 308.275 111.966C308.45 112.014 308.683 111.992 308.839 111.892C309.145 111.694 309.343 111.222 309.102 110.892C308.284 109.768 307.426 108.672 306.528 107.609C306.28 107.316 305.745 107.335 305.493 107.609C305.206 107.921 305.228 108.33 305.493 108.643Z" fill="#7567F5"/>
<path d="M302.482 118.016C302.62 118.926 302.758 119.836 302.895 120.746C302.921 120.915 303.091 121.1 303.232 121.183C303.388 121.274 303.62 121.314 303.795 121.257C303.972 121.2 304.144 121.09 304.233 120.921C304.331 120.736 304.338 120.563 304.307 120.357C304.169 119.447 304.032 118.537 303.894 117.627C303.869 117.458 303.699 117.272 303.558 117.19C303.401 117.099 303.17 117.06 302.993 117.116C302.816 117.173 302.646 117.283 302.556 117.452C302.458 117.638 302.451 117.81 302.482 118.016Z" fill="#7567F5"/>
<path d="M299.514 94.7964C299.714 93.9237 299.915 93.051 300.115 92.1783C300.201 91.8062 300.001 91.3691 299.604 91.2792C299.232 91.1944 298.796 91.391 298.704 91.7894C298.504 92.6621 298.303 93.5349 298.103 94.4076C298.017 94.7796 298.217 95.2167 298.613 95.3066C298.986 95.3914 299.421 95.1948 299.514 94.7964Z" fill="#7567F5"/>
<path d="M289.904 97.5665C290.619 97.7645 291.335 97.9633 292.05 98.1614C292.419 98.2638 292.862 98.035 292.95 97.6512C293.039 97.2638 292.834 96.8618 292.439 96.7522C291.724 96.5541 291.009 96.3553 290.294 96.1572C289.925 96.0549 289.481 96.2837 289.393 96.6674C289.305 97.0548 289.51 97.4568 289.904 97.5665Z" fill="#7567F5"/>
<path d="M172.751 51.249C172.751 51.249 171.425 50.5474 172.196 48.9993C172.966 47.4511 179.887 44.9009 182.174 43.901C184.462 42.9011 185.305 44.1174 186.438 44.8914C187.571 45.6655 190.714 48.2471 191.467 49.6651C192.22 51.0831 195.081 61.9469 195.498 64.5812C195.915 67.2162 188.607 69.6093 188.607 69.6093C188.607 69.6093 185.206 63.3942 183.642 61.292C182.078 59.1899 179.611 56.5666 179.611 56.5666C179.611 56.5666 179.232 56.6923 178.334 56.5666C177.437 56.4408 177.084 56.0366 177.327 55.0755C177.327 55.0755 175.53 55.7596 174.885 54.7305C174.241 53.7013 175.299 52.5063 175.892 52.0925C175.892 52.0925 175.414 51.7022 175.043 51.681C174.672 51.6598 173.162 51.5041 172.751 51.249Z" fill="#A66957"/>
<path d="M188.435 69.1811C188.435 69.1811 184.599 62.0516 181.616 58.6397C178.634 55.2277 174.283 50.8121 174.955 50.0805C175.628 49.3488 175.894 48.767 179.612 50.9561C183.33 53.1453 184.376 54.1247 185.397 53.0912C186.418 52.0569 183.177 48.5996 183.177 48.5996L178.496 50.3114" stroke="#7F4040" stroke-width="0.548872" stroke-miterlimit="10" stroke-linecap="round"/>
<path d="M172.196 50.7578C172.196 50.7578 173.193 52.1776 175.46 51.5014" stroke="#7F4040" stroke-width="0.548872" stroke-miterlimit="10" stroke-linecap="round"/>
<path d="M209.914 134.473H139.038C137.268 134.473 135.833 133.041 135.833 131.273V88.1382C135.833 86.3701 137.268 84.9375 139.038 84.9375H209.914C211.684 84.9375 213.119 86.3709 213.119 88.1382V131.273C213.119 133.041 211.684 134.473 209.914 134.473Z" fill="#EB3341"/>
<path d="M147.291 90.6883C147.291 91.9353 146.534 92.9454 145.286 92.9454C144.038 92.9454 143.026 91.9353 143.026 90.6883C143.026 89.4421 144.038 88.6855 145.286 88.6855C146.535 88.6855 147.291 89.4421 147.291 90.6883Z" fill="#160047"/>
<path d="M205.402 90.6883C205.402 91.9353 204.644 92.9454 203.396 92.9454C202.147 92.9454 201.137 91.9353 201.137 90.6883C201.137 89.4421 202.148 88.6855 203.396 88.6855C204.644 88.6855 205.402 89.4421 205.402 90.6883Z" fill="#160047"/>
<path d="M145.159 90.8148L175.243 51.8613L203.269 90.8148" stroke="#160047" stroke-width="0.73183" stroke-miterlimit="10" stroke-linecap="round" stroke-linejoin="round"/>
<path d="M156.124 108.027C155.57 108.027 155.055 107.938 154.577 107.761C154.105 107.576 153.695 107.317 153.347 106.982C152.999 106.648 152.726 106.255 152.527 105.804C152.336 105.353 152.241 104.858 152.241 104.318C152.241 103.779 152.336 103.284 152.527 102.833C152.726 102.382 152.999 101.989 153.347 101.654C153.702 101.32 154.116 101.064 154.587 100.886C155.058 100.702 155.574 100.609 156.134 100.609C156.755 100.609 157.316 100.719 157.814 100.937C158.32 101.149 158.743 101.463 159.085 101.88L158.019 102.863C157.773 102.583 157.5 102.375 157.199 102.238C156.899 102.095 156.571 102.023 156.216 102.023C155.881 102.023 155.574 102.078 155.294 102.187C155.014 102.297 154.771 102.454 154.566 102.659C154.361 102.863 154.201 103.106 154.085 103.386C153.976 103.666 153.921 103.977 153.921 104.318C153.921 104.66 153.976 104.971 154.085 105.251C154.201 105.531 154.361 105.773 154.566 105.978C154.771 106.183 155.014 106.34 155.294 106.449C155.574 106.559 155.881 106.613 156.216 106.613C156.571 106.613 156.899 106.545 157.199 106.408C157.5 106.265 157.773 106.05 158.019 105.763L159.085 106.747C158.743 107.163 158.32 107.481 157.814 107.699C157.316 107.918 156.752 108.027 156.124 108.027ZM163.539 108.027C162.972 108.027 162.446 107.935 161.961 107.751C161.483 107.566 161.066 107.307 160.711 106.972C160.363 106.637 160.09 106.245 159.891 105.794C159.7 105.343 159.605 104.851 159.605 104.318C159.605 103.786 159.7 103.294 159.891 102.843C160.09 102.392 160.366 101.999 160.721 101.665C161.077 101.33 161.493 101.07 161.971 100.886C162.449 100.702 162.969 100.609 163.529 100.609C164.096 100.609 164.615 100.702 165.086 100.886C165.564 101.07 165.977 101.33 166.326 101.665C166.681 101.999 166.958 102.392 167.156 102.843C167.354 103.287 167.453 103.779 167.453 104.318C167.453 104.851 167.354 105.346 167.156 105.804C166.958 106.255 166.681 106.648 166.326 106.982C165.977 107.31 165.564 107.566 165.086 107.751C164.615 107.935 164.099 108.027 163.539 108.027ZM163.529 106.613C163.85 106.613 164.143 106.559 164.41 106.449C164.683 106.34 164.922 106.183 165.127 105.978C165.332 105.773 165.489 105.531 165.598 105.251C165.714 104.971 165.772 104.66 165.772 104.318C165.772 103.977 165.714 103.666 165.598 103.386C165.489 103.106 165.332 102.863 165.127 102.659C164.929 102.454 164.693 102.297 164.42 102.187C164.147 102.078 163.85 102.023 163.529 102.023C163.208 102.023 162.911 102.078 162.637 102.187C162.371 102.297 162.135 102.454 161.93 102.659C161.725 102.863 161.565 103.106 161.449 103.386C161.34 103.666 161.285 103.977 161.285 104.318C161.285 104.653 161.34 104.964 161.449 105.251C161.565 105.531 161.722 105.773 161.92 105.978C162.125 106.183 162.364 106.34 162.637 106.449C162.911 106.559 163.208 106.613 163.529 106.613ZM168.7 107.904V100.732H170.073L173.126 105.794H172.399L175.401 100.732H176.763L176.784 107.904H175.227L175.216 103.12H175.503L173.106 107.146H172.358L169.909 103.12H170.257V107.904H168.7ZM178.486 107.904V100.732H180.145V107.904H178.486ZM181.847 107.904V100.732H183.22L187.452 105.896H186.786V100.732H188.425V107.904H187.062L182.821 102.741H183.487V107.904H181.847ZM193.585 108.027C193.018 108.027 192.495 107.938 192.017 107.761C191.546 107.576 191.133 107.317 190.778 106.982C190.429 106.648 190.156 106.255 189.958 105.804C189.767 105.353 189.671 104.858 189.671 104.318C189.671 103.779 189.767 103.284 189.958 102.833C190.156 102.382 190.433 101.989 190.788 101.654C191.143 101.32 191.56 101.064 192.038 100.886C192.516 100.702 193.042 100.609 193.616 100.609C194.251 100.609 194.821 100.715 195.327 100.927C195.839 101.139 196.269 101.446 196.618 101.849L195.552 102.833C195.293 102.559 195.009 102.358 194.702 102.228C194.394 102.092 194.06 102.023 193.698 102.023C193.349 102.023 193.032 102.078 192.745 102.187C192.458 102.297 192.209 102.454 191.997 102.659C191.792 102.863 191.631 103.106 191.515 103.386C191.406 103.666 191.351 103.977 191.351 104.318C191.351 104.653 191.406 104.96 191.515 105.24C191.631 105.52 191.792 105.766 191.997 105.978C192.209 106.183 192.454 106.34 192.735 106.449C193.021 106.559 193.336 106.613 193.677 106.613C194.005 106.613 194.323 106.562 194.63 106.46C194.944 106.35 195.248 106.169 195.542 105.917L196.484 107.115C196.095 107.409 195.641 107.634 195.122 107.792C194.609 107.949 194.097 108.027 193.585 108.027ZM194.968 106.9V104.206H196.484V107.115L194.968 106.9ZM161.667 120.027C161.093 120.027 160.543 119.952 160.017 119.802C159.491 119.645 159.068 119.443 158.747 119.197L159.31 117.947C159.617 118.166 159.979 118.347 160.396 118.49C160.82 118.627 161.246 118.695 161.677 118.695C162.005 118.695 162.268 118.665 162.466 118.603C162.671 118.535 162.821 118.443 162.916 118.326C163.012 118.21 163.06 118.077 163.06 117.927C163.06 117.736 162.985 117.585 162.835 117.476C162.684 117.36 162.486 117.268 162.24 117.199C161.994 117.124 161.721 117.056 161.421 116.995C161.127 116.926 160.83 116.844 160.529 116.749C160.236 116.653 159.966 116.53 159.72 116.38C159.474 116.23 159.272 116.031 159.115 115.786C158.965 115.54 158.89 115.225 158.89 114.843C158.89 114.433 158.999 114.061 159.218 113.726C159.443 113.385 159.778 113.115 160.222 112.917C160.673 112.712 161.236 112.609 161.912 112.609C162.363 112.609 162.807 112.664 163.244 112.773C163.681 112.876 164.067 113.033 164.402 113.245L163.89 114.505C163.555 114.314 163.22 114.174 162.886 114.085C162.551 113.989 162.223 113.941 161.902 113.941C161.581 113.941 161.318 113.979 161.113 114.054C160.908 114.129 160.761 114.228 160.673 114.351C160.584 114.467 160.539 114.604 160.539 114.761C160.539 114.945 160.615 115.096 160.765 115.212C160.915 115.321 161.113 115.41 161.359 115.478C161.605 115.546 161.875 115.615 162.169 115.683C162.469 115.751 162.766 115.83 163.06 115.919C163.36 116.008 163.634 116.127 163.88 116.277C164.125 116.428 164.324 116.626 164.474 116.872C164.631 117.117 164.709 117.428 164.709 117.804C164.709 118.207 164.597 118.576 164.371 118.91C164.146 119.245 163.808 119.515 163.357 119.72C162.913 119.925 162.35 120.027 161.667 120.027ZM169.327 120.027C168.76 120.027 168.234 119.935 167.749 119.751C167.271 119.566 166.854 119.307 166.499 118.972C166.151 118.637 165.878 118.245 165.68 117.794C165.488 117.343 165.393 116.851 165.393 116.318C165.393 115.786 165.488 115.294 165.68 114.843C165.878 114.392 166.154 113.999 166.51 113.665C166.865 113.33 167.281 113.07 167.76 112.886C168.238 112.702 168.757 112.609 169.317 112.609C169.884 112.609 170.403 112.702 170.874 112.886C171.352 113.07 171.766 113.33 172.114 113.665C172.469 113.999 172.746 114.392 172.944 114.843C173.142 115.287 173.241 115.779 173.241 116.318C173.241 116.851 173.142 117.346 172.944 117.804C172.746 118.255 172.469 118.648 172.114 118.982C171.766 119.31 171.352 119.566 170.874 119.751C170.403 119.935 169.887 120.027 169.327 120.027ZM169.317 118.613C169.638 118.613 169.932 118.559 170.198 118.449C170.471 118.34 170.71 118.183 170.915 117.978C171.12 117.773 171.277 117.531 171.386 117.251C171.503 116.971 171.561 116.66 171.561 116.318C171.561 115.977 171.503 115.666 171.386 115.386C171.277 115.106 171.12 114.863 170.915 114.659C170.717 114.454 170.481 114.297 170.208 114.187C169.935 114.078 169.638 114.023 169.317 114.023C168.996 114.023 168.699 114.078 168.425 114.187C168.159 114.297 167.923 114.454 167.719 114.659C167.514 114.863 167.353 115.106 167.237 115.386C167.128 115.666 167.073 115.977 167.073 116.318C167.073 116.653 167.128 116.964 167.237 117.251C167.353 117.531 167.51 117.773 167.708 117.978C167.913 118.183 168.152 118.34 168.425 118.449C168.699 118.559 168.996 118.613 169.317 118.613ZM177.972 120.027C177.405 120.027 176.879 119.935 176.394 119.751C175.916 119.566 175.499 119.307 175.144 118.972C174.796 118.637 174.522 118.245 174.324 117.794C174.133 117.343 174.038 116.851 174.038 116.318C174.038 115.786 174.133 115.294 174.324 114.843C174.522 114.392 174.799 113.999 175.154 113.665C175.509 113.33 175.926 113.07 176.404 112.886C176.882 112.702 177.402 112.609 177.962 112.609C178.529 112.609 179.048 112.702 179.519 112.886C179.997 113.07 180.41 113.33 180.759 113.665C181.114 113.999 181.39 114.392 181.589 114.843C181.787 115.287 181.886 115.779 181.886 116.318C181.886 116.851 181.787 117.346 181.589 117.804C181.39 118.255 181.114 118.648 180.759 118.982C180.41 119.31 179.997 119.566 179.519 119.751C179.048 119.935 178.532 120.027 177.972 120.027ZM177.962 118.613C178.283 118.613 178.576 118.559 178.843 118.449C179.116 118.34 179.355 118.183 179.56 117.978C179.765 117.773 179.922 117.531 180.031 117.251C180.147 116.971 180.205 116.66 180.205 116.318C180.205 115.977 180.147 115.666 180.031 115.386C179.922 115.106 179.765 114.863 179.56 114.659C179.362 114.454 179.126 114.297 178.853 114.187C178.58 114.078 178.283 114.023 177.962 114.023C177.641 114.023 177.343 114.078 177.07 114.187C176.804 114.297 176.568 114.454 176.363 114.659C176.158 114.863 175.998 115.106 175.882 115.386C175.772 115.666 175.718 115.977 175.718 116.318C175.718 116.653 175.772 116.964 175.882 117.251C175.998 117.531 176.155 117.773 176.353 117.978C176.558 118.183 176.797 118.34 177.07 118.449C177.343 118.559 177.641 118.613 177.962 118.613ZM183.133 119.904V112.732H184.506L188.737 117.896H188.071V112.732H189.711V119.904H188.348L184.106 114.741H184.772V119.904H183.133Z" fill="white"/>
<path d="M226.762 111.399V94.4432C226.762 94.4432 232.631 70.1067 248.053 67.1249C263.476 64.1431 270.719 72.7804 274.907 77.7162C279.094 82.652 276.44 110.488 276.303 111.98C276.166 113.473 274.545 124.574 273.987 126.243C273.429 127.913 272.6 129.567 271.469 130.582C270.338 131.597 260.434 133.419 251.306 133.742C242.178 134.065 235.458 129.705 233.343 128.719C231.229 127.732 229.543 126.753 228.229 123.546C226.915 120.34 226.762 111.399 226.762 111.399Z" fill="white"/>
<path d="M242.019 74.2947C242.791 75.6627 243.67 76.9487 244.647 78.1189C244.917 78.4412 245.417 78.4611 245.682 78.1189C245.952 77.7723 245.97 77.2408 245.682 76.8968C245.222 76.3455 244.783 75.7699 244.369 75.1701C244.268 75.0241 244.17 74.8771 244.071 74.7285C244.006 74.6308 244.145 74.8452 244.082 74.7458C244.054 74.7017 244.025 74.6576 243.998 74.6135C243.952 74.5427 243.908 74.4718 243.863 74.4009C243.663 74.0803 243.47 73.7536 243.283 73.4226C243.072 73.0467 242.628 72.8497 242.282 73.1124C241.965 73.3535 241.793 73.8919 242.019 74.2947Z" fill="#7567F5"/>
<path d="M251.363 85.1091C252.558 83.1404 253.753 81.1717 254.947 79.2038C255.178 78.8244 255.003 78.2419 254.684 78.0215C254.316 77.7675 253.914 77.9515 253.683 78.3318C252.488 80.3005 251.293 82.2692 250.099 84.2371C249.868 84.6165 250.042 85.199 250.361 85.4193C250.729 85.6734 251.131 85.4893 251.363 85.1091Z" fill="#7567F5"/>
<path d="M260.128 75.0076C260.871 76.2382 261.672 77.4205 262.53 78.5405C262.788 78.8767 263.306 78.8724 263.565 78.5405C263.844 78.181 263.839 77.6772 263.565 77.3185C263.162 76.7931 262.772 76.2555 262.396 75.7041C262.306 75.5728 262.217 75.4397 262.129 75.3066C262.107 75.2738 262.085 75.2401 262.063 75.2064C261.999 75.1113 262.141 75.3273 262.079 75.2305C262.03 75.1554 261.981 75.0793 261.933 75.0041C261.749 74.7172 261.569 74.4277 261.393 74.1347C261.279 73.9472 261.149 73.8011 260.955 73.738C260.78 73.681 260.547 73.7069 260.391 73.8253C260.082 74.0604 259.89 74.6143 260.128 75.0076Z" fill="#7567F5"/>
<path d="M227.889 84.5788C228.877 85.5381 229.909 86.4343 230.986 87.2527C231.308 87.4981 231.808 87.3434 231.987 86.9424C232.179 86.5129 232.068 86.022 231.724 85.7602C231.22 85.3773 230.725 84.978 230.241 84.5615C230.121 84.4586 230.003 84.3558 229.884 84.2512C229.825 84.1985 229.766 84.1466 229.708 84.0939C229.679 84.068 229.649 84.0412 229.62 84.0144C229.606 84.0015 229.508 83.9133 229.584 83.9824C229.661 84.0516 229.563 83.9626 229.549 83.9496C229.52 83.9228 229.491 83.896 229.462 83.8692C229.404 83.8156 229.346 83.7612 229.289 83.7067C229.166 83.5909 229.044 83.4743 228.923 83.3567C228.769 83.2072 228.613 83.1035 228.406 83.1035C228.227 83.1035 228.012 83.1977 227.889 83.3567C227.642 83.6739 227.572 84.2728 227.889 84.5788Z" fill="#7567F5"/>
<path d="M269.967 97.5274C271.523 95.4265 273.123 93.3713 274.766 91.3655C275.041 91.0301 275.049 90.477 274.766 90.1434C274.49 89.8168 274.007 89.8064 273.731 90.1434C272.088 92.1502 270.489 94.2045 268.932 96.3054C268.672 96.6563 268.639 97.1817 268.932 97.5274C269.197 97.8411 269.706 97.8809 269.967 97.5274Z" fill="#7567F5"/>
<path d="M271.715 79.3782C272.509 80.3642 273.303 81.3512 274.097 82.3373C274.361 82.6657 274.869 82.6752 275.132 82.3373C275.406 81.9847 275.414 81.4653 275.132 81.1153C274.338 80.1292 273.544 79.1422 272.75 78.1561C272.486 77.8277 271.978 77.8182 271.715 78.1561C271.441 78.5087 271.433 79.0281 271.715 79.3782Z" fill="#7567F5"/>
<path d="M270.3 107.401C271.5 108.469 272.699 109.537 273.899 110.604C274.205 110.877 274.73 110.674 274.9 110.294C275.103 109.839 274.965 109.403 274.637 109.112C273.438 108.044 272.238 106.976 271.039 105.909C270.732 105.636 270.207 105.839 270.038 106.219C269.834 106.674 269.973 107.109 270.3 107.401Z" fill="#7567F5"/>
<path d="M257.461 89.4881C257.49 91.0826 257.52 92.6771 257.55 94.2724C257.558 94.7244 257.88 95.1574 258.281 95.1367C258.671 95.1159 259.022 94.7564 259.013 94.2724C258.984 92.6779 258.954 91.0826 258.925 89.4881C258.917 89.0361 258.594 88.6022 258.193 88.6238C257.804 88.6437 257.452 89.0032 257.461 89.4881Z" fill="#7567F5"/>
<path d="M231.894 92.5137C231.912 92.5302 231.93 92.5466 231.949 92.5639C231.901 92.5207 231.897 92.5172 231.938 92.5544C231.974 92.5881 232.011 92.6218 232.047 92.6555C232.129 92.7315 232.21 92.8076 232.291 92.8845C232.453 93.0383 232.614 93.1939 232.774 93.352C233.094 93.6675 233.408 93.9907 233.717 94.3208C234.334 94.982 234.928 95.6716 235.499 96.3881C235.762 96.7182 236.271 96.7251 236.533 96.3881C236.809 96.0346 236.814 95.5178 236.533 95.1661C235.33 93.658 234.022 92.2839 232.631 91.0212C232.326 90.7447 231.798 90.9538 231.63 91.3315C231.426 91.7887 231.568 92.2182 231.894 92.5137Z" fill="#7567F5"/>
<path d="M234.478 81.6618C234.547 81.597 234.616 81.5322 234.685 81.4674C234.719 81.4354 234.755 81.4034 234.79 81.3714C234.729 81.4268 234.732 81.4242 234.799 81.3637C234.939 81.2375 235.08 81.1122 235.222 80.9886C235.507 80.7423 235.795 80.502 236.089 80.2687C236.674 79.8029 237.276 79.3656 237.891 78.9559C238.225 78.7338 238.365 78.1617 238.154 77.7736C237.937 77.3752 237.51 77.2257 237.153 77.4634C235.847 78.3328 234.613 79.3345 233.443 80.4398C233.143 80.7233 233.174 81.3706 233.443 81.6618C233.762 82.0075 234.157 81.9643 234.478 81.6618Z" fill="#7567F5"/>
<path d="M243.558 98.8831C244.211 101.552 244.995 104.173 245.906 106.735C246.058 107.165 246.389 107.474 246.806 107.339C247.149 107.227 247.471 106.709 247.316 106.276C246.406 103.714 245.622 101.093 244.969 98.4242C244.708 97.3578 243.295 97.8115 243.558 98.8831Z" fill="#7567F5"/>
<path d="M230.791 109.683C232.535 107.698 234.385 105.844 236.338 104.151C236.657 103.876 236.815 103.401 236.601 102.969C236.417 102.598 235.92 102.381 235.6 102.659C233.546 104.439 231.591 106.372 229.756 108.461C229.076 109.235 230.113 110.457 230.791 109.683Z" fill="#7567F5"/>
<path d="M229.363 116.725C230.24 117.567 231.116 118.408 231.992 119.25C232.148 119.399 232.302 119.503 232.51 119.503C232.689 119.503 232.904 119.409 233.027 119.25C233.272 118.934 233.345 118.332 233.027 118.028C232.151 117.187 231.275 116.345 230.398 115.503C230.243 115.354 230.088 115.25 229.88 115.25C229.701 115.25 229.487 115.344 229.363 115.503C229.118 115.82 229.046 116.421 229.363 116.725Z" fill="#7567F5"/>
<path d="M262.019 115.692C262.973 113.319 264.044 111.014 265.225 108.788C265.727 107.842 264.461 106.974 263.961 107.916C262.78 110.142 261.709 112.447 260.755 114.82C260.585 115.242 260.656 115.752 261.017 116.002C261.337 116.222 261.849 116.115 262.019 115.692Z" fill="#7567F5"/>
<path d="M255.264 102.16C255.936 103.538 256.684 104.862 257.505 106.122C257.627 106.308 257.741 106.454 257.943 106.519C258.118 106.576 258.351 106.55 258.507 106.432C258.805 106.205 259.019 105.633 258.77 105.25C257.949 103.99 257.201 102.667 256.529 101.288C256.338 100.897 255.858 100.726 255.528 100.978C255.192 101.232 255.06 101.74 255.264 102.16Z" fill="#7567F5"/>
<path d="M242.975 115.005C243.444 115.548 243.887 116.121 244.3 116.724C244.347 116.792 244.393 116.861 244.439 116.929C244.49 117.006 244.504 117.019 244.444 116.935C244.468 116.968 244.489 117.005 244.511 117.039C244.611 117.195 244.71 117.353 244.807 117.514C245 117.834 245.185 118.161 245.362 118.494C245.566 118.876 246.024 119.063 246.363 118.804C246.687 118.557 246.844 118.031 246.626 117.622C245.884 116.23 245.004 114.935 244.01 113.784C243.736 113.468 243.244 113.437 242.975 113.784C242.709 114.125 242.683 114.667 242.975 115.005Z" fill="#7567F5"/>
<path d="M272.516 119.395C273.382 118.12 274.248 116.845 275.114 115.57C275.24 115.385 275.328 115.206 275.328 114.959C275.328 114.748 275.249 114.494 275.114 114.348C274.848 114.06 274.334 113.971 274.079 114.348C273.213 115.623 272.347 116.898 271.481 118.172C271.355 118.357 271.267 118.536 271.267 118.784C271.267 118.995 271.346 119.248 271.481 119.395C271.747 119.682 272.26 119.771 272.516 119.395Z" fill="#7567F5"/>
<path d="M275.478 97.5996C276.485 98.7603 277.535 99.8674 278.626 100.918C278.781 101.068 278.935 101.171 279.143 101.171C279.322 101.171 279.537 101.077 279.66 100.918C279.906 100.602 279.977 100.001 279.66 99.6962C278.57 98.6462 277.52 97.5383 276.514 96.3776C276.239 96.0613 275.748 96.0311 275.479 96.3776C275.212 96.719 275.185 97.2617 275.478 97.5996Z" fill="#7567F5"/>
<path d="M279.774 88.9764C280.806 87.8961 281.838 86.8149 282.87 85.7346C283.158 85.4339 283.15 84.8151 282.87 84.5126C282.564 84.1799 282.142 84.192 281.835 84.5126C280.804 85.5929 279.771 86.6741 278.739 87.7543C278.451 88.0551 278.46 88.6739 278.739 88.9764C279.046 89.3091 279.468 89.297 279.774 88.9764Z" fill="#7567F5"/>
<path d="M227.689 104.59C227.689 104.59 228.104 120.798 229.845 125.067C231.587 129.337 242.078 133.013 252.501 133.517C262.925 134.021 271.189 130.89 271.189 130.89C271.189 130.89 272.368 130.241 272.655 129.871C274.425 127.586 276.439 118.605 276.983 103.646" stroke="#7567F5" stroke-width="0.548872" stroke-miterlimit="10" stroke-linecap="round"/>
<path d="M262.563 65.4884C262.563 68.0146 258.786 70.0628 254.127 70.0628C249.468 70.0628 245.691 68.0146 245.691 65.4884C245.691 62.9623 249.468 60.9141 254.127 60.9141C258.786 60.9141 262.563 62.9623 262.563 65.4884Z" fill="#7567F5"/>
<path d="M219.451 82.5791C219.303 84.7855 219.154 86.9918 219.007 89.1991C218.975 89.6649 219.365 90.0633 219.738 90.0633C220.161 90.0633 220.439 89.6666 220.47 89.1991C220.618 86.9927 220.767 84.7863 220.915 82.5791C220.946 82.1133 220.556 81.7148 220.183 81.7148C219.76 81.7148 219.482 82.1115 219.451 82.5791Z" fill="#7567F5"/>
<path d="M224.825 99.2639C224.883 99.2094 224.941 99.155 225 99.1014C225.027 99.0755 225.22 98.8923 225.071 99.0357C225.185 98.926 225.306 98.824 225.425 98.7203C225.663 98.512 225.903 98.3089 226.146 98.1101C226.633 97.7126 227.131 97.3349 227.639 96.9763C227.968 96.7438 228.117 96.1889 227.902 95.794C227.689 95.4042 227.252 95.2357 226.901 95.4837C225.815 96.2512 224.781 97.1111 223.791 98.0419C223.654 98.1706 223.576 98.4567 223.576 98.6529C223.576 98.8646 223.656 99.1178 223.791 99.2639C223.93 99.4151 224.113 99.5275 224.308 99.5171C224.514 99.5059 224.665 99.4142 224.825 99.2639Z" fill="#7567F5"/>
<path d="M242.158 83.8503C242.158 85.0483 241.186 86.019 239.987 86.019C238.787 86.019 237.815 85.0483 237.815 83.8503C237.815 82.6523 238.787 81.6816 239.987 81.6816C241.186 81.6816 242.158 82.6523 242.158 83.8503Z" fill="#161522"/>
<path d="M265.573 85.8237C266.772 85.8237 267.744 84.8527 267.744 83.655C267.744 82.4573 266.772 81.4863 265.573 81.4863C264.373 81.4863 263.401 82.4573 263.401 83.655C263.401 84.8527 264.373 85.8237 265.573 85.8237Z" fill="#161522"/>
<path d="M240.092 85.4907C239.56 85.4907 239.093 85.1026 239.009 84.561L236.432 67.8066C236.34 67.208 236.751 66.6481 237.35 66.5567C237.947 66.461 238.509 66.8754 238.602 67.4733L241.179 84.2277C241.271 84.8263 240.861 85.3862 240.261 85.4776C240.204 85.4871 240.149 85.4907 240.092 85.4907Z" fill="white" stroke="#161522" stroke-width="0.548872" stroke-miterlimit="10"/>
<path d="M265.602 85.2476C265.506 85.2476 265.408 85.2344 265.311 85.2081C264.726 85.048 264.383 84.4443 264.543 83.8603L269.252 66.7514C269.413 66.1674 270.02 65.8246 270.601 65.9847C271.186 66.1447 271.529 66.7485 271.369 67.3325L266.66 84.4414C266.527 84.9282 266.084 85.2476 265.602 85.2476Z" fill="white" stroke="#161522" stroke-width="0.548872" stroke-miterlimit="10"/>
<path d="M269.952 128.742C268.775 127.887 272.76 124.006 273.843 122.557C272.632 123.844 269.48 127.911 268.346 126.904C266.93 125.646 272.582 119.756 272.582 119.756C270.798 121.253 268.48 124.455 267.418 124.865C266.973 125.037 266.359 124.876 266.486 123.739C266.572 122.964 267.373 121.998 268.017 121.179C271.053 117.32 279.258 113.249 283.005 111.5C283.825 111.118 284.262 111.091 285.421 110.755C287.857 110.05 289.649 112.272 290.627 113.977C291.704 115.855 291.877 118.474 290.511 120.099C287.444 123.744 284.075 124.454 281.768 125.227C275.608 127.292 273.649 131.923 271.887 130.791C270.861 130.131 273.976 125.852 275.428 124.512C273.911 125.692 271.545 129.9 269.952 128.742Z" fill="#A66957"/>
<path d="M273.209 127.539C274.281 125.937 275.545 124.473 276.969 123.173C277.23 122.935 276.842 122.547 276.581 122.786C275.124 124.117 273.833 125.622 272.736 127.263C272.538 127.556 273.014 127.83 273.209 127.539Z" fill="#7F4040"/>
<path d="M271.336 125.867C272.741 124.202 274.231 122.61 275.802 121.1C276.057 120.855 275.669 120.468 275.414 120.713C273.843 122.223 272.352 123.814 270.948 125.48C270.722 125.748 271.109 126.138 271.336 125.867Z" fill="#7F4040"/>
<path d="M270.216 122.75C271.51 120.95 273.125 119.388 274.963 118.148C275.254 117.951 274.98 117.476 274.686 117.674C272.765 118.97 271.095 120.594 269.742 122.473C269.536 122.76 270.012 123.033 270.216 122.75Z" fill="#7F4040"/>
<path d="M259.629 49.628V41.7953C259.629 37.2986 256.393 33.6191 252.438 33.6191H246.49C242.535 33.6191 239.3 37.2986 239.3 41.7953V51.0043C239.3 55.501 242.535 59.1805 246.49 59.1805H248.396V63.0274C248.396 64.9673 249.971 66.5395 251.913 66.5395H256.179C258.122 66.5395 259.697 64.9665 259.697 63.0274V59.7872V58.5358V58.2237V52.6175V50.2938C259.696 50.0658 259.67 49.8443 259.629 49.628Z" fill="#A66957"/>
<path d="M258.798 46.3904C258.798 46.3904 257.453 38.6315 257.09 39.7776C256.574 41.4127 256.635 50.4638 254.877 51.2598C252.551 52.3131 251.695 48.3368 247.009 48.1768C242.323 48.0167 239.63 50.3177 239.174 52.1918C238.719 54.0651 241.133 56.7359 242.605 57.9632C244.45 59.501 249.803 59.1816 249.803 59.1816C249.803 59.1816 254.44 59.4623 256.38 56.7294C258.399 53.8853 258.798 46.3904 258.798 46.3904Z" fill="#161522"/>
<path d="M251.078 44.8059C251.078 45.5456 250.478 46.1449 249.737 46.1449C248.997 46.1449 248.396 45.5456 248.396 44.8059C248.396 44.0662 248.997 43.4668 249.737 43.4668C250.478 43.4668 251.078 44.0662 251.078 44.8059Z" fill="#161522"/>
<path d="M242.3 44.61C242.3 45.2415 241.788 45.7531 241.155 45.7531C240.523 45.7531 240.011 45.2415 240.011 44.61C240.011 43.9784 240.523 43.4668 241.155 43.4668C241.788 43.4675 242.3 43.9792 242.3 44.61Z" fill="#161522"/>
<path d="M249.282 42.4721C249.441 42.4735 249.6 42.4809 249.757 42.497C249.791 42.5006 249.824 42.5043 249.858 42.5087C249.946 42.5189 249.815 42.5006 249.895 42.5138C249.974 42.527 250.052 42.5394 250.129 42.5548C250.429 42.6155 250.723 42.7041 251.008 42.819C251.185 42.8907 251.417 42.7407 251.458 42.5636C251.506 42.3513 251.393 42.1903 251.202 42.1135C250.594 41.8683 249.937 41.7446 249.281 41.7402C249.09 41.7388 248.907 41.9093 248.915 42.1062C248.925 42.3052 249.077 42.4706 249.282 42.4721Z" fill="#161522"/>
<path d="M240.567 42.6937C240.671 42.6322 240.777 42.5752 240.885 42.5232C240.914 42.5093 240.943 42.4961 240.972 42.4829C240.979 42.4793 240.987 42.4764 240.994 42.4734C241.031 42.4581 241.023 42.4603 240.973 42.4815C240.992 42.4639 241.038 42.4551 241.062 42.4456C241.089 42.4354 241.115 42.4259 241.141 42.4163C241.364 42.3351 241.593 42.2758 241.826 42.2363C241.911 42.2217 242.003 42.1397 242.045 42.068C242.091 41.9897 242.11 41.8741 242.082 41.7862C242.016 41.5821 241.834 41.4964 241.632 41.5308C241.127 41.6165 240.637 41.8016 240.197 42.0621C240.032 42.1595 239.959 42.3959 240.066 42.5627C240.173 42.7281 240.391 42.7984 240.567 42.6937Z" fill="#161522"/>
<path d="M243.463 46.8825C243.908 45.8358 244.429 44.8227 245.02 43.8513C245.143 43.6496 244.827 43.4661 244.704 43.6671C244.112 44.6385 243.592 45.6516 243.147 46.6983C243.108 46.7896 243.12 46.8934 243.213 46.9482C243.289 46.9936 243.424 46.9731 243.463 46.8825Z" fill="#161522"/>
<path d="M257.944 48.0245L256.846 40.811C256.846 40.811 236.864 43.313 230.387 33.6186C223.91 23.9243 230.716 20.0862 234.01 20.6351C237.304 21.1833 241.155 25.8986 241.155 25.8986C241.155 25.8986 238.089 21.7315 241.155 21.0737C244.221 20.4159 247.608 23.5954 249.372 26.8853C249.372 26.8853 262.543 25.6588 266.996 33.6186C271.448 41.5785 267.84 47.2256 259.696 55.4501L258.953 50.8503L257.944 48.0245Z" fill="#161522"/>
<path d="M266.996 48.1774C266.996 50.7686 264.876 52.8685 262.26 52.8685C259.645 52.8685 257.524 50.7679 257.524 48.1774C257.524 45.5863 259.645 43.4863 262.26 43.4863C264.876 43.4863 266.996 45.5863 266.996 48.1774Z" fill="#A66957"/>
<path d="M260.001 48.7973C259.994 48.6965 259.998 48.5941 260.004 48.4925C260.007 48.445 260.01 48.3982 260.015 48.3515C260.017 48.3251 260.02 48.2996 260.023 48.2732C260.034 48.1694 260.014 48.3171 260.027 48.2367C260.048 48.1059 260.073 47.9765 260.106 47.8486C260.124 47.7821 260.144 47.7155 260.166 47.6505C260.178 47.6132 260.191 47.5767 260.205 47.5401C260.214 47.5167 260.26 47.4093 260.228 47.4809C260.296 47.3281 260.375 47.1812 260.471 47.0445C260.483 47.027 260.553 46.9356 260.508 46.9919C260.533 46.9605 260.559 46.9298 260.586 46.9006C260.646 46.8333 260.71 46.7697 260.778 46.7105C260.793 46.6981 260.888 46.6235 260.836 46.6623C260.871 46.6367 260.906 46.6118 260.943 46.5877C261.027 46.5329 261.114 46.4854 261.205 46.4423C261.2 46.4445 261.285 46.4064 261.246 46.4233C261.225 46.4328 261.307 46.3999 261.319 46.3955C261.376 46.375 261.434 46.356 261.492 46.3399C261.597 46.31 261.76 46.2763 261.829 46.2668C262.139 46.2237 262.456 46.2347 262.766 46.2668C262.929 46.2836 263.069 46.1163 263.069 45.965C263.069 45.7881 262.93 45.6799 262.766 45.6631C261.797 45.5622 260.743 45.7581 260.096 46.5468C259.669 47.0672 259.466 47.7177 259.407 48.3807C259.395 48.5181 259.388 48.6584 259.396 48.7966C259.421 49.1825 260.026 49.1854 260.001 48.7973Z" fill="#7F4040"/>
</svg>
