<svg width="20" height="20" viewBox="0 0 20 20" fill="none" xmlns="http://www.w3.org/2000/svg">
<g clip-path="url(#clip0_1135_13679)">
<path d="M5.62727 11.5846C6.04148 11.5846 6.37727 11.2488 6.37727 10.8346C6.37727 10.4204 6.04148 10.0846 5.62727 10.0846L5.62727 10.8346L5.62727 11.5846ZM8.61213 12.7822L7.91188 13.0509L7.91188 13.0509L8.61213 12.7822ZM8.50625 16.4239L9.03658 16.9542L9.03658 16.9542L8.50625 16.4239ZM5.2653 10.5462L4.73872 11.0802L4.73872 11.0802L5.2653 10.5462ZM2.35321 6.95052L2.00685 7.61576L2.00685 7.61576L2.35321 6.95052ZM1.80913 5.93156C1.40242 5.85306 1.00909 6.11912 0.930584 6.52583C0.852083 6.93254 1.11815 7.32588 1.52485 7.40438L1.66699 6.66797L1.80913 5.93156ZM1.66699 10.0846C1.25278 10.0846 0.916992 10.4204 0.916992 10.8346C0.916992 11.2488 1.25278 11.5846 1.66699 11.5846L1.66699 10.8346L1.66699 10.0846ZM1.66699 15.918C1.25278 15.918 0.916992 16.2538 0.916992 16.668C0.916992 17.0822 1.25278 17.418 1.66699 17.418L1.66699 16.668L1.66699 15.918ZM6.25033 16.668H5.50033C5.50033 17.1742 5.08992 17.5846 4.58366 17.5846V18.3346L4.58366 19.0846C5.91835 19.0846 7.00033 18.0027 7.00033 16.668H6.25033ZM4.58366 18.3346V17.5846C4.0774 17.5846 3.66699 17.1742 3.66699 16.668H2.91699H2.16699C2.16699 18.0027 3.24897 19.0846 4.58366 19.0846L4.58366 18.3346ZM2.91699 16.668H3.66699C3.66699 16.1617 4.0774 15.7513 4.58366 15.7513V15.0013V14.2513C3.24897 14.2513 2.16699 15.3333 2.16699 16.668H2.91699ZM4.58366 15.0013V15.7513C5.08992 15.7513 5.50033 16.1617 5.50033 16.668H6.25033H7.00033C7.00033 15.3333 5.91835 14.2513 4.58366 14.2513V15.0013ZM6.25033 16.668V17.418H7.08366V16.668V15.918H6.25033V16.668ZM8.75033 15.0013H9.50033V14.401H8.75033H8.00033V15.0013H8.75033ZM8.75033 14.401H9.50033C9.50033 13.6239 9.51233 13.0349 9.31237 12.5136L8.61213 12.7822L7.91188 13.0509C7.98832 13.2501 8.00033 13.5001 8.00033 14.401H8.75033ZM7.08366 16.668V17.418C7.45529 17.418 7.80947 17.4196 8.09799 17.3808C8.40808 17.3391 8.75196 17.2388 9.03658 16.9542L8.50625 16.4239L7.97592 15.8936C8.01646 15.853 8.04188 15.8748 7.89812 15.8941C7.73278 15.9164 7.4977 15.918 7.08366 15.918V16.668ZM8.75033 15.0013H8.00033C8.00033 15.4153 7.99873 15.6504 7.9765 15.8158C7.95718 15.9595 7.93538 15.9341 7.97592 15.8936L8.50625 16.4239L9.03658 16.9542C9.32119 16.6696 9.42144 16.3257 9.46313 16.0156C9.50192 15.7271 9.50033 15.3729 9.50033 15.0013H8.75033ZM5.2653 10.5462L5.79188 10.0121C5.34333 9.56982 5.02604 8.97116 4.5599 8.22524C4.1316 7.53988 3.57859 6.74295 2.69957 6.28529L2.35321 6.95052L2.00685 7.61576C2.49542 7.87013 2.86749 8.34748 3.28785 9.02016C3.67038 9.63227 4.12534 10.4754 4.73872 11.0802L5.2653 10.5462ZM8.61213 12.7822L9.31237 12.5136C8.91363 11.4741 8.05452 11.0559 7.37556 10.7859C6.99685 10.6353 6.73405 10.5512 6.43104 10.4156C6.15518 10.2922 5.94807 10.1661 5.79188 10.0121L5.2653 10.5462L4.73872 11.0802C5.07423 11.411 5.46163 11.6252 5.81838 11.7848C6.14797 11.9323 6.55588 12.0741 6.82127 12.1797C7.43048 12.422 7.75309 12.6369 7.91188 13.0509L8.61213 12.7822ZM1.66699 6.66797L1.52485 7.40438C1.64728 7.42801 1.77108 7.493 2.00685 7.61576L2.35321 6.95052L2.69957 6.28529C2.5353 6.19976 2.19415 6.00588 1.80913 5.93156L1.66699 6.66797ZM1.66699 10.8346L1.66699 11.5846L5.62727 11.5846L5.62727 10.8346L5.62727 10.0846L1.66699 10.0846L1.66699 10.8346ZM1.66699 16.668L1.66699 17.418H2.91699L2.91699 16.668L2.91699 15.918L1.66699 15.918L1.66699 16.668Z" fill="#7567F5"/>
<path d="M14.3727 11.5846C13.9585 11.5846 13.6227 11.2488 13.6227 10.8346C13.6227 10.4204 13.9585 10.0846 14.3727 10.0846V10.8346L14.3727 11.5846ZM11.3879 12.7822L12.0881 13.0509L12.0881 13.0509L11.3879 12.7822ZM11.4938 16.4239L10.9634 16.9542L10.9634 16.9542L11.4938 16.4239ZM14.7347 10.5462L15.2613 11.0802L15.2613 11.0802L14.7347 10.5462ZM17.6468 6.95052L17.9931 7.61576H17.9931L17.6468 6.95052ZM18.1909 5.93156C18.5976 5.85306 18.9909 6.11912 19.0694 6.52583C19.1479 6.93254 18.8819 7.32588 18.4751 7.40438L18.333 6.66797L18.1909 5.93156ZM18.333 10.0846C18.7472 10.0846 19.083 10.4204 19.083 10.8346C19.083 11.2488 18.7472 11.5846 18.333 11.5846L18.333 10.8346L18.333 10.0846ZM18.333 15.918C18.7472 15.918 19.083 16.2538 19.083 16.668C19.083 17.0822 18.7472 17.418 18.333 17.418L18.333 16.668L18.333 15.918ZM13.7497 16.668H14.4997C14.4997 17.1742 14.9101 17.5846 15.4163 17.5846V18.3346V19.0846C14.0817 19.0846 12.9997 18.0027 12.9997 16.668H13.7497ZM15.4163 18.3346V17.5846C15.9226 17.5846 16.333 17.1742 16.333 16.668H17.083H17.833C17.833 18.0027 16.751 19.0846 15.4163 19.0846V18.3346ZM17.083 16.668H16.333C16.333 16.1617 15.9226 15.7513 15.4163 15.7513V15.0013V14.2513C16.751 14.2513 17.833 15.3333 17.833 16.668H17.083ZM15.4163 15.0013V15.7513C14.9101 15.7513 14.4997 16.1617 14.4997 16.668H13.7497H12.9997C12.9997 15.3333 14.0817 14.2513 15.4163 14.2513V15.0013ZM13.7497 16.668V17.418H12.9163V16.668V15.918H13.7497V16.668ZM11.2497 15.0013H10.4997V14.401H11.2497H11.9997V15.0013H11.2497ZM11.2497 14.401H10.4997C10.4997 13.6239 10.4877 13.0349 10.6876 12.5136L11.3879 12.7822L12.0881 13.0509C12.0117 13.2501 11.9997 13.5001 11.9997 14.401H11.2497ZM12.9163 16.668V17.418C12.5447 17.418 12.1905 17.4196 11.902 17.3808C11.5919 17.3391 11.248 17.2388 10.9634 16.9542L11.4938 16.4239L12.0241 15.8936C11.9835 15.853 11.9581 15.8748 12.1019 15.8941C12.2672 15.9164 12.5023 15.918 12.9163 15.918V16.668ZM11.2497 15.0013H11.9997C11.9997 15.4153 12.0013 15.6504 12.0235 15.8158C12.0428 15.9595 12.0646 15.9341 12.0241 15.8936L11.4938 16.4239L10.9634 16.9542C10.6788 16.6696 10.5786 16.3257 10.5369 16.0156C10.4981 15.7271 10.4997 15.3729 10.4997 15.0013H11.2497ZM14.7347 10.5462L14.2081 10.0121C14.6567 9.56982 14.974 8.97116 15.4401 8.22524C15.8684 7.53988 16.4214 6.74295 17.3004 6.28529L17.6468 6.95052L17.9931 7.61576C17.5046 7.87013 17.1325 8.34748 16.7121 9.02016C16.3296 9.63227 15.8747 10.4754 15.2613 11.0802L14.7347 10.5462ZM11.3879 12.7822L10.6876 12.5136C11.0864 11.4741 11.9455 11.0559 12.6244 10.7859C13.0031 10.6353 13.2659 10.5512 13.569 10.4156C13.8448 10.2922 14.0519 10.1661 14.2081 10.0121L14.7347 10.5462L15.2613 11.0802C14.9258 11.411 14.5384 11.6252 14.1816 11.7848C13.852 11.9323 13.4441 12.0741 13.1787 12.1797C12.5695 12.422 12.2469 12.6369 12.0881 13.0509L11.3879 12.7822ZM18.333 6.66797L18.4751 7.40438C18.3527 7.42801 18.2289 7.493 17.9931 7.61576L17.6468 6.95052L17.3004 6.28529C17.4647 6.19976 17.8058 6.00588 18.1909 5.93156L18.333 6.66797ZM18.333 10.8346L18.333 11.5846L14.3727 11.5846L14.3727 10.8346V10.0846L18.333 10.0846L18.333 10.8346ZM18.333 16.668L18.333 17.418H17.083L17.083 16.668L17.083 15.918L18.333 15.918L18.333 16.668Z" fill="#7567F5"/>
<path d="M8.33301 8.33464L6.18367 6.62874C5.93339 6.41915 5.80825 6.31435 5.83708 6.2061C5.86592 6.09784 6.02642 6.06989 6.34743 6.01397L7.32551 5.84361C7.69851 5.77863 7.74514 5.68295 7.57899 5.34344L6.5428 3.22616C6.33733 2.80632 6.2346 2.5964 6.3286 2.50762C6.4226 2.41885 6.62472 2.53491 7.02895 2.76704L8.77271 3.76837C9.07312 3.94088 9.1031 3.93176 9.25784 3.62076L9.96174 2.20603C10.1449 1.83781 10.2366 1.65371 10.3588 1.66883C10.4811 1.68395 10.5255 1.88489 10.6144 2.28676L11.1821 4.85422C11.2565 5.19073 11.3431 5.23693 11.6601 5.10041L13.5519 4.28566C13.8814 4.14376 14.0461 4.07281 14.1295 4.15462C14.2129 4.23642 14.1464 4.40365 14.0132 4.73811L12.4997 8.33464" stroke="#7567F5" stroke-width="1.5" stroke-linecap="round" stroke-linejoin="round"/>
<path d="M10.4167 8.33203L10 7.08203" stroke="#7567F5" stroke-width="1.5" stroke-linecap="round" stroke-linejoin="round"/>
</g>
<defs>
<clipPath id="clip0_1135_13679">
<rect width="20" height="20" fill="white"/>
</clipPath>
</defs>
</svg>
