<svg width="14" height="18" viewBox="0 0 14 18" fill="none" xmlns="http://www.w3.org/2000/svg">
<path fill-rule="evenodd" clip-rule="evenodd" d="M9.60174 13.1268L9.19395 13.2177V13.7661C9.19395 14.7066 8.60954 15.5066 7.79385 15.8032V17.28C7.79385 17.6776 7.48043 18 7.0938 18C6.70718 18 6.39376 17.6776 6.39376 17.28V15.8032C5.57806 15.5066 4.99366 14.7066 4.99366 13.7661V13.2578C4.93281 13.2454 4.87205 13.2324 4.81138 13.2189L4.39826 13.1268C2.38279 12.6776 0.787982 11.0942 0.280477 9.03837C-0.0934923 7.5235 -0.0934922 5.93652 0.280477 4.42165C0.787982 2.36585 2.38279 0.7824 4.39826 0.333183L4.81137 0.241107C6.25372 -0.0803693 7.74628 -0.0803687 9.18863 0.241107L9.60174 0.333183C11.6172 0.7824 13.212 2.36586 13.7195 4.42166C14.0935 5.93653 14.0935 7.52349 13.7195 9.03836C13.212 11.0942 11.6172 12.6776 9.60174 13.1268ZM7.79385 13.4286C7.71265 13.435 7.63139 13.4405 7.5501 13.445C7.16491 13.4661 6.77885 13.465 6.39376 13.4417V13.7661C6.39376 14.1637 6.70718 14.4861 7.0938 14.4861C7.48043 14.4861 7.79385 14.1637 7.79385 13.7661V13.4286ZM7.81704 3.87022C8.05856 4.06894 8.09772 4.43142 7.9045 4.67982L6.76562 6.144H8.40059C8.61587 6.144 8.81209 6.27092 8.90535 6.47048C8.99861 6.67005 8.97239 6.90693 8.8379 7.07982L6.97111 9.47982C6.77789 9.72823 6.42546 9.76851 6.18393 9.56978C5.94241 9.37105 5.90325 9.00858 6.09647 8.76018L7.23535 7.296H5.60039C5.38511 7.296 5.18888 7.16908 5.09562 6.96952C5.00237 6.76995 5.02859 6.53307 5.16307 6.36018L7.02987 3.96018C7.22309 3.71177 7.57552 3.67149 7.81704 3.87022Z" fill="#1B95F9"/>
</svg>
