<svg width="36" height="36" viewBox="0 0 36 36" fill="none" xmlns="http://www.w3.org/2000/svg">
<rect width="36" height="36" rx="18" fill="#7567F5" fill-opacity="0.05"/>
<path d="M25.5 13.5146V22.4888C25.5 22.8721 25.3717 23.1924 25.115 23.4496C24.8583 23.7069 24.5381 23.8352 24.1542 23.8346H11.8458C11.4625 23.8346 11.1425 23.7063 10.8858 23.4496C10.6292 23.193 10.5006 22.8724 10.5 22.488V13.5146C10.5 13.1307 10.6286 12.8105 10.8858 12.5538C11.1431 12.2971 11.4631 12.1685 11.8458 12.168H24.1542C24.5375 12.168 24.8575 12.2966 25.1142 12.5538C25.3708 12.811 25.4994 13.1313 25.5 13.5146ZM11.3333 15.3413H24.6667V13.5146C24.6667 13.3863 24.6133 13.2685 24.5067 13.1613C24.4 13.0541 24.2825 13.0007 24.1542 13.0013H11.8458C11.7181 13.0013 11.6006 13.0546 11.4933 13.1613C11.3861 13.268 11.3328 13.3857 11.3333 13.5146V15.3413ZM11.3333 17.328V22.4888C11.3333 22.6166 11.3867 22.7341 11.4933 22.8413C11.6 22.9485 11.7175 23.0019 11.8458 23.0013H24.1542C24.2819 23.0013 24.3994 22.948 24.5067 22.8413C24.6139 22.7346 24.6672 22.6171 24.6667 22.4888V17.328H11.3333Z" fill="#7567F5"/>
</svg>
