<svg width="10" height="10" viewBox="0 0 10 10" fill="none" xmlns="http://www.w3.org/2000/svg">
<path d="M4.61505 2.39526V0.390752C4.61505 0.177615 4.78505 0 5.00005 0C5.19255 0 5.35564 0.149246 5.38148 0.33829L5.38505 0.390752V2.39526L7.775 2.39541C8.965 2.39541 9.94267 3.36989 9.99757 4.5852L10 4.69304V7.21269C10 8.43652 9.05633 9.4411 7.88401 9.4975L7.78 9.5H2.22C1.03 9.5 0.0570449 8.53039 0.00241889 7.31063L0 7.20237L0 4.68788C0 3.46405 0.938955 2.45461 2.111 2.39792L2.215 2.39541H4.615V5.59661L3.815 4.77049C3.665 4.6156 3.42 4.6156 3.27 4.77049C3.195 4.84794 3.16 4.95121 3.16 5.05447C3.16 5.13295 3.1824 5.21474 3.22976 5.28396L3.27 5.33328L4.725 6.84094C4.795 6.91839 4.895 6.9597 5 6.9597C5.08333 6.9597 5.16667 6.93101 5.23264 6.87663L5.27 6.84094L6.725 5.33328C6.875 5.17839 6.875 4.92539 6.725 4.77049C6.58864 4.62968 6.37376 4.61688 6.22312 4.73209L6.18 4.77049L5.385 5.59661V2.39541L4.61505 2.39526Z" fill="white"/>
</svg>
