<svg width="96" height="96" viewBox="0 0 96 96" fill="none" xmlns="http://www.w3.org/2000/svg">
<path d="M72.2045 52.5306C70.8031 53.3397 70.3229 55.1317 71.132 56.5331L70.6131 55.6343C69.804 54.2329 68.012 53.7528 66.6107 54.5619C65.2093 55.3709 64.7291 57.1629 65.5382 58.5643L65.0193 57.6655C64.2102 56.2641 62.4183 55.784 61.0169 56.5931C59.6157 57.402 59.1355 59.1934 59.9441 60.5948L54.2921 50.8053C53.483 49.4039 51.6911 48.9238 50.2897 49.7329C48.8883 50.542 48.4082 52.3339 49.2172 53.7353L61.0213 74.1804L55.647 72.3126C54.3532 71.8629 52.9177 72.3174 52.1185 73.4299C51.0579 74.9062 51.4926 76.9745 53.0578 77.899L61.7196 83.015C65.2656 85.1095 69.6648 85.1313 73.2314 83.0722L78.3387 80.1235C83.7979 76.9716 85.6684 69.9909 82.5164 64.5316L78.7103 57.9391L78.1376 56.9472L76.2069 53.6031C75.3978 52.2017 73.6058 51.7215 72.2045 52.5306Z" fill="#23D9EF"/>
<path d="M56.0238 30.8704C56.1716 30.8915 56.3138 30.9418 56.4423 31.0184C56.5707 31.0951 56.683 31.1966 56.7726 31.3171C56.8622 31.4376 56.9274 31.5747 56.9645 31.7207C57.0015 31.8667 57.0097 32.0186 56.9885 32.1678C56.704 34.155 55.7816 35.9932 54.3629 37.4001C52.9441 38.807 51.1073 39.705 49.1344 39.9563V41.1734C49.1344 41.4774 49.0149 41.7689 48.802 41.9838C48.5892 42.1988 48.3005 42.3195 47.9994 42.3195C47.6984 42.3195 47.4097 42.1988 47.1969 41.9838C46.984 41.7689 46.8645 41.4774 46.8645 41.1734V39.9563C44.8918 39.7046 43.0554 38.8065 41.6369 37.3996C40.2184 35.9927 39.2961 34.1548 39.0115 32.1678C38.9688 31.8668 39.0461 31.5611 39.2266 31.3178C39.4071 31.0745 39.676 30.9136 39.974 30.8704C40.272 30.8273 40.5748 30.9054 40.8157 31.0877C41.0567 31.2699 41.216 31.5414 41.2588 31.8423C41.4935 33.4784 42.304 34.9743 43.5419 36.0563C44.7798 37.1382 46.3622 37.7337 47.9994 37.7337C49.6367 37.7337 51.2191 37.1382 52.457 36.0563C53.6949 34.9743 54.5054 33.4784 54.7401 31.8423C54.7613 31.6933 54.8113 31.5499 54.8873 31.4204C54.9633 31.291 55.0638 31.1779 55.1832 31.0876C55.3025 30.9974 55.4382 30.9317 55.5826 30.8945C55.7271 30.8572 55.8762 30.849 56.0238 30.8704ZM47.9994 19.3984C49.5045 19.3984 50.948 20.0022 52.0122 21.0768C53.0765 22.1514 53.6744 23.6089 53.6744 25.1287V30.859C53.6744 32.3787 53.0765 33.8362 52.0122 34.9109C50.948 35.9855 49.5045 36.5892 47.9994 36.5892C46.4944 36.5892 45.0509 35.9855 43.9867 34.9109C42.9224 33.8362 42.3245 32.3787 42.3245 30.859V25.1287C42.3245 23.6089 42.9224 22.1514 43.9867 21.0768C45.0509 20.0022 46.4944 19.3984 47.9994 19.3984Z" fill="#7567F5"/>
<path d="M83.1638 32.7953C82.8228 32.5583 82.3597 32.6413 82.1226 32.9795L79.0228 37.415C78.7876 37.7532 78.8696 38.2182 79.207 38.4543C79.3382 38.5455 79.4878 38.5892 79.6355 38.5892C79.8707 38.5892 80.1023 38.478 80.2481 38.2701L83.3479 33.8347C83.5832 33.4964 83.5011 33.0315 83.1638 32.7953Z" fill="#0B215D"/>
<path d="M87.8205 44.0183L82.3374 44.0156C81.9254 44.0156 81.5917 44.3493 81.5898 44.7623C81.5898 45.1744 81.9254 45.509 82.3374 45.509L87.8205 45.5117C88.2325 45.5117 88.5662 45.178 88.5681 44.765C88.5681 44.3529 88.2325 44.0183 87.8205 44.0183Z" fill="#0B215D"/>
<path d="M13.4751 32.9791C13.238 32.6417 12.7739 32.5588 12.4348 32.794C12.0966 33.031 12.0136 33.496 12.2497 33.8343L15.3486 38.2697C15.4945 38.4776 15.7261 38.5888 15.9622 38.5888C16.1099 38.5888 16.2585 38.5451 16.3889 38.4548C16.7271 38.2178 16.8101 37.7528 16.574 37.4145L13.4751 32.9791Z" fill="#0B215D"/>
<path d="M13.2609 44.0156L7.77793 44.0183C7.36493 44.0183 7.03125 44.3529 7.03125 44.765C7.03125 45.178 7.36585 45.5117 7.77793 45.5117L13.2609 45.509C13.6739 45.509 14.0076 45.1744 14.0076 44.7623C14.0076 44.3493 13.673 44.0156 13.2609 44.0156Z" fill="#0B215D"/>
<path d="M65.3133 2.23828H30.2818C25.2373 2.23828 21.1328 6.34279 21.1328 11.3873V84.2073C21.1328 89.2518 25.2373 93.3563 30.2818 93.3563H65.3133C68.838 93.3563 72.0891 91.2949 73.5916 88.1039C73.7685 87.731 73.608 87.2861 73.236 87.1102C72.8622 86.9369 72.4173 87.0919 72.2423 87.4676C70.9823 90.137 68.2636 91.8629 65.3133 91.8629H30.2818C26.0606 91.8629 22.6262 88.4285 22.6262 84.2073V11.3873C22.6262 7.16607 26.0606 3.73165 30.2818 3.73165H58.3254L57.3632 6.55795C56.9712 7.70852 55.8899 8.48165 54.6755 8.48165H40.9187C39.7034 8.48165 38.623 7.70852 38.231 6.55884C38.097 6.16681 37.6676 5.95985 37.2838 6.09296C36.8926 6.22607 36.6848 6.65002 36.8179 7.04022C37.4159 8.79617 39.0643 9.97502 40.9187 9.97502H54.6755C56.5299 9.97502 58.1783 8.79617 58.7782 7.04022L59.9043 3.73163H65.3134C69.5346 3.73163 72.9681 7.16605 72.9681 11.3873V47.7973C72.9681 48.2094 73.3036 48.544 73.7157 48.544C74.1277 48.544 74.4633 48.2094 74.4633 47.7973V11.3873C74.4633 6.34279 70.3587 2.23828 65.3133 2.23828Z" fill="#0B215D"/>
<path d="M40.1588 88.5285H55.4399C55.852 88.5285 56.1875 88.1939 56.1875 87.7818C56.1875 87.3698 55.852 87.0352 55.4399 87.0352H40.1588C39.7467 87.0352 39.4121 87.3698 39.4121 87.7818C39.4121 88.1939 39.7467 88.5285 40.1588 88.5285Z" fill="#0B215D"/>
<path d="M57.0729 51.9109C57.485 51.9109 57.8205 51.5763 57.8205 51.1643V48.5084C57.8205 46.9613 56.5605 45.7031 55.0142 45.7031H40.5846C39.0375 45.7031 37.7793 46.9613 37.7793 48.5084V51.1643C37.7793 52.7114 39.0375 53.9705 40.5846 53.9705H46.5846C46.9967 53.9705 47.3313 53.6359 47.3313 53.2238C47.3313 52.8117 46.9967 52.4771 46.5846 52.4771H40.5846C39.8616 52.4771 39.2727 51.8882 39.2727 51.1643V48.5085C39.2727 47.7855 39.8616 47.1965 40.5846 47.1965H55.0142C55.7382 47.1965 56.3253 47.7855 56.3253 48.5085V51.1643C56.3253 51.5764 56.6608 51.9109 57.0729 51.9109Z" fill="#0B215D"/>
<path d="M49.0812 61.7857C49.0812 61.3737 48.7466 61.0391 48.3345 61.0391H29.4986C29.0866 61.0391 28.752 61.3737 28.752 61.7857C28.752 62.1978 29.0866 62.5324 29.4986 62.5324H48.3345C48.7466 62.5324 49.0812 62.1978 49.0812 61.7857Z" fill="#0B215D"/>
<path d="M35.1002 70.1262H52.0698C52.4819 70.1262 52.8174 69.7916 52.8174 69.3795C52.8174 68.9674 52.4819 68.6328 52.0698 68.6328H35.1002C34.6881 68.6328 34.3535 68.9674 34.3535 69.3795C34.3535 69.7916 34.6881 70.1262 35.1002 70.1262Z" fill="#0B215D"/>
</svg>
