<svg width="20" height="20" viewBox="0 0 20 20" fill="none" xmlns="http://www.w3.org/2000/svg">
<path d="M14.3744 6.50875L16.2494 4.63375L15.3656 3.75L13.3075 5.80813C13.1903 5.92531 13.1244 6.08425 13.1244 6.25V8.75H8.70312L9.4175 18.75H14.9563L15.6706 8.75H14.3744V6.50875ZM13.7931 17.5H10.5806L10.0456 10H14.3281L13.7931 17.5Z" fill="#7567F5"/>
<path d="M10 4.40688V2.5C10 2.33424 9.93416 2.17527 9.81695 2.05806C9.69974 1.94085 9.54076 1.875 9.375 1.875H5.625C5.45924 1.875 5.30027 1.94085 5.18306 2.05806C5.06585 2.17527 5 2.33424 5 2.5V4.40688C4.60639 4.75522 4.29137 5.1833 4.07586 5.66271C3.86035 6.14212 3.74927 6.66188 3.75 7.1875V18.125C3.75 18.2908 3.81585 18.4497 3.93306 18.5669C4.05027 18.6842 4.20924 18.75 4.375 18.75H7.5V17.5H5V7.1875C5 5.715 6.25 5.0125 6.25 5.0125V3.125H8.75V5.0125C8.75 5.0125 10 5.715 10 7.1875V7.5H11.25V7.1875C11.2507 6.66188 11.1397 6.14212 10.9241 5.66271C10.7086 5.1833 10.3936 4.75522 10 4.40688Z" fill="#7567F5"/>
</svg>
