<svg width="57" height="49" viewBox="0 0 57 49" fill="none" xmlns="http://www.w3.org/2000/svg">
<path d="M15.5747 25.2107L14.8549 32.9777C14.7922 33.6509 15.1453 34.2951 15.7473 34.6042L17.698 35.603L18.5236 26.7206L15.5747 25.2107Z" fill="#7567F5"/>
<path d="M21.6164 13.4154L24.5654 14.9252L31.2891 9.0625L29.3383 8.06374C28.7356 7.7561 28.0065 7.8462 27.497 8.29064L21.6164 13.4154Z" fill="#7567F5"/>
<path d="M11.2563 8.69534L8.87412 10.6729C7.13331 12.1228 6.05904 14.2211 5.90041 16.481L5.68499 19.568C5.43257 23.1161 7.48385 26.4266 10.7737 27.7797L23.6482 33.0686L35.7751 40.6156C38.6444 42.3973 42.3112 42.249 45.0268 40.2401L45.6143 39.8068C48.9688 37.3314 50.9687 33.4254 51.0159 29.2566L51.024 28.5266C51.0663 25.149 49.043 22.0874 45.9199 20.8011L32.7074 15.3745L20.8869 8.01978C17.8665 6.14577 13.9855 6.41803 11.2563 8.69534Z" fill="#7567F5"/>
<path opacity="0.20938" d="M21.4957 8.39539C13.9006 9.74275 7.86581 15.5338 6.20767 23.067C5.7845 21.9524 5.60735 20.759 5.68988 19.5692L5.90162 16.4804C6.06025 14.2204 7.13453 12.1222 8.87533 10.6723L11.2539 8.69281C13.9849 6.41372 17.87 6.14259 20.8911 8.02068L21.4957 8.39539Z" fill="white"/>
<path opacity="0.304757" d="M15.8296 25.1034L15.8561 25.3551C15.9251 25.9655 16.3261 26.4872 16.8981 26.7112L23.6909 29.3665L29.7304 17.5704L23.6035 13.6147C23.0884 13.2812 22.4311 13.26 21.8956 13.5591L21.6773 13.6819C17.6072 15.9648 15.3027 20.4657 15.8296 25.1034Z" fill="white"/>
<path opacity="0.296526" d="M15.8212 24.9606C15.359 20.3729 17.6587 15.9468 21.6783 13.6881L21.898 13.5624C22.4335 13.2616 23.0912 13.2819 23.6074 13.6151L28.293 16.6403C23.1724 17.5889 18.6641 20.5967 15.8212 24.9606Z" fill="white"/>
<path opacity="0.304757" d="M34.0038 34.6479L40.0433 22.8519L43.7305 24.0251C44.3978 24.2374 44.8602 24.8464 44.8843 25.5463L44.9464 27.3823C45.0633 30.8144 43.3994 34.0642 40.5467 35.9758L39.0208 36.9988C38.4388 37.3884 37.6745 37.3693 37.112 36.952L34.0038 34.6479Z" fill="white"/>
<path opacity="0.296526" d="M44.8872 25.5494L44.9188 26.4746C40.8792 28.0634 37.2779 30.5939 34.414 33.8555L40.0466 22.8543L43.7337 24.0275C44.4016 24.2391 44.8636 24.8487 44.8872 25.5494Z" fill="white"/>
<rect opacity="0.398414" x="11.5273" y="24.8438" width="5.97309" height="1.65671" rx="0.828353" transform="rotate(-119.199 11.5273 24.8438)" fill="white"/>
<rect opacity="0.398414" x="13.207" y="12.6738" width="1.65671" height="5.97309" rx="0.828353" transform="rotate(-96.5764 13.207 12.6738)" fill="white"/>
</svg>
