<svg width="22" height="23" viewBox="0 0 22 23" fill="none" xmlns="http://www.w3.org/2000/svg">
<path fill-rule="evenodd" clip-rule="evenodd" d="M10.9974 3.11133C6.93452 3.11133 3.66406 6.50567 3.66406 10.6637C3.66406 12.7279 4.46916 14.9393 5.75724 16.6386C7.04237 18.334 8.8839 19.6113 10.9974 19.6113C13.1109 19.6113 14.9524 18.334 16.2375 16.6386C17.5256 14.9393 18.3307 12.7279 18.3307 10.6637C18.3307 6.50567 15.0603 3.11133 10.9974 3.11133ZM8.3993 10.0921C8.3993 8.64341 9.56251 7.46902 10.9974 7.46902C12.4323 7.46902 13.5955 8.64341 13.5955 10.0921C13.5955 11.5408 12.4323 12.7152 10.9974 12.7152C9.56251 12.7152 8.3993 11.5408 8.3993 10.0921ZM10.9974 8.48441C10.1179 8.48441 9.40501 9.20419 9.40501 10.0921C9.40501 10.98 10.1179 11.6998 10.9974 11.6998C11.8768 11.6998 12.5898 10.98 12.5898 10.0921C12.5898 9.20419 11.8768 8.48441 10.9974 8.48441Z" fill="#0A215E"/>
</svg>
