<svg width="24" height="24" viewBox="0 0 24 24" fill="none" xmlns="http://www.w3.org/2000/svg">
<path d="M12 0C5.4 0 0 5.4 0 12C0 18.6 5.4 24 12 24C18.6 24 24 18.6 24 12C24 5.4 18.6 0 12 0ZM12 2C17.5 2 22 6.5 22 12C22 17.5 17.5 22 12 22C6.5 22 2 17.5 2 12C2 6.5 6.5 2 12 2ZM11.8008 4V5.80078C10.7008 5.90078 9.89922 6.30039 9.19922 6.90039C8.49922 7.60039 8.19922 8.30078 8.19922 9.30078C8.19922 10.3008 8.49961 11.0992 9.09961 11.6992C9.69961 12.1992 10.7 12.6992 12 13.1992C12.6 13.3992 12.9992 13.7004 13.1992 13.9004C13.3992 14.1004 13.5 14.5004 13.5 14.9004C13.5 15.3004 13.3992 15.6008 13.1992 15.8008C12.9992 16.0008 12.6992 16.0996 12.1992 16.0996C11.5992 16.0996 11.2004 15.9992 10.9004 15.6992C10.6004 15.3992 10.4004 14.9008 10.4004 14.3008H7.59961V14.4004C7.59961 15.7004 7.99922 16.5992 8.69922 17.1992C9.39922 17.7992 10.4 18.2008 11.5 18.3008V20H12.8008V18.4004C13.9008 18.3004 14.8004 18.0004 15.4004 17.4004C16.0004 16.8004 16.3008 16 16.3008 15C16.3008 13.9 15.9008 13.1 15.3008 12.5C14.7008 11.9 13.7004 11.4 12.4004 11C11.8004 10.7 11.3992 10.3992 11.1992 10.1992C10.9992 9.99922 10.9004 9.70078 10.9004 9.30078C10.9004 8.90078 10.9992 8.60078 11.1992 8.30078C11.3992 8.00078 11.6992 7.90039 12.1992 7.90039C12.5992 7.90039 12.8992 8.10078 13.1992 8.30078C13.4992 8.50078 13.5996 8.9 13.5996 9.5H16.4004C16.4004 8.5 16.1 7.7 15.5 7C14.9 6.3 14 5.90078 13 5.80078V4H11.8008Z" fill="#161F4C"/>
</svg>
