<svg width="20" height="21" viewBox="0 0 20 21" fill="none" xmlns="http://www.w3.org/2000/svg">
<g opacity="0.3">
<path fill-rule="evenodd" clip-rule="evenodd" d="M0.833984 5.20703C0.833984 3.82632 1.95327 2.70703 3.33398 2.70703H16.6673C18.048 2.70703 19.1673 3.82632 19.1673 5.20703V15.207C19.1673 16.5877 18.048 17.707 16.6673 17.707H3.33398C1.95327 17.707 0.833984 16.5877 0.833984 15.207V5.20703ZM3.33398 4.3737C2.87375 4.3737 2.50065 4.74679 2.50065 5.20703V6.40187L9.5719 10.6446C9.8358 10.803 10.1655 10.803 10.4294 10.6446L17.5006 6.40187V5.20703C17.5006 4.74679 17.1276 4.3737 16.6673 4.3737H3.33398ZM17.5006 8.34552L11.2869 12.0738C10.4952 12.5488 9.50612 12.5488 8.71441 12.0738L2.50065 8.34552V15.207C2.50065 15.6673 2.87375 16.0404 3.33398 16.0404H16.6673C17.1276 16.0404 17.5006 15.6673 17.5006 15.207V8.34552Z" fill="#161F4C"/>
</g>
</svg>
