<svg width="318" height="318" viewBox="0 0 318 318" fill="none" xmlns="http://www.w3.org/2000/svg">
<g clip-path="url(#clip0_689_25249)">
<path d="M159 275.385C223.28 275.385 275.388 223.277 275.388 158.997C275.388 94.7181 223.28 42.6094 159 42.6094C94.721 42.6094 42.6123 94.7181 42.6123 158.997C42.6123 223.277 94.721 275.385 159 275.385Z" fill="#1B95F9" fill-opacity="0.17"/>
<path d="M201.42 239.371L204.901 237.87C205.945 239.432 207.101 240.891 208.353 242.241L206.091 245.28L216.382 252.943L218.65 249.897C220.318 250.717 222.048 251.404 223.823 251.953L223.381 255.725L236.126 257.216L236.566 253.453C238.403 253.331 240.246 253.064 242.077 252.643L243.578 256.125L255.361 251.044L253.86 247.562C255.422 246.519 256.881 245.363 258.231 244.11L261.27 246.373L268.933 236.082L265.887 233.814C266.707 232.146 267.394 230.416 267.943 228.641L271.715 229.082L273.206 216.338L269.443 215.897C269.321 214.06 269.054 212.218 268.634 210.387L272.115 208.885L267.034 197.103L263.553 198.604C262.509 197.041 261.353 195.583 260.1 194.233L262.363 191.194L252.072 183.53L249.804 186.576C248.136 185.757 246.406 185.069 244.631 184.521L245.072 180.749L232.328 179.258L231.888 183.021C230.05 183.143 228.208 183.41 226.377 183.83L224.875 180.349L213.093 185.43L214.594 188.911C213.031 189.955 211.573 191.111 210.223 192.363L207.184 190.1L199.521 200.392L202.566 202.66C201.747 204.328 201.059 206.057 200.511 207.833L196.739 207.391L195.248 220.136L199.011 220.576C199.133 222.413 199.4 224.255 199.82 226.087L196.339 227.588L201.42 239.371ZM226.793 199.318C236.701 195.415 248.093 199.943 252.619 209.581C257.618 220.224 252.601 232.847 241.661 237.156C231.753 241.058 220.361 236.531 215.835 226.892C210.837 216.249 215.853 203.627 226.793 199.318Z" fill="#F7F1EB"/>
<path d="M234.226 246.59C225.679 246.59 217.351 242.724 211.858 235.662C211.763 235.54 211.785 235.364 211.907 235.268C212.03 235.174 212.206 235.195 212.3 235.318C220.064 245.298 233.605 248.767 245.231 243.753C252.047 240.814 257.31 235.397 260.051 228.499C262.793 221.601 262.683 214.049 259.744 207.233C254.342 194.706 240.34 187.879 227.168 191.356C227.02 191.396 226.865 191.306 226.826 191.157C226.786 191.007 226.876 190.853 227.025 190.814C233.52 189.099 240.449 189.768 246.534 192.697C252.68 195.656 257.555 200.739 260.259 207.011C263.258 213.964 263.369 221.669 260.573 228.706C257.776 235.743 252.407 241.27 245.453 244.268C241.819 245.835 238.001 246.59 234.226 246.59Z" fill="white"/>
<path d="M243.773 256.05L218.082 256.351L216.174 254.414L212.269 256.419L175.68 256.848L173.427 254.592L169.671 256.918L157.4 257.062L158.56 242.335L157.176 237.889L156.369 168.996L157.112 162.056L156.25 158.79L155.721 113.688L157.45 111.221L155.657 108.184L155.492 94.1129L201.209 93.5777L203.05 96.9104L206.999 93.5099L235.842 93.1722L238.077 95.1008L241.865 93.1016L242.602 156.029L241.516 167.829L242.818 174.486L243.242 210.692L241.252 213.084L243.313 216.751L243.773 256.05Z" fill="#5CC38F" fill-opacity="0.37"/>
<path d="M158.793 265.302C154.002 265.302 150.076 261.433 150.02 256.629L148.067 89.877C148.011 85.0382 151.901 81.0555 156.74 80.9989L238.679 80.0396C243.531 79.9874 247.5 83.8734 247.557 88.7121L249.509 255.464C249.537 257.808 248.65 260.022 247.012 261.699C245.374 263.376 243.181 264.315 240.837 264.342L158.898 265.301C158.863 265.302 158.828 265.302 158.793 265.302ZM238.783 80.5998C238.751 80.5998 238.718 80.5999 238.685 80.6003L156.746 81.5596C152.217 81.6127 148.575 85.3408 148.628 89.8702L150.58 256.622C150.634 261.152 154.364 264.791 158.891 264.74L240.831 263.781C243.025 263.755 245.078 262.877 246.611 261.307C248.144 259.738 248.974 257.665 248.949 255.471L246.996 88.7186C246.943 84.2217 243.268 80.5998 238.783 80.5998Z" fill="#363E44"/>
<path d="M193.253 87.7544C193.1 87.7544 192.975 87.631 192.973 87.4772C192.971 87.3223 193.095 87.1952 193.25 87.1934L205.773 87.0469C205.774 87.0469 205.775 87.0469 205.777 87.0469C205.93 87.0469 206.055 87.1703 206.057 87.324C206.059 87.479 205.935 87.606 205.78 87.6078L193.256 87.7544C193.255 87.7544 193.254 87.7544 193.253 87.7544Z" fill="#363E44"/>
<path d="M213.095 155.766L196.924 193.393L229.071 208.769L241.514 167.829L213.095 155.766Z" fill="#23D9EF"/>
<path d="M175.679 256.848L169.67 256.918L235.841 93.1722L241.865 93.1016L175.679 256.848Z" fill="white"/>
<path d="M218.081 256.353L212.268 256.421L242.601 156.031L242.817 174.488L218.081 256.353Z" fill="white"/>
<path d="M155.684 110.461L195.975 112.232L187.539 146.931L171.906 140.496L156.25 158.791L155.684 110.461Z" fill="#5CC38F" fill-opacity="0.37"/>
<path d="M242.702 164.7L170.537 136.398L156.248 158.792L156.368 168.999L172.777 143.282L242.773 170.734L242.702 164.7Z" fill="white"/>
<path d="M157.176 237.889L157.4 257.062L174.634 197.334C172.883 196.782 171.168 196.105 169.348 195.688L157.176 237.889Z" fill="#5CC38F"/>
<path d="M201.207 93.5756L176.135 172.149C177.795 173.007 179.518 173.681 181.263 174.352L206.998 93.5078L201.207 93.5756Z" fill="#5CC38F"/>
<path d="M175.255 200.955C166.338 201.059 158.998 193.889 158.894 184.972C158.789 176.055 165.959 168.715 174.877 168.611C183.794 168.506 191.134 175.676 191.238 184.593C191.342 193.511 184.172 200.85 175.255 200.955ZM174.962 175.916C170.073 175.974 166.142 179.997 166.2 184.887C166.257 189.775 170.281 193.706 175.17 193.649C180.059 193.592 183.989 189.568 183.932 184.679C183.875 179.79 179.851 175.859 174.962 175.916Z" fill="#5CC38F"/>
<path d="M243.242 210.69L186.826 186.602C185.771 188.144 184.891 189.772 184.012 191.421L243.313 216.748L243.242 210.69Z" fill="#5CC38F"/>
<path d="M242.071 110.716L155.656 108.188C155.692 110.735 155.698 111.713 155.721 113.691L242.135 116.213L242.071 110.716Z" fill="#5CC38F"/>
<path d="M218.177 247.683C218.151 247.683 218.125 247.68 218.098 247.672C217.95 247.628 217.865 247.472 217.908 247.324L218.855 244.094C218.898 243.946 219.054 243.86 219.203 243.904C219.351 243.948 219.437 244.104 219.393 244.252L218.447 247.482C218.411 247.604 218.299 247.683 218.177 247.683ZM220.07 241.224C220.044 241.224 220.018 241.22 219.992 241.213C219.843 241.169 219.758 241.013 219.801 240.865L220.748 237.635C220.791 237.487 220.947 237.401 221.096 237.445C221.245 237.488 221.33 237.644 221.286 237.793L220.34 241.022C220.304 241.145 220.192 241.224 220.07 241.224ZM221.964 234.765C221.938 234.765 221.911 234.762 221.885 234.754C221.736 234.71 221.651 234.554 221.694 234.406L222.641 231.176C222.684 231.028 222.84 230.942 222.989 230.986C223.138 231.029 223.223 231.185 223.179 231.334L222.233 234.564C222.197 234.686 222.085 234.765 221.964 234.765ZM223.857 228.306C223.831 228.306 223.804 228.302 223.778 228.295C223.629 228.251 223.544 228.095 223.587 227.947L224.534 224.717C224.578 224.568 224.733 224.483 224.882 224.527C225.031 224.57 225.116 224.726 225.073 224.875L224.126 228.104C224.09 228.227 223.978 228.306 223.857 228.306ZM225.75 221.847C225.724 221.847 225.698 221.843 225.671 221.835C225.523 221.792 225.437 221.636 225.481 221.487L226.427 218.258C226.471 218.109 226.627 218.023 226.776 218.068C226.924 218.111 227.01 218.267 226.966 218.416L226.019 221.645C225.983 221.767 225.871 221.847 225.75 221.847ZM227.643 215.388C227.617 215.388 227.591 215.384 227.564 215.376C227.416 215.333 227.33 215.177 227.374 215.028L228.321 211.799C228.364 211.65 228.52 211.564 228.669 211.609C228.818 211.652 228.903 211.808 228.859 211.957L227.912 215.186C227.877 215.308 227.764 215.388 227.643 215.388ZM229.536 208.929C229.51 208.929 229.484 208.925 229.458 208.917C229.309 208.874 229.224 208.718 229.267 208.569L229.317 208.4L226.852 207.301C226.711 207.238 226.647 207.072 226.71 206.931C226.773 206.79 226.938 206.726 227.081 206.789L229.77 207.987C229.898 208.044 229.964 208.188 229.925 208.322L229.806 208.727C229.77 208.849 229.658 208.929 229.536 208.929ZM223.892 205.956C223.854 205.956 223.815 205.948 223.778 205.932L220.704 204.562C220.563 204.499 220.499 204.333 220.562 204.191C220.625 204.05 220.79 203.987 220.932 204.049L224.006 205.419C224.148 205.482 224.212 205.648 224.148 205.79C224.102 205.894 223.999 205.956 223.892 205.956ZM217.744 203.216C217.706 203.216 217.667 203.208 217.63 203.192L214.556 201.822C214.414 201.759 214.351 201.593 214.414 201.452C214.477 201.31 214.642 201.247 214.784 201.31L217.858 202.68C218 202.743 218.063 202.908 218 203.05C217.954 203.154 217.851 203.216 217.744 203.216ZM211.596 200.477C211.558 200.477 211.519 200.469 211.482 200.452L208.408 199.082C208.266 199.019 208.203 198.853 208.266 198.712C208.329 198.571 208.494 198.507 208.636 198.57L211.71 199.94C211.851 200.003 211.915 200.169 211.852 200.31C211.806 200.414 211.703 200.477 211.596 200.477ZM205.448 197.737C205.41 197.737 205.371 197.729 205.334 197.712L202.26 196.343C202.118 196.279 202.054 196.114 202.118 195.972C202.181 195.831 202.346 195.767 202.488 195.83L205.562 197.2C205.703 197.263 205.767 197.429 205.704 197.571C205.657 197.675 205.555 197.737 205.448 197.737ZM199.3 194.997C199.262 194.997 199.223 194.989 199.186 194.973L197.826 194.367C197.688 194.305 197.624 194.145 197.681 194.005L198.391 192.267C198.449 192.123 198.613 192.055 198.756 192.113C198.9 192.172 198.969 192.335 198.91 192.479L198.303 193.965L199.414 194.46C199.555 194.523 199.619 194.689 199.556 194.831C199.51 194.935 199.407 194.997 199.3 194.997ZM199.922 189.538C199.887 189.538 199.851 189.531 199.816 189.517C199.673 189.458 199.604 189.294 199.663 189.151L200.934 186.035C200.993 185.892 201.157 185.823 201.3 185.881C201.443 185.94 201.512 186.104 201.454 186.247L200.182 189.363C200.137 189.472 200.032 189.538 199.922 189.538ZM202.466 183.306C202.431 183.306 202.395 183.299 202.36 183.285C202.217 183.226 202.148 183.063 202.207 182.919L203.478 179.804C203.537 179.66 203.701 179.591 203.844 179.65C203.987 179.708 204.056 179.872 203.998 180.016L202.726 183.131C202.682 183.24 202.577 183.306 202.466 183.306ZM205.01 177.074C204.975 177.074 204.939 177.068 204.904 177.053C204.761 176.995 204.692 176.831 204.751 176.688L206.023 173.572C206.081 173.429 206.245 173.36 206.388 173.418C206.532 173.477 206.601 173.641 206.542 173.784L205.27 176.9C205.226 177.009 205.121 177.074 205.01 177.074ZM207.554 170.843C207.519 170.843 207.483 170.836 207.448 170.822C207.305 170.763 207.236 170.6 207.294 170.456L208.567 167.341C208.625 167.197 208.789 167.128 208.932 167.187C209.076 167.246 209.144 167.409 209.086 167.553L207.814 170.668C207.769 170.777 207.664 170.843 207.554 170.843ZM210.098 164.611C210.063 164.611 210.027 164.604 209.992 164.59C209.849 164.532 209.78 164.368 209.839 164.225L211.11 161.109C211.169 160.965 211.333 160.897 211.476 160.955C211.619 161.014 211.688 161.177 211.63 161.321L210.358 164.436C210.313 164.545 210.208 164.611 210.098 164.611ZM227.597 162.035C227.566 162.035 227.534 162.03 227.503 162.019L224.333 160.888C224.187 160.836 224.111 160.676 224.163 160.53C224.215 160.384 224.375 160.307 224.522 160.36L227.691 161.491C227.837 161.543 227.913 161.703 227.861 161.849C227.821 161.964 227.713 162.035 227.597 162.035ZM221.258 159.773C221.227 159.773 221.195 159.768 221.164 159.757L217.994 158.626C217.848 158.574 217.772 158.414 217.824 158.268C217.876 158.122 218.036 158.046 218.182 158.098L221.352 159.229C221.498 159.281 221.574 159.441 221.522 159.587C221.481 159.702 221.373 159.773 221.258 159.773ZM212.642 158.38C212.607 158.38 212.571 158.373 212.536 158.359C212.393 158.3 212.324 158.136 212.383 157.993L212.981 156.526C213.038 156.387 213.195 156.317 213.335 156.368L215.013 156.967C215.159 157.019 215.235 157.179 215.182 157.325C215.13 157.471 214.97 157.547 214.824 157.495L213.399 156.986L212.902 158.205C212.858 158.314 212.753 158.38 212.642 158.38Z" fill="#363E44"/>
<path d="M227.499 140.462C233.598 140.39 238.6 145.277 238.671 151.376C238.743 157.475 227.857 171.063 227.857 171.063C227.857 171.063 216.656 157.733 216.585 151.634C216.513 145.535 221.4 140.533 227.499 140.462Z" fill="#0B215D"/>
<path d="M234.883 153.627C236.05 149.62 233.748 145.425 229.741 144.259C225.734 143.092 221.54 145.394 220.373 149.401C219.206 153.408 221.508 157.602 225.515 158.769C229.522 159.936 233.716 157.634 234.883 153.627Z" fill="white"/>
<path d="M234.417 123.451C256.085 123.451 273.65 105.885 273.65 84.2176C273.65 62.5497 256.085 44.9844 234.417 44.9844C212.749 44.9844 195.184 62.5497 195.184 84.2176C195.184 105.885 212.749 123.451 234.417 123.451Z" fill="white"/>
<path d="M234.416 123.731C212.628 123.731 194.902 106.005 194.902 84.2168C194.902 62.429 212.628 44.7031 234.416 44.7031C256.204 44.7031 273.93 62.429 273.93 84.2168C273.93 106.005 256.204 123.731 234.416 123.731ZM234.416 45.2641C212.937 45.2641 195.463 62.7382 195.463 84.2168C195.463 105.695 212.937 123.17 234.416 123.17C255.895 123.17 273.369 105.695 273.369 84.2168C273.369 62.7382 255.895 45.2641 234.416 45.2641Z" fill="#23D9EF"/>
<path d="M216.253 96.2812H209.098V105.478H216.253V96.2812Z" fill="#363E44"/>
<path d="M260.607 96.2812H253.451V105.478H260.607V96.2812Z" fill="#363E44"/>
<path d="M260.955 97.5926H208.699V82.8933L213.228 78.8984H256.427L260.955 82.8933V97.5926Z" fill="#7567F5"/>
<path d="M256.427 78.8958H213.229L221.22 64.625H248.435L256.427 78.8958Z" fill="#7567F5"/>
<path d="M246.72 66.1328H222.933L216.35 77.8897H253.304L246.72 66.1328Z" fill="#363E44"/>
<path d="M215.822 77.8867H206.502V74.5733L212.226 73.375V77.019H216.222L215.822 77.8867Z" fill="#7567F5"/>
<path d="M254.052 77.8867H263.372V74.5733L257.648 73.375V77.019H253.652L254.052 77.8867Z" fill="#7567F5"/>
<path d="M211.617 87.2649L220.332 91.2028C220.404 91.2353 220.485 91.1827 220.485 91.104V87.3675C220.485 87.0157 220.255 86.7053 219.918 86.6038L212.544 84.3826C212.082 84.2435 211.617 84.5892 211.617 85.0715V87.2649Z" fill="#EFEFEF"/>
<path d="M258.128 87.132L249.26 91.1392V87.4027C249.26 86.951 249.556 86.5528 249.988 86.4225L257.201 84.2498C257.663 84.1107 258.128 84.4564 258.128 84.9387V87.132Z" fill="#EFEFEF"/>
<path d="M261.589 95.2656H208.01V99.082H261.589V95.2656Z" fill="black"/>
<path d="M244.404 94.2953H226.253C226.098 94.2953 225.973 94.1698 225.973 94.0149C225.973 93.8599 226.098 93.7344 226.253 93.7344H244.404C244.559 93.7344 244.684 93.8599 244.684 94.0149C244.684 94.1698 244.559 94.2953 244.404 94.2953Z" fill="#EFEFEF"/>
<path d="M244.695 89.561H226.157C226.002 89.561 225.877 89.4354 225.877 89.2805C225.877 89.1255 226.002 89 226.157 89H244.695C244.85 89 244.975 89.1255 244.975 89.2805C244.975 89.4354 244.85 89.561 244.695 89.561Z" fill="#EFEFEF"/>
<path d="M110.208 198.627C96.5977 196.131 82.9865 193.636 69.3756 191.141C48.2519 223.378 49.7084 263.778 53.6215 274.848C58.7596 275.009 66.7026 274.97 84.6462 274.908V232.862H90.5863L93.1148 274.841C107.535 274.791 125.719 274.761 129.798 274.848C121.15 237.885 112.494 204.635 110.208 198.627Z" fill="#363E44"/>
<path d="M109.682 180.85C120.718 183.497 152.102 193.087 155.982 179.867C159.192 168.931 128.217 160.941 117.428 157.602C114.846 165.351 112.264 173.101 109.682 180.85Z" fill="#9D6C5B"/>
<path d="M135.455 172.304C135.455 172.303 135.455 172.303 135.455 172.302C146.552 154.929 154.092 142.391 156.572 138.611C156.832 138.216 157.287 137.515 158.103 136.799C161.128 134.145 164.263 135.529 168.716 134.189C173.77 132.669 175.755 128.952 176.883 129.689C177.668 130.202 177.314 131.815 175.453 134.574C175.453 134.574 175.453 134.574 175.453 134.574C177.108 132.641 179.467 130.116 180.533 131.034C181.707 132.16 179.284 135.451 177.721 137.37C179.613 135.047 181.314 134.378 181.781 135.038C182.516 136.076 181.468 138.22 178.848 141.193L178.848 141.193C181.231 139.646 182.039 139.625 182.31 140.309C182.804 141.558 180.603 143.962 178.333 145.789C175.776 147.846 173.08 148.555 171.369 148.961C171.369 148.961 171.369 148.961 171.368 148.962C164.858 161.935 160.102 170.026 155.644 180.871C152.802 187.783 136.381 183.572 135.455 172.304Z" fill="#9D6C5B"/>
<path d="M135.253 172.678C135.201 172.678 135.149 172.664 135.102 172.634C134.972 172.55 134.934 172.377 135.017 172.246C136.537 169.865 138.089 167.421 139.629 164.982C139.712 164.851 139.885 164.812 140.016 164.895C140.146 164.977 140.186 165.151 140.103 165.282C138.563 167.721 137.011 170.166 135.489 172.548C135.436 172.632 135.345 172.678 135.253 172.678Z" fill="#363E44"/>
<path d="M164.919 136.371C167.442 131.8 167.384 129.616 166.647 129.239C165.407 128.605 161.655 131.626 157.125 137.842C159.333 137.627 162.71 136.586 164.919 136.371Z" fill="#9D6C5B"/>
<path d="M163.933 145.298C163.887 145.298 163.841 145.287 163.798 145.263C163.662 145.188 163.612 145.018 163.687 144.882C164.152 144.036 165.026 142.86 166.544 142.06C168.691 140.929 170.791 141.289 171.594 141.496C171.744 141.535 171.834 141.688 171.796 141.838C171.757 141.988 171.604 142.078 171.454 142.04C170.714 141.849 168.78 141.517 166.805 142.556C165.411 143.291 164.607 144.374 164.179 145.152C164.128 145.245 164.031 145.298 163.933 145.298Z" fill="#363E44"/>
<path d="M160.487 135.894C160.368 135.894 160.258 135.817 160.22 135.698C160.173 135.55 160.255 135.393 160.403 135.346C161.523 134.991 162.693 134.912 163.932 134.829C164.505 134.79 165.098 134.75 165.714 134.682C165.871 134.663 166.007 134.776 166.024 134.929C166.041 135.083 165.93 135.222 165.776 135.239C165.147 135.309 164.549 135.349 163.97 135.388C162.765 135.47 161.628 135.546 160.572 135.881C160.544 135.89 160.515 135.894 160.487 135.894Z" fill="#363E44"/>
<path d="M171.376 137.296C171.26 137.296 171.151 137.223 171.111 137.107C171.061 136.961 171.138 136.801 171.285 136.751C171.869 136.549 172.438 136.292 172.973 135.987C173.75 135.545 174.467 134.999 175.105 134.363C175.214 134.254 175.392 134.254 175.501 134.364C175.61 134.473 175.61 134.651 175.501 134.76C174.828 135.431 174.071 136.008 173.25 136.475C172.685 136.797 172.085 137.068 171.468 137.281C171.437 137.292 171.407 137.296 171.376 137.296Z" fill="#363E44"/>
<path d="M173.878 139.781C173.762 139.781 173.653 139.708 173.613 139.592C173.563 139.445 173.64 139.286 173.787 139.235C174.371 139.034 174.939 138.777 175.475 138.472C176.252 138.03 176.969 137.483 177.607 136.848C177.717 136.738 177.894 136.738 178.003 136.848C178.113 136.958 178.113 137.135 178.003 137.245C177.33 137.916 176.573 138.493 175.752 138.959C175.186 139.281 174.586 139.553 173.97 139.765C173.939 139.776 173.909 139.781 173.878 139.781Z" fill="#363E44"/>
<path d="M174.851 143.961C174.734 143.961 174.626 143.888 174.586 143.772C174.535 143.625 174.613 143.466 174.759 143.415C175.344 143.213 175.911 142.956 176.448 142.652C177.224 142.21 177.941 141.663 178.579 141.027C178.689 140.918 178.866 140.918 178.976 141.028C179.085 141.137 179.085 141.315 178.975 141.424C178.302 142.096 177.545 142.673 176.725 143.139C176.159 143.461 175.559 143.732 174.942 143.945C174.912 143.956 174.881 143.961 174.851 143.961Z" fill="#363E44"/>
<path d="M42.8086 167.892C47.2359 163.068 68.3383 144.162 96.8588 148.828C113.306 151.519 123.755 156.24 129.798 160.072C123.766 170.988 121.812 173.403 118.41 177.638C120.149 186.485 121.888 195.332 123.627 204.179C110.697 204.066 68.9563 202.818 55.7991 202.365C58.1432 194.879 60.4874 190.874 62.8314 183.388C61.0166 184.9 61.3411 179.75 59.5264 181.262C55.3297 174.264 49.271 171.215 42.8086 167.892Z" fill="#7567F5"/>
<path d="M89.88 242.698L65.918 231.418L91.2941 205.875L115.256 217.155L89.88 242.698Z" fill="white"/>
<path d="M46.4681 169.648C44.4561 179.218 36.1828 204.763 54.0993 209.21C60.8583 210.887 64.0641 191.038 66.6781 181.665C60.4677 177.092 52.964 173.334 46.4681 169.648Z" fill="#9D6C5B"/>
<path d="M62.4063 193.031C69.4678 198.741 86.763 211.364 88.4022 212.664C91.4664 215.093 107.573 228.556 105.882 231.091C105.074 232.302 101.854 229.848 100.79 228.987C101.306 230.107 103.757 234.19 102.53 235.266C101.089 236.531 97.4238 232.112 97.3235 232.079C97.9637 233.163 100.688 237.375 99.8001 238.218C98.6443 239.315 94.9342 236.156 93.8672 235.159C93.843 235.409 97.0115 239.03 95.6891 240.396C94.7182 241.399 91.3189 238.496 89.8404 237.241C87.1162 235.085 54.0764 211.723 48.4904 206.597C46.3036 204.591 57.518 193.061 62.4063 193.031Z" fill="#9D6C5B"/>
<path d="M77.9889 205.08C77.9303 205.08 77.8709 205.062 77.8205 205.024C74.138 202.248 64.6154 194.893 62.3194 193.079C62.1978 192.982 62.1773 192.806 62.2734 192.685C62.3695 192.563 62.5456 192.542 62.6672 192.638C64.9615 194.452 74.4777 201.802 78.1579 204.576C78.2816 204.669 78.3063 204.845 78.2132 204.969C78.1579 205.042 78.074 205.08 77.9889 205.08Z" fill="#363E44"/>
<path d="M100.918 229.185C100.824 229.185 100.732 229.138 100.679 229.052C100.256 228.365 99.7833 227.702 99.2726 227.082C98.3543 225.968 97.2944 224.965 96.1218 224.1C95.9972 224.008 95.9706 223.832 96.0627 223.708C96.1548 223.583 96.3303 223.557 96.4548 223.649C97.6643 224.541 98.7579 225.576 99.7053 226.726C100.233 227.366 100.721 228.049 101.156 228.758C101.238 228.89 101.196 229.063 101.064 229.144C101.019 229.172 100.968 229.185 100.918 229.185Z" fill="#363E44"/>
<path d="M97.4471 232.328C97.3633 232.328 97.2803 232.291 97.2252 232.22C97.1217 232.086 97.0143 231.952 96.9032 231.817C95.9848 230.702 94.925 229.699 93.7527 228.834C93.628 228.742 93.6014 228.567 93.6935 228.442C93.7856 228.317 93.9612 228.291 94.0857 228.383C95.2949 229.275 96.3885 230.31 97.3358 231.46C97.4508 231.6 97.5614 231.739 97.6683 231.876C97.7633 231.999 97.7409 232.175 97.6184 232.27C97.5677 232.309 97.5071 232.328 97.4471 232.328Z" fill="#363E44"/>
<path d="M93.8197 235.348C93.7468 235.348 93.6743 235.319 93.6192 235.264C92.9594 234.589 92.2367 233.961 91.4714 233.397C91.3468 233.305 91.3202 233.129 91.4123 233.005C91.5043 232.88 91.6799 232.853 91.8044 232.945C92.5937 233.528 93.3392 234.176 94.0201 234.871C94.1284 234.982 94.1264 235.159 94.0158 235.268C93.9613 235.321 93.8904 235.348 93.8197 235.348Z" fill="#363E44"/>
<path d="M78.0087 159.183C76.3737 159.183 74.904 157.402 74.6767 155.081C74.5637 153.925 74.7698 152.804 75.2579 151.924C75.7646 151.011 76.5139 150.462 77.3677 150.378C79.0846 150.208 80.6818 152.045 80.9193 154.47C81.1568 156.894 79.9496 159.004 78.2284 159.172C78.1549 159.18 78.0815 159.183 78.0087 159.183ZM77.5919 150.928C77.5356 150.928 77.4791 150.931 77.4223 150.936C76.7573 151.001 76.1631 151.449 75.7484 152.196C75.3152 152.977 75.1327 153.982 75.2349 155.026C75.4422 157.143 76.7615 158.752 78.1736 158.614C79.587 158.476 80.5684 156.641 80.3611 154.524C80.1622 152.493 78.9396 150.928 77.5919 150.928Z" fill="#F7F1EB"/>
<path d="M80.7705 164.04C79.5315 164.04 78.1078 163.268 77.0944 161.916C75.634 159.966 75.5717 157.536 76.9553 156.5C78.3386 155.463 80.6532 156.205 82.1146 158.155C83.5753 160.105 83.6377 162.534 82.2538 163.571C81.8298 163.889 81.318 164.04 80.7705 164.04ZM78.4534 156.584C78.0212 156.584 77.6217 156.701 77.2916 156.949C76.1556 157.8 76.2684 159.877 77.5436 161.58C78.8187 163.281 80.7808 163.974 81.9175 163.122C83.0538 162.271 82.9409 160.193 81.6655 158.491C80.7606 157.283 79.5098 156.584 78.4534 156.584Z" fill="#F7F1EB"/>
<path d="M85.4012 167.944C84.4648 167.944 83.4616 167.645 82.5493 167.089C80.4689 165.822 79.5084 163.589 80.4078 162.112C81.3074 160.635 83.7321 160.465 85.8127 161.733C86.8048 162.337 87.5765 163.176 87.9862 164.094C88.4116 165.048 88.4 165.977 87.9536 166.71C87.5075 167.442 86.6875 167.878 85.6448 167.938C85.5642 167.942 85.4829 167.944 85.4012 167.944ZM82.9525 161.435C82.0465 161.435 81.2786 161.761 80.8869 162.404C80.1483 163.617 81.0249 165.503 82.8413 166.61C83.737 167.156 84.7238 167.429 85.613 167.377C86.4662 167.329 87.1276 166.988 87.4751 166.418C87.8226 165.847 87.8224 165.103 87.4742 164.323C87.1103 163.507 86.4168 162.757 85.5209 162.211C84.6673 161.691 83.7555 161.435 82.9525 161.435Z" fill="#F7F1EB"/>
<path d="M90.4253 169.039C90.3157 169.039 90.2053 169.036 90.0944 169.03C88.9342 168.97 87.8566 168.599 87.0593 167.985C86.2316 167.348 85.8005 166.526 85.8449 165.669C85.8893 164.813 86.4036 164.039 87.293 163.491C88.1491 162.964 89.2564 162.706 90.4198 162.766C91.5797 162.827 92.6576 163.198 93.4546 163.811C94.2823 164.448 94.7137 165.271 94.6693 166.127C94.6249 166.984 94.1106 167.757 93.2212 168.305C92.4467 168.783 91.4644 169.039 90.4253 169.039ZM90.0873 163.319C89.1522 163.319 88.2737 163.546 87.587 163.969C86.8593 164.417 86.4397 165.031 86.4052 165.698C86.3705 166.365 86.7242 167.02 87.4016 167.541C88.1093 168.086 89.0758 168.416 90.1234 168.47C91.1696 168.523 92.1665 168.297 92.9272 167.828C93.6549 167.38 94.0744 166.765 94.109 166.098C94.1437 165.431 93.79 164.777 93.1126 164.256C92.4049 163.711 91.4381 163.381 90.3908 163.327C90.2892 163.321 90.1878 163.319 90.0873 163.319Z" fill="#F7F1EB"/>
<path d="M95.6461 168.488C95.1972 168.488 94.7628 168.431 94.3583 168.317C93.3532 168.033 92.6471 167.429 92.3702 166.617C92.0933 165.806 92.2833 164.897 92.9053 164.058C93.5046 163.25 94.4399 162.598 95.5392 162.223C97.8461 161.437 100.175 162.128 100.733 163.765C101.291 165.402 99.8698 167.373 97.5643 168.16C96.9243 168.378 96.2712 168.488 95.6461 168.488ZM97.4663 162.455C96.9112 162.455 96.3161 162.551 95.7206 162.754C94.7278 163.093 93.8881 163.674 93.3562 164.392C92.8471 165.078 92.6855 165.804 92.9011 166.436C93.1167 167.069 93.6885 167.545 94.511 167.777C95.3705 168.02 96.3906 167.967 97.3831 167.629C99.3965 166.942 100.661 165.29 100.203 163.946C99.8797 163 98.7873 162.455 97.4663 162.455Z" fill="#F7F1EB"/>
<path d="M100.587 165.208C100.109 165.208 99.6559 165.086 99.2629 164.829C97.8155 163.883 97.722 161.454 99.0551 159.415C100.388 157.376 102.65 156.487 104.098 157.433C105.545 158.379 105.638 160.808 104.305 162.847C103.334 164.333 101.87 165.208 100.587 165.208ZM102.756 157.609C101.668 157.609 100.389 158.399 99.5245 159.722C98.3607 161.503 98.3811 163.583 99.5696 164.36C100.759 165.137 102.672 164.32 103.836 162.54C105 160.76 104.979 158.679 103.791 157.903C103.485 157.703 103.132 157.609 102.756 157.609Z" fill="#F7F1EB"/>
<path d="M103.806 159.713C103.657 159.713 103.509 159.698 103.36 159.668C101.665 159.327 100.676 157.107 101.156 154.719C101.636 152.331 103.402 150.664 105.102 151.005C106.797 151.346 107.786 153.566 107.306 155.955C106.867 158.135 105.355 159.713 103.806 159.713ZM104.647 151.521C103.364 151.521 102.091 152.916 101.706 154.829C101.287 156.915 102.079 158.839 103.471 159.118C104.862 159.399 106.337 157.929 106.756 155.844C107.175 153.759 106.383 151.835 104.991 151.555C104.877 151.532 104.762 151.521 104.647 151.521Z" fill="#F7F1EB"/>
<path d="M68.6588 134.65C60.394 134.65 53.6699 127.926 53.6699 119.661C53.6699 111.396 60.394 104.672 68.6588 104.672C76.9236 104.672 83.6477 111.396 83.6477 119.661C83.6477 127.926 76.9237 134.65 68.6588 134.65ZM68.6588 105.233C60.7031 105.233 54.2308 111.705 54.2308 119.661C54.2308 127.617 60.7031 134.089 68.6588 134.089C76.6145 134.089 83.0868 127.617 83.0868 119.661C83.0868 111.705 76.6145 105.233 68.6588 105.233Z" fill="#363E44"/>
<path d="M71.2907 131.708C81.4124 131.708 89.6176 123.503 89.6176 113.382C89.6176 103.26 81.4124 95.0547 71.2907 95.0547C61.1691 95.0547 52.9639 103.26 52.9639 113.382C52.9639 123.503 61.1691 131.708 71.2907 131.708Z" fill="#363E44"/>
<path d="M99.3273 136.391C104.156 131.563 104.156 123.734 99.3273 118.906C94.4989 114.077 86.6706 114.077 81.8422 118.906C77.0138 123.734 77.0138 131.563 81.8422 136.391C86.6706 141.219 94.4989 141.219 99.3273 136.391Z" fill="#363E44"/>
<path d="M100.695 142.793C97.9629 144.734 90.2456 139.466 90.2456 139.466L85.8301 130.23C85.8301 125.517 89.6514 121.695 94.3652 121.695C99.079 121.695 102.9 125.517 102.9 130.23C102.901 130.23 103.477 140.817 100.695 142.793Z" fill="#9D6C5B"/>
<path d="M91.4832 156.245C96.9417 156.245 101.367 154.431 101.367 152.193C101.367 149.955 96.9417 148.141 91.4832 148.141C86.0246 148.141 81.5996 149.955 81.5996 152.193C81.5996 154.431 86.0246 156.245 91.4832 156.245Z" fill="#9D6C5B"/>
<path d="M96.3792 130.141H85.8301V151.719H96.3792V130.141Z" fill="#9D6C5B"/>
<path d="M101.919 132.477C101.919 132.477 104.313 134.985 104.186 135.647C104.034 136.437 101.367 136.92 101.367 136.92C101.367 136.92 101.983 132.483 101.919 132.477Z" fill="#9D6C5B"/>
<path d="M93.3691 131.514C93.3691 131.514 94.9352 130.672 96.823 130.672C97.2247 130.672 96.4668 133.886 96.0856 133.704C94.4092 132.904 93.3691 131.514 93.3691 131.514Z" fill="white"/>
<mask id="mask0_689_25249" style="mask-type:luminance" maskUnits="userSpaceOnUse" x="93" y="130" width="10" height="5">
<path d="M93.3691 131.514C93.3691 131.514 95.6725 130.275 98.0596 130.803C100.447 131.33 102.014 133.424 102.014 133.424C102.014 133.424 99.7107 134.663 97.3235 134.135C94.9362 133.608 93.3691 131.514 93.3691 131.514Z" fill="white"/>
</mask>
<g mask="url(#mask0_689_25249)">
<path d="M99.164 136.051C100.93 136.051 102.361 134.619 102.361 132.853C102.361 131.088 100.93 129.656 99.164 129.656C97.3982 129.656 95.9668 131.088 95.9668 132.853C95.9668 134.619 97.3982 136.051 99.164 136.051Z" fill="#363E44"/>
</g>
<path d="M98.8912 138.685C98.5897 138.685 98.2887 138.6 98.0269 138.43C97.5224 138.103 97.2425 137.503 97.3137 136.903C97.332 136.75 97.4707 136.642 97.6253 136.658C97.779 136.676 97.889 136.816 97.8707 136.969C97.8244 137.359 98.0054 137.748 98.3322 137.96C98.6707 138.179 99.111 138.18 99.454 137.959C99.5846 137.876 99.7582 137.913 99.8416 138.043C99.9254 138.174 99.8876 138.347 99.7575 138.431C99.4938 138.601 99.1923 138.685 98.8912 138.685Z" fill="#363E44"/>
<path d="M83.7523 132.475C83.7523 132.475 86.4738 131.382 89.2831 134.266L91.1041 133.269C91.1041 133.269 90.0494 121.654 102.779 126.219C102.779 126.219 98.4132 116.467 89.8976 120.048C81.3821 123.63 83.7523 132.475 83.7523 132.475Z" fill="#363E44"/>
<path d="M86.7715 134.366C93.1836 134.596 99.6362 134.856 104.038 133.617C104.533 134.005 104.773 134.432 104.745 134.901C104.266 138.105 102.9 143.603 101.87 143.654C96.7501 144.084 94.2063 142.348 91.0492 140.263C89.011 138.625 88.2018 136.56 86.7715 134.366Z" fill="white"/>
<path d="M98.0738 143.554C98.0576 143.554 98.041 143.552 98.0246 143.549C94.6615 142.951 90.2724 139.975 90.0873 139.848C89.9595 139.761 89.9263 139.586 90.0137 139.458C90.1008 139.331 90.2758 139.297 90.4034 139.385C90.4478 139.415 94.8792 142.42 98.1227 142.997C98.2752 143.024 98.3768 143.17 98.3497 143.322C98.3255 143.458 98.2072 143.554 98.0738 143.554Z" fill="#363E44"/>
<path d="M83.6454 134.514C84.1434 136.182 85.7226 137.182 87.1728 136.75C88.623 136.317 89.3948 134.614 88.897 132.946C88.3991 131.278 86.8198 130.277 85.3696 130.71C83.9194 131.143 83.1474 132.846 83.6454 134.514Z" fill="#9D6C5B"/>
<path d="M87.7664 133.507C87.6456 133.507 87.5339 133.428 87.4978 133.306C87.2576 132.502 86.5093 132.014 85.829 132.216C85.4267 132.336 85.1181 132.683 85.0039 133.145C84.9666 133.295 84.8136 133.386 84.6643 133.35C84.5139 133.312 84.4222 133.16 84.4595 133.01C84.6219 132.354 85.0741 131.856 85.6686 131.678C86.6441 131.387 87.7065 132.045 88.0352 133.146C88.0796 133.294 87.9953 133.45 87.8468 133.495C87.8198 133.503 87.793 133.507 87.7664 133.507Z" fill="#363E44"/>
<path d="M86.3932 141.228C84.8357 141.228 83.5684 139.961 83.5684 138.403C83.5684 136.845 84.8357 135.578 86.3932 135.578C87.9508 135.578 89.2179 136.845 89.2179 138.403C89.2179 139.961 87.9507 141.228 86.3932 141.228ZM86.3932 136.139C85.1449 136.139 84.1293 137.155 84.1293 138.403C84.1293 139.651 85.1449 140.667 86.3932 140.667C87.6416 140.667 88.6571 139.651 88.6571 138.403C88.657 137.155 87.6414 136.139 86.3932 136.139Z" fill="#7567F5"/>
<path d="M201.532 215.844H133.547V274.534H201.532V215.844Z" fill="white"/>
<path d="M201.532 274.814H133.546C133.391 274.814 133.266 274.688 133.266 274.533V215.843C133.266 215.688 133.391 215.562 133.546 215.562H201.532C201.687 215.562 201.812 215.688 201.812 215.843V274.533C201.812 274.688 201.687 274.814 201.532 274.814ZM133.827 274.253H201.251V216.123H133.827V274.253Z" fill="#7567F5"/>
<path d="M198.037 235.589H190.439C190.284 235.589 190.158 235.464 190.158 235.309V227.71C190.158 227.555 190.284 227.43 190.439 227.43H198.037C198.192 227.43 198.318 227.555 198.318 227.71V235.309C198.318 235.464 198.192 235.589 198.037 235.589ZM190.719 235.028H197.757V227.991H190.719V235.028Z" fill="#7467F4"/>
<path d="M189.067 235.589H181.468C181.313 235.589 181.188 235.464 181.188 235.309V227.71C181.188 227.555 181.313 227.43 181.468 227.43H189.067C189.222 227.43 189.347 227.555 189.347 227.71V235.309C189.347 235.464 189.222 235.589 189.067 235.589ZM181.748 235.028H188.786V227.991H181.748V235.028Z" fill="#7467F4"/>
<path d="M180.096 235.589H172.497C172.342 235.589 172.217 235.464 172.217 235.309V227.71C172.217 227.555 172.342 227.43 172.497 227.43H180.096C180.251 227.43 180.376 227.555 180.376 227.71V235.309C180.376 235.464 180.251 235.589 180.096 235.589ZM172.778 235.028H179.815V227.991H172.778V235.028Z" fill="#7467F4"/>
<path d="M171.127 235.589H163.529C163.373 235.589 163.248 235.464 163.248 235.309V227.71C163.248 227.555 163.373 227.43 163.529 227.43H171.127C171.282 227.43 171.408 227.555 171.408 227.71V235.309C171.408 235.464 171.282 235.589 171.127 235.589ZM163.809 235.028H170.847V227.991H163.809V235.028Z" fill="#7467F4"/>
<path d="M162.156 235.589H154.558C154.403 235.589 154.277 235.464 154.277 235.309V227.71C154.277 227.555 154.403 227.43 154.558 227.43H162.156C162.311 227.43 162.437 227.555 162.437 227.71V235.309C162.437 235.464 162.311 235.589 162.156 235.589ZM154.838 235.028H161.876V227.991H154.838V235.028Z" fill="#7467F4"/>
<path d="M153.186 235.589H145.587C145.432 235.589 145.307 235.464 145.307 235.309V227.71C145.307 227.555 145.432 227.43 145.587 227.43H153.186C153.341 227.43 153.466 227.555 153.466 227.71V235.309C153.466 235.464 153.341 235.589 153.186 235.589ZM145.868 235.028H152.905V227.991H145.868V235.028Z" fill="#7467F4"/>
<path d="M144.221 235.589H136.622C136.467 235.589 136.342 235.464 136.342 235.309V227.71C136.342 227.555 136.467 227.43 136.622 227.43H144.221C144.376 227.43 144.501 227.555 144.501 227.71V235.309C144.501 235.464 144.376 235.589 144.221 235.589ZM136.903 235.028H143.94V227.991H136.903V235.028Z" fill="#7467F4"/>
<path d="M198.037 244.495H190.439C190.284 244.495 190.158 244.37 190.158 244.215V236.616C190.158 236.461 190.284 236.336 190.439 236.336H198.037C198.192 236.336 198.318 236.461 198.318 236.616V244.215C198.318 244.37 198.192 244.495 198.037 244.495ZM190.719 243.934H197.757V236.897H190.719V243.934Z" fill="#7467F4"/>
<path d="M189.067 236.617H181.469V244.216H189.067V236.617Z" fill="#7567F5"/>
<path d="M180.098 244.495H172.499C172.344 244.495 172.219 244.37 172.219 244.215V236.616C172.219 236.461 172.344 236.336 172.499 236.336H180.098C180.253 236.336 180.378 236.461 180.378 236.616V244.215C180.378 244.37 180.253 244.495 180.098 244.495ZM172.78 243.934H179.817V236.897H172.78V243.934Z" fill="#7467F4"/>
<path d="M171.127 244.495H163.529C163.373 244.495 163.248 244.37 163.248 244.215V236.616C163.248 236.461 163.373 236.336 163.529 236.336H171.127C171.282 236.336 171.408 236.461 171.408 236.616V244.215C171.408 244.37 171.282 244.495 171.127 244.495ZM163.809 243.934H170.847V236.897H163.809V243.934Z" fill="#7467F4"/>
<path d="M162.156 244.495H154.558C154.403 244.495 154.277 244.37 154.277 244.215V236.616C154.277 236.461 154.403 236.336 154.558 236.336H162.156C162.311 236.336 162.437 236.461 162.437 236.616V244.215C162.437 244.37 162.311 244.495 162.156 244.495ZM154.838 243.934H161.876V236.897H154.838V243.934Z" fill="#7467F4"/>
<path d="M153.186 244.495H145.587C145.432 244.495 145.307 244.37 145.307 244.215V236.616C145.307 236.461 145.432 236.336 145.587 236.336H153.186C153.341 236.336 153.466 236.461 153.466 236.616V244.215C153.466 244.37 153.341 244.495 153.186 244.495ZM145.868 243.934H152.905V236.897H145.868V243.934Z" fill="#7467F4"/>
<path d="M144.215 244.495H136.616C136.461 244.495 136.336 244.37 136.336 244.215V236.616C136.336 236.461 136.461 236.336 136.616 236.336H144.215C144.37 236.336 144.495 236.461 144.495 236.616V244.215C144.495 244.37 144.37 244.495 144.215 244.495ZM136.897 243.934H143.934V236.897H136.897V243.934Z" fill="#7467F4"/>
<path d="M198.037 253.41H190.439C190.284 253.41 190.158 253.284 190.158 253.129V245.53C190.158 245.376 190.284 245.25 190.439 245.25H198.037C198.192 245.25 198.318 245.376 198.318 245.53V253.129C198.318 253.284 198.192 253.41 198.037 253.41ZM190.719 252.849H197.757V245.811H190.719V252.849Z" fill="#7467F4"/>
<path d="M189.067 253.41H181.468C181.313 253.41 181.188 253.284 181.188 253.129V245.53C181.188 245.376 181.313 245.25 181.468 245.25H189.067C189.222 245.25 189.347 245.376 189.347 245.53V253.129C189.347 253.284 189.222 253.41 189.067 253.41ZM181.748 252.849H188.786V245.811H181.748V252.849Z" fill="#7467F4"/>
<path d="M180.098 253.41H172.499C172.344 253.41 172.219 253.284 172.219 253.129V245.53C172.219 245.376 172.344 245.25 172.499 245.25H180.098C180.253 245.25 180.378 245.376 180.378 245.53V253.129C180.378 253.284 180.253 253.41 180.098 253.41ZM172.78 252.849H179.817V245.811H172.78V252.849Z" fill="#7467F4"/>
<path d="M171.127 253.41H163.529C163.373 253.41 163.248 253.284 163.248 253.129V245.53C163.248 245.376 163.373 245.25 163.529 245.25H171.127C171.282 245.25 171.408 245.376 171.408 245.53V253.129C171.408 253.284 171.282 253.41 171.127 253.41ZM163.809 252.849H170.847V245.811H163.809V252.849Z" fill="#7467F4"/>
<path d="M162.156 253.41H154.558C154.403 253.41 154.277 253.284 154.277 253.129V245.53C154.277 245.376 154.403 245.25 154.558 245.25H162.156C162.311 245.25 162.437 245.376 162.437 245.53V253.129C162.437 253.284 162.311 253.41 162.156 253.41ZM154.838 252.849H161.876V245.811H154.838V252.849Z" fill="#7467F4"/>
<path d="M153.186 253.41H145.587C145.432 253.41 145.307 253.284 145.307 253.129V245.53C145.307 245.376 145.432 245.25 145.587 245.25H153.186C153.341 245.25 153.466 245.376 153.466 245.53V253.129C153.466 253.284 153.341 253.41 153.186 253.41ZM145.868 252.849H152.905V245.811H145.868V252.849Z" fill="#7467F4"/>
<path d="M144.215 253.41H136.616C136.461 253.41 136.336 253.284 136.336 253.129V245.53C136.336 245.376 136.461 245.25 136.616 245.25H144.215C144.37 245.25 144.495 245.376 144.495 245.53V253.129C144.495 253.284 144.37 253.41 144.215 253.41ZM136.897 252.849H143.934V245.811H136.897V252.849Z" fill="#7467F4"/>
<path d="M198.037 262.316H190.439C190.284 262.316 190.158 262.19 190.158 262.035V254.437C190.158 254.282 190.284 254.156 190.439 254.156H198.037C198.192 254.156 198.318 254.282 198.318 254.437V262.035C198.318 262.19 198.192 262.316 198.037 262.316ZM190.719 261.755H197.757V254.717H190.719V261.755Z" fill="#7467F4"/>
<path d="M189.067 262.316H181.468C181.313 262.316 181.188 262.19 181.188 262.035V254.437C181.188 254.282 181.313 254.156 181.468 254.156H189.067C189.222 254.156 189.347 254.282 189.347 254.437V262.035C189.347 262.19 189.222 262.316 189.067 262.316ZM181.748 261.755H188.786V254.717H181.748V261.755Z" fill="#7467F4"/>
<path d="M180.098 262.316H172.499C172.344 262.316 172.219 262.19 172.219 262.035V254.437C172.219 254.282 172.344 254.156 172.499 254.156H180.098C180.253 254.156 180.378 254.282 180.378 254.437V262.035C180.378 262.19 180.253 262.316 180.098 262.316ZM172.78 261.755H179.817V254.717H172.78V261.755Z" fill="#7467F4"/>
<path d="M171.127 262.316H163.529C163.373 262.316 163.248 262.19 163.248 262.035V254.437C163.248 254.282 163.373 254.156 163.529 254.156H171.127C171.282 254.156 171.408 254.282 171.408 254.437V262.035C171.408 262.19 171.282 262.316 171.127 262.316ZM163.809 261.755H170.847V254.717H163.809V261.755Z" fill="#7467F4"/>
<path d="M162.156 262.316H154.558C154.403 262.316 154.277 262.19 154.277 262.035V254.437C154.277 254.282 154.403 254.156 154.558 254.156H162.156C162.311 254.156 162.437 254.282 162.437 254.437V262.035C162.437 262.19 162.311 262.316 162.156 262.316ZM154.838 261.755H161.876V254.717H154.838V261.755Z" fill="#7467F4"/>
<path d="M153.186 262.316H145.587C145.432 262.316 145.307 262.19 145.307 262.035V254.437C145.307 254.282 145.432 254.156 145.587 254.156H153.186C153.341 254.156 153.466 254.282 153.466 254.437V262.035C153.466 262.19 153.341 262.316 153.186 262.316ZM145.868 261.755H152.905V254.717H145.868V261.755Z" fill="#7467F4"/>
<path d="M144.215 262.316H136.616C136.461 262.316 136.336 262.19 136.336 262.035V254.437C136.336 254.282 136.461 254.156 136.616 254.156H144.215C144.37 254.156 144.495 254.282 144.495 254.437V262.035C144.495 262.19 144.37 262.316 144.215 262.316ZM136.897 261.755H143.934V254.717H136.897V261.755Z" fill="#7467F4"/>
<path d="M198.502 219.244C198.629 218.706 198.296 218.167 197.758 218.04C197.22 217.913 196.681 218.246 196.554 218.784C196.427 219.322 196.76 219.861 197.298 219.988C197.836 220.115 198.375 219.782 198.502 219.244Z" fill="#F2E6DC"/>
<path d="M192.475 219.244C192.602 218.706 192.269 218.167 191.731 218.04C191.193 217.913 190.654 218.246 190.527 218.784C190.4 219.322 190.733 219.861 191.271 219.988C191.809 220.115 192.348 219.782 192.475 219.244Z" fill="#F2E6DC"/>
<path d="M186.18 219.7C186.571 219.309 186.571 218.675 186.18 218.284C185.789 217.894 185.155 217.894 184.764 218.284C184.374 218.675 184.374 219.309 184.764 219.7C185.155 220.091 185.789 220.091 186.18 219.7Z" fill="#F2E6DC"/>
<path d="M180.42 219.244C180.547 218.706 180.214 218.167 179.676 218.04C179.138 217.913 178.599 218.246 178.472 218.784C178.345 219.322 178.678 219.861 179.216 219.988C179.754 220.115 180.293 219.782 180.42 219.244Z" fill="#F2E6DC"/>
<path d="M174.393 219.244C174.52 218.706 174.187 218.167 173.649 218.04C173.111 217.913 172.572 218.246 172.445 218.784C172.318 219.322 172.651 219.861 173.189 219.988C173.727 220.115 174.266 219.782 174.393 219.244Z" fill="#F2E6DC"/>
<path d="M168.1 219.7C168.491 219.309 168.491 218.675 168.1 218.284C167.709 217.894 167.075 217.894 166.684 218.284C166.293 218.675 166.293 219.309 166.684 219.7C167.075 220.091 167.709 220.091 168.1 219.7Z" fill="#F2E6DC"/>
<path d="M162.338 219.244C162.465 218.706 162.132 218.167 161.594 218.04C161.056 217.913 160.517 218.246 160.39 218.784C160.263 219.322 160.596 219.861 161.134 219.988C161.672 220.115 162.211 219.782 162.338 219.244Z" fill="#F2E6DC"/>
<path d="M156.311 219.244C156.438 218.706 156.105 218.167 155.567 218.04C155.029 217.913 154.49 218.246 154.363 218.784C154.236 219.322 154.569 219.861 155.107 219.988C155.645 220.115 156.184 219.782 156.311 219.244Z" fill="#F2E6DC"/>
<path d="M150.018 219.7C150.409 219.309 150.409 218.675 150.018 218.284C149.627 217.894 148.993 217.894 148.602 218.284C148.211 218.675 148.211 219.309 148.602 219.7C148.993 220.091 149.627 220.091 150.018 219.7Z" fill="#F2E6DC"/>
<path d="M144.256 219.244C144.383 218.706 144.05 218.167 143.512 218.04C142.974 217.913 142.435 218.246 142.308 218.784C142.181 219.322 142.514 219.861 143.052 219.988C143.59 220.115 144.129 219.782 144.256 219.244Z" fill="#F2E6DC"/>
<path d="M138.229 219.244C138.356 218.706 138.023 218.167 137.485 218.04C136.947 217.913 136.408 218.246 136.281 218.784C136.154 219.322 136.487 219.861 137.025 219.988C137.563 220.115 138.102 219.782 138.229 219.244Z" fill="#F2E6DC"/>
<path d="M137.386 219.214C137.231 219.214 137.105 219.088 137.105 218.933V213.366C137.105 213.211 137.231 213.086 137.386 213.086C137.541 213.086 137.666 213.211 137.666 213.366V218.933C137.666 219.088 137.541 219.214 137.386 219.214Z" fill="#7567F5"/>
<path d="M143.4 219.214C143.245 219.214 143.119 219.088 143.119 218.933V213.366C143.119 213.211 143.245 213.086 143.4 213.086C143.555 213.086 143.68 213.211 143.68 213.366V218.933C143.68 219.088 143.555 219.214 143.4 219.214Z" fill="#7567F5"/>
<path d="M149.413 219.214C149.258 219.214 149.133 219.088 149.133 218.933V213.366C149.133 213.211 149.258 213.086 149.413 213.086C149.568 213.086 149.694 213.211 149.694 213.366V218.933C149.694 219.088 149.568 219.214 149.413 219.214Z" fill="#7567F5"/>
<path d="M155.427 219.214C155.272 219.214 155.146 219.088 155.146 218.933V213.366C155.146 213.211 155.272 213.086 155.427 213.086C155.582 213.086 155.707 213.211 155.707 213.366V218.933C155.707 219.088 155.582 219.214 155.427 219.214Z" fill="#7567F5"/>
<path d="M161.441 219.214C161.286 219.214 161.16 219.088 161.16 218.933V213.366C161.16 213.211 161.286 213.086 161.441 213.086C161.596 213.086 161.721 213.211 161.721 213.366V218.933C161.721 219.088 161.596 219.214 161.441 219.214Z" fill="#7567F5"/>
<path d="M167.454 219.214C167.299 219.214 167.174 219.088 167.174 218.933V213.366C167.174 213.211 167.299 213.086 167.454 213.086C167.609 213.086 167.735 213.211 167.735 213.366V218.933C167.735 219.088 167.609 219.214 167.454 219.214Z" fill="#7567F5"/>
<path d="M173.468 219.214C173.313 219.214 173.188 219.088 173.188 218.933V213.366C173.188 213.211 173.313 213.086 173.468 213.086C173.623 213.086 173.748 213.211 173.748 213.366V218.933C173.748 219.088 173.623 219.214 173.468 219.214Z" fill="#7567F5"/>
<path d="M179.482 219.214C179.327 219.214 179.201 219.088 179.201 218.933V213.366C179.201 213.211 179.327 213.086 179.482 213.086C179.637 213.086 179.762 213.211 179.762 213.366V218.933C179.762 219.088 179.637 219.214 179.482 219.214Z" fill="#7567F5"/>
<path d="M185.495 219.214C185.34 219.214 185.215 219.088 185.215 218.933V213.366C185.215 213.211 185.34 213.086 185.495 213.086C185.65 213.086 185.776 213.211 185.776 213.366V218.933C185.776 219.088 185.65 219.214 185.495 219.214Z" fill="#7567F5"/>
<path d="M191.509 219.214C191.354 219.214 191.229 219.088 191.229 218.933V213.366C191.229 213.211 191.354 213.086 191.509 213.086C191.664 213.086 191.789 213.211 191.789 213.366V218.933C191.789 219.088 191.664 219.214 191.509 219.214Z" fill="#7567F5"/>
<path d="M197.523 219.214C197.368 219.214 197.242 219.088 197.242 218.933V213.366C197.242 213.211 197.368 213.086 197.523 213.086C197.678 213.086 197.803 213.211 197.803 213.366V218.933C197.803 219.088 197.678 219.214 197.523 219.214Z" fill="#7567F5"/>
</g>
<defs>
<clipPath id="clip0_689_25249">
<rect width="318" height="318" fill="white"/>
</clipPath>
</defs>
</svg>
