<svg width="244" height="244" viewBox="0 0 244 244" fill="none" xmlns="http://www.w3.org/2000/svg">
<path d="M121.613 243.226C188.778 243.226 243.226 188.778 243.226 121.613C243.226 54.448 188.778 0 121.613 0C54.448 0 0 54.448 0 121.613C0 188.778 54.448 243.226 121.613 243.226Z" fill="#7567F5" fill-opacity="0.12"/>
<path d="M36.5216 180.402L41.1094 178.423C42.4846 180.482 44.0084 182.405 45.6585 184.183L42.6767 188.188L56.2383 198.286L59.2269 194.273C61.4245 195.353 63.7039 196.258 66.0433 196.982L65.4619 201.952L82.2559 203.917L82.8361 198.958C85.2572 198.797 87.6845 198.445 90.098 197.892L92.0766 202.479L107.603 195.784L105.625 191.196C107.684 189.821 109.606 188.297 111.385 186.647L115.389 189.629L125.488 176.067L121.474 173.078C122.554 170.881 123.46 168.602 124.183 166.262L129.153 166.844L131.118 150.05L126.159 149.469C125.998 147.048 125.646 144.621 125.093 142.207L129.681 140.229L122.985 124.703L118.397 126.681C117.022 124.622 115.498 122.7 113.848 120.921L116.83 116.916L103.269 106.818L100.28 110.831C98.0822 109.751 95.803 108.846 93.4636 108.123L94.0451 103.152L77.2511 101.188L76.6709 106.146C74.2498 106.307 71.8225 106.659 69.4088 107.213L67.4304 102.625L51.904 109.32L53.8824 113.908C51.823 115.283 49.901 116.807 48.1223 118.457L44.1177 115.475L34.0192 129.037L38.0327 132.026C36.9528 134.223 36.047 136.503 35.3237 138.842L30.3536 138.26L28.3887 155.055L33.3476 155.635C33.5084 158.056 33.8603 160.483 34.4139 162.897L29.8261 164.875L36.5216 180.402ZM68.8338 124.761C83.3871 119.029 100.121 125.68 106.77 139.838C114.112 155.472 106.743 174.013 90.6729 180.343C76.1196 186.075 59.3855 179.425 52.7368 165.266C45.395 149.633 52.7634 131.091 68.8338 124.761Z" fill="white"/>
<path d="M79.751 189.839C68.5126 189.839 57.5604 184.755 50.3362 175.468C50.2368 175.34 50.2598 175.156 50.3875 175.057C50.5147 174.958 50.6992 174.98 50.7987 175.108C61.0501 188.287 78.9315 192.868 94.2838 186.247C112.863 178.236 121.461 156.602 113.449 138.022C106.315 121.479 87.8215 112.466 70.4317 117.056C70.2754 117.097 70.1147 117.004 70.0735 116.848C70.0322 116.691 70.1256 116.531 70.2819 116.49C78.8234 114.235 87.9344 115.115 95.937 118.967C104.02 122.857 110.43 129.542 113.987 137.79C122.127 156.666 113.392 178.646 94.5158 186.786C89.7371 188.847 84.7155 189.839 79.751 189.839Z" fill="#7567F5"/>
<path d="M152.254 10.1758C150.753 10.1758 149.537 11.3922 149.537 12.8926V155.439C149.537 156.432 150.342 157.237 151.336 157.237H235.155C236.655 157.237 237.871 156.021 237.871 154.52V12.8926C237.871 11.3922 236.655 10.1758 235.155 10.1758H152.254Z" fill="#7567F5" fill-opacity="0.23"/>
<path d="M236.364 165.03H151.046C147.533 165.03 144.676 162.172 144.676 158.66V6.65515C144.676 3.14273 147.533 0.285156 151.046 0.285156H236.364C239.877 0.285156 242.734 3.14273 242.734 6.65515V158.659C242.734 162.172 239.876 165.03 236.364 165.03ZM151.046 0.871292C147.856 0.871292 145.262 3.46584 145.262 6.65515V158.659C145.262 161.849 147.856 164.443 151.046 164.443H236.364C239.553 164.443 242.148 161.849 242.148 158.659V6.65515C242.148 3.46584 239.553 0.871292 236.364 0.871292H151.046Z" fill="#363E44"/>
<path d="M200.837 5.63691H185.215C185.053 5.63691 184.922 5.50573 184.922 5.34385C184.922 5.18196 185.053 5.05078 185.215 5.05078H200.837C200.998 5.05078 201.13 5.18196 201.13 5.34385C201.13 5.50573 200.998 5.63691 200.837 5.63691Z" fill="#363E44"/>
<path d="M226.366 91.3789H161.044V113.773H226.366V91.3789Z" fill="white"/>
<path d="M226.366 119.348H161.044V128.267H226.366V119.348Z" fill="white"/>
<path d="M226.366 133.328H161.044V142.247H226.366V133.328Z" fill="white"/>
<path d="M53.9846 241.949H148.662L158.249 229.9C167.095 218.409 158.903 201.766 144.402 201.766H33.3999L31.0557 207.275C24.063 223.71 36.1237 241.949 53.9846 241.949Z" fill="#363E44"/>
<path d="M155.412 218.607H101.724C98.0815 218.607 95.1289 215.654 95.1289 212.012H155.412L155.412 218.607Z" fill="#7567F5"/>
<path d="M155.811 218.418L172.072 167.251C173.176 163.78 171.256 160.072 167.785 158.969L149.526 216.42L155.811 218.418Z" fill="#7567F5"/>
<path d="M149.712 209.547C149.683 209.547 149.653 209.542 149.623 209.533C149.469 209.484 149.384 209.319 149.433 209.165L165.414 158.88C165.463 158.725 165.628 158.641 165.782 158.689C165.936 158.738 166.021 158.903 165.972 159.057L149.991 209.343C149.952 209.467 149.836 209.547 149.712 209.547Z" fill="#363E44"/>
<path d="M133.552 159.605C133.552 159.605 121.155 166.521 96.0895 169.445C68.3117 172.685 95.3965 143.817 95.3965 143.817C95.3965 143.817 115.481 135.967 125.628 131.978C134.32 128.561 133.552 159.605 133.552 159.605Z" fill="#84524D"/>
<path d="M114.919 147.406C114.919 147.406 123.65 121.622 127.846 111.455C132.253 100.779 140.315 85.6574 142.416 86.8124C143.612 87.4703 142.939 89.7598 140.733 95.7601C141.148 95.5682 142.549 95.298 143.559 96.0901C145.053 97.2624 144.437 98.7298 144.444 98.8843C144.58 98.8079 146.169 98.0197 147.302 98.6351C148.578 99.3282 148.894 100.52 148.79 101.655C149.132 101.476 150.707 100.956 151.766 101.602C153.142 102.441 153.114 104.225 152.588 105.448C151.623 107.69 148.834 113.752 147.769 117.147C145.672 123.826 142.845 149.633 135.829 157.399C123.293 171.273 112.7 154.144 114.919 147.406Z" fill="#84524D"/>
<path d="M139.576 116.241C139.571 116.241 139.565 116.241 139.56 116.241C139.398 116.232 139.274 116.094 139.283 115.932C139.418 113.465 138.606 111.622 137.953 110.141C137.268 108.587 136.727 107.359 137.783 106.314C138.442 105.662 138.912 104.535 139.144 103.056C139.203 102.676 138.988 102.409 138.767 102.284C138.542 102.158 138.196 102.114 137.898 102.367L132.173 107.225C132.05 107.33 131.865 107.315 131.76 107.191C131.655 107.068 131.67 106.883 131.794 106.778L137.519 101.92C137.953 101.551 138.556 101.494 139.054 101.773C139.547 102.05 139.81 102.589 139.723 103.146C139.468 104.773 138.954 105.979 138.195 106.73C137.461 107.458 137.791 108.319 138.49 109.904C139.167 111.442 140.011 113.356 139.868 115.964C139.86 116.121 139.731 116.241 139.576 116.241Z" fill="#363E44"/>
<path d="M149.603 109.018C149.565 109.018 149.526 109.011 149.489 108.994C147.808 108.277 146.847 106.526 147.063 104.775L146.744 105.3C146.069 106.412 144.696 106.883 143.481 106.42C142.796 106.159 142.259 105.645 141.968 104.972C141.677 104.3 141.67 103.557 141.949 102.879L142.323 101.969C141.676 102.384 140.83 102.455 140.106 102.081C139.105 101.564 138.653 100.381 139.054 99.3281L140.033 96.759C140.091 96.6077 140.26 96.5321 140.412 96.5895C140.563 96.6472 140.639 96.8167 140.581 96.9679L139.602 99.5371C139.307 100.311 139.639 101.181 140.375 101.561C141.156 101.964 142.132 101.663 142.55 100.89L143.453 99.2227C143.527 99.0857 143.695 99.0306 143.836 99.0975C143.976 99.1643 144.041 99.3295 143.981 99.4735L142.491 103.102C142.273 103.632 142.278 104.214 142.506 104.74C142.734 105.266 143.154 105.668 143.689 105.872C144.641 106.235 145.715 105.867 146.242 104.996L147.771 102.477C147.849 102.349 148.01 102.301 148.146 102.364C148.282 102.427 148.347 102.583 148.298 102.725L147.808 104.141C147.216 105.85 148.055 107.745 149.719 108.455C149.867 108.519 149.937 108.691 149.873 108.84C149.826 108.951 149.717 109.018 149.603 109.018Z" fill="#363E44"/>
<path d="M121.246 133.699C121.246 133.699 89.0529 137.493 65.8123 135.669C54.8781 134.811 34.3376 134.717 27.4141 139.257C11.9357 149.409 7.77734 165.961 7.77734 165.961L34.676 170.883L24.7742 204.216C21.3383 215.782 23.4455 225.729 30.4819 235.531H47.2547L44.2223 219.421L53.1298 235.531L99.0141 201.766L99.5428 172.458L129.697 162.673L121.246 133.699Z" fill="#7567F5"/>
<path d="M98.8849 170.765C98.723 170.765 98.5918 170.634 98.5918 170.472V162.672C98.5918 162.51 98.723 162.379 98.8849 162.379C99.0467 162.379 99.1779 162.51 99.1779 162.672V170.472C99.1779 170.634 99.0467 170.765 98.8849 170.765Z" fill="#363E44"/>
<path d="M116.62 137.14C116.904 136.03 124.58 115.949 124.58 115.949L147.607 124.711C147.607 124.711 146.47 158.895 129.697 162.672C112.924 166.448 116.62 137.14 116.62 137.14Z" fill="#7567F5"/>
<path d="M77.7311 177.653C75.4052 178.467 65.198 180.305 63.7816 184.923C62.3551 189.575 64.4145 194.525 67.6146 198.168C67.6343 198.17 67.6561 198.172 67.6756 198.174C68.9052 198.715 70.8285 199.337 73.0298 198.983C75.5391 198.578 76.0059 197.292 78.5894 196.453C82.9501 195.037 85.9584 197.424 86.6408 195.95C87.1091 194.939 85.4169 193.472 83.5231 192.538C81.5787 191.578 79.913 191.777 79.8986 191.422C79.8829 191.032 81.6001 191.048 83.7384 190.873C84.7318 190.791 87.5895 192.245 88.4328 190.957C89.1052 189.929 86.5165 187.673 83.5538 187.194C81.4578 186.855 79.691 187.927 79.5607 187.563C79.4629 187.289 80.5314 186.676 81.6084 186.42C83.3855 185.999 86.3252 187.455 87.0784 186.254C87.8163 185.077 85.5206 183.147 82.8244 182.533C80.5511 182.016 78.6377 183.306 78.4731 182.854C78.3574 182.536 79.0946 181.781 81.0368 180.727C82.658 179.848 86.3731 179.179 85.7136 177.351C85.1591 175.814 81.2417 176.424 77.7311 177.653Z" fill="#84524D"/>
<path d="M27.744 190.18C22.6313 192.038 19.2306 197.005 19.5803 202.41C19.8096 205.953 21.6573 209.561 27.2679 211.604C40.9284 216.576 70.55 196.387 70.55 196.387L73.5584 178.824C56.1694 182.472 41.8166 185.067 27.744 190.18Z" fill="#84524D"/>
<path d="M45.3434 184.926L48.9603 210.796L26.0818 215.335C11.3893 218.25 -1.58966 205.354 1.25475 190.647C3.74377 177.779 7.46021 163.714 12.7823 154.691L41.0004 160.762L33.609 185.892L45.3434 184.926Z" fill="#7567F5"/>
<path d="M33.6096 186.184C33.5821 186.184 33.5545 186.18 33.5268 186.172C33.3716 186.126 33.2827 185.963 33.3284 185.808L36.6682 174.452C36.7139 174.297 36.8772 174.209 37.0321 174.254C37.1873 174.3 37.2762 174.463 37.2305 174.618L33.8907 185.973C33.853 186.101 33.7363 186.184 33.6096 186.184Z" fill="#363E44"/>
<path d="M21.8983 216.043C20.8028 216.043 19.7118 215.958 18.6305 215.789C18.4708 215.764 18.3614 215.614 18.3864 215.454C18.4114 215.294 18.5615 215.185 18.7212 215.21C21.1261 215.586 23.5836 215.531 26.0245 215.047L48.6316 210.562L47.8034 204.639C47.781 204.478 47.8927 204.33 48.053 204.308C48.2136 204.284 48.3614 204.397 48.3839 204.558L49.2504 210.755C49.2721 210.909 49.1698 211.053 49.0173 211.083L26.1388 215.622C24.7266 215.902 23.3088 216.043 21.8983 216.043Z" fill="#363E44"/>
<path d="M30.1316 186.472C29.9806 186.472 29.8525 186.356 29.8399 186.203C29.8266 186.041 29.9466 185.9 30.1078 185.887L45.3196 184.634C45.48 184.619 45.6223 184.741 45.6356 184.902C45.6489 185.063 45.5289 185.205 45.3677 185.218L30.1559 186.471C30.1477 186.471 30.1396 186.472 30.1316 186.472Z" fill="#363E44"/>
<path d="M70.1866 170.766C70.0248 170.766 69.8936 170.635 69.8936 170.473V147.985C57.1783 148.13 54.9515 139.636 54.9304 139.55C54.8918 139.393 54.9878 139.234 55.1448 139.196C55.3031 139.158 55.4606 139.253 55.4995 139.41C55.5834 139.747 57.6929 147.67 70.1803 147.394C70.2571 147.391 70.3352 147.422 70.3916 147.478C70.4479 147.533 70.4797 147.608 70.4797 147.687V170.473C70.4796 170.635 70.3484 170.766 70.1866 170.766Z" fill="#363E44"/>
<path d="M67.3629 142.674L66.1828 142.349C62.6944 141.39 60.6447 137.784 61.6046 134.295L67.7163 112.084C68.6762 108.596 72.2822 106.546 75.7706 107.506L76.9507 107.831C80.439 108.791 82.4888 112.397 81.5289 115.885L75.4172 138.096C74.4573 141.584 70.8513 143.634 67.3629 142.674Z" fill="#84524D"/>
<path d="M89.1335 125.638C87.1386 129.725 74.486 127.108 74.486 127.108L63.2618 120.324C60.2 114.707 62.2711 107.672 67.8878 104.61C73.5046 101.549 80.5398 103.62 83.6015 109.236C83.6015 109.236 91.1654 121.476 89.1335 125.638Z" fill="#84524D"/>
<path d="M83.8906 112.547C83.8906 112.547 88.3722 113.981 88.6507 114.852C88.983 115.893 86.1186 118.2 86.1186 118.2C86.1186 118.2 83.9704 112.513 83.8906 112.547Z" fill="#84524D"/>
<path d="M74.0361 114.805C74.0361 114.805 75.3785 113.426 77.327 112.812C77.7415 112.681 78.0051 116.245 77.5524 116.182C75.5619 115.901 74.0361 114.805 74.0361 114.805Z" fill="white"/>
<mask id="mask0_1140_15422" style="mask-type:luminance" maskUnits="userSpaceOnUse" x="74" y="112" width="10" height="5">
<path d="M74.0361 114.806C74.0361 114.806 76.0104 112.778 78.646 112.546C81.2816 112.313 83.5803 113.965 83.5803 113.965C83.5803 113.965 81.6059 115.993 78.9704 116.225C76.3348 116.458 74.0361 114.806 74.0361 114.806Z" fill="white"/>
</mask>
<g mask="url(#mask0_1140_15422)">
<path d="M77.383 112.703C78.2655 111.008 80.3549 110.349 82.0499 111.232C83.7449 112.114 84.4035 114.204 83.521 115.899C82.6386 117.594 80.5491 118.252 78.8541 117.37C77.1591 116.487 76.5005 114.398 77.383 112.703Z" fill="#363E44"/>
</g>
<path d="M55.79 109.945C55.79 109.945 56.7986 123.336 66.2312 123.694L67.4249 121.072L72.9917 120.874L68.5213 116.169C67.0335 114.241 67.6813 111.434 69.8635 110.352L79.3893 105.633L76.5669 100.689C68.2811 100.091 61.162 102.652 55.79 109.945Z" fill="#363E44"/>
<path d="M65.5399 103.095C64.6126 103.887 63.2188 103.777 62.4269 102.85C61.635 101.923 61.3303 100.043 62.2577 99.2516C63.185 98.4597 64.9933 99.0548 65.7852 99.9822C66.5772 100.909 66.4672 102.303 65.5399 103.095Z" fill="#363E44"/>
<path d="M67.2972 102.892C66.102 103.133 64.9371 102.36 64.6956 101.165C64.4541 99.9695 65.1009 98.1791 66.2961 97.9376C67.4914 97.6961 68.7826 99.0949 69.0243 100.29C69.2658 101.485 68.4925 102.65 67.2972 102.892Z" fill="#363E44"/>
<path d="M71.0756 102.49C69.4233 102.529 68.0515 101.222 68.0116 99.5699C67.9718 97.9175 69.2581 95.681 70.9104 95.6412C72.5628 95.6013 73.9554 97.7733 73.9953 99.4257C74.0351 101.078 72.728 102.45 71.0756 102.49Z" fill="#363E44"/>
<path d="M62.5456 104.915C61.6443 105.736 60.2477 105.672 59.4263 104.77C58.6049 103.869 58.2397 102.001 59.1409 101.18C60.0422 100.358 61.8687 100.895 62.6902 101.796C63.5116 102.697 63.4468 104.094 62.5456 104.915Z" fill="#363E44"/>
<path d="M73.7745 101.723C72.6243 100.805 72.4355 99.1295 73.3527 97.9792C74.27 96.829 76.426 96.0383 77.5762 96.9556C78.7265 97.8728 78.4352 100.151 77.5179 101.301C76.6005 102.451 74.9247 102.64 73.7745 101.723Z" fill="#363E44"/>
<path d="M60.4453 106.909C59.5296 108.121 57.8044 108.362 56.5921 107.446C55.3797 106.53 54.5046 104.326 55.4204 103.114C56.3361 101.901 58.6958 102.14 59.9082 103.056C61.1205 103.971 61.3609 105.696 60.4453 106.909Z" fill="#363E44"/>
<path d="M58.1934 108.522C57.972 109.687 56.8481 110.452 55.683 110.231C54.5179 110.009 53.1431 108.77 53.3645 107.605C53.5858 106.439 55.3196 105.79 56.4847 106.012C57.6498 106.233 58.4148 107.357 58.1934 108.522Z" fill="#363E44"/>
<path d="M75.8908 104.366C74.9105 102.865 75.333 100.853 76.8348 99.8721C78.3365 98.8917 81.1347 98.8012 82.115 100.303C83.0954 101.805 81.8868 104.33 80.3851 105.31C78.8834 106.291 76.8713 105.868 75.8908 104.366Z" fill="#363E44"/>
<path d="M61.3111 121.437C61.5249 123.633 63.4784 125.24 65.6745 125.026C67.8706 124.813 69.4776 122.859 69.2638 120.663C69.0499 118.467 67.0964 116.86 64.9004 117.074C62.7042 117.287 61.0973 119.241 61.3111 121.437Z" fill="#84524D"/>
<path d="M87.5639 116.855L91.0944 125.918C91.5859 127.18 90.9261 128.594 89.6446 129.031C89.3222 129.141 88.9722 129.257 88.5983 129.374C82.1267 131.409 75.0613 129.957 69.9211 125.53C68.1991 124.047 67.5717 121.655 68.3437 119.517L68.5983 118.813L70.7587 118.846C70.7587 118.846 74.4769 122.836 76.4091 122.261C78.3413 121.685 80.84 118.568 87.5639 116.855Z" fill="#363E44"/>
<path d="M83.7856 121.822C83.7372 121.822 83.6888 121.82 83.6402 121.817C82.9185 121.761 82.2772 121.289 82.0065 120.613C81.9463 120.463 82.0192 120.292 82.1694 120.232C82.3205 120.172 82.4905 120.245 82.5505 120.395C82.7388 120.865 83.1842 121.194 83.6851 121.232C84.2057 121.272 84.7041 121 84.9564 120.538C85.0339 120.396 85.2121 120.344 85.3542 120.422C85.4962 120.5 85.5484 120.678 85.4706 120.82C85.1316 121.44 84.4813 121.822 83.7856 121.822Z" fill="#84524D"/>
<path d="M67.4744 112.254C67.4559 112.254 67.4372 112.253 67.4185 112.249L61.6642 111.135C61.5053 111.105 61.4013 110.951 61.4322 110.792C61.463 110.633 61.6168 110.53 61.7756 110.56L67.5298 111.674C67.6888 111.704 67.7927 111.858 67.7619 112.017C67.7347 112.157 67.6121 112.254 67.4744 112.254Z" fill="#84524D"/>
<path d="M12.7899 24.1289H5.28516V51.5656H12.7899V24.1289Z" fill="#7567F5"/>
<path d="M51.5697 75.9902H0.629003C0.467118 75.9902 0.335938 75.859 0.335938 75.6972V39.8985C0.335938 39.7366 0.467118 39.6055 0.629003 39.6055C0.790888 39.6055 0.922069 39.7366 0.922069 39.8985V75.4041H51.5699C51.7317 75.4041 51.8629 75.5353 51.8629 75.6972C51.8629 75.859 51.7316 75.9902 51.5697 75.9902Z" fill="#7567F5"/>
<path d="M12.7899 51.5664H5.28516V70.7443H12.7899V51.5664Z" fill="white"/>
<path d="M25.1747 47.7461H17.6699V70.7445H25.1747V47.7461Z" fill="white"/>
<path d="M37.5595 33.6562H30.0547V70.7428H37.5595V33.6562Z" fill="white"/>
<path d="M49.9442 39.4727H42.4395V70.7437H49.9442V39.4727Z" fill="white"/>
<path d="M62.3466 24.1289H54.8418V70.7437H62.3466V24.1289Z" fill="white"/>
<path d="M74.7313 33.3398H67.2266V70.7427H74.7313V33.3398Z" fill="white"/>
<path d="M87.1171 46.6914H79.6123V70.7454H87.1171V46.6914Z" fill="white"/>
<path d="M99.5009 38.1016H91.9961V70.7445H99.5009V38.1016Z" fill="white"/>
<path d="M111.894 43.2617H104.39V70.7453H111.894V43.2617Z" fill="white"/>
<path d="M124.279 29.8711H116.774V70.745H124.279V29.8711Z" fill="white"/>
<path d="M136.682 51.5664H129.177V70.7443H136.682V51.5664Z" fill="white"/>
<path d="M25.1747 24.1289H17.6699V47.745H25.1747V24.1289Z" fill="#7567F5"/>
<path d="M37.5595 24.1289H30.0547V37.8473H37.5595V24.1289Z" fill="#7567F5"/>
<path d="M49.9442 24.1289H42.4395V39.4724H49.9442V24.1289Z" fill="#7567F5"/>
<path d="M74.7313 24.1289H67.2266V33.3408H74.7313V24.1289Z" fill="#7567F5"/>
<path d="M87.1171 24.1289H79.6123V46.6897H87.1171V24.1289Z" fill="#7567F5"/>
<path d="M99.5019 24.1289H91.9971V39.899H99.5019V24.1289Z" fill="#7567F5"/>
<path d="M111.894 24.1289H104.39V43.26H111.894V24.1289Z" fill="#7567F5"/>
<path d="M124.279 24.1289H116.774V29.8697H124.279V24.1289Z" fill="#7567F5"/>
<path d="M136.682 24.1055H129.177V51.5658H136.682V24.1055Z" fill="#7567F5"/>
<path d="M208.834 63.4463C201.793 63.4463 195.084 60.7281 189.943 55.7928C184.753 50.8105 181.895 44.2432 181.895 37.3013C181.895 22.8848 193.647 11.1562 208.093 11.1562C222.538 11.1562 234.29 22.8848 234.29 37.3013C234.29 51.962 223.109 63.4463 208.834 63.4463ZM208.093 11.7423C193.97 11.7423 182.481 23.208 182.481 37.3013C182.481 51.1556 194.549 62.8603 208.834 62.8603C222.78 62.8603 233.704 51.6334 233.704 37.3013C233.704 23.208 222.215 11.7423 208.093 11.7423Z" fill="#7567F5"/>
<path d="M220.354 57.9085C220.252 57.9085 220.153 57.8551 220.099 57.7598C220.019 57.6189 220.068 57.4401 220.209 57.3604C223.367 55.5731 225.42 53.023 227.532 49.7438C227.62 49.6076 227.801 49.5685 227.937 49.6561C228.073 49.7438 228.112 49.9251 228.025 50.0612C225.866 53.4133 223.76 56.0241 220.498 57.8704C220.452 57.8964 220.403 57.9085 220.354 57.9085Z" fill="#7567F5"/>
<path d="M231.451 36.4945C231.295 36.4945 231.165 36.372 231.158 36.2149C230.586 23.9027 220.454 14.258 208.093 14.258C197.458 14.258 188.243 21.4413 185.682 31.7264C185.643 31.8834 185.483 31.9795 185.327 31.9399C185.17 31.9008 185.074 31.7418 185.113 31.5847C187.739 21.0379 197.188 13.6719 208.093 13.6719C220.768 13.6719 231.157 23.562 231.744 36.1877C231.751 36.3493 231.626 36.4865 231.465 36.4941C231.46 36.4943 231.455 36.4945 231.451 36.4945Z" fill="#7567F5"/>
<path d="M208.092 58.7703C219.974 58.7703 229.605 49.1583 229.605 37.3012C229.605 25.4441 219.974 15.832 208.092 15.832C196.211 15.832 186.579 25.4441 186.579 37.3012C186.579 49.1583 196.211 58.7703 208.092 58.7703Z" fill="#7567F5"/>
<path d="M199.196 52.0594V41.8742H196.805V38.8228H199.196V35.8538H196.805V32.8024H199.196V22.6172H205.67L208.887 32.8024H212.639V22.6172H217.216V32.8024H219.567V35.8538H217.216V38.8228H219.567V41.8742H217.216V52.0594H210.701L207.402 41.8742H203.774V52.0594H199.196ZM203.774 38.8228H206.495L205.588 35.8538H203.691L203.774 38.8228ZM212.763 45.6266H212.969L212.804 41.8742H211.691L212.763 45.6266ZM203.609 32.8024H204.763L203.567 28.8438H203.402L203.609 32.8024ZM210.825 38.8228H212.722L212.639 35.8538H209.876L210.825 38.8228Z" fill="white"/>
<path d="M205.068 114.413C199.306 114.413 193.817 112.189 189.61 108.151C185.363 104.073 183.023 98.6989 183.023 93.0171C183.023 81.2192 192.641 71.6211 204.463 71.6211C216.284 71.6211 225.902 81.2192 225.902 93.0171C225.902 105.015 216.751 114.413 205.068 114.413ZM204.463 72.2072C192.964 72.2072 183.61 81.5426 183.61 93.0171C183.61 104.297 193.436 113.827 205.068 113.827C216.422 113.827 225.316 104.686 225.316 93.0171C225.316 81.5426 215.961 72.2072 204.463 72.2072Z" fill="#7567F5"/>
<path d="M214.472 109.89C214.37 109.89 214.271 109.837 214.217 109.742C214.137 109.601 214.187 109.422 214.327 109.342C216.895 107.888 218.567 105.812 220.286 103.142C220.374 103.006 220.555 102.967 220.691 103.055C220.827 103.142 220.866 103.324 220.779 103.46C219.013 106.203 217.288 108.339 214.616 109.852C214.571 109.878 214.521 109.89 214.472 109.89Z" fill="#7567F5"/>
<path d="M223.53 92.4135C223.374 92.4135 223.244 92.2911 223.237 92.134C222.772 82.1123 214.525 74.2619 204.463 74.2619C195.806 74.2619 188.305 80.1088 186.221 88.4805C186.182 88.6375 186.022 88.7333 185.866 88.694C185.709 88.6549 185.613 88.496 185.652 88.3389C187.802 79.7055 195.537 73.6758 204.463 73.6758C214.838 73.6758 223.342 81.7716 223.823 92.1067C223.83 92.2685 223.705 92.4055 223.544 92.4131C223.539 92.4134 223.534 92.4135 223.53 92.4135Z" fill="#7567F5"/>
<path d="M204.463 110.543C214.162 110.543 222.024 102.697 222.024 93.0176C222.024 83.3386 214.162 75.4922 204.463 75.4922C194.764 75.4922 186.901 83.3386 186.901 93.0176C186.901 102.697 194.764 110.543 204.463 110.543Z" fill="#7567F5"/>
<path d="M198.624 102.402V95.2092H196.935V93.0542H198.624V90.9575H196.935V88.8025H198.624V81.6094H203.196L205.467 88.8025H208.117V81.6094H211.35V88.8025H213.01V90.9575H211.35V93.0542H213.01V95.2092H211.35V102.402H206.749L204.419 95.2092H201.856V102.402H198.624ZM201.856 93.0542H203.778L203.138 90.9575H201.798L201.856 93.0542ZM208.205 97.8593H208.35L208.234 95.2092H207.448L208.205 97.8593ZM201.74 88.8025H202.555L201.711 86.0068H201.594L201.74 88.8025ZM206.836 93.0542H208.176L208.117 90.9575H206.166L206.836 93.0542Z" fill="white"/>
<path d="M172.892 152.256C163.92 152.256 156.34 144.898 156.34 136.189C156.34 127.329 163.562 120.121 172.44 120.121C181.317 120.121 188.54 127.329 188.54 136.189C188.54 145.198 181.666 152.256 172.892 152.256ZM172.44 120.707C163.885 120.707 156.926 127.652 156.926 136.189C156.926 144.58 164.238 151.67 172.892 151.67C181.338 151.67 187.953 144.87 187.953 136.189C187.953 127.652 180.994 120.707 172.44 120.707Z" fill="#7567F5"/>
<path d="M179.921 148.875C179.819 148.875 179.72 148.821 179.666 148.726C179.586 148.585 179.636 148.406 179.777 148.327C181.683 147.247 182.926 145.703 184.205 143.716C184.293 143.58 184.474 143.541 184.61 143.629C184.746 143.717 184.785 143.898 184.698 144.034C183.372 146.093 182.076 147.698 180.065 148.836C180.02 148.863 179.97 148.875 179.921 148.875Z" fill="#7567F5"/>
<path d="M186.693 135.811C186.537 135.811 186.407 135.688 186.4 135.531C186.054 128.079 179.922 122.242 172.44 122.242C166.004 122.242 160.426 126.59 158.876 132.815C158.837 132.972 158.678 133.068 158.521 133.028C158.364 132.989 158.268 132.83 158.308 132.673C159.922 126.187 165.734 121.656 172.44 121.656C180.236 121.656 186.625 127.739 186.986 135.504C186.993 135.666 186.868 135.803 186.706 135.81C186.702 135.81 186.697 135.811 186.693 135.811Z" fill="#7567F5"/>
<path d="M172.439 149.29C179.689 149.29 185.566 143.425 185.566 136.19C185.566 128.955 179.689 123.09 172.439 123.09C165.19 123.09 159.312 128.955 159.312 136.19C159.312 143.425 165.19 149.29 172.439 149.29Z" fill="#7567F5"/>
<path d="M166.69 145.102V138.846H165.221V136.971H166.69V135.147H165.221V133.273H166.69V127.016H170.667L172.643 133.273H174.948V127.016H177.76V133.273H179.204V135.147H177.76V136.971H179.204V138.846H177.76V145.102H173.757L171.731 138.846H169.502V145.102H166.69ZM169.502 136.971H171.174L170.616 135.147H169.451L169.502 136.971ZM175.024 141.151H175.151L175.049 138.846H174.365L175.024 141.151ZM169.4 133.273H170.11L169.375 130.841H169.274L169.4 133.273ZM173.833 136.971H174.999L174.948 135.147H173.251L173.833 136.971Z" fill="white"/>
</svg>
