<svg width="75" height="75" viewBox="0 0 75 75" fill="none" xmlns="http://www.w3.org/2000/svg">
<path d="M56.6451 41.2142C55.5456 41.8489 55.1689 43.2548 55.8037 44.3542L55.3966 43.6491C54.7618 42.5497 53.356 42.173 52.2566 42.8077C51.1572 43.4425 50.7805 44.8483 51.4152 45.9477L51.0082 45.2426C50.3734 44.1432 48.9676 43.7665 47.8682 44.4012C46.7689 45.0359 46.3922 46.4413 47.0266 47.5407L42.5924 39.8606C41.9577 38.7612 40.5518 38.3845 39.4524 39.0193C38.353 39.654 37.9763 41.0598 38.6111 42.1593L47.8716 58.1989L43.6553 56.7335C42.6403 56.3808 41.5142 56.7374 40.8872 57.6101C40.0551 58.7683 40.3961 60.3909 41.6241 61.1162L48.4194 65.1299C51.2013 66.773 54.6526 66.7901 57.4507 65.1747L61.4575 62.8614C65.7404 60.3886 67.2078 54.9121 64.735 50.6292L61.749 45.4572L61.2997 44.6791L59.785 42.0555C59.1503 40.9561 57.7445 40.5794 56.6451 41.2142Z" fill="#23D9EF"/>
<path d="M37.4996 12.4922C32.0978 12.4922 27.7188 16.8713 27.7188 22.2731C27.7188 27.675 32.0978 32.054 37.4996 32.054C42.9014 32.054 47.2805 27.6749 47.2805 22.2731C47.2805 16.8713 42.9014 12.4922 37.4996 12.4922ZM40.611 19.9274C40.611 20.2506 40.3477 20.5131 40.0244 20.5131C39.7012 20.5131 39.4379 20.2506 39.4379 19.9274V19.1298C39.4379 18.4017 38.8457 17.8088 38.1176 17.8088H36.8816C36.1535 17.8088 35.5605 18.4017 35.5605 19.1298V20.3665C35.5605 21.0947 36.1535 21.6876 36.8816 21.6876H38.1176C39.4923 21.6876 40.611 22.8056 40.611 24.1796V25.4162C40.611 26.791 39.4923 27.9089 38.1176 27.9089H38.0854V28.8151C38.0854 29.1384 37.8229 29.4009 37.4996 29.4009C37.1763 29.4009 36.9138 29.1384 36.9138 28.8151V27.9089H36.8816C35.5069 27.9089 34.389 26.791 34.389 25.4162V24.6194C34.389 24.2961 34.6515 24.0336 34.9748 24.0336C35.298 24.0336 35.5605 24.2961 35.5605 24.6194V25.4162C35.5605 26.1444 36.1535 26.7373 36.8816 26.7373H38.1176C38.8457 26.7373 39.438 26.1444 39.438 25.4162V24.1796C39.438 23.4514 38.8457 22.8592 38.1176 22.8592H36.8816C35.5069 22.8592 34.389 21.7413 34.389 20.3665V19.1298C34.389 17.7551 35.5069 16.6372 36.8816 16.6372H36.9138V15.7317C36.9138 15.4084 37.1763 15.1459 37.4996 15.1459C37.8229 15.1459 38.0854 15.4084 38.0854 15.7317V16.6372H38.1176C39.4923 16.6372 40.611 17.7551 40.611 19.1298V19.9274Z" fill="#7467F4"/>
<path d="M65.2465 25.7311C64.979 25.5451 64.6157 25.6102 64.4297 25.8755L61.9978 29.3552C61.8133 29.6206 61.8776 29.9854 62.1423 30.1706C62.2453 30.2422 62.3626 30.2765 62.4785 30.2765C62.663 30.2765 62.8447 30.1892 62.9591 30.0262L65.391 26.5464C65.5755 26.2811 65.5111 25.9163 65.2465 25.7311Z" fill="#0B215D"/>
<path d="M68.8998 34.5373L64.5982 34.5352C64.2749 34.5352 64.0132 34.7969 64.0117 35.1209C64.0117 35.4442 64.2749 35.7067 64.5982 35.7067L68.8998 35.7089C69.2231 35.7089 69.4848 35.4471 69.4863 35.1231C69.4863 34.7998 69.2231 34.5373 68.8998 34.5373Z" fill="#0B215D"/>
<path d="M10.5727 25.8752C10.3867 25.6106 10.0226 25.5455 9.75656 25.73C9.4912 25.916 9.42611 26.2807 9.61136 26.5461L12.0425 30.0258C12.157 30.1889 12.3386 30.2762 12.5239 30.2762C12.6398 30.2762 12.7563 30.2418 12.8586 30.171C13.124 29.9851 13.1891 29.6203 13.0038 29.3549L10.5727 25.8752Z" fill="#0B215D"/>
<path d="M10.4049 34.5352L6.10337 34.5373C5.77936 34.5373 5.51758 34.7998 5.51758 35.1231C5.51758 35.4471 5.78008 35.7089 6.10337 35.7089L10.4049 35.7067C10.7289 35.7067 10.9907 35.4442 10.9907 35.1209C10.9907 34.7969 10.7282 34.5352 10.4049 34.5352Z" fill="#0B215D"/>
<path d="M51.2426 1.75781H23.7596C19.8021 1.75781 16.582 4.97789 16.582 8.9354V66.0643C16.582 70.0218 19.8021 73.2419 23.7596 73.2419H51.2426C54.0078 73.2419 56.5584 71.6247 57.7371 69.1213C57.8759 68.8288 57.75 68.4797 57.4582 68.3417C57.1649 68.2058 56.8159 68.3274 56.6785 68.6221C55.6901 70.7163 53.5572 72.0703 51.2426 72.0703H23.7596C20.448 72.0703 17.7536 69.3759 17.7536 66.0643V8.9354C17.7536 5.62377 20.448 2.92939 23.7596 2.92939H45.7604L45.0056 5.14668C44.698 6.04934 43.8497 6.65587 42.897 6.65587H32.1045C31.1511 6.65587 30.3035 6.04934 29.9959 5.14739C29.8908 4.83983 29.5539 4.67747 29.2528 4.78189C28.946 4.88632 28.7829 5.21892 28.8873 5.52504C29.3565 6.90262 30.6497 7.82745 32.1045 7.82745H42.897C44.3519 7.82745 45.645 6.90262 46.1157 5.52504L46.9991 2.92938H51.2426C54.5543 2.92938 57.2479 5.62375 57.2479 8.93539V37.4999C57.2479 37.8231 57.5111 38.0856 57.8344 38.0856C58.1577 38.0856 58.4209 37.8231 58.4209 37.4999V8.9354C58.4209 4.97789 55.2008 1.75781 51.2426 1.75781Z" fill="#0B215D"/>
<path d="M31.5057 69.4528H43.4941C43.8174 69.4528 44.0806 69.1903 44.0806 68.867C44.0806 68.5437 43.8174 68.2812 43.4941 68.2812H31.5057C31.1824 68.2812 30.9199 68.5437 30.9199 68.867C30.9199 69.1903 31.1824 69.4528 31.5057 69.4528Z" fill="#0B215D"/>
<path d="M44.7769 40.7217C45.1002 40.7217 45.3634 40.4592 45.3634 40.1359V38.0524C45.3634 36.8386 44.3749 35.8516 43.1618 35.8516H31.8415C30.6277 35.8516 29.6406 36.8386 29.6406 38.0524V40.1359C29.6406 41.3497 30.6277 42.3375 31.8415 42.3375H36.5486C36.8719 42.3375 37.1344 42.075 37.1344 41.7517C37.1344 41.4284 36.8719 41.1659 36.5486 41.1659H31.8415C31.2743 41.1659 30.8122 40.7039 30.8122 40.136V38.0524C30.8122 37.4852 31.2743 37.0232 31.8415 37.0232H43.1618C43.7297 37.0232 44.1904 37.4852 44.1904 38.0524V40.136C44.1904 40.4592 44.4536 40.7217 44.7769 40.7217Z" fill="#0B215D"/>
<path d="M38.5074 48.4764C38.5074 48.1531 38.2449 47.8906 37.9216 47.8906H23.1444C22.8211 47.8906 22.5586 48.1531 22.5586 48.4764C22.5586 48.7997 22.8211 49.0622 23.1444 49.0622H37.9216C38.2449 49.0622 38.5074 48.7997 38.5074 48.4764Z" fill="#0B215D"/>
<path d="M27.5389 55.0153H40.852C41.1753 55.0153 41.4385 54.7528 41.4385 54.4295C41.4385 54.1063 41.1753 53.8438 40.852 53.8438H27.5389C27.2156 53.8438 26.9531 54.1063 26.9531 54.4295C26.9531 54.7528 27.2156 55.0153 27.5389 55.0153Z" fill="#0B215D"/>
</svg>
