<svg width="300" height="300" viewBox="0 0 300 300" fill="none" xmlns="http://www.w3.org/2000/svg">
<path d="M300 229.438H0V229.588H300V229.438Z" fill="#EBEBEB"/>
<path d="M269.941 239.094H250.067V239.244H269.941V239.094Z" fill="#EBEBEB"/>
<path d="M180.865 239.172H175.649V239.322H180.865V239.172Z" fill="#EBEBEB"/>
<path d="M249.467 233.523H212.6V233.673H249.467V233.523Z" fill="#EBEBEB"/>
<path d="M135.088 237.062H127.473V237.213H135.088V237.062Z" fill="#EBEBEB"/>
<path d="M122.13 237.062H100.03V237.213H122.13V237.062Z" fill="#EBEBEB"/>
<path d="M46.7336 234.531H31.4756V234.681H46.7336V234.531Z" fill="#EBEBEB"/>
<path d="M95.2674 234.531H50.334V234.681H95.2674V234.531Z" fill="#EBEBEB"/>
<path d="M142.208 202.678H26.3486C24.4604 202.678 22.9238 201.141 22.9238 199.253V36.3936C22.9238 34.5054 24.4604 32.9688 26.3486 32.9688H142.208C144.096 32.9688 145.632 34.5054 145.632 36.3936V199.253C145.632 201.141 144.096 202.678 142.208 202.678ZM26.3486 33.1193C24.5426 33.1193 23.0738 34.5881 23.0738 36.3942V199.253C23.0738 201.059 24.5426 202.528 26.3486 202.528H142.208C144.013 202.528 145.482 201.059 145.482 199.253V36.3936C145.482 34.5882 144.013 33.1188 142.208 33.1188L26.3486 33.1193Z" fill="#EBEBEB"/>
<path d="M271.986 202.678H156.127C154.239 202.678 152.703 201.141 152.703 199.253V36.3936C152.703 34.5054 154.24 32.9688 156.127 32.9688H271.986C273.875 32.9688 275.411 34.5054 275.411 36.3936V199.253C275.412 201.141 273.875 202.678 271.986 202.678ZM156.127 33.1193C154.322 33.1193 152.853 34.5881 152.853 36.3942V199.253C152.853 201.059 154.322 202.528 156.127 202.528H271.986C273.792 202.528 275.261 201.059 275.261 199.253V36.3936C275.261 34.5882 273.792 33.1188 271.986 33.1188L156.127 33.1193Z" fill="#EBEBEB"/>
<path d="M114.467 149.703L260.291 149.703V43.1833L114.467 43.1833V149.703Z" fill="#E6E6E6"/>
<path d="M108.02 149.703L258.795 149.703V43.1833L108.02 43.1833V149.703Z" fill="#F0F0F0"/>
<path d="M249.77 140.672L249.77 52.2031L117.045 52.2031L117.045 140.672L249.77 140.672Z" fill="#FAFAFA"/>
<path d="M217.506 140.672L187.291 52.2031H158.438L188.653 140.672H217.506Z" fill="white"/>
<path d="M182.455 140.672L152.24 52.2031H140.991L171.207 140.672H182.455Z" fill="white"/>
<path d="M118.191 140.672L118.191 52.2031H117.045L117.045 140.672H118.191Z" fill="#E6E6E6"/>
<path d="M38.7459 120.719H90.2373L90.2373 47.7161H38.7459L38.7459 120.719Z" fill="#E0E0E0"/>
<path d="M35.0986 120.719H88.1758L88.1758 47.7161H35.0986L35.0986 120.719Z" fill="#F5F5F5"/>
<path d="M82.9375 114.965L82.9375 53.4688L40.3387 53.4687L40.3387 114.965H82.9375Z" fill="white"/>
<path d="M58.7574 171.836C62.58 162.405 71.6706 158.894 74.811 152.939C78.9258 145.137 78.9024 133.434 75.399 129.211C72.3552 125.541 62.2746 150.356 61.1394 153.129C57.234 162.665 56.0988 169.741 55.3668 176.597C55.4502 170.769 55.53 165.419 55.5954 161.29C55.809 147.824 56.076 143.493 56.1978 142.16C56.6184 141.509 57.1158 140.751 57.4044 140.344C59.844 136.905 65.2566 132.81 67.9614 127.811C71.9112 120.51 71.2728 111.773 68.5026 108.52C65.6058 105.119 60.4854 113.158 57.7662 121.124C55.0476 129.09 56.2092 136.715 55.4466 143.331C55.287 144.629 55.1232 149.557 54.9696 156.393C54.1446 149.037 52.5018 144.11 49.4574 139.517C45.7128 133.869 42.48 126.991 39.3942 127.88C36.309 128.769 37.9698 137.87 40.4106 144.259C42.5844 149.949 53.3088 155.624 54.8886 160.199C54.7026 169.465 54.5364 181.205 54.4182 192.135C53.5728 186.489 54.1542 186.015 50.6898 177.372C48.63 172.233 40.1862 165.896 39.1794 169.427C38.1912 172.892 39.7032 179.631 42.891 184.304C45.4626 188.075 51.168 188.07 52.488 190.41C52.7958 190.956 53.8146 193.048 54.396 194.251C54.258 207.596 54.1968 219.375 54.2646 223.391L54.8178 223.431C54.7914 222.395 54.858 215.606 54.9666 206.623C56.352 201.843 65.679 199.053 68.5602 194.082C71.5758 188.88 73.7424 182.809 72.4494 178.744C71.3712 175.355 62.8716 179.964 59.4222 185.58C57.1248 189.32 55.7214 193.313 55.0662 198.676C55.1448 192.557 55.2342 185.982 55.3212 179.777C56.0196 178.229 57.612 174.662 58.7574 171.836Z" fill="#E6E6E6"/>
<path d="M64.235 229.431H44.6301C43.5591 229.431 42.6356 228.677 42.4232 227.627L41.0312 220.766H67.8344L66.4424 227.627C66.2294 228.677 65.3066 229.431 64.235 229.431Z" fill="#F0F0F0"/>
<path d="M68.3944 223.428H40.4698C39.8008 223.428 39.238 222.925 39.1636 222.261L38.5924 217.188C38.5048 216.409 39.1144 215.727 39.8986 215.727H68.965C69.7492 215.727 70.3594 216.409 70.2712 217.188L69.7 222.261C69.6256 222.925 69.0634 223.428 68.3944 223.428Z" fill="#F0F0F0"/>
<path d="M243.383 225.062H249.376V160.567H243.383V225.062Z" fill="#F0F0F0"/>
<path d="M121.237 229.359L247.074 229.359V225.061L121.237 225.061V229.359Z" fill="#F0F0F0"/>
<path d="M243.382 160.562H118.936V225.058H243.382V160.562Z" fill="#F5F5F5"/>
<path d="M244.793 160.562H250.986V156.498H244.793V160.562Z" fill="#E0E0E0"/>
<path d="M244.793 156.5H117.325V160.565H244.793V156.5Z" fill="#EBEBEB"/>
<path d="M234.451 188.418H127.867C125.21 188.418 123.049 186.257 123.049 183.599V169.787C123.049 167.13 125.211 164.969 127.867 164.969H234.451C237.108 164.969 239.269 167.13 239.269 169.787V183.599C239.269 186.257 237.108 188.418 234.451 188.418ZM127.867 166.169C125.872 166.169 124.249 167.792 124.249 169.787V183.599C124.249 185.594 125.872 187.218 127.867 187.218H234.451C236.446 187.218 238.069 185.594 238.069 183.599V169.787C238.069 167.792 236.446 166.169 234.451 166.169H127.867Z" fill="white"/>
<path d="M234.451 217.309H127.867C125.21 217.309 123.049 215.147 123.049 212.49V198.678C123.049 196.021 125.211 193.859 127.867 193.859H234.451C237.108 193.859 239.269 196.021 239.269 198.678V212.49C239.269 215.147 237.108 217.309 234.451 217.309ZM127.867 195.059C125.872 195.059 124.249 196.683 124.249 198.678V212.49C124.249 214.485 125.872 216.109 127.867 216.109H234.451C236.446 216.109 238.069 214.485 238.069 212.49V198.678C238.069 196.683 236.446 195.059 234.451 195.059H127.867Z" fill="white"/>
<path d="M210.229 178.822H152.089C151.23 178.822 150.531 178.123 150.531 177.264V176.129C150.531 175.269 151.23 174.57 152.089 174.57H210.229C211.089 174.57 211.788 175.269 211.788 176.129V177.264C211.788 178.123 211.089 178.822 210.229 178.822ZM152.089 175.771C151.896 175.771 151.731 175.935 151.731 176.129V177.264C151.731 177.458 151.895 177.623 152.089 177.623H210.229C210.423 177.623 210.588 177.459 210.588 177.264V176.129C210.588 175.935 210.424 175.771 210.229 175.771H152.089Z" fill="white"/>
<path d="M210.229 207.713H152.089C151.23 207.713 150.531 207.014 150.531 206.154V205.019C150.531 204.16 151.23 203.461 152.089 203.461H210.229C211.089 203.461 211.788 204.16 211.788 205.019V206.154C211.788 207.014 211.089 207.713 210.229 207.713ZM152.089 204.662C151.896 204.662 151.731 204.825 151.731 205.02V206.155C151.731 206.349 151.895 206.513 152.089 206.513H210.229C210.423 206.513 210.588 206.349 210.588 206.155V205.02C210.588 204.826 210.424 204.662 210.229 204.662H152.089Z" fill="white"/>
<path d="M146.999 256.533C211.249 256.533 263.333 253.491 263.333 249.739C263.333 245.987 211.249 242.945 146.999 242.945C82.7503 242.945 30.666 245.987 30.666 249.739C30.666 253.491 82.7503 256.533 146.999 256.533Z" fill="#F5F5F5"/>
<path d="M224.863 100.654L224.635 104.188L225.234 104.226L225.462 100.692L224.863 100.654Z" fill="#7567F5"/>
<path d="M225.792 86.3183L225.043 97.9297L225.642 97.9683L226.391 86.357L225.792 86.3183Z" fill="#7567F5"/>
<path d="M218.664 69.4453H148.131C144.437 69.4453 141.218 72.4681 140.979 76.1629L131.87 216.862C131.63 220.557 134.457 223.58 138.152 223.58H208.685C212.379 223.58 215.598 220.557 215.837 216.862L224.946 76.1629C225.186 72.4681 222.359 69.4453 218.664 69.4453Z" fill="#7567F5"/>
<path opacity="0.7" d="M216.425 69.4453H148.131C144.437 69.4453 141.218 72.4681 140.979 76.1629L131.87 216.862C131.63 220.557 134.457 223.58 138.152 223.58H206.446C210.141 223.58 213.359 220.557 213.599 216.862L222.708 76.1629C222.947 72.4681 220.119 69.4453 216.425 69.4453Z" fill="white"/>
<path d="M210.667 213.181H135.543C134.356 213.181 133.417 212.178 133.494 210.994L141.736 83.679C141.807 82.5984 142.703 81.7578 143.786 81.7578H218.91C220.096 81.7578 221.036 82.7604 220.959 83.9442L212.716 211.259C212.646 212.34 211.75 213.181 210.667 213.181Z" fill="white"/>
<path d="M193.973 77.5909H166.668C166.067 77.5909 165.611 77.1037 165.65 76.5025C165.689 75.9013 166.208 75.4141 166.809 75.4141H194.114C194.715 75.4141 195.171 75.9013 195.132 76.5025C195.093 77.1037 194.574 77.5909 193.973 77.5909Z" fill="white"/>
<path d="M172.661 218.534C172.585 220.011 171.326 221.208 169.848 221.208C168.371 221.208 167.236 220.011 167.312 218.534C167.388 217.057 168.648 215.859 170.125 215.859C171.602 215.859 172.738 217.057 172.661 218.534Z" fill="white"/>
<path opacity="0.2" d="M202.482 117.023H138.333L134.258 179.968H202.482C206.177 179.968 209.2 176.945 209.2 173.25V123.74C209.2 120.046 206.177 117.023 202.482 117.023Z" fill="#7567F5"/>
<path d="M196.507 174.375H117.889C114.195 174.375 111.172 171.352 111.172 167.657V118.147C111.172 114.452 114.195 111.43 117.889 111.43H196.508C200.203 111.43 203.226 114.452 203.226 118.147V167.657C203.225 171.352 200.202 174.375 196.507 174.375Z" fill="#7567F5"/>
<path d="M109.028 110.706C108.874 110.706 108.72 110.647 108.603 110.53L107.528 109.454C107.293 109.219 107.293 108.84 107.528 108.606C107.762 108.371 108.141 108.371 108.376 108.606L109.452 109.681C109.686 109.916 109.686 110.295 109.452 110.53C109.335 110.647 109.181 110.706 109.028 110.706Z" fill="#7567F5"/>
<path d="M107.406 114.473H105.885C105.553 114.473 105.285 114.205 105.285 113.873C105.285 113.542 105.553 113.273 105.885 113.273H107.406C107.738 113.273 108.006 113.542 108.006 113.873C108.006 114.205 107.738 114.473 107.406 114.473Z" fill="#7567F5"/>
<path d="M112.845 109.085C112.533 109.085 112.27 108.844 112.248 108.528L112.139 107.01C112.115 106.68 112.364 106.393 112.695 106.369C113.032 106.344 113.312 106.594 113.336 106.924L113.444 108.442C113.468 108.772 113.219 109.059 112.889 109.083C112.874 109.084 112.86 109.085 112.845 109.085Z" fill="#7567F5"/>
<path d="M163.916 167.906L188.049 192.039V167.906H163.916Z" fill="#7567F5"/>
<path d="M170.531 157.335L169.362 152.239C169.056 150.902 169.052 149.514 169.352 148.176L170.978 140.917C172.428 134.446 169.143 127.98 163.452 125.135C163.501 125 163.556 124.868 163.588 124.725C164.003 122.874 162.838 121.037 160.988 120.623C159.137 120.208 157.3 121.372 156.886 123.223C156.853 123.367 156.848 123.509 156.834 123.652C150.473 123.797 144.744 128.243 143.294 134.715L141.668 141.974C141.368 143.312 140.772 144.566 139.925 145.645L136.693 149.755C135.316 151.507 136.238 154.098 138.414 154.585L166.914 160.97C169.09 161.458 171.03 159.508 170.531 157.335Z" fill="white"/>
<path d="M149.007 158.908C148.069 158.698 147.227 159.512 147.388 160.459C147.713 162.372 149.159 163.992 151.17 164.443C153.181 164.893 155.179 164.045 156.29 162.454C156.84 161.666 156.425 160.57 155.488 160.36L149.007 158.908Z" fill="white"/>
<path d="M127.12 148.793C126.83 148.793 126.545 148.653 126.371 148.393C123.516 144.117 122.497 138.986 123.502 133.944C124.507 128.902 127.415 124.553 131.691 121.698C132.104 121.422 132.662 121.534 132.939 121.947C133.215 122.361 133.103 122.92 132.691 123.196C128.815 125.784 126.178 129.726 125.267 134.296C124.357 138.866 125.28 143.518 127.868 147.394C128.144 147.807 128.032 148.366 127.619 148.642C127.466 148.744 127.292 148.793 127.12 148.793Z" fill="white"/>
<path d="M130.935 146.244C130.645 146.244 130.36 146.104 130.186 145.844C128.012 142.587 127.236 138.679 128.001 134.838C128.766 130.998 130.982 127.686 134.238 125.511C134.651 125.235 135.21 125.346 135.486 125.76C135.762 126.174 135.651 126.733 135.238 127.009C132.381 128.916 130.438 131.822 129.766 135.191C129.094 138.56 129.775 141.988 131.682 144.845C131.958 145.259 131.847 145.817 131.434 146.093C131.281 146.195 131.107 146.244 130.935 146.244Z" fill="white"/>
<path d="M134.75 143.703C134.459 143.703 134.174 143.563 134.001 143.303C132.506 141.066 131.973 138.38 132.499 135.741C133.025 133.102 134.547 130.826 136.785 129.332C137.198 129.055 137.756 129.167 138.033 129.581C138.309 129.994 138.197 130.553 137.785 130.829C135.946 132.056 134.697 133.926 134.265 136.093C133.832 138.26 134.271 140.466 135.498 142.304C135.774 142.718 135.662 143.276 135.25 143.552C135.095 143.654 134.922 143.703 134.75 143.703Z" fill="white"/>
<path d="M179.007 161.465C178.681 161.465 178.367 161.287 178.207 160.978C177.979 160.536 178.152 159.993 178.594 159.765C182.735 157.627 185.796 154.004 187.212 149.565C188.628 145.125 188.23 140.399 186.093 136.258C185.865 135.816 186.038 135.273 186.48 135.045C186.921 134.819 187.464 134.99 187.692 135.432C190.051 140 190.489 145.214 188.927 150.111C187.365 155.01 183.988 159.006 179.42 161.364C179.287 161.432 179.146 161.465 179.007 161.465Z" fill="white"/>
<path d="M176.904 157.387C176.578 157.387 176.264 157.209 176.103 156.899C175.875 156.458 176.049 155.914 176.49 155.687C179.543 154.111 181.799 151.441 182.843 148.168C183.887 144.895 183.594 141.412 182.018 138.359C181.79 137.918 181.963 137.375 182.405 137.147C182.846 136.92 183.389 137.092 183.617 137.534C185.414 141.013 185.748 144.984 184.557 148.715C183.368 152.446 180.795 155.489 177.317 157.286C177.184 157.354 177.043 157.387 176.904 157.387Z" fill="white"/>
<path d="M174.799 153.315C174.473 153.315 174.159 153.138 173.999 152.829C173.771 152.387 173.944 151.844 174.386 151.616C176.35 150.603 177.801 148.884 178.472 146.779C179.144 144.673 178.956 142.433 177.941 140.469C177.713 140.027 177.887 139.484 178.328 139.256C178.771 139.029 179.313 139.201 179.541 139.643C182.089 144.579 180.147 150.667 175.211 153.216C175.079 153.283 174.938 153.315 174.799 153.315Z" fill="white"/>
<path d="M232.071 232.515C227.63 222.038 225.836 209.73 230.919 210.225C236.133 210.733 235.518 229.308 236.367 231.348C234.736 232.745 232.071 232.515 232.071 232.515Z" fill="#7567F5"/>
<path d="M233.508 212.641C232.412 216.634 231.26 222.81 230.373 228.042C230.877 229.541 231.446 231.047 232.066 232.517C232.066 232.517 234.733 232.748 236.369 231.35C235.699 229.743 235.937 217.837 233.508 212.641Z" fill="#263238"/>
<path d="M233.53 230.594C232.142 208.332 235.948 187.7 245.916 188.632C254.485 189.433 241.992 226.91 242.233 231.234C238.309 232.756 233.53 230.594 233.53 230.594Z" fill="#7567F5"/>
<path d="M240.01 230.446C241.581 214.447 250.018 195.776 253.645 202.013C258.249 209.931 246.454 228.797 246.129 231.901C243.162 232.533 240.01 230.446 240.01 230.446Z" fill="#7567F5"/>
<path d="M238.42 194.572C237.41 194.407 236.846 193.774 236.909 192.881C236.982 191.876 237.809 190.874 238.58 190.859C238.946 190.862 239.573 191.05 239.727 192.442L239.131 192.508C239.058 191.85 238.859 191.459 238.596 191.459C238.595 191.459 238.593 191.459 238.591 191.459C238.181 191.467 237.559 192.207 237.507 192.924C237.465 193.508 237.805 193.863 238.517 193.981L238.42 194.572Z" fill="#7567F5"/>
<path d="M249.198 198.612C248.895 198.612 248.496 198.495 247.972 198.151L248.3 197.649C248.858 198.013 249.289 198.109 249.453 197.901C249.708 197.58 249.534 196.629 249.014 196.133C248.59 195.728 248.1 195.764 247.556 196.238L247.162 195.786C247.933 195.114 248.781 195.081 249.428 195.699C250.157 196.395 250.401 197.67 249.922 198.274C249.798 198.431 249.573 198.612 249.198 198.612Z" fill="#7567F5"/>
<path d="M234.488 207.662C233.678 207.662 233.103 207.239 232.919 206.484C232.68 205.505 233.161 204.299 233.89 204.049C234.233 203.932 234.893 203.925 235.467 205.204L234.92 205.45C234.647 204.842 234.338 204.531 234.084 204.616C233.697 204.749 233.331 205.643 233.502 206.342C233.64 206.911 234.074 207.144 234.785 207.039L234.874 207.632C234.74 207.652 234.612 207.662 234.488 207.662Z" fill="#7567F5"/>
<path d="M228.104 220.093C227.489 220.093 226.998 219.782 226.729 219.195C226.309 218.279 226.553 217.002 227.221 216.618C227.536 216.438 228.183 216.307 228.988 217.454L228.497 217.799C228.114 217.254 227.748 217.007 227.52 217.139C227.165 217.343 226.975 218.29 227.274 218.944C227.519 219.477 227.988 219.624 228.667 219.385L228.866 219.951C228.597 220.046 228.341 220.093 228.104 220.093Z" fill="#7567F5"/>
<path d="M238.733 201.971C238.672 201.971 238.612 201.953 238.558 201.916C237.734 201.326 237.437 200.512 237.766 199.737C238.113 198.92 239.054 198.376 239.863 198.524C240.233 198.592 241.101 198.923 241.162 200.52C241.168 200.685 241.039 200.825 240.873 200.831C240.712 200.836 240.568 200.708 240.562 200.543C240.53 199.712 240.244 199.205 239.755 199.115C239.225 199.018 238.553 199.418 238.318 199.972C238.101 200.485 238.31 201.001 238.907 201.428C239.042 201.524 239.072 201.712 238.976 201.847C238.918 201.928 238.826 201.971 238.733 201.971Z" fill="white"/>
<path d="M245.847 218.172C245.708 218.172 245.583 218.074 245.554 217.933C245.52 217.771 245.624 217.612 245.787 217.578C246.601 217.409 247.053 217.041 247.06 216.544C247.068 216.006 246.561 215.41 245.975 215.271C245.437 215.142 244.959 215.434 244.638 216.094C244.566 216.244 244.385 216.304 244.237 216.232C244.088 216.16 244.026 215.98 244.099 215.832C244.543 214.92 245.293 214.491 246.115 214.687C246.979 214.893 247.672 215.73 247.66 216.553C247.655 216.929 247.473 217.84 245.909 218.164C245.888 218.17 245.867 218.172 245.847 218.172Z" fill="white"/>
<path d="M254.279 213.109C253.935 213.109 253.472 212.903 252.951 212.127L253.449 211.793C253.821 212.346 254.178 212.596 254.413 212.473C254.772 212.277 254.982 211.333 254.696 210.673C254.463 210.135 253.997 209.979 253.313 210.203L253.125 209.634C254.096 209.313 254.89 209.613 255.246 210.435C255.647 211.36 255.376 212.63 254.7 213C254.595 213.058 254.452 213.109 254.279 213.109Z" fill="#7567F5"/>
<path d="M252.492 236.329C252.492 232.994 251.271 229.948 249.257 227.605C249.674 227.535 250 227.186 250 226.75C250 226.264 249.603 225.867 249.117 225.867H229.028C228.542 225.867 228.145 226.265 228.145 226.75C228.145 227.188 228.473 227.538 228.892 227.606C226.873 229.948 225.652 232.995 225.652 236.329C225.652 241.475 228.554 245.944 232.809 248.196C232.498 248.359 232.282 248.682 232.282 249.057C232.282 249.594 232.721 250.033 233.258 250.033H244.888C245.425 250.033 245.864 249.594 245.864 249.057C245.864 248.683 245.649 248.36 245.338 248.196C249.593 245.946 252.492 241.476 252.492 236.329Z" fill="#263238"/>
</svg>
