<svg width="47" height="47" viewBox="0 0 47 47" fill="none" xmlns="http://www.w3.org/2000/svg">
<rect width="47" height="47" rx="23.5" fill="white"/>
<path d="M16 23.9987H27.86L24.23 28.3587C24.0603 28.563 23.9786 28.8262 24.003 29.0907C24.0274 29.3551 24.1558 29.599 24.36 29.7687C24.5642 29.9385 24.8275 30.0201 25.0919 29.9958C25.3563 29.9714 25.6003 29.843 25.77 29.6387L30.77 23.6387C30.8036 23.591 30.8337 23.5409 30.86 23.4887C30.86 23.4387 30.86 23.4087 30.93 23.3587C30.9753 23.2441 30.9991 23.122 31 22.9987C30.9991 22.8755 30.9753 22.7534 30.93 22.6387C30.93 22.5887 30.93 22.5587 30.86 22.5087C30.8337 22.4566 30.8036 22.4065 30.77 22.3587L25.77 16.3587C25.676 16.2459 25.5582 16.1551 25.4252 16.0929C25.2921 16.0306 25.1469 15.9985 25 15.9987C24.7663 15.9983 24.5399 16.0797 24.36 16.2287C24.2587 16.3127 24.175 16.4158 24.1137 16.5321C24.0523 16.6485 24.0145 16.7758 24.0025 16.9068C23.9904 17.0378 24.0043 17.1698 24.0433 17.2954C24.0824 17.421 24.1458 17.5377 24.23 17.6387L27.86 21.9987H16C15.7348 21.9987 15.4804 22.1041 15.2929 22.2916C15.1054 22.4792 15 22.7335 15 22.9987C15 23.264 15.1054 23.5183 15.2929 23.7059C15.4804 23.8934 15.7348 23.9987 16 23.9987Z" fill="#DC3D3D"/>
</svg>
