<svg width="18" height="18" viewBox="0 0 18 18" fill="none" xmlns="http://www.w3.org/2000/svg">
<path d="M9 3.375C5.8125 3.375 3.0675 5.3775 1.6875 8.4375C1.6275 8.5725 1.6275 8.7225 1.6875 8.8575C3.0675 11.9175 5.8125 13.92 9 13.92C12.1875 13.92 14.9325 11.9175 16.3125 8.8575C16.3725 8.7225 16.3725 8.5725 16.3125 8.4375C14.9325 5.3775 12.1875 3.375 9 3.375ZM9 12.375C6.4125 12.375 4.1025 10.8 2.8875 8.625C4.1025 6.45 6.4125 4.875 9 4.875C11.5875 4.875 13.8975 6.45 15.1125 8.625C13.8975 10.8 11.5875 12.375 9 12.375Z" fill="#666666"/>
<path d="M9 6C7.755 6 6.75 7.005 6.75 8.25C6.75 9.495 7.755 10.5 9 10.5C10.245 10.5 11.25 9.495 11.25 8.25C11.25 7.005 10.245 6 9 6ZM9 9.375C8.3775 9.375 7.875 8.8725 7.875 8.25C7.875 7.6275 8.3775 7.125 9 7.125C9.6225 7.125 10.125 7.6275 10.125 8.25C10.125 8.8725 9.6225 9.375 9 9.375Z" fill="#666666"/>
</svg>
