<svg width="44" height="45" viewBox="0 0 44 45" fill="none" xmlns="http://www.w3.org/2000/svg">
<rect y="0.566406" width="44" height="44" rx="22" fill="#7567F5" fill-opacity="0.05"/>
<g clip-path="url(#clip0_513_6864)">
<path d="M17.5 17.5664C17.0055 17.5664 16.5222 17.713 16.1111 17.9877C15.7 18.2624 15.3795 18.6529 15.1903 19.1097C15.0011 19.5665 14.9516 20.0692 15.048 20.5541C15.1445 21.0391 15.3826 21.4845 15.7322 21.8342C16.0819 22.1838 16.5273 22.4219 17.0123 22.5184C17.4972 22.6148 17.9999 22.5653 18.4567 22.3761C18.9135 22.1869 19.304 21.8665 19.5787 21.4553C19.8534 21.0442 20 20.5609 20 20.0664C20 19.4034 19.7366 18.7675 19.2678 18.2986C18.7989 17.8298 18.163 17.5664 17.5 17.5664ZM26.5 17.5664C26.0055 17.5664 25.5222 17.713 25.1111 17.9877C24.7 18.2624 24.3795 18.6529 24.1903 19.1097C24.0011 19.5665 23.9516 20.0692 24.048 20.5541C24.1445 21.0391 24.3826 21.4845 24.7322 21.8342C25.0819 22.1838 25.5273 22.4219 26.0123 22.5184C26.4972 22.6148 26.9999 22.5653 27.4567 22.3761C27.9135 22.1869 28.304 21.8665 28.5787 21.4553C28.8534 21.0442 29 20.5609 29 20.0664C29 19.4034 28.7366 18.7675 28.2678 18.2986C27.7989 17.8298 27.163 17.5664 26.5 17.5664Z" fill="#7567F5"/>
<path d="M36 22.567C36.0042 20.1134 35.3635 17.7018 34.1421 15.5738C32.9207 13.4457 31.1614 11.6761 29.0406 10.4422C26.9199 9.20824 24.5121 8.55333 22.0584 8.54309C19.6048 8.53285 17.1916 9.16762 15.0606 10.3838C12.9296 11.6 11.1557 13.3549 9.91654 15.4726C8.67739 17.5903 8.01658 19.9966 8.00031 22.4501C7.98404 24.9037 8.61288 27.3185 9.82383 29.4524C11.0348 31.5864 12.7853 33.3647 14.9 34.609L14.915 34.765C14.9626 35.2593 15.193 35.718 15.5611 36.0514C15.9291 36.3847 16.4084 36.5686 16.905 36.567H27.095C27.5912 36.5686 28.0702 36.385 28.4383 36.0521C28.8063 35.7192 29.0369 35.261 29.085 34.767L29.1 34.609C31.1998 33.3772 32.9412 31.618 34.1515 29.5057C35.3619 27.3934 35.9991 25.0015 36 22.567ZM22 10.567C25.0763 10.5684 28.0345 11.7522 30.2625 13.8735C32.4905 15.9949 33.8178 18.8914 33.97 21.964L28.764 24.567H15.236L10.03 21.964C10.1821 18.8914 11.5095 15.9949 13.7375 13.8735C15.9655 11.7522 18.9236 10.5684 22 10.567ZM10.12 24.245L14.06 26.215L14.641 32.025C12.1795 30.1184 10.5578 27.3276 10.12 24.245ZM27.095 34.567H16.905L16.105 26.567H27.895L27.095 34.567ZM29.359 32.025L29.94 26.215L33.88 24.245C33.4423 27.3275 31.821 30.1181 29.36 32.025H29.359Z" fill="#7567F5"/>
<mask id="path-4-inside-1_513_6864" fill="white">
<path d="M5.28906 34.6172L33.6873 8.96641L37.0388 12.6769L8.64055 38.3276L5.28906 34.6172Z"/>
</mask>
<path d="M5.28906 34.6172L33.6873 8.96641L37.0388 12.6769L8.64055 38.3276L5.28906 34.6172Z" fill="#F9F1D2"/>
<path d="M5.28906 34.6172L6.29451 35.7303L34.6927 10.0796L33.6873 8.96641L32.6818 7.85327L4.28362 33.504L5.28906 34.6172ZM37.0388 12.6769L36.0333 11.5637L7.6351 37.2145L8.64055 38.3276L9.646 39.4408L38.0442 13.79L37.0388 12.6769Z" fill="#7567F5" mask="url(#path-4-inside-1_513_6864)"/>
</g>
<defs>
<clipPath id="clip0_513_6864">
<rect width="32" height="32" fill="white" transform="translate(6 6.56641)"/>
</clipPath>
</defs>
</svg>
