<svg width="44" height="45" viewBox="0 0 44 45" fill="none" xmlns="http://www.w3.org/2000/svg">
<rect y="0.566406" width="44" height="44" rx="22" fill="#7567F5" fill-opacity="0.05"/>
<path d="M9 16.0664V12.8164C9 11.9545 9.34241 11.1278 9.9519 10.5183C10.5614 9.90882 11.388 9.56641 12.25 9.56641H15.5M9 29.0664V32.3164C9 33.1784 9.34241 34.005 9.9519 34.6145C10.5614 35.224 11.388 35.5664 12.25 35.5664H15.5M28.5 9.56641H31.75C32.612 9.56641 33.4386 9.90882 34.0481 10.5183C34.6576 11.1278 35 11.9545 35 12.8164V16.0664M28.5 35.5664H31.75C32.612 35.5664 33.4386 35.224 34.0481 34.6145C34.6576 34.005 35 33.1784 35 32.3164V29.0664" stroke="#7567F5" stroke-width="2" stroke-linecap="round" stroke-linejoin="round"/>
<path d="M20.2937 23.5414C20.2937 23.8646 20.1653 24.1746 19.9368 24.4032C19.7082 24.6318 19.3982 24.7602 19.075 24.7602C18.7518 24.7602 18.4418 24.6318 18.2132 24.4032C17.9847 24.1746 17.8563 23.8646 17.8563 23.5414C17.8563 23.2182 17.9847 22.9082 18.2132 22.6796C18.4418 22.4511 18.7518 22.3227 19.075 22.3227C19.3982 22.3227 19.7082 22.4511 19.9368 22.6796C20.1653 22.9082 20.2937 23.2182 20.2937 23.5414ZM24.925 22.3227C24.6018 22.3227 24.2918 22.4511 24.0632 22.6796C23.8347 22.9082 23.7063 23.2182 23.7063 23.5414C23.7063 23.8646 23.8347 24.1746 24.0632 24.4032C24.2918 24.6318 24.6018 24.7602 24.925 24.7602C25.2482 24.7602 25.5582 24.6318 25.7868 24.4032C26.0153 24.1746 26.1438 23.8646 26.1438 23.5414C26.1438 23.2182 26.0153 22.9082 25.7868 22.6796C25.5582 22.4511 25.2482 22.3227 24.925 22.3227ZM31.75 22.5664C31.75 27.9484 27.382 32.3164 22 32.3164C16.618 32.3164 12.25 27.9484 12.25 22.5664C12.25 17.1844 16.618 12.8164 22 12.8164C27.382 12.8164 31.75 17.1844 31.75 22.5664ZM20.6935 14.8834C22.0585 17.1454 24.535 18.6664 27.3625 18.6664C27.811 18.6664 28.2498 18.6177 28.669 18.5494C27.304 16.2874 24.8275 14.7664 22 14.7664C21.5515 14.7664 21.1128 14.8152 20.6935 14.8834ZM14.6095 20.0997C16.292 19.1459 17.5628 17.6042 18.178 15.7707C16.4955 16.7245 15.2247 18.2661 14.6095 20.0997ZM29.8 22.5664C29.8 21.8059 29.683 21.0747 29.4783 20.3824C28.7957 20.5287 28.0938 20.6164 27.3625 20.6164C25.9133 20.6167 24.4822 20.294 23.1734 19.6716C21.8646 19.0492 20.711 18.143 19.7965 17.0187C19.2845 18.2562 18.5235 19.3751 17.5608 20.306C16.598 21.237 15.454 21.9599 14.2 22.4299C14.2098 22.4689 14.2 22.5177 14.2 22.5664C14.2 26.8662 17.7003 30.3664 22 30.3664C26.2998 30.3664 29.8 26.8662 29.8 22.5664Z" fill="#7567F5"/>
</svg>
