<svg width="24" height="24" viewBox="0 0 24 24" fill="none" xmlns="http://www.w3.org/2000/svg">
<rect width="24" height="24" fill="white"/>
<path d="M19.6699 6.125C20.4983 6.125 21.1699 6.79657 21.1699 7.625V17.5547C21.1697 18.383 20.4982 19.0547 19.6699 19.0547H10.8428L10.0098 21.9707C9.73343 22.9376 8.3633 22.9376 8.08691 21.9707L7.25293 19.0547H3.77441C2.9461 19.0547 2.2746 18.383 2.27441 17.5547V7.625C2.27442 6.79657 2.94599 6.125 3.77441 6.125H19.6699Z" fill="white"/>
<path d="M21.1699 17.5547L21.4199 17.5547V17.5547H21.1699ZM10.8428 19.0547V18.8047H10.6542L10.6024 18.986L10.8428 19.0547ZM10.0098 21.9707L10.2501 22.0394L10.2501 22.0394L10.0098 21.9707ZM8.08691 21.9707L8.32729 21.902L8.32728 21.902L8.08691 21.9707ZM7.25293 19.0547L7.49329 18.9859L7.44145 18.8047H7.25293V19.0547ZM2.27441 17.5547H2.02441V17.5547L2.27441 17.5547ZM2.27441 7.625L2.02441 7.625V7.625H2.27441ZM3.77441 6.125V5.875V6.125ZM19.6699 6.125V6.375C20.3603 6.375 20.9199 6.93464 20.9199 7.625H21.1699H21.4199C21.4199 6.6585 20.6364 5.875 19.6699 5.875V6.125ZM21.1699 7.625H20.9199V17.5547H21.1699H21.4199V7.625H21.1699ZM21.1699 17.5547L20.9199 17.5546C20.9198 18.2449 20.3601 18.8047 19.6699 18.8047V19.0547V19.3047C20.6364 19.3047 21.4197 18.521 21.4199 17.5547L21.1699 17.5547ZM19.6699 19.0547V18.8047H10.8428V19.0547V19.3047H19.6699V19.0547ZM10.8428 19.0547L10.6024 18.986L9.76938 21.902L10.0098 21.9707L10.2501 22.0394L11.0832 19.1234L10.8428 19.0547ZM10.0098 21.9707L9.76939 21.902C9.56215 22.6271 8.53459 22.6272 8.32729 21.902L8.08691 21.9707L7.84654 22.0394C8.19202 23.2479 9.9047 23.2481 10.2501 22.0394L10.0098 21.9707ZM8.08691 21.9707L8.32728 21.902L7.49329 18.9859L7.25293 19.0547L7.01257 19.1234L7.84655 22.0394L8.08691 21.9707ZM7.25293 19.0547V18.8047H3.77441V19.0547V19.3047H7.25293V19.0547ZM3.77441 19.0547V18.8047C3.08423 18.8047 2.52457 18.2449 2.52441 17.5546L2.27441 17.5547L2.02441 17.5547C2.02464 18.521 2.80798 19.3047 3.77441 19.3047V19.0547ZM2.27441 17.5547H2.52441V7.625H2.27441H2.02441V17.5547H2.27441ZM2.27441 7.625L2.52441 7.625C2.52441 6.93464 3.08406 6.375 3.77441 6.375V6.125V5.875C2.80792 5.875 2.02442 6.6585 2.02441 7.625L2.27441 7.625ZM3.77441 6.125V6.375H19.6699V6.125V5.875H3.77441V6.125Z" fill="#0B215D"/>
<path d="M19.29 2.61518C19.8175 1.70157 20.9857 1.38854 21.8994 1.91601C22.813 2.44349 23.126 3.61172 22.5985 4.52533L17.0158 14.195C16.8464 14.4882 16.6054 14.7337 16.3153 14.9084L13.8414 16.3979C13.6393 16.5196 13.3823 16.3712 13.3867 16.1354L13.4397 13.2481C13.4459 12.9095 13.538 12.5781 13.7073 12.2848L19.29 2.61518Z" fill="#23D9EF"/>
<path d="M19.6699 6.125C20.3286 6.12502 20.8863 6.55022 21.0879 7.14062L17.0156 14.1953C16.8463 14.4884 16.6054 14.7336 16.3154 14.9082L13.8418 16.3975C13.6398 16.5191 13.3826 16.3714 13.3867 16.1357L13.4395 13.248C13.4457 12.9097 13.5379 12.5783 13.707 12.2852L17.2637 6.125H19.6699Z" fill="#23D9EF"/>
<path d="M6 10H11.5954" stroke="#7467F4" stroke-linecap="round" stroke-linejoin="round"/>
<path d="M6 12H10.5954" stroke="#7467F4" stroke-linecap="round" stroke-linejoin="round"/>
<path d="M6 14H8.19672" stroke="#7467F4" stroke-linecap="round" stroke-linejoin="round"/>
<path d="M14.4492 3.11719L15.7556 4.88324" stroke="#0B215D" stroke-width="0.4" stroke-linecap="round" stroke-linejoin="round"/>
<path d="M3.67676 23.6719L4.34557 21.5794" stroke="#0B215D" stroke-width="0.4" stroke-linecap="round" stroke-linejoin="round"/>
<path d="M17.4746 2L16.9998 4.14479" stroke="#0B215D" stroke-width="0.4" stroke-linecap="round" stroke-linejoin="round"/>
<path d="M1 21.8672L3.01754 20.9982" stroke="#0B215D" stroke-width="0.4" stroke-linecap="round" stroke-linejoin="round"/>
</svg>
