<svg width="48" height="48" viewBox="0 0 48 48" fill="none" xmlns="http://www.w3.org/2000/svg">
<rect width="48" height="48" rx="8" fill="#EFEFEF"/>
<path d="M23.5672 12.0547C16.8658 12.0547 11.4219 17.4986 11.4219 24.2001C11.4219 30.9015 16.8658 36.3454 23.5672 36.3454C30.2687 36.3454 35.7126 30.9015 35.7126 24.2001C35.7126 17.4986 30.2687 12.0547 23.5672 12.0547ZM23.5672 13.1108C29.6979 13.1108 34.6565 18.0694 34.6565 24.2001C34.6565 30.3307 29.6979 35.2893 23.5672 35.2893C17.4366 35.2893 12.478 30.3307 12.478 24.2001C12.478 18.0694 17.4366 13.1108 23.5672 13.1108ZM23.559 19.9684C23.4191 19.9706 23.2858 20.0281 23.1884 20.1285C23.0909 20.2288 23.0373 20.3638 23.0392 20.5036V23.672H19.8708C19.8009 23.671 19.7314 23.6839 19.6664 23.71C19.6015 23.7361 19.5424 23.7749 19.4926 23.824C19.4427 23.8731 19.4032 23.9317 19.3762 23.9962C19.3492 24.0608 19.3352 24.1301 19.3352 24.2001C19.3352 24.27 19.3492 24.3393 19.3762 24.4039C19.4032 24.4684 19.4427 24.527 19.4926 24.5761C19.5424 24.6253 19.6015 24.664 19.6664 24.6901C19.7314 24.7162 19.8009 24.7291 19.8708 24.7281H23.0392V27.8965C23.0382 27.9665 23.0511 28.0359 23.0772 28.1009C23.1033 28.1658 23.1421 28.2249 23.1912 28.2747C23.2403 28.3246 23.2989 28.3641 23.3634 28.3911C23.428 28.4182 23.4973 28.4321 23.5672 28.4321C23.6372 28.4321 23.7065 28.4182 23.7711 28.3911C23.8356 28.3641 23.8942 28.3246 23.9433 28.2747C23.9924 28.2249 24.0312 28.1658 24.0573 28.1009C24.0834 28.0359 24.0963 27.9665 24.0953 27.8965V24.7281H27.2637C27.3336 24.7291 27.4031 24.7162 27.468 24.6901C27.533 24.664 27.5921 24.6253 27.6419 24.5761C27.6917 24.527 27.7313 24.4684 27.7583 24.4039C27.7853 24.3393 27.7992 24.27 27.7992 24.2001C27.7992 24.1301 27.7853 24.0608 27.7583 23.9962C27.7313 23.9317 27.6917 23.8731 27.6419 23.824C27.5921 23.7749 27.533 23.7361 27.468 23.71C27.4031 23.6839 27.3336 23.671 27.2637 23.672H24.0953V20.5036C24.0963 20.433 24.0831 20.3629 24.0564 20.2974C24.0298 20.232 23.9903 20.1725 23.9403 20.1226C23.8903 20.0727 23.8308 20.0333 23.7653 20.0068C23.6998 19.9803 23.6296 19.9673 23.559 19.9684Z" fill="#7567F5"/>
</svg>
