<svg width="86" height="154" viewBox="0 0 86 154" fill="none" xmlns="http://www.w3.org/2000/svg">
<rect y="14" width="86" height="140" fill="#7567F5"/>
<ellipse cx="43" cy="12" rx="43" ry="12" fill="#5045B1"/>
<path d="M32.864 70V53.128H36.08V70H32.864ZM29.552 55.96V53.128H35.84V55.96H29.552ZM43.1885 70.264C42.5325 70.264 41.8845 70.176 41.2445 70C40.6205 69.824 40.0445 69.584 39.5165 69.28C38.9885 68.96 38.5325 68.576 38.1485 68.128L40.0205 66.232C40.4205 66.68 40.8845 67.016 41.4125 67.24C41.9405 67.464 42.5245 67.576 43.1645 67.576C43.6765 67.576 44.0605 67.504 44.3165 67.36C44.5885 67.216 44.7245 67 44.7245 66.712C44.7245 66.392 44.5805 66.144 44.2925 65.968C44.0205 65.792 43.6605 65.648 43.2125 65.536C42.7645 65.408 42.2925 65.272 41.7965 65.128C41.3165 64.968 40.8525 64.768 40.4045 64.528C39.9565 64.272 39.5885 63.928 39.3005 63.496C39.0285 63.048 38.8925 62.472 38.8925 61.768C38.8925 61.032 39.0685 60.392 39.4205 59.848C39.7885 59.304 40.3085 58.88 40.9805 58.576C41.6525 58.272 42.4445 58.12 43.3565 58.12C44.3165 58.12 45.1805 58.288 45.9485 58.624C46.7325 58.96 47.3805 59.464 47.8925 60.136L45.9965 62.032C45.6445 61.6 45.2445 61.288 44.7965 61.096C44.3645 60.904 43.8925 60.808 43.3805 60.808C42.9165 60.808 42.5565 60.88 42.3005 61.024C42.0605 61.168 41.9405 61.368 41.9405 61.624C41.9405 61.912 42.0765 62.136 42.3485 62.296C42.6365 62.456 43.0045 62.6 43.4525 62.728C43.9005 62.84 44.3645 62.976 44.8445 63.136C45.3405 63.28 45.8045 63.488 46.2365 63.76C46.6845 64.032 47.0445 64.392 47.3165 64.84C47.6045 65.288 47.7485 65.864 47.7485 66.568C47.7485 67.704 47.3405 68.608 46.5245 69.28C45.7085 69.936 44.5965 70.264 43.1885 70.264ZM51.5726 70V53.584H54.7166V70H51.5726ZM48.8606 61.168V58.408H57.4286V61.168H48.8606Z" fill="white"/>
</svg>
