<svg width="47" height="66" viewBox="0 0 47 66" fill="none" xmlns="http://www.w3.org/2000/svg">
<path d="M19.9194 0.84704V4.06795C19.9194 4.36739 19.7995 4.65436 19.5864 4.86476C19.3769 5.07173 19.0942 5.18779 18.7996 5.18779H6.45094C6.15947 5.18779 5.87869 5.07805 5.66445 4.88042C5.42641 4.66083 5.29102 4.35172 5.29102 4.02786V0.662188C5.29102 0.544102 5.32259 0.428164 5.38247 0.326388C5.50146 0.124163 5.71857 0 5.9532 0H19.0724C19.2886 0 19.4966 0.0826886 19.6539 0.231123C19.8234 0.391143 19.9194 0.61394 19.9194 0.84704Z" fill="#2F3D4D"/>
<path d="M42.8382 26.3672L43.4358 25.7052C44.4167 24.6187 44.4039 22.9782 43.4435 21.9081C43.3354 21.7877 43.2069 21.6877 43.0742 21.5952L39.5012 19.1051C37.3176 17.5832 35.4115 15.6976 33.8662 13.5305L31.4731 10.1746L31.3098 10.0211C30.2652 9.03879 28.6375 9.03591 27.5894 10.0145L26.8085 10.9756C26.8085 10.9756 25.9975 10.1746 25.3968 9.80425C24.7961 9.43388 24.1053 9.15348 24.1053 9.15348L24.2562 9.0064C27.0633 6.26998 31.5444 6.28436 34.3339 9.03872L44.8925 19.4642C47.2234 21.7657 47.5105 25.3654 45.7168 27.9861C45.4184 28.4222 44.7768 28.3437 44.4314 27.9438C44.0602 27.514 42.8382 26.3672 42.8382 26.3672Z" fill="#161F4C"/>
<path d="M20.8343 6.81682V8.64828C20.8343 8.64828 7.8031 8.52644 6.52541 8.68335C5.24771 8.84026 4.3916 9.21024 4.3916 9.21024V6.81667C4.3916 5.89964 5.13499 5.15625 6.05202 5.15625H19.1739C20.0909 5.15625 20.8343 5.89979 20.8343 6.81682Z" fill="#161F4C"/>
<path d="M0 57.2567V16.9212C0 12.3361 3.71697 8.61914 8.30209 8.61914H20.9888C23.13 8.61914 25.1885 9.44644 26.7341 10.9282L43.5716 27.0699C45.2049 28.6357 46.1284 30.8003 46.1284 33.0629V57.2567C46.1284 61.8418 42.4114 65.5588 37.8263 65.5588H8.30208C3.71697 65.5588 0 61.8418 0 57.2567Z" fill="#919EAB" fill-opacity="0.2"/>
<path d="M16.036 50.3917C8.27536 47.3505 1.97975 47.8305 0 48.0305V57.3052C0 61.8903 3.71697 65.6073 8.30208 65.6073H37.8262C42.4113 65.6073 46.1283 61.8903 46.1283 57.3052V52.7676C46.1283 51.4877 45.5937 49.108 43.6196 47.1318C42.1032 45.6138 35.9768 47.0143 35.9768 47.0143C35.9768 47.0143 25.7368 54.1931 16.036 50.3917Z" fill="#EF4444"/>
<g filter="url(#filter0_i_fuel_low)">
<path d="M9.00391 30.1766C9.00391 27.4255 11.2341 25.1953 13.9852 25.1953H30.3556C33.1067 25.1953 35.3369 27.4255 35.3369 30.1766V53.0478C35.3369 55.7989 33.1067 58.0291 30.3556 58.0291H13.9852C11.2341 58.0291 9.00391 55.7989 9.00391 53.0478V30.1766Z" fill="#161F4C" fill-opacity="0.2"/>
</g>
<path d="M15.6286 38.5267L30.7329 28.416L21.7958 39.292H28.1257C29.5656 39.292 30.7329 40.4593 30.7329 41.8992C30.7329 42.743 30.3246 43.5346 29.6371 44.0237L14.4854 54.803L23.4875 43.2441H17.0617C15.6388 43.2441 14.4854 42.0906 14.4854 40.6677C14.4854 39.808 14.9142 39.0049 15.6286 38.5267Z" fill="#161F4C"/>
<defs>
<filter id="filter0_i_fuel_low" x="9.00391" y="25.1953" width="26.333" height="33.834" filterUnits="userSpaceOnUse" color-interpolation-filters="sRGB">
<feFlood flood-opacity="0" result="BackgroundImageFix"/>
<feBlend mode="normal" in="SourceGraphic" in2="BackgroundImageFix" result="shape"/>
<feColorMatrix in="SourceAlpha" type="matrix" values="0 0 0 0 0 0 0 0 0 0 0 0 0 0 0 0 0 0 127 0" result="hardAlpha"/>
<feOffset dy="1"/>
<feGaussianBlur stdDeviation="1.2"/>
<feComposite in2="hardAlpha" operator="arithmetic" k2="-1" k3="1"/>
<feColorMatrix type="matrix" values="0 0 0 0 0 0 0 0 0 0 0 0 0 0 0 0 0 0 0.05 0"/>
<feBlend mode="normal" in2="shape" result="effect1_innerShadow_fuel_low"/>
</filter>
</defs>
</svg>
