<svg width="16" height="23" viewBox="0 0 16 23" fill="none" xmlns="http://www.w3.org/2000/svg">
<path d="M6.79835 0.289095V1.38839C6.79835 1.49059 6.75742 1.58854 6.68471 1.66034C6.61317 1.73099 6.51669 1.7706 6.41615 1.7706H2.20155C2.10207 1.7706 2.00624 1.73314 1.93312 1.66569C1.85187 1.59075 1.80566 1.48525 1.80566 1.37471V0.226005C1.80566 0.185703 1.81644 0.146133 1.83688 0.111396C1.87749 0.0423768 1.95159 0 2.03167 0H6.50926C6.58306 0 6.65406 0.0282217 6.70772 0.0788824C6.76557 0.133497 6.79835 0.209538 6.79835 0.289095Z" fill="#2F3D4D"/>
<path d="M14.6209 8.99907L14.8248 8.77316C15.1596 8.40233 15.1553 7.84242 14.8275 7.47718C14.7906 7.43608 14.7467 7.40198 14.7014 7.3704L13.482 6.52051C12.7367 6.0011 12.0861 5.35754 11.5587 4.61791L10.7419 3.47254L10.6862 3.42014C10.3297 3.08488 9.77417 3.0839 9.41646 3.41789L9.14993 3.74593C9.14993 3.74593 8.87315 3.47254 8.66812 3.34613C8.4631 3.21972 8.22732 3.12402 8.22732 3.12402L8.27881 3.07382C9.23689 2.13988 10.7663 2.14479 11.7184 3.08486L15.322 6.64309C16.1175 7.42858 16.2156 8.65715 15.6034 9.55162C15.5015 9.70044 15.2825 9.67365 15.1646 9.53716C15.038 9.39049 14.6209 8.99907 14.6209 8.99907Z" fill="#161F4C"/>
<path d="M7.11094 2.32652V2.9516C7.11094 2.9516 2.66337 2.91002 2.22729 2.96357C1.79121 3.01712 1.49902 3.1434 1.49902 3.1434V2.32647C1.49902 2.01349 1.75274 1.75977 2.06572 1.75977H6.54423C6.85722 1.75977 7.11094 2.01354 7.11094 2.32652Z" fill="#161F4C"/>
<path d="M0 19.5415V5.77491C0 4.21001 1.26861 2.94141 2.83351 2.94141H7.1635C7.8943 2.94141 8.59684 3.22376 9.12438 3.7295L14.871 9.23865C15.4285 9.77306 15.7436 10.5118 15.7436 11.2841V19.5414C15.7436 21.1064 14.475 22.375 12.9101 22.375H2.83351C1.26861 22.375 0 21.1064 0 19.5415Z" fill="#919EAB" fill-opacity="0.2"/>
<path d="M5.4731 14.8094C2.82439 13.7715 0.675691 13.9353 0 14.0036V19.5582C0 21.1231 1.2686 22.3917 2.83351 22.3917H12.9101C14.475 22.3917 15.7436 21.1231 15.7436 19.5582V14.6058C15.6085 14.7879 15.2977 15.2465 14.5949 14.8094C13.7165 14.2631 11.6219 14.3314 10.0002 14.8094C8.37858 15.2874 8.78399 16.1069 5.4731 14.8094Z" fill="#FDA800"/>
<g filter="url(#filter0_i_586_30947)">
<path d="M3.07324 10.2997C3.07324 9.36077 3.83441 8.59961 4.77335 8.59961H10.3606C11.2996 8.59961 12.0607 9.36077 12.0607 10.2997V18.1057C12.0607 19.0446 11.2996 19.8058 10.3606 19.8058H4.77335C3.83441 19.8058 3.07324 19.0446 3.07324 18.1057V10.2997Z" fill="#161F4C" fill-opacity="0.2"/>
</g>
<path d="M5.33452 13.15L10.4896 9.69922L7.43938 13.4112H9.59979C10.0912 13.4112 10.4896 13.8096 10.4896 14.301C10.4896 14.589 10.3503 14.8592 10.1156 15.0261L4.94434 18.7051L8.01678 14.76H5.82366C5.33802 14.76 4.94434 14.3664 4.94434 13.8807C4.94434 13.5873 5.09069 13.3132 5.33452 13.15Z" fill="#161F4C"/>
<defs>
<filter id="filter0_i_586_30947" x="3.07324" y="8.59961" width="8.9873" height="11.5483" filterUnits="userSpaceOnUse" color-interpolation-filters="sRGB">
<feFlood flood-opacity="0" result="BackgroundImageFix"/>
<feBlend mode="normal" in="SourceGraphic" in2="BackgroundImageFix" result="shape"/>
<feColorMatrix in="SourceAlpha" type="matrix" values="0 0 0 0 0 0 0 0 0 0 0 0 0 0 0 0 0 0 127 0" result="hardAlpha"/>
<feOffset dy="0.341301"/>
<feGaussianBlur stdDeviation="0.409561"/>
<feComposite in2="hardAlpha" operator="arithmetic" k2="-1" k3="1"/>
<feColorMatrix type="matrix" values="0 0 0 0 0 0 0 0 0 0 0 0 0 0 0 0 0 0 0.05 0"/>
<feBlend mode="normal" in2="shape" result="effect1_innerShadow_586_30947"/>
</filter>
</defs>
</svg>
