<svg width="24" height="25" viewBox="0 0 24 25" fill="none" xmlns="http://www.w3.org/2000/svg">
<g opacity="0.3">
<path d="M20.251 3.20703H15.751C15.552 3.20703 15.3613 3.28605 15.2206 3.4267C15.08 3.56735 15.001 3.75812 15.001 3.95703C15.001 4.15594 15.08 4.34671 15.2206 4.48736C15.3613 4.62801 15.552 4.70703 15.751 4.70703H18.4406L14.4966 8.65109C13.0068 7.43335 11.106 6.83476 9.18728 6.97913C7.26856 7.12349 5.47871 7.99978 4.18794 9.42674C2.89716 10.8537 2.20419 12.7222 2.25235 14.6457C2.30052 16.5693 3.08613 18.4007 4.4467 19.7613C5.80728 21.1219 7.63873 21.9075 9.56227 21.9556C11.4858 22.0038 13.3543 21.3108 14.7812 20.0201C16.2082 18.7293 17.0845 16.9394 17.2289 15.0207C17.3732 13.102 16.7746 11.2012 15.5569 9.71141L19.501 5.76828V8.45703C19.501 8.65594 19.58 8.84671 19.7206 8.98736C19.8613 9.12801 20.052 9.20703 20.251 9.20703C20.4499 9.20703 20.6406 9.12801 20.7813 8.98736C20.9219 8.84671 21.001 8.65594 21.001 8.45703V3.95703C21.001 3.75812 20.9219 3.56735 20.7813 3.4267C20.6406 3.28605 20.4499 3.20703 20.251 3.20703ZM13.9922 18.703C13.153 19.5418 12.0839 20.113 10.9201 20.3443C9.75626 20.5756 8.55 20.4566 7.4538 20.0024C6.3576 19.5482 5.42068 18.7792 4.76151 17.7925C4.10234 16.8059 3.75052 15.6459 3.75052 14.4594C3.75052 13.2728 4.10234 12.1129 4.76151 11.1262C5.42068 10.1396 6.3576 9.37056 7.4538 8.91636C8.55 8.46215 9.75626 8.34317 10.9201 8.57447C12.0839 8.80576 13.153 9.37694 13.9922 10.2158C15.1157 11.3423 15.7466 12.8684 15.7466 14.4594C15.7466 16.0504 15.1157 17.5765 13.9922 18.703Z" fill="black"/>
</g>
</svg>
