<svg width="25" height="25" viewBox="0 0 25 25" fill="none" xmlns="http://www.w3.org/2000/svg">
<g clip-path="url(#clip0_513_6366)">
<path d="M5.81891 15.3464L4.9835 18.4651L1.93011 18.5297C1.01759 16.8372 0.5 14.9007 0.5 12.8429C0.5 10.853 0.983938 8.97652 1.84175 7.32422H1.84241L4.56078 7.82259L5.75159 10.5247C5.50236 11.2513 5.36652 12.0313 5.36652 12.8429C5.36661 13.7238 5.52617 14.5678 5.81891 15.3464Z" fill="#FBBB00"/>
<path d="M24.2902 10.6016C24.428 11.3275 24.4999 12.0771 24.4999 12.8433C24.4999 13.7024 24.4095 14.5405 24.2375 15.3488C23.6533 18.0996 22.1269 20.5016 20.0124 22.2013L20.0118 22.2007L16.5878 22.026L16.1032 19.0009C17.5063 18.1781 18.6028 16.8904 19.1804 15.3488H12.7637V10.6016H19.274H24.2902Z" fill="#518EF8"/>
<path d="M20.0114 22.2015L20.0121 22.2021C17.9556 23.8551 15.3433 24.8441 12.4996 24.8441C7.92969 24.8441 3.95652 22.2898 1.92969 18.5309L5.81848 15.3477C6.83188 18.0523 9.44089 19.9775 12.4996 19.9775C13.8143 19.9775 15.046 19.6221 16.1029 19.0017L20.0114 22.2015Z" fill="#28B446"/>
<path d="M20.1596 3.60637L16.2721 6.789C15.1783 6.10528 13.8853 5.71031 12.5 5.71031C9.37213 5.71031 6.71431 7.72392 5.75169 10.5255L1.84245 7.32506H1.8418C3.83895 3.47452 7.86223 0.84375 12.5 0.84375C15.4117 0.84375 18.0814 1.88091 20.1596 3.60637Z" fill="#F14336"/>
</g>
<defs>
<clipPath id="clip0_513_6366">
<rect width="24" height="24" fill="white" transform="translate(0.5 0.84375)"/>
</clipPath>
</defs>
</svg>
