<svg width="74" height="74" viewBox="0 0 74 74" fill="none" xmlns="http://www.w3.org/2000/svg">
<path d="M53.8849 33.5469C47.5055 33.5469 42.334 38.7185 42.334 45.098C42.334 51.4775 47.5055 56.6488 53.8849 56.6488C60.2643 56.6488 65.436 51.4773 65.436 45.098C65.436 38.7187 60.2644 33.5469 53.8849 33.5469ZM60.6857 42.8719L53.0517 50.5059C52.3394 51.2182 51.1845 51.2182 50.4722 50.5059L46.5292 46.563C46.174 46.2078 46.174 45.6318 46.5292 45.2766L47.5583 44.2474C47.9135 43.8922 48.4895 43.8922 48.8447 44.2474L51.762 47.1647L58.3703 40.5564C58.7255 40.2012 59.3014 40.2012 59.6567 40.5564L60.6857 41.5856C61.041 41.9408 61.041 42.5167 60.6857 42.8719Z" fill="#23D9EF"/>
<path d="M48.7608 60.8695C47.1556 60.3485 46.2636 58.3998 44.9275 57.4274C44.1347 56.8503 43.0772 56.5221 42.1379 56.0781L36.8864 65.1739C36.5956 65.6776 37.0767 66.2755 37.6308 66.0991L43.615 64.1942L44.9573 70.329C45.0817 70.8972 45.8399 71.0151 46.1307 70.5114L51.8176 60.6614C50.752 60.9138 49.6991 61.1741 48.7608 60.8695Z" fill="#7467F4"/>
<path d="M70.8845 65.1739L65.6329 56.0781C64.6937 56.5221 63.6362 56.8503 62.8433 57.4274C61.5072 58.3998 60.6153 60.3485 59.0101 60.8695C58.0718 61.1741 57.0188 60.9138 55.9531 60.6614L61.6401 70.5114C61.9309 71.0151 62.6892 70.8972 62.8134 70.329L64.1559 64.1942L70.14 66.0991C70.6941 66.2755 71.1753 65.6776 70.8845 65.1739Z" fill="#7467F4"/>
<path d="M66.2345 28.9283C66.2448 28.9283 66.2545 28.9269 66.2649 28.9269L70.3686 28.7109C70.6815 28.6942 70.9218 28.427 70.9052 28.114C70.8885 27.8025 70.6213 27.5754 70.309 27.5781L66.2054 27.7942C65.8924 27.8108 65.6522 28.078 65.6688 28.391C65.6847 28.6929 65.9353 28.9283 66.2345 28.9283Z" fill="#0B215D"/>
<path d="M62.5585 24.3178C62.652 24.3759 62.7552 24.4036 62.8576 24.4036C63.0473 24.4036 63.2322 24.3081 63.3395 24.1364L65.5399 20.6011C65.706 20.3353 65.6243 19.9863 65.3585 19.8202C65.0919 19.654 64.7437 19.7371 64.5775 20.0016L62.3771 23.5368C62.211 23.8027 62.2927 24.1516 62.5585 24.3178Z" fill="#0B215D"/>
<path d="M7.10004 50.7773L2.99638 50.9934C2.68344 51.01 2.44318 51.2772 2.4598 51.5902C2.47572 51.8921 2.72636 52.1275 3.02547 52.1275C3.03585 52.1275 3.04555 52.1261 3.05593 52.1261L7.15958 51.9101C7.47253 51.8934 7.71279 51.6262 7.69617 51.3132C7.68025 51.0003 7.42338 50.787 7.10004 50.7773Z" fill="#0B215D"/>
<path d="M10.8057 55.382C10.5413 55.2172 10.1909 55.2989 10.0247 55.5648L7.8244 59.1C7.65823 59.3659 7.73993 59.7148 8.0058 59.881C8.09927 59.9391 8.20243 59.9668 8.30491 59.9668C8.49462 59.9668 8.67948 59.8713 8.78679 59.6982L10.9871 56.163C11.1533 55.8971 11.0716 55.5482 10.8057 55.382Z" fill="#0B215D"/>
<path d="M37.7465 56.8596C35.8521 58.3565 33.8041 59.6804 31.6564 60.7965C25.5483 57.624 20.4103 52.8605 16.7864 47.0045C13.0476 40.9643 11.0716 34.0157 11.0716 26.912V14.9659C18.2716 14.502 25.3711 12.3972 31.6564 8.86058C37.9438 12.3972 45.0433 14.502 52.2412 14.9659V26.912C52.2412 27.2249 52.4953 27.4797 52.8082 27.4797C53.1212 27.4797 53.3753 27.2249 53.3753 26.912V14.4314C53.3753 14.1295 53.1392 13.8816 52.838 13.865C45.5245 13.4773 38.2976 11.3503 31.9382 7.7154C31.7637 7.6157 31.5491 7.6157 31.3746 7.7154C25.0173 11.3503 17.7896 13.4773 10.4748 13.865C10.1736 13.8816 9.9375 14.1295 9.9375 14.4314V26.912C9.9375 34.2261 11.9724 41.3811 15.8212 47.6027C19.6057 53.7163 24.9923 58.675 31.3988 61.9402C31.4798 61.9818 31.5677 62.0026 31.6564 62.0026C31.745 62.0026 31.8329 61.9818 31.9139 61.9402C34.2223 60.7632 36.4212 59.3536 38.4499 57.7487C38.6957 57.5548 38.7372 57.1975 38.5434 56.9524C38.3502 56.7087 37.9923 56.6644 37.7465 56.8596Z" fill="#0B215D"/>
<path d="M69.8008 41.8979C69.4401 41.3108 69.0994 40.7569 68.9215 40.2099C68.7325 39.6283 68.6778 38.9581 68.6196 38.2478C68.5276 37.1151 68.432 35.9436 67.7562 35.0158C67.0743 34.0783 65.9852 33.6269 64.9321 33.1893C64.2785 32.9179 63.6616 32.6617 63.1749 32.3072C62.6978 31.9597 62.2692 31.457 61.8157 30.9239C61.0714 30.0501 60.3022 29.1473 59.1833 28.7831C58.8612 28.6792 58.5333 28.6425 58.2035 28.6321C58.2338 28.0582 58.2694 27.4839 58.2694 26.9109V10.6528C58.2694 9.76099 57.5445 9.0354 56.6527 9.0354H55.34C47.3591 9.0354 39.572 6.78798 32.8187 2.53546C32.1132 2.09235 31.2013 2.09235 30.493 2.53546C23.7403 6.78798 15.9533 9.0354 7.97238 9.0354H6.65965C5.76788 9.0354 5.04297 9.76101 5.04297 10.6528V26.9109C5.04297 43.7881 14.4252 58.9482 29.5292 66.4784C30.1946 66.8093 30.9251 66.9755 31.6562 66.9755C32.3866 66.9755 33.1178 66.8093 33.7845 66.477L34.5254 66.099C34.803 65.955 34.9117 65.6129 34.767 65.3346C34.6223 65.0577 34.2816 64.9455 34.0019 65.0937L33.277 65.462C32.262 65.9688 31.0511 65.9688 30.0347 65.462C15.3191 58.127 6.17709 43.3547 6.17709 26.9109V10.6528C6.17709 10.3869 6.3938 10.1709 6.65967 10.1709H7.97239C16.1673 10.1709 24.1641 7.86253 31.0975 3.49646C31.4367 3.28321 31.8764 3.28321 32.2143 3.49646C39.1483 7.86253 47.1452 10.1709 55.34 10.1709H56.6527C56.9186 10.1709 57.1353 10.3869 57.1353 10.6528V26.9109C57.1353 27.514 57.0983 28.1179 57.0658 28.7215C56.6701 28.788 56.2748 28.8716 55.8842 28.9645C55.1794 29.1307 54.514 29.2885 53.8833 29.2885C53.2525 29.2885 52.5872 29.1307 51.8823 28.9645C50.787 28.7042 49.6571 28.4383 48.5832 28.7831C47.4644 29.1459 46.6944 30.0501 45.9508 30.9239C45.4973 31.457 45.0688 31.9597 44.591 32.3073C44.1043 32.6618 43.4874 32.9179 42.8345 33.1894C41.7814 33.6269 40.6923 34.0783 40.0103 35.0158C39.3346 35.9436 39.239 37.1151 39.1469 38.2478C39.0888 38.9582 39.0341 39.6284 38.8451 40.2114C38.6671 40.757 38.3265 41.3108 37.9657 41.898C37.3606 42.8811 36.7354 43.8975 36.7354 45.0967C36.7354 46.2959 37.3606 47.3123 37.9657 48.2954C38.3265 48.8812 38.6671 49.4351 38.8451 49.9834C39.0341 50.565 39.0888 51.2366 39.1469 51.947C39.239 53.0783 39.3346 54.2498 40.0096 55.1776C40.6916 56.1151 41.7807 56.5665 42.8338 57.0041C43.4874 57.2755 44.1043 57.5316 44.591 57.8861C45.0688 58.2337 45.4973 58.7364 45.9508 59.2695C46.6951 60.1433 47.4643 61.0461 48.5832 61.4103C48.9488 61.528 49.3213 61.5751 49.6966 61.5751C50.4228 61.5751 51.1609 61.4006 51.8823 61.2289C52.5872 61.0627 53.2525 60.9049 53.8833 60.9049C54.514 60.9049 55.1794 61.0627 55.8842 61.2289C56.9789 61.4878 58.1137 61.7537 59.1834 61.4103C60.3022 61.0461 61.0714 60.1433 61.8157 59.2695C62.2692 58.7364 62.6978 58.2337 63.1749 57.8861C63.6616 57.5316 64.2785 57.2755 64.9321 57.0041C65.9852 56.5665 67.0743 56.1151 67.7563 55.1776C68.432 54.2498 68.5276 53.0783 68.6197 51.9456C68.6778 51.2352 68.7325 50.565 68.9215 49.9821C69.0995 49.4351 69.4401 48.8812 69.8008 48.2954C70.406 47.3123 71.0312 46.2959 71.0312 45.0967C71.0312 43.8975 70.406 42.8811 69.8008 41.8979ZM68.835 47.7C68.4549 48.3176 68.0623 48.9559 67.8428 49.6317C67.6129 50.3407 67.5499 51.1092 67.489 51.8542C67.4059 52.8747 67.327 53.8399 66.8396 54.5101C66.3452 55.1886 65.4472 55.5625 64.4966 55.9572C63.8112 56.241 63.1029 56.536 62.5074 56.9694C61.921 57.3959 61.4287 57.9747 60.9524 58.5328C60.2808 59.3221 59.6466 60.0657 58.833 60.3302C58.0652 60.5836 57.1333 60.3592 56.146 60.1252C55.4086 59.9507 54.647 59.7693 53.8833 59.7693C53.1196 59.7693 52.358 59.9507 51.6206 60.1252C50.6347 60.3592 49.7035 60.585 48.9336 60.3302C48.12 60.0657 47.4858 59.3221 46.8142 58.5342C46.3379 57.9747 45.8449 57.3959 45.2585 56.9694C44.663 56.536 43.9548 56.241 43.2693 55.9572C42.3187 55.5625 41.4214 55.1886 40.9263 54.5101C40.4389 53.8399 40.3607 52.8761 40.2776 51.8542C40.2167 51.1106 40.1544 50.3407 39.9238 49.6331C39.7043 48.9559 39.3117 48.3176 38.9316 47.7C38.3854 46.8123 37.8695 45.9746 37.8695 45.0967C37.8695 44.2187 38.3854 43.3796 38.9316 42.492C39.3117 41.8744 39.7043 41.2374 39.9238 40.5617C40.1537 39.8527 40.2167 39.0841 40.2776 38.3392C40.3607 37.3186 40.4396 36.3535 40.927 35.6832C41.4214 35.0047 42.3194 34.6308 43.2693 34.2362C43.9548 33.9523 44.6631 33.6574 45.2585 33.2239C45.8449 32.7974 46.3379 32.2186 46.8142 31.6592C47.4858 30.8713 48.1194 30.1263 48.9336 29.8632C49.1738 29.7843 49.43 29.7524 49.6993 29.7524C50.2899 29.7524 50.9421 29.9075 51.6207 30.0681C52.358 30.2426 53.1196 30.424 53.8833 30.424C54.647 30.424 55.4086 30.2426 56.146 30.0681C57.1347 29.8355 58.0666 29.6112 58.833 29.8632C59.6466 30.1263 60.2808 30.8713 60.9524 31.6592C61.4287 32.2186 61.9217 32.7974 62.5074 33.224C63.1029 33.6574 63.8112 33.9523 64.4966 34.2362C65.4472 34.6308 66.3452 35.0047 66.8396 35.6832C67.327 36.3535 67.4059 37.3186 67.489 38.3392C67.5499 39.0842 67.6129 39.8527 67.8428 40.5603C68.0623 41.2374 68.4549 41.8744 68.835 42.492C69.3813 43.3796 69.8971 44.2188 69.8971 45.0967C69.8971 45.9746 69.3812 46.8124 68.835 47.7Z" fill="#0B215D"/>
<path d="M32.2239 17.681C32.2239 17.3681 31.9698 17.1133 31.6569 17.1133C31.3439 17.1133 31.0898 17.3681 31.0898 17.681V41.7768C31.0898 42.0898 31.3439 42.3445 31.6569 42.3445C31.9698 42.3445 32.2239 42.0898 32.2239 41.7768V17.681Z" fill="#0B215D"/>
<path d="M31.6569 45.6953C31.3439 45.6953 31.0898 45.9501 31.0898 46.2631V52.5442C31.0898 52.8572 31.3439 53.112 31.6569 53.112C31.9698 53.112 32.2239 52.8572 32.2239 52.5442V46.2631C32.2239 45.9501 31.9698 45.6953 31.6569 45.6953Z" fill="#0B215D"/>
</svg>
