<svg width="36" height="36" viewBox="0 0 36 36" fill="none" xmlns="http://www.w3.org/2000/svg">
<rect width="36" height="36" rx="18" fill="#7567F5" fill-opacity="0.05"/>
<path d="M17.9997 15.291C17.4247 15.291 16.958 15.7577 16.958 16.3327V16.4218C16.958 16.5876 16.8922 16.7466 16.7749 16.8638C16.6577 16.981 16.4988 17.0468 16.333 17.0468C16.1672 17.0468 16.0083 16.981 15.8911 16.8638C15.7739 16.7466 15.708 16.5876 15.708 16.4218V16.3327C15.708 15.7249 15.9495 15.142 16.3792 14.7122C16.809 14.2825 17.3919 14.041 17.9997 14.041H18.0963C18.5447 14.0412 18.9821 14.1787 19.35 14.435C19.7179 14.6912 19.9984 15.054 20.154 15.4744C20.3095 15.8949 20.3326 16.3529 20.2201 16.7868C20.1076 17.2208 19.8649 17.6099 19.5247 17.9018L18.883 18.4518C18.8025 18.5217 18.7378 18.608 18.6933 18.7048C18.6487 18.8017 18.6253 18.9069 18.6247 19.0135V19.4577C18.6247 19.6234 18.5588 19.7824 18.4416 19.8996C18.3244 20.0168 18.1654 20.0827 17.9997 20.0827C17.8339 20.0827 17.6749 20.0168 17.5577 19.8996C17.4405 19.7824 17.3747 19.6234 17.3747 19.4577V19.0135C17.3747 18.4327 17.628 17.881 18.0688 17.5035L18.7113 16.9535C18.8579 16.8279 18.9625 16.6603 19.011 16.4734C19.0595 16.2865 19.0496 16.0892 18.9826 15.9082C18.9157 15.7271 18.7948 15.5708 18.6363 15.4605C18.4779 15.3502 18.2894 15.291 18.0963 15.291H17.9997ZM17.9997 22.166C18.2207 22.166 18.4326 22.0782 18.5889 21.9219C18.7452 21.7657 18.833 21.5537 18.833 21.3327C18.833 21.1117 18.7452 20.8997 18.5889 20.7434C18.4326 20.5871 18.2207 20.4993 17.9997 20.4993C17.7787 20.4993 17.5667 20.5871 17.4104 20.7434C17.2541 20.8997 17.1663 21.1117 17.1663 21.3327C17.1663 21.5537 17.2541 21.7657 17.4104 21.9219C17.5667 22.0782 17.7787 22.166 17.9997 22.166Z" fill="#7567F5"/>
<path d="M10.708 18.0007C10.708 16.0668 11.4762 14.2121 12.8437 12.8447C14.2111 11.4772 16.0658 10.709 17.9997 10.709C19.9335 10.709 21.7882 11.4772 23.1557 12.8447C24.5231 14.2121 25.2913 16.0668 25.2913 18.0007C25.2913 19.9345 24.5231 21.7892 23.1557 23.1566C21.7882 24.5241 19.9335 25.2923 17.9997 25.2923C16.0658 25.2923 14.2111 24.5241 12.8437 23.1566C11.4762 21.7892 10.708 19.9345 10.708 18.0007ZM17.9997 11.959C17.2063 11.959 16.4206 12.1153 15.6876 12.4189C14.9546 12.7225 14.2886 13.1675 13.7276 13.7285C13.1666 14.2896 12.7215 14.9556 12.4179 15.6886C12.1143 16.4216 11.958 17.2072 11.958 18.0007C11.958 18.7941 12.1143 19.5797 12.4179 20.3127C12.7215 21.0457 13.1666 21.7117 13.7276 22.2728C14.2886 22.8338 14.9546 23.2788 15.6876 23.5824C16.4206 23.886 17.2063 24.0423 17.9997 24.0423C19.602 24.0423 21.1387 23.4058 22.2718 22.2728C23.4048 21.1397 24.0413 19.603 24.0413 18.0007C24.0413 16.3983 23.4048 14.8616 22.2718 13.7285C21.1387 12.5955 19.602 11.959 17.9997 11.959Z" fill="#7567F5"/>
</svg>
