<svg width="60" height="60" viewBox="0 0 60 60" fill="none" xmlns="http://www.w3.org/2000/svg">
<path d="M52.5 50C50.8925 46.7825 47.5 42.56 47.5 38.82C47.5 34.5725 48.4175 29.335 46.445 25.3875C45.61 23.7225 45 22.035 45 20.1375V11.075C45 10.7903 44.8871 10.5173 44.686 10.3157C44.485 10.1142 44.2122 10.0007 43.9275 10C43.0833 9.99967 42.2474 10.1657 41.4674 10.4886C40.6874 10.8115 39.9788 11.2849 39.3818 11.8818C38.7849 12.4788 38.3115 13.1874 37.9886 13.9674C37.6657 14.7474 37.4997 15.5833 37.5 16.4275M20 45L29.0875 50.68C29.6875 51.055 30.2025 51.555 30.5975 52.145L32.5 55" stroke="white" stroke-width="1.25" stroke-linecap="round"/>
<path d="M12.5684 37.5C12.7059 40.2425 13.1134 41.95 14.3309 43.17C16.1609 45 19.1059 45 25.0009 45C30.8959 45 33.8384 45 35.6709 43.17C37.5009 41.3375 37.5009 38.3925 37.5009 32.5V17.5C37.5009 11.6075 37.5009 8.66 35.6709 6.83C33.8384 5 30.8934 5 25.0009 5C19.1084 5 16.1609 5 14.3309 6.83C13.1134 8.0475 12.7059 9.7575 12.5684 12.5" stroke="white" stroke-width="1.25" stroke-linejoin="round"/>
<path d="M10.625 18.75H14.375C15.2038 18.75 15.9987 18.4208 16.5847 17.8347C17.1708 17.2487 17.5 16.4538 17.5 15.625C17.5 14.7962 17.1708 14.0013 16.5847 13.4153C15.9987 12.8292 15.2038 12.5 14.375 12.5H10.625C9.7962 12.5 9.00134 12.8292 8.41529 13.4153C7.82924 14.0013 7.5 14.7962 7.5 15.625C7.5 16.4538 7.82924 17.2487 8.41529 17.8347C9.00134 18.4208 9.7962 18.75 10.625 18.75ZM10.625 18.75H16.875C17.7038 18.75 18.4987 19.0792 19.0847 19.6653C19.6708 20.2513 20 21.0462 20 21.875C20 22.7038 19.6708 23.4987 19.0847 24.0847C18.4987 24.6708 17.7038 25 16.875 25H10.625M10.625 18.75C9.7962 18.75 9.00134 19.0792 8.41529 19.6653C7.82924 20.2513 7.5 21.0462 7.5 21.875C7.5 22.7038 7.82924 23.4987 8.41529 24.0847C9.00134 24.6708 9.7962 25 10.625 25M10.625 25H14.375C15.2038 25 15.9987 25.3292 16.5847 25.9153C17.1708 26.5013 17.5 27.2962 17.5 28.125C17.5 28.9538 17.1708 29.7487 16.5847 30.3347C15.9987 30.9208 15.2038 31.25 14.375 31.25H10.625M10.625 25C9.7962 25 9.00134 25.3292 8.41529 25.9153C7.82924 26.5013 7.5 27.2962 7.5 28.125C7.5 28.9538 7.82924 29.7487 8.41529 30.3347C9.00134 30.9208 9.7962 31.25 10.625 31.25M10.625 31.25H13.125C13.9538 31.25 14.7487 31.5792 15.3347 32.1653C15.9208 32.7513 16.25 33.5462 16.25 34.375C16.25 35.2038 15.9208 35.9987 15.3347 36.5847C14.7487 37.1708 13.9538 37.5 13.125 37.5H10.625C9.7962 37.5 9.00134 37.1708 8.41529 36.5847C7.82924 35.9987 7.5 35.2038 7.5 34.375C7.5 33.5462 7.82924 32.7513 8.41529 32.1653C9.00134 31.5792 9.7962 31.25 10.625 31.25Z" stroke="white" stroke-width="1.25" stroke-linecap="round"/>
<path d="M25 37.5H25.0225" stroke="white" stroke-width="1.66667" stroke-linecap="round" stroke-linejoin="round"/>
</svg>
