<svg width="19" height="14" viewBox="0 0 19 14" fill="none" xmlns="http://www.w3.org/2000/svg">
<path d="M2.17857 0.75C1.12137 0.75 0.25 1.62137 0.25 2.67857V11.6786C0.25 12.7358 1.12137 13.6071 2.17857 13.6071H16.3214C17.3786 13.6071 18.25 12.7358 18.25 11.6786V2.67857C18.25 1.62137 17.3786 0.75 16.3214 0.75H2.17857ZM2.17857 2.03571H16.3214C16.6855 2.03571 16.9643 2.31445 16.9643 2.67857V11.6786C16.9643 12.0427 16.6855 12.3214 16.3214 12.3214H2.17857C1.81445 12.3214 1.53571 12.0427 1.53571 11.6786V2.67857C1.53571 2.31445 1.81445 2.03571 2.17857 2.03571ZM6.03571 3.32143C4.62193 3.32143 3.46429 4.47907 3.46429 5.89286C3.46429 6.60854 3.77065 7.25391 4.24777 7.72098C3.39146 8.30106 2.82143 9.28795 2.82143 10.3929H4.10714C4.10714 9.32059 4.96345 8.46429 6.03571 8.46429C7.10798 8.46429 7.96429 9.32059 7.96429 10.3929H9.25C9.25 9.28795 8.67997 8.30106 7.82366 7.72098C8.30078 7.25391 8.60714 6.60854 8.60714 5.89286C8.60714 4.47907 7.4495 3.32143 6.03571 3.32143ZM10.5357 3.96429V5.25H15.6786V3.96429H10.5357ZM6.03571 4.60714C6.75391 4.60714 7.32143 5.17467 7.32143 5.89286C7.32143 6.61105 6.75391 7.17857 6.03571 7.17857C5.31752 7.17857 4.75 6.61105 4.75 5.89286C4.75 5.17467 5.31752 4.60714 6.03571 4.60714ZM10.5357 6.53571V7.82143H15.6786V6.53571H10.5357ZM10.5357 9.10714V10.3929H13.75V9.10714H10.5357Z" fill="#D0D2DB"/>
</svg>
