<svg width="16" height="16" viewBox="0 0 16 16" fill="none" xmlns="http://www.w3.org/2000/svg">
<g id="Iconly/Bold/Arrow - Up Square">
<g id="Group">
<path id="Exclude" d="M5.10742 14.668C2.84821 14.668 1.33415 13.0815 1.33398 10.7217L1.33399 5.27441C1.33408 2.9212 2.84816 1.33496 5.10742 1.33496L10.8867 1.33496C13.1466 1.33496 14.6669 2.9212 14.667 5.27442L14.667 10.7217C14.6668 13.0815 13.1466 14.668 10.8867 14.668L5.10742 14.668ZM7.64746 11.0811C7.83415 11.2676 8.16689 11.2677 8.35352 11.0811L10.8535 8.56836C11.0468 8.37503 11.0468 8.05466 10.8535 7.86133C10.6536 7.6681 10.3406 7.66815 10.1406 7.86133L8.5 9.51465L8.5 5.28125C8.49997 5.00128 8.27332 4.78125 8 4.78125C7.72017 4.78142 7.50003 5.00138 7.5 5.28125L7.5 9.51465L5.85352 7.86133C5.76019 7.76803 5.62664 7.71484 5.5 7.71484C5.37421 7.71494 5.24734 7.76821 5.14746 7.86133C4.95413 8.05466 4.95413 8.37503 5.14746 8.56836L7.64746 11.0811Z" fill="#0C973A"/>
</g>
</g>
</svg>
