<svg width="15" height="16" viewBox="0 0 15 16" fill="none" xmlns="http://www.w3.org/2000/svg">
<g opacity="0.3" clip-path="url(#clip0_513_6669)">
<path d="M5.625 6.95703C5.625 6.61185 5.90482 6.33203 6.25 6.33203H7.5C7.84518 6.33203 8.125 6.61185 8.125 6.95703V10.082H9.375C9.72018 10.082 10 10.3619 10 10.707C10 11.0522 9.72018 11.332 9.375 11.332H5.625C5.27982 11.332 5 11.0522 5 10.707C5 10.3619 5.27982 10.082 5.625 10.082H6.875V7.58203H6.25C5.90482 7.58203 5.625 7.30221 5.625 6.95703Z" fill="#252525"/>
<path d="M7.1875 5.70703C7.70527 5.70703 8.125 5.2873 8.125 4.76953C8.125 4.25176 7.70527 3.83203 7.1875 3.83203C6.66973 3.83203 6.25 4.25176 6.25 4.76953C6.25 5.2873 6.66973 5.70703 7.1875 5.70703Z" fill="#252525"/>
<path fill-rule="evenodd" clip-rule="evenodd" d="M0 8.20703C0 4.0649 3.35786 0.707031 7.5 0.707031C11.6421 0.707031 15 4.0649 15 8.20703C15 12.3492 11.6421 15.707 7.5 15.707C3.35786 15.707 0 12.3492 0 8.20703ZM7.5 1.95703C4.04822 1.95703 1.25 4.75525 1.25 8.20703C1.25 11.6588 4.04822 14.457 7.5 14.457C10.9518 14.457 13.75 11.6588 13.75 8.20703C13.75 4.75525 10.9518 1.95703 7.5 1.95703Z" fill="#252525"/>
</g>
<defs>
<clipPath id="clip0_513_6669">
<rect width="15" height="15" fill="white" transform="translate(0 0.707031)"/>
</clipPath>
</defs>
</svg>
