<svg width="14" height="14" viewBox="0 0 14 14" fill="none" xmlns="http://www.w3.org/2000/svg">
<path d="M13.9125 6.95652C13.9125 8.80151 13.1796 10.5709 11.875 11.8755C10.5705 13.1801 8.80113 13.913 6.95623 13.913C5.11132 13.913 3.34198 13.1801 2.03743 11.8755C0.732887 10.5709 0 8.80151 0 6.95652C0 5.11154 0.732887 3.34212 2.03743 2.03752C3.34198 0.732918 5.11132 0 6.95623 0C8.80113 0 10.5705 0.732918 11.875 2.03752C13.1796 3.34212 13.9125 5.11154 13.9125 6.95652ZM6.95623 2.98137C6.69267 2.98137 6.4399 3.08607 6.25354 3.27244C6.06718 3.45881 5.96248 3.71159 5.96248 3.97516V6.95652C5.96248 7.22009 6.06718 7.47287 6.25354 7.65924C6.4399 7.84561 6.69267 7.95031 6.95623 7.95031C7.21978 7.95031 7.47255 7.84561 7.65891 7.65924C7.84528 7.47287 7.94997 7.22009 7.94997 6.95652V3.97516C7.94997 3.71159 7.84528 3.45881 7.65891 3.27244C7.47255 3.08607 7.21978 2.98137 6.95623 2.98137ZM6.95623 10.9317C7.21978 10.9317 7.47255 10.827 7.65891 10.6406C7.84528 10.4542 7.94997 10.2015 7.94997 9.93789C7.94997 9.67432 7.84528 9.42155 7.65891 9.23517C7.47255 9.0488 7.21978 8.9441 6.95623 8.9441C6.69267 8.9441 6.4399 9.0488 6.25354 9.23517C6.06718 9.42155 5.96248 9.67432 5.96248 9.93789C5.96248 10.2015 6.06718 10.4542 6.25354 10.6406C6.4399 10.827 6.69267 10.9317 6.95623 10.9317Z" fill="#D61B0A"/>
</svg>
