<svg width="16" height="16" viewBox="0 0 16 16" fill="none" xmlns="http://www.w3.org/2000/svg">
<path fill-rule="evenodd" clip-rule="evenodd" d="M14.6654 8C14.6654 11.682 11.6807 14.6667 7.9987 14.6667C4.3167 14.6667 1.33203 11.682 1.33203 8C1.33203 4.318 4.3167 1.33334 7.9987 1.33334C11.6807 1.33334 14.6654 4.318 14.6654 8ZM7.9987 11.8333C8.13131 11.8333 8.25848 11.7807 8.35225 11.6869C8.44602 11.5931 8.4987 11.4659 8.4987 11.3333V7.33334C8.4987 7.20073 8.44602 7.07355 8.35225 6.97978C8.25848 6.88601 8.13131 6.83334 7.9987 6.83334C7.86609 6.83334 7.73891 6.88601 7.64514 6.97978C7.55138 7.07355 7.4987 7.20073 7.4987 7.33334V11.3333C7.4987 11.6093 7.7227 11.8333 7.9987 11.8333ZM7.9987 4.66667C8.17551 4.66667 8.34508 4.73691 8.4701 4.86193C8.59513 4.98696 8.66536 5.15652 8.66536 5.33334C8.66536 5.51015 8.59513 5.67972 8.4701 5.80474C8.34508 5.92976 8.17551 6 7.9987 6C7.82189 6 7.65232 5.92976 7.52729 5.80474C7.40227 5.67972 7.33203 5.51015 7.33203 5.33334C7.33203 5.15652 7.40227 4.98696 7.52729 4.86193C7.65232 4.73691 7.82189 4.66667 7.9987 4.66667Z" fill="#FF1010"/>
</svg>
