<svg width="44" height="45" viewBox="0 0 44 45" fill="none" xmlns="http://www.w3.org/2000/svg">
<rect y="0.566406" width="44" height="44" rx="22" fill="#7567F5" fill-opacity="0.05"/>
<path d="M21.9948 18.569C24.1948 18.569 25.9948 20.369 25.9948 22.569C25.9948 24.769 24.1948 26.569 21.9948 26.569C19.7948 26.569 17.9948 24.769 17.9948 22.569C17.9948 20.369 19.7948 18.569 21.9948 18.569ZM21.9948 15.9023C18.3148 15.9023 15.3281 18.889 15.3281 22.569C15.3281 26.249 18.3148 29.2357 21.9948 29.2357C25.6748 29.2357 28.6615 26.249 28.6615 22.569C28.6615 18.889 25.6748 15.9023 21.9948 15.9023ZM8.66146 23.9023H11.3281C12.0615 23.9023 12.6615 23.3023 12.6615 22.569C12.6615 21.8357 12.0615 21.2357 11.3281 21.2357H8.66146C7.92813 21.2357 7.32812 21.8357 7.32812 22.569C7.32812 23.3023 7.92813 23.9023 8.66146 23.9023ZM32.6615 23.9023H35.3281C36.0615 23.9023 36.6615 23.3023 36.6615 22.569C36.6615 21.8357 36.0615 21.2357 35.3281 21.2357H32.6615C31.9281 21.2357 31.3281 21.8357 31.3281 22.569C31.3281 23.3023 31.9281 23.9023 32.6615 23.9023ZM20.6615 9.23568V11.9023C20.6615 12.6357 21.2615 13.2357 21.9948 13.2357C22.7281 13.2357 23.3281 12.6357 23.3281 11.9023V9.23568C23.3281 8.50234 22.7281 7.90234 21.9948 7.90234C21.2615 7.90234 20.6615 8.50234 20.6615 9.23568ZM20.6615 33.2357V35.9023C20.6615 36.6357 21.2615 37.2357 21.9948 37.2357C22.7281 37.2357 23.3281 36.6357 23.3281 35.9023V33.2357C23.3281 32.5023 22.7281 31.9023 21.9948 31.9023C21.2615 31.9023 20.6615 32.5023 20.6615 33.2357ZM13.9815 12.6757C13.8581 12.5521 13.7116 12.454 13.5503 12.3871C13.389 12.3202 13.2161 12.2858 13.0415 12.2858C12.8668 12.2858 12.6939 12.3202 12.5326 12.3871C12.3713 12.454 12.2248 12.5521 12.1015 12.6757C11.9779 12.799 11.8798 12.9455 11.8129 13.1068C11.746 13.2681 11.7115 13.4411 11.7115 13.6157C11.7115 13.7903 11.746 13.9632 11.8129 14.1245C11.8798 14.2858 11.9779 14.4323 12.1015 14.5557L13.5148 15.969C14.0348 16.489 14.8881 16.489 15.3948 15.969C15.9015 15.449 15.9148 14.5957 15.3948 14.089L13.9815 12.6757ZM30.4748 29.169C30.3514 29.0454 30.2049 28.9473 30.0436 28.8804C29.8823 28.8135 29.7094 28.7791 29.5348 28.7791C29.3602 28.7791 29.1873 28.8135 29.026 28.8804C28.8647 28.9473 28.7181 29.0454 28.5948 29.169C28.4712 29.2924 28.3731 29.4389 28.3062 29.6002C28.2393 29.7615 28.2049 29.9344 28.2049 30.109C28.2049 30.2836 28.2393 30.4565 28.3062 30.6178C28.3731 30.7791 28.4712 30.9257 28.5948 31.049L30.0081 32.4623C30.5281 32.9823 31.3815 32.9823 31.8881 32.4623C32.0117 32.339 32.1098 32.1925 32.1767 32.0312C32.2436 31.8699 32.2781 31.697 32.2781 31.5223C32.2781 31.3477 32.2436 31.1748 32.1767 31.0135C32.1098 30.8522 32.0117 30.7057 31.8881 30.5823L30.4748 29.169ZM31.8881 14.5557C32.0117 14.4323 32.1098 14.2858 32.1767 14.1245C32.2436 13.9632 32.2781 13.7903 32.2781 13.6157C32.2781 13.4411 32.2436 13.2681 32.1767 13.1068C32.1098 12.9455 32.0117 12.799 31.8881 12.6757C31.7648 12.5521 31.6183 12.454 31.457 12.3871C31.2957 12.3202 31.1228 12.2858 30.9481 12.2858C30.7735 12.2858 30.6006 12.3202 30.4393 12.3871C30.278 12.454 30.1315 12.5521 30.0081 12.6757L28.5948 14.089C28.0748 14.609 28.0748 15.4623 28.5948 15.969C29.1148 16.4757 29.9681 16.489 30.4748 15.969L31.8881 14.5557ZM15.3948 31.049C15.5184 30.9257 15.6165 30.7791 15.6834 30.6178C15.7503 30.4565 15.7847 30.2836 15.7847 30.109C15.7847 29.9344 15.7503 29.7615 15.6834 29.6002C15.6165 29.4389 15.5184 29.2924 15.3948 29.169C15.2714 29.0454 15.1249 28.9473 14.9636 28.8804C14.8023 28.8135 14.6294 28.7791 14.4548 28.7791C14.2802 28.7791 14.1073 28.8135 13.946 28.8804C13.7847 28.9473 13.6381 29.0454 13.5148 29.169L12.1015 30.5823C11.5815 31.1023 11.5815 31.9557 12.1015 32.4623C12.6215 32.969 13.4748 32.9823 13.9815 32.4623L15.3948 31.049Z" fill="#7567F5"/>
</svg>
