<svg width="33" height="33" viewBox="0 0 33 33" fill="none" xmlns="http://www.w3.org/2000/svg">
<rect width="33" height="33" rx="16.5" fill="#1B95F9"/>
<path fill-rule="evenodd" clip-rule="evenodd" d="M19.6593 22.0439L19.1641 22.155V22.8252C19.1641 23.9747 18.4544 24.9526 17.464 25.315V27.12C17.464 27.606 17.0834 28 16.6139 28C16.1444 28 15.7638 27.606 15.7638 27.12V25.315C14.7734 24.9526 14.0637 23.9747 14.0637 22.8252V22.2039C13.9898 22.1888 13.9161 22.173 13.8424 22.1564L13.3407 22.0439C10.8934 21.4949 8.95684 19.5595 8.34058 17.0469C7.88647 15.1954 7.88647 13.2558 8.34058 11.4042C8.95684 8.8916 10.8934 6.95627 13.3407 6.40722L13.8424 6.29469C15.5938 5.90177 17.4062 5.90177 19.1576 6.29469L19.6593 6.40722C22.1066 6.95627 24.0432 8.8916 24.6594 11.4042C25.1135 13.2558 25.1135 15.1954 24.6594 17.0469C24.0432 19.5595 22.1066 21.4949 19.6593 22.0439ZM17.464 22.4127C17.3654 22.4206 17.2667 22.4273 17.168 22.4327C16.7002 22.4585 16.2315 22.4572 15.7638 22.4288V22.8252C15.7638 23.3112 16.1444 23.7052 16.6139 23.7052C17.0834 23.7052 17.464 23.3112 17.464 22.8252V22.4127ZM17.4921 10.7303C17.7854 10.9732 17.8329 11.4162 17.5983 11.7198L16.2154 13.5093H18.2007C18.4621 13.5093 18.7004 13.6645 18.8136 13.9084C18.9269 14.1523 18.895 14.4418 18.7317 14.6531L16.4649 17.5865C16.2303 17.8901 15.8023 17.9393 15.5091 17.6964C15.2158 17.4535 15.1682 17.0105 15.4029 16.7069L16.7858 14.9173H14.8005C14.5391 14.9173 14.3008 14.7622 14.1875 14.5183C14.0743 14.2744 14.1061 13.9849 14.2694 13.7735L16.5363 10.8402C16.7709 10.5366 17.1988 10.4874 17.4921 10.7303Z" fill="white"/>
</svg>
