<svg width="81" height="75" viewBox="0 0 81 75" fill="none" xmlns="http://www.w3.org/2000/svg">
<path opacity="0.1" d="M70.8615 0H10.1231C7.43827 0 4.86343 1.06654 2.96498 2.96498C1.06654 4.86343 0 7.43827 0 10.1231V50.6154C0 53.3002 1.06654 55.875 2.96498 57.7735C4.86343 59.6719 7.43827 60.7385 10.1231 60.7385H13.4974V70.8615C13.4991 71.472 13.6663 72.0705 13.9812 72.5935C14.2961 73.1164 14.747 73.5441 15.2858 73.831C15.8135 74.1019 16.4033 74.229 16.9957 74.1993C17.5881 74.1697 18.1622 73.9845 18.6602 73.6623L38.1303 60.7385H70.8615C73.5463 60.7385 76.1212 59.6719 78.0196 57.7735C79.9181 55.875 80.9846 53.3002 80.9846 50.6154V10.1231C80.9846 7.43827 79.9181 4.86343 78.0196 2.96498C76.1212 1.06654 73.5463 0 70.8615 0Z" fill="#1100FF"/>
<path d="M46.4765 30.3702H34.5109C33.7176 30.3702 32.9567 30.055 32.3957 29.494C31.8347 28.933 31.5195 28.1722 31.5195 27.3788V21.396C31.5195 19.0159 32.465 16.7333 34.148 15.0503C35.831 13.3674 38.1136 12.4219 40.4937 12.4219C42.8738 12.4219 45.1564 13.3674 46.8394 15.0503C48.5224 16.7333 49.4678 19.0159 49.4678 21.396V27.3788C49.4678 28.1722 49.1527 28.933 48.5917 29.494C48.0307 30.055 47.2698 30.3702 46.4765 30.3702ZM37.5023 24.3874H43.4851V21.396C43.4851 20.6027 43.1699 19.8418 42.6089 19.2808C42.0479 18.7198 41.2871 18.4046 40.4937 18.4046C39.7003 18.4046 38.9395 18.7198 38.3785 19.2808C37.8175 19.8418 37.5023 20.6027 37.5023 21.396V24.3874Z" fill="#A49DE6"/>
<path d="M46.4757 24.3906H34.5101C31.2059 24.3906 28.5273 27.0692 28.5273 30.3734V42.3389C28.5273 45.6431 31.2059 48.3217 34.5101 48.3217H46.4757C49.7799 48.3217 52.4584 45.6431 52.4584 42.3389V30.3734C52.4584 27.0692 49.7799 24.3906 46.4757 24.3906Z" fill="#887DEE"/>
<path opacity="0.5" d="M40.4914 39.3421C39.698 39.3421 38.9372 39.027 38.3762 38.466C37.8152 37.905 37.5 37.1441 37.5 36.3508C37.5 35.5574 37.8152 34.7965 38.3762 34.2355C38.9372 33.6745 39.698 33.3594 40.4914 33.3594C41.2848 33.3594 42.0456 33.6745 42.6066 34.2355C43.1676 34.7965 43.4828 35.5574 43.4828 36.3508C43.4828 37.1441 43.1676 37.905 42.6066 38.466C42.0456 39.027 41.2848 39.3421 40.4914 39.3421Z" fill="#5345CE"/>
</svg>
