<svg width="263" height="57" viewBox="0 0 263 57" fill="none" xmlns="http://www.w3.org/2000/svg">
<path d="M29.2466 3.125C14.8722 3.125 3.21973 14.4851 3.21973 28.4985H12.866C12.866 19.6789 20.1999 12.5292 29.2466 12.5292L29.2466 3.125Z" fill="white"/>
<path d="M16.2334 53.8735C30.6077 53.8735 42.2602 42.5134 42.2602 28.5H32.614C32.614 37.3196 25.28 44.4693 16.2334 44.4693L16.2334 53.8735Z" fill="white"/>
<path d="M22.7402 22.6016H22.7402C19.3979 22.6016 16.6885 25.243 16.6885 28.5013V28.5013C16.6885 31.7597 19.3979 34.4011 22.7402 34.4011H22.7402C26.0824 34.4011 28.7919 31.7597 28.7919 28.5013V28.5013C28.7919 25.243 26.0824 22.6016 22.7402 22.6016Z" fill="white"/>
<path d="M62.3214 41.6655C59.6945 41.6655 57.4486 41.2575 55.584 40.4433C53.7182 39.6292 52.025 38.3777 50.5029 36.6902L55.069 32.2387C56.0831 33.3737 57.2102 34.2539 58.4492 34.8793C59.6869 35.5047 61.1271 35.8175 62.7686 35.8175C64.2306 35.8175 65.3718 35.549 66.1935 35.0101C67.014 34.4719 67.4242 33.7375 67.4242 32.8062C67.4242 31.992 67.1628 31.3224 66.6408 30.7985C66.1181 30.2746 65.4101 29.8242 64.5143 29.4455C63.6191 29.068 62.6491 28.7111 61.6051 28.3766C60.5597 28.0424 59.508 27.6421 58.4492 27.1765C57.3891 26.7115 56.4192 26.144 55.5393 25.4743C54.6588 24.8053 53.9502 23.9469 53.4128 22.8994C52.8754 21.852 52.6071 20.5578 52.6071 19.0155C52.6071 17.0953 53.0773 15.452 54.0173 14.084C54.9572 12.7167 56.278 11.6767 57.9789 10.9635C59.6798 10.2512 61.6051 9.89453 63.7533 9.89453C65.9916 9.89453 68.021 10.273 69.8414 11.0292C71.6618 11.7861 73.1692 12.8039 74.3628 14.084L69.752 18.5791C68.7967 17.6189 67.8344 16.9062 66.8644 16.4406C65.8945 15.9756 64.8127 15.7423 63.6191 15.7423C62.3955 15.7423 61.4255 15.9681 60.7092 16.4188C59.9936 16.8701 59.6351 17.5173 59.6351 18.3608C59.6351 19.1176 59.9035 19.7356 60.4409 20.2155C60.9782 20.6955 61.6869 21.1101 62.5674 21.4592C63.4472 21.8084 64.4172 22.1575 65.4772 22.5067C66.536 22.8558 67.5954 23.2561 68.6555 23.7068C69.7143 24.1584 70.6765 24.7474 71.543 25.4743C72.4082 26.2019 73.1168 27.1042 73.6689 28.1803C74.2209 29.2568 74.497 30.6098 74.497 32.2387C74.497 35.1777 73.4229 37.4832 71.274 39.1557C69.1251 40.8295 66.1405 41.6655 62.3214 41.6655Z" fill="white"/>
<path d="M80.8543 17.0981C79.8089 17.0981 78.9291 16.7347 78.2128 16.0071C77.4971 15.2801 77.1387 14.4074 77.1387 13.3886C77.1387 12.3411 77.4971 11.4684 78.2128 10.7701C78.9291 10.0718 79.8089 9.72266 80.8543 9.72266C81.9578 9.72266 82.846 10.0718 83.5175 10.7701C84.1891 11.4684 84.5252 12.3411 84.5252 13.3886C84.5252 14.4074 84.1891 15.2801 83.5175 16.0071C82.846 16.7347 81.9578 17.0981 80.8543 17.0981ZM77.407 41.1881V19.9783H84.3009V41.1881H77.407Z" fill="white"/>
<path d="M88.1504 41.1853V19.9754H95.0443V41.1853H88.1504ZM102.117 41.1853V28.7908C102.117 27.7437 101.782 26.922 101.11 26.3253C100.438 25.7294 99.6103 25.4307 98.6257 25.4307C97.9388 25.4307 97.3273 25.569 96.7906 25.8453C96.2532 26.1222 95.8276 26.5075 95.5145 27.0018C95.2008 27.497 95.0443 28.0931 95.0443 28.7908L92.4034 27.6129C92.4034 25.9543 92.7836 24.5219 93.5446 23.314C94.3056 22.1071 95.3203 21.1758 96.5887 20.5211C97.857 19.8664 99.312 19.5391 100.953 19.5391C102.445 19.5391 103.796 19.8739 105.005 20.5429C106.213 21.2126 107.183 22.1432 107.914 23.3358C108.645 24.5294 109.011 25.9543 109.011 27.6129V41.1852L102.117 41.1853ZM115.995 41.1853V28.7908C115.995 27.7437 115.659 26.922 114.987 26.3253C114.316 25.7294 113.502 25.4307 112.548 25.4307C111.891 25.4307 111.286 25.569 110.735 25.8453C110.182 26.1222 109.757 26.5075 109.459 27.0018C109.16 27.497 109.011 28.0931 109.011 28.7908L105.027 28.2676C105.116 26.4639 105.564 24.9072 106.37 23.5978C107.176 22.2887 108.265 21.2848 109.638 20.5865C111.01 19.8882 112.548 19.5391 114.249 19.5391C115.889 19.5391 117.367 19.8814 118.68 20.5647C119.994 21.2487 121.023 22.2164 121.769 23.4669C122.515 24.7181 122.888 26.2312 122.888 28.0056V41.1852L115.995 41.1853Z" fill="white"/>
<path d="M126.335 50.1318V19.9754H133.229V25.3871L132.11 30.5805L133.139 35.7303V50.1318H126.335ZM138.958 41.6219C137.466 41.6219 136.109 41.3447 134.885 40.7922C133.661 40.2403 132.669 39.4766 131.908 38.501C131.147 37.5268 130.707 36.4142 130.588 35.1628V26.2162C130.707 24.9364 131.154 23.7943 131.93 22.7904C132.706 21.7866 133.706 20.9942 134.93 20.4121C136.153 19.8303 137.497 19.5391 138.958 19.5391C140.988 19.5391 142.801 20.0193 144.398 20.9793C145.994 21.9395 147.255 23.2486 148.18 24.9072C149.105 26.5654 149.568 28.4569 149.568 30.5805C149.568 32.7047 149.113 34.5884 148.202 36.2317C147.292 37.8763 146.032 39.185 144.42 40.1599C142.808 41.1348 140.988 41.6219 138.958 41.6219ZM137.661 35.5552C138.615 35.5552 139.458 35.3447 140.19 34.9229C140.921 34.5012 141.503 33.9119 141.935 33.1551C142.368 32.3988 142.585 31.5404 142.585 30.5805C142.585 29.6206 142.368 28.7628 141.935 28.0056C141.503 27.2494 140.928 26.6601 140.212 26.2381C139.496 25.8166 138.66 25.6052 137.705 25.6052C136.75 25.6052 135.907 25.8166 135.176 26.2381C134.445 26.6601 133.87 27.2494 133.452 28.0056C133.035 28.7628 132.826 29.6206 132.826 30.5805C132.826 31.5404 133.035 32.3988 133.452 33.1551C133.87 33.9119 134.445 34.5012 135.176 34.9229C135.907 35.3447 136.736 35.5552 137.661 35.5552Z" fill="white"/>
<path d="M152.075 41.1874V9.50391H158.969V41.1874H152.075Z" fill="white"/>
<path d="M166.355 17.0981C165.31 17.0981 164.43 16.7347 163.714 16.0071C162.997 15.2801 162.64 14.4074 162.64 13.3886C162.64 12.3411 162.997 11.4684 163.714 10.7701C164.43 10.0718 165.31 9.72266 166.355 9.72266C167.459 9.72266 168.347 10.0718 169.019 10.7701C169.69 11.4684 170.026 12.3411 170.026 13.3886C170.026 14.4074 169.69 15.2801 169.019 16.0071C168.347 16.7347 167.459 17.0981 166.355 17.0981ZM162.908 41.1881V19.9783H169.802V41.1881H162.908Z" fill="white"/>
<path d="M174.278 41.1857V10.375H181.351V41.1857H174.278ZM179.695 28.5297V23.3802H186.365C187.737 23.3802 188.812 23.0385 189.588 22.3546C190.364 21.6712 190.752 20.7474 190.752 19.5832C190.752 18.4781 190.371 17.5614 189.61 16.8339C188.849 16.1069 187.782 15.7428 186.41 15.7428H179.695V10.375H187.216C189.334 10.375 191.184 10.7609 192.766 11.5315C194.348 12.3027 195.579 13.3719 196.46 14.7389C197.339 16.1069 197.78 17.663 197.78 19.4087C197.78 21.271 197.332 22.8781 196.437 24.2311C195.542 25.5838 194.288 26.6388 192.677 27.395C191.065 28.1522 189.17 28.5297 186.991 28.5297L179.695 28.5297ZM191.468 41.1857L181.619 27.9189L188.111 26.1731L199.839 41.1857H191.468Z" fill="white"/>
<path d="M205.435 17.0981C204.39 17.0981 203.51 16.7347 202.794 16.0071C202.078 15.2801 201.72 14.4074 201.72 13.3886C201.72 12.3411 202.078 11.4684 202.794 10.7701C203.51 10.0718 204.39 9.72266 205.435 9.72266C206.539 9.72266 207.427 10.0718 208.099 10.7701C208.77 11.4684 209.106 12.3411 209.106 13.3886C209.106 14.4074 208.77 15.2801 208.099 16.0071C207.427 16.7347 206.539 17.0981 205.435 17.0981ZM201.988 41.1881V19.9783H208.882V41.1881H201.988Z" fill="white"/>
<path d="M222.043 41.624C219.954 41.624 218.111 41.1438 216.515 40.1838C214.918 39.2233 213.672 37.9145 212.777 36.2556C211.882 34.5974 211.434 32.7068 211.434 30.5826C211.434 28.459 211.882 26.5675 212.777 24.9093C213.672 23.2507 214.926 21.9416 216.537 20.9814C218.149 20.0215 219.984 19.5412 222.043 19.5412C223.505 19.5412 224.848 19.8106 226.072 20.3485C227.295 20.8873 228.295 21.6436 229.071 22.6178C229.847 23.593 230.295 24.7202 230.414 26.0003V34.9469C230.295 36.1977 229.847 37.3252 229.071 38.3287C228.295 39.3329 227.295 40.1334 226.072 40.7289C224.848 41.325 223.505 41.624 222.043 41.624ZM223.252 35.5573C224.237 35.5573 225.087 35.3468 225.803 34.9251C226.52 34.5033 227.079 33.914 227.482 33.1572C227.885 32.4009 228.086 31.5282 228.086 30.539C228.086 29.5791 227.885 28.7275 227.482 27.9859C227.079 27.244 226.52 26.6622 225.803 26.2402C225.087 25.8188 224.251 25.6073 223.297 25.6073C222.341 25.6073 221.506 25.8256 220.79 26.262C220.074 26.6983 219.499 27.2876 219.066 28.0295C218.634 28.7711 218.417 29.6227 218.417 30.5826C218.417 31.5425 218.619 32.4009 219.021 33.1572C219.425 33.914 219.998 34.5033 220.745 34.9251C221.49 35.3468 222.327 35.5573 223.252 35.5573ZM234.577 41.1874H227.818V35.4701L228.847 30.2768L227.684 25.1709V9.50391H234.577V41.1874Z" fill="white"/>
<path d="M249.216 41.6662C246.858 41.6662 244.768 41.1927 242.948 40.2478C241.128 39.3028 239.695 37.9859 238.651 36.2978C237.606 34.6109 237.084 32.691 237.084 30.5375C237.084 28.4426 237.591 26.5592 238.606 24.886C239.621 23.2131 241.008 21.8966 242.77 20.9363C244.53 19.9761 246.514 19.4961 248.723 19.4961C250.901 19.4961 252.812 19.9477 254.453 20.8491C256.094 21.7511 257.392 23.0026 258.348 24.6023C259.302 26.2026 259.78 28.0355 259.78 30.1009C259.78 30.5089 259.758 30.9231 259.713 31.3448C259.668 31.7666 259.571 32.2394 259.422 32.7633L240.71 32.8505V28.2246L256.467 28.1374L253.513 30.1009C253.483 28.9086 253.289 27.9122 252.931 27.1114C252.573 26.3116 252.043 25.6933 251.342 25.2569C250.64 24.8203 249.798 24.6023 248.813 24.6023C247.738 24.6023 246.805 24.8499 246.015 25.3442C245.224 25.8391 244.612 26.5224 244.18 27.3952C243.747 28.2682 243.531 29.3153 243.531 30.5375C243.531 31.7591 243.761 32.8218 244.224 33.7232C244.686 34.6252 245.343 35.316 246.194 35.7963C247.044 36.276 248.052 36.5164 249.216 36.5164C250.26 36.5164 251.215 36.3351 252.081 35.9707C252.946 35.6076 253.707 35.0619 254.364 34.3343L258.169 38.0002C257.094 39.2511 255.796 40.1755 254.274 40.771C252.752 41.3672 251.065 41.6662 249.216 41.6662Z" fill="white"/>
</svg>
