<svg width="96" height="96" viewBox="0 0 96 96" fill="none" xmlns="http://www.w3.org/2000/svg">
<g clip-path="url(#clip0_6616_14752)">
<path d="M83.1638 32.7953C82.8228 32.5583 82.3597 32.6413 82.1226 32.9795L79.0228 37.415C78.7876 37.7532 78.8696 38.2182 79.207 38.4543C79.3382 38.5455 79.4878 38.5892 79.6355 38.5892C79.8707 38.5892 80.1023 38.478 80.2481 38.2701L83.3479 33.8347C83.5832 33.4964 83.5011 33.0315 83.1638 32.7953Z" fill="#0B215D"/>
<path d="M87.8214 44.0183L82.3384 44.0156C81.9263 44.0156 81.5927 44.3493 81.5908 44.7623C81.5908 45.1744 81.9263 45.509 82.3384 45.509L87.8214 45.5117C88.2335 45.5117 88.5672 45.178 88.569 44.765C88.569 44.3529 88.2335 44.0183 87.8214 44.0183Z" fill="#0B215D"/>
<path d="M13.4751 32.9791C13.238 32.6417 12.7739 32.5588 12.4348 32.794C12.0966 33.031 12.0136 33.496 12.2497 33.8343L15.3486 38.2697C15.4945 38.4776 15.7261 38.5888 15.9622 38.5888C16.1099 38.5888 16.2585 38.5451 16.3889 38.4548C16.7271 38.2178 16.8101 37.7528 16.574 37.4145L13.4751 32.9791Z" fill="#0B215D"/>
<path d="M13.2609 44.0156L7.77793 44.0183C7.36493 44.0183 7.03125 44.3529 7.03125 44.765C7.03125 45.178 7.36585 45.5117 7.77793 45.5117L13.2609 45.509C13.6739 45.509 14.0076 45.1744 14.0076 44.7623C14.0076 44.3493 13.673 44.0156 13.2609 44.0156Z" fill="#0B215D"/>
<path d="M65.3143 2.23828H30.2828C25.2383 2.23828 21.1338 6.34279 21.1338 11.3873V84.2073C21.1338 89.2518 25.2383 93.3563 30.2828 93.3563H65.3143C68.839 93.3563 72.0901 91.2949 73.5926 88.1039C73.7695 87.731 73.609 87.2861 73.237 87.1102C72.8632 86.9369 72.4183 87.0919 72.2433 87.4676C70.9833 90.137 68.2646 91.8629 65.3143 91.8629H30.2828C26.0616 91.8629 22.6272 88.4285 22.6272 84.2073V11.3873C22.6272 7.16607 26.0616 3.73165 30.2828 3.73165H58.3264L57.3642 6.55795C56.9722 7.70852 55.8909 8.48165 54.6765 8.48165H40.9197C39.7044 8.48165 38.624 7.70852 38.232 6.55884C38.098 6.16681 37.6685 5.95985 37.2847 6.09296C36.8936 6.22607 36.6857 6.65002 36.8188 7.04022C37.4169 8.79617 39.0653 9.97502 40.9197 9.97502H54.6765C56.5309 9.97502 58.1793 8.79617 58.7792 7.04022L59.9053 3.73163H65.3143C69.5355 3.73163 72.969 7.16605 72.969 11.3873V47.7973C72.2433 87.4676 72.8249 87.1102 73.237 87.1102C73.6491 87.1102 74.4642 87.5222 74.4642 87.1102V11.3873C74.4642 6.34279 70.3597 2.23828 65.3143 2.23828Z" fill="#0B215D"/>
<path d="M40.1578 88.5285H55.439C55.8511 88.5285 56.1866 88.1939 56.1866 87.7818C56.1866 87.3698 55.8511 87.0352 55.439 87.0352H40.1578C39.7457 87.0352 39.4111 87.3698 39.4111 87.7818C39.4111 88.1939 39.7457 88.5285 40.1578 88.5285Z" fill="#0B215D"/>
<path d="M57.0729 81.9109C57.485 81.9109 57.8205 81.5763 57.8205 81.1643V78.5084C57.8205 76.9613 56.5605 75.7031 55.0142 75.7031H40.5846C39.0375 75.7031 37.7793 76.9613 37.7793 78.5084V81.1643C37.7793 82.7114 39.0375 83.9705 40.5846 83.9705H46.5846C46.9967 83.9705 47.3313 83.6359 47.3313 83.2238C47.3313 82.8117 46.9967 82.4771 46.5846 82.4771H40.5846C39.8616 82.4771 39.2727 81.8882 39.2727 81.1643V78.5085C39.2727 77.7855 39.8616 77.1965 40.5846 77.1965H55.0142C55.7382 77.1965 56.3253 77.7855 56.3253 78.5085V81.1643C56.3253 81.5764 56.6608 81.9109 57.0729 81.9109Z" fill="#0B215D"/>
<path d="M72.2045 82.5306C70.8031 83.3397 70.3229 85.1317 71.132 86.5331L70.6131 85.6343C69.804 84.2329 68.012 83.7528 66.6107 84.5619C65.2093 85.3709 64.7291 87.1629 65.5382 88.5643L65.0193 87.6655C64.2102 86.2641 62.4183 85.784 61.0169 86.5931C59.6157 87.402 59.1355 89.1934 59.9441 90.5948L54.2921 80.8053C53.483 79.4039 51.6911 78.9238 50.2897 79.7329C48.8883 80.542 48.4082 82.3339 49.2172 83.7353L61.0213 104.18L55.647 102.313C54.3532 101.863 52.9177 102.317 52.1185 103.43C51.0579 104.906 51.4926 106.975 53.0578 107.899L61.7196 113.015C65.2656 115.109 69.6648 115.131 73.2314 113.072L78.3387 110.123C83.7979 106.972 85.6684 99.9909 82.5164 94.5316L78.7103 87.9391L78.1376 86.9472L76.2069 83.6031C75.3978 82.2017 73.6058 81.7215 72.2045 82.5306Z" fill="#23D9EF"/>
<path d="M36.0176 46.1174L38.6829 40.2624C38.9251 39.7304 39.4592 39.3867 40.0436 39.3867H54.9587C55.5433 39.3867 56.0774 39.7304 56.3195 40.2624L58.9848 46.1174H36.0176Z" fill="#7467F4"/>
<path d="M47.4834 19.5312C43.7307 19.5312 40.6885 22.5734 40.6885 26.3262C40.6885 30.079 43.7307 33.1211 47.4834 33.1211C51.2361 33.1211 54.2783 30.0789 54.2783 26.3262C54.2783 22.5735 51.2362 19.5312 47.4834 19.5312ZM52.0033 30.1299C50.9197 31.4163 49.297 32.2336 47.4834 32.2336C45.6697 32.2336 44.0471 31.4163 42.9635 30.1299C42.685 29.7992 42.7379 29.303 43.0764 29.0341C43.9405 28.348 44.9723 27.8705 46.0955 27.6467C45.3413 27.1798 44.8345 26.3518 44.8345 25.3996C44.8345 23.9366 46.0204 22.7507 47.4834 22.7507C48.9463 22.7507 50.1323 23.9366 50.1323 25.3996C50.1323 26.3518 49.6255 27.1798 48.8712 27.6467C49.9944 27.8705 51.0263 28.348 51.8904 29.0341C52.2289 29.303 52.2817 29.7992 52.0033 30.1299Z" fill="#23D9EF"/>
<path d="M51.9955 32.9828C53.0385 33.6483 54.246 34.0001 55.4891 34.0001C59.0742 34.0001 61.992 31.0833 61.992 27.4981C61.992 23.913 59.0742 20.9961 55.4891 20.9961C54.8021 20.9961 54.1245 21.1031 53.475 21.3139C53.2741 21.3793 53.1647 21.5952 53.2292 21.7961C53.2956 21.9971 53.5068 22.1078 53.7124 22.0419C54.2844 21.8559 54.8825 21.7615 55.4891 21.7615C58.6527 21.7615 61.2256 24.335 61.2256 27.4981C61.2256 30.6613 58.6527 33.2347 55.4891 33.2347C54.3928 33.2347 53.3264 32.9244 52.4067 32.337C52.2292 32.223 51.9918 32.2744 51.8787 32.4538C51.7647 32.6323 51.817 32.8688 51.9955 32.9828Z" fill="#0B215D"/>
<path d="M55.4896 29.1432C55.2681 29.1432 55.0476 29.1137 54.8345 29.0558C54.6261 29.0006 54.4195 29.1217 54.3653 29.3249C54.3092 29.5292 54.4298 29.7394 54.6345 29.795C54.913 29.8703 55.2008 29.9086 55.4896 29.9086C56.2118 29.9086 56.8732 29.6636 57.4132 29.2633C58.0649 29.4848 58.6761 29.8021 59.2215 30.2343C59.2916 30.2899 59.3757 30.317 59.4589 30.317C59.571 30.317 59.6832 30.2675 59.7589 30.1722C59.8907 30.0063 59.8626 29.7656 59.6963 29.6343C59.1853 29.2287 58.6253 28.9042 58.0278 28.6624C58.4652 28.1092 58.7374 27.4198 58.7374 26.6613C58.7374 24.8706 57.2803 23.4141 55.4896 23.4141C55.2906 23.4141 55.0962 23.4318 54.9064 23.4664C54.698 23.5043 54.5606 23.7033 54.598 23.9113C54.6354 24.1192 54.8279 24.2589 55.0429 24.2197C55.1878 24.1935 55.3373 24.1795 55.4896 24.1795C56.8579 24.1795 57.971 25.2931 57.971 26.6613C57.971 28.0296 56.8579 29.1432 55.4896 29.1432Z" fill="#0B215D"/>
<path d="M39.5108 34.0001C40.7538 34.0001 41.9613 33.6482 43.0043 32.9828C43.1829 32.8688 43.2352 32.6323 43.1212 32.4538C43.0072 32.2744 42.7688 32.223 42.5931 32.337C41.6735 32.9244 40.6071 33.2347 39.5108 33.2347C36.3481 33.2347 33.7752 30.6613 33.7752 27.4981C33.7752 24.335 36.3481 21.7615 39.5108 21.7615C40.1183 21.7615 40.7155 21.8559 41.2875 22.0419C41.4903 22.1083 41.7053 21.9971 41.7707 21.7961C41.8352 21.5952 41.7258 21.3793 41.5249 21.3139C40.8763 21.1031 40.1987 20.9961 39.5108 20.9961C35.9257 20.9961 33.0088 23.913 33.0088 27.4981C33.0088 31.0833 35.9257 34.0001 39.5108 34.0001Z" fill="#0B215D"/>
<path d="M35.2429 30.1722C35.3186 30.2675 35.4307 30.317 35.5429 30.317C35.6261 30.317 35.7102 30.2899 35.7812 30.2343C36.3247 29.8022 36.9356 29.485 37.588 29.2636C38.1279 29.6637 38.7891 29.9086 39.5112 29.9086C39.8019 29.9086 40.0897 29.8703 40.3673 29.7946C40.571 29.7394 40.6916 29.5287 40.6355 29.3249C40.5804 29.1212 40.372 29.0002 40.1654 29.0563C39.9542 29.1137 39.7336 29.1432 39.5112 29.1432C38.143 29.1432 37.0299 28.0296 37.0299 26.6613C37.0299 25.2931 38.143 24.1795 39.5112 24.1795C39.6645 24.1795 39.8131 24.1935 39.957 24.2197C40.1682 24.2585 40.3654 24.1192 40.4028 23.9117C40.4411 23.7038 40.3028 23.5043 40.0953 23.4664C39.9065 23.4318 39.7112 23.4141 39.5112 23.4141C37.7205 23.4141 36.2635 24.8706 36.2635 26.6613C36.2635 27.4198 36.5357 28.1093 36.9731 28.6625C36.3753 28.9043 35.8154 29.2288 35.3046 29.6343C35.1392 29.7661 35.112 30.0067 35.2429 30.1722Z" fill="#0B215D"/>
<path d="M64.6189 48.668L61.376 46.1455L62.2497 43.9413C62.2927 43.8329 62.3749 43.7492 62.4824 43.7044C62.5908 43.6609 62.7086 43.6609 62.8151 43.7072L64.717 44.5334C64.8722 44.6007 64.9722 44.7539 64.9722 44.9236V45.1773C64.9722 45.4119 64.7815 45.603 64.5469 45.603H62.9114C62.7002 45.603 62.5282 45.7745 62.5282 45.9857C62.5282 46.1969 62.7002 46.3684 62.9114 46.3684H64.5469C65.204 46.3684 65.7386 45.8343 65.7386 45.1773V44.9235C65.7386 44.4478 65.4563 44.0189 65.0208 43.831L63.1198 43.0053C62.8217 42.8754 62.4918 42.873 62.1899 42.9969C61.8889 43.1216 61.6572 43.3567 61.5375 43.659L60.8897 45.2934L58.1655 39.308C57.6804 38.243 56.6103 37.5547 55.4402 37.5547H39.5613C38.3912 37.5547 37.3211 38.2426 36.836 39.308L34.0929 45.3331L33.4294 43.659C33.3098 43.3567 33.078 43.1216 32.7771 42.9969C32.4761 42.873 32.1462 42.8754 31.8471 43.0053L29.9471 43.8305C29.5106 44.0188 29.2284 44.4478 29.2284 44.9235V45.1773C29.2284 45.8343 29.763 46.3684 30.42 46.3684H32.0556C32.2668 46.3684 32.4387 46.1969 32.4387 45.9857C32.4387 45.7745 32.2668 45.603 32.0556 45.603H30.42C30.1854 45.603 29.9948 45.4119 29.9948 45.1773V44.9235C29.9948 44.7539 30.0948 44.6006 30.2508 44.5329L32.1518 43.7072C32.2584 43.6609 32.3761 43.6609 32.4845 43.7044C32.592 43.7492 32.6743 43.8329 32.7173 43.9413L33.5989 46.1655L30.3826 48.668C29.6471 49.2391 29.2256 50.1003 29.2256 51.0312V59.6015C29.2256 60.7122 30.0455 61.628 31.1107 61.7948V63.6408C31.1107 64.8619 32.1042 65.8549 33.3257 65.8549H35.937C37.1585 65.8549 38.152 64.8619 38.152 63.6408V63.1193C38.152 62.9081 37.98 62.7366 37.7688 62.7366C37.5576 62.7366 37.3856 62.9081 37.3856 63.1193V63.6408C37.3856 64.4394 36.736 65.0894 35.937 65.0894H33.3257C32.5266 65.0894 31.8771 64.4394 31.8771 63.6408V61.8296H56.8496V63.6408C56.8496 64.8619 57.8431 65.8549 59.0646 65.8549H61.6759C62.8974 65.8549 63.8909 64.8619 63.8909 63.6408V61.7948C64.956 61.628 65.776 60.7122 65.776 59.6015V51.0312C65.776 50.1148 65.3432 49.2316 64.6189 48.668ZM63.1245 63.6408C63.1245 64.4394 62.4749 65.0894 61.6759 65.0894H59.0646C58.2655 65.0894 57.616 64.4394 57.616 63.6408V61.8296H63.1245V63.6408ZM65.0096 59.6015C65.0096 60.408 64.3535 61.0641 63.5469 61.0641H31.4546C30.648 61.0641 29.992 60.408 29.992 59.6015V51.0312C29.992 50.3386 30.3051 49.6975 30.8527 49.2727L34.322 46.5736C34.3706 46.5353 34.4089 46.4862 34.435 46.4297L37.5332 39.6253C37.894 38.8323 38.6903 38.3201 39.5613 38.3201H55.4402C56.3112 38.3201 57.1075 38.8323 57.4683 39.6249L60.5655 46.4297C60.5684 46.4359 60.575 46.4395 60.5781 46.4455C60.6005 46.4886 60.6303 46.5265 60.6678 46.5588C60.6727 46.5629 60.6745 46.5696 60.6796 46.5736L64.1488 49.2727C64.6881 49.6919 65.0096 50.3494 65.0096 51.0312L65.0096 59.6015Z" fill="#0B215D"/>
<path d="M36.5203 52.1786L32.4847 50.2244C32.4841 50.2244 32.4838 50.2242 32.4838 50.2239C32.2604 50.1174 31.9987 50.1295 31.7866 50.2622C31.5744 50.3949 31.4482 50.6234 31.4482 50.873V51.5595C31.4482 53.7824 33.2567 55.5904 35.4792 55.5904H38.5063C38.7148 55.5904 38.9064 55.4852 39.0176 55.3091C39.1288 55.1324 39.1419 54.9142 39.0522 54.7254C38.5241 53.6179 37.625 52.7132 36.5203 52.1786ZM35.4792 54.8249C33.6791 54.8249 32.2146 53.36 32.2146 51.5595L32.1941 50.9342L36.1867 52.8674C37.0577 53.2894 37.7793 53.9787 38.2428 54.8249H35.4792Z" fill="#0B215D"/>
<path d="M63.0012 49.9873L58.4805 52.1771C57.3758 52.7117 56.4767 53.6159 55.9468 54.7244C55.8571 54.9127 55.8702 55.1305 55.9814 55.3071C56.0936 55.4837 56.2842 55.5889 56.4926 55.5889H59.5198C61.4217 55.5889 63.0825 54.2393 63.4666 52.3799C63.5096 52.1729 63.3769 51.9701 63.1694 51.9276C62.9591 51.8823 62.7601 52.0182 62.7171 52.2248C62.4058 53.7304 61.0609 54.8234 59.5198 54.8234H56.7562C57.2207 53.9767 57.9431 53.2874 58.8142 52.8659L63.3358 50.6761C63.5255 50.5841 63.6049 50.3551 63.5133 50.1649C63.4217 49.9747 63.1937 49.8958 63.0012 49.9873Z" fill="#0B215D"/>
<path d="M53.9379 55.043H41.0629C40.8517 55.043 40.6797 55.2145 40.6797 55.4257C40.6797 55.6369 40.8517 55.8084 41.0629 55.8084H53.9379C54.1491 55.8084 54.3211 55.6369 54.3211 55.4257C54.3211 55.2145 54.1491 55.043 53.9379 55.043Z" fill="#0B215D"/>
<path d="M52.4352 57.8008H42.5658C42.3546 57.8008 42.1826 57.9723 42.1826 58.1835C42.1826 58.3947 42.3546 58.5662 42.5658 58.5662H52.4352C52.6464 58.5662 52.8184 58.3947 52.8184 58.1835C52.8184 57.9723 52.6464 57.8008 52.4352 57.8008Z" fill="#0B215D"/>
<path d="M38.4204 51.2988C39.1241 52.0175 40.1045 52.4297 41.1102 52.4297H53.8908C54.8965 52.4297 55.8769 52.0175 56.5816 51.2988L59.5181 48.3006C59.6657 48.1497 59.6629 47.9072 59.5125 47.7595C59.3601 47.6113 59.1199 47.6137 58.9704 47.7651L56.0339 50.7633C55.4731 51.3357 54.6918 51.6642 53.8908 51.6642H41.1102C40.3092 51.6642 39.5279 51.3357 38.9681 50.7633L36.0063 47.7403C35.8568 47.5885 35.6157 47.5866 35.4642 47.7347C35.3138 47.8824 35.311 48.1249 35.4586 48.2758L38.4204 51.2988Z" fill="#0B215D"/>
<path d="M61.8612 34.0981C61.8855 34.2921 62.0509 34.4341 62.2406 34.4341C62.2565 34.4341 62.2724 34.4332 62.2883 34.4313L65.0407 34.0911C65.251 34.0654 65.3996 33.8743 65.3744 33.6645C65.3482 33.4542 65.1519 33.3042 64.9472 33.3313L62.1948 33.6715C61.9846 33.6972 61.836 33.8883 61.8612 34.0981Z" fill="#0B215D"/>
<path d="M60.2763 37.1689C60.1192 37.31 60.1062 37.5521 60.2473 37.7096L62.1258 39.7993C62.2015 39.8835 62.3062 39.926 62.4109 39.926C62.5025 39.926 62.5941 39.8937 62.667 39.8278C62.824 39.6867 62.8371 39.4447 62.6959 39.2872L60.8174 37.1974C60.6753 37.0395 60.4323 37.0273 60.2763 37.1689Z" fill="#0B215D"/>
<path d="M30.8804 33.9528L33.5692 34.6336C33.601 34.6416 33.6328 34.6453 33.6636 34.6453C33.8347 34.6453 33.9908 34.5299 34.0347 34.3565C34.087 34.1514 33.9627 33.9434 33.758 33.8916L31.0692 33.2107C30.8608 33.1598 30.6552 33.2831 30.6038 33.4878C30.5514 33.6929 30.6757 33.9009 30.8804 33.9528Z" fill="#0B215D"/>
<path d="M34.6855 37.5618L32.5602 39.4006C32.4004 39.5394 32.3826 39.781 32.5209 39.9408C32.5966 40.0282 32.7032 40.0731 32.8106 40.0731C32.8994 40.0731 32.9892 40.0427 33.0611 39.9801L35.1864 38.1408C35.3462 38.0024 35.364 37.7609 35.2257 37.601C35.0873 37.4417 34.8443 37.4235 34.6855 37.5618Z" fill="#0B215D"/>
</g>
<defs>
<clipPath id="clip0_6616_14752">
<rect width="95.5996" height="95.5996" fill="white"/>
</clipPath>
</defs>
</svg>
