<svg width="20" height="20" viewBox="0 0 20 20" fill="none" xmlns="http://www.w3.org/2000/svg">
<path d="M8.39961 1.20312C4.64023 1.20312 1.59961 4.24375 1.59961 8.00313C1.59961 11.7625 4.64023 14.8031 8.39961 14.8031C9.7418 14.8031 10.984 14.4094 12.0371 13.7406L16.9496 18.6531L18.6496 16.9531L13.7996 12.1156C14.6715 10.9719 15.1996 9.55469 15.1996 8.00313C15.1996 4.24375 12.159 1.20312 8.39961 1.20312ZM8.39961 2.80313C11.2793 2.80313 13.5996 5.12344 13.5996 8.00313C13.5996 10.8828 11.2793 13.2031 8.39961 13.2031C5.51992 13.2031 3.19961 10.8828 3.19961 8.00313C3.19961 5.12344 5.51992 2.80313 8.39961 2.80313Z" fill="#7567F5"/>
</svg>
