<svg width="12" height="14" viewBox="0 0 12 14" fill="none" xmlns="http://www.w3.org/2000/svg">
<path fill-rule="evenodd" clip-rule="evenodd" d="M5.69697 0.591797C2.54069 0.591797 0 3.22873 0 6.4589C0 8.06249 0.62545 9.78044 1.62611 11.1006C2.62447 12.4177 4.05508 13.41 5.69697 13.41C7.33886 13.41 8.76947 12.4177 9.76783 11.1006C10.7685 9.78044 11.3939 8.06249 11.3939 6.4589C11.3939 3.22873 8.85325 0.591797 5.69697 0.591797ZM3.67861 6.01487C3.67861 4.88945 4.58226 3.97711 5.69697 3.97711C6.81168 3.97711 7.71532 4.88945 7.71532 6.01487C7.71532 7.1403 6.81168 8.05264 5.69697 8.05264C4.58226 8.05264 3.67861 7.1403 3.67861 6.01487ZM5.69697 4.76592C5.01376 4.76592 4.45991 5.3251 4.45991 6.01487C4.45991 6.70465 5.01376 7.26382 5.69697 7.26382C6.38018 7.26382 6.93403 6.70465 6.93403 6.01487C6.93403 5.3251 6.38018 4.76592 5.69697 4.76592Z" fill="#0A215E"/>
</svg>
