<svg width="16" height="16" viewBox="0 0 16 16" fill="none" xmlns="http://www.w3.org/2000/svg">
<path d="M9.0785 14.2472C8.78937 14.5179 8.40293 14.6693 8.00075 14.6693C7.59856 14.6693 7.21212 14.5179 6.92299 14.2472C4.27535 11.7533 0.727175 8.96722 2.45751 4.92238C3.39309 2.73537 5.6389 1.33594 8.00075 1.33594C10.3626 1.33594 12.6084 2.73538 13.544 4.92238C15.2721 8.96212 11.7327 11.7619 9.0785 14.2472Z" stroke="white" stroke-width="1.25"/>
<path d="M10.3346 7.33529C10.3346 8.62395 9.28997 9.66862 8.0013 9.66862C6.71264 9.66862 5.66797 8.62395 5.66797 7.33529C5.66797 6.04662 6.71264 5.00195 8.0013 5.00195C9.28997 5.00195 10.3346 6.04662 10.3346 7.33529Z" stroke="white" stroke-width="1.25"/>
</svg>
