<svg width="28" height="22" viewBox="0 0 28 22" fill="none" xmlns="http://www.w3.org/2000/svg">
<g clip-path="url(#clip0_688_25684)">
<path d="M5.08775 21.8886V20.4325C5.08775 19.8742 4.75153 19.5103 4.17523 19.5103C3.88714 19.5103 3.57498 19.6074 3.35886 19.9229C3.19086 19.6559 2.95078 19.5103 2.59061 19.5103C2.35042 19.5103 2.11045 19.5831 1.91828 19.85V19.5588H1.41406V21.8886H1.91828V20.6023C1.91828 20.1899 2.13441 19.9956 2.47062 19.9956C2.80663 19.9956 2.97484 20.2141 2.97484 20.6023V21.8886H3.47906V20.6023C3.47906 20.1899 3.71903 19.9956 4.03119 19.9956C4.36741 19.9956 4.53541 20.2141 4.53541 20.6023V21.8886H5.08775ZM12.5549 19.5588H11.7386V18.8551H11.2344V19.5588H10.7782V20.0198H11.2343V21.0878C11.2343 21.6218 11.4504 21.9372 12.0267 21.9372C12.2428 21.9372 12.4828 21.8644 12.651 21.7674L12.5069 21.3304C12.3628 21.4275 12.1948 21.4518 12.0747 21.4518C11.8347 21.4518 11.7386 21.3062 11.7386 21.0635V20.0198H12.5549V19.5588ZM16.8288 19.5102C16.5407 19.5102 16.3487 19.6559 16.2286 19.85V19.5588H15.7244V21.8886H16.2286V20.5781C16.2286 20.1899 16.3966 19.9714 16.7087 19.9714C16.8048 19.9714 16.9249 19.9957 17.0209 20.02L17.1649 19.5346C17.0689 19.5103 16.9249 19.5103 16.8288 19.5103M10.37 19.7531C10.1298 19.5832 9.79372 19.5104 9.43355 19.5104C8.85736 19.5104 8.47323 19.8016 8.47323 20.2627C8.47323 20.6511 8.76133 20.8694 9.26555 20.9423L9.50562 20.9666C9.76976 21.015 9.91381 21.0879 9.91381 21.2093C9.91381 21.3791 9.72175 21.5005 9.38553 21.5005C9.04942 21.5005 8.78528 21.3791 8.61717 21.2578L8.37709 21.6461C8.64123 21.8402 9.00141 21.9373 9.36147 21.9373C10.0338 21.9373 10.418 21.6219 10.418 21.185C10.418 20.7724 10.1059 20.5539 9.62561 20.4812L9.38553 20.4569C9.16941 20.4325 9.00141 20.3841 9.00141 20.2385C9.00141 20.0686 9.16941 19.9715 9.43355 19.9715C9.72175 19.9715 10.0098 20.0928 10.1539 20.1657L10.37 19.7531ZM23.7679 19.5104C23.4797 19.5104 23.2876 19.656 23.1675 19.8501V19.559H22.6633V21.8887H23.1675V20.5782C23.1675 20.19 23.3357 19.9715 23.6477 19.9715C23.7438 19.9715 23.8639 19.9959 23.96 20.0201L24.104 19.5347C24.008 19.5104 23.8639 19.5104 23.7679 19.5104ZM17.333 20.7238C17.333 21.4276 17.8132 21.9373 18.5576 21.9373C18.8937 21.9373 19.1338 21.8645 19.3739 21.6704L19.1338 21.2578C18.9417 21.4034 18.7497 21.4762 18.5335 21.4762C18.1254 21.4762 17.8373 21.185 17.8373 20.7238C17.8373 20.2871 18.1254 19.9957 18.5335 19.9715C18.7497 19.9715 18.9417 20.0443 19.1338 20.19L19.3739 19.7774C19.1338 19.5832 18.8937 19.5104 18.5576 19.5104C17.8132 19.5104 17.333 20.0201 17.333 20.7238ZM21.9911 20.7238V19.559H21.4869V19.8501C21.3188 19.6318 21.0787 19.5104 20.7665 19.5104C20.1183 19.5104 19.6141 20.0201 19.6141 20.7238C19.6141 21.4276 20.1183 21.9373 20.7665 21.9373C21.1027 21.9373 21.3428 21.816 21.4869 21.5975V21.8887H21.9911V20.7238ZM20.1422 20.7238C20.1422 20.3113 20.4064 19.9715 20.8385 19.9715C21.2467 19.9715 21.5349 20.2871 21.5349 20.7238C21.5349 21.1364 21.2467 21.4762 20.8385 21.4762C20.4064 21.4518 20.1422 21.1364 20.1422 20.7238ZM14.1157 19.5104C13.4433 19.5104 12.9631 19.9957 12.9631 20.7238C12.9631 21.4519 13.4432 21.9373 14.1396 21.9373C14.4757 21.9373 14.812 21.8402 15.0761 21.6219L14.8359 21.2578C14.6438 21.4034 14.4038 21.5005 14.1637 21.5005C13.8515 21.5005 13.5394 21.3549 13.4673 20.9422H15.1721V20.7482C15.1962 19.9957 14.764 19.5104 14.1157 19.5104ZM14.1156 19.9472C14.4276 19.9472 14.6438 20.1415 14.6918 20.5055H13.4913C13.5393 20.19 13.7554 19.9472 14.1156 19.9472ZM26.625 20.7238V18.6367H26.1208V19.8501C25.9527 19.6318 25.7126 19.5104 25.4004 19.5104C24.7522 19.5104 24.248 20.0201 24.248 20.7238C24.248 21.4276 24.7522 21.9373 25.4004 21.9373C25.7367 21.9373 25.9767 21.816 26.1208 21.5975V21.8887H26.625V20.7238ZM24.7762 20.7238C24.7762 20.3113 25.0403 19.9715 25.4725 19.9715C25.8807 19.9715 26.1688 20.2871 26.1688 20.7238C26.1688 21.1364 25.8807 21.4762 25.4725 21.4762C25.0403 21.4518 24.7762 21.1364 24.7762 20.7238ZM7.92078 20.7238V19.559H7.41656V19.8501C7.24845 19.6318 7.00837 19.5104 6.69622 19.5104C6.04795 19.5104 5.54373 20.0201 5.54373 20.7238C5.54373 21.4276 6.04795 21.9373 6.69622 21.9373C7.03244 21.9373 7.27252 21.816 7.41656 21.5975V21.8887H7.92078V20.7238ZM6.04795 20.7238C6.04795 20.3113 6.31209 19.9715 6.74423 19.9715C7.15242 19.9715 7.44063 20.2871 7.44063 20.7238C7.44063 21.1364 7.15242 21.4762 6.74423 21.4762C6.31209 21.4518 6.04795 21.1364 6.04795 20.7238Z" fill="black"/>
<path d="M10.2031 1.87109H17.7664V15.6074H10.2031V1.87109Z" fill="#FF5F00"/>
<path d="M10.6847 8.73687C10.6847 5.94597 11.9813 3.47047 13.9741 1.86867C12.5095 0.703779 10.6608 0 8.64391 0C3.86564 0 0 3.90727 0 8.73687C0 13.5664 3.86564 17.4737 8.6438 17.4737C10.6607 17.4737 12.5094 16.77 13.9741 15.605C11.9813 14.0275 10.6847 11.5278 10.6847 8.73687Z" fill="#EB001B"/>
<path d="M27.9741 8.73687C27.9741 13.5664 24.1084 17.4737 19.3303 17.4737C17.3134 17.4737 15.4646 16.77 14 15.605C16.0169 14.0033 17.2895 11.5278 17.2895 8.73687C17.2895 5.94597 15.9928 3.47047 14 1.86867C15.4645 0.703779 17.3134 0 19.3303 0C24.1084 0 27.9741 3.93159 27.9741 8.73687Z" fill="#F79E1B"/>
</g>
<defs>
<clipPath id="clip0_688_25684">
<rect width="28" height="22" fill="white"/>
</clipPath>
</defs>
</svg>
