<svg width="40" height="40" viewBox="0 0 40 40" fill="none" xmlns="http://www.w3.org/2000/svg">
<rect width="40" height="40" rx="20" fill="#7567F5" fill-opacity="0.05"/>
<path d="M15.833 17.082L18.2847 18.5316C19.714 19.3766 20.2853 19.3766 21.7147 18.5316L24.1663 17.082" stroke="#7567F5" stroke-width="1.5" stroke-linecap="round" stroke-linejoin="round"/>
<path d="M11.6801 21.231C11.7346 23.7856 11.7618 25.0629 12.7045 26.0091C13.6471 26.9553 14.9589 26.9882 17.5827 27.0542C19.1998 27.0948 20.8009 27.0948 22.418 27.0542C25.0417 26.9882 26.3536 26.9553 27.2962 26.0091C28.2388 25.0629 28.266 23.7856 28.3205 21.231C28.338 20.4096 28.338 19.593 28.3205 18.7716C28.266 16.217 28.2388 14.9397 27.2962 13.9935C26.3536 13.0473 25.0417 13.0144 22.418 12.9484C20.8009 12.9078 19.1997 12.9078 17.5827 12.9484C14.9589 13.0144 13.6471 13.0473 12.7045 13.9935C11.7618 14.9397 11.7346 16.217 11.6801 18.7716C11.6626 19.593 11.6626 20.4096 11.6801 21.231Z" stroke="#7567F5" stroke-width="1.5" stroke-linejoin="round"/>
</svg>
