<svg width="64" height="64" viewBox="0 0 64 64" fill="none" xmlns="http://www.w3.org/2000/svg">
<path d="M31.5556 40.7578C37.3671 40.7578 42.0741 36.0508 42.0741 30.2393V15.7763C42.0741 9.96485 37.3671 5.25781 31.5556 5.25781C25.7441 5.25781 21.0371 9.96485 21.0371 15.7763V30.2393C21.0371 36.0508 25.7441 40.7578 31.5556 40.7578Z" stroke="white" stroke-width="3.94444" stroke-linecap="round" stroke-linejoin="round"/>
<path d="M11.4395 25.375V29.8454C11.4395 40.9424 20.4591 49.962 31.5561 49.962C42.6532 49.962 51.6728 40.9424 51.6728 29.8454V25.375" stroke="white" stroke-width="3.94444" stroke-linecap="round" stroke-linejoin="round"/>
<path d="M27.9004 16.9086C30.2671 16.0409 32.8441 16.0409 35.2108 16.9086" stroke="white" stroke-width="3.94444" stroke-linecap="round" stroke-linejoin="round"/>
<path d="M29.4512 22.4831C30.8449 22.115 32.2912 22.115 33.6849 22.4831" stroke="white" stroke-width="3.94444" stroke-linecap="round" stroke-linejoin="round"/>
<path d="M31.5547 49.9648V57.8537" stroke="white" stroke-width="3.94444" stroke-linecap="round" stroke-linejoin="round"/>
</svg>
