<svg width="25" height="17" viewBox="0 0 25 17" fill="none" xmlns="http://www.w3.org/2000/svg">
<path d="M21.2026 0.640625H3.21258C1.79321 0.640625 0.642578 1.79125 0.642578 3.21062V13.4906C0.642578 14.91 1.79321 16.0606 3.21258 16.0606H21.2026C22.622 16.0606 23.7726 14.91 23.7726 13.4906V3.21062C23.7726 1.79125 22.622 0.640625 21.2026 0.640625Z" stroke="#7567F5" stroke-width="1.285"/>
<path d="M3.21289 4.49609H7.06789M17.3479 12.2061H21.2029" stroke="#7567F5" stroke-width="1.285" stroke-linecap="round"/>
<path d="M12.2077 10.9212C13.6271 10.9212 14.7777 9.77062 14.7777 8.35125C14.7777 6.93188 13.6271 5.78125 12.2077 5.78125C10.7883 5.78125 9.6377 6.93188 9.6377 8.35125C9.6377 9.77062 10.7883 10.9212 12.2077 10.9212Z" stroke="#7567F5" stroke-width="1.285"/>
</svg>
