<svg width="33" height="18" viewBox="0 0 33 18" fill="none" xmlns="http://www.w3.org/2000/svg">
<path d="M22.2784 0.118743C22.186 0.0514126 22.0768 0.0109846 21.9628 0.00194037C21.8488 -0.00710386 21.7346 0.0155891 21.6327 0.0675034C21.5309 0.119418 21.4454 0.198525 21.3858 0.296055C21.3261 0.393586 21.2946 0.505729 21.2948 0.620052V7.20679L11.631 0.118743C11.5386 0.0514126 11.4293 0.0109846 11.3154 0.00194037C11.2014 -0.00710386 11.0872 0.0155891 10.9853 0.0675034C10.8835 0.119418 10.798 0.198525 10.7383 0.296055C10.6787 0.393586 10.6472 0.505729 10.6474 0.620052V7.20679L0.983572 0.118743C0.891178 0.0514122 0.781944 0.0109841 0.667978 0.0019402C0.554013 -0.00710372 0.439769 0.0155899 0.337913 0.0675051C0.236056 0.11942 0.150567 0.198529 0.090922 0.29606C0.0312771 0.393592 -0.000192949 0.505736 8.90079e-07 0.62006V9.92692C0.000356762 10.0243 0.0236099 10.1203 0.0678824 10.207C0.112155 10.2937 0.176206 10.3688 0.254862 10.4263L10.1962 17.7179C10.2886 17.7852 10.3978 17.8256 10.5118 17.8347C10.6257 17.8437 10.74 17.821 10.8418 17.7691C10.9437 17.7172 11.0292 17.6381 11.0888 17.5406C11.1485 17.443 11.1799 17.3309 11.1797 17.2166V10.6298L20.8436 17.7179C20.936 17.7853 21.0452 17.8257 21.1591 17.8348C21.2731 17.8438 21.3873 17.8211 21.4892 17.7692C21.591 17.7173 21.6765 17.6382 21.7361 17.5406C21.7957 17.4431 21.827 17.3309 21.8268 17.2166V10.6295L31.4926 17.7179C31.5849 17.7853 31.6941 17.8257 31.8081 17.8348C31.9221 17.8438 32.0363 17.8211 32.1381 17.7692C32.24 17.7173 32.3254 17.6382 32.385 17.5406C32.4446 17.4431 32.476 17.3309 32.4757 17.2166V7.91089C32.4754 7.81322 32.452 7.717 32.4075 7.63004C32.363 7.54308 32.2987 7.46782 32.2197 7.41036L22.2784 0.118743Z" fill="#7567F5"/>
</svg>
