<svg width="36" height="36" viewBox="0 0 36 36" fill="none" xmlns="http://www.w3.org/2000/svg">
<rect width="36" height="36" rx="18" fill="#7567F5" fill-opacity="0.05"/>
<path fill-rule="evenodd" clip-rule="evenodd" d="M17.1802 10.3363C15.7337 10.491 14.3606 11.0518 13.2194 11.9539C12.0782 12.856 11.2156 14.0627 10.7312 15.4344C10.2468 16.8061 10.1605 18.2868 10.4822 19.7055C10.8039 21.1242 11.5205 22.4229 12.5491 23.4516C13.5777 24.4802 14.8764 25.1968 16.2951 25.5184C17.7138 25.8401 19.1946 25.7538 20.5663 25.2695C21.938 24.7851 23.1446 23.9225 24.0467 22.7813C24.9489 21.6401 25.5097 20.2669 25.6643 18.8205C25.1363 19.4914 24.4721 20.0427 23.7155 20.4382C22.9589 20.8337 22.1271 21.0644 21.2748 21.115C20.4226 21.1656 19.5693 21.035 18.7712 20.7318C17.9731 20.4286 17.2483 19.9597 16.6446 19.3561C16.0409 18.7524 15.572 18.0276 15.2688 17.2295C14.9656 16.4314 14.835 15.5781 14.8857 14.7258C14.9363 13.8736 15.1669 13.0417 15.5624 12.2851C15.9579 11.5285 16.5093 10.8643 17.1802 10.3363ZM9.04102 18.0013C9.04102 13.0538 13.0518 9.04297 17.9993 9.04297C18.5968 9.04297 18.8952 9.5188 18.9468 9.89797C18.996 10.263 18.861 10.7271 18.4418 10.9805C17.8193 11.3562 17.2904 11.8687 16.8953 12.4791C16.5002 13.0895 16.2491 13.7818 16.1612 14.5036C16.0733 15.2254 16.1508 15.9577 16.3879 16.6451C16.625 17.3325 17.0154 17.957 17.5295 18.4711C18.0437 18.9853 18.6681 19.3757 19.3555 19.6128C20.0429 19.8498 20.7753 19.9273 21.4971 19.8394C22.2189 19.7515 22.9112 19.5005 23.5216 19.1054C24.132 18.7102 24.6445 18.1813 25.0202 17.5588C25.2735 17.1396 25.7377 17.0046 26.1027 17.0538C26.4818 17.1055 26.9577 17.4038 26.9577 18.0013C26.9577 22.9488 22.9468 26.9596 17.9993 26.9596C13.0518 26.9596 9.04102 22.9488 9.04102 18.0013Z" fill="#7567F5"/>
</svg>
