<svg width="18" height="18" viewBox="0 0 18 18" fill="none" xmlns="http://www.w3.org/2000/svg">
<path fill-rule="evenodd" clip-rule="evenodd" d="M8.13917 1.29333C6.69271 1.44799 5.31954 2.0088 4.17835 2.91093C3.03716 3.81307 2.17454 5.01972 1.69018 6.39142C1.20583 7.76312 1.1195 9.24388 1.44119 10.6626C1.76288 12.0813 2.47944 13.38 3.50807 14.4086C4.5367 15.4372 5.83541 16.1538 7.2541 16.4755C8.67279 16.7972 10.1535 16.7108 11.5252 16.2265C12.8969 15.7421 14.1036 14.8795 15.0057 13.7383C15.9079 12.5971 16.4687 11.224 16.6233 9.7775C16.0953 10.4484 15.4311 10.9998 14.6745 11.3953C13.9179 11.7908 13.0861 12.0214 12.2338 12.072C11.3816 12.1226 10.5283 11.992 9.73016 11.6889C8.93206 11.3857 8.20727 10.9168 7.60358 10.3131C6.99989 9.70939 6.531 8.98461 6.22781 8.18651C5.92463 7.38841 5.79403 6.53511 5.84464 5.68286C5.89525 4.83062 6.1259 3.99877 6.5214 3.24216C6.91691 2.48554 7.46828 1.82134 8.13917 1.29333ZM0 8.95833C0 4.01083 4.01083 0 8.95833 0C9.55583 0 9.85417 0.475833 9.90583 0.855C9.955 1.22 9.82 1.68417 9.40083 1.9375C8.77829 2.31322 8.24942 2.82569 7.85428 3.43609C7.45915 4.04649 7.20812 4.73882 7.12021 5.46062C7.0323 6.18242 7.10981 6.91476 7.34687 7.60216C7.58394 8.28957 7.97434 8.914 8.4885 9.42816C9.00266 9.94232 9.6271 10.3327 10.3145 10.5698C11.0019 10.8069 11.7342 10.8844 12.456 10.7965C13.1778 10.7085 13.8702 10.4575 14.4806 10.0624C15.091 9.66725 15.6034 9.13838 15.9792 8.51583C16.2325 8.09667 16.6967 7.96167 17.0617 8.01083C17.4408 8.0625 17.9167 8.36083 17.9167 8.95833C17.9167 13.9058 13.9058 17.9167 8.95833 17.9167C4.01083 17.9167 0 13.9058 0 8.95833Z" fill="#7567F5"/>
</svg>
