<svg width="40" height="40" viewBox="0 0 40 40" fill="none" xmlns="http://www.w3.org/2000/svg">
<rect width="40" height="40" rx="20" fill="#7567F5" fill-opacity="0.05"/>
<path d="M16.2493 13.3315C16.359 13.3322 16.4677 13.3111 16.5693 13.2697C16.6708 13.2282 16.7631 13.1671 16.841 13.0899L17.6743 12.2565C17.8313 12.0996 17.9194 11.8868 17.9194 11.6649C17.9194 11.4429 17.8313 11.2301 17.6743 11.0732C17.5174 10.9163 17.3046 10.8281 17.0827 10.8281C16.8608 10.8281 16.6479 10.9163 16.491 11.0732L15.6577 11.9065C15.5796 11.984 15.5176 12.0762 15.4753 12.1777C15.433 12.2793 15.4112 12.3882 15.4112 12.4982C15.4112 12.6082 15.433 12.7171 15.4753 12.8187C15.5176 12.9202 15.5796 13.0124 15.6577 13.0899C15.7355 13.1671 15.8279 13.2282 15.9294 13.2697C16.031 13.3111 16.1397 13.3322 16.2493 13.3315ZM19.5827 13.3315C19.6924 13.3322 19.8011 13.3111 19.9026 13.2697C20.0041 13.2282 20.0965 13.1671 20.1743 13.0899L21.0077 12.2565C21.1646 12.0996 21.2528 11.8868 21.2528 11.6649C21.2528 11.4429 21.1646 11.2301 21.0077 11.0732C20.8508 10.9163 20.6379 10.8281 20.416 10.8281C20.1941 10.8281 19.9813 10.9163 19.8243 11.0732L18.991 11.9065C18.9129 11.984 18.8509 12.0762 18.8086 12.1777C18.7663 12.2793 18.7445 12.3882 18.7445 12.4982C18.7445 12.6082 18.7663 12.7171 18.8086 12.8187C18.8509 12.9202 18.9129 13.0124 18.991 13.0899C19.0689 13.1671 19.1612 13.2282 19.2628 13.2697C19.3643 13.3111 19.473 13.3322 19.5827 13.3315ZM22.916 13.3315C23.0257 13.3322 23.1344 13.3111 23.2359 13.2697C23.3375 13.2282 23.4298 13.1671 23.5077 13.0899L24.341 12.2565C24.4187 12.1788 24.4803 12.0866 24.5224 11.9851C24.5644 11.8836 24.5861 11.7748 24.5861 11.6649C24.5861 11.555 24.5644 11.4462 24.5224 11.3447C24.4803 11.2431 24.4187 11.1509 24.341 11.0732C24.2633 10.9955 24.1711 10.9339 24.0696 10.8918C23.968 10.8498 23.8592 10.8281 23.7493 10.8281C23.6395 10.8281 23.5307 10.8498 23.4291 10.8918C23.3276 10.9339 23.2354 10.9955 23.1577 11.0732L22.3243 11.9065C22.2462 11.984 22.1842 12.0762 22.1419 12.1777C22.0996 12.2793 22.0779 12.3882 22.0779 12.4982C22.0779 12.6082 22.0996 12.7171 22.1419 12.8187C22.1842 12.9202 22.2462 13.0124 22.3243 13.0899C22.4022 13.1671 22.4946 13.2282 22.5961 13.2697C22.6976 13.3111 22.8063 13.3322 22.916 13.3315ZM24.9327 23.0149C24.9141 22.9619 24.8889 22.9115 24.8577 22.8649L24.7577 22.7399L24.6327 22.6399C24.586 22.6087 24.5356 22.5835 24.4827 22.5649C24.4331 22.5395 24.3795 22.5226 24.3243 22.5149C24.1905 22.4881 24.0521 22.4946 23.9213 22.5338C23.7905 22.573 23.6714 22.6438 23.5743 22.7399C23.539 22.7799 23.5057 22.8216 23.4743 22.8649C23.4431 22.9115 23.4179 22.9619 23.3993 23.0149C23.3748 23.0619 23.358 23.1125 23.3493 23.1649C23.3454 23.2204 23.3454 23.276 23.3493 23.3315C23.3503 23.5502 23.4371 23.7597 23.591 23.9149C23.6679 23.9957 23.7619 24.0583 23.866 24.0982C23.961 24.1388 24.0627 24.1614 24.166 24.1649C24.387 24.1649 24.599 24.0771 24.7553 23.9208C24.9116 23.7645 24.9993 23.5525 24.9993 23.3315C25.0033 23.276 25.0033 23.2204 24.9993 23.1649C24.9855 23.1115 24.963 23.0609 24.9327 23.0149ZM26.466 19.2565L25.3327 15.8732C25.1598 15.3842 24.8391 14.9611 24.4151 14.6625C23.9911 14.3639 23.4846 14.2045 22.966 14.2065H17.0327C16.5141 14.2045 16.0076 14.3639 15.5836 14.6625C15.1596 14.9611 14.8389 15.3842 14.666 15.8732L13.5327 19.2565C12.9996 19.3961 12.5276 19.7079 12.19 20.1435C11.8525 20.579 11.6682 21.1138 11.666 21.6649V24.9982C11.6675 25.514 11.8284 26.0167 12.1268 26.4374C12.4252 26.8581 12.8464 27.1763 13.3327 27.3482V28.3315C13.3327 28.5525 13.4205 28.7645 13.5768 28.9208C13.733 29.0771 13.945 29.1649 14.166 29.1649C14.387 29.1649 14.599 29.0771 14.7553 28.9208C14.9116 28.7645 14.9993 28.5525 14.9993 28.3315V27.4982H24.9993V28.3315C24.9993 28.5525 25.0871 28.7645 25.2434 28.9208C25.3997 29.0771 25.6117 29.1649 25.8327 29.1649C26.0537 29.1649 26.2657 29.0771 26.4219 28.9208C26.5782 28.7645 26.666 28.5525 26.666 28.3315V27.3482C27.1523 27.1763 27.5735 26.8581 27.8719 26.4374C28.1703 26.0167 28.3312 25.514 28.3327 24.9982V21.6649C28.3305 21.1138 28.1462 20.579 27.8087 20.1435C27.4711 19.7079 26.9991 19.3961 26.466 19.2565ZM16.241 16.3982C16.2969 16.2327 16.4034 16.0889 16.5455 15.9872C16.6876 15.8856 16.858 15.8311 17.0327 15.8315H22.966C23.1477 15.822 23.3276 15.8723 23.478 15.9746C23.6285 16.077 23.7414 16.2257 23.7993 16.3982L24.6743 19.1649H15.3243L16.241 16.3982ZM26.666 24.9982C26.666 25.2192 26.5782 25.4312 26.4219 25.5875C26.2657 25.7437 26.0537 25.8315 25.8327 25.8315H14.166C13.945 25.8315 13.733 25.7437 13.5768 25.5875C13.4205 25.4312 13.3327 25.2192 13.3327 24.9982V21.6649C13.3327 21.4439 13.4205 21.2319 13.5768 21.0756C13.733 20.9193 13.945 20.8315 14.166 20.8315H25.8327C26.0537 20.8315 26.2657 20.9193 26.4219 21.0756C26.5782 21.2319 26.666 21.4439 26.666 21.6649V24.9982ZM20.8327 22.4982H19.166C18.945 22.4982 18.733 22.586 18.5768 22.7423C18.4205 22.8986 18.3327 23.1105 18.3327 23.3315C18.3327 23.5525 18.4205 23.7645 18.5768 23.9208C18.733 24.0771 18.945 24.1649 19.166 24.1649H20.8327C21.0537 24.1649 21.2657 24.0771 21.4219 23.9208C21.5782 23.7645 21.666 23.5525 21.666 23.3315C21.666 23.1105 21.5782 22.8986 21.4219 22.7423C21.2657 22.586 21.0537 22.4982 20.8327 22.4982ZM16.5993 23.0149C16.5808 22.9619 16.5556 22.9115 16.5243 22.8649L16.4243 22.7399C16.3072 22.6242 16.1584 22.5459 15.9967 22.5148C15.835 22.4836 15.6678 22.5011 15.516 22.5649C15.4137 22.6045 15.3203 22.664 15.241 22.7399C15.2057 22.7799 15.1723 22.8216 15.141 22.8649C15.1098 22.9115 15.0846 22.9619 15.066 23.0149C15.0357 23.0609 15.0132 23.1115 14.9993 23.1649C14.9954 23.2204 14.9954 23.276 14.9993 23.3315C15 23.4963 15.0496 23.6572 15.1417 23.7939C15.2339 23.9306 15.3644 24.0368 15.517 24.0993C15.6695 24.1617 15.8371 24.1775 15.9986 24.1447C16.1601 24.1119 16.3083 24.0319 16.4243 23.9149C16.5783 23.7597 16.6651 23.5502 16.666 23.3315C16.67 23.276 16.67 23.2204 16.666 23.1649C16.6522 23.1115 16.6297 23.0609 16.5993 23.0149Z" fill="#7567F5"/>
</svg>
