<svg width="16" height="16" viewBox="0 0 16 16" fill="none" xmlns="http://www.w3.org/2000/svg">
<path d="M1.50488 0.25C1.67189 0.250029 1.83736 0.283657 1.99121 0.348633C2.14376 0.413066 2.2816 0.507701 2.39746 0.625977L7.51465 5.74219L12.6309 0.625977C12.8569 0.394778 13.164 0.260667 13.4873 0.250977C13.7391 0.243552 13.9872 0.312251 14.1992 0.448242C14.4112 0.584252 14.5776 0.780773 14.6758 1.0127C14.774 1.24467 14.7999 1.50115 14.75 1.74805C14.7003 1.99365 14.5765 2.2174 14.3975 2.39258L14.3984 2.39355L9.28223 7.50977L14.3984 12.626H14.3975C14.516 12.7405 14.6113 12.877 14.6768 13.0283C14.7427 13.1809 14.7776 13.3455 14.7793 13.5117C14.781 13.678 14.7493 13.8431 14.6865 13.9971C14.6237 14.1509 14.5305 14.2907 14.4131 14.4082C14.2955 14.5258 14.1549 14.6188 14.001 14.6816C13.8472 14.7444 13.6827 14.776 13.5166 14.7744C13.3504 14.7727 13.1858 14.7378 13.0332 14.6719C12.8806 14.6059 12.7421 14.5106 12.627 14.3906V14.3896L7.51465 9.27734L2.40137 14.3896C2.28622 14.5096 2.14871 14.6059 1.99609 14.6719C1.84344 14.7379 1.67899 14.7727 1.5127 14.7744C1.34644 14.7761 1.18128 14.7445 1.02734 14.6816C0.873499 14.6188 0.733725 14.5257 0.616211 14.4082C0.49868 14.2906 0.405609 14.151 0.342773 13.9971C0.279917 13.8431 0.248308 13.678 0.25 13.5117C0.251711 13.3455 0.286579 13.1809 0.352539 13.0283C0.417898 12.8772 0.512529 12.7404 0.630859 12.626L5.74707 7.50977L0.632812 2.39551C0.454932 2.22216 0.332198 1.99994 0.28125 1.75684C0.230298 1.51356 0.253181 1.26057 0.34668 1.03027C0.44022 0.799959 0.600474 0.60275 0.806641 0.463867C1.0129 0.324978 1.25622 0.250065 1.50488 0.25Z" fill="#7567F5" stroke="#7567F5" stroke-width="0.5"/>
</svg>
