<svg width="99" height="46" viewBox="0 0 99 46" fill="none" xmlns="http://www.w3.org/2000/svg">
<path d="M36.4873 45.0547V36.6593H38.1274L41.5713 42.2856V36.6593H43.1373V45.0547H41.4445L38.0534 39.5359V45.0547H36.4873ZM44.9277 45.0547V36.6593H51.1219V38.0782H46.6222V39.9424H50.8063V41.3612H46.6222V43.6359H51.2856V45.0547H44.9277ZM52.6997 45.0547V36.6593H55.2377L56.7376 42.3853L58.22 36.6593H60.7639V45.0547H59.1979L59.192 38.4454L57.5421 45.0547H55.9137L54.2716 38.4454L54.2657 45.0547H52.6997ZM64.0179 45.0547V36.6593H65.7126V39.9658H69.0086V36.6593H70.7031V45.0547H69.0086V41.3846H65.7126V45.0547H64.0179ZM75.9526 43.1317L77.554 43.4014C77.3493 43.9896 77.0242 44.4371 76.5818 44.746C76.1378 45.0528 75.5828 45.207 74.9184 45.207C73.8646 45.207 73.0836 44.8613 72.579 44.1695C72.1798 43.6145 71.9789 42.9148 71.9789 42.0687C71.9789 41.0604 72.242 40.2688 72.766 39.6982C73.2902 39.1255 73.954 38.8402 74.7567 38.8402C75.6568 38.8402 76.3677 39.1392 76.8899 39.7371C77.4098 40.3352 77.659 41.2518 77.6358 42.4868H73.6269C73.6385 42.9637 73.7673 43.335 74.0145 43.6007C74.26 43.8665 74.568 43.9993 74.934 43.9993C75.1855 43.9993 75.3958 43.931 75.565 43.7942C75.7367 43.6574 75.8651 43.4366 75.9526 43.1317ZM76.0463 41.5018C76.0345 41.0349 75.9158 40.6791 75.688 40.4368C75.4598 40.1926 75.1833 40.0714 74.8562 40.0714C74.5075 40.0714 74.219 40.2006 73.9914 40.4564C73.7634 40.7123 73.6524 41.0623 73.6562 41.5018H76.0463ZM80.1389 40.8453L78.6896 40.5872C78.8531 39.9932 79.1357 39.5535 79.5349 39.2683C79.9342 38.983 80.5282 38.8402 81.3153 38.8402C82.0304 38.8402 82.5639 38.9243 82.9144 39.0943C83.2631 39.2642 83.5107 39.4793 83.653 39.7412C83.795 40.003 83.8671 40.4819 83.8671 41.1814L83.8439 43.0574C83.8439 43.5909 83.8691 43.9857 83.9196 44.2397C83.9704 44.4937 84.0657 44.7654 84.2061 45.0547H82.6166C82.5758 44.9492 82.523 44.7928 82.4627 44.5856C82.4374 44.4899 82.418 44.4273 82.4062 44.3981C82.1335 44.6677 81.8413 44.8691 81.5297 45.0039C81.2178 45.1387 80.8869 45.207 80.5342 45.207C79.9126 45.207 79.422 45.0371 79.0634 44.6971C78.705 44.359 78.526 43.9291 78.526 43.4092C78.526 43.0671 78.6078 42.7604 78.7713 42.4908C78.9349 42.223 79.1629 42.0158 79.459 41.8732C79.753 41.7305 80.1779 41.6056 80.7329 41.498C81.4808 41.3574 82.0011 41.2243 82.2892 41.1033V40.941C82.2892 40.6283 82.2132 40.4055 82.0614 40.2707C81.9074 40.1379 81.6193 40.0714 81.1966 40.0714C80.9103 40.0714 80.6882 40.1281 80.5282 40.2434C80.3669 40.3566 80.2381 40.5581 80.1389 40.8453ZM82.2892 42.1468C82.0847 42.2151 81.7594 42.2971 81.3134 42.393C80.8694 42.4883 80.5771 42.5826 80.4409 42.6725C80.2323 42.8229 80.1271 43.0106 80.1271 43.2392C80.1271 43.466 80.211 43.6595 80.3785 43.8236C80.5457 43.9877 80.7581 44.0698 81.0172 44.0698C81.3057 44.0698 81.5822 43.974 81.8452 43.7844C82.0378 43.6379 82.1666 43.462 82.2268 43.251C82.2677 43.1141 82.2892 42.8522 82.2892 42.4673V42.1468ZM85.4469 45.0547V36.6593H87.0479V45.0547H85.4469ZM91.4637 38.9693V40.2473H90.3652V42.7114C90.3652 43.2117 90.3752 43.503 90.3964 43.5851C90.4178 43.6672 90.4644 43.7355 90.5404 43.7903C90.6144 43.843 90.7042 43.8704 90.8111 43.8704C90.9611 43.8704 91.1756 43.8196 91.4579 43.716L91.5925 44.9666C91.2203 45.1271 90.7996 45.207 90.3282 45.207C90.04 45.207 89.7808 45.1581 89.5491 45.0605C89.3173 44.9628 89.1477 44.8359 89.0405 44.6814C88.9316 44.525 88.8575 44.3161 88.8147 44.0501C88.7817 43.8626 88.7642 43.4835 88.7642 42.911V40.2473H88.0276V38.9693H88.7642V37.7614L90.3652 36.8117V38.9693H91.4637ZM94.1639 36.6593V39.7705C94.6838 39.1511 95.307 38.8402 96.0299 38.8402C96.4017 38.8402 96.7369 38.9085 97.035 39.0455C97.333 39.1843 97.5571 39.3582 97.7088 39.5731C97.8607 39.786 97.9641 40.0226 98.0185 40.2824C98.0752 40.5424 98.1025 40.9452 98.1025 41.4903V45.0547H96.5011V41.8459C96.5011 41.2089 96.4699 40.8043 96.4094 40.6323C96.3472 40.4603 96.2382 40.3234 96.0823 40.2238C95.9264 40.1222 95.7318 40.0714 95.496 40.0714C95.2272 40.0714 94.9877 40.136 94.7752 40.2669C94.563 40.3958 94.4092 40.5913 94.3119 40.8532C94.2125 41.1129 94.1639 41.4999 94.1639 42.0101V45.0547H92.5625V36.6593H94.1639Z" fill="#9B1B1E"/>
<path fill-rule="evenodd" clip-rule="evenodd" d="M0 -0.000408173H33.5722V45.207H0V-0.000408173Z" fill="#9B1B1E"/>
<path d="M20.6307 43.6211V42.0923C20.6307 41.8585 20.6296 41.6375 20.6275 41.4304C20.6253 41.2221 20.6222 41.0233 20.6169 40.832C20.6107 40.6416 20.6033 40.4544 20.5928 40.2715L20.6117 40.2652C20.6822 40.4269 20.7582 40.5908 20.8425 40.7579C20.9257 40.926 21.0132 41.093 21.1039 41.259C21.1945 41.425 21.2852 41.5857 21.3769 41.7433L22.4897 43.6211H23.2928V39.3453H22.572V40.8361C22.572 41.0528 22.574 41.2612 22.5783 41.46C22.5835 41.6587 22.5909 41.8532 22.6014 42.0436C22.6109 42.2328 22.6247 42.4232 22.6414 42.6124H22.6289C22.5309 42.3799 22.4202 42.1419 22.2989 41.8998C22.1768 41.6577 22.044 41.4177 21.9016 41.1787L20.8014 39.3453H19.916V43.6211H20.6307ZM26.7454 41.0898H25.1392V39.9861H26.8402V39.3453H24.3614V43.6211H26.9351V42.9804H25.1392V41.7244H26.7454V41.0898ZM31.469 43.6211H32.2278L31.9813 39.3453H30.9694L30.3814 41.0581C30.3266 41.2262 30.2739 41.3944 30.2233 41.5647C30.1738 41.7349 30.1263 41.9019 30.0821 42.0679C30.0368 42.2339 29.9957 42.3936 29.9578 42.549H29.9388C29.8851 42.31 29.8249 42.0658 29.7597 41.8163C29.6931 41.5667 29.6226 41.3161 29.5467 41.0645L28.9902 39.3453H27.9659L27.6812 43.6211H28.4085L28.5033 41.9019C28.5138 41.7063 28.5234 41.5033 28.5329 41.295C28.5423 41.0856 28.5508 40.8773 28.5582 40.6711C28.5656 40.465 28.573 40.2683 28.5792 40.0812H28.5919C28.6298 40.2599 28.672 40.4417 28.7173 40.6278C28.7627 40.8139 28.811 41.001 28.8627 41.1882C28.9133 41.3764 28.9671 41.5604 29.0219 41.7433L29.5909 43.5704H30.1917L30.8114 41.7179C30.8746 41.5372 30.9368 41.3552 30.9958 41.1692C31.0559 40.9842 31.1128 40.8002 31.1666 40.6173C31.2203 40.4333 31.2709 40.2556 31.3173 40.0812H31.3363C31.334 40.2746 31.3363 40.4746 31.3404 40.6807C31.3458 40.8868 31.3532 41.091 31.3615 41.294C31.3699 41.4969 31.3784 41.6915 31.3868 41.8766L31.469 43.6211Z" fill="white"/>
<path fill-rule="evenodd" clip-rule="evenodd" d="M13.6543 9.8422H19.8728L19.8897 14.992L16.7636 18.2109L13.6713 14.992L13.6543 9.8422Z" fill="#F9E303"/>
<path fill-rule="evenodd" clip-rule="evenodd" d="M4.13379 25.6934V19.4548L9.2669 19.4377L12.4756 22.574L9.2669 25.6764L4.13379 25.6934Z" fill="#F9E303"/>
<path fill-rule="evenodd" clip-rule="evenodd" d="M29.4383 25.6582V19.4196L24.3052 19.4027L21.0967 22.5388L24.3052 25.6413L29.4383 25.6582Z" fill="#F9E303"/>
<path fill-rule="evenodd" clip-rule="evenodd" d="M13.6543 35.2725H19.8728L19.8897 30.1226L16.7636 26.9036L13.6713 30.1226L13.6543 35.2725Z" fill="#F9E303"/>
<path fill-rule="evenodd" clip-rule="evenodd" d="M23.5399 11.3334L27.9199 15.7619L24.288 19.4012L19.8086 19.4424L19.908 14.9728L23.5399 11.3334Z" fill="#F9E303"/>
<path fill-rule="evenodd" clip-rule="evenodd" d="M10.0031 33.7832L5.62305 29.3547L9.25484 25.7154L13.7344 25.6744L13.635 30.1439L10.0031 33.7832Z" fill="white"/>
<path fill-rule="evenodd" clip-rule="evenodd" d="M23.5458 33.7363L27.9258 29.3078L24.2938 25.6685L19.8145 25.6275L19.9138 30.0969L23.5458 33.7363Z" fill="#F9E303"/>
<path fill-rule="evenodd" clip-rule="evenodd" d="M10.0177 11.3648L5.6377 15.7933L9.26953 19.4326L13.7489 19.4736L13.6495 15.0041L10.0177 11.3648Z" fill="#F9E303"/>
</svg>
