<svg width="16" height="16" viewBox="0 0 16 16" fill="none" xmlns="http://www.w3.org/2000/svg">
<g id="Iconly/Bold/Arrow - Up Square">
<g id="Group">
<path id="Exclude" d="M10.8926 1.33203C13.1518 1.33203 14.6659 2.91853 14.666 5.27832V10.7256C14.6659 13.0788 13.1518 14.665 10.8926 14.665H5.11328C2.85335 14.665 1.3331 13.0788 1.33301 10.7256V5.27832C1.33317 2.91853 2.8534 1.33203 5.11328 1.33203H10.8926ZM8.35254 4.91895C8.16585 4.73239 7.83311 4.73232 7.64648 4.91895L5.14648 7.43164C4.95315 7.62497 4.95315 7.94534 5.14648 8.13867C5.34644 8.3319 5.65939 8.33185 5.85938 8.13867L7.5 6.48535V10.7188C7.50003 10.9987 7.72668 11.2188 8 11.2188C8.27983 11.2186 8.49997 10.9986 8.5 10.7188V6.48535L10.1465 8.13867C10.2398 8.23197 10.3734 8.28516 10.5 8.28516C10.6258 8.28506 10.7527 8.23179 10.8525 8.13867C11.0459 7.94534 11.0459 7.62497 10.8525 7.43164L8.35254 4.91895Z" fill="#F75555"/>
</g>
</g>
</svg>
