<svg width="14" height="14" viewBox="0 0 14 14" fill="none" xmlns="http://www.w3.org/2000/svg">
<path d="M8.20901 2.26782C8.6437 1.79685 8.86105 1.56137 9.09201 1.42401C9.64929 1.09258 10.3355 1.08227 10.9021 1.39682C11.1369 1.52719 11.3609 1.75604 11.809 2.21375C12.257 2.67145 12.481 2.90031 12.6087 3.14018C12.9166 3.71895 12.9065 4.41993 12.582 4.98921C12.4476 5.22514 12.2171 5.44717 11.756 5.89122L6.27055 11.1746C5.39686 12.0161 4.96002 12.4369 4.41405 12.6501C3.86809 12.8634 3.26788 12.8477 2.06748 12.8163L1.90415 12.812C1.53871 12.8025 1.35599 12.7977 1.24977 12.6772C1.14356 12.5566 1.15806 12.3705 1.18706 11.9982L1.20281 11.7961C1.28444 10.7484 1.32525 10.2245 1.52984 9.7536C1.73444 9.28269 2.08735 8.90032 2.79318 8.13559L8.20901 2.26782Z" stroke="#030712" stroke-width="1.25" stroke-linejoin="round"/>
<path d="M7.58398 2.33203L11.6673 6.41536" stroke="#030712" stroke-width="1.25" stroke-linejoin="round"/>
</svg>
