<svg width="90" height="90" viewBox="0 0 90 90" fill="none" xmlns="http://www.w3.org/2000/svg">
<path d="M31.282 71.716L40.251 69.2351L46.7778 75.868C47.6445 76.7487 49.1318 76.0068 48.9496 74.7848L45.7409 53.2688C45.5763 52.1651 44.1742 51.7894 43.4798 52.663L29.9429 69.6919C29.174 70.6591 30.0911 72.0454 31.282 71.716Z" fill="#23D9EF"/>
<path d="M30.2186 14.53C29.1995 13.5108 27.5471 13.5108 26.528 14.53C25.5089 15.5493 25.5089 17.2015 26.528 18.2208C27.5471 19.2398 29.1995 19.2398 30.2186 18.2208C31.2377 17.2015 31.2377 15.5493 30.2186 14.53Z" fill="#7467F4"/>
<path d="M27.5903 7.30769C27.4899 6.73434 26.9423 6.36012 26.3706 6.45111C22.3357 7.15492 19.1514 10.3392 18.4476 14.3733C18.3472 14.9484 18.7308 15.4942 19.3051 15.5938C19.366 15.6041 19.4269 15.6093 19.487 15.6093C19.99 15.6093 20.4354 15.2488 20.5247 14.7372C21.0775 11.5752 23.5717 9.08099 26.7328 8.52823C27.3071 8.42866 27.6907 7.88276 27.5903 7.30769Z" fill="#7467F4"/>
<path d="M21.0593 6.07334C22.5313 5.03994 24.175 4.35843 25.9448 4.04774C26.5182 3.94818 26.9018 3.40058 26.8014 2.82722C26.701 2.25386 26.1611 1.87965 25.5809 1.97064C23.5038 2.33456 21.5743 3.1345 19.8474 4.34643C16.7566 6.51794 14.6126 9.88422 13.9671 13.5852C13.8667 14.1603 14.2504 14.7062 14.8246 14.8058C14.8855 14.8161 14.9465 14.8212 15.0066 14.8212C15.5095 14.8212 15.955 14.4607 16.0442 13.9492C16.5953 10.794 18.4235 7.92386 21.0593 6.07334Z" fill="#7467F4"/>
<path d="M76.7028 40.993C77.0015 40.7458 77.0444 40.3029 76.7972 40.0025C76.5492 39.7021 76.1063 39.6592 75.8067 39.9081L71.8645 43.1628C71.5658 43.41 71.5229 43.8529 71.7701 44.1533C71.9092 44.3215 72.11 44.4091 72.3126 44.4091C72.4705 44.4091 72.6293 44.3558 72.7606 44.2477L76.7028 40.993Z" fill="#0B215D"/>
<path d="M78.1987 51.3975L73.2093 50.0105C72.83 49.9058 72.448 50.1255 72.3442 50.4997C72.2403 50.8739 72.4592 51.2619 72.8334 51.3666L77.8227 52.7536C77.8854 52.7708 77.9489 52.7794 78.0107 52.7794C78.3188 52.7794 78.6012 52.5751 78.6879 52.2644C78.7918 51.8902 78.5729 51.5022 78.1987 51.3975Z" fill="#0B215D"/>
<path d="M14.1913 39.9107C13.8952 39.6635 13.4497 39.7065 13.2017 40.0051C12.9545 40.3055 12.9974 40.7484 13.2969 40.9956L17.24 44.2503C17.3705 44.3585 17.5292 44.4117 17.6872 44.4117C17.8897 44.4117 18.0906 44.3242 18.2296 44.1559C18.4768 43.8555 18.4339 43.4126 18.1343 43.1654L14.1913 39.9107Z" fill="#0B215D"/>
<path d="M16.7895 50.0098L11.8002 51.3968C11.426 51.5015 11.2071 51.8894 11.311 52.2637C11.3977 52.5744 11.68 52.7787 11.9882 52.7787C12.05 52.7787 12.1135 52.7701 12.1761 52.7529L17.1655 51.3659C17.5397 51.2612 17.7586 50.8732 17.6547 50.499C17.5508 50.1265 17.1612 49.9068 16.7895 50.0098Z" fill="#0B215D"/>
<path d="M59.7214 9.91797H29.7931C25.4475 9.91797 21.9121 13.4542 21.9121 17.7989V80.009C21.9121 84.3555 25.4475 87.8917 29.7931 87.8917H59.7214C64.067 87.8917 67.6024 84.3555 67.6024 80.009V77.4169C67.6024 77.029 67.2874 76.7131 66.8994 76.7131C66.5115 76.7131 66.1965 77.029 66.1965 77.4169V80.009C66.1965 83.5796 63.292 86.4841 59.7214 86.4841H42.5783L44.8667 76.7595C44.956 76.3818 44.7216 76.0024 44.344 75.9132C43.9672 75.8256 43.5861 76.0591 43.4986 76.4367L41.1342 86.4841H32.049L34.9601 74.1142C35.0494 73.7365 34.8151 73.3571 34.4374 73.2679C34.058 73.182 33.6804 73.4138 33.592 73.7914L30.6049 86.4841H29.7931C26.2226 86.4841 23.3181 83.5796 23.3181 80.009V45.5021L37.1583 48.7581C37.7462 48.8954 38.2457 49.2559 38.5642 49.7692C38.8817 50.2824 38.9804 50.8901 38.8423 51.4772L38.1445 54.4452C38.0552 54.8229 38.2895 55.2022 38.668 55.2915C38.7221 55.3035 38.7762 55.3104 38.8294 55.3104C39.1478 55.3104 39.4371 55.0907 39.5126 54.768L40.2104 51.7999C40.4353 50.8472 40.2756 49.8636 39.7598 49.0293C39.2439 48.1968 38.4345 47.6131 37.481 47.3882L23.318 44.0563V34.9728L39.5066 38.7828C39.7872 38.8481 40.0687 38.8807 40.3451 38.8807C42.0094 38.8807 43.52 37.7391 43.9165 36.0517L47.6098 20.3567C47.6991 19.9791 47.4648 19.5997 47.0871 19.5104C46.706 19.4246 46.3301 19.6563 46.2417 20.034L42.5484 35.729C42.2617 36.9409 41.0429 37.6996 39.8284 37.413L23.318 33.527V17.7989C23.318 14.2284 26.2225 11.3256 29.7931 11.3256H53.6611L52.867 13.6533C52.5417 14.6095 51.6448 15.2515 50.6337 15.2515H38.8809C37.8698 15.2515 36.9728 14.6095 36.6475 13.6533C36.5222 13.2877 36.1283 13.0868 35.7549 13.2139C35.3876 13.3392 35.191 13.7392 35.3154 14.1065C35.8356 15.6326 37.2681 16.6591 38.8809 16.6591H50.6337C52.2464 16.6591 53.6789 15.6326 54.1982 14.1065L55.1462 11.3256H58.8334L52.5262 38.0756C52.0619 40.0445 53.2867 42.0238 55.2556 42.489L66.1965 45.0635V54.1457L53.2292 51.0944C51.2594 50.6395 49.2818 51.8583 48.8192 53.8255L47.8931 57.76C47.8038 58.1376 48.0381 58.517 48.4158 58.6063C48.4699 58.6183 48.5248 58.6252 48.578 58.6252C48.8964 58.6252 49.1857 58.4054 49.2612 58.0827L50.1874 54.1482C50.474 52.9346 51.6963 52.1724 52.9073 52.4642L66.1965 55.5915V62.2609C66.1965 62.6489 66.5115 62.9648 66.8994 62.9648C67.2874 62.9648 67.6024 62.6489 67.6024 62.2609V17.7989C67.6024 13.4542 64.067 9.91797 59.7214 9.91797ZM66.1965 43.6177L55.5783 41.1191C54.3638 40.8325 53.6085 39.612 53.8943 38.3983L60.2646 11.3805C63.5775 11.6616 66.1964 14.4144 66.1964 17.7989L66.1965 43.6177Z" fill="#0B215D"/>
<path d="M66.9002 66.3828C66.5123 66.3828 66.1973 66.6987 66.1973 67.0866V72.8132C66.1973 73.2012 66.5123 73.5171 66.9002 73.5171C67.2882 73.5171 67.6032 73.2012 67.6032 72.8132V67.0866C67.6032 66.6987 67.2882 66.3828 66.9002 66.3828Z" fill="#0B215D"/>
</svg>
