<svg width="22" height="23" viewBox="0 0 22 23" fill="none" xmlns="http://www.w3.org/2000/svg">
<path fill-rule="evenodd" clip-rule="evenodd" d="M14.6017 16.4882L14.194 16.5791V17.1274C14.194 18.0679 13.6095 18.868 12.7939 19.1645V20.6413C12.7939 21.039 12.4804 21.3613 12.0938 21.3613C11.7072 21.3613 11.3938 21.039 11.3938 20.6413V19.1645C10.5781 18.868 9.99366 18.0679 9.99366 17.1274V16.6191C9.93281 16.6067 9.87205 16.5938 9.81138 16.5802L9.39826 16.4882C7.38279 16.0389 5.78798 14.4555 5.28048 12.3997C4.90651 10.8848 4.90651 9.29785 5.28048 7.78298C5.78798 5.72718 7.38279 4.14373 9.39826 3.69451L9.81137 3.60243C11.2537 3.28096 12.7463 3.28096 14.1886 3.60244L14.6017 3.69451C16.6172 4.14373 18.212 5.72718 18.7195 7.78299C19.0935 9.29785 19.0935 10.8848 18.7195 12.3997C18.212 14.4555 16.6172 16.0389 14.6017 16.4882ZM12.7939 16.7899C12.7127 16.7964 12.6314 16.8018 12.5501 16.8063C12.1649 16.8274 11.7789 16.8263 11.3938 16.803V17.1274C11.3938 17.525 11.7072 17.8474 12.0938 17.8474C12.4804 17.8474 12.7939 17.525 12.7939 17.1274V16.7899ZM12.817 7.23155C13.0586 7.43027 13.0977 7.79275 12.9045 8.04115L11.7656 9.50533H13.4006C13.6159 9.50533 13.8121 9.63225 13.9053 9.83181C13.9986 10.0314 13.9724 10.2683 13.8379 10.4412L11.9711 12.8412C11.7779 13.0896 11.4255 13.1298 11.1839 12.9311C10.9424 12.7324 10.9033 12.3699 11.0965 12.1215L12.2354 10.6573H10.6004C10.3851 10.6573 10.1889 10.5304 10.0956 10.3308C10.0024 10.1313 10.0286 9.8944 10.1631 9.7215L12.0299 7.3215C12.2231 7.0731 12.5755 7.03282 12.817 7.23155Z" fill="#7567F5"/>
</svg>
