<svg width="20" height="20" viewBox="0 0 20 20" fill="none" xmlns="http://www.w3.org/2000/svg">
<g clip-path="url(#clip0_2350_15829)">
<path d="M18.333 13.332C18.333 10.5706 16.0944 8.33203 13.333 8.33203C10.5716 8.33203 8.33301 10.5706 8.33301 13.332C8.33301 16.0935 10.5716 18.332 13.333 18.332C16.0944 18.332 18.333 16.0935 18.333 13.332Z" stroke="#7567F5" stroke-width="1.5"/>
<path d="M11.667 13.8902C11.667 13.8902 12.1878 13.8902 12.7087 15.0013C12.7087 15.0013 14.3631 12.2235 15.8337 11.668" stroke="#7567F5" stroke-width="1.5" stroke-linecap="round" stroke-linejoin="round"/>
<path d="M2.91699 9.66637L3.29199 9.01685L3.29199 9.01685L2.91699 9.66637ZM2.00193 8.7513L1.35241 9.1263H1.35241L2.00193 8.7513ZM17.0837 2.00291L16.7087 2.65242L16.7087 2.65242L17.0837 2.00291ZM17.9987 2.91797L18.6482 2.54297L18.6482 2.54297L17.9987 2.91797ZM2.91699 2.00291L3.29199 2.65242L2.91699 2.00291ZM2.00193 2.91797L2.65145 3.29297V3.29297L2.00193 2.91797ZM17.5412 7.63024C17.5008 8.04248 17.8021 8.40946 18.2144 8.44993C18.6266 8.4904 18.9936 8.18903 19.0341 7.7768L18.2876 7.70352L17.5412 7.63024ZM6.61326 10.7513C7.02747 10.7513 7.36326 10.4155 7.36326 10.0013C7.36326 9.58709 7.02747 9.2513 6.61326 9.2513V10.0013V10.7513ZM5.83366 1.66797V2.41797H14.167V1.66797V0.917969H5.83366V1.66797ZM5.83366 10.0013V9.2513C5.04101 9.2513 4.49667 9.25058 4.07644 9.2125C3.66652 9.17534 3.44888 9.10743 3.29199 9.01685L2.91699 9.66637L2.54199 10.3159C2.96523 10.5602 3.42708 10.6598 3.94104 10.7064C4.44469 10.752 5.06862 10.7513 5.83366 10.7513V10.0013ZM1.66699 5.83464H0.916992C0.916992 6.59968 0.916274 7.22361 0.961921 7.72725C1.0085 8.24121 1.10805 8.70306 1.35241 9.1263L2.00193 8.7513L2.65145 8.3763C2.56087 8.21941 2.49295 8.00178 2.4558 7.59186C2.41771 7.17163 2.41699 6.62728 2.41699 5.83464H1.66699ZM2.91699 9.66637L3.29199 9.01685C3.02596 8.86325 2.80504 8.64234 2.65145 8.3763L2.00193 8.7513L1.35241 9.1263C1.63766 9.62036 2.04793 10.0306 2.54199 10.3159L2.91699 9.66637ZM14.167 1.66797V2.41797C14.9596 2.41797 15.504 2.41869 15.9242 2.45677C16.3341 2.49393 16.5518 2.56184 16.7087 2.65242L17.0837 2.00291L17.4587 1.35339C17.0354 1.10903 16.5736 1.00948 16.0596 0.962897C15.556 0.91725 14.932 0.917969 14.167 0.917969V1.66797ZM18.3337 5.83464H19.0837C19.0837 5.06959 19.0844 4.44566 19.0387 3.94202C18.9921 3.42806 18.8926 2.96621 18.6482 2.54297L17.9987 2.91797L17.3492 3.29297C17.4398 3.44986 17.5077 3.66749 17.5449 4.07741C17.5829 4.49764 17.5837 5.04199 17.5837 5.83464H18.3337ZM17.0837 2.00291L16.7087 2.65242C16.9747 2.80602 17.1956 3.02694 17.3492 3.29297L17.9987 2.91797L18.6482 2.54297C18.363 2.04891 17.9527 1.63863 17.4587 1.35339L17.0837 2.00291ZM5.83366 1.66797V0.917969C5.06862 0.917969 4.44469 0.91725 3.94104 0.962897C3.42708 1.00948 2.96523 1.10903 2.54199 1.35339L2.91699 2.00291L3.29199 2.65242C3.44888 2.56184 3.66652 2.49393 4.07644 2.45677C4.49667 2.41869 5.04101 2.41797 5.83366 2.41797V1.66797ZM1.66699 5.83464H2.41699C2.41699 5.04199 2.41771 4.49764 2.4558 4.07741C2.49295 3.66749 2.56087 3.44986 2.65145 3.29297L2.00193 2.91797L1.35241 2.54297C1.10805 2.96621 1.0085 3.42806 0.961921 3.94202C0.916274 4.44566 0.916992 5.06959 0.916992 5.83464H1.66699ZM2.91699 2.00291L2.54199 1.35339C2.04793 1.63863 1.63766 2.04891 1.35241 2.54297L2.00193 2.91797L2.65145 3.29297C2.80504 3.02694 3.02596 2.80602 3.29199 2.65242L2.91699 2.00291ZM18.3337 5.83464H17.5837C17.5837 6.65359 17.5828 7.20671 17.5412 7.63024L18.2876 7.70352L19.0341 7.7768C19.0845 7.26289 19.0837 6.62321 19.0837 5.83464H18.3337ZM6.61326 10.0013V9.2513H5.83366V10.0013V10.7513H6.61326V10.0013Z" fill="#7567F5"/>
<path d="M14.167 5.83203H14.1745" stroke="#7567F5" stroke-width="1.5" stroke-linecap="round" stroke-linejoin="round"/>
<path d="M10 5.83203H10.0075" stroke="#7567F5" stroke-width="1.5" stroke-linecap="round" stroke-linejoin="round"/>
<path d="M5.83301 5.83203H5.84049" stroke="#7567F5" stroke-width="1.5" stroke-linecap="round" stroke-linejoin="round"/>
</g>
<defs>
<clipPath id="clip0_2350_15829">
<rect width="20" height="20" fill="white"/>
</clipPath>
</defs>
</svg>
