<svg width="20" height="20" viewBox="0 0 20 20" fill="none" xmlns="http://www.w3.org/2000/svg">
<path d="M1.66797 16.6693L3.33464 16.6693L3.33464 18.3359L5.83464 18.3359L5.83464 13.3359L3.33464 13.3359L3.33464 15.0026L1.66797 15.0026L1.66797 16.6693ZM1.66797 10.8359L11.668 10.8359L11.668 12.5026L14.168 12.5026L14.168 7.5026L11.668 7.5026L11.668 9.16927L1.66797 9.16927L1.66797 10.8359ZM1.66797 5.0026L7.5013 5.0026L7.5013 6.66927L10.0013 6.66927L10.0013 1.66927L7.5013 1.66927L7.5013 3.33594L1.66797 3.33594L1.66797 5.0026ZM7.5013 16.6693L18.3346 16.6693L18.3346 15.0026L7.5013 15.0026L7.5013 16.6693ZM11.668 5.0026L18.3346 5.0026L18.3346 3.33594L11.668 3.33594L11.668 5.0026ZM15.8346 10.8359L18.3346 10.8359L18.3346 9.16927L15.8346 9.16927L15.8346 10.8359Z" fill="#252525"/>
</svg>
