<svg width="113" height="111" viewBox="0 0 113 111" fill="none" xmlns="http://www.w3.org/2000/svg">
<g clip-path="url(#clip0_513_6756)">
<path d="M50.8893 319.162H-237.223C-239.481 319.158 -241.644 318.259 -243.238 316.661C-244.833 315.064 -245.729 312.899 -245.729 310.642V-94.3632C-245.709 -96.6073 -244.805 -98.7531 -243.212 -100.334C-241.62 -101.916 -239.468 -102.805 -237.223 -102.809H50.8893C53.149 -102.809 55.316 -101.911 56.9138 -100.313C58.5117 -98.7153 59.4093 -96.5483 59.4093 -94.2886V310.642C59.4093 312.902 58.5117 315.069 56.9138 316.666C55.316 318.264 53.149 319.162 50.8893 319.162ZM-237.223 -102.51C-239.382 -102.506 -241.45 -101.646 -242.975 -100.119C-244.499 -98.5913 -245.355 -96.5213 -245.355 -94.3632V310.642C-245.355 312.8 -244.499 314.87 -242.975 316.397C-241.45 317.925 -239.382 318.785 -237.223 318.789H50.8893C53.0488 318.785 55.1187 317.925 56.6457 316.398C58.1727 314.871 59.0323 312.801 59.0363 310.642V-94.3632C59.0323 -96.5227 58.1727 -98.5926 56.6457 -100.12C55.1187 -101.647 53.0488 -102.506 50.8893 -102.51H-237.223Z" fill="#EBEBEB"/>
<path d="M373.65 319.162H85.5219C83.2635 319.158 81.0987 318.259 79.5018 316.662C77.9048 315.065 77.0059 312.9 77.002 310.642V-94.3632C77.0255 -96.6087 77.9331 -98.7544 79.5279 -100.335C81.1228 -101.916 83.2763 -102.805 85.5219 -102.809H373.65C375.891 -102.801 378.039 -101.91 379.629 -100.329C381.218 -98.7482 382.12 -96.6047 382.14 -94.3632V310.642C382.14 312.896 381.246 315.059 379.655 316.656C378.063 318.253 375.904 319.154 373.65 319.162ZM85.5219 -102.51C83.3624 -102.506 81.2925 -101.647 79.7655 -100.12C78.2385 -98.5926 77.3789 -96.5227 77.375 -94.3632V310.642C77.3789 312.801 78.2385 314.871 79.7655 316.398C81.2925 317.925 83.3624 318.785 85.5219 318.789H373.65C375.809 318.785 377.879 317.925 379.406 316.398C380.933 314.871 381.793 312.801 381.797 310.642V-94.3632C381.793 -96.5227 380.933 -98.5926 379.406 -100.12C377.879 -101.647 375.809 -102.506 373.65 -102.51H85.5219Z" fill="#EBEBEB"/>
<path d="M111.946 159.91L357.877 159.91V-60.3262L111.946 -60.3262L111.946 159.91Z" fill="#E6E6E6"/>
<path d="M101.576 159.91L353.027 159.91V-60.3262L101.576 -60.3262L101.576 159.91Z" fill="#F0F0F0"/>
<path d="M174.018 145.42L88.9227 -45.8242H58.7969L143.892 145.42H174.018Z" fill="white"/>
<g opacity="0.5">
<path d="M98.1445 21.2405H344.09L345.418 6.96094H99.4874L98.1445 21.2405Z" fill="#E6E6E6"/>
<path d="M98.1445 44.8186H344.09L345.418 30.5391H99.4874L98.1445 44.8186Z" fill="#E6E6E6"/>
<path d="M98.1445 68.4124H344.09L345.418 54.1328H99.4874L98.1445 68.4124Z" fill="#E6E6E6"/>
<path d="M98.1445 91.9866H344.09L345.418 77.707H99.4874L98.1445 91.9866Z" fill="#E6E6E6"/>
</g>
<path d="M-186.566 385.715H9.4082L9.4082 -60.3085H-186.566L-186.566 385.715Z" fill="#F0F0F0"/>
<path d="M-186.567 385.715H5.54297L5.54297 -60.3085H-186.567L-186.567 385.715Z" fill="#F5F5F5"/>
<path d="M45.9058 30.0753C45.9804 26.912 48.89 22.7789 60.618 22.0328C72.3461 21.2868 76.703 21.8239 81.5076 30.9855C86.73 40.8484 92.6985 51.8751 88.8041 61.9768C84.9097 72.0784 72.6295 78.0319 63.841 83.3737C55.0524 88.7155 41.9666 106.666 41.9666 106.666C41.9666 106.666 17.5705 38.9385 45.9058 30.0753Z" fill="#263238"/>
<path d="M45.8596 105.873C43.0544 109.156 40.1746 112.289 37.2948 115.482C34.4151 118.676 31.4457 121.749 28.4764 124.853C25.5071 127.956 22.508 131.045 19.4044 134.044C16.3008 137.043 13.1822 140.013 9.9145 142.997L10.4069 142.475C9.70683 143.281 8.89244 143.979 7.98968 144.549C7.25093 144.995 6.47153 145.369 5.66198 145.668C4.36187 146.137 3.00864 146.442 1.63327 146.578C-0.634235 146.801 -2.91821 146.801 -5.18571 146.578C-9.27108 146.187 -13.3212 145.489 -17.3017 144.489C-21.1812 143.534 -24.9712 142.415 -28.7313 141.206C-32.4914 139.998 -36.1919 138.655 -39.8177 137.103C-40.5834 136.781 -41.1895 136.167 -41.5029 135.398C-41.8163 134.628 -41.8113 133.766 -41.4889 133C-41.2116 132.328 -40.7071 131.775 -40.0636 131.436C-39.42 131.098 -38.6782 130.997 -37.9675 131.15C-34.282 131.926 -30.5069 132.716 -26.7766 133.388C-23.0463 134.059 -19.316 134.716 -15.6007 135.178C-12.0113 135.69 -8.39317 135.974 -4.76792 136.029C-3.17292 136.061 -1.57864 135.936 -0.00806808 135.656C0.533619 135.556 1.06362 135.401 1.57357 135.193C1.66973 135.159 1.75658 135.103 1.82723 135.029C1.82723 135.029 1.7228 135.029 1.58851 135.208L2.08089 134.686C5.06512 131.702 7.90015 128.717 10.765 125.659L19.3298 116.333L36.3399 97.5173C37.442 96.2609 38.9981 95.4937 40.6659 95.3846C42.3336 95.2754 43.9764 95.8333 45.2329 96.9354C46.4894 98.0375 47.2565 99.5936 47.3657 101.261C47.4748 102.929 46.9169 104.572 45.8148 105.828L45.8596 105.873Z" fill="#FF8B7B"/>
<path d="M45.9808 90.8187C37.2071 89.3266 33.3276 95.4443 29.1348 100.055C30.1345 108.202 44.5036 124.914 44.5036 124.914C44.5036 124.914 61.9315 93.415 45.9808 90.8187Z" fill="#7567F5"/>
<path d="M34.3109 100.818C35.43 109.696 39.6676 134.614 51.5449 171.917L103.336 164.277C99.7551 145.506 94.8163 127.765 97.0992 90.3877C97.1625 89.3567 97.0136 88.3238 96.6616 87.3527C96.3097 86.3816 95.7622 85.493 95.0531 84.7419C94.344 83.9909 93.4884 83.3933 92.5391 82.9862C91.5898 82.5791 90.5671 82.3711 89.5342 82.3751C86.0277 82.3751 81.7006 82.5243 77.1944 82.9719C69.625 83.5497 62.1059 84.6616 54.6933 86.2993C49.9185 87.4632 44.8602 89.015 41.0106 90.2683C38.8457 90.9801 36.9947 92.4205 35.7731 94.3442C34.5514 96.2678 34.0347 98.5556 34.3109 100.818Z" fill="#7567F5"/>
<path d="M54.6951 86.2688L77.1962 82.9414C77.1962 82.9414 76.1666 91.5807 61.9915 102.936C51.2185 92.9386 54.6951 86.2688 54.6951 86.2688Z" fill="white"/>
<path d="M71.226 57.9336C70.8679 65.3942 71.42 78.8232 77.1945 82.9415C73.5593 88.8316 68.5849 93.7803 62.6762 97.3852C60.4453 96.4552 58.5171 94.923 57.1073 92.9598C55.6975 90.9967 54.8617 88.68 54.6934 86.2689C62.4822 83.1504 61.393 77.1968 59.1697 71.7804L71.226 57.9336Z" fill="#E5A184"/>
<path opacity="0.2" d="M66.3035 63.5898L59.1562 71.7666C59.6998 73.0237 60.1293 74.3271 60.4395 75.6611C63.4237 74.7658 67.1988 70.752 67.0496 67.4693C67.0404 66.1414 66.7876 64.8264 66.3035 63.5898Z" fill="black"/>
<path d="M76.8966 43.5324C75.7924 55.7229 75.5835 60.9006 69.242 66.9884C59.6925 76.1649 44.9653 72.1511 42.3839 59.871C40.0712 48.8294 42.2496 30.7449 54.3209 26.2238C56.9852 25.2043 59.8663 24.8844 62.6893 25.2947C65.5123 25.7049 68.1832 26.8316 70.4471 28.5673C72.711 30.3031 74.4924 32.5899 75.6215 35.2096C76.7505 37.8294 77.1895 40.6947 76.8966 43.5324Z" fill="#E5A184"/>
<path d="M67.5422 34.043C66.4679 41.3394 70.7801 50.2772 74.5104 50.3667C78.2406 50.4563 81.0458 36.3707 81.0458 36.3707L67.5422 34.043Z" fill="#263238"/>
<path d="M46.8164 30.312C54.7694 35.9522 78.4045 44.4125 78.8969 37.1161C79.3893 29.8196 69.5264 23.9258 62.23 23.9258C54.9335 23.9258 49.0546 26.8354 46.8164 30.312Z" fill="#263238"/>
<path d="M59.0216 46.7418C59.0216 47.7415 58.4546 48.5323 57.7981 48.5025C57.1416 48.4726 56.6492 47.6669 56.679 46.6821C56.7089 45.6973 57.246 44.8915 57.9025 44.9065C58.5591 44.9214 59.0515 45.742 59.0216 46.7418Z" fill="#263238"/>
<path d="M47.781 46.4225C47.8094 45.4258 47.3048 44.6027 46.6541 44.5842C46.0033 44.5657 45.4528 45.3587 45.4244 46.3554C45.396 47.3521 45.9006 48.1752 46.5514 48.1937C47.2021 48.2122 47.7526 47.4192 47.781 46.4225Z" fill="#263238"/>
<path d="M46.9506 44.6516L44.5781 43.8906C44.5781 43.8906 45.7569 45.8005 46.9506 44.6516Z" fill="#263238"/>
<path d="M50.7108 48.2188C49.761 50.4599 48.5057 52.5588 46.9805 54.4558C47.478 54.8346 48.0521 55.1003 48.6629 55.2343C49.2737 55.3683 49.9064 55.3674 50.5168 55.2317L50.7108 48.2188Z" fill="#CE7546"/>
<path d="M54.0367 58.9353C53.4836 59.017 52.9245 59.0519 52.3655 59.0397C52.2902 59.0326 52.22 58.9984 52.1679 58.9436C52.1158 58.8887 52.0853 58.8169 52.082 58.7413C52.082 58.7028 52.0898 58.6646 52.1049 58.6292C52.1201 58.5938 52.1423 58.5619 52.1703 58.5354C52.1982 58.5088 52.2312 58.4883 52.2674 58.4749C52.3035 58.4616 52.342 58.4558 52.3805 58.4578C53.616 58.5199 54.8487 58.2902 55.979 57.7873C57.1092 57.2844 58.1051 56.5225 58.8861 55.5631C58.9076 55.5317 58.9352 55.5049 58.9671 55.4842C58.999 55.4635 59.0347 55.4493 59.0721 55.4423C59.1095 55.4354 59.1479 55.4359 59.1851 55.4438C59.2223 55.4518 59.2576 55.4669 59.289 55.4885C59.3203 55.51 59.3471 55.5375 59.3678 55.5695C59.3885 55.6014 59.4028 55.637 59.4097 55.6745C59.4166 55.7119 59.4161 55.7503 59.4082 55.7875C59.4003 55.8247 59.3851 55.86 59.3635 55.8913C58.0545 57.5638 56.1422 58.6566 54.0367 58.9353Z" fill="#263238"/>
<path d="M79.5228 49.9987C79.2384 51.137 78.7305 52.2073 78.0286 53.1474C77.3268 54.0875 76.4449 54.8787 75.4344 55.4748C72.7337 57.0564 70.585 54.8332 70.6746 51.8639C70.7492 49.193 72.2562 45.1494 75.3001 44.7763C75.9642 44.7057 76.6354 44.8025 77.2524 45.0579C77.8694 45.3133 78.4127 45.7192 78.8326 46.2385C79.2525 46.7578 79.5356 47.3739 79.6562 48.0308C79.7767 48.6876 79.7309 49.3642 79.5228 49.9987Z" fill="#D7875D"/>
<path d="M63.2002 41.6114C63.1215 41.621 63.0416 41.6126 62.9666 41.5868C62.8916 41.5609 62.8235 41.5183 62.7675 41.4622C62.2456 40.9445 61.6082 40.5582 60.9077 40.3351C60.2073 40.112 59.4639 40.0585 58.7387 40.179C58.5966 40.19 58.4551 40.1498 58.34 40.0656C58.2249 39.9813 58.1438 39.8587 58.1114 39.7198C58.0789 39.5809 58.0972 39.435 58.1631 39.3085C58.2289 39.182 58.3378 39.0832 58.4702 39.0301C59.3829 38.8732 60.3198 38.9347 61.2042 39.2096C62.0886 39.4845 62.8953 39.965 63.5583 40.6117C63.6138 40.6647 63.658 40.7283 63.6882 40.7989C63.7184 40.8694 63.734 40.9453 63.734 41.0221C63.734 41.0988 63.7184 41.1747 63.6882 41.2452C63.658 41.3158 63.6138 41.3794 63.5583 41.4324C63.5133 41.4843 63.4585 41.5269 63.3971 41.5576C63.3356 41.5883 63.2687 41.6066 63.2002 41.6114Z" fill="#263238"/>
<path d="M44.9202 40.6676C44.8473 40.6547 44.7778 40.6268 44.7162 40.5857C44.6546 40.5446 44.6021 40.4912 44.5621 40.4289C44.5173 40.3668 44.4856 40.2962 44.4688 40.2215C44.4521 40.1468 44.4506 40.0694 44.4646 39.9941C44.4785 39.9188 44.5076 39.8472 44.55 39.7834C44.5924 39.7196 44.6473 39.6651 44.7113 39.6232C45.4606 39.0769 46.3301 38.7185 47.2467 38.5783C48.1633 38.4381 49.1002 38.5201 49.9785 38.8174C50.1209 38.8768 50.234 38.9903 50.2928 39.133C50.3515 39.2757 50.3512 39.4359 50.2918 39.5784C50.2639 39.6502 50.2219 39.7158 50.1684 39.7713C50.1148 39.8268 50.0508 39.8712 49.98 39.9017C49.9092 39.9322 49.833 39.9484 49.7559 39.9493C49.6788 39.9501 49.6023 39.9356 49.5308 39.9066C48.8339 39.6769 48.0919 39.618 47.3675 39.7349C46.643 39.8517 45.9572 40.1409 45.3678 40.5781C45.2364 40.6661 45.0754 40.6983 44.9202 40.6676Z" fill="#263238"/>
<path d="M58.185 44.9062L55.8125 44.1602C55.8125 44.1602 56.9913 46.1148 58.185 44.9062Z" fill="#263238"/>
<path d="M96.4437 87.491C97.5479 88.4758 98.9057 89.6098 100.159 90.6543C101.412 91.6987 102.77 92.7731 104.113 93.7877C106.784 95.802 109.47 97.7866 112.26 99.5771C117.567 103.169 123.374 105.96 129.494 107.858C129.852 107.978 130.225 108.037 130.583 108.127L131.121 108.261C131.121 108.261 131.285 108.261 131.121 108.261H130.912C130.315 108.261 130.091 108.53 130.255 108.47C131.111 107.892 131.846 107.152 132.419 106.292C134.238 103.68 135.807 100.902 137.104 97.9955C138.596 95.0112 139.909 91.8032 141.148 88.5802C142.386 85.3572 143.654 82.0895 144.818 78.8665C145.075 78.1301 145.598 77.5161 146.283 77.1444C146.969 76.7727 147.769 76.67 148.526 76.8566C149.283 77.0431 149.944 77.5054 150.378 78.153C150.813 78.8007 150.991 79.5871 150.876 80.3586C149.859 87.5688 148.221 94.6777 145.982 101.606C144.798 105.312 143.217 108.879 141.267 112.245C140.023 114.421 138.347 116.32 136.343 117.826C134.7 118.986 132.744 119.621 130.733 119.646C130.44 119.668 130.145 119.668 129.852 119.646L129.151 119.557L128.39 119.422C127.898 119.333 127.375 119.273 126.898 119.154C123.049 118.34 119.298 117.12 115.707 115.513C112.239 113.992 108.883 112.226 105.665 110.231C102.479 108.304 99.3961 106.213 96.4288 103.964C94.9466 102.85 93.4993 101.701 92.0867 100.517C90.5946 99.3085 89.3114 98.1596 87.8193 96.7421C86.6798 95.5885 86.028 94.0405 85.9991 92.4193C85.9701 90.798 86.5662 89.2278 87.6638 88.0342C88.7615 86.8407 90.2763 86.1154 91.8943 86.0087C93.5123 85.9019 95.1094 86.4221 96.3542 87.4611L96.4437 87.491Z" fill="#FF8B7B"/>
<path d="M88.9676 82.3448C97.9203 81.8226 101.322 86.478 105.008 91.4915C103.187 99.4893 93.4887 113.172 93.4887 113.172C93.4887 113.172 72.8378 83.2998 88.9676 82.3448Z" fill="#7567F5"/>
<path opacity="0.9" d="M143.282 -30.5254L-14.0465 -45.6107C-17.9193 -45.9644 -21.7751 -44.7735 -24.7738 -42.2974C-27.7726 -39.8212 -29.6715 -36.2604 -30.0569 -32.3906L-52.6028 203.08C-52.9687 206.953 -51.7842 210.813 -49.3089 213.815C-46.8336 216.816 -43.2694 218.713 -39.3975 219.091L117.916 234.176C121.79 234.534 125.648 233.344 128.648 230.867C131.647 228.39 133.545 224.827 133.927 220.956L156.487 -14.4404C156.677 -16.3637 156.486 -18.3055 155.925 -20.1549C155.364 -22.0043 154.444 -23.725 153.217 -25.2187C151.991 -26.7125 150.482 -27.9499 148.778 -28.8605C147.073 -29.771 145.206 -30.3368 143.282 -30.5254ZM109.605 59.6282C108.516 70.8712 103.933 81.4907 96.4986 89.995C89.0644 98.4994 79.153 104.461 68.1566 107.044C57.1601 109.626 45.631 108.699 35.1884 104.393C24.7459 100.087 15.9145 92.6175 9.93477 83.0345C3.95502 73.4516 1.12726 62.2362 1.84867 50.9636C2.57007 39.6911 6.8044 28.9276 13.9569 20.1851C21.1095 11.4425 30.8208 5.16007 41.7271 2.22005C52.6334 -0.719959 64.1867 -0.169804 74.7643 3.79324C78.9924 5.37495 83.0033 7.48566 86.7012 10.075C94.5798 15.5534 100.856 23.0322 104.885 31.7418C108.913 40.4514 110.547 50.0771 109.62 59.6282H109.605Z" fill="white"/>
<path d="M119.333 234.77C118.834 234.776 118.336 234.751 117.841 234.695L-39.4731 219.625C-43.5076 219.232 -47.2215 217.256 -49.8005 214.128C-52.3795 211.001 -53.613 206.979 -53.2305 202.943L-30.6846 -32.453C-30.288 -36.4858 -28.3102 -40.1974 -25.1839 -42.7756C-22.0575 -45.3539 -18.0373 -46.5888 -14.0027 -46.2103L143.401 -31.1847C147.436 -30.7918 151.152 -28.8155 153.733 -25.6888C156.314 -22.5621 157.551 -18.5398 157.173 -14.5028L134.537 220.983C134.164 224.761 132.403 228.267 129.595 230.822C126.786 233.377 123.13 234.8 119.333 234.815V234.77ZM-15.4501 -45.0614C-18.9456 -45.0521 -22.3131 -43.7447 -24.8993 -41.3929C-27.4854 -39.0411 -29.1058 -35.8126 -29.4461 -32.3336L-52.0666 203.078C-52.4039 206.79 -51.2624 210.485 -48.8903 213.36C-46.5181 216.235 -43.1071 218.057 -39.3985 218.431L118.035 233.487C121.747 233.832 125.444 232.693 128.319 230.319C131.194 227.945 133.011 224.529 133.374 220.819L155.934 -14.5774C156.276 -18.288 155.138 -21.9832 152.768 -24.8587C150.398 -27.7343 146.989 -29.5575 143.281 -29.9313L-14.1072 -45.0017C-14.5548 -45.0465 -15.0024 -45.0614 -15.4501 -45.0614ZM55.8433 109.194C54.0826 109.194 52.3069 109.104 50.5313 108.94C42.7796 108.192 35.277 105.798 28.5248 101.917C21.7727 98.0369 15.9267 92.7599 11.3775 86.439C6.82842 80.1181 3.681 72.899 2.14569 65.2641C0.610382 57.6292 0.722557 49.7546 2.47471 42.1666C4.22687 34.5786 7.57863 27.452 12.306 21.2632C17.0333 15.0745 23.0272 9.96613 29.8872 6.27971C36.7471 2.59328 44.3149 0.413715 52.0847 -0.113335C59.8546 -0.640381 67.6474 0.497238 74.9423 3.2235C79.2261 4.81726 83.2879 6.95348 87.0285 9.57993C94.9942 15.1206 101.341 22.6826 105.416 31.4886C109.491 40.2945 111.148 50.0268 110.216 59.6852C108.922 73.2172 102.638 85.7831 92.5863 94.9351C82.5351 104.087 69.4369 109.17 55.8433 109.194ZM55.7089 0.970417C45.3482 0.977211 35.2124 3.99267 26.5328 9.65049C17.8533 15.3083 11.0036 23.365 6.81589 32.8417C2.62817 42.3184 1.28267 52.8073 2.94284 63.0342C4.60302 73.2611 9.19742 82.7858 16.1679 90.4511C23.1384 98.1165 32.1849 103.593 42.2085 106.214C52.2321 108.836 62.8013 108.49 72.6321 105.219C82.463 101.948 91.1324 95.8927 97.5871 87.7883C104.042 79.6838 108.004 69.8793 108.992 59.5658C109.902 50.126 108.281 40.6142 104.298 32.0078C100.315 23.4014 94.1121 16.0105 86.3272 10.5946C82.6728 8.02353 78.7005 5.93707 74.5096 4.38735C70.119 2.73509 65.5275 1.6763 60.8567 1.239C59.1259 1.05994 57.41 0.970417 55.7089 0.970417Z" fill="#7567F5"/>
<path opacity="0.8" d="M74.7639 3.79324C64.783 0.0619049 53.9227 -0.639999 43.5445 1.77552C33.1663 4.19104 23.732 9.61647 16.4246 17.3717C9.11716 25.1269 4.26168 34.8667 2.46688 45.37C0.672089 55.8734 2.01786 66.6729 6.33547 76.4145L-44.3965 118.313L-29.9528 -32.3906C-29.5674 -36.2604 -27.6685 -39.8212 -24.6698 -42.2974C-21.671 -44.7735 -17.8152 -45.9644 -13.9424 -45.6107L38.1922 -40.6121L54.874 -20.379L74.7639 3.79324Z" fill="#7567F5"/>
<path d="M136.655 -31.1831L86.6991 10.0739C83.0012 7.48452 78.9903 5.37381 74.7622 3.7921L54.8126 -20.3802L38.0859 -40.6133L136.655 -31.1831Z" fill="#7567F5"/>
</g>
<defs>
<clipPath id="clip0_513_6756">
<rect x="0.933594" width="111.133" height="110.566" rx="55.2829" fill="white"/>
</clipPath>
</defs>
</svg>
