<svg width="22" height="22" viewBox="0 0 22 22" fill="none" xmlns="http://www.w3.org/2000/svg">
<path d="M4.15918 13.2129H6.44238C6.63646 13.213 6.79688 13.3743 6.79688 13.5684V18.6982C6.79685 18.8923 6.63645 19.0536 6.44238 19.0537H3.30469C3.11057 19.0537 2.94925 18.8924 2.94922 18.6982V14.4229C2.94929 13.7585 3.49487 13.213 4.15918 13.2129Z" stroke="#7567F5"/>
<path d="M9.85449 9.79297H12.1377C12.8089 9.79303 13.3476 10.337 13.3477 11.0029V18.6982C13.3477 18.8924 13.1863 19.0537 12.9922 19.0537H9C8.80587 19.0537 8.64453 18.8924 8.64453 18.6982V11.0029L8.65039 10.8799C8.71279 10.2725 9.23168 9.79303 9.85449 9.79297Z" stroke="#7567F5"/>
<path d="M15.5576 15.7773H17.8398C18.5042 15.7773 19.0497 16.323 19.0498 16.9873V18.6973C19.0498 18.8914 18.8894 19.0527 18.6953 19.0527H15.5576C15.3635 19.0527 15.2021 18.8914 15.2021 18.6973V16.1328L15.209 16.0615C15.2424 15.9006 15.3877 15.7773 15.5576 15.7773Z" stroke="#7567F5"/>
<path d="M10.9951 2.34766C11.0512 2.34766 11.1755 2.38073 11.2783 2.58887L11.7324 3.49707C11.7706 3.57333 11.8198 3.62675 11.8438 3.65137C11.874 3.68238 11.9065 3.71014 11.9375 3.7334C11.9677 3.75601 12.0065 3.782 12.0518 3.80469C12.0749 3.81627 12.1388 3.84583 12.2256 3.85938V3.86035L13.0469 3.99707L13.0498 3.99805C13.3047 4.03859 13.3666 4.14749 13.3779 4.18359C13.3914 4.22669 13.3978 4.35806 13.2197 4.53613L12.5781 5.17676C12.5202 5.23317 12.4862 5.29089 12.4688 5.32324C12.4421 5.37254 12.4235 5.42082 12.4111 5.46191C12.3929 5.52284 12.3626 5.65068 12.3906 5.79102L12.3936 5.80469L12.5723 6.59082L12.5732 6.59277C12.6242 6.81243 12.5982 6.92416 12.582 6.96777C12.5694 7.00185 12.5529 7.01745 12.5449 7.02441C12.5305 7.03362 12.5171 7.04167 12.5029 7.04688C12.4877 7.05243 12.4689 7.05762 12.4443 7.05762C12.3904 7.05758 12.2828 7.04376 12.1143 6.94141L12.1104 6.93945L11.3496 6.48633L11.3486 6.4873C11.267 6.43777 11.1905 6.41829 11.1553 6.41113C11.101 6.40013 11.0489 6.39649 11.0039 6.39648C10.9589 6.39648 10.9068 6.40015 10.8525 6.41113C10.8214 6.41746 10.7572 6.43227 10.6865 6.46973L10.6602 6.48535L9.89062 6.93848C9.69745 7.05248 9.58426 7.06005 9.53809 7.05762C9.49207 7.0552 9.46537 7.0407 9.44922 7.0293C9.44487 7.02622 9.42511 7.01063 9.40918 6.96777C9.39302 6.92417 9.36608 6.81239 9.41699 6.59277L9.41797 6.59082L9.59766 5.80469L9.5957 5.80371C9.61718 5.70974 9.60999 5.6289 9.60645 5.59863C9.60112 5.55332 9.59161 5.50948 9.58008 5.46973C9.56869 5.4305 9.5516 5.38205 9.52637 5.33301C9.5108 5.30279 9.476 5.24082 9.41406 5.17969L8.78223 4.53809L8.7793 4.53613L8.7207 4.47168C8.60822 4.33341 8.60962 4.23134 8.62012 4.18945C8.6429 4.13251 8.71631 4.0351 8.94922 3.99805L8.95312 3.99707L9.77344 3.86035L9.77246 3.85938C9.86005 3.84588 9.92473 3.81609 9.94922 3.80371C9.99591 3.78007 10.0367 3.75207 10.0693 3.72656C10.1019 3.70104 10.1385 3.66789 10.1729 3.62793C10.1914 3.60628 10.235 3.55276 10.2686 3.47363L10.7119 2.59082L10.7129 2.58887C10.8156 2.38094 10.939 2.34772 10.9951 2.34766Z" stroke="#7567F5"/>
</svg>
