<svg width="21" height="21" viewBox="0 0 21 21" fill="none" xmlns="http://www.w3.org/2000/svg">
<path d="M3.41992 12.4727H5.70312C5.89721 12.4727 6.05762 12.634 6.05762 12.8281V17.958C6.05759 18.1521 5.89719 18.3134 5.70312 18.3135H2.56543C2.37131 18.3135 2.20999 18.1521 2.20996 17.958V13.6826C2.21003 13.0183 2.75562 12.4727 3.41992 12.4727Z" stroke="white"/>
<path d="M9.11523 9.05078H11.3984C12.0697 9.05084 12.6083 9.5948 12.6084 10.2607V17.9561C12.6084 18.1502 12.4471 18.3115 12.2529 18.3115H8.26074C8.06661 18.3115 7.90527 18.1502 7.90527 17.9561V10.2607L7.91113 10.1377C7.97353 9.53036 8.49243 9.05085 9.11523 9.05078Z" stroke="white"/>
<path d="M14.8184 15.0352H17.1006C17.7649 15.0352 18.3105 15.5808 18.3105 16.2451V17.9551C18.3105 18.1492 18.1501 18.3105 17.9561 18.3105H14.8184C14.6242 18.3105 14.4629 18.1492 14.4629 17.9551V15.3906L14.4697 15.3193C14.5031 15.1584 14.6484 15.0352 14.8184 15.0352Z" stroke="white"/>
<path d="M10.2559 1.60547C10.3119 1.60547 10.4363 1.63854 10.5391 1.84668L10.9932 2.75488C11.0313 2.83114 11.0805 2.88456 11.1045 2.90918C11.1347 2.94019 11.1672 2.96796 11.1982 2.99121C11.2284 3.01383 11.2672 3.03982 11.3125 3.0625C11.3357 3.07408 11.3995 3.10364 11.4863 3.11719V3.11816L12.3076 3.25488L12.3105 3.25586C12.5654 3.29641 12.6274 3.4053 12.6387 3.44141C12.6521 3.4845 12.6585 3.61587 12.4805 3.79395L11.8389 4.43457C11.7809 4.49098 11.747 4.54871 11.7295 4.58105C11.7028 4.63036 11.6842 4.67863 11.6719 4.71973C11.6536 4.78065 11.6234 4.90849 11.6514 5.04883L11.6543 5.0625L11.833 5.84863L11.834 5.85059C11.8849 6.07024 11.8589 6.18197 11.8428 6.22559C11.8301 6.25966 11.8137 6.27527 11.8057 6.28223C11.7912 6.29143 11.7779 6.29948 11.7637 6.30469C11.7484 6.31025 11.7297 6.31543 11.7051 6.31543C11.6511 6.31539 11.5436 6.30157 11.375 6.19922L11.3711 6.19727L10.6104 5.74414L10.6094 5.74512C10.5277 5.69558 10.4512 5.67611 10.416 5.66895C10.3618 5.65795 10.3096 5.6543 10.2646 5.6543C10.2197 5.6543 10.1675 5.65796 10.1133 5.66895C10.0822 5.67527 10.018 5.69008 9.94727 5.72754L9.9209 5.74316L9.15137 6.19629C8.95819 6.3103 8.84501 6.31786 8.79883 6.31543C8.75281 6.31301 8.72611 6.29851 8.70996 6.28711C8.70562 6.28403 8.68585 6.26845 8.66992 6.22559C8.65376 6.18198 8.62682 6.07021 8.67773 5.85059L8.67871 5.84863L8.8584 5.0625L8.85645 5.06152C8.87792 4.96755 8.87073 4.88672 8.86719 4.85645C8.86186 4.81113 8.85235 4.76729 8.84082 4.72754C8.82943 4.68831 8.81234 4.63986 8.78711 4.59082C8.77154 4.56061 8.73674 4.49863 8.6748 4.4375L8.04297 3.7959L8.04004 3.79395L7.98145 3.72949C7.86896 3.59122 7.87036 3.48915 7.88086 3.44727C7.90364 3.39032 7.97705 3.29291 8.20996 3.25586L8.21387 3.25488L9.03418 3.11816L9.0332 3.11719C9.12079 3.10369 9.18548 3.0739 9.20996 3.06152C9.25665 3.03789 9.29748 3.00988 9.33008 2.98438C9.36264 2.95885 9.39927 2.9257 9.43359 2.88574C9.45218 2.86409 9.49576 2.81057 9.5293 2.73145L9.97266 1.84863L9.97363 1.84668C10.0763 1.63875 10.1997 1.60553 10.2559 1.60547Z" stroke="white"/>
</svg>
