<svg width="24" height="24" viewBox="0 0 24 24" fill="none" xmlns="http://www.w3.org/2000/svg">
<g clip-path="url(#clip0_645_108506)">
<path d="M20.1765 2.69141H19.0162V20.8393C19.0162 21.0981 18.8063 21.308 18.5474 21.308H5.55859V22.415C5.55859 22.6738 5.76848 22.8837 6.02734 22.8837H20.1765C20.4354 22.8837 20.6453 22.6738 20.6453 22.415V3.16016C20.6453 2.90126 20.4354 2.69141 20.1765 2.69141Z" fill="#23D9EF"/>
<path d="M8.28866 1.11523V4.55564C8.28866 5.06295 7.8774 5.47421 7.37009 5.47421H3.92969L8.28866 1.11523Z" fill="#7467F4"/>
<path d="M22.7843 9.22302C22.8639 9.1571 22.8754 9.039 22.8094 8.95912C22.7431 8.87878 22.6254 8.86756 22.5453 8.93371L21.4938 9.8014C21.4142 9.86731 21.4027 9.98542 21.4686 10.0653C21.5057 10.1104 21.5593 10.1335 21.6133 10.1335C21.6554 10.1335 21.6975 10.1195 21.7328 10.0907L22.7843 9.22302Z" fill="#0B215D"/>
<path d="M23.1859 11.9969L21.8552 11.6266C21.7535 11.5973 21.6519 11.6575 21.624 11.7568C21.5965 11.8566 21.6547 11.96 21.7545 11.9877L23.0852 12.3581C23.1021 12.3629 23.119 12.3649 23.1355 12.3649C23.2179 12.3649 23.293 12.3107 23.3163 12.2278C23.3438 12.1281 23.2857 12.0246 23.1859 11.9969Z" fill="#0B215D"/>
<path d="M1.45543 8.93335C1.37532 8.86789 1.25767 8.87865 1.1913 8.95876C1.12538 9.03864 1.13682 9.15674 1.21647 9.22266L2.26796 10.0903C2.30321 10.1192 2.34532 10.1331 2.38743 10.1331C2.44144 10.1331 2.495 10.11 2.53208 10.0649C2.598 9.98506 2.58656 9.86696 2.50691 9.80104L1.45543 8.93335Z" fill="#0B215D"/>
<path d="M2.14721 11.6284L0.816952 11.9987C0.71716 12.0264 0.659026 12.1298 0.68649 12.2296C0.709834 12.3125 0.784909 12.3667 0.867306 12.3667C0.883787 12.3667 0.900723 12.3647 0.917659 12.3599L2.24792 11.9895C2.34771 11.9618 2.40585 11.8584 2.37838 11.7586C2.35046 11.6593 2.24883 11.5995 2.14721 11.6284Z" fill="#0B215D"/>
<path d="M18.5476 0.927734H8.2887C8.2388 0.927734 8.1912 0.947417 8.15595 0.982667L3.79712 5.34149C3.72388 5.41474 3.72388 5.5333 3.79712 5.60654C3.87036 5.67978 3.98938 5.67978 4.06262 5.60654L8.36652 1.30265H18.5476C18.7028 1.30265 18.8287 1.42876 18.8287 1.58394V20.8386C18.8287 20.9938 18.7028 21.1199 18.5476 21.1199H4.39862C4.24344 21.1199 4.11756 20.9938 4.11756 20.8386V7.0105C4.11756 6.90705 4.03333 6.82305 3.92987 6.82305C3.82642 6.82305 3.74219 6.90705 3.74219 7.0105V20.8386C3.74219 21.2005 4.03699 21.4948 4.39862 21.4948H18.5476C18.9093 21.4948 19.2041 21.2005 19.2041 20.8386V1.58394C19.2041 1.22208 18.9093 0.927734 18.5476 0.927734Z" fill="#0B215D"/>
<path d="M14.8136 4.43936C14.917 4.43936 15.0013 4.35536 15.0013 4.25191C15.0013 4.14845 14.917 4.06445 14.8136 4.06445H9.59784C9.49439 4.06445 9.41016 4.14845 9.41016 4.25191C9.41016 4.35536 9.49439 4.43936 9.59784 4.43936H14.8136Z" fill="#0B215D"/>
<path d="M5.92188 7.44917C5.92188 7.55262 6.0061 7.63662 6.10956 7.63662H16.8372C16.9407 7.63662 17.0249 7.55262 17.0249 7.44917C17.0249 7.34572 16.9407 7.26172 16.8372 7.26172H6.10956C6.0061 7.26172 5.92188 7.34572 5.92188 7.44917Z" fill="#0B215D"/>
<path d="M6.10956 10.1093H16.8372C16.9407 10.1093 17.0249 10.0253 17.0249 9.92183C17.0249 9.81838 16.9407 9.73438 16.8372 9.73438H6.10956C6.0061 9.73438 5.92188 9.81838 5.92188 9.92183C5.92188 10.0253 6.0061 10.1093 6.10956 10.1093Z" fill="#0B215D"/>
<path d="M6.10956 12.5819H16.8372C16.9407 12.5819 17.0249 12.4979 17.0249 12.3945C17.0249 12.291 16.9407 12.207 16.8372 12.207H6.10956C6.0061 12.207 5.92188 12.291 5.92188 12.3945C5.92188 12.4979 6.0061 12.5819 6.10956 12.5819Z" fill="#0B215D"/>
<path d="M6.10956 15.0546H16.8372C16.9407 15.0546 17.0249 14.9706 17.0249 14.8671C17.0249 14.7637 16.9407 14.6797 16.8372 14.6797H6.10956C6.0061 14.6797 5.92188 14.7637 5.92188 14.8671C5.92188 14.9706 6.0061 15.0546 6.10956 15.0546Z" fill="#0B215D"/>
<path d="M6.10956 17.5273H14.8116C14.9151 17.5273 14.9993 17.4432 14.9993 17.3398C14.9993 17.2363 14.9151 17.1523 14.8116 17.1523H6.10956C6.0061 17.1523 5.92188 17.2363 5.92188 17.3398C5.92188 17.4432 6.0061 17.5273 6.10956 17.5273Z" fill="#0B215D"/>
</g>
<defs>
<clipPath id="clip0_645_108506">
<rect width="24" height="24" fill="white"/>
</clipPath>
</defs>
</svg>
