<svg width="19" height="15" viewBox="0 0 19 15" fill="none" xmlns="http://www.w3.org/2000/svg">
<path d="M0.75 6.58333C0.75 3.83347 0.75 2.45854 1.60427 1.60427C2.45854 0.75 3.83347 0.75 6.58333 0.75H7.41667C10.1665 0.75 11.5415 0.75 12.3957 1.60427C13.25 2.45854 13.25 3.83347 13.25 6.58333V8.25C13.25 10.9999 13.25 12.3748 12.3957 13.2291C11.5415 14.0833 10.1665 14.0833 7.41667 14.0833H6.58333C3.83347 14.0833 2.45854 14.0833 1.60427 13.2291C0.75 12.3748 0.75 10.9999 0.75 8.25V6.58333Z" stroke="#7567F5" stroke-width="1.5"/>
<path d="M13.25 4.84082L13.3549 4.75424C15.1181 3.29946 15.9996 2.57207 16.7082 2.92329C17.4167 3.27451 17.4167 4.43889 17.4167 6.76767V8.07087C17.4167 10.3996 17.4167 11.564 16.7082 11.9153C15.9996 12.2665 15.1181 11.5391 13.3549 10.0843L13.25 9.99773" stroke="#7567F5" stroke-width="1.5" stroke-linecap="round"/>
<ellipse cx="8.66602" cy="5.33594" rx="1.25" ry="1.25" stroke="#7567F5" stroke-width="1.5"/>
</svg>
