<svg width="253" height="173" viewBox="0 0 253 173" fill="none" xmlns="http://www.w3.org/2000/svg">
<path d="M157.602 172.296H76.5563C73.6129 172.296 71.086 170.172 70.5372 167.237L44.9254 30.1995C44.3392 27.0638 46.7082 24.1602 49.8534 24.1602H130.9C133.842 24.1602 136.37 26.2841 136.919 29.2193L162.53 166.257C163.117 169.392 160.748 172.296 157.602 172.296Z" fill="#060305"/>
<path d="M157.052 157.322H77.9753L54.2266 30.2383H86.1873L86.1985 30.3019C86.9834 34.4982 90.5944 37.5339 94.8029 37.5339H97.0723C100.689 37.5339 103.419 34.1923 102.742 30.579L102.68 30.2383H133.304L149.523 117.041L151.07 125.306L155.727 150.24L157.052 157.322Z" fill="#9E97FF"/>
<path d="M49.3379 25.2227L77.035 171.267" stroke="white" stroke-width="0.543355" stroke-miterlimit="10" stroke-linecap="round" stroke-linejoin="round"/>
<path d="M97.5518 31.8796C97.5518 30.4788 96.4329 29.3438 95.0532 29.3438C93.6731 29.3438 92.5547 30.4794 92.5547 31.8796C92.5547 33.2804 93.6736 34.4154 95.0532 34.4154C96.4334 34.4154 97.5518 33.2804 97.5518 31.8796Z" stroke="white" stroke-width="0.543355" stroke-miterlimit="10" stroke-linecap="round" stroke-linejoin="round"/>
<path d="M114.002 164.117H124.627" stroke="white" stroke-width="0.543355" stroke-miterlimit="10" stroke-linecap="round" stroke-linejoin="round"/>
<path d="M196.875 38.6098C196.875 38.6098 204.132 37.6941 215.043 28.8869C225.953 20.0802 231.857 7.56389 233.076 7.74411C234.295 7.92434 239.876 5.91627 247.96 29.3398C256.045 52.7633 251.556 57.5933 249.536 57.3578C247.516 57.1218 234.137 51.922 225.463 52.0912C216.789 52.261 205.336 55.7451 205.336 55.7451L196.875 38.6098Z" fill="#7567F5"/>
<path d="M183.821 56.1026L187.699 55.2625L185.601 50.0859L182.322 51.744L183.821 56.1026Z" fill="#557DF4"/>
<path d="M184.276 49.94L185.709 54.3125L186.601 56.513C187.824 59.5309 191.161 61.0494 194.195 59.968L209.932 55.4781L203.171 35.2539L187.537 41.9449C184.469 43.2455 183.011 46.818 184.276 49.94Z" fill="#263238"/>
<path d="M189.916 56.6627L195.187 66.1495L197.596 65.3594L214.048 77.8258L218.133 68.8017C218.133 68.8017 208.56 65.0873 206.681 61.7572C204.802 58.4271 206.78 57.5702 206.78 57.5702L202.145 52.6523L189.916 56.6627Z" fill="#263238"/>
<path d="M247.1 29.6694C251.383 42.3485 252.63 53.4016 249.885 54.3568C247.14 55.312 241.443 45.8071 237.16 33.128C232.877 20.4488 231.63 9.39575 234.375 8.44113C237.121 7.48594 242.817 16.9902 247.1 29.6694Z" fill="#263238"/>
<path d="M236.318 25.9141C236.318 25.9141 242.858 22.6166 245.452 31.4121C248.046 40.2077 241.415 40.9792 241.415 40.9792C239.144 36.5381 237.428 31.5331 236.318 25.9141Z" fill="#FAFAFA"/>
<path d="M230.684 15.1875C230.648 15.1904 230.682 15.7741 230.776 16.8293C230.875 17.8833 231.012 19.4124 231.237 21.2954C231.414 22.2291 231.608 23.2488 231.814 24.3418C231.92 24.89 232.029 25.4563 232.142 26.0388C232.198 26.3307 232.256 26.6266 232.313 26.9266C232.379 27.2248 232.473 27.5202 232.553 27.8231C232.89 29.0312 233.244 30.2985 233.61 31.6119C233.702 31.9403 233.795 32.2717 233.889 32.6054C233.979 32.9409 234.12 33.2618 234.235 33.5944C234.478 34.2554 234.725 34.9257 234.975 35.6042C235.226 36.2826 235.474 36.9524 235.718 37.6134C235.846 37.9407 235.948 38.2773 236.096 38.5907C236.241 38.9052 236.386 39.2174 236.529 39.5261C237.103 40.7609 237.657 41.9527 238.184 43.0887C238.32 43.3707 238.44 43.6562 238.584 43.9248C238.735 44.1904 238.883 44.4521 239.029 44.7102C239.322 45.2259 239.607 45.7264 239.882 46.2107C240.434 47.174 240.949 48.0728 241.42 48.8961C242.467 50.4623 243.351 51.7029 243.958 52.5634C244.569 53.4209 244.921 53.8848 244.952 53.8639C244.982 53.843 244.688 53.3389 244.129 52.4454C243.549 51.5338 242.734 50.2542 241.732 48.6821C241.282 47.8548 240.79 46.952 240.263 45.9834C239.998 45.4991 239.723 44.9985 239.441 44.4835C239.3 44.2259 239.156 43.9649 239.01 43.7003C238.871 43.4323 238.755 43.1463 238.623 42.8649C238.108 41.7324 237.567 40.5441 237.007 39.3127C236.866 39.0046 236.724 38.6947 236.581 38.382C236.435 38.0709 236.335 37.736 236.208 37.4105C235.966 36.7541 235.721 36.0884 235.473 35.4146C235.225 34.7414 234.978 34.0757 234.736 33.4199C234.621 33.0903 234.479 32.7717 234.389 32.4392C234.294 32.1078 234.2 31.7793 234.108 31.4537C233.733 30.1526 233.373 28.8963 233.028 27.6986C232.945 27.3987 232.848 27.1062 232.78 26.8109C232.718 26.5138 232.658 26.2208 232.598 25.9319C232.477 25.3546 232.36 24.7929 232.247 24.2505C232.018 23.1674 231.804 22.1576 231.608 21.2326C231.347 19.3839 231.134 17.8787 230.982 16.8066C230.825 15.7619 230.721 15.1846 230.684 15.1875Z" fill="#263238"/>
<path d="M209.931 55.4817C209.936 55.502 209.684 55.5822 209.223 55.709C208.704 55.8468 208.05 56.0212 207.271 56.2281C205.622 56.6607 203.348 57.2717 200.843 57.9728C198.338 58.6751 196.069 59.317 194.413 59.7327C193.585 59.9419 192.912 60.0989 192.446 60.1972C191.978 60.2948 191.718 60.339 191.713 60.3187C191.708 60.2983 191.959 60.2152 192.418 60.0826C192.934 59.9344 193.584 59.7478 194.358 59.5251C196.057 59.0356 198.292 58.392 200.764 57.6804C203.271 56.9781 205.558 56.3991 207.221 56.0194C208.053 55.8293 208.728 55.6834 209.197 55.5933C209.666 55.5026 209.926 55.4613 209.931 55.4817Z" fill="#557DF4"/>
<path d="M200.683 52.1813C200.697 52.2191 200.112 52.4789 199.146 52.8458C198.18 53.2126 196.832 53.6812 195.324 54.1382C193.816 54.5946 192.435 54.9533 191.43 55.1841C190.424 55.4149 189.794 55.523 189.785 55.4841C189.776 55.4422 190.387 55.2602 191.378 54.9771C192.368 54.694 193.735 54.3039 195.239 53.8487C196.742 53.3929 198.096 52.958 199.078 52.6435C200.058 52.3289 200.668 52.1406 200.683 52.1813Z" fill="#557DF4"/>
<path d="M198.184 47.5618C198.208 47.642 196.034 48.3792 193.329 49.2088C190.624 50.039 188.412 50.6466 188.389 50.5663C188.365 50.4861 190.538 49.7489 193.244 48.9187C195.947 48.0891 198.16 47.4816 198.184 47.5618Z" fill="#557DF4"/>
<path d="M195.743 43.1107C195.776 43.1874 193.925 44.0833 191.61 45.1123C189.293 46.1414 187.389 46.9134 187.356 46.8367C187.323 46.7599 189.173 45.864 191.49 44.835C193.806 43.8066 195.71 43.0345 195.743 43.1107Z" fill="#557DF4"/>
<path d="M220.935 69.2131C220.483 69.0549 211.674 78.6313 222.319 75.0381C218.727 76.2628 225.911 73.8134 222.319 75.0381C227.671 72.4387 215.584 71.8125 220.935 69.2131C220.319 68.2318 220.098 69.2131 220.935 69.2131C217.75 69.9833 225.209 68.6635 220.098 69.9833C225.699 66.9036 202.451 59.5033 208.053 56.4241C181.753 56.4241 209.759 63.7603 208.743 64.0814C203.055 65.881 221.342 64.5256 215.654 66.3252C220.124 63.4444 203.583 66.1418 208.053 63.2614C188.13 67.5572 209.342 64.1977 208.743 64.0814C207.953 63.9281 206.66 59.44 205.898 59.7014C197.885 62.447 210.253 58.8515 202.24 61.5971C199.949 57.7333 198.045 56.482 195.877 52.5459C195.497 51.8548 194.812 51.344 194.049 51.1805C193.285 51.0175 192.518 51.3283 191.895 51.8048C192.963 56.9009 194.765 62.5268 193.359 67.5376C192.488 70.6407 192.404 74.0025 192.861 77.1958C188.138 81.7426 183.621 86.4937 178.898 91.0405C178.371 89.3724 177.845 87.7037 177.319 86.0356L152.324 92.9563C154.722 100.431 155.786 108.973 160.05 115.535C163.388 120.672 169.18 124.079 175.23 124.465C181.28 124.851 187.739 122.251 191.264 117.245C197.601 108.249 210.486 90.1059 210.486 90.1059C210.486 90.1059 213.204 79.7419 222.319 75.0381C222.12 74.5958 221.388 69.3712 220.935 69.2131Z" fill="#9D6C5B"/>
<path d="M178.927 90.9727C178.122 91.8926 177.317 92.8125 176.512 93.7324" stroke="#060305" stroke-width="0.543355" stroke-miterlimit="10" stroke-linecap="round" stroke-linejoin="round"/>
<path d="M212.18 66.8477C214.12 70.1507 216.061 73.4538 218.001 76.7568" stroke="#060305" stroke-width="0.543355" stroke-miterlimit="10" stroke-linecap="round" stroke-linejoin="round"/>
<path d="M203.746 66.207C206.164 68.7918 207.018 72.7746 205.876 76.145" stroke="#060305" stroke-width="0.543355" stroke-miterlimit="10" stroke-linecap="round" stroke-linejoin="round"/>
<path d="M90.711 64.8281C78.7826 76.2788 68.9571 89.6719 56.2363 100.208C49.5174 105.773 42.9742 111.542 36.0616 116.857C28.5333 122.645 20.0039 127.561 10.9188 130.181C7.16531 131.263 3.75344 132.584 0 133.666C0.0803046 134.198 0.421332 134.683 0.890311 134.933C1.35983 135.184 2.15484 135.412 2.63185 135.177C5.01315 135.203 7.40462 135.234 9.80145 135.265C7.81203 136.688 5.82208 138.111 3.83267 139.535C3.91083 140.16 4.57629 140.503 5.19196 140.585C5.80763 140.668 6.42383 140.475 7.01434 140.279C11.2534 138.874 15.4185 137.243 19.4905 135.398C23.3413 135.452 27.1885 135.504 31.0067 135.546C28.264 138.737 25.5213 141.929 22.7787 145.119C21.823 146.231 21.3691 147.707 22.0527 149.008C26.9369 146.905 31.9993 144.921 36.8834 142.817C41.291 140.918 45.8074 138.937 48.3702 134.832C57.6223 129.277 65.2588 124.054 73.7437 118.519C84.3354 111.609 93.042 102.51 102.787 94.4181C104.219 88.175 105.353 82.0682 106.785 75.8251L90.711 64.8281Z" fill="#9D6C5B"/>
<path d="M9.24512 135.387C12.7293 135.458 16.2134 135.529 19.6981 135.6" stroke="#060305" stroke-width="0.543355" stroke-miterlimit="10" stroke-linecap="round" stroke-linejoin="round"/>
<path d="M30.4922 135.926C30.9537 135.293 31.4157 134.66 31.8777 134.027" stroke="#060305" stroke-width="0.543355" stroke-miterlimit="10" stroke-linecap="round" stroke-linejoin="round"/>
<path d="M163.624 66.2308C157.933 62.7262 152.196 59.4161 146.505 55.9114C145.431 56.9519 144.065 57.7072 142.596 57.9251C141.127 58.143 139.56 57.7952 138.389 56.8688C137.218 55.9424 136.419 54.1336 136.55 52.6328C130.543 52.8382 124.536 53.0436 118.529 53.249C112.285 53.1072 105.745 54.6563 100.136 57.4431C94.6703 60.1588 89.2604 63.1625 84.4004 66.8801C90.2439 72.0702 96.0681 77.2826 101.912 82.4728C99.6968 90.691 97.4226 98.9408 95.2083 107.159L152.022 119.165C154.526 111.663 156.974 104.25 159.478 96.7478C166.05 93.5616 172.83 90.409 179.402 87.2228C177.199 78.4802 171.226 70.9124 163.624 66.2308Z" fill="white"/>
<path d="M136.302 75.9727L138.644 85.3716L147.274 89.5255L139.191 94.6907L137.965 104.305L130.627 98.0986L121.239 99.8868L124.787 90.8856L120.211 82.3761L129.742 83.02L136.302 75.9727Z" fill="#7467F4"/>
<path d="M131.721 53.7422C132.353 57.4566 135.198 60.689 138.763 61.7447C142.328 62.7999 146.44 61.6268 148.941 58.8399" stroke="#060305" stroke-width="0.543355" stroke-miterlimit="10" stroke-linecap="round" stroke-linejoin="round"/>
<path d="M162.621 88.9961C161.586 91.7542 160.55 94.5117 159.514 97.2698" stroke="#060305" stroke-width="0.543355" stroke-miterlimit="10" stroke-linecap="round" stroke-linejoin="round"/>
<path d="M101.75 82.7314C102.49 79.624 103.23 76.5171 103.971 73.4102" stroke="#060305" stroke-width="0.543355" stroke-miterlimit="10" stroke-linecap="round" stroke-linejoin="round"/>
<path d="M161.588 92.1491C167.064 89.4171 172.539 86.6851 178.015 83.9531" stroke="#060305" stroke-width="0.543355" stroke-miterlimit="10" stroke-linecap="round" stroke-linejoin="round"/>
<path d="M87.3262 65.4336C92.4475 70.051 97.5688 74.669 102.69 79.2864" stroke="#060305" stroke-width="0.543355" stroke-miterlimit="10" stroke-linecap="round" stroke-linejoin="round"/>
<path d="M152.569 28.0346C147.029 27.1342 141.097 29.3435 137.445 33.6665C137.138 33.4909 136.841 33.3453 136.533 33.1704" stroke="black" stroke-width="0.543355" stroke-miterlimit="10" stroke-linecap="round" stroke-linejoin="round"/>
<path d="M153.295 44.4364C155.242 44.7592 157.336 43.811 158.4 42.125" stroke="black" stroke-width="0.543355" stroke-miterlimit="10" stroke-linecap="round" stroke-linejoin="round"/>
<path d="M157.896 38.9692C157.528 37.5168 156.295 36.285 154.826 36.1187C155.64 35.2684 156.08 34.0627 156.008 32.8792C155.936 31.6958 155.353 30.5542 154.442 29.8126C153.647 29.166 152.639 28.8307 151.627 28.7193C150.614 28.6079 149.591 28.7085 148.582 28.8573C146.696 29.1355 144.711 29.448 142.938 30.1598C141.277 30.827 139.593 31.5073 138.171 32.6043C136.715 33.7274 135.578 35.2727 134.93 37.0087C134.283 38.7448 134.127 40.6666 134.485 42.4869L152.618 44.4245C154.085 44.6065 155.639 44.1354 156.698 43.0894C157.758 42.0424 158.265 40.4216 157.896 38.9692Z" fill="black"/>
<path d="M146.66 56.6124C147.124 55.1622 147.646 53.8054 148.11 52.3552C149.462 52.1808 150.749 51.5293 151.701 50.5393C152.653 49.5493 153.455 48.2236 153.375 46.8429C153.244 44.5907 153.079 42.4221 152.948 40.1694C151.734 40.1808 150.52 39.8782 149.45 39.2979C148.806 38.9485 148.152 38.4633 147.848 37.7895C146.896 38.2823 145.845 38.6415 144.777 38.5926C143.709 38.5437 142.638 38.1356 142.084 37.207C141.143 38.729 140.067 40.2726 139.126 41.7946C138.898 41.1154 138.706 40.3971 138.479 39.7179C137.147 39.3864 135.653 39.8488 134.73 40.879C133.807 41.9087 133.495 43.4627 133.946 44.7771C134.398 46.0914 135.594 47.1118 136.948 47.3362C136.29 49.288 135.645 51.3136 134.987 53.2653C135.489 55.793 137.39 58.0148 139.832 58.7288C142.273 59.4417 145.876 59.0651 146.66 56.6124Z" fill="#9D6C5B"/>
<path d="M144.881 44.45C145.177 44.45 145.416 44.2067 145.416 43.9066C145.416 43.6065 145.177 43.3633 144.881 43.3633C144.585 43.3633 144.346 43.6065 144.346 43.9066C144.346 44.2067 144.585 44.45 144.881 44.45Z" fill="#060305"/>
<path d="M151.791 44.5984C152.087 44.5984 152.327 44.3552 152.327 44.0551C152.327 43.755 152.087 43.5117 151.791 43.5117C151.496 43.5117 151.256 43.755 151.256 44.0551C151.256 44.3552 151.496 44.5984 151.791 44.5984Z" fill="#060305"/>
<path d="M136.297 41.4102C136.726 41.9763 137.155 42.5425 137.583 43.1087" stroke="#060305" stroke-width="0.543355" stroke-miterlimit="10" stroke-linecap="round" stroke-linejoin="round"/>
<path d="M143.781 40.764C144.053 40.3314 144.519 40.0304 145.021 39.9636C145.522 39.8968 146.049 40.0657 146.421 40.4124" stroke="#060305" stroke-width="0.543355" stroke-miterlimit="10" stroke-linecap="round" stroke-linejoin="round"/>
<path d="M150.434 40.7584C150.976 40.7242 151.518 40.6905 152.061 40.6562" stroke="#060305" stroke-width="0.543355" stroke-miterlimit="10" stroke-linecap="round" stroke-linejoin="round"/>
<path d="M148.119 46.0743C148.381 46.1286 148.695 46.1867 148.958 46.2411C148.864 45.4081 148.771 44.5752 148.677 43.7422" stroke="#060305" stroke-width="0.543355" stroke-miterlimit="10" stroke-linecap="round" stroke-linejoin="round"/>
<path d="M145.59 46.3594C145.439 46.6859 145.572 47.1195 145.879 47.301C146.187 47.4819 146.624 47.3841 146.828 47.088" stroke="#060305" stroke-width="0.543355" stroke-miterlimit="10" stroke-linecap="round" stroke-linejoin="round"/>
<path d="M140.461 50.2148C142.611 52.1068 145.598 52.9794 148.41 52.5371" stroke="#060305" stroke-width="0.543355" stroke-miterlimit="10" stroke-linecap="round" stroke-linejoin="round"/>
<path d="M136.773 47.4044C137.201 47.3881 137.628 47.3718 138.056 47.3555" stroke="#060305" stroke-width="0.543355" stroke-miterlimit="10" stroke-linecap="round" stroke-linejoin="round"/>
<path d="M157.052 157.327H84.4266C82.8617 139.764 86.5953 121.737 95.0685 106.336L149.652 117.738L152.525 118.339C152.022 120.376 151.563 123.127 151.173 125.861C150.424 131.125 149.932 136.344 149.932 136.344C149.932 136.344 152.849 143.332 155.75 150.366L157.052 157.327Z" fill="#7467F4"/>
<path d="M92.5723 112.336C112.023 116.389 131.571 119.961 151.194 123.048" stroke="#060305" stroke-width="0.543355" stroke-miterlimit="10" stroke-linecap="round" stroke-linejoin="round"/>
<path d="M95.9721 113.379C90.2068 127.026 88.1788 142.278 90.1746 156.989" stroke="#060305" stroke-width="0.543355" stroke-miterlimit="10" stroke-linecap="round" stroke-linejoin="round"/>
<path d="M90.459 132.471C97.3213 129.094 102.515 122.414 104.158 114.855" stroke="#060305" stroke-width="0.543355" stroke-miterlimit="10" stroke-linecap="round" stroke-linejoin="round"/>
<path d="M145.959 122.469C147.219 127.023 148.478 131.576 149.738 136.13" stroke="#060305" stroke-width="0.543355" stroke-miterlimit="10" stroke-linecap="round" stroke-linejoin="round"/>
<path d="M122.743 118.371C122.474 121.707 122.205 125.043 121.936 128.38C122.729 128.519 123.654 128.63 124.447 128.768C125.399 125.631 126.369 122.586 127.321 119.449" stroke="#060305" stroke-width="0.543355" stroke-miterlimit="10" stroke-linecap="round" stroke-linejoin="round"/>
<path d="M122.609 141.203C123.231 146.367 123.853 151.532 124.475 156.696" stroke="#060305" stroke-width="0.543355" stroke-miterlimit="10" stroke-linecap="round" stroke-linejoin="round"/>
<path d="M99.3906 113.465C100.042 111.694 100.694 109.923 101.345 108.152" stroke="#060305" stroke-width="0.543355" stroke-miterlimit="10" stroke-linecap="round" stroke-linejoin="round"/>
<path d="M101.617 114.054C102.282 112.255 102.946 110.456 103.611 108.656" stroke="#060305" stroke-width="0.543355" stroke-miterlimit="10" stroke-linecap="round" stroke-linejoin="round"/>
<path d="M116.746 111.867C116.384 113.535 116.022 115.204 115.66 116.872" stroke="#060305" stroke-width="0.543355" stroke-miterlimit="10" stroke-linecap="round" stroke-linejoin="round"/>
<path d="M118.691 112.156C118.279 113.762 117.867 115.368 117.455 116.974" stroke="#060305" stroke-width="0.543355" stroke-miterlimit="10" stroke-linecap="round" stroke-linejoin="round"/>
<path d="M133.886 115.27C133.747 116.874 133.609 118.477 133.471 120.081" stroke="#060305" stroke-width="0.543355" stroke-miterlimit="10" stroke-linecap="round" stroke-linejoin="round"/>
<path d="M135.769 115.469C135.61 117.071 135.451 118.673 135.293 120.275" stroke="#060305" stroke-width="0.543355" stroke-miterlimit="10" stroke-linecap="round" stroke-linejoin="round"/>
<path d="M148.075 117.785C147.835 119.285 147.595 120.785 147.355 122.285" stroke="#060305" stroke-width="0.543355" stroke-miterlimit="10" stroke-linecap="round" stroke-linejoin="round"/>
<path d="M149.86 118.266C149.577 119.77 149.293 121.274 149.01 122.778" stroke="#060305" stroke-width="0.543355" stroke-miterlimit="10" stroke-linecap="round" stroke-linejoin="round"/>
<path d="M178.247 137.122C178.247 136.809 177.997 136.555 177.688 136.555C177.379 136.555 177.129 136.808 177.129 137.122C177.129 137.435 177.379 137.689 177.688 137.689C177.997 137.689 178.247 137.435 178.247 137.122Z" fill="white"/>
<path d="M181.584 54.1462C181.893 54.1462 182.143 53.8923 182.143 53.579C182.143 53.2657 181.893 53.0117 181.584 53.0117C181.276 53.0117 181.025 53.2657 181.025 53.579C181.025 53.8923 181.276 54.1462 181.584 54.1462Z" fill="white"/>
<path d="M43.9128 96.1883C43.9128 95.8748 43.6627 95.6211 43.3538 95.6211C43.0455 95.6211 42.7949 95.8748 42.7949 96.1883C42.7949 96.5019 43.0449 96.7556 43.3538 96.7556C43.6622 96.7556 43.9128 96.5019 43.9128 96.1883Z" fill="white"/>
<path d="M45.7096 16.3368C45.7096 16.0233 45.4596 15.7695 45.1507 15.7695C44.8418 15.7695 44.5918 16.0233 44.5918 16.3368C44.5918 16.6503 44.8418 16.9041 45.1507 16.9041C45.4596 16.9041 45.7096 16.6498 45.7096 16.3368Z" fill="white"/>
<path d="M118.073 1.15015C118.381 1.15015 118.632 0.896177 118.632 0.582887C118.632 0.269596 118.381 0.015625 118.073 0.015625C117.764 0.015625 117.514 0.269596 117.514 0.582887C117.514 0.896177 117.764 1.15015 118.073 1.15015Z" fill="white"/>
<path d="M169.368 48.7665C169.368 48.453 169.118 48.1992 168.809 48.1992C168.5 48.1992 168.25 48.453 168.25 48.7665C168.25 49.08 168.5 49.3337 168.809 49.3337C169.117 49.3337 169.368 49.08 169.368 48.7665Z" fill="#7467F4"/>
<path d="M24.6803 49.5438C24.6803 49.2303 24.4303 48.9766 24.1214 48.9766C23.8125 48.9766 23.5625 49.2303 23.5625 49.5438C23.5625 49.8573 23.8125 50.1111 24.1214 50.1111C24.4303 50.1111 24.6803 49.8573 24.6803 49.5438Z" fill="white"/>
<path d="M34.6898 89.8767C34.9985 89.8767 35.2487 89.6227 35.2487 89.3095C35.2487 88.9962 34.9985 88.7422 34.6898 88.7422C34.3811 88.7422 34.1309 88.9962 34.1309 89.3095C34.1309 89.6227 34.3811 89.8767 34.6898 89.8767Z" fill="white"/>
<path d="M204.307 148.516C204.307 148.203 204.057 147.949 203.748 147.949C203.439 147.949 203.189 148.203 203.189 148.516C203.189 148.83 203.439 149.084 203.748 149.084C204.057 149.084 204.307 148.83 204.307 148.516Z" fill="white"/>
<path d="M182.143 4.115C182.452 4.115 182.702 3.86102 182.702 3.54773C182.702 3.23444 182.452 2.98047 182.143 2.98047C181.834 2.98047 181.584 3.23444 181.584 3.54773C181.584 3.86102 181.834 4.115 182.143 4.115Z" fill="white"/>
<path d="M190.716 156.867H188.201V159.419H190.716V156.867Z" fill="#7467F4"/>
<path d="M40.0966 51.3555H37.582V53.9076H40.0966V51.3555Z" stroke="#060305" stroke-width="0.543355" stroke-miterlimit="10" stroke-linecap="round" stroke-linejoin="round"/>
<path d="M106.897 3.73828H104.383V6.29042H106.897V3.73828Z" fill="white"/>
<path d="M23.323 23.1406L21.3105 25.1825" stroke="#060305" stroke-width="0.543355" stroke-miterlimit="10" stroke-linecap="round" stroke-linejoin="round"/>
<path d="M203.946 119.848L201.934 121.89" stroke="#060305" stroke-width="0.543355" stroke-miterlimit="10" stroke-linecap="round" stroke-linejoin="round"/>
<path d="M154.967 11.3672L156.979 13.4091" stroke="#060305" stroke-width="0.543355" stroke-miterlimit="10" stroke-linecap="round" stroke-linejoin="round"/>
</svg>
