<svg width="20" height="21" viewBox="0 0 20 21" fill="none" xmlns="http://www.w3.org/2000/svg">
<path d="M9.99961 1.00781C9.3416 1.00781 8.79961 1.54981 8.79961 2.20781C8.79961 2.72508 9.13668 3.16587 9.59961 3.33281V5.00781C9.59886 5.06082 9.60865 5.11344 9.62842 5.16263C9.64818 5.21182 9.67753 5.25659 9.71474 5.29433C9.75196 5.33208 9.79631 5.36206 9.84521 5.38251C9.89412 5.40297 9.9466 5.41351 9.99961 5.41351C10.0526 5.41351 10.1051 5.40297 10.154 5.38251C10.2029 5.36206 10.2473 5.33208 10.2845 5.29433C10.3217 5.25659 10.351 5.21182 10.3708 5.16263C10.3906 5.11344 10.4004 5.06082 10.3996 5.00781V3.33281C10.8625 3.16587 11.1996 2.72508 11.1996 2.20781C11.1996 1.54981 10.6576 1.00781 9.99961 1.00781ZM9.99961 1.80781C10.2253 1.80781 10.3996 1.98216 10.3996 2.20781C10.3996 2.42534 10.2361 2.59118 10.0223 2.60312C10.0126 2.60252 10.003 2.60226 9.99336 2.60234C9.98763 2.60248 9.98189 2.60274 9.97617 2.60312C9.76275 2.59081 9.59961 2.42508 9.59961 2.20781C9.59961 1.98216 9.77396 1.80781 9.99961 1.80781ZM2.79961 4.60781C2.14161 4.60781 1.59961 5.14981 1.59961 5.80781C1.59961 6.46582 2.14161 7.00781 2.79961 7.00781C3.08453 7.00781 3.34434 6.90225 3.55117 6.73359L6.59414 8.55156C6.63928 8.57855 6.6893 8.59637 6.74133 8.60403C6.79336 8.61168 6.84639 8.60901 6.89739 8.59617C6.94839 8.58333 6.99636 8.56057 7.03856 8.52919C7.08077 8.49781 7.11638 8.45842 7.14336 8.41328C7.17034 8.36814 7.18817 8.31812 7.19582 8.26609C7.20348 8.21406 7.20081 8.16103 7.18796 8.11003C7.17512 8.05903 7.15237 8.01106 7.12099 7.96886C7.08961 7.92665 7.05022 7.89105 7.00508 7.86406L3.97383 6.05391C3.9907 5.97436 3.99961 5.89205 3.99961 5.80781C3.99961 5.14981 3.45761 4.60781 2.79961 4.60781ZM17.1996 4.60781C16.5416 4.60781 15.9996 5.14981 15.9996 5.80781C15.9996 5.89205 16.0085 5.97436 16.0254 6.05391L12.9941 7.86406C12.903 7.91856 12.8372 8.00703 12.8113 8.11003C12.7853 8.21303 12.8014 8.32211 12.8559 8.41328C12.9104 8.50445 12.9988 8.57024 13.1018 8.59617C13.2048 8.6221 13.3139 8.60606 13.4051 8.55156L16.448 6.73359C16.6549 6.90225 16.9147 7.00781 17.1996 7.00781C17.8576 7.00781 18.3996 6.46582 18.3996 5.80781C18.3996 5.14981 17.8576 4.60781 17.1996 4.60781ZM2.79961 5.40781C3.02526 5.40781 3.19961 5.58216 3.19961 5.80781C3.19961 6.03346 3.02526 6.20781 2.79961 6.20781C2.57396 6.20781 2.39961 6.03346 2.39961 5.80781C2.39961 5.58216 2.57396 5.40781 2.79961 5.40781ZM17.1996 5.40781C17.4253 5.40781 17.5996 5.58216 17.5996 5.80781C17.5996 6.03346 17.4253 6.20781 17.1996 6.20781C16.974 6.20781 16.7996 6.03346 16.7996 5.80781C16.7996 5.58216 16.974 5.40781 17.1996 5.40781ZM10.2902 6.20781C8.39943 6.20781 7.87064 7.39559 8.30664 8.88359C8.24704 8.92239 8.14825 9.04526 8.17305 9.26406C8.21905 9.67126 8.37579 9.77441 8.47539 9.78281C8.47539 10.2388 9.07281 10.6972 9.19961 10.768V11.543C8.91161 12.3662 6.79961 12.208 6.79961 13.5648C6.79961 13.692 6.86928 13.8078 6.99648 13.8078H13.0027C13.1299 13.8078 13.1996 13.692 13.1996 13.5648C13.1996 12.208 11.0876 12.3658 10.7996 11.543V10.768C10.926 10.6976 11.516 10.2199 11.516 9.78906C11.6156 9.78066 11.7724 9.67711 11.8184 9.27031C11.8432 9.05191 11.7656 8.91384 11.6848 8.88984C12.0008 7.88904 11.7712 6.60781 10.3996 6.60781L10.2902 6.20781ZM5.60664 12.4938C5.53035 12.4933 5.45553 12.5148 5.39102 12.5555L3.54883 13.6805C3.34233 13.5129 3.08353 13.4078 2.79961 13.4078C2.14161 13.4078 1.59961 13.9498 1.59961 14.6078C1.59961 15.2658 2.14161 15.8078 2.79961 15.8078C3.45761 15.8078 3.99961 15.2658 3.99961 14.6078C3.99961 14.5227 3.99026 14.4397 3.97305 14.3594L5.80742 13.2383C5.88278 13.1938 5.94148 13.1258 5.97451 13.0448C6.00755 12.9637 6.0131 12.8741 5.99031 12.7896C5.96753 12.7051 5.91766 12.6304 5.84836 12.577C5.77906 12.5236 5.69415 12.4943 5.60664 12.4938ZM14.3801 12.4945C14.2938 12.4978 14.2109 12.5289 14.1437 12.5832C14.0766 12.6375 14.0288 12.712 14.0075 12.7957C13.9862 12.8794 13.9926 12.9677 14.0257 13.0475C14.0588 13.1273 14.1168 13.1942 14.191 13.2383L16.0262 14.3594C16.009 14.4397 15.9996 14.5227 15.9996 14.6078C15.9996 15.2658 16.5416 15.8078 17.1996 15.8078C17.8576 15.8078 18.3996 15.2658 18.3996 14.6078C18.3996 13.9498 17.8576 13.4078 17.1996 13.4078C16.9157 13.4078 16.6569 13.5129 16.4504 13.6805L14.6082 12.5555C14.54 12.5127 14.4605 12.4914 14.3801 12.4945ZM2.79961 14.2078C3.02526 14.2078 3.19961 14.3822 3.19961 14.6078C3.19961 14.8335 3.02526 15.0078 2.79961 15.0078C2.57396 15.0078 2.39961 14.8335 2.39961 14.6078C2.39961 14.3822 2.57396 14.2078 2.79961 14.2078ZM17.1996 14.2078C17.4253 14.2078 17.5996 14.3822 17.5996 14.6078C17.5996 14.8335 17.4253 15.0078 17.1996 15.0078C16.974 15.0078 16.7996 14.8335 16.7996 14.6078C16.7996 14.3822 16.974 14.2078 17.1996 14.2078ZM9.99336 14.6023C9.88741 14.604 9.78644 14.6476 9.71262 14.7236C9.6388 14.7997 9.59816 14.9019 9.59961 15.0078V17.0828C9.13668 17.2498 8.79961 17.6905 8.79961 18.2078C8.79961 18.8658 9.3416 19.4078 9.99961 19.4078C10.6576 19.4078 11.1996 18.8658 11.1996 18.2078C11.1996 17.6905 10.8625 17.2498 10.3996 17.0828V15.0078C10.4003 14.9543 10.3903 14.9012 10.3702 14.8516C10.35 14.802 10.3201 14.757 10.2822 14.7192C10.2443 14.6814 10.1992 14.6516 10.1496 14.6315C10.1 14.6114 10.0469 14.6015 9.99336 14.6023ZM9.97695 17.8125C9.9923 17.8134 10.0077 17.8134 10.023 17.8125C10.2365 17.8248 10.3996 17.9905 10.3996 18.2078C10.3996 18.4335 10.2253 18.6078 9.99961 18.6078C9.77396 18.6078 9.59961 18.4335 9.59961 18.2078C9.59961 17.9903 9.76313 17.8244 9.97695 17.8125Z" fill="#B9BCC9"/>
</svg>
