<svg width="13" height="15" viewBox="0 0 13 15" fill="none" xmlns="http://www.w3.org/2000/svg">
<path d="M5.83464 5.83333C7.30739 5.83333 8.5013 4.63943 8.5013 3.16667C8.5013 1.69391 7.30739 0.5 5.83464 0.5C4.36188 0.5 3.16797 1.69391 3.16797 3.16667C3.16797 4.63943 4.36188 5.83333 5.83464 5.83333Z" stroke="#FF3B30"/>
<path opacity="0.5" d="M7.83333 8.05201C7.17682 7.90538 6.50602 7.83226 5.83333 7.83402C2.888 7.83402 0.5 9.17735 0.5 10.834C0.5 12.4907 0.5 13.834 5.83333 13.834C9.62467 13.834 10.7207 13.1553 11.038 12.1673" stroke="#FF3B30"/>
<path d="M9.83464 12.5013C11.3074 12.5013 12.5013 11.3074 12.5013 9.83464C12.5013 8.36188 11.3074 7.16797 9.83464 7.16797C8.36188 7.16797 7.16797 8.36188 7.16797 9.83464C7.16797 11.3074 8.36188 12.5013 9.83464 12.5013Z" stroke="#FF3B30"/>
<path d="M8.94531 8.94531L10.7226 10.7226M10.7226 8.94531L8.94531 10.7226" stroke="#FF3B30" stroke-linecap="round" stroke-linejoin="round"/>
</svg>
