<svg width="17" height="18" viewBox="0 0 17 18" fill="none" xmlns="http://www.w3.org/2000/svg">
<path fill-rule="evenodd" clip-rule="evenodd" d="M3.2436 11.7073C3.45135 12.118 3.28685 12.6194 2.87617 12.8271C1.88883 13.3266 1.66667 13.7873 1.66667 14.0134C1.66667 14.1415 1.72661 14.3428 2.00226 14.6096C2.28038 14.8788 2.72645 15.1596 3.34573 15.4131C4.58023 15.9184 6.34318 16.2502 8.33333 16.2502C10.3235 16.2502 12.0864 15.9184 13.3209 15.4131C13.9402 15.1596 14.3863 14.8788 14.6644 14.6096C14.9401 14.3428 15 14.1415 15 14.0134C15 13.7873 14.7778 13.3266 13.7905 12.8271C13.3798 12.6194 13.2153 12.118 13.4231 11.7073C13.6308 11.2967 14.1322 11.1322 14.5428 11.3399C15.6402 11.895 16.6667 12.7772 16.6667 14.0134C16.6667 14.733 16.3069 15.3394 15.8235 15.8072C15.3426 16.2727 14.6903 16.6534 13.9523 16.9555C12.4724 17.5613 10.4853 17.9168 8.33333 17.9168C6.18135 17.9168 4.1943 17.5613 2.71433 16.9555C1.97638 16.6534 1.3241 16.2727 0.84318 15.8072C0.359786 15.3394 0 14.733 0 14.0134C0 12.7772 1.0265 11.895 2.12383 11.3399C2.53451 11.1322 3.03585 11.2967 3.2436 11.7073Z" fill="#3A8DEC"/>
<path d="M8.33301 0C10.5191 1.2081e-07 12.291 1.77188 12.291 3.95801C12.291 5.78791 11.0493 7.32657 9.36255 7.77973C9.2487 7.81032 9.16602 7.91137 9.16602 8.02926L9.16602 13.75C9.16584 14.2101 8.79314 14.583 8.33301 14.583C7.87288 14.583 7.50018 14.2101 7.5 13.75L7.5 8.02926C7.5 7.91137 7.41732 7.81032 7.30347 7.77973C5.61667 7.32657 4.375 5.78791 4.375 3.95801C4.375 1.77188 6.14688 0 8.33301 0Z" fill="#3A8DEC"/>
</svg>
