<svg width="18" height="18" viewBox="0 0 18 18" fill="none" xmlns="http://www.w3.org/2000/svg">
<path d="M7.5 12.5097C7.5 9.71731 9.85853 7.5 12.7083 7.5C15.5581 7.5 17.9167 9.71731 17.9167 12.5097C17.9167 13.8476 17.3711 15.0594 16.4908 15.9533C16.4547 15.9899 16.4351 16.0233 16.4267 16.0443C16.4246 16.0498 16.4234 16.0536 16.4229 16.0559C16.4801 16.3505 16.6074 16.6229 16.7907 16.8483C16.9298 17.0194 16.9684 17.2512 16.8924 17.4582C16.8163 17.6652 16.6368 17.8168 16.42 17.8571C15.6178 18.0063 14.7876 17.8718 14.0763 17.4935C13.9884 17.4467 13.9303 17.416 13.8874 17.3945C13.8471 17.4011 13.7924 17.4113 13.7104 17.4267C13.38 17.4888 13.0445 17.5199 12.7079 17.5195C9.85831 17.5193 7.5 15.302 7.5 12.5097Z" fill="#4DBA81"/>
<path d="M8.125 0C3.66454 0 0 3.46669 0 7.80004C0 9.87822 0.846977 11.7628 2.21883 13.1559C2.41104 13.351 2.463 13.5404 2.43925 13.6673C2.33446 14.2169 2.09758 14.7271 1.75338 15.1505C1.61427 15.3216 1.57563 15.5533 1.65168 15.7603C1.72774 15.9673 1.90725 16.1189 2.12404 16.1592C3.34654 16.3866 4.61367 16.1817 5.6997 15.6041C5.8385 15.5303 5.93813 15.4774 6.01542 15.4387C6.06538 15.4137 6.09036 15.4012 6.11014 15.3951C6.12992 15.389 6.13168 15.3888 6.13168 15.3888C6.14751 15.3867 6.16599 15.3864 6.18673 15.3896C6.26893 15.4009 6.38017 15.4216 6.5587 15.4551C6.75906 15.4927 6.90657 15.2771 6.82026 15.0924C6.45493 14.3106 6.25 13.4382 6.25 12.5097C6.25 8.97346 9.22291 6.25 12.7083 6.25C13.6453 6.25 14.5451 6.4468 15.3602 6.80327C15.7757 6.985 15.9835 7.07587 16.1016 6.98032C16.2198 6.88478 16.1791 6.68569 16.0978 6.28752C15.3625 2.68737 12.0522 0 8.125 0Z" fill="#4DBA81"/>
</svg>
