<svg width="60" height="60" viewBox="0 0 60 60" fill="none" xmlns="http://www.w3.org/2000/svg">
<rect width="60" height="60" rx="30" fill="#8478F5" fill-opacity="0.25"/>
<rect x="8" y="8" width="44" height="44" rx="22" fill="#7567F5"/>
<path d="M30.0005 21.84C26.8336 21.84 25.6767 22.2543 25.4555 22.35C24.7111 22.6031 23.6086 22.9818 23.1305 23.91C22.8061 24.5418 20.6723 30.225 20.4305 30.87L20.4005 30.96V36.72C20.4005 37.5131 21.0473 38.16 21.8405 38.16H23.7605C24.5536 38.16 25.2005 37.5131 25.2005 36.72V36.24H34.8005V36.72C34.8005 37.5131 35.4473 38.16 36.2405 38.16H38.1605C38.9536 38.16 39.6005 37.5131 39.6005 36.72V30.96L39.5705 30.87C39.5198 30.735 38.8373 28.9518 38.1605 27.21C38.153 27.195 38.1511 27.18 38.1455 27.165C37.583 25.7175 37.0317 24.3131 36.8555 23.91C36.4523 22.9968 35.3423 22.5825 34.5305 22.35C34.2811 22.2468 33.1111 21.84 30.0005 21.84ZM30.0005 22.8C33.1448 22.8 34.1517 23.2331 34.1555 23.235L34.2305 23.265C34.5923 23.3681 35.6986 23.6812 35.9705 24.3C36.1317 24.6656 36.6286 25.9425 37.1555 27.3L37.2005 27.39C37.208 27.4087 37.2061 27.4275 37.2155 27.45C37.2286 27.4837 37.2473 27.5212 37.2605 27.555C37.3786 27.8643 37.508 28.3256 37.3205 28.605C37.1273 28.89 36.578 29.04 35.7605 29.04H24.2405C23.423 29.04 22.8417 28.8468 22.6505 28.56C22.4255 28.2262 22.6692 27.63 22.7855 27.345L22.8305 27.255C23.3873 25.8018 23.8655 24.5925 23.9855 24.36C24.2911 23.7675 25.1873 23.4525 25.7855 23.25L25.8305 23.235C25.8398 23.2312 26.8561 22.8 30.0005 22.8ZM20.4455 27.12C18.9942 27.12 18.4805 28.0125 18.4805 28.845C18.4805 29.25 18.6623 29.9025 19.7405 29.985C20.0423 29.1843 20.4305 28.1418 20.8205 27.12H20.4455ZM39.1505 27.12C39.5855 28.2431 40.0148 29.3475 40.2605 29.985C41.3423 29.9043 41.5205 29.2518 41.5205 28.845C41.5205 28.0125 41.0067 27.12 39.5555 27.12H39.1505ZM23.2805 30.96H25.2005C25.9955 30.96 26.6405 31.605 26.6405 32.4C26.6405 33.195 25.9955 33.84 25.2005 33.84C24.3961 33.84 24.158 33.6356 23.3255 33.165C22.7686 32.85 22.3205 32.5481 22.3205 31.92C22.3205 31.3893 22.7498 30.96 23.2805 30.96ZM34.8005 30.96H36.7205C37.2511 30.96 37.6805 31.3893 37.6805 31.92C37.6805 32.5481 37.2323 32.85 36.6755 33.165C35.8448 33.6356 35.6048 33.84 34.8005 33.84C34.0055 33.84 33.3605 33.195 33.3605 32.4C33.3605 31.605 34.0055 30.96 34.8005 30.96Z" fill="white"/>
</svg>
