<svg width="19" height="17" viewBox="0 0 19 17" fill="none" xmlns="http://www.w3.org/2000/svg">
<path d="M3.31724 10.9983C2.30201 11.6126 -0.359854 12.8668 1.2614 14.4363C2.05337 15.203 2.93542 15.7513 4.04437 15.7513H10.3723C11.4812 15.7513 12.3633 15.203 13.1553 14.4363C14.7765 12.8668 12.1147 11.6126 11.0994 10.9983C8.71873 9.55786 5.69793 9.55786 3.31724 10.9983Z" stroke="#7567F5" stroke-width="1.5" stroke-linecap="round" stroke-linejoin="round"/>
<path d="M10.3346 4.08333C10.3346 5.92428 8.84225 7.41667 7.0013 7.41667C5.16035 7.41667 3.66797 5.92428 3.66797 4.08333C3.66797 2.24238 5.16035 0.75 7.0013 0.75C8.84225 0.75 10.3346 2.24238 10.3346 4.08333Z" stroke="#7567F5" stroke-width="1.5"/>
<path d="M13.25 2.41797L17.4167 2.41797" stroke="#7567F5" stroke-width="1.5" stroke-linecap="round" stroke-linejoin="round"/>
<path d="M13.25 4.91797L17.4167 4.91797" stroke="#7567F5" stroke-width="1.5" stroke-linecap="round" stroke-linejoin="round"/>
<path d="M15.75 7.41797L17.4167 7.41797" stroke="#7567F5" stroke-width="1.5" stroke-linecap="round" stroke-linejoin="round"/>
</svg>
