<svg width="16" height="16" viewBox="0 0 16 16" fill="none" xmlns="http://www.w3.org/2000/svg">
<path d="M11.8709 9.89405C11.9484 9.94022 12.0442 9.99426 12.1526 10.0554C12.6279 10.3235 13.3462 10.7288 13.8383 11.2105C14.1461 11.5118 14.4385 11.9087 14.4917 12.3951C14.5482 12.9123 14.3226 13.3977 13.8699 13.829C13.0889 14.573 12.1517 15.1693 10.9395 15.1693H5.0607C3.84849 15.1693 2.9113 14.573 2.13034 13.829C1.67766 13.3977 1.45201 12.9123 1.50855 12.3951C1.56172 11.9087 1.85415 11.5118 2.16193 11.2105C2.65404 10.7288 3.37238 10.3235 3.84759 10.0554C3.95603 9.99427 4.05182 9.94022 4.12936 9.89405C6.49873 8.48323 9.50151 8.48323 11.8709 9.89405Z" fill="white"/>
<path d="M4.50012 4.33594C4.50012 2.40294 6.06712 0.835938 8.00012 0.835938C9.93311 0.835938 11.5001 2.40294 11.5001 4.33594C11.5001 6.26893 9.93311 7.83594 8.00012 7.83594C6.06712 7.83594 4.50012 6.26893 4.50012 4.33594Z" fill="white"/>
</svg>
