<svg width="34" height="33" viewBox="0 0 34 33" fill="none" xmlns="http://www.w3.org/2000/svg">
<rect x="0.734375" y="0.525391" width="32.4757" height="32.4757" rx="16.2379" fill="#0A215E"/>
<path fill-rule="evenodd" clip-rule="evenodd" d="M16.9729 7.94727C12.6033 7.94727 9.08594 11.7649 9.08594 16.4414C9.08594 18.763 9.95182 21.2501 11.3371 23.1614C12.7193 25.0682 14.6998 26.5048 16.9729 26.5048C19.2459 26.5048 21.2265 25.0682 22.6087 23.1614C23.994 21.2501 24.8599 18.763 24.8599 16.4414C24.8599 11.7649 21.3425 7.94727 16.9729 7.94727ZM14.1787 15.7985C14.1787 14.1692 15.4297 12.8484 16.9729 12.8484C18.5161 12.8484 19.7671 14.1692 19.7671 15.7985C19.7671 17.4279 18.5161 18.7487 16.9729 18.7487C15.4297 18.7487 14.1787 17.4279 14.1787 15.7985ZM16.9729 13.9904C16.0271 13.9904 15.2603 14.7999 15.2603 15.7985C15.2603 16.7972 16.0271 17.6067 16.9729 17.6067C17.9187 17.6067 18.6855 16.7972 18.6855 15.7985C18.6855 14.7999 17.9187 13.9904 16.9729 13.9904Z" fill="white"/>
</svg>
