<svg width="29" height="29" viewBox="0 0 29 29" fill="none" xmlns="http://www.w3.org/2000/svg">
<path fill-rule="evenodd" clip-rule="evenodd" d="M4.96456 8.02377C5.6711 7.88824 6.35469 8.34613 6.49142 9.04649C6.62814 9.74686 6.16622 10.4245 5.45968 10.56C4.59961 10.725 4.0798 10.9744 3.69538 11.3131C3.23975 11.7147 2.94665 12.2643 2.78224 13.342C2.60955 14.4739 2.60606 15.9826 2.60606 18.1888C2.60606 20.3949 2.60955 21.9036 2.78224 23.0355C2.94665 24.1132 3.23975 24.6629 3.69538 25.0644C4.173 25.4853 4.86218 25.7702 6.1628 25.9243C7.48672 26.0812 9.23742 26.0834 11.7273 26.0834H16.9394C19.4293 26.0834 21.1799 26.0812 22.5039 25.9243C23.8045 25.7702 24.4937 25.4853 24.9713 25.0644C25.4269 24.6629 25.72 24.1132 25.8844 23.0355C26.0571 21.9036 26.0606 20.3949 26.0606 18.1888C26.0606 15.9826 26.0571 14.4739 25.8844 13.342C25.72 12.2643 25.4269 11.7147 24.9713 11.3131C24.5869 10.9744 24.0671 10.725 23.207 10.56C22.5004 10.4245 22.0385 9.74686 22.1752 9.04649C22.312 8.34613 22.9956 7.88824 23.7021 8.02377C24.8604 8.24596 25.8634 8.64277 26.7028 9.38247C27.7738 10.3263 28.244 11.5318 28.4612 12.9557C28.6668 14.3032 28.6667 16.0083 28.6667 18.0859V18.2915C28.6667 20.3692 28.6668 22.0743 28.4612 23.4218C28.244 24.8457 27.7738 26.0513 26.7028 26.9951C25.6538 27.9195 24.3512 28.3071 22.8131 28.4894C21.3164 28.6667 19.4094 28.6667 17.0255 28.6667H11.6412C9.25725 28.6667 7.3503 28.6667 5.85352 28.4894C4.31548 28.3071 3.01285 27.9194 1.96388 26.9951C0.892908 26.0513 0.422711 24.8457 0.205478 23.4218C-9.91609e-05 22.0743 -5.36406e-05 20.3693 1.81338e-06 18.2916V18.0859C-5.33299e-05 16.0083 -9.83842e-05 14.3032 0.205479 12.9557C0.422712 11.5318 0.892908 10.3263 1.96388 9.38247C2.80327 8.64277 3.80624 8.24596 4.96456 8.02377Z" fill="white"/>
<path fill-rule="evenodd" clip-rule="evenodd" d="M5 18.3333C5 17.597 5.59695 17 6.33333 17L7.66667 17C8.40305 17 9 17.597 9 18.3333C9 19.0697 8.40305 19.6667 7.66667 19.6667H6.33333C5.59695 19.6667 5 19.0697 5 18.3333ZM12.3333 18.3333C12.3333 17.597 12.9303 17 13.6667 17L15 17C15.7364 17 16.3333 17.597 16.3333 18.3333C16.3333 19.0697 15.7364 19.6667 15 19.6667H13.6667C12.9303 19.6667 12.3333 19.0697 12.3333 18.3333ZM19.6667 18.3333C19.6667 17.597 20.2636 17 21 17L22.3333 17C23.0697 17 23.6667 17.597 23.6667 18.3333C23.6667 19.0697 23.0697 19.6667 22.3333 19.6667H21C20.2636 19.6667 19.6667 19.0697 19.6667 18.3333Z" fill="white"/>
<path d="M14.3213 0C17.8285 0 20.6552 2.86873 20.6553 6.38672C20.6553 8.41183 19.8359 9.99605 18.3184 11.3408C17.4709 12.0918 16.423 13.4168 15.7305 14.4766C15.4656 14.8818 14.9946 15.333 14.3125 15.333C13.6193 15.3329 13.1518 14.8689 12.8965 14.4502C12.2604 13.4069 11.1845 12.1023 10.3252 11.3408C8.80765 9.99603 7.98828 8.41186 7.98828 6.38672C7.98831 2.86884 10.8142 0.000177773 14.3213 0ZM14.3115 4C13.0286 4 11.9883 5.04434 11.9883 6.33301C11.9883 7.62167 13.0286 8.66602 14.3115 8.66602H14.332C15.6149 8.66602 16.6553 7.62167 16.6553 6.33301C16.6553 5.04434 15.6149 4 14.332 4H14.3115Z" fill="white"/>
</svg>
