<svg width="275" height="223" viewBox="0 0 275 223" fill="none" xmlns="http://www.w3.org/2000/svg">
<path d="M137.25 274.5C213.051 274.5 274.5 213.051 274.5 137.25C274.5 61.4489 213.051 0 137.25 0C61.4489 0 0 61.4489 0 137.25C0 213.051 61.4489 274.5 137.25 274.5Z" fill="#7567F5" fill-opacity="0.1"/>
<path d="M171.656 66.66H167.885C167.547 64.8217 167.066 63.0342 166.454 61.3081L169.717 59.4238L163.336 48.3712L160.065 50.2597C158.865 48.8545 157.555 47.5453 156.15 46.345L158.039 43.074L146.986 36.6928L145.102 39.9564C143.376 39.3442 141.588 38.8626 139.75 38.5249V34.7539H126.988V38.5249C125.15 38.8626 123.362 39.3442 121.636 39.9564L119.752 36.6928L108.699 43.074L110.588 46.345C109.182 47.5453 107.873 48.8545 106.673 50.2597L103.402 48.3712L97.0209 59.4238L100.284 61.3081C99.6723 63.0342 99.1907 64.8217 98.853 66.66H95.082V79.4224H98.8532C99.1908 81.2607 99.6725 83.0482 100.285 84.7743L97.0211 86.6586L103.402 97.711L106.673 95.8225C107.874 97.2277 109.183 98.5369 110.588 99.7372L108.699 103.008L119.752 109.389L121.636 106.126C123.362 106.738 125.15 107.22 126.988 107.557V111.328H139.75V107.557C141.588 107.22 143.376 106.738 145.102 106.126L146.986 109.389L158.039 103.008L156.15 99.7372C157.556 98.5369 158.865 97.2277 160.065 95.8225L163.336 97.711L169.717 86.6586L166.454 84.7743C167.066 83.0484 167.547 81.2607 167.885 79.4224H171.656L171.656 66.66ZM152.915 81.1927C150.932 86.436 146.763 90.6052 141.52 92.5872C123.704 99.3217 107.088 82.7052 113.823 64.8897C115.805 59.6463 119.975 55.477 125.218 53.4949C143.034 46.7605 159.65 63.3772 152.915 81.1927Z" fill="white"/>
<path d="M133.37 101.291C117.793 101.291 105.121 88.6188 105.121 73.0425C105.121 66.2368 107.576 59.6621 112.032 54.5298C116.445 49.4489 122.52 46.1028 129.14 45.1088C129.318 45.0836 129.488 45.206 129.516 45.3869C129.543 45.5675 129.418 45.7361 129.238 45.7631C115.866 47.771 105.782 59.4987 105.782 73.0425C105.782 88.2541 118.158 100.629 133.369 100.629C145.938 100.629 156.919 92.1439 160.073 79.9945C160.119 79.8178 160.299 79.7109 160.476 79.7576C160.653 79.8035 160.759 79.9839 160.713 80.1606C157.484 92.6017 146.239 101.291 133.37 101.291Z" fill="#F2E6DC"/>
<path d="M245.547 239.861H57.8464C57.6637 239.861 57.5156 239.713 57.5156 239.53V97.2604C57.5156 97.0776 57.6637 96.9297 57.8464 96.9297H245.547C245.73 96.9297 245.878 97.0776 245.878 97.2604V239.53C245.878 239.713 245.73 239.861 245.547 239.861ZM58.177 239.199H245.217V97.5912H58.177V239.199Z" fill="#D3BBA3"/>
<path d="M53.5608 236.961L241.262 236.961L241.262 94.6915L53.5608 94.6915L53.5608 236.961Z" fill="#E6D0BE"/>
<path d="M235.373 219.661L235.373 100.578L59.4499 100.578L59.4499 219.661L235.373 219.661Z" fill="#F7F1EB"/>
<path d="M88.262 113.336L172.727 113.336V109.397L88.262 109.397V113.336Z" fill="#E6D0BE"/>
<path d="M77.9749 121.434L162.439 121.434V117.494L77.9749 117.494V121.434Z" fill="white"/>
<path d="M103.52 130.113H187.984V126.174L103.52 126.174V130.113Z" fill="white"/>
<path d="M73.4528 138.211H177.699V134.272H73.4528V138.211Z" fill="white"/>
<path d="M113.806 146.273H223.439V142.334H113.806V146.273Z" fill="#E6D0BE"/>
<path d="M70.8255 154.371L187.984 154.371V150.432H70.8255V154.371Z" fill="white"/>
<path d="M95.0266 163.172L227.307 163.172V159.232L95.0266 159.232V163.172Z" fill="#E6D0BE"/>
<path d="M73.7972 170.766H158.262V166.826H73.7972V170.766Z" fill="white"/>
<path d="M70.2894 179.949H154.754V176.01H70.2894V179.949Z" fill="white"/>
<path d="M80.2185 188.047H184.465V184.107H80.2185V188.047Z" fill="white"/>
<path d="M120.572 196.105H230.205V192.166H120.572V196.105Z" fill="#E6D0BE"/>
<path d="M77.5912 204.207L194.75 204.207V200.268H77.5912V204.207Z" fill="white"/>
<path d="M184.577 202.056L169.835 208.459L159.332 203.844C137.547 194.271 123.48 172.726 123.48 148.93L124.019 101.735L170.247 89.6641L217.268 102.274L216.729 153.035C216.729 174.32 204.099 193.576 184.577 202.056Z" fill="#7567F5"/>
<path d="M182.457 195.237L169.761 200.893L160.715 196.816C141.952 188.361 129.838 169.331 129.838 148.313L130.302 106.628L170.087 96.4141L210.612 107.104L210.148 151.939C210.148 170.739 199.27 187.747 182.457 195.237Z" fill="white"/>
<path d="M170.087 96.4141L169.504 96.5636V200.777L169.76 200.893L182.456 195.237C199.27 187.747 210.148 170.739 210.148 151.939L210.612 107.104L170.087 96.4141Z" fill="#F7F1EB"/>
<path d="M169.905 211.2C169.86 211.2 169.814 211.19 169.772 211.172L158.875 206.383C136.161 196.402 121.484 173.922 121.484 149.112L122.044 100.147C122.045 99.9979 122.146 99.8685 122.291 99.8307L170.248 87.3075C170.303 87.2932 170.361 87.2932 170.417 87.3081L219.198 100.391C219.344 100.43 219.445 100.563 219.443 100.714L218.884 153.374C218.884 175.594 205.713 195.675 185.329 204.529L170.037 211.172C169.995 211.191 169.95 211.2 169.905 211.2ZM122.702 100.407L122.146 149.115C122.146 173.659 136.667 195.902 159.141 205.778L169.905 210.508L185.066 203.923C205.208 195.173 218.223 175.33 218.223 153.37L218.779 100.963L170.33 87.9696L122.702 100.407Z" fill="#363E44"/>
<path d="M147.455 135.07V151.647C147.455 163.392 156.976 172.913 168.721 172.913C180.466 172.913 189.987 163.392 189.987 151.647V135.07H147.455ZM170.419 152.787V161.759H167.023V152.787C165.169 152.097 163.846 150.317 163.846 148.222C163.846 145.53 166.029 143.347 168.721 143.347C171.413 143.347 173.596 145.53 173.596 148.222C173.596 150.317 172.273 152.097 170.419 152.787Z" fill="#0A215E"/>
<path d="M170.288 172.07C158.38 172.07 148.691 162.382 148.691 150.474V133.897C148.691 133.714 148.839 133.566 149.022 133.566H191.554C191.737 133.566 191.885 133.714 191.885 133.897V150.474C191.885 162.382 182.197 172.07 170.288 172.07ZM149.353 134.228V150.474C149.353 162.017 158.745 171.409 170.288 171.409C181.832 171.409 191.224 162.017 191.224 150.474V134.228H149.353ZM171.986 160.916H168.591C168.408 160.916 168.26 160.768 168.26 160.586V151.838C166.35 151.029 165.083 149.133 165.083 147.049C165.083 144.179 167.418 141.844 170.288 141.844C173.159 141.844 175.494 144.179 175.494 147.049C175.494 149.133 174.226 151.029 172.316 151.838V160.586C172.316 160.768 172.169 160.916 171.986 160.916ZM168.921 160.255H171.655V151.614C171.655 151.476 171.741 151.352 171.87 151.304C173.642 150.645 174.833 148.936 174.833 147.049C174.833 144.544 172.794 142.505 170.288 142.505C167.783 142.505 165.744 144.544 165.744 147.049C165.744 148.936 166.934 150.645 168.706 151.304C168.835 151.352 168.921 151.476 168.921 151.614L168.921 160.255Z" fill="#363E44"/>
<path d="M188.428 130.554C188.245 130.554 188.097 130.406 188.097 130.223C188.097 119.971 179.756 111.63 169.504 111.63C159.252 111.63 150.912 119.971 150.912 130.223C150.912 130.406 150.764 130.554 150.581 130.554C150.398 130.554 150.25 130.406 150.25 130.223C150.25 119.606 158.888 110.969 169.504 110.969C180.121 110.969 188.759 119.606 188.759 130.223C188.758 130.406 188.611 130.554 188.428 130.554Z" fill="#363E44"/>
<path d="M237.59 68.5H174.576V96.127H237.59V68.5Z" fill="#7567F5"/>
<path d="M228.187 121.723C228.178 122.336 228.037 144.181 228.037 144.181L240.279 143.602L247.143 121.723H228.187Z" fill="#84524D"/>
<path d="M227.104 142.123L241.368 141.938L249.288 167.591C249.288 167.591 227.507 174.641 227.459 174.181C227.41 173.721 227.104 142.123 227.104 142.123Z" fill="white"/>
<path d="M237.3 149.662H231.534C231.351 149.662 231.203 149.514 231.203 149.331C231.203 149.148 231.351 149 231.534 149H237.3C237.482 149 237.63 149.148 237.63 149.331C237.63 149.514 237.482 149.662 237.3 149.662Z" fill="#363E44"/>
<path d="M237.237 153.259H231.534C231.351 153.259 231.203 153.111 231.203 152.928C231.203 152.746 231.351 152.598 231.534 152.598H237.237C237.419 152.598 237.567 152.746 237.567 152.928C237.567 153.111 237.419 153.259 237.237 153.259Z" fill="#363E44"/>
<path d="M225.732 125.457H248.18L254.595 92.8769C256.2 84.7274 250.257 77.0307 241.966 76.5221L229.703 75.7695L225.732 125.457Z" fill="#7567F5"/>
<path d="M158.143 82.589L173.55 97.4606L186.61 87.704L174.029 70.3594L158.143 82.589Z" fill="#84524D"/>
<path d="M170.736 95.2396L178.593 113.116L200.386 98.8652L185.122 84.6875L170.736 95.2396Z" fill="white"/>
<path d="M158.142 85.9289L177.323 72.1797L165.82 54.4506C161.195 47.3228 151.41 45.7811 144.817 51.1415C138.114 56.5923 137.744 66.699 144.03 72.6255L158.142 85.9289Z" fill="#7567F5"/>
<path d="M177.792 96.5416C177.683 96.5416 177.575 96.4873 177.512 96.3882C177.415 96.2338 177.46 96.0294 177.614 95.9316L184.086 91.825C184.24 91.7271 184.445 91.7727 184.543 91.927C184.64 92.0814 184.595 92.2858 184.441 92.3838L177.969 96.4903C177.914 96.5251 177.853 96.5416 177.792 96.5416Z" fill="#363E44"/>
<path d="M179.196 98.5962C179.087 98.5962 178.98 98.5419 178.917 98.4428C178.819 98.2884 178.865 98.0839 179.019 97.986L185.49 93.8795C185.644 93.782 185.849 93.8274 185.947 93.9815C186.045 94.1358 185.999 94.3403 185.845 94.4381L179.373 98.5446C179.319 98.5797 179.257 98.5962 179.196 98.5962Z" fill="#363E44"/>
<path d="M178.699 71.6962C178.699 71.6962 204.063 71.8936 223.505 72.1798L219.265 32.1069C219.265 32.1069 199.957 24.8754 178.594 26.2525L178.699 71.6962Z" fill="white"/>
<path d="M213.795 30.0859L217.984 73.2547L254.022 74.0724C254.022 74.0724 255.543 59.5416 242.449 44.8924C239.414 41.4969 235.726 38.7475 231.629 36.7588C227.084 34.5526 219.653 31.1674 213.795 30.0859Z" fill="#161F4C"/>
<path d="M185.668 25.8877L187.072 71.9482C187.072 71.9482 152.484 81.2005 152.475 58.1302C152.47 48.2402 155.179 40.9328 157.905 36.0829C160.598 31.2905 165.24 27.9223 170.632 26.8507C174.639 26.0545 179.964 25.4156 185.668 25.8877Z" fill="#161F4C"/>
<path d="M170.737 49.4589C170.709 49.4589 170.68 49.4553 170.652 49.4479C170.475 49.4008 170.37 49.2196 170.418 49.0429L171.982 43.1707C172.029 42.994 172.211 42.8914 172.386 42.9363C172.563 42.9834 172.668 43.1646 172.621 43.3413L171.056 49.2135C171.017 49.3614 170.883 49.4589 170.737 49.4589Z" fill="#363E44"/>
<path d="M157.16 56.5221C157.116 56.5221 157.072 56.5131 157.029 56.4943C156.861 56.4217 156.785 56.2272 156.858 56.0596C156.89 55.9843 160.241 48.5418 169.822 49.4242C170.004 49.441 170.138 49.6021 170.121 49.7841C170.104 49.9656 169.946 50.1045 169.761 50.0832C160.662 49.2373 157.591 56.034 157.464 56.3236C157.41 56.4478 157.288 56.5221 157.16 56.5221Z" fill="#363E44"/>
<path d="M221.387 60.3724C219.643 59.2321 213.151 53.3272 209.326 54.7735C205.474 56.2302 203.219 60.1842 202.428 64.2261C202.437 64.2403 202.446 64.2559 202.455 64.27C202.726 65.3775 203.301 66.993 204.673 68.2879C206.238 69.7641 207.34 69.4098 209.234 70.7104C212.43 72.9057 212.382 76.1663 213.721 75.8598C214.64 75.6495 214.75 73.7508 214.4 71.9929C214.041 70.188 213.049 69.172 213.279 68.9779C213.532 68.7649 214.407 69.9274 215.627 71.2731C216.193 71.8983 216.692 74.5734 217.99 74.4712C219.025 74.3898 219.202 71.4787 217.996 69.2388C217.143 67.6542 215.514 67.0239 215.691 66.7471C215.824 66.5394 216.786 66.9388 217.512 67.5301C218.71 68.5056 219.25 71.2369 220.443 71.1196C221.612 71.0046 221.722 68.4595 220.743 66.3292C219.918 64.533 218.067 63.9169 218.285 63.5716C218.439 63.3288 219.324 63.4323 221.032 64.1902C222.457 64.8229 224.82 66.9723 225.704 65.58C226.448 64.4089 224.02 62.0934 221.387 60.3724Z" fill="#84524D"/>
<path d="M171.53 52.1933C167.79 52.7136 164.627 55.263 163.398 58.8332C162.226 62.2392 162.339 66.5027 167.573 69.8343C177.944 76.4357 206.074 65.0535 206.074 65.0535L211.351 54.5985C198.432 51.4862 184.162 50.4356 171.53 52.1933Z" fill="#84524D"/>
<path d="M260.827 75.5168C259.948 77.3953 258.062 78.5954 255.988 78.5954H222.689L237.602 46.7227H274.3L260.827 75.5168Z" fill="#E6D0BE"/>
<path d="M200.832 75.3984C200.832 77.1743 202.272 78.6138 204.047 78.6138H234.752L236.256 75.3984H200.832Z" fill="#E6D0BE"/>
<path d="M270.266 61.6681C270.149 62.8635 269.953 63.8226 267.883 63.6195C265.812 63.4162 262.651 62.1277 262.769 60.9324C262.886 59.737 266.237 59.0875 268.308 59.2908C270.378 59.4939 270.384 60.4728 270.266 61.6681Z" fill="#84524D"/>
<path d="M261.357 64.0027C261.475 62.8073 264.826 62.1578 266.896 62.3611C268.966 62.5643 268.972 63.5432 268.855 64.7386L261.357 64.0027Z" fill="#84524D"/>
<path d="M268.856 64.7397C268.739 65.935 268.543 66.8941 266.472 66.691C264.402 66.4878 261.241 65.1993 261.359 64.0039L268.856 64.7397Z" fill="#84524D"/>
<path d="M259.947 67.073C260.065 65.8777 263.416 65.2282 265.486 65.4314C267.556 65.6347 267.562 66.6136 267.445 67.8089L259.947 67.073Z" fill="#84524D"/>
<path d="M267.444 67.81C267.327 69.0053 267.131 69.9644 265.06 69.7613C262.99 69.5581 259.829 68.2696 259.947 67.0742L267.444 67.81Z" fill="#84524D"/>
<path d="M260.115 69.8538C260.209 68.9035 262.872 68.3874 264.518 68.5488C266.164 68.7103 266.168 69.4884 266.075 70.4386L260.115 69.8538Z" fill="#84524D"/>
<path d="M266.075 70.4405C265.982 71.3906 265.826 72.153 264.181 71.9915C262.535 71.8299 260.023 70.8057 260.116 69.8555L266.075 70.4405Z" fill="#84524D"/>
<path d="M192.702 12.8421C193.547 13.9823 193.445 15.4895 192.475 16.2086C191.504 16.9275 190.033 16.5863 189.188 15.4461C188.343 14.306 188.445 12.7988 189.415 12.0798C190.385 11.3606 191.857 11.702 192.702 12.8421Z" fill="#84524D"/>
<path d="M203.134 12.3122C202.409 13.5323 202.663 15.0214 203.701 15.6382C204.74 16.255 206.169 15.766 206.894 14.5459C207.618 13.3258 207.364 11.8367 206.326 11.2199C205.288 10.6031 203.858 11.0921 203.134 12.3122Z" fill="#84524D"/>
<path d="M197.408 32.2034C194.874 32.0872 192.914 29.9389 193.03 27.4048L193.456 14.3789L202.632 14.7998L202.207 27.8257C202.09 30.3596 199.942 32.3195 197.408 32.2034Z" fill="#84524D"/>
<path d="M199.052 24.8867C191.691 25.3217 191.418 13.0311 191.418 13.0311L204.462 12.5898C204.462 12.5898 206.19 24.4649 199.052 24.8867Z" fill="#363E44"/>
<path d="M193.944 14.1542C196.529 14.1542 198.625 12.0586 198.625 9.47357C198.625 6.88854 196.529 4.79297 193.944 4.79297C191.359 4.79297 189.264 6.88854 189.264 9.47357C189.264 12.0586 191.359 14.1542 193.944 14.1542Z" fill="#363E44"/>
<path d="M204.324 13.5347C204.532 17.6247 201.879 15.4736 198.398 15.6507C194.917 15.8279 191.927 18.2663 191.718 14.1762C191.51 10.0862 194.163 7.75024 197.644 7.57309C201.125 7.39594 204.116 9.44463 204.324 13.5347Z" fill="#84524D"/>
<path d="M204.324 15.8505C204.304 15.8505 204.284 15.8489 204.264 15.845C204.084 15.8124 203.965 15.6402 203.998 15.4607C204.111 14.8392 204.151 14.1966 204.119 13.5506C204.09 12.9756 204.002 12.4067 203.859 11.8598C203.812 11.6831 203.918 11.5022 204.095 11.4557C204.271 11.4108 204.452 11.5154 204.499 11.6918C204.653 12.2825 204.748 12.8964 204.78 13.5168C204.815 14.2137 204.771 14.9075 204.649 15.5787C204.62 15.7388 204.48 15.8505 204.324 15.8505Z" fill="#363E44"/>
<path d="M191.911 16.4369C191.767 16.4369 191.635 16.3423 191.594 16.1966C191.41 15.5507 191.299 14.8766 191.264 14.1926C191.232 13.5599 191.265 12.9278 191.364 12.3136C191.393 12.133 191.562 12.0106 191.742 12.0394C191.923 12.0682 192.046 12.238 192.017 12.4183C191.926 12.9868 191.895 13.5725 191.925 14.159C191.957 14.7931 192.06 15.4177 192.23 16.0157C192.28 16.1911 192.178 16.3742 192.002 16.4243C191.972 16.4332 191.941 16.4369 191.911 16.4369Z" fill="#363E44"/>
<path d="M198.461 16.1378C198.362 16.1378 198.263 16.0935 198.198 16.0086C198.087 15.8639 198.114 15.6563 198.259 15.5448C198.4 15.4367 198.438 15.3591 198.439 15.3303C198.439 15.3062 198.397 15.2466 198.355 15.1895C198.27 15.0707 198.153 14.9082 198.102 14.664C198.057 14.4467 198.075 14.2179 198.157 13.9845C198.216 13.812 198.404 13.7193 198.578 13.7807C198.75 13.8404 198.841 14.0291 198.781 14.2016C198.74 14.322 198.729 14.4293 198.75 14.5293C198.772 14.6363 198.825 14.7099 198.892 14.8032C198.987 14.9349 199.105 15.099 199.1 15.3435C199.095 15.6054 198.948 15.8496 198.662 16.0692C198.602 16.1154 198.531 16.1378 198.461 16.1378Z" fill="#363E44"/>
<path d="M197.48 17.9493C197.197 17.9493 196.775 17.8927 196.361 17.6253C196.098 17.455 195.874 17.2209 195.714 16.9477C195.621 16.7901 195.674 16.5876 195.831 16.4949C195.988 16.4022 196.191 16.4551 196.284 16.6125C196.36 16.7413 196.497 16.9254 196.72 17.0698C197.058 17.2882 197.409 17.2989 197.588 17.2836C197.767 17.2735 197.93 17.4054 197.944 17.5875C197.958 17.7696 197.822 17.9289 197.64 17.9431C197.594 17.9467 197.54 17.9493 197.48 17.9493Z" fill="white"/>
<path d="M190.887 12.0313C190.887 12.0313 194.257 12.5305 197.751 8.41161C197.751 8.41161 204.242 16.8991 209.234 6.66426C209.234 6.66426 206.31 7.95486 204.741 5.91531C202.245 2.67021 196.254 0.0489564 193.882 6.04011L190.887 12.0313Z" fill="#363E44"/>
<path d="M202.163 12.5084V12.5087L202.148 12.5078C202.142 12.5398 202.123 12.581 202.089 12.5818C202.052 12.6311 202.037 12.7085 202.013 12.7604C201.969 12.8536 201.827 12.7799 201.871 12.6868C201.9 12.6241 201.69 12.7519 201.597 12.7931C201.3 12.9248 200.998 13.043 200.692 13.1519C200.549 13.2028 200.407 13.2547 200.262 13.3004C200.147 13.3372 199.765 13.4788 199.734 13.4621C199.357 13.8436 199.156 14.1962 199.156 14.1962C199.156 14.1962 199.735 14.4191 200.469 14.4211C200.471 14.4112 200.473 14.4013 200.474 14.3912C200.486 14.2922 202.154 13.8088 202.203 13.8814C202.895 13.3903 203.274 12.7273 203.274 12.7273C203.274 12.7273 202.798 12.5444 202.163 12.5084Z" fill="white"/>
<path d="M200.932 12.6696C200.432 12.8476 200.03 13.1638 199.734 13.4626C199.789 13.777 199.955 14.0731 200.226 14.2842C200.296 14.3385 200.37 14.3844 200.447 14.4226C200.777 14.4255 201.141 14.3841 201.498 14.2567C201.756 14.1646 201.987 14.0349 202.192 13.8904C202.441 13.4535 202.417 12.9189 202.148 12.5092C201.775 12.4896 201.349 12.5206 200.932 12.6696Z" fill="#363E44"/>
<path d="M193.893 13.0412V13.0415L193.908 13.0391C193.918 13.0703 193.941 13.1094 193.975 13.1067C194.017 13.152 194.039 13.2276 194.068 13.2767C194.121 13.365 194.255 13.2774 194.202 13.1892C194.166 13.1298 194.389 13.2357 194.486 13.2675C194.794 13.3686 195.106 13.4559 195.422 13.5335C195.569 13.5696 195.716 13.607 195.864 13.638C195.983 13.6629 196.377 13.7655 196.406 13.7457C196.819 14.0873 197.055 14.418 197.055 14.418C197.055 14.418 196.501 14.6981 195.771 14.7738C195.769 14.7641 195.766 14.7545 195.763 14.7447C195.742 14.6474 194.033 14.3342 193.992 14.4114C193.254 13.9923 192.811 13.3709 192.811 13.3709C192.811 13.3709 193.265 13.1409 193.893 13.0412Z" fill="white"/>
<path d="M195.135 13.0763C195.65 13.2032 196.083 13.4774 196.406 13.7448C196.384 14.0631 196.249 14.3744 195.999 14.6117C195.935 14.6729 195.866 14.7258 195.794 14.7716C195.465 14.8077 195.099 14.8031 194.732 14.7123C194.466 14.6466 194.223 14.5407 194.004 14.4177C193.713 14.0081 193.683 13.4738 193.909 13.0391C194.278 12.9821 194.705 12.9701 195.135 13.0763Z" fill="#363E44"/>
<path d="M87.7965 88.0178C87.7965 88.0178 91.7858 89.9489 93.459 92.3309C95.444 89.172 96.7103 85.5608 97.0322 81.6963C87.1382 81.8628 79.2126 72.3126 79.2126 72.3126H72.2847C57.6314 78.0794 50.9708 72.0921 47.9201 68.3477C46.2132 71.4518 45.1848 74.9426 45.0156 78.6447C46.3284 80.9838 50.9154 82.0406 53.8856 81.2355C53.8856 81.2355 51.1095 85.3707 45.2517 83.2415C47.0526 95.2091 57.9162 104.411 71.0513 104.411C78.7508 104.411 85.6698 101.249 90.4409 96.2222C90.4685 93.6278 90.0599 89.9516 87.7965 88.0178Z" fill="#363E44"/>
<path d="M67.5629 79.6556C67.4601 79.6556 67.3589 79.6078 67.2941 79.5184C65.835 77.4934 63.2825 76.2832 60.7919 76.4492C59.628 76.5242 58.5305 76.8571 57.2166 77.2847L57.1158 77.3173C55.953 77.6957 54.7505 78.0872 53.5001 78.2057C52.4597 78.3059 50.9499 78.2407 49.6758 77.377C48.4524 76.5473 47.7945 75.1162 48.0387 73.8163C48.0725 73.637 48.2448 73.5194 48.4248 73.5524C48.6044 73.586 48.7226 73.7588 48.6888 73.9384C48.4955 74.9674 49.0539 76.156 50.0469 76.8296C51.1583 77.5828 52.5044 77.6345 53.4378 77.5475C54.6156 77.4358 55.7826 77.0557 56.9112 76.6885L57.012 76.6555C58.0806 76.3079 59.4102 75.8752 60.7494 75.7889C63.4628 75.6145 66.242 76.9261 67.8311 79.1314C67.9379 79.2796 67.9043 79.4863 67.7559 79.5932C67.6974 79.6352 67.6298 79.6556 67.5629 79.6556Z" fill="#40484C"/>
<path d="M79.3309 89.844C76.8343 90.8332 71.8317 85.261 71.8317 85.261L70.1562 77.2297C71.0554 73.5604 74.7587 71.3148 78.428 72.2137C82.0973 73.1128 84.343 76.8162 83.444 80.4855C83.444 80.4855 81.8737 88.8364 79.3309 89.844Z" fill="#E2A18D"/>
<path d="M66.0586 93.9528L78.5129 103.908L74.36 94.9021L78.2249 79.1289L70.1741 77.1562L66.0586 93.9528Z" fill="#E2A18D"/>
<path d="M82.2519 82.0469C82.2519 82.0469 83.637 84.4559 83.4115 84.9471C83.1424 85.5333 80.9746 85.4001 80.9746 85.4001C80.9746 85.4001 82.3003 82.0637 82.2519 82.0469Z" fill="#E2A18D"/>
<path d="M76.3262 80.2923C76.3262 80.2923 77.5851 79.9666 78.9258 80.2953C79.2111 80.3652 78.1136 82.516 77.8745 82.3204C76.823 81.4603 76.3262 80.2923 76.3262 80.2923Z" fill="white"/>
<mask id="mask0_1154_19213" style="mask-type:luminance" maskUnits="userSpaceOnUse" x="76" y="80" width="7" height="4">
<path d="M76.3262 80.2923C76.3262 80.2923 78.1776 79.8133 79.7814 80.6032C81.3852 81.3931 82.1339 83.1531 82.1339 83.1531C82.1339 83.1531 80.2824 83.6322 78.6786 82.8422C77.0748 82.0521 76.3262 80.2923 76.3262 80.2923Z" fill="white"/>
</mask>
<g mask="url(#mask0_1154_19213)">
<path d="M78.9972 80.2494C80.1013 79.5798 81.5391 79.9321 82.2085 81.0363C82.8781 82.1403 82.5258 83.5782 81.4216 84.2476C80.3175 84.9171 78.8797 84.5649 78.2103 83.4607C77.5408 82.3567 77.893 80.9188 78.9972 80.2494Z" fill="#363E44"/>
</g>
<path d="M79.2789 86.5046C78.9283 86.5046 78.5856 86.3628 78.3385 86.1002C78.0048 85.7453 77.9001 85.2197 78.0715 84.7614C78.1356 84.5906 78.3265 84.5043 78.4972 84.5676C78.6682 84.6315 78.7551 84.8222 78.691 84.9933C78.607 85.2174 78.6579 85.4739 78.8203 85.647C78.9888 85.826 79.2492 85.8899 79.485 85.8089C79.6575 85.7492 79.8459 85.8414 79.9053 86.0139C79.9645 86.1867 79.8727 86.375 79.7001 86.4341C79.5622 86.4816 79.4199 86.5046 79.2789 86.5046Z" fill="#363E44"/>
<path d="M77.1994 90.0442C77.1547 90.0442 77.1093 90.0352 77.0659 90.0162C74.5417 88.8997 71.6779 85.729 71.5573 85.5946C71.4352 85.4587 71.4465 85.2496 71.5825 85.1277C71.7181 85.0056 71.9275 85.0168 72.0496 85.1529C72.0781 85.1848 74.9398 88.3525 77.3334 89.4109C77.5005 89.4849 77.5759 89.6803 77.5021 89.8473C77.4475 89.9709 77.3263 90.0442 77.1994 90.0442Z" fill="#363E44"/>
<path d="M67.7607 80.6368C66.5487 78.8418 68.3587 74.5653 70.8853 72.6271C74.1427 70.1283 79.1491 70.4599 82.1227 72.5568C82.8537 73.0722 84.3906 74.4778 84.3319 75.9159C84.2863 77.0356 82.3812 78.3015 80.6155 77.9517C78.133 77.4598 75.522 75.2889 75.2131 78.2653C74.2771 87.2845 69.0924 82.6093 67.7607 80.6368Z" fill="#363E44"/>
<path d="M72.2865 73.7137C72.2865 73.7137 64.5614 67.2201 70.1567 63.6132C75.4103 60.2263 80.1305 68.1756 72.2865 73.7137Z" fill="#363E44"/>
<path d="M71.7333 71.7516C71.6916 71.7516 71.6492 71.7438 71.6082 71.727C70.3442 71.2092 69.5252 69.8474 69.6612 68.4879C69.6984 68.1182 69.7989 67.8269 69.9689 67.5969C70.2048 67.2771 70.5875 67.0998 70.943 67.1432C71.4318 67.2045 71.7858 67.6041 71.9957 68.3304C72.2027 69.0458 72.3426 69.7851 72.4116 70.5276C72.4286 70.7094 72.2949 70.8707 72.1131 70.8878C71.928 70.9068 71.7698 70.7708 71.7531 70.589C71.6879 69.8879 71.5557 69.1899 71.3604 68.5142C71.2872 68.2613 71.1252 67.8327 70.8608 67.7994C70.7417 67.7832 70.5944 67.863 70.5009 67.9896C70.4036 68.1213 70.3443 68.3058 70.3194 68.5539C70.2137 69.6113 70.8755 70.7123 71.8589 71.1147C72.0279 71.1842 72.1089 71.3772 72.0396 71.5463C71.9873 71.6741 71.8637 71.7516 71.7333 71.7516Z" fill="white"/>
<path d="M71.4754 72.5847C71.3809 72.5847 71.2873 72.5447 71.2219 72.4666C71.1045 72.3268 71.1228 72.1181 71.2627 72.0005C72.2346 71.1857 73.4629 70.6525 74.7216 70.4993C74.9013 70.4735 75.0676 70.6062 75.0898 70.7874C75.1119 70.9689 74.9827 71.1337 74.8014 71.156C73.6684 71.2939 72.5626 71.7739 71.6878 72.5077C71.6257 72.5593 71.5503 72.5847 71.4754 72.5847Z" fill="white"/>
<path d="M16.2695 153.766L16.3004 245.867H49.6546C49.6546 245.867 43.4908 172.89 43.8569 164.17H48.0019L64.7492 246.109H97.8568C97.8568 246.109 76.0426 172.006 70.1437 150.281C70.1437 150.281 50.7707 124.888 16.2695 153.766Z" fill="#363E44"/>
<path d="M16.6445 124.848C16.6445 124.848 19.0687 109.462 34.7294 101.547L46.655 117.457L16.6445 124.848Z" fill="#E2A18D"/>
<path d="M44.0013 119.757L29.2422 102.204C29.2422 102.204 39.9625 95.3549 51.4789 94.6992L44.0013 119.757Z" fill="#161F4C"/>
<path d="M89.4122 109.176C82.4971 109.048 77.1143 115.147 78.1015 121.992L82.687 155.849L87.1712 169.631C92.9072 167.268 96.8468 161.903 97.3852 155.723L97.9925 123.696C97.8562 106.254 95.8813 109.297 89.4122 109.176Z" fill="#E2A18D"/>
<path d="M97.9932 110.579C97.9932 110.579 93.0934 101.99 85.9206 97.9922L79.4977 108.25L78.8184 124.4L97.9932 110.579Z" fill="#161F4C"/>
<path d="M12.8467 156.626L77.6408 158.549L82.7491 107.118L88.9868 99.8664C88.9868 99.8664 74.8211 87.6198 45.4774 94.4921L46.6975 103.307C46.6975 103.307 21.5126 140.468 12.8467 156.626Z" fill="#7567F5"/>
<path d="M59.7031 94.1354L60.4966 89.1641C60.4966 89.1641 71.6374 89.8091 80.9767 93.0806L79.5945 97.5549L59.7031 94.1354Z" fill="#161F4C"/>
<path d="M69.2773 113.223L58.6842 92.3006C58.6017 92.1375 58.6669 91.9385 58.8298 91.8558C58.9926 91.7738 59.1918 91.8387 59.2743 92.0015L69.3627 111.927L80.7033 95.3535C80.8065 95.2028 81.012 95.1642 81.163 95.2673C81.3136 95.3703 81.3523 95.5764 81.2491 95.7269L69.2773 113.223Z" fill="#363E44"/>
<path d="M69.119 117.668C67.6232 117.668 66.4062 116.451 66.4062 114.955C66.4062 113.459 67.6232 112.242 69.119 112.242C70.6148 112.242 71.8317 113.459 71.8317 114.955C71.8319 116.451 70.615 117.668 69.119 117.668ZM69.119 112.904C67.988 112.904 67.0676 113.824 67.0676 114.955C67.0676 116.086 67.9879 117.007 69.119 117.007C70.2502 117.007 71.1704 116.086 71.1704 114.955C71.1704 113.824 70.25 112.904 69.119 112.904Z" fill="#363E44"/>
<path d="M139.335 144.893L135.97 138.933L130.887 141.804L134.251 147.763L130.185 150.059L119.521 131.173L134.178 122.898L144.841 141.784L139.335 144.893Z" fill="#161F4C"/>
<path d="M125.22 146.793L122.675 142.286L118.831 144.457L121.375 148.964L118.3 150.7L110.236 136.418L121.32 130.16L129.384 144.442L125.22 146.793Z" fill="#161F4C"/>
<path d="M64.0012 163.833C55.3343 148.483 35.8643 143.064 20.5138 151.731C5.16322 160.398 -0.254932 179.868 8.41192 195.219C17.0788 210.569 36.5488 215.987 51.8993 207.321C67.2499 198.654 72.668 179.184 64.0012 163.833Z" fill="#161F4C"/>
<path d="M136.526 115.379L58.3984 159.484L63.7557 168.974L141.883 124.868L136.526 115.379Z" fill="#161F4C"/>
<path d="M36.2538 207.697C26.4129 207.697 16.8443 202.542 11.6706 193.379C4.03218 179.85 8.82453 162.629 22.3535 154.99C35.8827 147.353 53.1036 152.145 60.7419 165.674C68.3804 179.202 63.588 196.424 50.0589 204.062C45.6932 206.527 40.9422 207.697 36.2538 207.697ZM36.1599 152.017C31.5806 152.017 26.9427 153.159 22.6788 155.567C9.46758 163.026 4.78773 179.842 12.2466 193.054C19.7058 206.265 36.5222 210.945 49.7337 203.486C62.9451 196.027 67.6251 179.21 60.1661 165.999C55.1142 157.051 45.7688 152.017 36.1599 152.017Z" fill="#F7F1EB"/>
<path d="M84.8741 149.083C84.7586 149.083 84.6466 149.022 84.5858 148.914C84.496 148.756 84.552 148.554 84.711 148.464L133.984 120.644C134.144 120.555 134.345 120.611 134.435 120.77C134.525 120.929 134.469 121.131 134.31 121.221L85.0364 149.04C84.985 149.069 84.9292 149.083 84.8741 149.083Z" fill="#F7F1EB"/>
<path d="M33.0334 193.672L37.1133 179.012L22.4526 174.932L18.3727 189.593L33.0334 193.672Z" fill="#F2E6DC"/>
<path d="M83.2595 171.278C81.8983 171.467 79.7384 171.826 77.5889 171.947C74.1367 172.142 70.4779 171.678 70.3724 170.156C70.247 168.347 73.7398 168.707 75.4132 168.338C77.4181 167.895 78.2692 167.408 78.2464 167.093C78.2141 166.646 76.175 167.308 74.2732 166.257C72.0176 165.011 70.4548 162.687 71.4137 161.823C72.3925 160.941 74.6519 163.005 76.3486 163.086C77.3767 163.136 78.488 162.862 78.4702 162.591C78.4463 162.231 76.5937 162.736 74.8051 161.891C72.277 160.695 70.5349 158.004 71.3971 157.257C72.4789 156.32 74.6653 158.361 75.5747 158.545C77.5318 158.94 79.0637 159.398 79.1485 159.044C79.2259 158.722 77.6855 158.47 76.1902 157.108C74.7338 155.781 73.5928 154.029 74.2687 153.243C75.2534 152.099 77.338 155.015 81.5975 154.872C84.1213 154.788 84.8657 153.755 87.2129 154.04C87.2324 154.043 87.2518 154.045 87.2711 154.048C90.0086 154.402 92.1184 156.609 92.4761 159.347C92.501 159.537 92.5204 159.728 92.5339 159.919C92.6281 161.273 92.2873 162.602 91.9835 163.931C91.2043 167.34 86.6168 170.606 83.2595 171.278Z" fill="#E2A18D"/>
<path d="M29.9962 180.423C29.5164 177.92 29.1898 167.195 24.6681 165.061C20.1139 162.913 14.7217 164.291 10.4962 167.03C10.4913 167.05 10.4859 167.072 10.4809 167.092C9.73737 168.271 8.80572 170.149 8.83362 172.456C8.86557 175.086 10.1139 175.754 10.5796 178.524C11.3658 183.199 8.45847 185.928 9.86577 186.844C10.8316 187.473 12.5946 185.957 13.8426 184.155C15.124 182.306 15.174 180.57 15.5407 180.608C15.9432 180.649 15.664 182.406 15.5178 184.622C15.4497 185.651 13.522 188.363 14.715 189.417C15.6661 190.258 18.3757 187.94 19.3201 184.976C19.9881 182.88 19.1577 180.912 19.5514 180.832C19.8469 180.773 20.313 181.957 20.4103 183.098C20.5714 184.981 18.6289 187.776 19.7458 188.725C20.8401 189.655 23.1711 187.589 24.2122 184.918C25.0902 182.666 24.0592 180.516 24.5481 180.414C24.8919 180.343 25.5535 181.209 26.338 183.354C26.9926 185.144 27.1113 189.048 29.0871 188.643C30.7486 188.302 30.7207 184.2 29.9962 180.423Z" fill="#E2A18D"/>
<path d="M36.2417 119.705C37.214 117.995 38.186 116.284 39.1581 114.574C38.9184 114.401 38.5455 114.146 38.0669 113.88C38.0669 113.88 32.2268 110.637 22.5689 114.626C14.5521 117.938 8.98879 139.605 10.7565 168.656L20.6064 179.049C26.4879 167.816 32.5445 152.666 35.0697 134.159C35.7629 129.08 36.122 124.246 36.2417 119.705Z" fill="#E2A18D"/>
</svg>
