<svg width="24" height="24" viewBox="0 0 24 24" fill="none" xmlns="http://www.w3.org/2000/svg">
<path d="M7.58315 3.06641C5.26175 3.06641 3.37988 4.94827 3.37988 7.26965V12.3863H7.39561V10.2448L5.78817 10.8858C5.53477 10.9868 5.25937 10.8002 5.25937 10.5273V8.83829C5.25937 8.56547 5.53477 8.37882 5.78817 8.47986L7.39561 9.12079V8.14284C7.39561 8.03938 7.47961 7.95516 7.58307 7.95516C7.68652 7.95516 7.77052 8.03938 7.77052 8.14284V9.12085L9.37816 8.47987C9.63156 8.37882 9.90693 8.56547 9.90693 8.8383V10.5273C9.90693 10.8002 9.63156 10.9868 9.37816 10.8858L7.77052 10.2448V12.3863H11.7864V7.26965C11.7864 4.94828 9.90456 3.06641 7.58315 3.06641Z" fill="#23D9EF"/>
<path d="M7.42383 12.7352L8.87669 9.54371C9.00868 9.25375 9.2998 9.06641 9.61838 9.06641H17.7484C18.0671 9.06641 18.3582 9.25377 18.4902 9.54373L19.943 12.7352H7.42383Z" fill="#7467F4"/>
<path d="M23.0017 14.1399L21.2215 12.755L21.7035 11.5389C21.7292 11.4743 21.7781 11.424 21.8422 11.3979C21.9059 11.3722 21.9759 11.3722 22.0395 11.3997L23.0759 11.8492C23.1688 11.89 23.2283 11.9811 23.2283 12.0818V12.22C23.2283 12.3596 23.1148 12.4731 22.9752 12.4731H22.0839C21.9805 12.4731 21.8962 12.5574 21.8962 12.6608C21.8962 12.7643 21.9805 12.8485 22.0839 12.8485H22.9752C23.3217 12.8485 23.6037 12.5665 23.6037 12.22V12.0818C23.6037 11.8318 23.4554 11.6057 23.2256 11.5054L22.1888 11.0555C22.0317 10.9872 21.8569 10.9854 21.699 11.0513C21.5401 11.1168 21.4179 11.2408 21.3547 11.4006L20.9833 12.3376L19.4774 9.02939C19.2165 8.45627 18.6411 8.08594 18.0112 8.08594H9.3558C8.72592 8.08594 8.15051 8.45627 7.88959 9.02939L6.3739 12.3592L5.99398 11.4006C5.93036 11.2408 5.80767 11.1163 5.64883 11.0509C5.49044 10.9859 5.31604 10.9873 5.15948 11.0555L4.1231 11.5054C3.8933 11.6057 3.74453 11.8318 3.74453 12.0818V12.22C3.74453 12.5665 4.02651 12.8485 4.37304 12.8485H5.2643C5.36776 12.8485 5.45199 12.7643 5.45199 12.6608C5.45199 12.5574 5.36776 12.4732 5.2643 12.4732H4.37304C4.23342 12.4732 4.11989 12.3596 4.11989 12.22V12.0818C4.11989 11.9811 4.17986 11.89 4.27233 11.8497L5.30871 11.3997C5.3728 11.3722 5.44283 11.3713 5.50601 11.3979C5.57009 11.424 5.61953 11.4743 5.64517 11.5389L6.13152 12.7659L4.36572 14.1399C3.97021 14.447 3.74316 14.9103 3.74316 15.4111V20.0826C3.74316 20.6839 4.19169 21.1779 4.77084 21.2596V22.2844C4.77084 22.9381 5.30322 23.4705 5.95691 23.4705H7.38009C8.03378 23.4705 8.56616 22.9381 8.56616 22.2844V22.0001C8.56616 21.8967 8.48193 21.8124 8.37847 21.8124C8.27502 21.8124 8.19079 21.8967 8.19079 22.0001V22.2844C8.19079 22.7316 7.82733 23.0951 7.38009 23.0951H5.95691C5.50967 23.0951 5.14621 22.7316 5.14621 22.2844V21.2764H18.8008V22.2844C18.8008 22.9381 19.3332 23.4705 19.9869 23.4705H21.4101C22.0638 23.4705 22.5962 22.9381 22.5962 22.2844V21.2596C23.1753 21.1779 23.6238 20.6839 23.6238 20.0826V15.4111C23.6238 14.9103 23.3968 14.447 23.0017 14.1399ZM22.2208 22.2844C22.2208 22.7316 21.8573 23.0951 21.4101 23.0951H19.9869C19.5397 23.0951 19.1762 22.7316 19.1762 22.2844V21.2764H22.2208L22.2208 22.2844ZM23.2485 20.0826C23.2485 20.5339 22.8813 20.901 22.43 20.901H4.93701C4.48566 20.901 4.11853 20.5339 4.11853 20.0826V15.4111C4.11853 15.027 4.29248 14.6713 4.59598 14.4356L6.487 12.9643C6.5108 12.946 6.52957 12.9218 6.54239 12.8943L8.23108 9.18503C8.43112 8.74512 8.87286 8.46131 9.3558 8.46131H18.0112C18.4941 8.46131 18.9359 8.74512 19.1359 9.18503L20.8246 12.8943C20.8265 12.8984 20.8307 12.9008 20.8328 12.9047C20.8435 12.9243 20.8568 12.9418 20.874 12.9567C20.8764 12.9588 20.8774 12.9623 20.88 12.9643L22.7715 14.4356C23.0745 14.6713 23.2485 15.027 23.2485 15.4111L23.2485 20.0826Z" fill="#0B215D"/>
<path d="M7.68832 16.0559L5.48831 14.9907C5.3725 14.9344 5.23792 14.9417 5.12897 15.0104C5.01956 15.0786 4.9541 15.1967 4.9541 15.3258V15.6998C4.9541 16.8996 5.93051 17.876 7.13077 17.876H8.78055C8.8872 17.876 8.98471 17.822 9.04147 17.7318C9.09823 17.6421 9.10464 17.5308 9.05887 17.4347C8.7723 16.8346 8.28571 16.3452 7.68832 16.0559ZM5.32443 15.3281L5.40683 15.1596L5.32535 15.3281H5.32443ZM7.13077 17.5006C6.13742 17.5006 5.32947 16.6927 5.32947 15.6998L5.3281 15.3299L7.52536 16.3937C8.01426 16.6304 8.418 17.0213 8.67252 17.5006H7.13077Z" fill="#0B215D"/>
<path d="M22.1422 14.8624L19.6772 16.0558C19.0798 16.3451 18.5932 16.8344 18.3066 17.4345C18.2609 17.5307 18.2673 17.6419 18.324 17.7316C18.3808 17.8218 18.4783 17.8758 18.585 17.8758H20.2347C21.2615 17.8758 22.1578 17.1471 22.3656 16.1432C22.3867 16.042 22.3217 15.9427 22.2201 15.9216C22.1161 15.9001 22.0196 15.9656 21.9985 16.0672C21.8264 16.8976 21.0848 17.5005 20.2347 17.5005H18.693C18.9475 17.0212 19.3513 16.6303 19.8401 16.3936L22.3052 15.2002C22.3986 15.1549 22.4375 15.0427 22.3926 14.9498C22.3473 14.8564 22.2347 14.8175 22.1422 14.8624Z" fill="#0B215D"/>
<path d="M17.1924 17.6172H10.174C10.0706 17.6172 9.98633 17.7014 9.98633 17.8049C9.98633 17.9083 10.0706 17.9926 10.174 17.9926H17.1924C17.2959 17.9926 17.3801 17.9083 17.3801 17.8049C17.3801 17.7014 17.2959 17.6172 17.1924 17.6172Z" fill="#0B215D"/>
<path d="M16.373 19.1211H10.9933C10.8899 19.1211 10.8057 19.2053 10.8057 19.3088C10.8057 19.4122 10.8899 19.4965 10.9933 19.4965H16.373C16.4764 19.4965 16.5607 19.4122 16.5607 19.3088C16.5607 19.2053 16.4764 19.1211 16.373 19.1211Z" fill="#0B215D"/>
<path d="M8.74854 15.5414C9.12802 15.9287 9.6572 16.1512 10.1996 16.1512L17.1663 16.1516C17.7093 16.1516 18.238 15.9291 18.6175 15.5414L20.2183 13.9072C20.2906 13.833 20.2892 13.7145 20.2155 13.6417C20.1414 13.5694 20.0232 13.5703 19.95 13.6444L18.3492 15.2791C18.0402 15.595 17.609 15.7762 17.1663 15.7762L10.1996 15.7758C9.75698 15.7758 9.32623 15.595 9.01678 15.2787L7.4027 13.6307C7.32946 13.5565 7.21136 13.5552 7.1372 13.628C7.0635 13.7007 7.06213 13.8193 7.13445 13.8935L8.74854 15.5414Z" fill="#0B215D"/>
<path d="M2.30726 12.3947C2.39927 12.3947 2.47984 12.3265 2.49266 12.2322C2.50639 12.1297 2.43498 12.0354 2.33198 12.0212L0.986159 11.8372C0.889574 11.8257 0.788863 11.8944 0.775128 11.9979C0.761394 12.1004 0.832808 12.1947 0.935802 12.2089L2.28163 12.3929C2.28987 12.3938 2.29856 12.3947 2.30726 12.3947Z" fill="#0B215D"/>
<path d="M2.98549 13.7555L2.05257 14.7672C1.98254 14.8436 1.98711 14.9622 2.0631 15.0322C2.09926 15.0656 2.14504 15.0821 2.19036 15.0821C2.24071 15.0821 2.29106 15.0615 2.32814 15.0217L3.26107 14.01C3.3311 13.9336 3.32653 13.815 3.25054 13.745C3.17409 13.6745 3.05553 13.68 2.98549 13.7555Z" fill="#0B215D"/>
<path d="M14.1571 7.03793C14.1727 7.03793 14.1887 7.03564 14.2043 7.03152L15.519 6.68912C15.6192 6.66302 15.6792 6.56094 15.6531 6.46069C15.627 6.36045 15.5231 6.30002 15.4247 6.32657L14.11 6.66898C14.0097 6.69507 13.9497 6.79715 13.9758 6.8974C13.9978 6.98208 14.0738 7.03793 14.1571 7.03793Z" fill="#0B215D"/>
<path d="M12.6987 5.78669C12.7203 5.79447 12.7422 5.79859 12.7637 5.79859C12.8397 5.79859 12.9116 5.75144 12.9395 5.67591L13.4174 4.38501C13.4536 4.28797 13.4037 4.17994 13.3066 4.14423C13.2096 4.10898 13.1016 4.15797 13.0659 4.25501L12.588 5.54591C12.5518 5.64295 12.6017 5.75099 12.6987 5.78669Z" fill="#0B215D"/>
</svg>
