<svg width="24" height="23" viewBox="0 0 24 23" fill="none" xmlns="http://www.w3.org/2000/svg">
<path d="M15.6 20.3773H19.2C19.8365 20.3773 20.447 20.1388 20.8971 19.7141C21.3471 19.2895 21.6 18.7136 21.6 18.1132V14.7169C21.6 14.4167 21.7264 14.1287 21.9515 13.9164C22.1765 13.7041 22.4817 13.5849 22.8 13.5849C23.1183 13.5849 23.4235 13.7041 23.6485 13.9164C23.8736 14.1287 24 14.4167 24 14.7169V18.1132C24 19.3141 23.4943 20.4659 22.5941 21.3151C21.6939 22.1644 20.473 22.6414 19.2 22.6414H4.8C3.52696 22.6414 2.30606 22.1644 1.40589 21.3151C0.505713 20.4659 0 19.3141 0 18.1132V14.7169C0 14.4167 0.126428 14.1287 0.351472 13.9164C0.576516 13.7041 0.88174 13.5849 1.2 13.5849C1.51826 13.5849 1.82348 13.7041 2.04853 13.9164C2.27357 14.1287 2.4 14.4167 2.4 14.7169V18.1132C2.4 18.7136 2.65286 19.2895 3.10294 19.7141C3.55303 20.1388 4.16348 20.3773 4.8 20.3773H8.4C8.71826 20.3773 9.02348 20.4966 9.24853 20.7089C9.47357 20.9212 9.6 21.2091 9.6 21.5094C9.6 21.8096 9.47357 22.0976 9.24853 22.3099C9.02348 22.5222 8.71826 22.6414 8.4 22.6414H15.6C15.2817 22.6414 14.9765 22.5222 14.7515 22.3099C14.5264 22.0976 14.4 21.8096 14.4 21.5094C14.4 21.2091 14.5264 20.9212 14.7515 20.7089C14.9765 20.4966 15.2817 20.3773 15.6 20.3773ZM2.4 7.9245C2.4 8.22475 2.27357 8.5127 2.04853 8.725C1.82348 8.9373 1.51826 9.05658 1.2 9.05658C0.88174 9.05658 0.576516 8.9373 0.351472 8.725C0.126428 8.5127 0 8.22475 0 7.9245V4.52829C0 3.32731 0.505713 2.17552 1.40589 1.32631C2.30606 0.477086 3.52696 0 4.8 0L8.4 0C8.71826 0 9.02348 0.119272 9.24853 0.331576C9.47357 0.543881 9.6 0.831828 9.6 1.13207C9.6 1.43232 9.47357 1.72026 9.24853 1.93257C9.02348 2.14487 8.71826 2.26414 8.4 2.26414H4.8C4.16348 2.26414 3.55303 2.50269 3.10294 2.9273C2.65286 3.35191 2.4 3.9278 2.4 4.52829V7.9245ZM21.6 7.9245V4.52829C21.6 3.9278 21.3471 3.35191 20.8971 2.9273C20.447 2.50269 19.8365 2.26414 19.2 2.26414H15.6C15.2817 2.26414 14.9765 2.14487 14.7515 1.93257C14.5264 1.72026 14.4 1.43232 14.4 1.13207C14.4 0.831828 14.5264 0.543881 14.7515 0.331576C14.9765 0.119272 15.2817 0 15.6 0L19.2 0C20.473 0 21.6939 0.477086 22.5941 1.32631C23.4943 2.17552 24 3.32731 24 4.52829V7.9245C24 8.22475 23.8736 8.5127 23.6485 8.725C23.4235 8.9373 23.1183 9.05658 22.8 9.05658C22.4817 9.05658 22.1765 8.9373 21.9515 8.725C21.7264 8.5127 21.6 8.22475 21.6 7.9245Z" fill="#7567F5"/>
</svg>
