<svg width="40" height="40" viewBox="0 0 40 40" fill="none" xmlns="http://www.w3.org/2000/svg">
<rect width="40" height="40" rx="20" fill="#7567F5" fill-opacity="0.05"/>
<g clip-path="url(#clip0_1007_12027)">
<path d="M14.1523 20.8789H16.4939V18.5352H14.1523V20.8789ZM15.4398 18.7695H16.2595V19.5895H15.4398V18.7695ZM15.4398 19.8242H16.2595V20.6448H15.4398V19.8242ZM14.3861 18.7695H15.2055V19.5895H14.3861V18.7695ZM14.3861 19.8242H15.2055V20.6448H14.3861V19.8242ZM19.4795 20.8789H21.1186V18.5352H19.4795V20.8789ZM20.4164 18.7695H20.8852V19.5895H20.4164V18.7695ZM20.4164 19.8242H20.8852V20.6448H20.4164V19.8242ZM19.7139 18.7695H20.1817V19.5895H19.7139V18.7695ZM19.7139 19.8242H20.1817V20.6448H19.7139V19.8242ZM21.0102 24.407H18.6689V26.7511H21.0102V24.407ZM19.7223 26.5164H18.9027V25.6964H19.7223V26.5164ZM19.7223 25.462H18.9027V24.6414H19.7223V25.462ZM20.7761 26.5164H19.9561V25.6964H20.7761V26.5164ZM20.7761 25.462H19.9561V24.6414H20.7761V25.462Z" fill="#7567F5"/>
<path d="M29.1887 25.5869C29.1687 25.5931 29.0241 25.636 28.8859 25.7347C28.8176 25.6861 28.7433 25.6463 28.665 25.6163V25.1532L28.4784 25.2063C28.3701 25.2386 28.2678 25.2885 28.1756 25.3541C28.0838 25.2886 27.9818 25.2387 27.8737 25.2063L27.6872 25.1532V25.5007L27.5175 25.5482C27.4978 25.5547 27.3528 25.5972 27.2147 25.6963C27.1783 25.6706 27.14 25.6475 27.1003 25.6272V21.42C27.1238 21.436 27.1431 21.446 27.1681 21.4635C28.5394 22.4156 28.7316 20.8053 28.5816 20.2369C28.2959 19.1506 29.0841 18.886 29.3013 17.9819C29.6866 16.3738 28.405 15.4969 28.8009 13.9619C29.1981 12.4272 27.8894 9.05409 26.2019 11.4716C25.6444 12.2706 24.9603 10.836 24.0787 12.0703C23.1969 13.3041 23.6544 14.3703 23.9256 15.176C24.4659 16.7772 23.3837 17.2963 24.0934 18.6369C24.8031 19.9769 23.7834 20.6228 25.12 21.3703C25.5559 21.6138 25.7784 21.6056 25.9294 21.5191V22.8288L22.3491 21.8385V17.0703H23.2269L20.5925 15.3922V13.5547H20.8856V12.9688H18.8362V13.5547H19.1294V14.4597L16.7878 12.9688L10.9331 17.0703H11.8109V21.995L10.625 22.9547H11.8109V28.2031H10.6403V29.375H29.3431V28.2031H28.9428V26.7882H29.0006C29.1 26.7881 29.1952 26.7486 29.2655 26.6783C29.3357 26.6081 29.3752 26.5128 29.3753 26.4135V25.5344L29.1887 25.5869ZM28.0759 16.2619C28.2321 16.2619 28.3818 16.3239 28.4922 16.4343C28.6027 16.5448 28.6647 16.6945 28.6647 16.8506C28.6647 17.0068 28.6027 17.1565 28.4922 17.267C28.3818 17.3774 28.2321 17.4394 28.0759 17.4394C27.7503 17.4394 28.2612 17.1753 28.2612 16.8506C28.2612 16.5253 27.7503 16.2619 28.0759 16.2619ZM27.5666 13.1013C27.6187 13.1013 27.6703 13.1115 27.7184 13.1315C27.7666 13.1514 27.8103 13.1807 27.8472 13.2175C27.884 13.2544 27.9133 13.2981 27.9332 13.3463C27.9532 13.3944 27.9634 13.446 27.9634 13.4981C27.9634 13.5503 27.9532 13.6019 27.9332 13.65C27.9133 13.6982 27.884 13.7419 27.8472 13.7788C27.8103 13.8156 27.7666 13.8449 27.7184 13.8648C27.6703 13.8848 27.6187 13.895 27.5666 13.895C27.3478 13.895 27.6737 13.7175 27.6737 13.4981C27.6737 13.2788 27.3478 13.1013 27.5666 13.1013ZM27.5616 19.5606C27.6781 19.5606 27.7898 19.6069 27.8722 19.6893C27.9546 19.7717 28.0009 19.8835 28.0009 20C28.0009 20.1166 27.9546 20.2283 27.8722 20.3107C27.7898 20.3931 27.6781 20.4394 27.5616 20.4394C27.3184 20.4394 27.5616 20.2435 27.5616 20C27.5616 19.7572 27.3184 19.5606 27.5616 19.5606ZM18.8369 17.0703H21.7634V21.7578H18.8369V17.0703ZM12.3969 17.0703H18.2509V21.7578H12.3969V17.0703ZM16.0669 26.5441C16.0213 26.5441 15.9777 26.526 15.9455 26.4938C15.9132 26.4616 15.8952 26.4179 15.8952 26.3724C15.8952 26.3268 15.9132 26.2831 15.9455 26.2509C15.9777 26.2187 16.0213 26.2007 16.0669 26.2006C16.1124 26.2007 16.1561 26.2187 16.1883 26.2509C16.2205 26.2831 16.2386 26.3268 16.2386 26.3724C16.2386 26.4179 16.2205 26.4616 16.1883 26.4938C16.1561 26.526 16.1124 26.5441 16.0669 26.5441ZM22.0159 28.2031H16.4669V24.9988H16.6959V24.541H13.9516V24.9988H14.1797V28.2031H12.3969V22.9547H22.0159V28.2031ZM24.0791 26.5166H23.7916V25.6966H24.0503V26.375C24.0503 26.4253 24.0609 26.4728 24.0791 26.5166ZM23.7916 25.4622V24.6416H24.26V25.4622H23.7916ZM24.1969 25.6894C24.1969 25.6894 24.4041 25.7485 24.5391 25.8888C24.6747 25.7488 24.8819 25.6894 24.8819 25.6894V26.375C24.882 26.4051 24.8762 26.4349 24.8647 26.4627C24.8533 26.4905 24.8365 26.5158 24.8153 26.5371C24.7941 26.5583 24.7688 26.5752 24.741 26.5867C24.7133 26.5982 24.6835 26.6041 24.6534 26.6041H24.4253C24.3953 26.604 24.3656 26.5981 24.3379 26.5865C24.3102 26.575 24.285 26.5581 24.2639 26.5368C24.2427 26.5156 24.226 26.4903 24.2146 26.4625C24.2032 26.4348 24.1974 26.405 24.1975 26.375V25.6894H24.1969ZM24.4819 28.2031H22.6019V22.9547H24.7463V25.5832C24.673 25.6125 24.6034 25.6505 24.5391 25.6963C24.5241 25.6856 24.5088 25.6772 24.4934 25.6681V24.4069H22.8544V26.751H24.4819V28.2031ZM23.0887 25.4622V24.6416H23.5569V25.4622H23.0887ZM23.5569 25.6966V26.5166H23.0887V25.6966H23.5569ZM24.7463 28.2031H24.5963V27.2785C24.6313 27.3413 24.6825 27.3922 24.7463 27.4266V28.2031ZM25.0962 28.2031H24.9825V27.4741H25.0962V28.2031ZM25.1475 27.3275H24.9188C24.8888 27.3276 24.8591 27.3217 24.8314 27.3102C24.8036 27.2988 24.7785 27.282 24.7572 27.2608C24.736 27.2396 24.7192 27.2145 24.7077 27.1868C24.6962 27.1591 24.6903 27.1294 24.6903 27.0994V26.7428C24.7479 26.7371 24.8033 26.7178 24.852 26.6866C24.9007 26.6553 24.9412 26.6129 24.9703 26.5628C24.9916 26.5794 25.0141 26.5928 25.0331 26.6125C25.1681 26.4725 25.3756 26.4141 25.3756 26.4141V27.0991C25.3757 27.1291 25.3698 27.1588 25.3584 27.1865C25.3469 27.2142 25.3301 27.2394 25.3089 27.2606C25.2877 27.2818 25.2626 27.2986 25.2349 27.3101C25.2072 27.3216 25.1775 27.3275 25.1475 27.3275ZM25.4428 28.2031H25.3322V27.4178C25.3764 27.3922 25.4132 27.3593 25.4428 27.3191V28.2031ZM25.3803 26.26C25.3208 26.2587 25.2641 26.2342 25.2224 26.1917C25.1808 26.1492 25.1573 26.0921 25.1572 26.0325V25.3466C25.1572 25.3466 25.3647 25.4053 25.5 25.546C25.6353 25.4057 25.8428 25.3466 25.8428 25.3466V26.0325C25.8429 26.0625 25.837 26.0923 25.8255 26.12C25.814 26.1477 25.7972 26.1729 25.776 26.1941C25.7548 26.2154 25.7296 26.2322 25.7018 26.2437C25.6741 26.2551 25.6444 26.261 25.6144 26.261H25.5225V26.2197L25.3803 26.26ZM25.93 28.2031H25.5569V26.4078H25.6144C25.7078 26.4078 25.7906 26.37 25.8566 26.3132V26.4131C25.8566 26.4935 25.8872 26.5635 25.93 26.6244V28.2031ZM25.93 25.1703L25.8025 25.2063C25.6943 25.2386 25.5921 25.2886 25.5 25.3541C25.4475 25.3165 25.3913 25.2845 25.3322 25.2585V22.9547H25.93V25.1703ZM27.7044 26.375V26.1157C27.7259 26.2088 27.7797 26.2863 27.8566 26.3378C27.8073 26.3613 27.7601 26.389 27.7156 26.4207L27.6972 26.4091C27.6987 26.3978 27.7044 26.3872 27.7044 26.375ZM26.0347 15.7897C26.0347 16.0328 26.2769 16.2291 26.0347 16.2291C25.9182 16.2291 25.8064 16.1828 25.724 16.1004C25.6416 16.018 25.5953 15.9062 25.5953 15.7897C25.5953 15.6732 25.6416 15.5614 25.724 15.479C25.8064 15.3966 25.9182 15.3503 26.0347 15.3503C26.2769 15.3503 26.0347 15.5472 26.0347 15.7897ZM26.0225 12.506C26.3506 12.506 25.8625 12.7728 25.8625 13.1013C25.8625 13.4297 26.3506 13.6963 26.0225 13.6963C25.9432 13.6981 25.8643 13.684 25.7905 13.6549C25.7167 13.6259 25.6495 13.5823 25.5928 13.5269C25.536 13.4714 25.491 13.4052 25.4602 13.3321C25.4294 13.259 25.4135 13.1804 25.4135 13.1011C25.4135 13.0218 25.4294 12.9433 25.4602 12.8702C25.491 12.797 25.536 12.7308 25.5928 12.6754C25.6495 12.6199 25.7167 12.5764 25.7905 12.5473C25.8643 12.5182 25.9432 12.5041 26.0225 12.506ZM24.6397 14.61C24.6397 14.3675 24.8369 14.1706 25.0791 14.1706C25.3212 14.1706 25.0059 14.3675 25.0059 14.61C25.0059 14.8535 25.3212 15.0497 25.0791 15.0497C25.0213 15.0497 24.9642 15.0383 24.9108 15.0162C24.8575 14.9941 24.8091 14.9617 24.7683 14.9209C24.7275 14.8801 24.6951 14.8316 24.673 14.7783C24.651 14.7249 24.6396 14.6678 24.6397 14.61ZM25.7609 18.7216C25.5278 18.7216 25.3042 18.629 25.1393 18.4641C24.9745 18.2993 24.8819 18.0757 24.8819 17.8425C24.8819 17.6094 24.9745 17.3858 25.1393 17.2209C25.3042 17.0561 25.5278 16.9635 25.7609 16.9635C26.2463 16.9635 25.5694 17.3572 25.5694 17.8425C25.5694 18.3278 26.2459 18.7216 25.7609 18.7216ZM26.3812 28.2031H26.2675V26.7882H26.3812V28.2031ZM26.6878 26.4131C26.6878 26.5397 26.5856 26.6413 26.4597 26.6413H26.2316C26.2016 26.6413 26.1719 26.6354 26.1442 26.624C26.1165 26.6126 26.0913 26.5958 26.0701 26.5746C26.0488 26.5534 26.032 26.5282 26.0205 26.5005C26.009 26.4728 26.0031 26.4431 26.0031 26.4131V25.7282C26.0031 25.7282 26.2103 25.7866 26.3459 25.9269C26.4809 25.7866 26.6884 25.7282 26.6884 25.7282V26.4131H26.6878ZM26.8728 26.375V25.6894C26.8728 25.6894 27.08 25.7485 27.2153 25.8891C27.3506 25.7488 27.5581 25.6894 27.5581 25.6894V26.375C27.5582 26.4051 27.5524 26.4349 27.541 26.4627C27.5296 26.4905 27.5128 26.5158 27.4915 26.5371C27.4703 26.5583 27.4451 26.5752 27.4173 26.5867C27.3895 26.5982 27.3598 26.6041 27.3297 26.6041H27.1019C27.0718 26.6042 27.0419 26.5984 27.0141 26.5869C26.9862 26.5754 26.9609 26.5586 26.9396 26.5373C26.9183 26.516 26.9015 26.4907 26.89 26.4628C26.8785 26.435 26.8727 26.4051 26.8728 26.375ZM27.1588 28.2031H27.1006V26.751H27.1588V28.2031ZM27.6584 28.2031H27.2728V27.2697C27.3035 27.3308 27.3505 27.3823 27.4085 27.4185C27.4666 27.4547 27.5335 27.4741 27.6019 27.4747H27.6588L27.6584 28.2031ZM27.6016 27.3281C27.5409 27.3281 27.4827 27.3039 27.4398 27.2609C27.3969 27.218 27.3728 27.1598 27.3728 27.0991V26.7416C27.4919 26.7275 27.5909 26.6591 27.6488 26.5606C27.6713 26.5781 27.6953 26.5913 27.7159 26.6125C27.8512 26.4725 28.0588 26.4131 28.0588 26.4131V27.0988C28.0589 27.1288 28.0531 27.1586 28.0416 27.1864C28.0302 27.2142 28.0134 27.2395 27.9922 27.2608C27.9709 27.2821 27.9457 27.299 27.9179 27.3105C27.8902 27.322 27.8604 27.3279 27.8303 27.3278L27.6016 27.3281ZM28.1191 28.2031H27.7725V27.4747H27.83C27.9491 27.4747 28.0506 27.415 28.1194 27.3281L28.1191 28.2031ZM28.0619 26.2613C28.0319 26.2612 28.0023 26.2553 27.9746 26.2438C27.9469 26.2323 27.9218 26.2155 27.9007 26.1942C27.8795 26.173 27.8627 26.1479 27.8513 26.1202C27.8399 26.0925 27.834 26.0628 27.8341 26.0328V25.3469C27.8341 25.3469 28.0406 25.4057 28.1759 25.546C28.3112 25.406 28.5187 25.3469 28.5187 25.3469V26.0328C28.5188 26.0628 28.5129 26.0926 28.5014 26.1203C28.49 26.148 28.4732 26.1732 28.4519 26.1945C28.4307 26.2157 28.4055 26.2325 28.3778 26.244C28.35 26.2554 28.3203 26.2613 28.2903 26.2613H28.0619ZM28.8288 28.2031H28.2331V26.4078H28.2903C28.3281 26.4078 28.3625 26.3972 28.3972 26.3866V26.4135C28.3973 26.5129 28.4368 26.6082 28.5071 26.6784C28.5774 26.7487 28.6728 26.7882 28.7722 26.7882H28.8291L28.8288 28.2031ZM29.2284 26.4131C29.2284 26.5397 29.1262 26.6413 29.0003 26.6413H28.7719C28.7419 26.6413 28.7122 26.6354 28.6845 26.624C28.6568 26.6126 28.6316 26.5958 28.6104 26.5746C28.5891 26.5534 28.5723 26.5282 28.5608 26.5005C28.5493 26.4728 28.5434 26.4431 28.5434 26.4131V26.3057C28.6172 26.2366 28.6653 26.141 28.6653 26.0325V25.7763C28.7474 25.8127 28.8222 25.8637 28.8862 25.9266C29.0212 25.7863 29.2288 25.7278 29.2288 25.7278L29.2284 26.4131Z" fill="#7567F5"/>
</g>
<defs>
<clipPath id="clip0_1007_12027">
<rect width="20" height="20" fill="white" transform="translate(10 10)"/>
</clipPath>
</defs>
</svg>
