<svg width="86" height="117" viewBox="0 0 86 117" fill="none" xmlns="http://www.w3.org/2000/svg">
<rect y="14" width="86" height="103" fill="#0EA5E9"/>
<ellipse cx="43" cy="12" rx="43" ry="12" fill="#097BAF"/>
<path d="M23.624 69.128L29.984 62.48C30.432 62 30.792 61.576 31.064 61.208C31.352 60.824 31.56 60.464 31.688 60.128C31.816 59.776 31.88 59.424 31.88 59.072C31.88 58.368 31.648 57.816 31.184 57.416C30.736 57.016 30.152 56.816 29.432 56.816C28.696 56.816 28.04 57.008 27.464 57.392C26.904 57.776 26.376 58.384 25.88 59.216L23.648 57.32C24.32 56.184 25.152 55.328 26.144 54.752C27.152 54.16 28.304 53.864 29.6 53.864C30.704 53.864 31.664 54.08 32.48 54.512C33.312 54.944 33.952 55.544 34.4 56.312C34.848 57.08 35.072 57.976 35.072 59C35.072 59.688 34.984 60.312 34.808 60.872C34.648 61.432 34.368 61.992 33.968 62.552C33.584 63.096 33.048 63.712 32.36 64.4L27.728 69.128H23.624ZM23.624 71V69.128L26.408 68.168H35.432V71H23.624ZM45.4576 71V64.352C45.4576 63.664 45.2416 63.104 44.8096 62.672C44.3776 62.24 43.8176 62.024 43.1296 62.024C42.6816 62.024 42.2816 62.12 41.9296 62.312C41.5776 62.504 41.2976 62.776 41.0896 63.128C40.8976 63.48 40.8016 63.888 40.8016 64.352L39.5776 63.728C39.5776 62.816 39.7696 62.024 40.1536 61.352C40.5536 60.664 41.0976 60.128 41.7856 59.744C42.4896 59.36 43.2816 59.168 44.1616 59.168C45.0096 59.168 45.7696 59.384 46.4416 59.816C47.1136 60.232 47.6416 60.784 48.0256 61.472C48.4096 62.144 48.6016 62.872 48.6016 63.656V71H45.4576ZM37.6576 71V59.408H40.8016V71H37.6576ZM56.0302 71.24C54.9582 71.24 53.9982 70.976 53.1502 70.448C52.3022 69.92 51.6302 69.2 51.1342 68.288C50.6542 67.376 50.4142 66.352 50.4142 65.216C50.4142 64.064 50.6542 63.032 51.1342 62.12C51.6302 61.208 52.2942 60.488 53.1262 59.96C53.9742 59.432 54.9422 59.168 56.0302 59.168C56.8622 59.168 57.6062 59.336 58.2622 59.672C58.9342 60.008 59.4702 60.48 59.8702 61.088C60.2862 61.68 60.5102 62.352 60.5422 63.104V67.232C60.5102 67.984 60.2942 68.664 59.8942 69.272C59.4942 69.88 58.9582 70.36 58.2862 70.712C57.6142 71.064 56.8622 71.24 56.0302 71.24ZM56.5582 68.336C57.1502 68.336 57.6622 68.208 58.0942 67.952C58.5422 67.68 58.8862 67.312 59.1262 66.848C59.3822 66.368 59.5102 65.816 59.5102 65.192C59.5102 64.584 59.3822 64.048 59.1262 63.584C58.8862 63.104 58.5422 62.736 58.0942 62.48C57.6622 62.208 57.1582 62.072 56.5822 62.072C55.9902 62.072 55.4702 62.208 55.0222 62.48C54.5902 62.752 54.2462 63.12 53.9902 63.584C53.7502 64.048 53.6302 64.584 53.6302 65.192C53.6302 65.816 53.7502 66.368 53.9902 66.848C54.2462 67.312 54.5982 67.68 55.0462 67.952C55.4942 68.208 55.9982 68.336 56.5582 68.336ZM62.4622 71H59.3422V67.88L59.8462 65.048L59.3182 62.264V53.648H62.4622V71Z" fill="white"/>
</svg>
