<svg width="24" height="24" viewBox="0 0 24 24" fill="none" xmlns="http://www.w3.org/2000/svg">
<path d="M5.09305 19.2591C5.04898 19.2591 5.00492 19.2436 4.9693 19.2122C2.66914 17.1891 1.34961 14.2734 1.34961 11.212C1.34961 8.36719 2.45727 5.69297 4.46867 3.68156C6.48055 1.67016 9.15477 0.5625 11.9996 0.5625C13.703 0.5625 15.3976 0.974531 16.8995 1.75406C16.9913 1.80187 17.0274 1.91484 16.9796 2.00672C16.9318 2.09859 16.8188 2.13422 16.727 2.08687C15.278 1.335 13.6435 0.9375 11.9996 0.9375C9.25508 0.9375 6.67508 2.00625 4.73398 3.94687C2.79336 5.8875 1.72461 8.46797 1.72461 11.2125C1.72461 14.1656 2.99773 16.9791 5.2168 18.9309C5.29461 18.9994 5.30211 19.118 5.23367 19.1958C5.19664 19.238 5.14461 19.2595 5.09258 19.2595L5.09305 19.2591Z" fill="#0B215D"/>
<path d="M18.9066 19.2567C18.8546 19.2567 18.803 19.2351 18.7655 19.1929C18.6971 19.1151 18.7046 18.9965 18.7824 18.9281C21.0019 16.9762 22.2746 14.1628 22.2746 11.2097C22.2746 9.19966 21.6943 7.25247 20.596 5.5795C20.5393 5.49278 20.5632 5.37653 20.6499 5.31981C20.7366 5.26309 20.8529 5.287 20.9096 5.37372C22.0477 7.10809 22.6496 9.12606 22.6496 11.2097C22.6496 14.2706 21.3301 17.1867 19.0299 19.2098C18.9943 19.2412 18.9502 19.2567 18.9062 19.2567H18.9066Z" fill="#0B215D"/>
<path d="M19.7185 4.33608C19.6679 4.33608 19.6172 4.31545 19.5802 4.27514C19.1715 3.82842 18.7201 3.41545 18.2396 3.04748C18.1576 2.98467 18.1416 2.86701 18.2044 2.78451C18.2672 2.70248 18.3849 2.68654 18.4674 2.74936C18.9657 3.13045 19.433 3.55842 19.8568 4.02154C19.9266 4.09795 19.9215 4.21654 19.8451 4.28639C19.809 4.3192 19.7635 4.33561 19.7185 4.33561V4.33608Z" fill="#0B215D"/>
<path d="M22.0024 22.78H1.99707C1.60941 22.78 1.29395 22.4645 1.29395 22.0769V21.2261C1.29395 19.9338 2.34535 18.8828 3.63723 18.8828H6.37848C6.48207 18.8828 6.56598 18.9667 6.56598 19.0703C6.56598 19.1739 6.48207 19.2578 6.37848 19.2578H3.63723C2.5516 19.2578 1.66895 20.1409 1.66895 21.2261V22.0769C1.66895 22.2578 1.81613 22.405 1.99707 22.405H22.0028C22.1838 22.405 22.331 22.2578 22.331 22.0769V21.2261C22.331 20.1405 21.4478 19.2578 20.3627 19.2578H8.40863C8.30504 19.2578 8.22113 19.1739 8.22113 19.0703C8.22113 18.9667 8.30504 18.8828 8.40863 18.8828H20.3627C21.655 18.8828 22.706 19.9342 22.706 21.2261V22.0769C22.706 22.4645 22.3905 22.78 22.0028 22.78H22.0024Z" fill="#0B215D"/>
<path d="M8.10773 11.2109C8.10773 9.42266 9.3143 7.91703 10.9573 7.46094C8.31586 7.69578 5.73867 8.82312 3.71695 10.8453C3.51492 11.0473 3.51492 11.375 3.71695 11.5766C5.73867 13.5983 8.31586 14.7261 10.9573 14.9609C9.3143 14.5048 8.10773 12.9992 8.10773 11.2109Z" fill="#23D9EF"/>
<path d="M20.2843 10.8453C18.2625 8.82359 15.6854 7.69578 13.0439 7.46094C14.6869 7.91703 15.8935 9.42266 15.8935 11.2109C15.8935 12.9992 14.6869 14.5048 13.0439 14.9609C15.6854 14.7261 18.2625 13.5988 20.2843 11.5766C20.4863 11.3745 20.4863 11.0469 20.2843 10.8453Z" fill="#23D9EF"/>
<path d="M12.0004 13.5144C13.2707 13.5144 14.3005 12.4846 14.3005 11.2142C14.3005 9.94388 13.2707 8.91406 12.0004 8.91406C10.73 8.91406 9.7002 9.94388 9.7002 11.2142C9.7002 12.4846 10.73 13.5144 12.0004 13.5144Z" fill="#7467F4"/>
<path d="M3.49314 2.58646C3.41393 2.58646 3.34033 2.53584 3.31455 2.45615L2.89877 1.16287C2.86689 1.06443 2.92127 0.958496 3.01971 0.92709C3.11814 0.895215 3.22408 0.94959 3.25549 1.04803L3.67127 2.34131C3.70314 2.43975 3.64877 2.54568 3.55033 2.57709C3.53111 2.58318 3.51189 2.586 3.49268 2.586L3.49314 2.58646Z" fill="#0B215D"/>
<path d="M2.33372 4.04552C2.31544 4.04552 2.29669 4.0427 2.27841 4.03708L0.962624 3.63255C0.863718 3.60208 0.807937 3.49708 0.838406 3.39817C0.868874 3.29927 0.973874 3.24348 1.07278 3.27395L2.38856 3.67848C2.48747 3.70895 2.54325 3.81395 2.51278 3.91286C2.48794 3.99348 2.41387 4.04552 2.33372 4.04552Z" fill="#0B215D"/>
<path d="M20.6843 2.58209C20.6651 2.58209 20.6459 2.57928 20.6271 2.57318C20.5287 2.54131 20.4743 2.43584 20.5062 2.3374L20.922 1.04412C20.9538 0.945683 21.0593 0.891308 21.1578 0.923183C21.2562 0.955058 21.3106 1.06053 21.2787 1.15896L20.8629 2.45225C20.8376 2.53193 20.7635 2.58256 20.6843 2.58256V2.58209Z" fill="#0B215D"/>
<path d="M21.8436 4.04552C21.7635 4.04552 21.6894 3.99348 21.6646 3.91286C21.6341 3.81395 21.6899 3.70895 21.7888 3.67848L23.1046 3.27395C23.204 3.24348 23.3085 3.29927 23.339 3.39817C23.3694 3.49708 23.3136 3.60208 23.2147 3.63255L21.899 4.03708C21.8807 4.0427 21.8619 4.04552 21.8436 4.04552Z" fill="#0B215D"/>
</svg>
