<svg width="21" height="20" viewBox="0 0 21 20" fill="none" xmlns="http://www.w3.org/2000/svg">
<path d="M7.92857 0.857105C8.09907 0.857105 8.26258 0.924834 8.38314 1.04539C8.5037 1.16595 8.57143 1.32947 8.57143 1.49996C8.57143 1.67046 8.5037 1.83397 8.38314 1.95453C8.26258 2.07509 8.09907 2.14282 7.92857 2.14282H3.64286C3.0177 2.14282 2.41816 2.39116 1.97611 2.83321C1.53406 3.27526 1.28571 3.87481 1.28571 4.49996V16.0714C1.28571 16.6965 1.53406 17.2961 1.97611 17.7381C2.41816 18.1802 3.0177 18.4285 3.64286 18.4285H15.2143C15.8394 18.4285 16.439 18.1802 16.881 17.7381C17.3231 17.2961 17.5714 16.6965 17.5714 16.0714V11.7857C17.5714 11.6152 17.6392 11.4517 17.7597 11.3311C17.8803 11.2105 18.0438 11.1428 18.2143 11.1428C18.3848 11.1428 18.5483 11.2105 18.6689 11.3311C18.7894 11.4517 18.8571 11.6152 18.8571 11.7857V16.0714C18.8571 17.0375 18.4733 17.9641 17.7902 18.6473C17.107 19.3304 16.1804 19.7142 15.2143 19.7142H3.64286C2.67671 19.7142 1.75014 19.3304 1.06697 18.6473C0.3838 17.9641 0 17.0375 0 16.0714V4.49996C0 3.53382 0.3838 2.60724 1.06697 1.92407C1.75014 1.24091 2.67671 0.857105 3.64286 0.857105H7.92857ZM12.3677 0.0616764C12.4777 0.00966495 12.6002 -0.0100521 12.721 0.0048177C12.8418 0.0196875 12.9559 0.0685333 13.05 0.145676L20.1214 5.93139C20.1923 5.98931 20.2499 6.06168 20.2905 6.14367C20.3312 6.22566 20.3538 6.31537 20.357 6.40682C20.3601 6.49826 20.3437 6.58933 20.3089 6.67393C20.274 6.75853 20.2215 6.83471 20.1549 6.89739L13.0834 13.5402C12.992 13.6263 12.8774 13.6837 12.7537 13.7053C12.6301 13.727 12.5028 13.7119 12.3875 13.6621C12.2723 13.6122 12.1742 13.5297 12.1054 13.4247C12.0365 13.3198 11.9999 13.1969 12 13.0714V9.86568C11.0006 9.89653 9.88886 10.0277 8.69657 10.5531C7.33886 11.1514 5.82514 12.2854 4.27371 14.4762L3.96343 14.928C3.88689 15.0427 3.77546 15.1299 3.64559 15.1764C3.51573 15.223 3.37433 15.2266 3.24229 15.1866C3.11024 15.1466 2.99457 15.0652 2.91235 14.9544C2.83013 14.8437 2.78573 14.7094 2.78571 14.5714C2.78571 10.7948 3.93429 8.09139 5.79429 6.33596C7.48971 4.73739 9.70714 3.99082 12 3.87425V0.642819C11.9998 0.520928 12.0343 0.401496 12.0994 0.298449C12.1645 0.195402 12.2576 0.113846 12.3677 0.0616764ZM13.2849 4.4991C13.2849 4.6696 13.2171 4.83311 13.0966 4.95367C12.976 5.07423 12.8125 5.14196 12.642 5.14196C10.362 5.14196 8.232 5.80368 6.67714 7.27025C5.466 8.41368 4.55657 10.092 4.21714 12.4525C5.55429 10.89 6.89143 9.9411 8.178 9.37539C9.88457 8.62282 11.442 8.57139 12.6429 8.57139C12.8134 8.57139 12.9769 8.63912 13.0974 8.75968C13.218 8.88024 13.2857 9.04375 13.2857 9.21425V11.5851L18.7397 6.4611L13.2857 1.99882L13.2849 4.4991Z" fill="white"/>
</svg>
