<svg width="40" height="40" viewBox="0 0 40 40" fill="none" xmlns="http://www.w3.org/2000/svg">
<rect width="40" height="40" rx="20" fill="#DC3D3D"/>
<path d="M19.9992 14C21.5565 15.3777 23.5889 16.095 25.6659 16C25.9683 17.0287 26.0608 18.1076 25.938 19.1728C25.8151 20.2379 25.4795 21.2675 24.9508 22.2004C24.4222 23.1332 23.7115 23.9503 22.8609 24.603C22.0103 25.2557 21.0371 25.7308 19.9992 26M19.9992 14C18.442 15.3777 16.4096 16.095 14.3326 16C14.0302 17.0287 13.9376 18.1076 14.0605 19.1728C14.1833 20.2379 14.519 21.2675 15.0476 22.2004C15.5762 23.1332 16.287 23.9503 17.1376 24.603C17.9882 25.2557 18.9614 25.7308 19.9992 26M19.9992 14V26" stroke="white" stroke-linecap="round" stroke-linejoin="round"/>
</svg>
