<svg width="20" height="20" viewBox="0 0 20 20" fill="none" xmlns="http://www.w3.org/2000/svg">
<path d="M10.0003 16.6624H1.66699C1.66699 13.4415 4.65176 10.8304 8.33366 10.8304C8.90916 10.8304 9.46766 10.8943 10.0003 11.0142M11.667 4.99854C11.667 6.83904 10.1746 8.33106 8.33366 8.33106C6.49271 8.33106 5.00033 6.83904 5.00033 4.99854C5.00033 3.15803 6.49271 1.66602 8.33366 1.66602C10.1746 1.66602 11.667 3.15803 11.667 4.99854Z" stroke="#7567F5" stroke-width="1.5"/>
<path d="M15.0062 11.6699C13.832 11.6699 13.0025 12.69 11.8483 12.687C11.205 15.354 12.3304 17.3427 14.3267 18.1248C14.5599 18.2098 14.793 18.335 15.0073 18.335C15.2216 18.335 15.3382 18.2925 15.5714 18.2075C18.0773 17.2943 18.6899 14.9173 18.1553 12.683C17.088 12.683 16.0593 11.6699 15.0062 11.6699Z" stroke="#7567F5" stroke-width="1.5" stroke-linecap="round"/>
</svg>
