<svg width="20" height="20" viewBox="0 0 20 20" fill="none" xmlns="http://www.w3.org/2000/svg">
<path d="M4 16.6953L1.7 18.9953C1.38334 19.312 1.02067 19.383 0.612002 19.2083C0.203335 19.0336 -0.000665038 18.721 1.62866e-06 18.2703V2.69531C1.62866e-06 2.14531 0.196002 1.67465 0.588002 1.28331C0.980002 0.891979 1.45067 0.695979 2 0.695312H18C18.55 0.695312 19.021 0.891313 19.413 1.28331C19.805 1.67531 20.0007 2.14598 20 2.69531V14.6953C20 15.2453 19.8043 15.7163 19.413 16.1083C19.0217 16.5003 18.5507 16.696 18 16.6953H4ZM3.15 14.6953H18V2.69531H2V15.8203L3.15 14.6953ZM6 9.69531C6.28333 9.69531 6.521 9.59931 6.713 9.40731C6.905 9.21531 7.00067 8.97798 7 8.69531C6.99933 8.41265 6.90333 8.17531 6.712 7.98331C6.52067 7.79131 6.28333 7.69531 6 7.69531C5.71667 7.69531 5.47933 7.79131 5.288 7.98331C5.09667 8.17531 5.00067 8.41265 5 8.69531C4.99933 8.97798 5.09534 9.21565 5.288 9.40831C5.48067 9.60098 5.718 9.69665 6 9.69531ZM10 9.69531C10.2833 9.69531 10.521 9.59931 10.713 9.40731C10.905 9.21531 11.0007 8.97798 11 8.69531C10.9993 8.41265 10.9033 8.17531 10.712 7.98331C10.5207 7.79131 10.2833 7.69531 10 7.69531C9.71667 7.69531 9.47934 7.79131 9.288 7.98331C9.09667 8.17531 9.00067 8.41265 9 8.69531C8.99934 8.97798 9.09534 9.21565 9.288 9.40831C9.48067 9.60098 9.718 9.69665 10 9.69531ZM14 9.69531C14.2833 9.69531 14.521 9.59931 14.713 9.40731C14.905 9.21531 15.0007 8.97798 15 8.69531C14.9993 8.41265 14.9033 8.17531 14.712 7.98331C14.5207 7.79131 14.2833 7.69531 14 7.69531C13.7167 7.69531 13.4793 7.79131 13.288 7.98331C13.0967 8.17531 13.0007 8.41265 13 8.69531C12.9993 8.97798 13.0953 9.21565 13.288 9.40831C13.4807 9.60098 13.718 9.69665 14 9.69531Z" fill="#7567F5"/>
</svg>
