<svg width="20" height="20" viewBox="0 0 20 20" fill="none" xmlns="http://www.w3.org/2000/svg">
<path d="M5.3125 11.4777L6.40041 9.08788C6.49924 8.87075 6.71723 8.73047 6.95579 8.73047H13.0436C13.2822 8.73047 13.5002 8.87077 13.599 9.08789L14.6869 11.4777H5.3125Z" fill="#7467F4"/>
<path d="M9.99316 0.625C8.46144 0.625 7.21973 1.86671 7.21973 3.39845C7.21973 4.9302 8.46143 6.17188 9.99316 6.17188C11.5249 6.17188 12.7666 4.93018 12.7666 3.39845C12.7666 1.86673 11.5249 0.625 9.99316 0.625ZM11.838 4.95096C11.3957 5.47603 10.7334 5.80965 9.99316 5.80965C9.25289 5.80965 8.59061 5.47603 8.1483 4.95096C8.03464 4.81602 8.05622 4.61346 8.19438 4.50373C8.54707 4.22366 8.96824 4.02876 9.4267 3.93742C9.11885 3.74685 8.91197 3.40891 8.91197 3.02025C8.91197 2.4231 9.39604 1.93904 9.99315 1.93904C10.5903 1.93904 11.0744 2.42311 11.0744 3.02025C11.0744 3.40892 10.8675 3.74685 10.5596 3.93742C11.0181 4.02876 11.4392 4.22366 11.7919 4.50373C11.9301 4.61345 11.9517 4.81602 11.838 4.95096Z" fill="#23D9EF"/>
<path d="M11.835 6.1152C12.2607 6.3868 12.7536 6.53043 13.2609 6.53043C14.7243 6.53043 15.9152 5.33986 15.9152 3.87654C15.9152 2.41322 14.7243 1.22266 13.2609 1.22266C12.9806 1.22266 12.704 1.26634 12.4389 1.35236C12.3569 1.37906 12.3122 1.46718 12.3385 1.5492C12.3656 1.63121 12.4518 1.67641 12.5358 1.64952C12.7692 1.57361 13.0134 1.53508 13.2609 1.53508C14.5522 1.53508 15.6024 2.58546 15.6024 3.87654C15.6024 5.16763 14.5522 6.218 13.2609 6.218C12.8135 6.218 12.3782 6.09136 12.0029 5.8516C11.9304 5.80506 11.8335 5.82604 11.7873 5.89929C11.7408 5.97214 11.7621 6.06866 11.835 6.1152Z" fill="#0B215D"/>
<path d="M13.2604 4.54935C13.17 4.54935 13.08 4.53733 12.993 4.51368C12.9079 4.49117 12.8236 4.54057 12.8015 4.62354C12.7786 4.70689 12.8278 4.79273 12.9114 4.81542C13.0251 4.84613 13.1425 4.86177 13.2604 4.86177C13.5552 4.86177 13.8251 4.76175 14.0455 4.59839C14.3116 4.68877 14.561 4.81828 14.7836 4.99471C14.8122 5.01741 14.8466 5.02847 14.8805 5.02847C14.9263 5.02847 14.9721 5.00825 15.003 4.96934C15.0568 4.90163 15.0453 4.80341 14.9774 4.74981C14.7689 4.58425 14.5403 4.45181 14.2964 4.35313C14.4749 4.1273 14.586 3.84592 14.586 3.53636C14.586 2.80546 13.9913 2.21094 13.2604 2.21094C13.1792 2.21094 13.0998 2.21818 13.0224 2.2323C12.9373 2.24775 12.8812 2.329 12.8965 2.41388C12.9118 2.49875 12.9903 2.55579 13.0781 2.53977C13.1372 2.52909 13.1982 2.52336 13.2604 2.52336C13.8189 2.52336 14.2732 2.97788 14.2732 3.53636C14.2732 4.09483 13.8189 4.54935 13.2604 4.54935Z" fill="#0B215D"/>
<path d="M6.73982 6.53043C7.24718 6.53043 7.74004 6.3868 8.16576 6.1152C8.23862 6.06866 8.25998 5.97214 8.21344 5.89929C8.1669 5.82604 8.06963 5.80506 7.99791 5.8516C7.62254 6.09136 7.18729 6.218 6.73982 6.218C5.44893 6.218 4.39875 5.16763 4.39875 3.87654C4.39875 2.58546 5.44893 1.53508 6.73982 1.53508C6.98778 1.53508 7.23154 1.57361 7.465 1.64952C7.54778 1.67661 7.63552 1.63121 7.66222 1.5492C7.68854 1.46718 7.64391 1.37906 7.56189 1.35236C7.29715 1.26634 7.02059 1.22266 6.73982 1.22266C5.27651 1.22266 4.08594 2.41322 4.08594 3.87654C4.08594 5.33986 5.2765 6.53043 6.73982 6.53043Z" fill="#0B215D"/>
<path d="M4.99764 4.96934C5.02854 5.00825 5.07431 5.02847 5.12009 5.02847C5.15404 5.02847 5.18837 5.01741 5.21736 4.99471C5.43919 4.81835 5.68855 4.68889 5.95482 4.59848C6.17519 4.7618 6.44508 4.86177 6.73981 4.86177C6.85845 4.86177 6.97594 4.84613 7.08923 4.81523C7.17239 4.79272 7.22161 4.7067 7.19871 4.62354C7.17621 4.54038 7.09114 4.49098 7.00684 4.51387C6.92063 4.53733 6.8306 4.54935 6.73981 4.54935C6.18134 4.54935 5.72701 4.09483 5.72701 3.53636C5.72701 2.97788 6.18134 2.52336 6.73981 2.52336C6.80237 2.52336 6.86302 2.52909 6.92177 2.53977C7.00798 2.5556 7.08847 2.49876 7.10373 2.41407C7.11937 2.32919 7.06291 2.24775 6.97823 2.2323C6.90117 2.21819 6.82144 2.21094 6.73981 2.21094C6.00891 2.21094 5.4142 2.80546 5.4142 3.53636C5.4142 3.84594 5.52531 4.12735 5.70386 4.35318C5.45984 4.45183 5.23131 4.5843 5.02282 4.74981C4.9553 4.8036 4.94423 4.90182 4.99764 4.96934Z" fill="#0B215D"/>
<path d="M16.9873 12.5165L15.6636 11.4869L16.0202 10.5872C16.0378 10.543 16.0714 10.5089 16.1152 10.4905C16.1595 10.4728 16.2075 10.4728 16.251 10.4917L17.0273 10.8289C17.0906 10.8564 17.1315 10.9189 17.1315 10.9882V11.0917C17.1315 11.1875 17.0536 11.2655 16.9579 11.2655H16.2903C16.2041 11.2655 16.1339 11.3355 16.1339 11.4217C16.1339 11.5079 16.2041 11.5779 16.2903 11.5779H16.9579C17.2261 11.5779 17.4443 11.3599 17.4443 11.0917V10.9882C17.4443 10.794 17.3291 10.6189 17.1513 10.5422L16.3754 10.2052C16.2537 10.1522 16.119 10.1512 15.9958 10.2018C15.873 10.2527 15.7784 10.3486 15.7296 10.472L15.4651 11.1391L14.3532 8.69611C14.1552 8.26142 13.7185 7.98047 13.2409 7.98047H6.75969C6.28209 7.98047 5.84531 8.26123 5.64732 8.69611L4.52769 11.1553L4.25687 10.472C4.20804 10.3486 4.11343 10.2527 3.9906 10.2018C3.86777 10.1512 3.73311 10.1522 3.61104 10.2052L2.83551 10.542C2.65737 10.6189 2.54216 10.794 2.54216 10.9882V11.0917C2.54216 11.3599 2.76036 11.5779 3.02854 11.5779H3.69611C3.78232 11.5779 3.85251 11.5079 3.85251 11.4217C3.85251 11.3355 3.78232 11.2655 3.69611 11.2655H3.02854C2.93279 11.2655 2.85496 11.1875 2.85496 11.0917V10.9882C2.85496 10.9189 2.89578 10.8564 2.95949 10.8287L3.7354 10.4917C3.77889 10.4728 3.82695 10.4728 3.8712 10.4905C3.91507 10.5089 3.94864 10.543 3.96619 10.5872L4.32603 11.4951L3.01327 12.5165C2.71306 12.7496 2.54102 13.1011 2.54102 13.4811V16.9792C2.54102 17.4325 2.87568 17.8063 3.31044 17.8744V18.6279C3.31044 19.1263 3.71595 19.5316 4.21452 19.5316H5.28035C5.77893 19.5316 6.18443 19.1263 6.18443 18.6279V18.415C6.18443 18.3288 6.11424 18.2588 6.02803 18.2588C5.94182 18.2588 5.87163 18.3288 5.87163 18.415V18.6279C5.87163 18.9538 5.60651 19.2191 5.28035 19.2191H4.21452C3.88837 19.2191 3.62325 18.9538 3.62325 18.6279V17.8886H13.8161V18.6279C13.8161 19.1263 14.2216 19.5316 14.7202 19.5316H15.786C16.2846 19.5316 16.6901 19.1263 16.6901 18.6279V17.8744C17.1249 17.8063 17.4595 17.4325 17.4595 16.9792V13.4811C17.4595 13.107 17.2829 12.7466 16.9873 12.5165ZM16.3773 18.6279C16.3773 18.9538 16.1122 19.2191 15.786 19.2191H14.7202C14.394 19.2191 14.1289 18.9538 14.1289 18.6279V17.8886H16.3773V18.6279ZM17.1467 16.9792C17.1467 17.3084 16.8789 17.5762 16.5497 17.5762H3.45082C3.12161 17.5762 2.85382 17.3084 2.85382 16.9792V13.4811C2.85382 13.1984 2.98161 12.9367 3.20515 12.7633L4.62117 11.6617C4.641 11.646 4.65664 11.626 4.66732 11.6029L5.93189 8.82562C6.07914 8.50195 6.40415 8.2929 6.75968 8.2929H13.2409C13.5964 8.2929 13.9214 8.50195 14.0686 8.82543L15.3328 11.6029C15.334 11.6054 15.3367 11.6069 15.338 11.6094C15.3471 11.6269 15.3593 11.6424 15.3746 11.6556C15.3766 11.6573 15.3773 11.66 15.3794 11.6617L16.7954 12.7633C17.0155 12.9344 17.1467 13.2028 17.1467 13.4811L17.1467 16.9792Z" fill="#0B215D"/>
<path d="M5.51848 13.9481L3.8713 13.1505C3.87104 13.1505 3.87091 13.1504 3.87091 13.1503C3.77974 13.1068 3.67293 13.1118 3.58634 13.1659C3.49974 13.2201 3.44824 13.3134 3.44824 13.4152V13.6954C3.44824 14.6027 4.18639 15.3407 5.09352 15.3407H6.3291C6.41417 15.3407 6.49237 15.2978 6.53777 15.2259C6.58316 15.1538 6.5885 15.0647 6.55188 14.9877C6.33635 14.5356 5.96938 14.1663 5.51848 13.9481ZM5.09353 15.0283C4.35882 15.0283 3.76105 14.4303 3.76105 13.6954L3.75266 13.4402L5.3823 14.2293C5.73784 14.4015 6.03233 14.6829 6.22154 15.0283H5.09353Z" fill="#0B215D"/>
<path d="M16.3273 13.0546L14.4821 13.9484C14.0312 14.1666 13.6643 14.5357 13.448 14.9881C13.4113 15.065 13.4167 15.1539 13.4621 15.226C13.5079 15.2981 13.5857 15.341 13.6707 15.341H14.9063C15.6826 15.341 16.3605 14.7901 16.5173 14.0312C16.5348 13.9467 16.4806 13.8639 16.396 13.8466C16.3101 13.8281 16.2289 13.8836 16.2113 13.9679C16.0843 14.5824 15.5354 15.0285 14.9063 15.0285H13.7783C13.9679 14.6829 14.2628 14.4016 14.6183 14.2296L16.4639 13.3358C16.5413 13.2982 16.5737 13.2047 16.5363 13.1271C16.499 13.0495 16.4059 13.0172 16.3273 13.0546Z" fill="#0B215D"/>
<path d="M12.6283 15.1172H7.3732C7.28699 15.1172 7.2168 15.1872 7.2168 15.2734C7.2168 15.3596 7.28699 15.4296 7.3732 15.4296H12.6283C12.7145 15.4296 12.7847 15.3596 12.7847 15.2734C12.7847 15.1872 12.7145 15.1172 12.6283 15.1172Z" fill="#0B215D"/>
<path d="M12.0148 16.2461H7.98648C7.90027 16.2461 7.83008 16.3161 7.83008 16.4023C7.83008 16.4885 7.90027 16.5585 7.98648 16.5585H12.0148C12.101 16.5585 12.1712 16.4885 12.1712 16.4023C12.1712 16.3161 12.101 16.2461 12.0148 16.2461Z" fill="#0B215D"/>
<path d="M6.2944 13.5894C6.58164 13.8827 6.98181 14.0509 7.39227 14.0509H12.6089C13.0193 14.0509 13.4195 13.8827 13.7071 13.5894L14.9057 12.3656C14.966 12.304 14.9648 12.205 14.9034 12.1447C14.8412 12.0843 14.7432 12.0852 14.6822 12.147L13.4836 13.3708C13.2547 13.6044 12.9358 13.7385 12.6089 13.7385H7.39226C7.06535 13.7385 6.74644 13.6044 6.51794 13.3708L5.30906 12.1369C5.24802 12.0749 5.1496 12.0742 5.0878 12.1346C5.02639 12.1949 5.02524 12.2939 5.08551 12.3555L6.2944 13.5894Z" fill="#0B215D"/>
<path d="M15.8615 6.56819C15.8714 6.64735 15.9389 6.70533 16.0164 6.70533C16.0229 6.70533 16.0293 6.70495 16.0358 6.70419L17.1593 6.56533C17.2451 6.55484 17.3057 6.47683 17.2954 6.39119C17.2848 6.30536 17.2046 6.24414 17.1211 6.2552L15.9977 6.39405C15.9118 6.40455 15.8512 6.48255 15.8615 6.56819Z" fill="#0B215D"/>
<path d="M15.2149 7.82149C15.1508 7.87909 15.1454 7.9779 15.203 8.04217L15.9698 8.89514C16.0007 8.92947 16.0434 8.94682 16.0861 8.94682C16.1235 8.94682 16.1609 8.93367 16.1907 8.90677C16.2547 8.84917 16.2601 8.75037 16.2025 8.68609L15.4357 7.83313C15.3777 7.76866 15.2786 7.7637 15.2149 7.82149Z" fill="#0B215D"/>
<path d="M3.21643 6.51069L4.31392 6.7886C4.32689 6.79184 4.33986 6.79337 4.35245 6.79337C4.42225 6.79337 4.48596 6.74625 4.50389 6.67549C4.52525 6.59176 4.47452 6.50688 4.39098 6.48571L3.29349 6.20781C3.20842 6.18702 3.1245 6.23737 3.10352 6.32091C3.08215 6.40465 3.13289 6.48952 3.21643 6.51069Z" fill="#0B215D"/>
<path d="M4.76918 7.98329L3.90172 8.73383C3.83649 8.79048 3.82924 8.88909 3.88569 8.95432C3.91659 8.98999 3.96008 9.0083 4.00395 9.0083C4.04019 9.0083 4.07681 8.9959 4.10618 8.97034L4.97364 8.21961C5.03887 8.16315 5.04612 8.06454 4.98967 7.99931C4.93321 7.93427 4.83403 7.92683 4.76918 7.98329Z" fill="#0B215D"/>
</svg>
