<svg width="246" height="240" viewBox="0 0 246 240" fill="none" xmlns="http://www.w3.org/2000/svg">
<path d="M241.766 100.216C236.929 68.5548 233.046 46.674 215.579 34.684C186.116 14.4599 153.212 47.2914 111.476 25.261C90.9276 14.4141 90.1573 1.83805 72.7541 0.16876C41.964 -2.78453 16.7489 33.9603 14.5637 37.1115C1.28634 56.2579 -3.14878 79.6041 2.23374 101.862C5.72951 116.318 8.09197 131.28 7.44354 146.136C6.3152 171.989 6.96448 196.122 32.055 211.54C54.4578 225.307 82.6524 237.449 109.55 239.576C127.83 241.021 148.329 238.682 165.947 233.923C255.733 209.669 248.417 143.749 241.766 100.216Z" fill="#F4F7FA"/>
<path d="M119.858 188.743C125.141 179.233 131.42 164.524 130.713 146.798C129.787 123.55 117.659 115.539 107.052 79.0768C100.346 56.0222 95.8976 39.8653 104.687 27.644C111.576 18.0668 125.769 12.0532 136.626 15.4046C145.654 18.1913 153.433 27.7789 157.241 35.1814C160.345 41.2145 160.975 46.115 165.725 48.295C170.579 50.5228 174.01 47.2815 178.335 48.6977C187.106 51.5696 188.454 69.9616 188.672 72.9341C191.096 106 169.45 135.761 159.852 148.629C151.916 159.269 139.135 174.154 119.858 188.743Z" fill="#283593" fill-opacity="0.56"/>
<mask id="mask0_6616_14575" style="mask-type:luminance" maskUnits="userSpaceOnUse" x="99" y="14" width="90" height="175">
<path d="M119.858 188.743C125.141 179.233 131.42 164.524 130.713 146.798C129.787 123.55 117.659 115.539 107.052 79.0768C100.346 56.0222 95.8976 39.8653 104.687 27.644C111.576 18.0668 125.769 12.0532 136.626 15.4046C145.654 18.1913 153.433 27.7789 157.241 35.1814C160.345 41.2145 160.975 46.115 165.725 48.295C170.579 50.5228 174.01 47.2815 178.335 48.6977C187.106 51.5696 188.454 69.9616 188.672 72.9341C191.096 106 169.45 135.761 159.852 148.629C151.916 159.269 139.135 174.154 119.858 188.743Z" fill="white"/>
</mask>
<g mask="url(#mask0_6616_14575)">
<g opacity="0.5">
<path d="M113.097 197.252L112.574 196.596C132.822 180.447 156.534 155.157 154.517 126.388C153.775 115.809 149.663 105.911 143.972 92.2126C139.428 81.2747 135.221 73.9321 131.509 67.454C126.653 58.9782 122.817 52.2836 120.542 41.5105C118.234 30.579 118.352 18.9406 120.891 6.91797L121.712 7.09163C119.197 18.9989 119.08 30.5209 121.363 41.3369C123.611 51.9811 127.418 58.6251 132.238 67.037C135.962 73.5367 140.183 80.9036 144.747 91.8895C150.253 105.145 154.602 115.614 155.354 126.329C156.315 140.035 151.528 154.286 141.125 168.687C134.102 178.409 124.672 188.02 113.097 197.252Z" fill="white"/>
<path d="M141.219 84.4644L140.748 84.4165C140.663 84.4077 132.099 83.489 122.139 78.1808C112.946 73.2821 100.634 63.5355 94.1797 44.9232L94.9725 44.6484C101.332 62.9883 113.453 72.5945 122.502 77.4237C131 81.9587 138.454 83.2498 140.362 83.5208C140.006 61.2359 146.834 44.9971 152.649 35.2737C159.003 24.65 165.569 19.2794 165.635 19.2266L166.162 19.8789C166.097 19.9312 159.626 25.2301 153.349 35.7387C147.557 45.4331 140.75 61.6737 141.21 83.9901L141.219 84.4644Z" fill="white"/>
<path d="M152.573 114.386L152.332 114.199C152.224 114.115 141.378 105.714 128.858 99.4202C116.422 93.169 93.2124 97.0475 92.9797 97.0873L92.8379 96.2601C93.8003 96.0952 116.553 92.2959 129.236 98.6707C140.787 104.477 150.919 112.066 152.603 113.349C161.218 107.321 168.843 92.0831 174.665 69.2455C179.119 51.7757 180.97 35.8853 180.988 35.7266L181.822 35.8225C181.804 35.9815 179.946 51.9286 175.478 69.4527C169.463 93.0439 161.842 108.104 152.825 114.215L152.573 114.386Z" fill="white"/>
<path d="M143.682 164.861L143.859 164.044C146.491 151.824 142.15 141.266 130.958 132.664C122.578 126.222 113.304 123.371 113.211 123.343L113.454 122.539C113.548 122.568 122.969 125.465 131.47 131.998C142.526 140.496 147.139 151.335 144.847 163.39C147.499 162.094 156.83 157.303 167.76 149.067C179.647 140.11 195.91 125.128 205.884 104.62L225.27 64.7578L226.025 65.1249L206.639 104.987C196.588 125.653 180.214 140.737 168.248 149.751C155.286 159.515 144.55 164.465 144.443 164.514L143.682 164.861Z" fill="white"/>
</g>
</g>
<path d="M101.083 207.242C118.079 209.73 140.086 210.475 162.168 203.976C167.804 202.318 202.617 192.074 200.83 176.619C200.2 171.175 195.561 169.682 194.592 162.419C193.444 153.812 199.223 150.398 204.269 140.575C207.279 134.714 216.091 117.56 206.68 106.069C201.057 99.2021 189.181 94.6683 179.537 95.546C165.393 96.8332 158.823 109.51 148.079 131.153C138.554 150.338 139.591 155.518 132.491 169.213C127.222 179.377 118.055 193.105 101.083 207.242Z" fill="#D8DEE8"/>
<mask id="mask1_6616_14575" style="mask-type:luminance" maskUnits="userSpaceOnUse" x="101" y="95" width="110" height="115">
<path d="M101.083 207.242C118.079 209.73 140.086 210.475 162.168 203.976C167.804 202.318 202.617 192.074 200.83 176.619C200.2 171.175 195.561 169.682 194.592 162.419C193.444 153.812 199.223 150.398 204.269 140.575C207.279 134.714 216.091 117.56 206.68 106.069C201.057 99.2021 189.181 94.6683 179.537 95.546C165.393 96.8332 158.823 109.51 148.079 131.153C138.554 150.338 139.591 155.518 132.491 169.213C127.222 179.377 118.055 193.105 101.083 207.242Z" fill="white"/>
</mask>
<g mask="url(#mask1_6616_14575)">
<g opacity="0.5">
<path d="M71.5314 211.595C56.9273 211.596 42.1441 208.478 27.4502 202.286L27.7761 201.513C45.6995 209.065 63.7541 212.012 81.4369 210.271C144.711 204.04 176.632 137.619 184.908 117.41C189.601 105.948 190.851 92.7045 188.621 78.0481L189.451 77.9219C191.704 92.7305 190.436 106.123 185.684 117.728C178.87 134.368 166.531 158.414 146.445 178.481C127.118 197.79 105.273 208.766 81.519 211.105C78.2022 211.432 74.8706 211.595 71.5314 211.595Z" fill="white"/>
<path d="M168.627 150.16L168.433 149.837C168.393 149.771 164.444 143.149 161.851 133.519C159.455 124.621 157.755 111.252 163.261 98.0974L164.035 98.4213C158.62 111.357 160.299 124.529 162.661 133.301C164.9 141.616 168.152 147.645 168.963 149.078C208.228 130.66 211.604 103.832 211.702 96.0306C211.705 95.7813 211.706 95.6992 211.716 95.6328L212.546 95.7568L212.131 95.6948L212.547 95.7489C212.543 95.7939 212.543 95.8924 212.541 96.0412C212.441 103.99 209.005 131.372 168.969 150.001L168.627 150.16Z" fill="white"/>
<path d="M170.761 182.001C163.801 182.001 155.675 180.976 146.364 178.253L146.149 178.189L146.082 177.975C146.012 177.754 139.198 155.509 145.292 127.412L151.434 99.0977L152.254 99.2753L146.113 127.59C140.385 153.995 146.14 175.171 146.819 177.511C168.307 183.747 183.365 180.843 192.224 177.301C201.85 173.451 206.435 168.039 206.481 167.985L207.126 168.522C206.937 168.749 202.391 174.126 192.588 178.059C187.41 180.137 180.145 182.001 170.761 182.001Z" fill="white"/>
</g>
</g>
<path d="M142.543 21.3616L160.178 219.249C160.445 222.245 158.365 224.91 155.549 225.169L60.1363 234.996C54.4279 235.3 51.4072 232.204 51.1508 229.092L34.2252 23.6347C33.9753 20.6015 36.8103 17.7426 42.45 17.5349L136.988 16.1454C139.785 16.0919 142.283 18.4387 142.543 21.3616Z" fill="url(#paint0_linear_6616_14575)"/>
<path d="M146.878 20.8693L164.672 219.941C164.942 222.956 162.85 225.636 160.019 225.897L61.016 235.034C57.9805 235.314 55.2807 232.981 55.0219 229.85L37.9459 23.1521C37.6939 20.1007 39.9574 17.5579 42.9705 17.5003L141.289 15.622C144.102 15.5683 146.615 17.9292 146.878 20.8693Z" fill="url(#paint1_linear_6616_14575)"/>
<path d="M95.2963 22.5525C95.3857 23.5904 94.6409 24.4496 93.6321 24.4715C92.6226 24.4935 91.7313 23.6689 91.642 22.6299C91.5527 21.591 92.2991 20.732 93.3085 20.7113C94.3172 20.6907 95.2069 21.515 95.2963 22.5525Z" fill="#FFC444"/>
<mask id="mask2_6616_14575" style="mask-type:luminance" maskUnits="userSpaceOnUse" x="43" y="26" width="117" height="205">
<path d="M138.926 26.251L47.2136 28.2736C44.8276 28.3262 43.065 30.325 43.2805 32.7376L60.5673 226.139C60.7802 228.52 62.8645 230.264 65.2187 230.035L155.731 221.207C157.925 220.993 159.541 218.96 159.343 216.665L143.31 30.3694C143.11 28.046 141.148 26.2019 138.926 26.251Z" fill="white"/>
</mask>
<g mask="url(#mask2_6616_14575)">
<path d="M148.108 86.1342L48.4555 90.6388L45.8467 61.452L145.689 58.0234L148.108 86.1342Z" fill="white"/>
</g>
<mask id="mask3_6616_14575" style="mask-type:luminance" maskUnits="userSpaceOnUse" x="43" y="26" width="117" height="205">
<path d="M138.926 26.251L47.2136 28.2736C44.8276 28.3262 43.065 30.325 43.2805 32.7376L60.5673 226.139C60.7802 228.52 62.8645 230.264 65.2187 230.035L155.731 221.207C157.925 220.993 159.541 218.96 159.343 216.665L143.31 30.3694C143.11 28.046 141.148 26.2019 138.926 26.251Z" fill="white"/>
</mask>
<g mask="url(#mask3_6616_14575)">
<path d="M159.771 221.641L61.0291 231.303L47.1123 75.6028L146.863 71.6523L159.771 221.641Z" fill="#D8DEE8"/>
<path d="M146.476 67.1594L46.6954 70.9381L42.5332 24.3714L142.616 22.3125L146.476 67.1594Z" fill="#7567F5"/>
<path d="M134.618 45.6177L98.644 46.6768L98.3242 43.0252L134.307 42.0156L134.618 45.6177Z" fill="white"/>
<path d="M135.213 52.5028L99.2553 53.6565L98.9355 50.0066L134.902 48.9023L135.213 52.5028Z" fill="white"/>
<mask id="mask4_6616_14575" style="mask-type:luminance" maskUnits="userSpaceOnUse" x="47" y="71" width="113" height="161">
<path d="M159.771 221.641L61.0291 231.303L47.1123 75.6028L146.863 71.6523L159.771 221.641Z" fill="white"/>
</mask>
<g mask="url(#mask4_6616_14575)">
<path d="M165.543 230.247C164.72 230.247 163.913 229.848 163.422 229.112L119.319 162.846L75.2692 166.06L48.405 221.536C47.7925 222.801 46.2709 223.329 45.0063 222.717C43.7416 222.105 43.2129 220.583 43.8252 219.319L71.3296 162.521C71.7256 161.702 72.528 161.158 73.4343 161.092L120.429 157.663C121.347 157.598 122.224 158.027 122.732 158.79L167.659 226.292C168.437 227.462 168.12 229.041 166.95 229.82C166.517 230.109 166.027 230.247 165.543 230.247Z" fill="white"/>
<path d="M105.246 235.09C103.942 235.09 102.831 234.093 102.715 232.769L96.5376 162.506L46.7858 67.6523C46.1331 66.408 46.6127 64.8702 47.8571 64.2174C49.1017 63.5647 50.6393 64.0444 51.2919 65.2887L101.28 160.593C101.437 160.891 101.532 161.217 101.562 161.552L107.783 232.323C107.906 233.723 106.872 234.957 105.472 235.08C105.396 235.087 105.321 235.09 105.246 235.09Z" fill="white"/>
<path d="M102.308 200.912C101.386 200.912 100.602 200.207 100.521 199.272C100.434 198.283 101.166 197.413 102.154 197.326L133.631 194.582L122.897 70.9165C122.812 69.9286 123.543 69.0578 124.531 68.9721C125.516 68.8835 126.39 69.6178 126.476 70.6061L137.365 196.06C137.45 197.048 136.719 197.918 135.731 198.004L102.466 200.905C102.413 200.909 102.36 200.912 102.308 200.912Z" fill="white"/>
<path d="M156.639 169.807C156.37 169.807 156.102 169.705 155.897 169.5L100.092 113.61C97.7413 114.373 88.9965 117.206 80.282 119.913C74.3215 121.765 69.5392 123.197 66.0678 124.169C63.9942 124.751 62.3655 125.173 61.2269 125.427C60.9212 125.495 60.6437 125.554 60.3914 125.602C62.1438 130.602 69.52 150.007 74.5973 163.254C74.8044 163.794 74.5343 164.4 73.9939 164.607C73.4536 164.813 72.8477 164.544 72.6408 164.004C72.6035 163.907 68.8729 154.172 65.223 144.545C63.0788 138.89 61.3816 134.377 60.1782 131.132C59.4625 129.202 58.9153 127.704 58.5519 126.679C58.3568 126.128 58.2072 125.693 58.1108 125.394C57.9664 124.946 57.6977 124.113 58.4937 123.687C58.7664 123.541 59.0856 123.534 59.3639 123.64C62.1232 123.507 85.6391 116.122 100.054 111.419C100.43 111.297 100.842 111.395 101.12 111.674L157.38 168.02C157.789 168.429 157.788 169.093 157.379 169.501C157.174 169.705 156.906 169.807 156.639 169.807ZM59.8554 124.011C59.8586 124.016 59.8619 124.02 59.8649 124.024C59.8617 124.02 59.8586 124.016 59.8554 124.011Z" fill="white"/>
<path d="M100.378 113.462C99.8411 113.462 99.3838 113.051 99.3359 112.506L94.8654 61.5462C94.8148 60.9698 95.2412 60.4618 95.8176 60.4112C96.393 60.3548 96.9021 60.7868 96.9528 61.3632L101.423 112.323C101.474 112.899 101.048 113.407 100.471 113.458C100.44 113.461 100.409 113.462 100.378 113.462Z" fill="white"/>
</g>
<mask id="mask5_6616_14575" style="mask-type:luminance" maskUnits="userSpaceOnUse" x="47" y="71" width="113" height="161">
<path d="M159.771 221.641L61.0291 231.303L47.1123 75.6028L146.863 71.6523L159.771 221.641Z" fill="white"/>
</mask>
<g mask="url(#mask5_6616_14575)">
<path d="M163.612 225.375C163.343 225.375 163.078 225.245 162.917 225.004L161.058 222.223C160.802 221.839 160.905 221.32 161.289 221.063C161.672 220.807 162.191 220.91 162.448 221.294L164.306 224.075C164.563 224.459 164.46 224.978 164.076 225.234C163.934 225.33 163.772 225.375 163.612 225.375ZM158.782 218.147C158.513 218.147 158.248 218.017 158.087 217.776L155.115 213.329C154.858 212.945 154.962 212.426 155.345 212.17C155.729 211.914 156.248 212.017 156.504 212.4L159.476 216.847C159.733 217.231 159.63 217.75 159.246 218.006C159.103 218.102 158.942 218.147 158.782 218.147ZM152.838 209.254C152.569 209.254 152.304 209.124 152.143 208.882L149.171 204.436C148.915 204.052 149.018 203.533 149.402 203.277C149.786 203.02 150.305 203.123 150.561 203.507L153.532 207.954C153.789 208.338 153.686 208.857 153.302 209.113C153.159 209.208 152.998 209.254 152.838 209.254ZM146.895 200.361C146.625 200.361 146.361 200.23 146.2 199.989L143.228 195.542C142.972 195.159 143.075 194.64 143.459 194.383C143.843 194.127 144.361 194.23 144.618 194.614L147.589 199.06C147.846 199.444 147.742 199.963 147.359 200.22C147.216 200.315 147.055 200.361 146.895 200.361ZM140.952 191.467C140.682 191.467 140.417 191.337 140.256 191.096L137.285 186.649C137.028 186.265 137.131 185.746 137.515 185.49C137.899 185.233 138.418 185.337 138.674 185.72L141.646 190.167C141.902 190.551 141.799 191.07 141.415 191.326C141.273 191.422 141.111 191.467 140.952 191.467ZM135.008 182.574C134.739 182.574 134.474 182.443 134.313 182.202L131.341 177.756C131.085 177.372 131.188 176.853 131.572 176.596C131.956 176.34 132.475 176.443 132.731 176.827L135.702 181.273C135.959 181.657 135.856 182.176 135.472 182.433C135.329 182.528 135.168 182.574 135.008 182.574ZM129.065 173.68C128.795 173.68 128.531 173.55 128.369 173.309L125.398 168.862C125.141 168.478 125.244 167.959 125.628 167.703C126.012 167.446 126.531 167.55 126.787 167.934L129.759 172.38C130.016 172.764 129.912 173.283 129.529 173.539C129.386 173.635 129.225 173.68 129.065 173.68ZM123.121 164.787C122.852 164.787 122.587 164.657 122.426 164.416L120.189 161.068L119.841 161.094C119.378 161.128 118.98 160.781 118.946 160.321C118.913 159.861 119.259 159.461 119.719 159.427L121.038 159.331L123.816 163.487C124.072 163.871 123.969 164.39 123.585 164.646C123.442 164.741 123.281 164.787 123.121 164.787ZM98.5409 162.648L98.0148 161.645C97.8004 161.236 97.9578 160.731 98.3667 160.517C98.7749 160.302 99.2804 160.46 99.4949 160.869L99.512 160.901L103.717 160.594C104.176 160.557 104.577 160.907 104.611 161.367C104.644 161.827 104.299 162.228 103.838 162.261L98.5409 162.648ZM109.111 161.874C108.677 161.874 108.31 161.539 108.278 161.1C108.245 160.639 108.591 160.239 109.051 160.205L114.385 159.816C114.845 159.779 115.246 160.128 115.279 160.588C115.313 161.049 114.967 161.449 114.507 161.483L109.173 161.872C109.152 161.874 109.131 161.874 109.111 161.874ZM96.2713 157.356C95.9706 157.356 95.68 157.193 95.5307 156.909L93.0463 152.172C92.8319 151.764 92.9895 151.258 93.3982 151.044C93.8062 150.83 94.3119 150.987 94.5263 151.396L97.0107 156.132C97.2251 156.541 97.0675 157.046 96.6588 157.26C96.535 157.325 96.4022 157.356 96.2713 157.356ZM91.3027 147.884C91.002 147.884 90.7114 147.721 90.5621 147.436L88.0779 142.7C87.8634 142.291 88.0211 141.786 88.4297 141.571C88.8377 141.357 89.3436 141.514 89.5579 141.923L92.0421 146.66C92.2565 147.068 92.0989 147.573 91.6902 147.788C91.5663 147.853 91.4336 147.884 91.3027 147.884ZM86.3342 138.411C86.0335 138.411 85.7429 138.248 85.5935 137.963L83.1094 133.227C82.8949 132.818 83.0525 132.313 83.4612 132.099C83.8692 131.885 84.3749 132.042 84.5894 132.451L87.0736 137.187C87.288 137.596 87.1304 138.101 86.7217 138.315C86.5978 138.38 86.4651 138.411 86.3342 138.411ZM81.3657 128.938C81.0651 128.938 80.7743 128.775 80.625 128.491L78.1409 123.754C77.9264 123.346 78.084 122.841 78.4927 122.626C78.9006 122.412 79.4066 122.569 79.6209 122.978L82.1051 127.714C82.3195 128.123 82.1619 128.628 81.7532 128.842C81.6293 128.907 81.4966 128.938 81.3657 128.938ZM76.3972 119.466C76.0964 119.466 75.8058 119.303 75.6565 119.018L73.1722 114.282C72.9577 113.873 73.1153 113.368 73.524 113.153C73.9324 112.939 74.4379 113.096 74.6522 113.505L77.1365 118.242C77.351 118.65 77.1934 119.156 76.7847 119.37C76.6608 119.435 76.5281 119.466 76.3972 119.466ZM71.4287 109.993C71.1281 109.993 70.8374 109.83 70.6881 109.545L68.2037 104.809C67.9893 104.4 68.1469 103.895 68.5557 103.681C68.9642 103.466 69.4694 103.624 69.6838 104.033L72.1682 108.769C72.3826 109.178 72.225 109.683 71.8163 109.897C71.6923 109.962 71.5596 109.993 71.4287 109.993ZM66.4602 100.52C66.1595 100.52 65.8689 100.358 65.7196 100.073L63.2352 95.3363C63.0208 94.9276 63.1784 94.4225 63.5872 94.2082C63.9952 93.994 64.5007 94.1512 64.7153 94.56L67.1997 99.2964C67.4141 99.7051 67.2565 100.21 66.8478 100.425C66.7238 100.49 66.5911 100.52 66.4602 100.52ZM61.4917 91.0478C61.1909 91.0478 60.9004 90.8849 60.7511 90.6001L58.2667 85.8637C58.0522 85.455 58.2099 84.9498 58.6186 84.7355C59.0269 84.5212 59.5323 84.6784 59.7467 85.0875L62.2311 89.8239C62.4455 90.2326 62.2879 90.7378 61.8792 90.952C61.7553 91.0169 61.6226 91.0478 61.4917 91.0478ZM56.5231 81.5752C56.2223 81.5752 55.9318 81.4123 55.7824 81.1275L53.2983 76.3911C53.0838 75.9824 53.2414 75.4772 53.6501 75.2629C54.0583 75.0486 54.5638 75.2059 54.7783 75.6148L57.2625 80.3512C57.4769 80.7598 57.3193 81.265 56.9106 81.4793C56.7867 81.5443 56.654 81.5752 56.5231 81.5752ZM53.2176 71.6001C52.7945 71.6001 52.4317 71.2803 52.3873 70.8503L51.8379 65.5303C51.7906 65.0712 52.1242 64.6606 52.5833 64.6132C53.042 64.5668 53.453 64.8994 53.5005 65.3586L54.0498 70.6786C54.0971 71.1378 53.7635 71.5485 53.3044 71.5958C53.2752 71.5987 53.2463 71.6001 53.2176 71.6001ZM52.1187 60.9602C51.6956 60.9602 51.3328 60.6403 51.2884 60.2103L50.7388 54.8902C50.6915 54.4311 51.0251 54.0206 51.4843 53.9731C51.9434 53.9266 52.354 54.2592 52.4014 54.7186L52.951 60.0386C52.9985 60.4977 52.6647 60.9082 52.2056 60.9557C52.1763 60.9587 52.1474 60.9602 52.1187 60.9602Z" fill="#AA80F9"/>
</g>
</g>
<g opacity="0.48">
<path d="M123.09 156.712C113.492 123.178 85.5085 126.531 77.1398 96.2304C70.2665 71.3442 86.1148 58.2252 76.5014 37.3902C71.98 27.5912 64.0591 20.9654 55.8452 16.4375L42.9706 16.6835C39.9574 16.7412 37.6941 19.2839 37.9459 22.3352L55.0218 229.033C55.2806 232.164 57.9807 234.497 61.016 234.217L142.189 226.726C136.999 220.142 132.074 212.083 128.656 202.404C121.421 181.916 128.397 175.255 123.09 156.712Z" fill="white"/>
</g>
<path d="M127.974 105.741C127.974 117.135 112.012 137.925 104.788 146.751C102.991 148.947 99.6304 148.947 97.8328 146.751C90.6092 137.925 74.6475 117.135 74.6475 105.741C74.6475 91.0156 86.5849 79.0781 101.311 79.0781C116.036 79.0781 127.974 91.0156 127.974 105.741Z" fill="#7567F5"/>
<path d="M111.824 116.257C117.631 110.45 117.631 101.034 111.824 95.2273C106.017 89.4201 96.6014 89.4201 90.7942 95.2273C84.987 101.035 84.9869 110.45 90.7941 116.257C96.6013 122.064 106.017 122.064 111.824 116.257Z" fill="white"/>
<g opacity="0.3">
<path d="M101.193 135.802C102.884 124.662 110.241 121.096 108.978 110.577C107.522 98.4459 96.7806 95.2148 96.5214 84.4179C96.4797 82.6797 96.7162 81.0034 97.1622 79.3984C84.4069 81.3911 74.6475 92.4253 74.6475 105.74C74.6475 117.133 90.6092 137.924 97.8328 146.749C98.8908 148.042 100.49 148.573 101.994 148.344C100.701 143.465 100.662 139.298 101.193 135.802Z" fill="#7567F5"/>
</g>
<path d="M101.31 165.173C104.32 165.173 106.76 162.733 106.76 159.723C106.76 156.713 104.32 154.273 101.31 154.273C98.3003 154.273 95.8604 156.713 95.8604 159.723C95.8604 162.733 98.3003 165.173 101.31 165.173Z" fill="#7567F5"/>
<path d="M65.7881 39.6724C65.7881 39.6724 65.7925 39.6342 65.8035 39.6313C65.8091 39.6298 65.8153 39.6097 65.8237 39.6076C65.8365 39.6047 65.8512 39.5924 65.8682 39.5887C65.9301 39.5759 66.0219 39.5524 66.1418 39.5277C66.3585 39.4839 66.6586 39.4264 67.0381 39.3724C67.4185 39.3152 67.8754 39.2674 68.4043 39.2278C68.9323 39.1972 69.5314 39.1741 70.189 39.1964C70.8463 39.2215 71.5648 39.2695 72.3233 39.3946C72.4183 39.409 72.5141 39.4236 72.6104 39.4384C72.7067 39.4548 72.8028 39.4758 72.9001 39.4948C73.0946 39.5349 73.2917 39.5755 73.4909 39.6166C73.8848 39.721 74.2942 39.8134 74.6984 39.9539C74.9009 40.0223 75.1097 40.0816 75.3121 40.1621C75.5154 40.2426 75.72 40.3235 75.9259 40.405L76.0807 40.4674L76.2318 40.5381C76.3327 40.5859 76.4339 40.6337 76.5353 40.6817C76.7367 40.7808 76.9464 40.8708 77.1406 40.9864C77.3382 41.0986 77.5364 41.2111 77.7353 41.324C77.8364 41.379 77.9306 41.4429 78.0257 41.506L78.3115 41.6966C78.7014 41.9442 79.0538 42.233 79.4141 42.519C79.5992 42.6585 79.7565 42.8186 79.9261 42.9709C80.0914 43.1258 80.2618 43.2789 80.4209 43.4384C80.5727 43.6029 80.7241 43.7669 80.8751 43.9305C81.0248 44.0955 81.1795 44.2588 81.3085 44.4322C81.8599 45.1114 82.339 45.8162 82.7372 46.5162C82.8339 46.6922 82.9297 46.8665 83.0247 47.0392C83.0718 47.1261 83.1187 47.2125 83.1653 47.2984C83.2117 47.3845 83.2471 47.471 83.288 47.5568C83.4455 47.9 83.6001 48.238 83.7451 48.5686C83.9894 49.2274 84.2406 49.8594 84.3938 50.4385C84.4783 50.7284 84.5619 51.0077 84.6344 51.2728C84.6942 51.5366 84.7508 51.7866 84.8041 52.0213C84.8563 52.2571 84.9052 52.4777 84.9504 52.6815C84.9884 52.8841 85.0156 53.0688 85.0439 53.2367C85.1513 53.9087 85.2126 54.292 85.2126 54.292L76.1584 55.0184C76.1584 55.0184 76.1721 54.7372 76.1962 54.2443C76.2018 54.1209 76.212 53.9818 76.2163 53.8336C76.2146 53.6881 76.213 53.5307 76.2112 53.3623C76.2103 53.1926 76.2093 53.0119 76.2084 52.8213C76.1954 52.6366 76.1817 52.4422 76.1674 52.2394C76.1539 51.8218 76.0749 51.4088 76.0196 50.9479C75.9738 50.7292 75.9266 50.5042 75.8784 50.2742C75.8655 50.2169 75.8571 50.1556 75.8407 50.1004C75.8243 50.0451 75.8078 49.9894 75.7913 49.9334C75.7587 49.8203 75.726 49.7062 75.6928 49.591C75.555 49.1328 75.3763 48.6828 75.163 48.2446C75.1163 48.1286 75.0514 48.0286 74.9915 47.9228C74.9316 47.8161 74.8714 47.709 74.8111 47.6017C74.7459 47.4984 74.6733 47.4016 74.6053 47.299C74.534 47.1997 74.4734 47.0878 74.3911 46.998C74.2345 46.8099 74.0873 46.6066 73.9083 46.4352L73.7801 46.2992C73.7376 46.2534 73.696 46.2062 73.6475 46.1668C73.5541 46.0828 73.461 45.9988 73.3682 45.9153C72.9832 45.5925 72.573 45.2879 72.1248 45.0432C71.9093 44.908 71.6726 44.8073 71.4493 44.6902C71.3318 44.64 71.2156 44.5904 71.1008 44.5414C71.043 44.5171 70.9864 44.4905 70.9281 44.468C70.8691 44.4466 70.8104 44.4253 70.7521 44.4041C70.2891 44.2245 69.8202 44.0989 69.3805 43.9918C68.939 43.8871 68.521 43.8214 68.1481 43.7686C67.7753 43.7243 67.4452 43.6919 67.1785 43.6804C66.9113 43.6656 66.7042 43.6629 66.5761 43.6624C66.5445 43.6623 66.5166 43.6621 66.4926 43.6619C66.4783 43.6608 66.4688 43.7326 66.4592 43.7319C66.4539 43.7315 66.4534 43.8034 66.448 43.8036C66.4395 43.804 66.4324 43.8044 66.4267 43.8046C66.4153 43.8052 66.4096 43.8054 66.4096 43.8054L65.7881 39.6724Z" fill="white"/>
<path d="M67.6534 47.3375L56.7432 42.2162L67.2648 35.6406L67.6534 47.3375Z" fill="white"/>
<path d="M86.5785 62.9743L58.6808 64.3053L58.4824 59.9953L86.5785 58.5742V62.9743Z" fill="white"/>
<path d="M37.3236 221.664C35.6091 223.05 35.512 224.035 35.5675 224.514C35.6569 225.288 36.2399 225.588 37.6353 227.048C39.5226 229.023 39.2339 229.287 40.1953 230.002C42.3169 231.578 45.3171 231.474 45.498 230.938C45.625 230.561 44.2683 230.254 42.724 228.466C41.2991 226.816 40.8168 225.18 40.6879 224.701C40.4535 223.828 40.3927 223.074 40.3811 222.552L37.3236 221.664Z" fill="#444B8C"/>
<path d="M43.0658 217.44L39.6896 223.324C38.8766 223.684 38.099 223.502 37.3779 222.453L38.6953 215.301L43.0658 217.44Z" fill="#9D6C5B"/>
<path d="M47.1584 141.98C50.4477 147.532 55.7829 158.249 56.8624 172.739C57.9278 187.042 54.3199 197.942 52.8086 202.008C49.977 209.624 45.0523 217.622 42.1917 221.434C40.2624 220.628 39.1266 219.362 37.1971 218.555C37.4869 217.505 38.3815 214.038 38.9446 211.974C39.381 210.374 40.1854 207.414 40.3508 206.781C41.7361 201.484 40.6425 197.509 41.0237 190.957C41.4684 183.317 43.2189 184.204 42.9556 179.617C42.5624 172.768 38.6813 171.169 34.2255 161.254C31.1756 154.468 27.9724 147.34 30.9165 143.443C34.6223 138.538 45.8996 141.622 47.1584 141.98Z" fill="black"/>
<path d="M23.3579 227.044C22.3294 227.699 21.7088 229.253 22.1773 230.232C22.6379 231.194 23.8119 230.89 26.6636 231.767C29.718 232.706 30.3223 233.654 32.5739 233.652C33.4836 233.651 35.1328 233.495 35.2706 232.883C35.3673 232.453 34.6672 232.025 32.362 230.476C29.0896 228.277 29.1235 228.216 28.393 227.878C26.5583 227.031 24.7157 226.181 23.3579 227.044Z" fill="#444B8C"/>
<path d="M28.2429 222.383L26.9892 228.109C26.8141 228.366 25.0289 228.978 23.7783 228.109L24.2392 222.383H28.2429Z" fill="#9D6C5B"/>
<path opacity="0.3" d="M30.9165 143.443C34.6222 138.538 45.8995 141.622 47.1583 141.98C48.5099 144.261 50.2054 147.428 51.8105 151.356C47.8138 150.57 46.079 151.284 45.2706 152.232C42.133 155.911 51.9569 164.035 49.9368 176.362C49.1467 181.183 47.0847 183.353 47.462 189.241C47.7427 193.623 49.1039 195.841 50.0448 199.049C50.6094 200.973 51.0467 203.34 51.0675 206.201C48.242 212.412 44.5284 218.32 42.1915 221.435C40.2622 220.628 39.1264 219.362 37.1969 218.555C37.4867 217.506 38.3813 214.039 38.9444 211.974C39.3808 210.374 40.1852 207.414 40.3506 206.781C41.7359 201.484 40.6423 197.509 41.0235 190.957C41.4682 183.317 43.2187 184.205 42.9554 179.617C42.5622 172.768 38.6811 171.169 34.2253 161.254C31.1757 154.468 27.9724 147.34 30.9165 143.443Z" fill="black"/>
<path d="M38.3514 144.991C38.6695 157.768 38.1877 172.574 36.0852 188.893C34.3735 202.179 31.8845 214.165 29.1427 224.682C28.7635 224.896 27.4334 225.585 25.73 225.262C24.5239 225.034 23.7168 224.409 23.3577 224.092C23.6569 221.943 23.9602 218.693 23.7119 214.765C23.2851 208.012 21.6953 206.637 21.013 199.649C20.4146 193.522 21.0451 188.516 21.3507 186.194C22.2914 179.05 23.5684 178.903 23.5938 174.624C23.6329 168.036 20.6204 165.676 18.9643 159.399C17.8596 155.212 17.2739 148.96 20.052 140.387C26.1517 141.921 32.2515 143.456 38.3514 144.991Z" fill="black"/>
<path d="M44.8701 94.0117C47.1102 95.2697 50.2217 97.3537 53.1218 100.675C59.8106 108.335 63.9473 120.939 59.6482 125.063C56.7234 127.868 49.7863 127.019 47.397 123.689C45.6395 121.24 46.9045 118.232 47.5115 113.957C48.1645 109.356 48.141 102.685 44.8701 94.0117Z" fill="#7567F5"/>
<path d="M18.8961 143.467C21.3727 110.821 29.2693 97.4564 28.5791 93.4893C29.5729 92.7748 33.4994 91.639 42.3947 92.8099C43.1549 93.0892 45.184 93.908 47.1951 95.7464C47.1951 95.7464 47.6626 96.1726 48.302 96.9215C42.053 98.1016 35.6874 101.66 33.396 106.701C29.4268 116.341 36.7983 127.115 33.396 135.62C31.6081 140.09 28.7477 144.052 25.3331 147.756C21.4289 146.782 18.7534 145.349 18.8961 143.467Z" fill="#7567F5"/>
<path opacity="0.3" d="M20.052 140.387C21.8376 140.836 23.6233 141.285 25.4088 141.735C24.475 144.952 23.578 149.78 24.6563 155.262C26.1452 162.832 29.9934 164.493 30.5593 171.319C31.0685 177.46 28.1694 178.712 26.7814 186.903C25.3591 195.297 27.5118 199.244 27.962 206.264C28.2702 211.069 27.77 217.355 24.8467 225.005C24.1246 224.719 23.6202 224.324 23.3577 224.092C23.6569 221.944 23.9602 218.693 23.7119 214.765C23.2851 208.013 21.6953 206.637 21.013 199.649C20.4146 193.522 21.0451 188.516 21.3507 186.194C22.2914 179.05 23.5684 178.903 23.5938 174.624C23.6329 168.036 20.6204 165.677 18.9643 159.399C17.8596 155.211 17.2739 148.96 20.052 140.387Z" fill="black"/>
<path d="M47.1952 95.7466C47.1952 95.7466 49.562 97.9003 50.942 101.064C53.0211 105.831 50.7821 109.923 50.1104 117.708C49.3737 126.247 50.4158 140.472 52.8183 145.568C52.86 145.657 52.9642 145.91 52.9217 146.232C52.2723 151.157 18.3973 150.041 18.8961 143.467C21.3727 110.821 29.2693 97.4564 28.5791 93.4894C29.5729 92.7748 33.4994 91.639 42.3947 92.8099C43.1549 93.0892 45.1841 93.9082 47.1952 95.7466Z" fill="#7567F5"/>
<path d="M37.1261 84.6133C37.1261 84.6133 34.9385 91.4797 34.2302 92.306C33.5218 93.1323 37.0737 95.292 39.7965 94.3182C42.2968 93.424 39.7945 89.6131 39.7945 89.6131L37.1261 84.6133Z" fill="#9D6C5B"/>
<path d="M45.7623 88.3495C47.2369 87.7245 48.4074 85.8207 48.154 84.0424C47.9359 82.5123 46.7216 81.6095 45.9949 81.0688C43.8887 79.5019 40.4954 78.7962 38.3028 80.3004C37.0035 81.1919 36.793 84.4844 36.7258 85.0593C36.6499 85.7096 36.955 86.1242 37.105 86.7359C37.3129 87.584 37.6305 88.9251 38.1287 91.1488C38.4803 90.7812 38.9447 90.343 39.528 89.9141C39.7523 89.7491 40.6399 89.1106 41.6411 88.7346C43.6476 87.9808 44.3645 88.942 45.7623 88.3495Z" fill="#322B2B"/>
<path d="M36.9262 88.8252C36.9262 88.8252 37.0014 92.1181 40.0669 93.6353C42.8116 94.9937 46.6314 89.2864 45.6704 87.0499C45.3497 86.3038 44.3219 85.4763 43.2551 85.2023C42.6251 85.0405 42.3112 85.1595 41.2869 84.8752C40.3421 84.6129 40.1627 84.3876 39.794 84.4527C39.3326 84.5343 38.7352 85.0429 38.2496 87.0765C38.0406 86.2737 37.5485 85.7269 37.002 85.6812C36.9149 85.674 36.6616 85.6925 36.4511 85.8205C35.6893 86.2842 35.8073 87.5075 36.9262 88.8252Z" fill="#9D6C5B"/>
<path d="M39.8796 84.0273C39.952 84.1963 39.2868 84.4468 38.8679 85.1033C38.0548 86.3782 38.47 88.7134 39.7431 89.6279C40.4959 90.1684 40.9937 89.8141 42.3939 90.4384C43.2608 90.8249 43.8807 91.3222 44.2545 91.6633C43.8394 93.3372 42.6218 94.5413 41.2796 94.6499C39.8342 94.7669 38.7668 93.571 38.3205 93.0708C38.0218 92.7362 37.0638 91.6667 37.0733 90.226C37.0833 88.7248 38.1084 88.4096 37.8123 87.2189C37.6629 86.6183 37.2704 86.1685 37.2258 85.1473C37.2137 84.8699 37.2313 84.6407 37.2482 84.4897C38.3491 84.1616 39.7746 83.7827 39.8796 84.0273Z" fill="#322B2B"/>
<path opacity="0.3" d="M28.4477 114.642C32.1444 115.939 37.0496 119.586 37.3786 124.259C37.8839 131.437 27.1955 135.374 28.6195 140.403C29.0079 141.775 30.2355 143.011 38.2373 145.899C41.4752 147.068 44.4832 148.021 47.214 148.81C37.4226 150.253 18.5226 148.391 18.8961 143.468C19.8442 130.97 21.5866 121.307 23.3374 113.906C25.1115 113.837 26.8361 114.076 28.4477 114.642Z" fill="#7567F5"/>
<path d="M40.0862 129.328C34.0731 135.433 25.4887 137.356 18.8887 134.302C9.72307 130.061 8.30561 118.036 10.4426 110.51C14.0106 97.9455 29.5596 90.6187 34.4581 93.9657C38.0006 96.3861 37.9668 105.751 33.745 110.439C29.9501 114.652 24.1213 113.588 22.5361 117.881C21.3486 121.096 23.6431 124.336 23.8401 124.605C26.3923 128.099 31.9541 129.284 37.2141 126.885C38.1716 127.699 39.1288 128.514 40.0862 129.328Z" fill="#7567F5"/>
<path d="M51.9914 118.808C51.5018 117.235 49.911 116.429 48.6595 116.255C47.4345 116.084 45.4159 116.363 44.6122 117.964C43.8606 119.462 44.4516 121.557 46.1796 122.693C46.4228 122.09 46.8586 121.296 47.626 121.055C49.0377 120.613 50.2611 122.452 51.304 121.972C52.1353 121.588 52.3507 119.962 51.9914 118.808Z" fill="#9D6C5B"/>
<path d="M46.2173 128.341L41.59 129.145C40.6936 129.301 39.9241 128.5 40.1154 127.611L41.7988 119.783C41.9207 119.216 42.4067 118.802 42.985 118.771L48.5251 118.475C49.4394 118.426 50.1094 119.322 49.8033 120.185L47.2071 127.505C47.0522 127.942 46.6739 128.261 46.2173 128.341Z" fill="white"/>
<path d="M38.1416 127.674C38.5214 124.949 39.6703 124.235 40.0862 124.033C40.7835 123.693 41.1271 123.957 43.5614 123.918C45.736 123.884 46.2513 123.66 46.5263 124.033C47.0471 124.737 45.9767 126.589 44.7636 127.674C43.063 129.196 40.9541 129.327 40.0862 129.329L38.1416 127.674Z" fill="#9D6C5B"/>
<path d="M41.9924 117.737L40.5039 111.387H42.7261L41.9924 117.737Z" fill="#E92E11"/>
<path d="M41.1439 118.406L38.8037 114.215L37.2471 114.911L41.1439 118.406Z" fill="#E92E11"/>
<path d="M227.889 64.5899C228.642 83.5835 213.787 99.4303 194.534 99.9898C175.086 100.555 158.553 85.3363 157.785 65.9929C157.018 46.6495 172.318 30.7938 191.78 30.5803C211.047 30.3688 227.135 45.5963 227.889 64.5899Z" fill="#7567F5"/>
<path d="M227.165 64.6048C227.903 83.2023 213.355 98.7158 194.505 99.26C175.468 99.8096 159.288 84.911 158.537 65.9783C157.786 47.0455 172.759 31.5235 191.81 31.3108C210.673 31.1002 226.427 46.0073 227.165 64.6048Z" fill="#7567F5"/>
<path opacity="0.8" d="M223.663 64.6763C224.324 81.3589 211.267 95.2628 194.364 95.7353C177.311 96.2118 162.83 82.8591 162.158 65.9071C161.486 48.9551 174.885 35.0444 191.949 34.8383C208.862 34.6339 223.001 47.9935 223.663 64.6763Z" fill="white"/>
<path opacity="0.5" d="M197.551 89.101C195.545 85.3666 195.946 83.502 193.94 69.3867C190.955 48.3824 188.983 44.8701 187.386 42.6708C185.756 40.4249 182.864 37.2734 177.566 34.5703C165.846 40.1203 157.988 52.1489 158.537 65.9796C159.288 84.9124 175.468 99.8109 194.505 99.2613C198.182 99.1552 201.694 98.4798 204.96 97.3248C201.979 95.1851 199.375 92.4963 197.551 89.101Z" fill="white"/>
<path d="M202.642 61.6802C202.346 58.305 199.532 55.7148 196.144 55.7148C193.982 55.7148 191.82 55.7148 189.659 55.7148C186.277 55.7148 183.457 58.3111 183.161 61.6802C182.653 67.472 182.144 73.0752 181.636 79.0616C189.146 79.0616 196.657 79.0616 204.167 79.0616C203.659 73.0752 203.15 67.472 202.642 61.6802Z" fill="#7567F5"/>
<path d="M206.905 82.2456C206.905 81.1478 206.015 80.2578 204.917 80.2578H180.457C179.36 80.2578 178.47 81.1478 178.47 82.2456V84.2563C178.47 85.3541 179.36 86.2441 180.457 86.2441H204.917C206.015 86.2441 206.905 85.3541 206.905 84.2563V82.2456Z" fill="#7567F5"/>
<path d="M194.034 50.0574C194.034 50.7018 193.512 51.2242 192.867 51.2242H192.806C192.162 51.2242 191.64 50.7018 191.64 50.0574V45.5066C191.64 44.8622 192.162 44.3398 192.806 44.3398H192.867C193.512 44.3398 194.034 44.8622 194.034 45.5066V50.0574Z" fill="#7567F5"/>
<path d="M185.546 50.5619C185.859 51.1247 185.658 51.8353 185.095 52.1491C184.532 52.4629 183.821 52.2611 183.507 51.6982L181.235 47.6219C180.921 47.0591 181.123 46.3484 181.686 46.0346C182.249 45.7208 182.959 45.9227 183.273 46.4856L185.546 50.5619Z" fill="#7567F5"/>
<path d="M180.237 55.1825C180.832 55.4299 181.114 56.1128 180.866 56.7078C180.619 57.3028 179.936 57.5845 179.341 57.3371L175.032 55.5451C174.437 55.2978 174.155 54.6148 174.402 54.0199C174.65 53.4248 175.333 53.1431 175.927 53.3905L180.237 55.1825Z" fill="#7567F5"/>
<path d="M200.129 50.5619C199.816 51.1247 200.017 51.8353 200.58 52.1491C201.143 52.4629 201.854 52.2611 202.168 51.6982L204.44 47.6219C204.754 47.0591 204.552 46.3484 203.989 46.0346C203.426 45.7208 202.716 45.9227 202.402 46.4856L200.129 50.5619Z" fill="#7567F5"/>
<path d="M205.438 55.1825C204.843 55.4299 204.561 56.1128 204.808 56.7078C205.056 57.3028 205.739 57.5845 206.334 57.3371L210.643 55.5451C211.238 55.2978 211.52 54.6148 211.272 54.0199C211.025 53.4248 210.342 53.1431 209.747 53.3905L205.438 55.1825Z" fill="#7567F5"/>
<path d="M189.249 71.4142C189.249 71.939 189.061 72.3525 188.683 72.6545C188.305 72.9568 187.78 73.1078 187.107 73.1078C186.487 73.1078 185.938 72.9912 185.461 72.758V71.613C185.853 71.788 186.185 71.9111 186.457 71.9828C186.728 72.0543 186.977 72.0901 187.202 72.0901C187.472 72.0901 187.68 72.0383 187.824 71.935C187.969 71.8316 188.041 71.6781 188.041 71.4738C188.041 71.36 188.009 71.2586 187.946 71.1697C187.882 71.081 187.789 70.9955 187.665 70.9133C187.542 70.8311 187.291 70.7 186.912 70.5197C186.557 70.3528 186.29 70.1925 186.113 70.0388C185.935 69.8851 185.793 69.7062 185.687 69.5021C185.582 69.298 185.528 69.0595 185.528 68.7866C185.528 68.2725 185.703 67.8682 186.051 67.5742C186.4 67.28 186.881 67.1328 187.496 67.1328C187.798 67.1328 188.087 67.1686 188.361 67.2402C188.635 67.3117 188.922 67.4125 189.222 67.5423L188.824 68.5004C188.514 68.3732 188.258 68.2844 188.055 68.234C187.852 68.1838 187.653 68.1584 187.457 68.1584C187.223 68.1584 187.044 68.2128 186.92 68.3214C186.795 68.4302 186.733 68.5719 186.733 68.7468C186.733 68.8554 186.758 68.9502 186.809 69.031C186.859 69.112 186.939 69.19 187.049 69.2656C187.159 69.3411 187.419 69.4769 187.83 69.673C188.373 69.9328 188.746 70.1932 188.947 70.4542C189.148 70.7153 189.249 71.0354 189.249 71.4142Z" fill="white"/>
<path d="M195.577 70.1145C195.577 71.0766 195.339 71.8161 194.862 72.3328C194.385 72.8496 193.701 73.108 192.811 73.108C191.92 73.108 191.236 72.8496 190.759 72.3328C190.282 71.8161 190.044 71.074 190.044 70.1067C190.044 69.1393 190.283 68.4006 190.761 67.8903C191.24 67.3802 191.925 67.125 192.819 67.125C193.712 67.125 194.395 67.3821 194.868 67.8963C195.341 68.4106 195.577 69.1499 195.577 70.1145ZM191.336 70.1145C191.336 70.764 191.459 71.2529 191.706 71.5815C191.952 71.9101 192.32 72.0745 192.811 72.0745C193.794 72.0745 194.286 71.4213 194.286 70.1145C194.286 68.8053 193.797 68.1508 192.819 68.1508C192.328 68.1508 191.959 68.3158 191.709 68.6457C191.46 68.9756 191.336 69.4653 191.336 70.1145Z" fill="white"/>
<path d="M200.213 71.4142C200.213 71.939 200.024 72.3525 199.647 72.6545C199.269 72.9568 198.744 73.1078 198.07 73.1078C197.45 73.1078 196.902 72.9912 196.425 72.758V71.613C196.817 71.788 197.149 71.9111 197.421 71.9828C197.692 72.0543 197.941 72.0901 198.166 72.0901C198.436 72.0901 198.644 72.0383 198.788 71.935C198.933 71.8316 199.005 71.6781 199.005 71.4738C199.005 71.36 198.973 71.2586 198.909 71.1697C198.846 71.081 198.752 70.9955 198.629 70.9133C198.506 70.8311 198.255 70.7 197.876 70.5197C197.521 70.3528 197.254 70.1925 197.077 70.0388C196.899 69.8851 196.757 69.7062 196.651 69.5021C196.545 69.298 196.492 69.0595 196.492 68.7866C196.492 68.2725 196.667 67.8682 197.015 67.5742C197.364 67.28 197.845 67.1328 198.46 67.1328C198.762 67.1328 199.051 67.1686 199.325 67.2402C199.599 67.3117 199.886 67.4125 200.185 67.5423L199.788 68.5004C199.478 68.3732 199.221 68.2844 199.019 68.234C198.816 68.1838 198.617 68.1584 198.42 68.1584C198.187 68.1584 198.008 68.2128 197.884 68.3214C197.759 68.4302 197.697 68.5719 197.697 68.7468C197.697 68.8554 197.722 68.9502 197.772 69.031C197.823 69.112 197.903 69.19 198.013 69.2656C198.123 69.3411 198.383 69.4769 198.794 69.673C199.337 69.9328 199.71 70.1932 199.911 70.4542C200.112 70.7153 200.213 71.0354 200.213 71.4142Z" fill="white"/>
<path d="M43.0903 87.7797C43.0903 87.7797 44.5649 88.0355 45.0806 88.7313" stroke="#263238" stroke-width="0.46" stroke-miterlimit="10" stroke-linecap="round" stroke-linejoin="round"/>
<path d="M41.3064 87.1268C41.3064 87.1268 40.8295 86.3497 40.1706 86.6837" stroke="#263238" stroke-width="0.46" stroke-miterlimit="10" stroke-linecap="round" stroke-linejoin="round"/>
<path d="M40.446 87.917C40.3499 88.201 40.1498 88.3893 39.9989 88.338C39.848 88.2868 39.8037 88.0158 39.8997 87.7318C39.9955 87.4482 40.1959 87.2595 40.3468 87.3107C40.4977 87.362 40.5424 87.6332 40.446 87.917Z" fill="#263238"/>
<path d="M43.403 89.1943C43.3068 89.4777 43.1068 89.6666 42.9559 89.6154C42.805 89.5641 42.7607 89.2931 42.8568 89.0091C42.9526 88.7255 43.1529 88.5368 43.3038 88.5881C43.4547 88.6393 43.4988 88.9107 43.403 89.1943Z" fill="#263238"/>
<defs>
<linearGradient id="paint0_linear_6616_14575" x1="30.4919" y1="123.062" x2="163.621" y2="128.018" gradientUnits="userSpaceOnUse">
<stop stop-color="#444B8C"/>
<stop offset="0.9964" stop-color="#26264F"/>
</linearGradient>
<linearGradient id="paint1_linear_6616_14575" x1="87.0071" y1="157.118" x2="107.299" y2="106.75" gradientUnits="userSpaceOnUse">
<stop stop-color="#444B8C"/>
<stop offset="0.9964" stop-color="#26264F"/>
</linearGradient>
</defs>
</svg>
