<svg width="20" height="20" viewBox="0 0 20 20" fill="none" xmlns="http://www.w3.org/2000/svg">
<path d="M4.66667 13.9908L5.00933 13.4188L4.85067 13.3255H4.66667V13.9908ZM4.66667 5.99617V6.66284H4.85067L5.01067 6.56817L4.66667 5.99617ZM11.3333 1.99884H12C12 1.88088 11.9688 1.76503 11.9094 1.66311C11.85 1.56119 11.7646 1.47685 11.662 1.41869C11.5594 1.36054 11.4432 1.33065 11.3252 1.33208C11.2073 1.33351 11.0918 1.36621 10.9907 1.42684L11.3333 1.99884ZM11.3333 17.9882L10.9907 18.5602C11.0918 18.6208 11.2073 18.6535 11.3252 18.6549C11.4432 18.6564 11.5594 18.6265 11.662 18.5683C11.7646 18.5102 11.85 18.4258 11.9094 18.3239C11.9688 18.222 12 18.1061 12 17.9882H11.3333ZM18.4707 5.52417L18 5.0535L17.0573 5.99617L17.5293 6.46817L18.4707 5.52417ZM17.5293 13.5188L17.0573 13.9908L18 14.9335L18.4707 14.4628L17.5293 13.5188ZM4.66667 13.3255L2 13.3242V14.6575H4.66667V13.3255ZM2 13.3242C1.82319 13.3242 1.65362 13.2539 1.5286 13.1289C1.40357 13.0039 1.33333 12.8343 1.33333 12.6575H0C0 13.7642 0.896 14.6575 2 14.6575V13.3242ZM1.33333 12.6575V7.3295H0V12.6602L1.33333 12.6575ZM1.33333 7.3295C1.33369 7.15293 1.40408 6.98236 1.52907 6.85763C1.65405 6.73289 1.82342 6.66284 2 6.66284V5.3295C1.46957 5.3295 0.960859 5.54022 0.585786 5.91529C0.210714 6.29036 0 6.79907 0 7.3295H1.33333ZM2 6.66284H4.66667V5.3295H2V6.66284ZM5.01067 6.56817L11.676 2.57084L10.9907 1.42684L4.324 5.42417L5.01067 6.56817ZM10.6667 1.99884V17.9882H12V1.99884H10.6667ZM11.676 17.4162L5.00933 13.4188L4.324 14.5628L10.9907 18.5602L11.676 17.4162ZM18 5.99617C17.5293 6.46817 17.528 6.46817 17.528 6.46684L17.5253 6.46417L17.5293 6.46817L17.556 6.4975C17.5827 6.52773 17.6227 6.5775 17.676 6.64684C17.7787 6.78417 17.924 7.00017 18.0707 7.2935C18.364 7.87884 18.6667 8.77617 18.6667 9.9935H20C20 8.5455 19.6373 7.4455 19.2627 6.6975C19.1163 6.39787 18.9423 6.11262 18.7427 5.8455C18.6668 5.74532 18.5863 5.64877 18.5013 5.55617L18.4827 5.53617L18.476 5.5295L18.4733 5.52684L18.472 5.5255L18 5.99617ZM18.6667 9.9935C18.6667 11.2108 18.3627 12.1082 18.0707 12.6935C17.9292 12.9771 17.7566 13.2441 17.556 13.4895L17.5293 13.5188L17.5253 13.5228L17.5267 13.5215L17.528 13.5202L18 13.9908C18.4707 14.4628 18.472 14.4628 18.472 14.4615L18.476 14.4575L18.4827 14.4508L18.5013 14.4322L18.5587 14.3682C18.6067 14.3148 18.6676 14.2393 18.7413 14.1415C18.888 13.9468 19.076 13.6615 19.2627 13.2895C19.636 12.5428 20 11.4415 20 9.9935H18.6667Z" fill="#7567F5"/>
</svg>
