<svg width="93" height="92" viewBox="0 0 93 92" fill="none" xmlns="http://www.w3.org/2000/svg">
<path d="M28.2626 78.5807C27.5573 78.5807 26.9041 78.2092 26.5436 77.6029L8.35783 47.0196C7.98322 46.3896 7.98322 45.6052 8.35783 44.9752L26.5436 14.3919C26.9041 13.7856 27.5573 13.4141 28.2626 13.4141H64.7374C65.4427 13.4141 66.0959 13.7856 66.4564 14.3919L84.6422 44.9752C85.0168 45.6052 85.0168 46.3896 84.6422 47.0196L66.4564 77.6029C66.0959 78.2092 65.4427 78.5807 64.7374 78.5807H28.2626Z" fill="#F44336"/>
<path d="M34.4529 30.5L31 33.9283L43.0661 45.8333L31 57.7383L34.4529 61.1667L46.519 49.2617L58.5851 61.1667L62 57.7383L49.9718 45.8333L62 33.9283L58.5851 30.5L46.519 42.405L34.4529 30.5Z" fill="white"/>
</svg>
