<svg width="17" height="14" viewBox="0 0 17 14" fill="none" xmlns="http://www.w3.org/2000/svg">
<path d="M9.12583 11.0153L13.4508 12.1019C13.7581 12.1791 14.0789 12.1852 14.3889 12.1197C14.6989 12.0542 14.9898 11.9189 15.2396 11.7241C15.4895 11.5292 15.6915 11.28 15.8305 10.9953C15.9695 10.7106 16.0417 10.3979 16.0417 10.0811V2.70859C16.0417 2.39178 15.9695 2.07913 15.8305 1.79442C15.6915 1.50972 15.4895 1.26046 15.2396 1.06562C14.9898 0.870765 14.6989 0.735456 14.3889 0.669979C14.0789 0.604502 13.7581 0.610583 13.4508 0.687759L2.20083 3.51276C1.75069 3.62582 1.35119 3.88596 1.06571 4.2519C0.780234 4.61784 0.625128 5.06863 0.625 5.53276V7.25609C0.624989 7.72047 0.78013 8.17154 1.06578 8.53767C1.35144 8.9038 1.75123 9.16399 2.20167 9.27693L4.285 9.79943L9.12667 11.0161M4.28417 9.80026C4.18167 10.1253 4.14672 10.4678 4.18145 10.8069C4.21618 11.1459 4.31986 11.4742 4.48612 11.7717C4.65238 12.0692 4.87772 12.3296 5.14828 12.5368C5.41884 12.744 5.72891 12.8938 6.05944 12.9768C6.38998 13.0598 6.734 13.0744 7.07037 13.0196C7.40674 12.9648 7.72836 12.8418 8.01546 12.6582C8.30256 12.4745 8.54908 12.2342 8.73989 11.9518C8.93069 11.6694 9.06175 11.351 9.125 11.0161" stroke="#7567F5" stroke-width="1.25"/>
</svg>
