<svg width="17" height="16" viewBox="0 0 17 16" fill="none" xmlns="http://www.w3.org/2000/svg">
<path opacity="0.4" d="M9.14692 0.511345L11.0023 4.23991C11.139 4.51005 11.3999 4.69764 11.7008 4.73933L15.8684 5.3463C16.1117 5.38049 16.3326 5.50889 16.4818 5.70482C16.6294 5.89825 16.6927 6.14338 16.6569 6.38433C16.6277 6.58443 16.5335 6.76953 16.3893 6.91127L13.3695 9.83859C13.1486 10.0429 13.0486 10.3455 13.1019 10.6415L13.8454 14.7569C13.9246 15.2538 13.5954 15.7224 13.1019 15.8166C12.8986 15.8491 12.6902 15.815 12.5068 15.7216L8.78934 13.7848C8.51345 13.6455 8.18755 13.6455 7.91165 13.7848L4.19419 15.7216C3.73742 15.9642 3.17147 15.7991 2.91725 15.3489C2.82306 15.1696 2.78972 14.9654 2.82056 14.7661L3.56405 10.6498C3.6174 10.3547 3.51654 10.0504 3.2965 9.84609L0.276681 6.92044C-0.0825632 6.57359 -0.0933988 6.00247 0.252509 5.64312C0.26001 5.63562 0.268346 5.62728 0.276681 5.61894C0.420045 5.47303 0.608418 5.38049 0.811795 5.35631L4.97936 4.7485C5.27942 4.70598 5.54031 4.52005 5.67784 4.24825L7.46656 0.511345C7.62576 0.191182 7.95583 -0.00808573 8.31424 0.000251838H8.42593C8.73683 0.0377709 9.00772 0.230369 9.14692 0.511345Z" fill="#252525"/>
<path d="M8.32668 13.6809C8.16526 13.6859 8.008 13.7293 7.86655 13.8069L4.16727 15.7393C3.71463 15.9553 3.17297 15.7877 2.91919 15.3548C2.82517 15.178 2.79106 14.9753 2.82268 14.7768L3.56154 10.6693C3.61146 10.3707 3.51161 10.0671 3.29445 9.85696L0.273281 6.93206C-0.0853318 6.58094 -0.0919882 6.00464 0.259136 5.64518C0.264129 5.64017 0.268289 5.636 0.273281 5.63183C0.416393 5.49005 0.601108 5.39664 0.799968 5.36745L4.97103 4.75361C5.27306 4.71525 5.53515 4.52676 5.66828 4.2532L7.48132 0.469265C7.65355 0.164015 7.98387 -0.0178008 8.33333 0.00138156C8.32668 0.249085 8.32668 13.5125 8.32668 13.6809Z" fill="#252525"/>
</svg>
