<svg width="20" height="21" viewBox="0 0 20 21" fill="none" xmlns="http://www.w3.org/2000/svg">
<path opacity="0.4" d="M10.8149 3.09533L12.6703 6.82389C12.807 7.09403 13.0679 7.28162 13.3688 7.32331L17.5363 7.93029C17.7797 7.96447 18.0006 8.09287 18.1498 8.2888C18.2973 8.48223 18.3607 8.72736 18.3248 8.96832C18.2957 9.16842 18.2015 9.35351 18.0573 9.49525L15.0375 12.4226C14.8166 12.6268 14.7166 12.9295 14.7699 13.2255L15.5134 17.3409C15.5926 17.8378 15.2633 18.3064 14.7699 18.4006C14.5665 18.4331 14.3581 18.3989 14.1748 18.3056L10.4573 16.3687C10.1814 16.2295 9.85551 16.2295 9.57962 16.3687L5.86216 18.3056C5.40539 18.5482 4.83944 18.3831 4.58522 17.9329C4.49103 17.7536 4.45769 17.5493 4.48853 17.3501L5.23202 13.2338C5.28537 12.9387 5.18451 12.6343 4.96446 12.4301L1.94465 9.50442C1.58541 9.15758 1.57457 8.58645 1.92048 8.22711C1.92798 8.2196 1.93631 8.21126 1.94465 8.20293C2.08801 8.05702 2.27639 7.96447 2.47976 7.94029L6.64733 7.33248C6.94739 7.28996 7.20828 7.10403 7.34581 6.83223L9.13453 3.09533C9.29373 2.77517 9.6238 2.5759 9.98221 2.58424H10.0939C10.4048 2.62176 10.6757 2.81435 10.8149 3.09533Z" fill="url(#paint0_linear_645_104840)"/>
<path d="M9.99465 16.2649C9.83323 16.2699 9.67597 16.3133 9.53452 16.3909L5.83524 18.3233C5.3826 18.5393 4.84094 18.3716 4.58716 17.9388C4.49314 17.762 4.45903 17.5593 4.49065 17.3608L5.2295 13.2533C5.27943 12.9547 5.17958 12.6511 4.96242 12.4409L1.94125 9.51605C1.58264 9.16493 1.57598 8.58862 1.9271 8.22916C1.9321 8.22416 1.93626 8.21999 1.94125 8.21582C2.08436 8.07403 2.26908 7.98062 2.46794 7.95143L6.63899 7.3376C6.94103 7.29923 7.20312 7.11074 7.33625 6.83718L9.14928 3.05325C9.32152 2.748 9.65184 2.56618 10.0013 2.58537C9.99465 2.83307 9.99465 16.0964 9.99465 16.2649Z" fill="url(#paint1_linear_645_104840)"/>
<defs>
<linearGradient id="paint0_linear_645_104840" x1="18.3346" y1="18.4173" x2="-1.33244" y2="12.4149" gradientUnits="userSpaceOnUse">
<stop stop-color="#FEBB1B"/>
<stop offset="1" stop-color="#FFC740"/>
</linearGradient>
<linearGradient id="paint1_linear_645_104840" x1="10.0013" y1="18.4173" x2="-0.503579" y2="16.8143" gradientUnits="userSpaceOnUse">
<stop stop-color="#FEBB1B"/>
<stop offset="1" stop-color="#FFC740"/>
</linearGradient>
</defs>
</svg>
