<svg width="47" height="48" viewBox="0 0 47 48" fill="none" xmlns="http://www.w3.org/2000/svg">
<rect y="0.361328" width="47" height="47" rx="23.5" fill="white"/>
<path d="M16 24.3601H27.86L24.23 28.7201C24.0603 28.9243 23.9786 29.1876 24.003 29.452C24.0274 29.7164 24.1558 29.9603 24.36 30.1301C24.5642 30.2998 24.8275 30.3815 25.0919 30.3571C25.3563 30.3327 25.6003 30.2043 25.77 30.0001L30.77 24.0001C30.8036 23.9524 30.8337 23.9022 30.86 23.8501C30.86 23.8001 30.86 23.7701 30.93 23.7201C30.9753 23.6054 30.9991 23.4834 31 23.3601C30.9991 23.2368 30.9753 23.1147 30.93 23.0001C30.93 22.9501 30.93 22.9201 30.86 22.8701C30.8337 22.8179 30.8036 22.7678 30.77 22.7201L25.77 16.7201C25.676 16.6072 25.5582 16.5164 25.4252 16.4542C25.2921 16.392 25.1469 16.3598 25 16.3601C24.7663 16.3596 24.5399 16.441 24.36 16.5901C24.2587 16.674 24.175 16.7771 24.1137 16.8935C24.0523 17.0098 24.0145 17.1371 24.0025 17.2681C23.9904 17.3991 24.0043 17.5312 24.0433 17.6568C24.0824 17.7824 24.1458 17.899 24.23 18.0001L27.86 22.3601H16C15.7348 22.3601 15.4804 22.4654 15.2929 22.653C15.1054 22.8405 15 23.0949 15 23.3601C15 23.6253 15.1054 23.8796 15.2929 24.0672C15.4804 24.2547 15.7348 24.3601 16 24.3601Z" fill="#0B9B3C"/>
</svg>
