<svg width="22" height="22" viewBox="0 0 22 22" fill="none" xmlns="http://www.w3.org/2000/svg">
<g clip-path="url(#clip0_645_105586)">
<path d="M21.5228 10.0129C21.9559 9.59089 22.1087 8.97151 21.9219 8.39574C21.7347 7.81997 21.247 7.40895 20.6479 7.32173L15.3211 6.54772C15.0942 6.51468 14.8981 6.37239 14.7968 6.16666L12.4153 1.34023C12.1479 0.797942 11.6052 0.460938 11.0003 0.460938C10.3959 0.460938 9.85321 0.797942 9.58581 1.34023L7.20387 6.1671C7.10255 6.37283 6.90608 6.51512 6.6792 6.54816L1.35233 7.32217C0.753653 7.40895 0.265547 7.82041 0.0783227 8.39618C-0.108461 8.97195 0.044402 9.59133 0.477442 10.0134L4.33163 13.7702C4.49594 13.9305 4.57127 14.1614 4.53251 14.3869L3.62326 19.6918C3.54264 20.1587 3.66511 20.6129 3.96731 20.9711C4.43691 21.5292 5.25674 21.6993 5.91224 21.3548L10.6761 18.8499C10.8752 18.7455 11.1259 18.7464 11.3246 18.8499L16.0889 21.3548C16.3206 21.4768 16.5678 21.5385 16.8228 21.5385C17.2885 21.5385 17.7299 21.3314 18.0334 20.9711C18.336 20.6129 18.4581 20.1579 18.3774 19.6918L17.4678 14.3869C17.429 14.1609 17.5043 13.9305 17.6686 13.7702L21.5228 10.0129Z" fill="#CFCFCF"/>
</g>
<defs>
<clipPath id="clip0_645_105586">
<rect width="22" height="22" fill="white"/>
</clipPath>
</defs>
</svg>
