<svg width="24" height="24" viewBox="0 0 24 24" fill="none" xmlns="http://www.w3.org/2000/svg">
<g clip-path="url(#clip0_586_32124)">
<path d="M12 0C5.39844 0 0 5.39844 0 12C0 18.6016 5.39844 24 12 24C18.6016 24 24 18.6016 24 12C24 5.39844 18.6016 0 12 0ZM12 3C15.5 3 18.6016 5 20.1016 8C20.3984 8.60156 19.8008 9.19922 19.1992 8.89844C17.6016 8.10156 14.8984 7.10156 12 7.10156C9.10156 7.10156 6.39844 8.10156 4.80078 8.89844C4.30078 9.19922 3.69922 8.60156 3.89844 8C5.39844 5 8.5 3 12 3ZM10.1016 20.3008C10.1016 20.6016 9.80078 20.8008 9.60156 20.6992C6.60156 19.8984 4.19922 17.5 3.39844 14.5C3.30078 14.1992 3.5 14 3.80078 14H3.89844C7.30078 13.8984 10.1016 16.6992 10.1016 20.3008ZM12 14.5C10.6016 14.5 9.5 13.3984 9.5 12C9.5 10.6016 10.6016 9.5 12 9.5C13.3984 9.5 14.5 10.6016 14.5 12C14.5 13.3984 13.3984 14.5 12 14.5ZM14.3984 20.6992C14.1016 20.8008 13.8984 20.6016 13.8984 20.3008V20.1992C13.8984 16.6992 16.6992 13.8984 20.1992 13.8984H20.3008C20.6016 13.8984 20.8008 14.1992 20.6992 14.3984C19.8008 17.3984 17.3984 19.8008 14.3984 20.6992Z" fill="#161F4C"/>
</g>
<defs>
<clipPath id="clip0_586_32124">
<rect width="24" height="24" fill="white"/>
</clipPath>
</defs>
</svg>
