<svg width="14" height="16" viewBox="0 0 14 16" fill="none" xmlns="http://www.w3.org/2000/svg">
<path d="M5 0V1.25H8.75V0H5ZM6.875 1.875C3.08562 1.875 0 4.96125 0 8.75C0 12.5387 3.08625 15.625 6.875 15.625C10.6637 15.625 13.75 12.5387 13.75 8.75C13.75 6.92625 13.0394 5.25625 11.875 4.02313L12.9494 2.94937L12.05 2.05L10.9187 3.18375C9.74349 2.33017 8.32752 1.87189 6.875 1.875ZM6.875 3.125C9.9875 3.125 12.5 5.6375 12.5 8.75C12.5 11.8625 9.9875 14.375 6.875 14.375C3.7625 14.375 1.25 11.8625 1.25 8.75C1.25 5.6375 3.7625 3.125 6.875 3.125ZM6.25 4.375V7.67562C5.87625 7.89313 5.625 8.28813 5.625 8.75C5.625 9.21125 5.87625 9.60687 6.25 9.82438V10.625H7.5V9.82438C7.87375 9.60687 8.125 9.21187 8.125 8.75C8.125 8.28875 7.87375 7.89313 7.5 7.67562V4.375H6.25Z" fill="black"/>
</svg>
