<svg width="36" height="36" viewBox="0 0 36 36" fill="none" xmlns="http://www.w3.org/2000/svg">
<rect width="36" height="36" rx="18" fill="#7567F5" fill-opacity="0.05"/>
<path d="M25.5 20.5L23.525 19.025L24.5 16.75L22 16.4625L21.75 14L19.475 14.975L18 13L16.525 14.975L14.25 14L13.9625 16.5L11.5 16.75L12.475 19.025L10.5 20.5H8V21.75H28V20.5H25.5ZM13 20.5C13.0444 19.1895 13.5843 17.9447 14.5106 17.0167C15.437 16.0888 16.6809 15.5467 17.9913 15.5C19.3032 15.5423 20.5502 16.0812 21.4801 17.0077C22.4099 17.9343 22.9532 19.1794 23 20.4913L13 20.5Z" fill="#7567F5"/>
</svg>
