<svg width="24" height="24" viewBox="0 0 24 24" fill="none" xmlns="http://www.w3.org/2000/svg">
<g clip-path="url(#clip0_645_108533)">
<path d="M17.1808 3.86719L16.6992 4.57489H17.1808V3.86719Z" fill="#23D9EF"/>
<path d="M17.633 0.75C15.2145 0.75 13.2539 2.71057 13.2539 5.12905C13.2539 6.13027 13.5936 7.05003 14.159 7.78766L13.4926 9.5184C13.4174 9.71381 13.6094 9.90584 13.8048 9.8306L15.7542 9.08007C16.3242 9.35166 16.9596 9.50813 17.633 9.50813C20.0515 9.50813 22.012 7.54756 22.012 5.12905C22.012 2.71055 20.0515 0.75 17.633 0.75ZM16.1905 4.65747L17.2139 3.15326C17.2599 3.08505 17.345 3.05576 17.424 3.07956C17.5027 3.10382 17.5563 3.17638 17.5563 3.25877V4.57553H17.6279C17.7314 4.57553 17.8154 4.65953 17.8154 4.76298C17.8154 4.86644 17.7314 4.95044 17.6279 4.95044H17.5563V5.49014C17.5563 5.59359 17.4723 5.67759 17.3688 5.67759C17.2654 5.67759 17.1814 5.59359 17.1814 5.49014V4.95044H16.3455C16.2759 4.95044 16.2123 4.91198 16.1798 4.85064C16.1473 4.7893 16.1514 4.71492 16.1905 4.65747ZM14.2977 3.83487C14.2977 3.41373 14.6401 3.07132 15.061 3.07132H15.1915C15.6126 3.07132 15.955 3.41373 15.955 3.83487C15.955 4.02278 15.8861 4.20337 15.7609 4.34345L14.904 5.30269H15.7676C15.871 5.30269 15.955 5.38669 15.955 5.49014C15.955 5.5936 15.871 5.6776 15.7676 5.6776H14.4852C14.4112 5.6776 14.3442 5.63411 14.314 5.56682C14.2837 5.4993 14.2961 5.42033 14.3453 5.36517L15.4812 4.0935C15.5451 4.02232 15.5801 3.93031 15.5801 3.83487C15.5801 3.62063 15.4057 3.44623 15.1915 3.44623H15.061C14.8468 3.44623 14.6726 3.62063 14.6726 3.83487V4.00195C14.6726 4.10541 14.5886 4.18941 14.4852 4.18941C14.3817 4.18941 14.2977 4.10541 14.2977 4.00195L14.2977 3.83487ZM17.4462 7.31891C17.4116 7.37934 17.3485 7.41298 17.2835 7.41298C17.2519 7.41298 17.2196 7.40497 17.1903 7.38803C17.1006 7.33654 17.0695 7.22187 17.1212 7.13214L19.4008 3.16539C19.4523 3.07545 19.5672 3.04455 19.6567 3.09627C19.7465 3.14777 19.7776 3.26244 19.7259 3.35216L17.4462 7.31891ZM19.9456 7.44457C19.9142 7.51392 19.846 7.55489 19.7746 7.55489C19.7487 7.55489 19.7226 7.54963 19.6975 7.53841C19.6032 7.49584 19.5611 7.38483 19.6036 7.2903L20.4905 5.32352H19.4983C19.3949 5.32352 19.3109 5.23952 19.3109 5.13607C19.3109 5.03261 19.3949 4.94861 19.4983 4.94861H20.7808C20.8444 4.94861 20.9037 4.98089 20.9382 5.03422C20.9728 5.08777 20.9778 5.15506 20.9517 5.2132L19.9456 7.44457Z" fill="#23D9EF"/>
<path d="M8.40974 17.6906C8.76332 17.6906 9.04995 17.4039 9.04995 17.0504C9.04995 16.6968 8.76332 16.4102 8.40974 16.4102C8.05616 16.4102 7.76953 16.6968 7.76953 17.0504C7.76953 17.4039 8.05616 17.6906 8.40974 17.6906Z" fill="#7467F4"/>
<path d="M3.31704 10.558C3.11548 10.735 2.98828 10.9946 2.98828 11.284V12.8962C2.98828 13.1856 3.11548 13.4452 3.31704 13.6223C3.55611 13.8322 3.93098 13.6644 3.93098 13.3462V10.834C3.93098 10.5159 3.55611 10.348 3.31704 10.558Z" fill="#7467F4"/>
<path d="M13.4443 10.5459C13.2076 10.3456 12.8438 10.5229 12.8438 10.833V13.3457C12.8438 13.6639 13.2186 13.8317 13.4577 13.6217C13.6593 13.4447 13.7865 13.1851 13.7865 12.8957V11.2835C13.7865 10.9877 13.6536 10.7231 13.4443 10.5459Z" fill="#7467F4"/>
<path d="M16.8703 13.1719H16.8689L15.5103 13.1813C15.4068 13.1819 15.3235 13.2664 15.3242 13.3701C15.3249 13.4731 15.4087 13.5562 15.5117 13.5562H15.513L16.8717 13.5468C16.9751 13.5461 17.0585 13.4616 17.0578 13.358C17.0571 13.255 16.9733 13.1719 16.8703 13.1719Z" fill="#0B215D"/>
<path d="M14.6415 14.8193C14.5817 14.7348 14.4648 14.7151 14.3801 14.7744C14.2954 14.8344 14.2755 14.9513 14.3352 15.0358L15.1306 16.1591C15.1672 16.2109 15.2251 16.2383 15.2839 16.2383C15.3212 16.2383 15.3592 16.2271 15.392 16.204C15.4766 16.144 15.4966 16.0271 15.4368 15.9426L14.6415 14.8193Z" fill="#0B215D"/>
<path d="M4.77301 7.02638C4.78056 7.02638 4.78812 7.02593 4.7959 7.02501C4.89867 7.01265 4.97191 6.91904 4.95932 6.81627L4.79544 5.46747C4.78308 5.36493 4.69039 5.29192 4.5867 5.30405C4.48393 5.31641 4.41069 5.41002 4.42328 5.51279L4.58716 6.86159C4.59861 6.95658 4.67963 7.02638 4.77301 7.02638Z" fill="#0B215D"/>
<path d="M2.05668 7.57418L3.27227 8.21986C3.30019 8.23496 3.3304 8.24183 3.35993 8.24183C3.42722 8.24183 3.49199 8.20567 3.52564 8.14227C3.57439 8.05095 3.53961 7.93742 3.44805 7.88889L2.23246 7.24322C2.14045 7.19332 2.02738 7.22949 1.97908 7.32081C1.93033 7.41213 1.96512 7.52566 2.05668 7.57418Z" fill="#0B215D"/>
<path d="M11.6874 16.0522C12.3527 15.501 12.8689 14.7915 13.1884 13.9847C13.644 13.8303 13.9748 13.4033 13.9748 12.8962V11.284C13.9748 10.7777 13.645 10.3514 13.1906 10.1964C12.434 8.29344 10.5807 6.94141 8.41135 6.94141C6.24862 6.94141 4.40091 8.28557 3.63996 10.1794C3.15728 10.3174 2.80077 10.7576 2.80077 11.284V12.8962C2.80077 13.5325 3.3185 14.0502 3.95479 14.0502H4.55423C4.6641 14.0502 4.76045 14.0077 4.8436 13.9481C5.5178 15.2378 6.85796 16.1264 8.41135 16.1264C9.95527 16.1264 11.2884 15.2484 11.9667 13.9715C12.0427 14.017 12.1265 14.0502 12.2213 14.0502H12.7533C12.1711 15.3416 11.0373 16.3474 9.59765 16.7156C9.4974 16.7412 9.43675 16.8435 9.46238 16.9438C9.48413 17.0285 9.56034 17.0848 9.64389 17.0848C9.65945 17.0848 9.67502 17.0829 9.69058 17.079C10.3072 16.9213 10.8704 16.6522 11.3681 16.3024C13.3925 17.4011 14.6472 19.5048 14.6472 21.8233V22.0684C14.6472 22.6171 14.2009 23.0634 13.6523 23.0634H3.17064C2.62201 23.0634 2.17569 22.6171 2.17569 22.0684V21.8233C2.17569 19.4406 3.49062 17.2933 5.60709 16.2189C5.69933 16.1722 5.73618 16.0594 5.68925 15.9669C5.64279 15.8749 5.52972 15.8374 5.43725 15.8847C3.19421 17.0232 1.80078 19.2987 1.80078 21.8233V22.0684C1.80078 22.8238 2.41533 23.4383 3.17064 23.4383H13.6523C14.4076 23.4383 15.0221 22.8237 15.0221 22.0684V21.8233C15.0221 19.421 13.7501 17.2369 11.6874 16.0522ZM8.41135 7.31631C10.3444 7.31631 12.0069 8.47416 12.7568 10.1302H12.2213C12.1265 10.1302 12.0428 10.1634 11.9668 10.2089C11.2885 8.93196 9.9553 8.05399 8.41135 8.05399C6.8579 8.05399 5.51777 8.94257 4.84354 10.2323C4.76043 10.1727 4.66407 10.1302 4.55423 10.1302H4.06611C4.81593 8.47416 6.4785 7.31631 8.41135 7.31631ZM4.6863 13.5433C4.6863 13.6161 4.62702 13.6753 4.55423 13.6753H3.95479C3.52518 13.6753 3.17568 13.3258 3.17568 12.8962V11.284C3.17568 10.8546 3.52518 10.5051 3.95479 10.5051H4.55423C4.62702 10.5051 4.6863 10.5644 4.6863 10.6372V13.5433ZM8.41135 15.7515C6.91192 15.7515 5.62454 14.8434 5.05992 13.5496C5.05995 13.5474 5.06121 13.5455 5.06121 13.5433V10.6372C5.06121 10.6349 5.05995 10.633 5.05992 10.6307C5.62454 9.33699 6.91189 8.4289 8.41135 8.4289C9.88398 8.4289 11.149 9.30652 11.7296 10.5629C11.7257 10.5881 11.7146 10.6108 11.7146 10.6372V13.5433C11.7146 13.5696 11.7257 13.5923 11.7296 13.6175C11.149 14.8739 9.88398 15.7515 8.41135 15.7515ZM12.0895 13.5433V10.6372C12.0895 10.5644 12.1485 10.5051 12.2213 10.5051H12.821C13.2504 10.5051 13.5999 10.8546 13.5999 11.284V12.8962C13.5999 13.3258 13.2504 13.6753 12.821 13.6753H12.2213C12.1485 13.6753 12.0895 13.6161 12.0895 13.5433Z" fill="#0B215D"/>
</g>
<defs>
<clipPath id="clip0_645_108533">
<rect width="24" height="24" fill="white"/>
</clipPath>
</defs>
</svg>
