<svg width="20" height="20" viewBox="0 0 20 20" fill="none" xmlns="http://www.w3.org/2000/svg">
<g clip-path="url(#clip0_586_32536)">
<path d="M9.2 0V1.63828C5.20748 2.01788 2.01876 5.2074 1.63906 9.2H0V10.8H1.63906C2.01876 14.7926 5.20748 17.9821 9.2 18.3617V20H10.8V18.3609C14.7925 17.9813 17.9813 14.7925 18.3609 10.8H20V9.2H18.3609C17.9813 5.20751 14.7925 2.01875 10.8 1.63906V0H9.2ZM10.8 3.25078C13.9224 3.61477 16.3852 6.0776 16.7492 9.2H15.6V10.8H16.7492C16.3852 13.9224 13.9224 16.3852 10.8 16.7492V15.6H9.2V16.7484C6.07855 16.384 3.61474 13.9221 3.25078 10.8H4.4V9.2H3.25078C3.61474 6.07786 6.07855 3.61604 9.2 3.25156V4.4H10.8V3.25078ZM10 7.2C9.25739 7.2 8.5452 7.495 8.0201 8.0201C7.495 8.5452 7.2 9.25739 7.2 10C7.2 10.7426 7.495 11.4548 8.0201 11.9799C8.5452 12.505 9.25739 12.8 10 12.8C10.7426 12.8 11.4548 12.505 11.9799 11.9799C12.505 11.4548 12.8 10.7426 12.8 10C12.8 9.25739 12.505 8.5452 11.9799 8.0201C11.4548 7.495 10.7426 7.2 10 7.2Z" fill="#7567F5"/>
</g>
<defs>
<clipPath id="clip0_586_32536">
<rect width="20" height="20" fill="white"/>
</clipPath>
</defs>
</svg>
