<svg width="20" height="20" viewBox="0 0 20 20" fill="none" xmlns="http://www.w3.org/2000/svg">
<rect width="20" height="20" rx="10" fill="#7567F5" fill-opacity="0.05"/>
<path opacity="0.5" d="M10.0011 15.8346C10.6659 15.8348 11.3142 15.6284 11.8566 15.2441C12.3989 14.8598 12.8086 14.3165 13.0288 13.6893C13.249 13.0622 13.269 12.3821 13.086 11.743C12.903 11.104 12.5261 10.5376 12.0072 10.1221C11.9295 10.0631 11.8661 9.98739 11.8218 9.90052C11.7774 9.81365 11.7533 9.71789 11.7511 9.62039V5.91797C11.7511 5.45384 11.5668 5.00872 11.2386 4.68053C10.9104 4.35234 10.4653 4.16797 10.0011 4.16797C9.537 4.16797 9.09188 4.35234 8.76369 4.68053C8.43551 5.00872 8.25113 5.45384 8.25113 5.91797V9.62097C8.25113 9.81813 8.14905 9.99897 7.99505 10.1226C7.47643 10.5382 7.09967 11.1046 6.91681 11.7435C6.73395 12.3824 6.75401 13.0624 6.97423 13.6894C7.19445 14.3165 7.60395 14.8596 8.14617 15.2439C8.68838 15.6282 9.33655 15.8346 10.0011 15.8346Z" stroke="#7567F5" stroke-width="1.25"/>
<path d="M10.0013 11.168C9.61453 11.168 9.2436 11.3216 8.9701 11.5951C8.69661 11.8686 8.54297 12.2395 8.54297 12.6263C8.54297 13.0131 8.69661 13.384 8.9701 13.6575C9.2436 13.931 9.61453 14.0846 10.0013 14.0846C10.3881 14.0846 10.759 13.931 11.0325 13.6575C11.306 13.384 11.4596 13.0131 11.4596 12.6263C11.4596 12.2395 11.306 11.8686 11.0325 11.5951C10.759 11.3216 10.3881 11.168 10.0013 11.168ZM10.0013 11.168V5.91797" stroke="#7567F5" stroke-width="1.25" stroke-linecap="round"/>
</svg>
