<svg width="41" height="41" viewBox="0 0 41 41" fill="none" xmlns="http://www.w3.org/2000/svg">
<rect x="0.671875" y="0.5" width="40" height="40" rx="20" fill="#7567F5"/>
<path d="M18.472 18.5386H22.4931M18.472 20.8427H21.0309M21.415 25.1178H22.1225C24.0471 25.1178 25.7212 23.7333 26.1729 21.7681C26.3972 20.7922 26.3972 19.7742 26.1729 18.7983L26.1137 18.5406C25.6783 16.6464 24.2592 15.1747 22.4506 14.7418L22.1965 14.6809C21.1886 14.4397 20.142 14.4397 19.1342 14.6809L18.9855 14.7165C17.1123 15.1649 15.6426 16.6891 15.1916 18.6509C14.945 19.7237 14.9473 20.8525 15.1939 21.9252C15.6519 23.9177 16.9991 25.5759 18.8063 26.3485L18.8851 26.3822C19.6672 26.7166 20.5631 26.3139 20.884 25.4934C20.9723 25.2676 21.1826 25.1178 21.415 25.1178Z" stroke="white" stroke-linecap="round"/>
</svg>
