<svg width="86" height="87" viewBox="0 0 86 87" fill="none" xmlns="http://www.w3.org/2000/svg">
<rect y="14" width="86" height="73" fill="#1A76E8"/>
<ellipse cx="43" cy="12" rx="43" ry="12" fill="#0F58B3"/>
<path d="M30.976 60.24C29.84 60.24 28.8 60.04 27.856 59.64C26.912 59.224 26.12 58.632 25.48 57.864L27.64 55.728C27.96 56.208 28.416 56.592 29.008 56.88C29.6 57.168 30.24 57.312 30.928 57.312C31.568 57.312 32.12 57.2 32.584 56.976C33.048 56.736 33.408 56.408 33.664 55.992C33.936 55.56 34.072 55.064 34.072 54.504C34.072 53.912 33.936 53.408 33.664 52.992C33.408 52.576 33.032 52.256 32.536 52.032C32.04 51.808 31.448 51.696 30.76 51.696C30.456 51.696 30.144 51.72 29.824 51.768C29.504 51.8 29.232 51.856 29.008 51.936L30.448 50.112C30.848 49.984 31.24 49.88 31.624 49.8C32.024 49.704 32.392 49.656 32.728 49.656C33.592 49.656 34.368 49.864 35.056 50.28C35.76 50.68 36.312 51.256 36.712 52.008C37.128 52.744 37.336 53.616 37.336 54.624C37.336 55.744 37.072 56.728 36.544 57.576C36.016 58.408 35.272 59.064 34.312 59.544C33.368 60.008 32.256 60.24 30.976 60.24ZM29.008 51.936V50.064L33.328 45.048L37.072 45L32.608 50.112L29.008 51.936ZM26.416 45.96V43.128H37.072V45L34.408 45.96H26.416ZM39.5873 60V48.408H42.7313V60H39.5873ZM42.7313 53.592L41.5073 52.776C41.6513 51.352 42.0673 50.232 42.7553 49.416C43.4433 48.584 44.4353 48.168 45.7313 48.168C46.2913 48.168 46.7953 48.264 47.2433 48.456C47.6913 48.632 48.0993 48.928 48.4673 49.344L46.4993 51.6C46.3233 51.408 46.1073 51.264 45.8513 51.168C45.6113 51.072 45.3313 51.024 45.0113 51.024C44.3393 51.024 43.7873 51.24 43.3553 51.672C42.9393 52.088 42.7313 52.728 42.7313 53.592ZM54.1396 60.24C53.0676 60.24 52.1076 59.976 51.2596 59.448C50.4116 58.92 49.7396 58.2 49.2436 57.288C48.7636 56.376 48.5236 55.352 48.5236 54.216C48.5236 53.064 48.7636 52.032 49.2436 51.12C49.7396 50.208 50.4036 49.488 51.2356 48.96C52.0836 48.432 53.0516 48.168 54.1396 48.168C54.9716 48.168 55.7156 48.336 56.3716 48.672C57.0436 49.008 57.5796 49.48 57.9796 50.088C58.3956 50.68 58.6196 51.352 58.6516 52.104V56.232C58.6196 56.984 58.4036 57.664 58.0036 58.272C57.6036 58.88 57.0676 59.36 56.3956 59.712C55.7236 60.064 54.9716 60.24 54.1396 60.24ZM54.6676 57.336C55.2596 57.336 55.7716 57.208 56.2036 56.952C56.6516 56.68 56.9956 56.312 57.2356 55.848C57.4916 55.368 57.6196 54.816 57.6196 54.192C57.6196 53.584 57.4916 53.048 57.2356 52.584C56.9956 52.104 56.6516 51.736 56.2036 51.48C55.7716 51.208 55.2676 51.072 54.6916 51.072C54.0996 51.072 53.5796 51.208 53.1316 51.48C52.6996 51.752 52.3556 52.12 52.0996 52.584C51.8596 53.048 51.7396 53.584 51.7396 54.192C51.7396 54.816 51.8596 55.368 52.0996 55.848C52.3556 56.312 52.7076 56.68 53.1556 56.952C53.6036 57.208 54.1076 57.336 54.6676 57.336ZM60.5716 60H57.4516V56.88L57.9556 54.048L57.4276 51.264V42.648H60.5716V60Z" fill="white"/>
</svg>
