<svg width="18" height="16" viewBox="0 0 18 16" fill="none" xmlns="http://www.w3.org/2000/svg">
<path fill-rule="evenodd" clip-rule="evenodd" d="M0 7.1901C0 8.51329 1.03934 9.58594 2.32143 9.58594C4.03088 9.58594 5.41667 8.15574 5.41667 6.39149L5.41667 3.19705C5.41667 1.43281 4.03088 0.00260425 2.32143 0.00260425C1.03934 0.00260425 0 1.07526 0 2.39844L0 7.1901ZM2.32143 7.98872C1.89407 7.98872 1.54762 7.63116 1.54762 7.1901L1.54762 2.39844C1.54762 1.95738 1.89407 1.59983 2.32143 1.59983C3.17615 1.59983 3.86905 2.31493 3.86905 3.19705L3.86905 6.39149C3.86905 7.27361 3.17615 7.98872 2.32143 7.98872Z" fill="#F77575"/>
<path d="M9.6235 15.0555C10.2325 15.5855 11.1681 15.5287 11.7047 14.9216C11.7991 14.8034 12.0163 14.5157 12.1302 14.3102C12.655 13.4433 12.8149 12.4106 12.5737 11.4295C12.5467 11.3198 12.5124 11.209 12.4596 11.0384L12.2318 10.3028C12.1372 9.99736 12.08 9.81027 12.0507 9.67021C12.0289 9.59296 12.0398 9.43608 12.2578 9.4265C12.4078 9.41312 12.9958 9.41253 13.3238 9.41253H13.3239C14.3549 9.41255 15.1919 9.41257 15.8317 9.32788C16.4857 9.2413 17.0795 9.05021 17.4839 8.54336C17.5638 8.44328 17.6349 8.33667 17.6966 8.2246C18.0129 7.64986 17.9459 7.03075 17.7555 6.40756C17.5702 5.80127 17.2234 5.05459 16.7985 4.13991C16.4043 3.29097 16.0543 2.53751 15.7411 2.00904C15.417 1.46238 15.0706 1.03263 14.5918 0.705806C14.0308 0.322943 13.2829 0.122663 12.6427 0.0610533C12.0219 0.00130558 11.2595 0.00131035 10.303 0.00131798C9.14963 0.00130272 7.71997 0.00128937 6.99144 0.0961933C6.23755 0.194401 5.60249 0.404082 5.09627 0.894563C4.58729 1.38772 4.36715 2.01092 4.26451 2.75062C4.16603 3.46035 4.16604 4.36185 4.16606 5.47618L4.16604 6.45342C4.16572 7.55171 4.16551 8.26951 4.42363 8.93513C4.68111 9.59911 5.16688 10.1367 5.91371 10.9632L9.42216 14.8482C9.48846 14.9218 9.55618 14.9969 9.6235 15.0555Z" fill="#F77575"/>
</svg>
