<svg width="20" height="20" viewBox="0 0 20 20" fill="none" xmlns="http://www.w3.org/2000/svg">
<rect width="20" height="20" rx="10" fill="#7567F5" fill-opacity="0.05"/>
<path d="M7.07733 16.0011V15.3344C6.78089 15.3344 6.52733 15.2288 6.31667 15.0177C6.106 14.8066 6.00044 14.5535 6 14.2584V7.74506C6 7.44906 6.10556 7.19573 6.31667 6.98506C6.52778 6.7744 6.78111 6.66862 7.07667 6.66773H8.60267V5.0524C8.60267 4.91462 8.65378 4.79462 8.756 4.6924C8.85822 4.59017 8.978 4.53906 9.11533 4.53906H10.8847C11.0224 4.53906 11.1424 4.59017 11.2447 4.6924C11.3469 4.79462 11.398 4.91462 11.398 5.0524V6.66773H12.9233C13.2193 6.66773 13.4727 6.77328 13.6833 6.9844C13.894 7.19551 13.9996 7.44884 14 7.7444V14.2577C14 14.5537 13.8944 14.8071 13.6833 15.0177C13.4722 15.2284 13.2189 15.334 12.9233 15.3344V16.0011H12.2567V15.3344H7.74333V16.0011H7.07733ZM9.26933 6.66773H10.7307V5.2064H9.26933V6.66773ZM10 10.2577C10.5889 10.2577 11.164 10.1826 11.7253 10.0324C12.2867 9.88217 12.8227 9.65728 13.3333 9.35773V7.7444C13.3333 7.62484 13.2949 7.52662 13.218 7.44973C13.1411 7.37284 13.0429 7.3344 12.9233 7.3344H7.07667C6.95711 7.3344 6.85889 7.37284 6.782 7.44973C6.70511 7.52662 6.66667 7.62506 6.66667 7.74506V9.35773C7.17778 9.65773 7.714 9.88262 8.27533 10.0324C8.83667 10.1822 9.41156 10.2573 10 10.2577ZM9.66667 11.5911V10.9164C9.14044 10.8782 8.62711 10.7948 8.12667 10.6664C7.62622 10.538 7.13956 10.3537 6.66667 10.1137V14.2577C6.66667 14.3773 6.70511 14.4755 6.782 14.5524C6.85889 14.6293 6.95733 14.6677 7.07733 14.6677H12.9233C13.0429 14.6677 13.1411 14.6293 13.218 14.5524C13.2949 14.4755 13.3333 14.3773 13.3333 14.2577V10.1137C12.86 10.3537 12.3733 10.538 11.8733 10.6664C11.3733 10.7948 10.86 10.8782 10.3333 10.9164V11.5911H9.66667Z" fill="#7567F5"/>
</svg>
