<svg width="77" height="50" viewBox="0 0 77 50" fill="none" xmlns="http://www.w3.org/2000/svg">
<path d="M21.8136 31.363C23.9791 31.363 25.6534 29.578 25.6534 26.9366V16.6562H27.9973V33.3143H25.6758V31.7674C24.6266 32.9334 23.1756 33.5997 21.5456 33.5997C18.1965 33.5997 15.6289 31.0059 15.6289 27.081V16.659H17.9727V26.9366C17.9727 29.6256 19.6247 31.363 21.8129 31.363" fill="black"/>
<path d="M29.7396 16.6562H31.9944V22.7245C32.5203 22.1503 33.1489 21.6944 33.843 21.3837C34.537 21.073 35.2825 20.9139 36.0353 20.9156C39.3844 20.9156 42.0186 23.7475 42.0186 27.2696C42.0186 30.7678 39.3844 33.5993 36.0353 33.5993C35.2789 33.6015 34.5297 33.4426 33.8317 33.1321C33.1336 32.8215 32.5008 32.3655 31.9703 31.7908V33.3132H29.7363L29.7396 16.6562ZM35.8793 31.4817C38.0228 31.4817 39.7865 29.6014 39.7865 27.2696C39.7865 24.9135 38.0228 23.0574 35.8793 23.0574C33.7135 23.0574 31.9498 24.9135 31.9498 27.2696C31.9498 29.6014 33.6911 31.4817 35.8793 31.4817Z" fill="black"/>
<path d="M48.7633 20.9375C52.045 20.9375 54.4566 23.6265 54.4566 27.2438V28.0292H45.1923C45.5051 30.0043 47.0454 31.4798 48.9644 31.4798C50.2828 31.4798 51.3983 30.9083 52.2464 29.6947L53.8765 30.9797C52.7375 32.5981 51.0408 33.5735 48.9644 33.5735C45.5486 33.5735 42.9141 30.8607 42.9141 27.2438C42.9141 23.817 45.437 20.9375 48.7637 20.9375M45.2359 26.1255H52.1794C51.8 24.269 50.3934 23.0317 48.719 23.0317C47.0447 23.0317 45.638 24.269 45.2359 26.1255Z" fill="black"/>
<path d="M60.5055 23.3218C59.0318 23.3218 57.9603 24.5354 57.9603 26.4152V33.3164H55.7051V21.18H57.939V22.6805C58.4971 21.7046 59.4127 21.0859 60.663 21.0859H61.4441V23.323L60.5055 23.3218Z" fill="black"/>
</svg>
