<svg width="20" height="20" viewBox="0 0 20 20" fill="none" xmlns="http://www.w3.org/2000/svg">
<path fill-rule="evenodd" clip-rule="evenodd" d="M11.6475 1.66797C11.6833 1.66797 11.7185 1.67099 11.7527 1.6768L11.8653 1.67747C12.0353 1.67747 12.1978 1.74664 12.3161 1.86914L16.5378 6.26664C16.6486 6.38247 16.7112 6.5383 16.7112 6.69914V14.3575C16.7245 16.4483 15.0945 18.1475 13.0003 18.2225H6.21695C4.18343 18.1788 2.55254 16.5355 2.50226 14.5227L2.50195 5.40997C2.55112 3.34247 4.25779 1.67747 6.30945 1.67747L11.5422 1.6768C11.5764 1.67099 11.6116 1.66797 11.6475 1.66797ZM11.022 2.92714L6.31195 2.92747C4.93112 2.92747 3.78445 4.0458 3.75195 5.42497V14.3575C3.72195 15.775 4.83862 16.9416 6.24279 16.9725H12.9786C14.3695 16.9225 15.4703 15.775 15.4612 14.3616L15.4611 7.48714L13.7875 7.48797C12.2616 7.4838 11.0225 6.24047 11.0225 4.71714L11.022 2.92714ZM9.28562 7.63372C9.45812 7.63372 9.61437 7.70372 9.7275 7.81684L9.72837 7.81739L11.6834 9.78072C11.9267 10.0257 11.9259 10.4207 11.6817 10.6641C11.4367 10.9074 11.0409 10.9074 10.7975 10.6624L9.91029 9.7713L9.91062 13.2929C9.91062 13.6379 9.63062 13.9179 9.28562 13.9179C8.94062 13.9179 8.66062 13.6379 8.66062 13.2929L8.66029 9.7713L7.7742 10.6624C7.65254 10.7857 7.4917 10.8466 7.3317 10.8466C7.17254 10.8466 7.01254 10.7857 6.89087 10.6641C6.6467 10.4207 6.64504 10.0257 6.8892 9.78072L8.84254 7.81739L8.87041 7.79169C8.88247 7.78096 8.89494 7.77069 8.9078 7.76091L8.84254 7.81739C8.86578 7.79406 8.8908 7.77304 8.91724 7.75433C9.02015 7.67847 9.14769 7.63372 9.28562 7.63372ZM12.272 3.62797L12.2725 4.71714C12.2725 5.5538 12.9525 6.23547 13.7891 6.23797L14.7761 6.23714L12.272 3.62797Z" fill="#7567F5"/>
</svg>
