<svg width="20" height="21" viewBox="0 0 20 21" fill="none" xmlns="http://www.w3.org/2000/svg">
<g opacity="0.3">
<path d="M10 1.20703C6.91563 1.20703 4.4 3.77983 4.4 6.9343C4.4 8.90625 5.38438 10.6577 6.875 11.69C4.02188 12.9428 2 15.8384 2 19.207H3.6C3.6 16.842 4.82188 14.7837 6.65 13.6332C7.1875 14.9819 8.49688 15.9343 10 15.9343C11.5031 15.9343 12.8125 14.9819 13.35 13.6332C15.1781 14.7837 16.4 16.842 16.4 19.207H18C18 15.8384 15.9781 12.9428 13.125 11.69C14.6156 10.6577 15.6 8.90625 15.6 6.9343C15.6 3.77983 13.0844 1.20703 10 1.20703ZM10 2.84339C12.2188 2.84339 14 4.66513 14 6.9343C14 9.20348 12.2188 11.0252 10 11.0252C7.78125 11.0252 6 9.20348 6 6.9343C6 4.66513 7.78125 2.84339 10 2.84339ZM10 12.6616C10.6563 12.6616 11.2813 12.7575 11.875 12.9428C11.5969 13.7322 10.8719 14.2979 10 14.2979C9.12812 14.2979 8.40312 13.7322 8.125 12.9428C8.71875 12.7575 9.34375 12.6616 10 12.6616Z" fill="#161F4C"/>
</g>
</svg>
