<svg width="26" height="25" viewBox="0 0 26 25" fill="none" xmlns="http://www.w3.org/2000/svg">
<path d="M6.38456 20.81L3.11804 20.0973C2.82109 20.038 2.58352 19.8843 2.40535 19.6365C2.22717 19.3894 2.15788 19.1174 2.19748 18.8204L2.52413 15.4648L0.296956 12.911C0.0989855 12.6932 0 12.4359 0 12.1389C0 11.842 0.0989855 11.5846 0.296956 11.3668L2.52413 8.81301L2.19748 5.4574C2.15788 5.16044 2.22717 4.88843 2.40535 4.64136C2.58352 4.3935 2.82109 4.23988 3.11804 4.18049L6.38456 3.46779L8.10691 0.557618C8.26529 0.300256 8.48305 0.131981 8.76021 0.0527923C9.03737 -0.0263961 9.31453 -0.0164976 9.59169 0.0824879L12.68 1.3891L15.7684 0.0824879C16.0455 -0.0164976 16.3227 -0.0263961 16.5999 0.0527923C16.877 0.131981 17.0948 0.300256 17.2532 0.557618L18.9755 3.46779L22.242 4.18049C22.539 4.23988 22.7766 4.3935 22.9547 4.64136C23.1329 4.88843 23.2022 5.16044 23.1626 5.4574L22.8359 8.81301L25.0631 11.3668C25.2611 11.5846 25.3601 11.842 25.3601 12.1389C25.3601 12.4359 25.2611 12.6932 25.0631 12.911L22.8359 15.4648L23.1626 18.8204C23.2022 19.1174 23.1329 19.3894 22.9547 19.6365C22.7766 19.8843 22.539 20.038 22.242 20.0973L18.9755 20.81L17.2532 23.7202C17.0948 23.9776 16.877 24.1459 16.5999 24.225C16.3227 24.3042 16.0455 24.2943 15.7684 24.1953L12.68 22.8887L9.59169 24.1953C9.31453 24.2943 9.03737 24.3042 8.76021 24.225C8.48305 24.1459 8.26529 23.9776 8.10691 23.7202L6.38456 20.81ZM10.6013 15.5242C10.8191 15.742 11.0963 15.8509 11.4328 15.8509C11.7694 15.8509 12.0465 15.742 12.2643 15.5242L17.3126 10.476C17.5501 10.2384 17.6689 9.95609 17.6689 9.62904C17.6689 9.30279 17.5501 9.02087 17.3126 8.78331C17.075 8.54574 16.7931 8.42696 16.4668 8.42696C16.1398 8.42696 15.8575 8.54574 15.6199 8.78331L11.4328 12.9704L9.71047 11.2777C9.47291 11.06 9.191 10.9558 8.86474 10.9653C8.53769 10.9756 8.26529 11.0897 8.04752 11.3074C7.82975 11.5252 7.72087 11.8024 7.72087 12.1389C7.72087 12.4755 7.82975 12.7526 8.04752 12.9704L10.6013 15.5242Z" fill="#28AE60"/>
</svg>
