<svg width="12" height="12" viewBox="0 0 12 12" fill="none" xmlns="http://www.w3.org/2000/svg">
<path d="M6.00195 0.621094C8.97048 0.621094 11.377 3.02756 11.377 5.99609C11.377 8.96462 8.97048 11.3711 6.00195 11.3711C3.03342 11.3711 0.626953 8.96462 0.626953 5.99609C0.626953 3.02756 3.03342 0.621094 6.00195 0.621094ZM8.33984 4.12793C8.13636 3.9414 7.82041 3.95486 7.63379 4.1582L5.23633 6.77344L4.35547 5.89258C4.16021 5.69732 3.8437 5.69732 3.64844 5.89258C3.45318 6.08784 3.45318 6.40435 3.64844 6.59961L4.89844 7.84961C4.99484 7.94601 5.12639 7.99902 5.2627 7.99609C5.39894 7.99313 5.52798 7.93438 5.62012 7.83398L8.37012 4.83398C8.55665 4.6305 8.54319 4.31455 8.33984 4.12793Z" fill="#2A9C64"/>
</svg>
