<svg width="47" height="47" viewBox="0 0 47 47" fill="none" xmlns="http://www.w3.org/2000/svg">
<path d="M18.6045 30.5188V16.4814C18.6048 16.3058 18.6523 16.1335 18.7421 15.9825C18.8319 15.8316 18.9606 15.7076 19.1148 15.6235C19.269 15.5394 19.4429 15.4983 19.6185 15.5045C19.794 15.5108 19.9646 15.5641 20.1124 15.6589L31.0321 22.6757C31.1703 22.7642 31.2841 22.8862 31.3629 23.0303C31.4417 23.1743 31.483 23.3359 31.483 23.5001C31.483 23.6643 31.4417 23.8259 31.3629 23.97C31.2841 24.114 31.1703 24.236 31.0321 24.3246L20.1124 31.3432C19.9646 31.4381 19.794 31.4914 19.6185 31.4977C19.4429 31.5039 19.269 31.4628 19.1148 31.3787C18.9606 31.2946 18.8319 31.1706 18.7421 31.0196C18.6523 30.8687 18.6048 30.6964 18.6045 30.5207V30.5188Z" fill="white"/>
<path d="M1.95801 23.4997C1.95801 11.6028 11.6028 1.95801 23.4997 1.95801C35.3965 1.95801 45.0413 11.6028 45.0413 23.4997C45.0413 35.3965 35.3965 45.0413 23.4997 45.0413C11.6028 45.0413 1.95801 35.3965 1.95801 23.4997ZM23.4997 4.89551C18.5655 4.89551 13.8335 6.85558 10.3445 10.3445C6.85558 13.8335 4.89551 18.5655 4.89551 23.4997C4.89551 28.4338 6.85558 33.1658 10.3445 36.6548C13.8335 40.1438 18.5655 42.1038 23.4997 42.1038C28.4338 42.1038 33.1658 40.1438 36.6548 36.6548C40.1438 33.1658 42.1038 28.4338 42.1038 23.4997C42.1038 18.5655 40.1438 13.8335 36.6548 10.3445C33.1658 6.85558 28.4338 4.89551 23.4997 4.89551Z" fill="white"/>
</svg>
