<svg width="29" height="24" viewBox="0 0 29 24" fill="none" xmlns="http://www.w3.org/2000/svg">
<path fill-rule="evenodd" clip-rule="evenodd" d="M11.592 0H15.7413C18.192 0 20.1333 1.58946e-07 21.652 0.204C23.2147 0.414667 24.48 0.857333 25.4787 1.85467C26.7107 3.088 27.104 4.73867 27.2467 6.88133C28.016 7.21867 28.5973 7.93467 28.66 8.84133C28.6667 8.92267 28.6667 9.00933 28.6667 9.08933V14.244C28.6667 14.324 28.6667 14.4107 28.6613 14.4907C28.5973 15.3973 28.016 16.1147 27.2467 16.4533C27.104 18.5947 26.7107 20.2453 25.4787 21.4787C24.48 22.476 23.2147 22.9187 21.652 23.1293C20.132 23.3333 18.192 23.3333 15.7413 23.3333H11.592C9.14133 23.3333 7.2 23.3333 5.68133 23.1293C4.11867 22.9187 2.85333 22.476 1.85467 21.4787C0.857333 20.48 0.414667 19.2147 0.204 17.652C0 16.132 0 14.192 0 11.7413V11.592C0 9.14133 0 7.2 0.204 5.68133C0.414667 4.11867 0.857333 2.85333 1.85467 1.85467C2.85333 0.857333 4.11867 0.414667 5.68133 0.204C7.20133 1.58946e-07 9.14133 0 11.592 0ZM25.224 16.6667H22.64C19.78 16.6667 17.332 14.496 17.332 11.6667C17.332 8.83733 19.78 6.66667 22.6387 6.66667H25.2227C25.0707 4.87867 24.728 3.93333 24.0627 3.26933C23.4987 2.70533 22.7253 2.36667 21.384 2.18667C20.0147 2.00267 18.208 2 15.6653 2H11.6653C9.12267 2 7.31733 2.00267 5.94533 2.18667C4.60533 2.36667 3.832 2.70533 3.268 3.26933C2.704 3.83333 2.36667 4.60667 2.18667 5.94667C2.00267 7.31733 2 9.12267 2 11.6653C2 14.208 2.00267 16.0147 2.18667 17.3853C2.36667 18.7253 2.70533 19.4987 3.26933 20.0627C3.83333 20.6267 4.60667 20.9653 5.948 21.1453C7.31867 21.3293 9.124 21.332 11.6667 21.332H15.6667C18.2093 21.332 20.016 21.3293 21.3867 21.1453C22.7267 20.9653 23.5 20.6267 24.064 20.0627C24.7293 19.3987 25.072 18.4547 25.224 16.6653M5.33333 6.33333C5.33333 6.06812 5.43869 5.81376 5.62623 5.62623C5.81376 5.43869 6.06812 5.33333 6.33333 5.33333H11.6667C11.9319 5.33333 12.1862 5.43869 12.3738 5.62623C12.5613 5.81376 12.6667 6.06812 12.6667 6.33333C12.6667 6.59855 12.5613 6.8529 12.3738 7.04044C12.1862 7.22798 11.9319 7.33333 11.6667 7.33333H6.33333C6.06812 7.33333 5.81376 7.22798 5.62623 7.04044C5.43869 6.8529 5.33333 6.59855 5.33333 6.33333ZM26.232 8.66667H22.64C20.7413 8.66667 19.332 10.0787 19.332 11.6667C19.332 13.2547 20.7413 14.6667 22.6387 14.6667H26.2627C26.5373 14.6493 26.656 14.464 26.6653 14.352V8.98133C26.656 8.86933 26.5373 8.684 26.2627 8.668L26.232 8.66667Z" fill="#7567F5"/>
</svg>
