<svg width="16" height="17" viewBox="0 0 16 17" fill="none" xmlns="http://www.w3.org/2000/svg">
<g clip-path="url(#clip0_513_5829)">
<path d="M8 0.0859375C3.58073 0.0859375 0 3.66667 0 8.08594C0 12.5052 3.58073 16.0859 8 16.0859C12.4193 16.0859 16 12.5052 16 8.08594C16 3.66667 12.4193 0.0859375 8 0.0859375ZM8 1.41927C11.6823 1.41927 14.6667 4.40365 14.6667 8.08594C14.6667 11.7682 11.6823 14.7526 8 14.7526C4.31771 14.7526 1.33333 11.7682 1.33333 8.08594C1.33333 4.40365 4.31771 1.41927 8 1.41927ZM8 3.96094C7.8776 3.96094 7.77604 3.95833 7.66667 3.98177C7.55729 4.00521 7.45573 4.0651 7.375 4.1276C7.29427 4.1901 7.23438 4.27604 7.1875 4.3776C7.14063 4.47917 7.125 4.59896 7.125 4.7526C7.125 4.90365 7.14063 5.02344 7.1875 5.1276C7.23438 5.23177 7.29427 5.3151 7.375 5.3776C7.45573 5.4401 7.55729 5.47656 7.66667 5.5026C7.77604 5.52865 7.8776 5.54427 8 5.54427C8.11979 5.54427 8.2474 5.52865 8.35417 5.5026C8.46094 5.47656 8.54427 5.4401 8.625 5.3776C8.70573 5.3151 8.76563 5.23177 8.8125 5.1276C8.85938 5.02604 8.89583 4.90365 8.89583 4.7526C8.89583 4.59896 8.85938 4.47917 8.8125 4.3776C8.76563 4.27604 8.70573 4.1901 8.625 4.1276C8.54427 4.0651 8.46094 4.00521 8.35417 3.98177C8.2474 3.95833 8.11979 3.96094 8 3.96094ZM7.1875 6.1901V12.1693H8.8125V6.1901H7.1875Z" fill="#E40007"/>
</g>
<defs>
<clipPath id="clip0_513_5829">
<rect width="16" height="16" fill="white" transform="translate(0 0.0859375)"/>
</clipPath>
</defs>
</svg>
