<svg width="28" height="28" viewBox="0 0 28 28" fill="none" xmlns="http://www.w3.org/2000/svg">
<path d="M6.69723 3.20456C5.21382 3.38598 3.69423 4.69906 3.18732 6.10431C2.6804 7.50956 2.54507 8.92123 2.57657 10.4151C2.6454 13.6859 2.64832 17.0243 2.71715 20.2951C2.74165 21.4524 3.01115 22.7305 3.63182 23.707C4.61823 25.2592 6.50532 25.5497 8.33582 25.7265C12.8718 26.1651 17.6225 26.2077 22.155 25.7317C22.8748 25.6559 23.4202 25.1939 23.6215 24.9425C25.2677 22.8792 25.4077 20.452 25.3802 17.813C25.354 15.2609 25.4537 12.2176 25.4269 9.66556C25.4077 7.82923 25.0763 5.81789 23.7224 4.57714C22.4927 3.45073 20.6797 3.15148 19.012 3.15731C15.3072 3.16956 8.4764 3.13398 6.69723 3.20456Z" fill="#9ED9DE" stroke="#1D1D1B"/>
<path d="M15.4316 20.1786C15.4596 20.7649 15.7746 21.557 17.2365 21.3505C18.5688 21.1621 18.5711 19.6192 18.2643 19.1484" fill="#4B7BB2"/>
<path d="M15.4316 20.1786C15.4596 20.7649 15.7746 21.557 17.2365 21.3505C18.5688 21.1621 18.5711 19.6192 18.2643 19.1484" stroke="#1D1D1B"/>
<path d="M13.9387 20.0304C14.4474 20.0584 14.9572 20.0864 15.4647 20.0479C17.0986 19.9242 18.6643 19.0772 19.6624 17.7781C20.6605 16.4791 21.0752 14.7477 20.7736 13.1371C20.7048 12.7696 20.601 12.4091 20.4785 12.0556C20.0433 10.8003 19.3433 9.59806 18.2816 8.79947C17.3133 8.07147 16.0801 7.71972 14.8697 7.77281C13.6593 7.82531 12.4775 8.27331 11.501 8.99081C10.6528 9.61439 9.96153 10.4462 9.4867 11.3848C8.93603 12.4745 8.88587 13.5426 8.69978 14.7209C8.56037 15.6035 8.75753 16.7841 7.11895 16.7841C7.0507 17.7659 8.98153 18.9477 9.7387 19.2878C11.0512 19.8758 12.5241 19.9528 13.9387 20.0304Z" fill="#D6E5E5" stroke="#1D1D1B"/>
<path d="M12.5281 18.6331C12.1536 18.1181 11.7318 18.0947 11.2897 18.0918C10.7168 18.0877 9.32268 18.8437 9.59043 20.2688C9.78876 21.3258 10.6678 21.5743 10.8889 21.6064C11.4192 21.6846 11.9308 21.5994 12.4062 21.3521C13.4276 20.8212 13.1616 19.5041 12.5281 18.6331Z" fill="#4B7BB2" stroke="#1D1D1B"/>
<path d="M13.4048 15.394C13.4083 15.4039 13.7589 16.3961 14.9728 16.6388C15.4074 16.7246 16.871 16.8885 17.5021 15.3508C17.564 15.2021 17.7361 15.1303 17.8825 15.1921C18.0318 15.2534 18.103 15.4237 18.0417 15.5725C17.5237 16.8336 16.4831 17.2758 15.5095 17.2758C15.2861 17.2758 15.0667 17.2525 14.8585 17.2111C13.3045 16.9001 12.8366 15.618 12.832 15.4821C12.832 15.4821 12.7701 15.2295 13.0501 15.177C13.3004 15.1297 13.4048 15.394 13.4048 15.394Z" fill="#1D1D1B"/>
<path d="M13.6985 11.7622C13.268 11.6391 12.757 12.03 12.7885 12.4762C12.7955 12.5742 12.8556 12.9207 13.289 13.0263C13.5982 13.1016 13.9563 12.9796 14.0876 12.6186C14.2783 12.0924 13.6985 11.7622 13.6985 11.7622Z" fill="#4B7BB2" stroke="#1D1D1B"/>
<path d="M17.7619 11.7541C17.3314 11.631 16.8286 12.03 16.8717 12.4756C16.8945 12.7096 17.1733 12.9505 17.5146 12.9907C17.8156 13.0263 18.1113 12.8484 18.2169 12.5929C18.3791 12.2015 18.123 11.8789 17.7619 11.7541Z" fill="#4B7BB2" stroke="#1D1D1B"/>
</svg>
