<svg width="15" height="15" viewBox="0 0 15 15" fill="none" xmlns="http://www.w3.org/2000/svg">
<path fill-rule="evenodd" clip-rule="evenodd" d="M3.30005 0C3.46581 0 3.62478 0.0658479 3.74199 0.183058C3.8592 0.300268 3.92505 0.45924 3.92505 0.625V2.015C6.28152 1.80553 8.65192 1.80553 11.0084 2.015V0.625C11.0084 0.45924 11.0742 0.300268 11.1914 0.183058C11.3087 0.0658479 11.4676 0 11.6334 0C11.7991 0 11.9581 0.0658479 12.0753 0.183058C12.1925 0.300268 12.2584 0.45924 12.2584 0.625V2.13833C12.8663 2.22455 13.4294 2.50735 13.8615 2.94356C14.2937 3.37978 14.5712 3.94543 14.6517 4.55417L14.7242 5.09833C15.0275 7.38667 15.0009 9.70667 14.6459 11.9883C14.5603 12.5376 14.2947 13.0429 13.8907 13.4248C13.4868 13.8067 12.9674 14.0436 12.4142 14.0983L11.42 14.1967C8.79085 14.4556 6.14258 14.4556 3.51338 14.1967L2.51922 14.0983C1.96601 14.0436 1.44664 13.8067 1.0427 13.4248C0.638759 13.0429 0.373133 12.5376 0.28755 11.9883C-0.0675225 9.7072 -0.0939018 7.38695 0.209217 5.09833L0.281717 4.55417C0.362236 3.94543 0.639758 3.37978 1.07191 2.94356C1.50406 2.50735 2.0671 2.22455 2.67505 2.13833V0.625C2.67505 0.45924 2.7409 0.300268 2.85811 0.183058C2.97532 0.0658479 3.13429 0 3.30005 0ZM3.67088 3.29417C6.19588 3.045 8.73755 3.045 11.2626 3.29417L12.0167 3.36917C12.7392 3.44 13.3167 3.99917 13.4125 4.71833L13.4851 5.2625C13.51 5.4525 13.5328 5.64278 13.5534 5.83333H1.38005C1.40061 5.64278 1.42338 5.4525 1.44838 5.2625L1.52088 4.71833C1.56713 4.36884 1.73021 4.04526 1.98362 3.80017C2.23703 3.55508 2.56587 3.40289 2.91672 3.36833L3.67088 3.29417ZM1.28088 7.08333C1.19907 8.6583 1.28006 10.2375 1.52255 11.7958C1.5655 12.0713 1.69872 12.3247 1.90128 12.5162C2.10384 12.7078 2.36429 12.8267 2.64172 12.8542L3.63588 12.9525C6.18338 13.2042 8.75005 13.2042 11.2976 12.9525L12.2917 12.8542C12.5691 12.8267 12.8296 12.7078 13.0322 12.5162C13.2347 12.3247 13.3679 12.0713 13.4109 11.7958C13.6542 10.2358 13.7342 8.65667 13.6525 7.08333H1.28088Z" fill="#7567F5"/>
</svg>
