<svg width="20" height="22" viewBox="0 0 20 22" fill="none" xmlns="http://www.w3.org/2000/svg">
<path d="M14.6 13.0133C14.4 12.9133 13.1 12.3133 12.9 12.2133C12.7 12.1133 12.5 12.1133 12.3 12.3133C12.1 12.5133 11.7 13.1133 11.5 13.3133C11.4 13.5133 11.2 13.5133 11 13.4133C10.3 13.1133 9.6 12.7133 9 12.2133C8.5 11.7133 8 11.1133 7.6 10.5133C7.5 10.3133 7.6 10.1133 7.7 10.0133C7.8 9.91328 7.9 9.71328 8.1 9.61328C8.2 9.51328 8.3 9.31328 8.3 9.21328C8.4 9.11328 8.4 8.91328 8.3 8.81328C8.2 8.71328 7.7 7.51328 7.5 7.01328C7.4 6.31328 7.2 6.31328 7 6.31328H6.5C6.3 6.31328 6 6.51328 5.9 6.61328C5.3 7.21328 5 7.91328 5 8.71328C5.1 9.61328 5.4 10.5133 6 11.3133C7.1 12.9133 8.5 14.2133 10.2 15.0133C10.7 15.2133 11.1 15.4133 11.6 15.5133C12.1 15.7133 12.6 15.7133 13.2 15.6133C13.9 15.5133 14.5 15.0133 14.9 14.4133C15.1 14.0133 15.1 13.6133 15 13.2133L14.6 13.0133ZM17.1 3.91328C13.2 0.0132813 6.9 0.0132813 3 3.91328C-0.2 7.11328 -0.8 12.0133 1.4 15.9133L0 21.0133L5.3 19.6133C6.8 20.4133 8.4 20.8133 10 20.8133C15.5 20.8133 19.9 16.4133 19.9 10.9133C20 8.31328 18.9 5.81328 17.1 3.91328ZM14.4 17.9133C13.1 18.7133 11.6 19.2133 10 19.2133C8.5 19.2133 7.1 18.8133 5.8 18.1133L5.5 17.9133L2.4 18.7133L3.2 15.7133L3 15.4133C0.6 11.4133 1.8 6.41328 5.7 3.91328C9.6 1.41328 14.6 2.71328 17 6.51328C19.4 10.4133 18.3 15.5133 14.4 17.9133Z" fill="#7567F5"/>
</svg>
