<svg width="36" height="36" viewBox="0 0 36 36" fill="none" xmlns="http://www.w3.org/2000/svg">
<rect width="36" height="36" rx="18" fill="#7567F5" fill-opacity="0.05"/>
<g clip-path="url(#clip0_1049_7901)">
<path fill-rule="evenodd" clip-rule="evenodd" d="M26.1866 18.9592C26.0222 18.4727 25.7491 18.03 25.3881 17.6647C25.0272 17.2995 24.5878 17.0211 24.1033 16.8509C23.6603 16.6928 23.1889 16.6304 22.72 16.6675C22.72 16.6009 22.6616 11.7667 22.345 11.1334C22.2835 10.988 22.1877 10.8598 22.0658 10.7596C21.9439 10.6595 21.7995 10.5904 21.645 10.5584C18.4783 9.88336 17.0858 10.5084 15.0858 10.85C14.1275 11.0084 12.7941 11.2417 12.7441 12.1834C12.8497 13.0134 12.9108 13.8467 12.9275 14.6834C12.8079 17.5616 12.8524 20.4443 13.0608 23.3175C13.0241 24.1845 13.2137 25.046 13.6108 25.8175C14.1358 26.5259 15.2358 26.2675 16.0275 26.2175L18.4275 26.0592C18.5048 26.0592 18.579 26.0285 18.6337 25.9738C18.6884 25.9191 18.7191 25.8449 18.7191 25.7675C18.7191 25.6902 18.6884 25.616 18.6337 25.5613C18.579 25.5066 18.5048 25.4759 18.4275 25.4759L16.7608 25.5175C16.8191 23.9092 15.8525 23.4259 14.3858 22.6675C14.3275 22.6675 14.0858 22.4509 14.0025 22.5009C13.9704 22.4684 13.9301 22.4454 13.8858 22.4342C13.7941 19.8842 13.8858 17.1175 13.8858 15.0759C13.8858 14.6259 15.1025 14.8925 16.0858 13.075C16.4207 12.5294 16.5534 11.8835 16.4608 11.25C17.2871 10.9498 18.1669 10.825 19.0441 10.8834C19.1654 11.6932 19.5119 12.4527 20.0441 13.075C20.5092 13.5056 21.0873 13.7947 21.7108 13.9084V14.5C21.7108 14.7084 22.1191 16.0917 22.1941 16.95C21.6108 17.7417 22.4108 19.9667 22.1941 21.95C21.5274 21.1129 20.6703 20.4472 19.6941 20.0084C18.5941 19.7334 17.4691 20.625 18.3858 22.175C19.227 23.3026 20.1371 24.3771 21.1108 25.3925C21.3941 25.7342 21.4191 25.8259 21.3775 26.6675C21.3891 26.9675 21.3475 27.2667 21.2525 27.5509C21.2339 27.5793 21.2211 27.6112 21.2148 27.6446C21.2085 27.678 21.2088 27.7123 21.2158 27.7456C21.2227 27.7788 21.2362 27.8104 21.2553 27.8385C21.2745 27.8666 21.299 27.8906 21.3275 27.9092C21.3559 27.9278 21.3878 27.9406 21.4212 27.9469C21.4546 27.9532 21.4889 27.9529 21.5222 27.9459C21.5554 27.9389 21.587 27.9255 21.6151 27.9063C21.6432 27.8872 21.6672 27.8626 21.6858 27.8342C21.94 27.0898 22.0087 26.2945 21.8858 25.5175C21.6608 24.6842 18.2358 21.5092 18.9025 20.8925C19.5691 20.2759 21.2191 22.2175 21.9358 23.0092C22.115 23.1475 22.3358 23.2217 22.5608 23.2175C23.8775 23.0175 22.7691 18.5259 22.9941 17.5842C23.6076 17.581 24.2007 17.8034 24.6608 18.2092C25.243 18.8701 25.6426 19.6715 25.82 20.5342C26.0994 21.5485 26.1252 22.6159 25.895 23.6425C25.8033 24.0509 24.995 25.1509 25.0616 25.5842C25.0983 26.3284 25.2016 27.0675 25.37 27.7925C25.3831 27.8286 25.4032 27.8618 25.4292 27.8902C25.4551 27.9185 25.4864 27.9414 25.5212 27.9577C25.5561 27.9739 25.5937 27.9832 25.6321 27.9849C25.6705 27.9865 25.7089 27.9807 25.745 27.9675C25.7811 27.9544 25.8143 27.9343 25.8426 27.9083C25.8709 27.8824 25.8939 27.8511 25.9101 27.8163C25.9264 27.7814 25.9356 27.7438 25.9373 27.7054C25.939 27.667 25.9331 27.6286 25.92 27.5925C25.804 26.9069 25.7455 26.2129 25.745 25.5175C25.8033 25.5175 25.8033 25.3509 25.87 25.2259C26.02 24.9342 26.2533 24.5509 26.4116 24.2592C27.1616 22.9175 26.795 20.2759 26.1866 18.9592ZM14.6608 23.8509C15.6608 24.6842 15.9358 24.6842 16.1191 25.5175H16.0025C15.5858 25.5175 14.4691 25.7009 14.2275 25.3509C13.9547 24.637 13.8493 23.8702 13.9191 23.1092L14.6608 23.8509ZM15.4941 12.3584C15.1388 12.8262 14.7547 13.2715 14.3441 13.6917C13.6941 14.4584 13.8775 14.1084 13.8025 13.3334C13.6441 11.9417 13.6275 12.075 14.0858 11.8917C14.6752 11.6934 15.2764 11.532 15.8858 11.4084C15.8275 11.75 15.6941 12.075 15.4941 12.3584ZM20.8275 12.4667C20.7275 12.3667 19.0691 10.7167 19.8275 10.9084C20.3719 11.1067 20.9275 11.2678 21.4941 11.3917C21.6066 11.9534 21.6516 12.5275 21.6275 13.1C21.3349 12.9275 21.0683 12.7143 20.8358 12.4667H20.8275Z" fill="#7567F5"/>
<path fill-rule="evenodd" clip-rule="evenodd" d="M27.9954 11.4156C27.9954 10.8156 27.9954 8.91563 27.5121 8.55729C27.0287 8.19896 24.4454 8.01562 21.5037 8.01562C18.2871 8.01562 14.5946 8.18229 12.7862 8.38229C11.7979 8.5234 10.8201 8.71507 9.85289 8.95729C9.42789 9.05729 8.81122 8.95729 8.37789 9.41562C7.94455 9.87396 8.05289 10.8073 8.06122 11.4156C8.06122 11.8656 7.86039 13.2406 8.18622 13.5823C8.55455 13.8523 9.00289 13.9906 9.46122 13.974C10.355 14.144 11.2743 14.127 12.1612 13.924C12.2275 13.9063 12.2841 13.863 12.3185 13.8036C12.3529 13.7442 12.3622 13.6736 12.3446 13.6073C12.3269 13.541 12.2836 13.4844 12.2242 13.45C12.1648 13.4157 12.0942 13.4063 12.0279 13.424C10.8991 13.5979 9.74509 13.5008 8.66122 13.1406C8.95289 9.08229 8.57789 10.0656 10.0362 9.80729C12.3446 9.34896 12.8862 9.23229 17.9029 9.07396C18.9029 9.07396 26.0787 8.82396 26.9871 9.22396C27.1529 9.95062 27.2337 10.6948 27.2287 11.4406C27.2287 11.5323 27.0787 12.1656 27.2287 12.274C27.0121 12.324 26.4621 12.274 26.2371 12.349C25.4654 12.4523 24.6904 12.5134 23.9121 12.5323C23.8347 12.5323 23.7605 12.563 23.7058 12.6177C23.6511 12.6724 23.6204 12.7466 23.6204 12.824C23.6204 12.9013 23.6511 12.9755 23.7058 13.0302C23.7605 13.0849 23.8347 13.1156 23.9121 13.1156C24.7193 13.1301 25.5248 13.0967 26.3287 13.0156C26.6037 13.0156 26.9954 13.0156 27.3037 12.974C28.2287 12.8156 27.9454 12.1823 27.9954 11.4156ZM16.7946 16.8581C16.8708 16.8415 16.9373 16.7954 16.9795 16.7297C17.0217 16.6641 17.0361 16.5844 17.0196 16.5081C17.003 16.4319 16.9568 16.3653 16.8912 16.3231C16.8255 16.2809 16.7458 16.2665 16.6696 16.2831C16.2196 16.3581 15.9029 16.6581 15.8362 17.3248C15.5446 17.1831 14.7696 17.4831 14.7779 17.7998C14.7862 18.1165 15.5612 18.3748 15.9029 18.1331C15.9804 18.5031 16.1371 18.8523 16.3612 19.1581C16.4884 19.3052 16.6629 19.4032 16.8546 19.4351C17.0464 19.4671 17.2433 19.431 17.4112 19.3331C18.1862 18.9165 18.2446 17.5165 18.6446 17.1748C18.8446 16.9915 18.9362 16.9165 19.1612 17.1748C19.5779 17.6831 19.4696 18.1998 19.3696 18.2331C19.3041 18.2543 19.2493 18.2999 19.2167 18.3605C19.1841 18.421 19.1762 18.4918 19.1946 18.5581C19.3029 18.9165 19.9529 18.7665 20.0279 17.9415C20.2304 18.0098 20.4514 17.9978 20.6453 17.9079C20.8391 17.8179 20.991 17.6569 21.0696 17.4581C21.0157 17.366 20.943 17.2862 20.8561 17.2241C20.7693 17.162 20.6704 17.1189 20.5657 17.0976C20.4611 17.0764 20.3532 17.0775 20.249 17.1008C20.1448 17.1242 20.0468 17.1693 19.9612 17.2331C19.6612 16.2415 18.9112 15.9581 18.4029 16.1748C18.2706 16.2467 18.1451 16.3303 18.0279 16.4248C17.3862 16.8915 17.3946 17.7081 17.0779 18.2331C16.7612 18.7581 17.0279 18.6748 16.7946 18.2748C16.5612 17.8748 16.3279 16.9915 16.7946 16.8581Z" fill="#7567F5"/>
</g>
<defs>
<clipPath id="clip0_1049_7901">
<rect width="20" height="20" fill="white" transform="translate(8 8)"/>
</clipPath>
</defs>
</svg>
